<?xml version="1.0" encoding="UTF-8" standalone="no"?>
<!-- Created with Inkscape (http://www.inkscape.org/) -->

<svg
   xmlns:ns0="http://www.iki.fi/pav/software/textext/"
   xmlns:dc="http://purl.org/dc/elements/1.1/"
   xmlns:cc="http://creativecommons.org/ns#"
   xmlns:rdf="http://www.w3.org/1999/02/22-rdf-syntax-ns#"
   xmlns:svg="http://www.w3.org/2000/svg"
   xmlns="http://www.w3.org/2000/svg"
   xmlns:xlink="http://www.w3.org/1999/xlink"
   xmlns:sodipodi="http://sodipodi.sourceforge.net/DTD/sodipodi-0.dtd"
   xmlns:inkscape="http://www.inkscape.org/namespaces/inkscape"
   sodipodi:docname="CHa.svg"
   inkscape:version="0.48.4 r9939"
   version="1.1"
   id="svg2"
   height="1052.3622047"
   width="744.09448819">
  <sodipodi:namedview
     id="base"
     pagecolor="#ffffff"
     bordercolor="#666666"
     borderopacity="1.0"
     inkscape:pageopacity="0.0"
     inkscape:pageshadow="2"
     inkscape:zoom="1.979899"
     inkscape:cx="210.03049"
     inkscape:cy="669.20235"
     inkscape:document-units="px"
     inkscape:current-layer="layer3"
     showgrid="true"
     inkscape:window-width="1918"
     inkscape:window-height="1062"
     inkscape:window-x="0"
     inkscape:window-y="0"
     inkscape:window-maximized="0"
     inkscape:snap-object-midpoints="true"
     inkscape:object-paths="true"
     inkscape:snap-grids="false"
     inkscape:snap-intersection-paths="true"
     inkscape:snap-nodes="true"
     inkscape:object-nodes="true"
     inkscape:snap-global="true">
    <inkscape:grid
       type="xygrid"
       id="grid3004"
       empspacing="5"
       visible="false"
       enabled="false"
       snapvisiblegridlinesonly="true"
       units="mm"
       spacingx="1mm"
       spacingy="1mm" />
  </sodipodi:namedview>
  <defs
     id="defs4">
    <marker
       style="overflow:visible"
       id="Arrow1Lstart"
       refX="0.0"
       refY="0.0"
       orient="auto"
       inkscape:stockid="Arrow1Lstart">
      <path
         transform="scale(0.8) translate(12.5,0)"
         style="fill-rule:evenodd;stroke:#000000;stroke-width:1.0pt"
         d="M 0.0,0.0 L 5.0,-5.0 L -12.5,0.0 L 5.0,5.0 L 0.0,0.0 z "
         id="path4298" />
    </marker>
    <linearGradient
       id="linearGradient7161">
      <stop
         id="stop7169"
         offset="0"
         style="stop-color:#8a8a8a;stop-opacity:0.49803922;" />
      <stop
         style="stop-color:#c7c7c7;stop-opacity:0.4437086;"
         offset="0.77245498"
         id="stop7171" />
      <stop
         style="stop-color:#b5b5b5;stop-opacity:0;"
         offset="1"
         id="stop7165" />
    </linearGradient>
    <marker
       inkscape:stockid="Arrow1Mend"
       orient="auto"
       refY="0.0"
       refX="0.0"
       id="Arrow1Mend"
       style="overflow:visible;">
      <path
         id="path5082"
         d="M 0.0,0.0 L 5.0,-5.0 L -12.5,0.0 L 5.0,5.0 L 0.0,0.0 z "
         style="fill-rule:evenodd;stroke:#000000;stroke-width:1.0pt;"
         transform="scale(0.4) rotate(180) translate(10,0)" />
    </marker>
    <linearGradient
       inkscape:collect="always"
       xlink:href="#linearGradient7161"
       id="linearGradient7167"
       x1="251.14966"
       y1="369.05847"
       x2="256.74582"
       y2="618.34418"
       gradientUnits="userSpaceOnUse" />
    <marker
       style="overflow:visible"
       id="Arrow1Lstart9"
       refX="0.0"
       refY="0.0"
       orient="auto"
       inkscape:stockid="Arrow1Lstart9">
      <path
         transform="scale(0.8) translate(12.5,0)"
         style="stroke:#329700;stroke-width:1.0pt;fill:#329700;fill-rule:evenodd"
         d="M 0.0,0.0 L 5.0,-5.0 L -12.5,0.0 L 5.0,5.0 L 0.0,0.0 z "
         id="path4754" />
    </marker>
  </defs>
  <metadata
     id="metadata7">
    <rdf:RDF>
      <cc:Work
         rdf:about="">
        <dc:format>image/svg+xml</dc:format>
        <dc:type
           rdf:resource="http://purl.org/dc/dcmitype/StillImage" />
        <dc:title />
      </cc:Work>
    </rdf:RDF>
  </metadata>
  <g
     inkscape:groupmode="layer"
     id="layer2"
     inkscape:label="helplines"
     style="display:none">
    <path
       style="fill:#2a1313;fill-opacity:0.19026549;stroke:#000000;stroke-width:0.35433072;stroke-miterlimit:4;stroke-opacity:1;stroke-dasharray:none;display:inline"
       d="M 132.47216,701.83918 369.46972,83.31454"
       id="path3818"
       inkscape:connector-curvature="0"
       sodipodi:nodetypes="cc" />
    <path
       style="fill:#2a1313;fill-opacity:0.19026549;stroke:#000000;stroke-width:0.35433072;stroke-miterlimit:4;stroke-opacity:1;stroke-dasharray:none;display:inline"
       d="M 159.6041,373.97911 371.23106,356.30144"
       id="path3822"
       inkscape:connector-curvature="0" />
    <path
       style="fill:#2a1313;fill-opacity:0.19026549;stroke:#000000;stroke-width:0.35433072;stroke-miterlimit:4;stroke-opacity:1;stroke-dasharray:none;display:inline"
       d="M 50.760165,466.91315 421.48614,220.43593"
       id="path3824"
       inkscape:connector-curvature="0" />
    <path
       inkscape:connector-curvature="0"
       id="path3826"
       d="M 219.56979,221.03094 342.8084,406.39393"
       style="fill:#2a1313;fill-opacity:0.19026549;stroke:#000000;stroke-width:0.35433072;stroke-miterlimit:4;stroke-opacity:1;stroke-dasharray:none;display:inline" />
    <path
       style="fill:#2a1313;fill-opacity:0.19026549;stroke:#000000;stroke-width:0.35433072;stroke-miterlimit:4;stroke-opacity:1;stroke-dasharray:none;display:inline"
       d="m 161.42857,557.36218 54.28572,25"
       id="path3828"
       inkscape:connector-curvature="0" />
    <path
       style="fill:#2a1313;fill-opacity:0.19026549;stroke:#000000;stroke-width:0.35433072;stroke-miterlimit:4;stroke-opacity:1;stroke-dasharray:none"
       d="m 297.85714,178.79075 65,11.42857"
       id="path3849"
       inkscape:connector-curvature="0" />
  </g>
  <g
     inkscape:label="Layer 1"
     inkscape:groupmode="layer"
     id="layer1"
     style="display:inline">
    <path
       style="fill:#000000;fill-opacity:1;stroke:#000000;stroke-opacity:1"
       d="m 243.4042,150.59943 9.61589,115.11598"
       id="path6223"
       inkscape:connector-curvature="0" />
    <path
       style="fill:url(#linearGradient7167);fill-opacity:1;stroke:none"
       d="m 194.98772,371.02344 117.76439,-9.83712 44.70801,175.76301 -21.00675,80.01125 C 219.38773,658.84476 194.36825,639.30168 112.00456,557.81547 L 102.57823,453.3779 z"
       id="path3006"
       inkscape:connector-curvature="0"
       sodipodi:nodetypes="ccccccc" />
    <path
       sodipodi:type="arc"
       style="fill:#000000;fill-opacity:1;stroke:none;display:inline"
       id="path3858"
       sodipodi:cx="141.73228"
       sodipodi:cy="290.55115"
       sodipodi:rx="17.716536"
       sodipodi:ry="17.716536"
       d="m 159.44882,290.55115 a 17.716536,17.716536 0 1 1 -35.43307,0 17.716536,17.716536 0 1 1 35.43307,0 z"
       transform="matrix(0.15,0,0,0.15,336.20028,493.36666)" />
    <path
       transform="matrix(0.15,0,0,0.15,291.49227,317.60365)"
       d="m 159.44882,290.55115 a 17.716536,17.716536 0 1 1 -35.43307,0 17.716536,17.716536 0 1 1 35.43307,0 z"
       sodipodi:ry="17.716536"
       sodipodi:rx="17.716536"
       sodipodi:cy="290.55115"
       sodipodi:cx="141.73228"
       id="path3860"
       style="fill:#000000;fill-opacity:1;stroke:none;display:inline"
       sodipodi:type="arc" />
    <path
       sodipodi:type="arc"
       style="fill:#000000;fill-opacity:1;stroke:none;display:inline"
       id="path3862"
       sodipodi:cx="141.73228"
       sodipodi:cy="290.55115"
       sodipodi:rx="17.716536"
       sodipodi:ry="17.716536"
       d="m 159.44882,290.55115 a 17.716536,17.716536 0 1 1 -35.43307,0 17.716536,17.716536 0 1 1 35.43307,0 z"
       transform="matrix(0.15,0,0,0.15,173.72788,327.44077)" />
    <path
       transform="matrix(0.15,0,0,0.15,81.318387,409.79523)"
       d="m 159.44882,290.55115 a 17.716536,17.716536 0 1 1 -35.43307,0 17.716536,17.716536 0 1 1 35.43307,0 z"
       sodipodi:ry="17.716536"
       sodipodi:rx="17.716536"
       sodipodi:cy="290.55115"
       sodipodi:cx="141.73228"
       id="path3864"
       style="fill:#000000;fill-opacity:1;stroke:none;display:inline"
       sodipodi:type="arc" />
    <path
       transform="matrix(0.15,0,0,0.15,240.09379,321.89708)"
       d="m 159.44882,290.55115 a 17.716536,17.716536 0 1 1 -35.43307,0 17.716536,17.716536 0 1 1 35.43307,0 z"
       sodipodi:ry="17.716536"
       sodipodi:rx="17.716536"
       sodipodi:cy="290.55115"
       sodipodi:cx="141.73228"
       id="path5825"
       style="fill:#0018f1;fill-opacity:1;stroke:none;display:inline"
       sodipodi:type="arc" />
    <path
       transform="matrix(0.15,0,0,0.15,166.4359,465.35993)"
       d="m 159.44882,290.55115 a 17.716536,17.716536 0 1 1 -35.43307,0 17.716536,17.716536 0 1 1 35.43307,0 z"
       sodipodi:ry="17.716536"
       sodipodi:rx="17.716536"
       sodipodi:cy="290.55115"
       sodipodi:cx="141.73228"
       id="path6221"
       style="fill:#000000;fill-opacity:1;stroke:none;display:inline"
       sodipodi:type="arc" />
    <path
       inkscape:connector-curvature="0"
       id="path6739"
       d="M 483.25206,246.48363 22.78814,284.94719"
       style="fill:#000000;fill-opacity:1;stroke:#c90000;stroke-width:2;stroke-opacity:1;stroke-miterlimit:4;stroke-dasharray:none" />
    <path
       sodipodi:type="arc"
       style="fill:#0018f1;fill-opacity:1;stroke:none;display:inline"
       id="path6741"
       sodipodi:cx="141.73228"
       sodipodi:cy="290.55115"
       sodipodi:rx="17.716536"
       sodipodi:ry="17.716536"
       d="m 159.44882,290.55115 a 17.716536,17.716536 0 1 1 -35.43307,0 17.716536,17.716536 0 1 1 35.43307,0 z"
       transform="matrix(0.15,0,0,0.15,231.76025,222.13274)" />
  </g>
  <g
     inkscape:groupmode="layer"
     id="layer3"
     inkscape:label="popisky"
     style="display:inline">
    <path
       inkscape:connector-curvature="0"
       id="path3038"
       d="m 273.65788,263.99149 8.33353,102.42182"
       style="stroke-linejoin:round;marker-end:none;stroke-opacity:1;fill-opacity:1;marker-start:url(#Arrow1Lstart9);stroke-dashoffset:0;stroke:#329700;stroke-linecap:round;stroke-miterlimit:4;stroke-dasharray:none;stroke-width:1;fill:none" />
    <path
       style="fill:#c90000;fill-opacity:1;stroke:#000000;stroke-width:1;stroke-linecap:round;stroke-linejoin:round;stroke-miterlimit:4;stroke-opacity:1;stroke-dasharray:3, 3;stroke-dashoffset:0"
       d="M 187.69574,508.9426 261.13886,365.49769"
       id="path7393"
       inkscape:connector-curvature="0" />
    <g
       style="font-style:normal;font-variant:normal;font-weight:normal;font-stretch:normal;letter-spacing:normal;word-spacing:normal;text-anchor:start;fill:none;stroke:#000000;stroke-linecap:butt;stroke-linejoin:miter;stroke-miterlimit:10.43299961;stroke-opacity:1;stroke-dasharray:none;stroke-dashoffset:0"
       ns0:preamble=""
       ns0:text="$\\mbox{\\boldmath{$\\rm a$}}_3$"
       word-spacing="normal"
       letter-spacing="normal"
       font-size-adjust="none"
       font-stretch="normal"
       font-weight="normal"
       font-variant="normal"
       font-style="normal"
       stroke-miterlimit="10.433"
       xml:space="preserve"
       transform="matrix(2.8151543,0,0,-2.8151543,-470.37292,2348.9763)"
       id="g4339"><path
         id="path4341"
         d="m 227.15,707.89 0,-0.06 0.01,-0.06 0,-0.03 0,-0.03 0,-0.04 0.01,-0.03 0.01,-0.03 0,-0.03 0.02,-0.04 0.01,-0.03 0.01,-0.03 0.02,-0.03 0.02,-0.03 0.02,-0.03 0.03,-0.03 0.03,-0.02 0.03,-0.03 0.02,-0.01 0.02,-0.01 0.02,-0.02 0.02,-0.01 0.02,-0.01 0.02,-0.01 0.02,-0.01 0.03,-0.01 0.02,-0.01 0.03,-0.01 0.03,-0.01 0.03,-0.01 0.03,0 0.03,-0.01 0.03,-0.01 0.03,0 0.04,-0.01 0.04,0 0.03,-0.01 0.04,0 0.04,-0.01 0.05,0 0.04,0 0.04,0 0.05,0 0.05,-0.01 h 0.47 c 0.2,0 0.32,0 0.32,0.24 0,0.23 -0.13,0.23 -0.25,0.23 -0.61,0.01 -0.61,0.14 -0.61,0.37 v 2.13 c 0,0.89 -0.71,1.53 -2.19,1.53 -0.57,0 -1.78,-0.03 -1.78,-0.91 0,-0.44 0.35,-0.62 0.61,-0.62 0.31,0 0.63,0.2 0.63,0.62 0,0.3 -0.19,0.47 -0.22,0.49 0.28,0.06 0.6,0.07 0.72,0.07 0.75,0 1.09,-0.42 1.09,-1.18 v -0.33 -0.31 -0.94 c 0,-0.96 -0.91,-1.09 -1.16,-1.09 -0.51,0 -0.91,0.35 -0.91,0.79 0,1.07 1.58,1.21 2.07,1.24 h 0 v 0.31 c -0.7,-0.03 -3.23,-0.12 -3.23,-1.56 0,-0.96 1.23,-1.13 1.92,-1.13 0.8,0 1.26,0.4 1.48,0.82 z"
         inkscape:connector-curvature="0"
         style="fill:#000000;stroke-width:0" /><path
         id="path4343"
         d="m 230.9,707.95 0.05,0 0.05,0 0.05,-0.01 0.05,0 0.04,-0.01 0.05,-0.02 0.04,-0.01 0.05,-0.02 0.04,-0.02 0.04,-0.02 0.04,-0.02 0.04,-0.02 0.03,-0.03 0.04,-0.03 0.03,-0.03 0.03,-0.04 0.03,-0.03 0.03,-0.04 0.03,-0.04 0.02,-0.04 0.03,-0.05 0.02,-0.05 0.02,-0.05 0.02,-0.05 0.01,-0.05 0.02,-0.06 0.01,-0.05 0.01,-0.06 0.01,-0.07 0,-0.06 0,-0.07 0.01,-0.07 c 0,-0.86 -0.51,-1.12 -0.91,-1.12 -0.28,0 -0.89,0.08 -1.18,0.49 0.32,0.02 0.4,0.25 0.4,0.39 0,0.22 -0.17,0.38 -0.38,0.38 -0.2,0 -0.39,-0.12 -0.39,-0.4 0,-0.65 0.72,-1.08 1.56,-1.08 0.97,0 1.64,0.65 1.64,1.34 0,0.55 -0.45,1.09 -1.21,1.25 0.73,0.26 1,0.78 1,1.21 0,0.55 -0.64,0.96 -1.41,0.96 -0.78,0 -1.37,-0.38 -1.37,-0.93 0,-0.24 0.16,-0.37 0.37,-0.37 0.21,0 0.35,0.16 0.35,0.35 0,0.2 -0.14,0.35 -0.35,0.36 0.24,0.31 0.72,0.39 0.98,0.39 0.31,0 0.75,-0.16 0.75,-0.76 0,-0.29 -0.1,-0.61 -0.28,-0.83 -0.23,-0.26 -0.42,-0.28 -0.77,-0.3 -0.18,-0.01 -0.19,-0.01 -0.23,-0.02 -0.01,0 -0.06,-0.01 -0.06,-0.09 0,-0.1 0.06,-0.1 0.18,-0.1 z"
         inkscape:connector-curvature="0"
         style="fill:#000000;stroke-width:0" /></g>    <g
       id="g4660"
       transform="matrix(2.8151543,0,0,-2.8151543,-563.79884,2448.8995)"
       xml:space="preserve"
       stroke-miterlimit="10.433"
       font-style="normal"
       font-variant="normal"
       font-weight="normal"
       font-stretch="normal"
       font-size-adjust="none"
       letter-spacing="normal"
       word-spacing="normal"
       ns0:text="$\\mbox{\\boldmath{$\\rm a$}}_6$"
       ns0:preamble=""
       style="font-style:normal;font-variant:normal;font-weight:normal;font-stretch:normal;letter-spacing:normal;word-spacing:normal;text-anchor:start;fill:none;stroke:#000000;stroke-linecap:butt;stroke-linejoin:miter;stroke-miterlimit:10.43299961;stroke-opacity:1;stroke-dasharray:none;stroke-dashoffset:0"><path
         d="m 227.15,707.89 0,-0.06 0.01,-0.06 0,-0.03 0,-0.03 0,-0.04 0.01,-0.03 0.01,-0.03 0,-0.03 0.02,-0.04 0.01,-0.03 0.01,-0.03 0.02,-0.03 0.02,-0.03 0.02,-0.03 0.03,-0.03 0.03,-0.02 0.03,-0.03 0.02,-0.01 0.02,-0.01 0.02,-0.02 0.02,-0.01 0.02,-0.01 0.02,-0.01 0.02,-0.01 0.03,-0.01 0.02,-0.01 0.03,-0.01 0.03,-0.01 0.03,-0.01 0.03,0 0.03,-0.01 0.03,-0.01 0.03,0 0.04,-0.01 0.04,0 0.03,-0.01 0.04,0 0.04,-0.01 0.05,0 0.04,0 0.04,0 0.05,0 0.05,-0.01 h 0.47 c 0.2,0 0.32,0 0.32,0.24 0,0.23 -0.13,0.23 -0.25,0.23 -0.61,0.01 -0.61,0.14 -0.61,0.37 v 2.13 c 0,0.89 -0.71,1.53 -2.19,1.53 -0.57,0 -1.78,-0.03 -1.78,-0.91 0,-0.44 0.35,-0.62 0.61,-0.62 0.31,0 0.63,0.2 0.63,0.62 0,0.3 -0.19,0.47 -0.22,0.49 0.28,0.06 0.6,0.07 0.72,0.07 0.75,0 1.09,-0.42 1.09,-1.18 v -0.33 -0.31 -0.94 c 0,-0.96 -0.91,-1.09 -1.16,-1.09 -0.51,0 -0.91,0.35 -0.91,0.79 0,1.07 1.58,1.21 2.07,1.24 h 0 v 0.31 c -0.7,-0.03 -3.23,-0.12 -3.23,-1.56 0,-0.96 1.23,-1.13 1.92,-1.13 0.8,0 1.26,0.4 1.48,0.82 z"
         id="path4662"
         inkscape:connector-curvature="0"
         style="fill:#000000;stroke-width:0" /><path
         d="m 230.05,707.91 0,0.1 0,0.11 0,0.1 0.01,0.1 0.01,0.1 0.01,0.1 0.01,0.1 0.01,0.09 0.02,0.1 0.02,0.09 0.03,0.09 0.03,0.09 0.01,0.04 0.02,0.05 0.02,0.04 0.02,0.04 0.02,0.04 0.02,0.04 0.02,0.04 0.03,0.04 c 0.24,0.38 0.61,0.64 1.06,0.64 0.21,0 0.48,-0.06 0.62,-0.25 -0.17,-0.01 -0.32,-0.13 -0.32,-0.33 0,-0.17 0.12,-0.33 0.33,-0.33 0.21,0 0.34,0.14 0.34,0.34 0,0.41 -0.3,0.77 -0.99,0.77 -1,0 -2.02,-0.92 -2.02,-2.41 0,-1.81 0.85,-2.35 1.61,-2.35 0.85,0 1.59,0.65 1.59,1.56 0,0.88 -0.7,1.54 -1.52,1.54 l -0.03,-0.2 c 0.32,0 0.53,-0.12 0.71,-0.38 0.16,-0.27 0.17,-0.56 0.17,-0.96 0,-0.4 0,-0.69 -0.19,-0.96 -0.16,-0.24 -0.39,-0.38 -0.73,-0.38 h 0 c -0.34,0 -0.62,0.21 -0.76,0.51 -0.11,0.21 -0.16,0.56 -0.16,0.98 0,0.67 0.4,1.19 0.96,1.19 l 0.03,0.2 c -0.55,0 -0.86,-0.37 -1.01,-0.68 z"
         id="path4664"
         inkscape:connector-curvature="0"
         style="fill:#000000;stroke-width:0" /></g>    <g
       style="font-style:normal;font-variant:normal;font-weight:normal;font-stretch:normal;letter-spacing:normal;word-spacing:normal;text-anchor:start;fill:none;stroke:#000000;stroke-linecap:butt;stroke-linejoin:miter;stroke-miterlimit:10.43299961;stroke-opacity:1;stroke-dasharray:none;stroke-dashoffset:0"
       ns0:preamble=""
       ns0:text="$\\mbox{\\boldmath{$\\rm a$}}_7$"
       word-spacing="normal"
       letter-spacing="normal"
       font-size-adjust="none"
       font-stretch="normal"
       font-weight="normal"
       font-variant="normal"
       font-style="normal"
       stroke-miterlimit="10.433"
       xml:space="preserve"
       transform="matrix(2.8151543,0,0,-2.8151543,-306.88824,2350.3788)"
       id="g4767"><path
         id="path4769"
         d="m 227.15,707.89 0,-0.06 0.01,-0.06 0,-0.03 0,-0.03 0,-0.04 0.01,-0.03 0.01,-0.03 0,-0.03 0.02,-0.04 0.01,-0.03 0.01,-0.03 0.02,-0.03 0.02,-0.03 0.02,-0.03 0.03,-0.03 0.03,-0.02 0.03,-0.03 0.02,-0.01 0.02,-0.01 0.02,-0.02 0.02,-0.01 0.02,-0.01 0.02,-0.01 0.02,-0.01 0.03,-0.01 0.02,-0.01 0.03,-0.01 0.03,-0.01 0.03,-0.01 0.03,0 0.03,-0.01 0.03,-0.01 0.03,0 0.04,-0.01 0.04,0 0.03,-0.01 0.04,0 0.04,-0.01 0.05,0 0.04,0 0.04,0 0.05,0 0.05,-0.01 h 0.47 c 0.2,0 0.32,0 0.32,0.24 0,0.23 -0.13,0.23 -0.25,0.23 -0.61,0.01 -0.61,0.14 -0.61,0.37 v 2.13 c 0,0.89 -0.71,1.53 -2.19,1.53 -0.57,0 -1.78,-0.03 -1.78,-0.91 0,-0.44 0.35,-0.62 0.61,-0.62 0.31,0 0.63,0.2 0.63,0.62 0,0.3 -0.19,0.47 -0.22,0.49 0.28,0.06 0.6,0.07 0.72,0.07 0.75,0 1.09,-0.42 1.09,-1.18 v -0.33 -0.31 -0.94 c 0,-0.96 -0.91,-1.09 -1.16,-1.09 -0.51,0 -0.91,0.35 -0.91,0.79 0,1.07 1.58,1.21 2.07,1.24 h 0 v 0.31 c -0.7,-0.03 -3.23,-0.12 -3.23,-1.56 0,-0.96 1.23,-1.13 1.92,-1.13 0.8,0 1.26,0.4 1.48,0.82 z"
         inkscape:connector-curvature="0"
         style="fill:#000000;stroke-width:0" /><path
         id="path4771"
         d="m 232.73,709.83 0,0.01 0.01,0.01 0,0 0.01,0.01 0,0.01 0.01,0 0,0.01 0.01,0 0,0.01 0,0.01 0.01,0 0,0.01 0,0 0,0.01 0.01,0.01 0,0 0,0.01 0,0.01 0,0.01 0,0 0,0.01 0,0.01 0.01,0.01 0,0.01 0,0.01 0,0.01 0,0.02 0,0.01 0,0.01 0,0.01 0,0.01 0,0 0,0.01 0,0.01 0,0.01 h -1.83 c -0.28,0 -0.35,0.01 -0.6,0.03 -0.37,0.02 -0.38,0.07 -0.4,0.19 h -0.24 l -0.24,-1.49 h 0.24 c 0.01,0.11 0.08,0.57 0.19,0.64 0.06,0.04 0.62,0.04 0.73,0.04 h 1.51 c -0.22,-0.29 -0.57,-0.73 -0.72,-0.92 -0.91,-1.2 -1,-2.3 -1,-2.71 0,-0.08 0,-0.4 0.33,-0.4 0.33,0 0.33,0.31 0.33,0.41 v 0.27 c 0,1.35 0.28,1.97 0.58,2.35 z"
         inkscape:connector-curvature="0"
         style="fill:#000000;stroke-width:0" /></g>    <g
       id="content"
       transform="matrix(2.8151543,0,0,-2.8151543,-259.07985,2531.0931)"
       xml:space="preserve"
       stroke-miterlimit="10.433"
       font-style="normal"
       font-variant="normal"
       font-weight="normal"
       font-stretch="normal"
       font-size-adjust="none"
       letter-spacing="normal"
       word-spacing="normal"
       ns0:text="$\\mbox{\\boldmath{$\\rm a$}}_8$"
       ns0:preamble=""
       style="font-style:normal;font-variant:normal;font-weight:normal;font-stretch:normal;letter-spacing:normal;word-spacing:normal;text-anchor:start;fill:none;stroke:#000000;stroke-linecap:butt;stroke-linejoin:miter;stroke-miterlimit:10.43299961;stroke-opacity:1;stroke-dasharray:none;stroke-dashoffset:0"><path
         d="m 227.15,707.89 0,-0.06 0.01,-0.06 0,-0.03 0,-0.03 0,-0.04 0.01,-0.03 0.01,-0.03 0,-0.03 0.02,-0.04 0.01,-0.03 0.01,-0.03 0.02,-0.03 0.02,-0.03 0.02,-0.03 0.03,-0.03 0.03,-0.02 0.03,-0.03 0.02,-0.01 0.02,-0.01 0.02,-0.02 0.02,-0.01 0.02,-0.01 0.02,-0.01 0.02,-0.01 0.03,-0.01 0.02,-0.01 0.03,-0.01 0.03,-0.01 0.03,-0.01 0.03,0 0.03,-0.01 0.03,-0.01 0.03,0 0.04,-0.01 0.04,0 0.03,-0.01 0.04,0 0.04,-0.01 0.05,0 0.04,0 0.04,0 0.05,0 0.05,-0.01 h 0.47 c 0.2,0 0.32,0 0.32,0.24 0,0.23 -0.13,0.23 -0.25,0.23 -0.61,0.01 -0.61,0.14 -0.61,0.37 v 2.13 c 0,0.89 -0.71,1.53 -2.19,1.53 -0.57,0 -1.78,-0.03 -1.78,-0.91 0,-0.44 0.35,-0.62 0.61,-0.62 0.31,0 0.63,0.2 0.63,0.62 0,0.3 -0.19,0.47 -0.22,0.49 0.28,0.06 0.6,0.07 0.72,0.07 0.75,0 1.09,-0.42 1.09,-1.18 v -0.33 -0.31 -0.94 c 0,-0.96 -0.91,-1.09 -1.16,-1.09 -0.51,0 -0.91,0.35 -0.91,0.79 0,1.07 1.58,1.21 2.07,1.24 h 0 v 0.31 c -0.7,-0.03 -3.23,-0.12 -3.23,-1.56 0,-0.96 1.23,-1.13 1.92,-1.13 0.8,0 1.26,0.4 1.48,0.82 z"
         id="path4875"
         inkscape:connector-curvature="0"
         style="fill:#000000;stroke-width:0" /><path
         d="m 231.47,708.14 0.05,0.03 0.05,0.02 0.05,0.03 0.05,0.02 0.04,0.03 0.05,0.03 0.04,0.02 0.04,0.03 0.04,0.03 0.04,0.03 0.04,0.03 0.03,0.03 0.04,0.03 0.03,0.03 0.03,0.03 0.03,0.04 0.03,0.03 0.03,0.03 0.02,0.04 0.03,0.03 0.02,0.04 0.02,0.03 0.02,0.04 0.01,0.04 0.02,0.04 0.01,0.04 0.01,0.04 0.01,0.04 0.01,0.04 0,0.04 0,0.05 0.01,0.04 c 0,0.68 -0.71,1.04 -1.38,1.04 l -0.02,-0.2 c 0.54,0 1.03,-0.34 1.03,-0.84 0,-0.62 -0.73,-0.93 -0.74,-0.93 -0.02,0 -0.03,0.01 -0.08,0.04 l -0.84,0.48 c -0.18,0.11 -0.38,0.29 -0.38,0.55 0,0.44 0.51,0.7 1.01,0.7 l 0.02,0.2 c -0.77,0 -1.4,-0.5 -1.4,-1.16 0,-0.33 0.16,-0.57 0.28,-0.7 0.13,-0.15 0.18,-0.18 0.59,-0.42 -0.39,-0.17 -1.08,-0.55 -1.08,-1.27 0,-0.78 0.8,-1.21 1.59,-1.21 l 0.02,0.22 c -0.64,0 -1.2,0.41 -1.2,0.99 0,0.51 0.39,0.91 0.89,1.14 h 0 l 0.95,-0.55 c 0.19,-0.11 0.53,-0.32 0.53,-0.73 0,-0.52 -0.57,-0.85 -1.17,-0.85 l -0.02,-0.22 c 0.89,0 1.61,0.56 1.61,1.32 0,0.46 -0.27,0.84 -0.68,1.08 -0.08,0.06 -0.33,0.2 -0.43,0.25 z"
         id="path4877"
         inkscape:connector-curvature="0"
         style="fill:#000000;stroke-width:0" /></g>    <g
       id="g6945"
       transform="matrix(2.8151543,0,0,-2.8151543,-368.85263,2246.9387)"
       xml:space="preserve"
       stroke-miterlimit="10.433"
       font-style="normal"
       font-variant="normal"
       font-weight="normal"
       font-stretch="normal"
       font-size-adjust="none"
       letter-spacing="normal"
       word-spacing="normal"
       ns0:text="$\\mbox{\\boldmath{$\\rm x$}}$"
       ns0:preamble=""
       style="font-style:normal;font-variant:normal;font-weight:normal;font-stretch:normal;letter-spacing:normal;word-spacing:normal;text-anchor:start;fill:#0018f1;fill-opacity:1;fill-rule:evenodd;stroke:#0018f1;stroke-linecap:butt;stroke-linejoin:miter;stroke-miterlimit:10.43299961;stroke-opacity:1;stroke-dasharray:none;stroke-dashoffset:0"><path
         inkscape:connector-curvature="0"
         style="fill:#0018f1;fill-opacity:1;stroke:#0018f1;stroke-width:0;stroke-opacity:1"
         d="m 226.87,709.57 1.17,1.29 c 0.13,0.14 0.19,0.21 1.01,0.21 v 0.47 c -0.34,-0.02 -0.86,-0.03 -0.91,-0.03 -0.25,0 -0.75,0.02 -1.03,0.03 v -0.47 c 0.14,0 0.26,-0.02 0.38,-0.09 -0.04,-0.06 -0.04,-0.08 -0.08,-0.12 l -0.83,-0.93 -0.98,1.14 h 0.4 v 0.47 c -0.26,-0.01 -0.89,-0.03 -1.21,-0.03 -0.31,0 -0.76,0.02 -1.09,0.03 v -0.47 h 0.71 l 1.55,-1.83 -1.3,-1.46 c -0.17,-0.19 -0.53,-0.19 -1.01,-0.19 v -0.47 c 0.35,0.03 0.87,0.04 0.92,0.04 0.25,0 0.82,-0.02 1.02,-0.04 v 0.47 c -0.18,0 -0.37,0.05 -0.37,0.11 0,0.01 0,0.02 0.07,0.1 l 0.97,1.08 1.09,-1.29 h -0.39 v -0.47 c 0.26,0.02 0.87,0.04 1.2,0.04 0.32,0 0.76,-0.02 1.09,-0.04 v 0.47 h -0.7 z"
         id="path6947" /></g>    <g
       style="font-style:normal;font-variant:normal;font-weight:normal;font-stretch:normal;letter-spacing:normal;word-spacing:normal;text-anchor:start;fill:#0018f1;fill-opacity:1;fill-rule:evenodd;stroke:#0018f1;stroke-linecap:butt;stroke-linejoin:miter;stroke-miterlimit:10.43299961;stroke-opacity:1;stroke-dasharray:none;stroke-dashoffset:0"
       ns0:preamble=""
       ns0:text="$\\mbox{\\boldmath{$\\rm z$}}$"
       word-spacing="normal"
       letter-spacing="normal"
       font-size-adjust="none"
       font-stretch="normal"
       font-weight="normal"
       font-variant="normal"
       font-style="normal"
       stroke-miterlimit="10.433"
       xml:space="preserve"
       transform="matrix(2.8151543,0,0,-2.8151543,-363.64652,2375.4245)"
       id="g7087"><path
         id="path7089"
         d="m 227.9,711.11 0.01,0.01 0,0.01 0.01,0.01 0.01,0.01 0,0 0.01,0.01 0,0.01 0.01,0.01 0,0 0.01,0.01 0,0.01 0.01,0 0,0.01 0,0 0.01,0.01 0,0.01 0,0 0,0.01 0.01,0 0,0.01 0,0 0,0.01 0,0 0,0.01 0.01,0.01 0,0 0,0.01 0,0.01 0,0 0,0.01 0,0.01 0,0.01 c 0,0.21 -0.14,0.21 -0.32,0.21 h -3.65 l -0.12,-1.74 h 0.47 c 0.06,1.02 0.36,1.38 1.39,1.38 h 0.85 l -2.78,-3.62 c -0.09,-0.11 -0.09,-0.13 -0.09,-0.22 0,-0.22 0.13,-0.22 0.32,-0.22 h 3.78 l 0.18,2.01 h -0.47 c -0.09,-1 -0.25,-1.61 -1.56,-1.61 h -0.86 z"
         style="fill:#0018f1;fill-opacity:1;stroke-width:0"
         inkscape:connector-curvature="0" /></g>    <path
       style="fill:#0018f1;fill-opacity:1;stroke:#0018f1;stroke-width:1;stroke-linecap:round;stroke-linejoin:round;stroke-miterlimit:4;stroke-opacity:1;stroke-dasharray:4,4;stroke-dashoffset:0"
       d="m 253.0201,265.71541 8.33353,102.42182"
       id="path7159"
       inkscape:connector-curvature="0" />
    <g
       id="g7227"
       transform="matrix(2.8151543,0,0,-2.8151543,-433.09141,2519.9715)"
       xml:space="preserve"
       stroke="black"
       stroke-linecap="butt"
       stroke-linejoin="miter"
       stroke-miterlimit="10.433"
       stroke-dasharray="none"
       stroke-dashoffset="0"
       stroke-opacity="1"
       fill="none"
       fill-rule="evenodd"
       fill-opacity="1"
       font-style="normal"
       font-variant="normal"
       font-weight="normal"
       font-stretch="normal"
       font-size-adjust="none"
       letter-spacing="normal"
       word-spacing="normal"
       text-anchor="start"
       ns0:text="$\\mbox{\\boldmath{$\\rm y$}}$"
       ns0:preamble=""
       style="font-style:normal;font-variant:normal;font-weight:normal;font-stretch:normal;letter-spacing:normal;word-spacing:normal;text-anchor:start;fill:none;stroke:#000000;stroke-linecap:butt;stroke-linejoin:miter;stroke-miterlimit:10.43299961;stroke-opacity:1;stroke-dasharray:none;stroke-dashoffset:0"><path
         d="M228.47,710.86 L228.48,710.89 L228.49,710.91 L228.5,710.92 L228.51,710.93 L228.51,710.94 L228.52,710.95 L228.53,710.96 L228.54,710.97 L228.55,710.98 L228.56,710.99 L228.57,711 L228.59,711 L228.6,711.01 L228.62,711.02 L228.64,711.02 L228.66,711.03 L228.68,711.03 L228.71,711.04 L228.73,711.04 L228.75,711.05 L228.76,711.05 L228.78,711.05 L228.8,711.05 L228.81,711.05 L228.83,711.06 L228.85,711.06 L228.87,711.06 L228.88,711.06 L228.9,711.06 L228.93,711.06 L228.95,711.06 L228.97,711.06 L228.99,711.07 L229.01,711.07 L229.04,711.07 L229.06,711.07 L229.09,711.07 L229.12,711.07 L229.15,711.07 L229.17,711.07 L229.2,711.07 V711.54 C228.96,711.52,228.66,711.51,228.42,711.51 C228.17,711.51,227.72,711.53,227.51,711.54 V711.07 C227.53,711.07,227.98,711.07,227.98,710.95 C227.98,710.94,227.94,710.84,227.93,710.83 L226.79,708.39 L225.52,711.07 H226.06 V711.54 C225.73,711.52,224.84,711.51,224.82,711.51 C224.55,711.51,224.1,711.53,223.69,711.54 V711.07 H224.33 L226.19,707.12 L225.96,706.65 C225.74,706.17,225.42,705.5,224.71,705.5 C224.58,705.5,224.56,705.51,224.48,705.54 C224.57,705.58,224.79,705.71,224.79,706.06 C224.79,706.39,224.56,706.63,224.22,706.63 C223.94,706.63,223.65,706.44,223.65,706.05 C223.65,705.55,224.12,705.14,224.71,705.14 C225.48,705.14,226.06,705.75,226.33,706.32 Z "
         stroke-width="0"
         fill="black"
         id="path7229" /></g>    <g
       style="font-style:normal;font-variant:normal;font-weight:normal;font-stretch:normal;letter-spacing:normal;word-spacing:normal;text-anchor:start;fill:#c90000;fill-opacity:1;fill-rule:evenodd;stroke:#c90000;stroke-linecap:butt;stroke-linejoin:miter;stroke-miterlimit:10.43299960999999954;stroke-opacity:1;stroke-dasharray:none;stroke-dashoffset:0"
       ns0:preamble=""
       ns0:text="$\\cal H$"
       text-anchor="start"
       word-spacing="normal"
       letter-spacing="normal"
       font-size-adjust="none"
       font-stretch="normal"
       font-weight="normal"
       font-variant="normal"
       font-style="normal"
       fill-opacity="1"
       fill-rule="evenodd"
       fill="none"
       stroke-opacity="1"
       stroke-dashoffset="0"
       stroke-dasharray="none"
       stroke-miterlimit="10.433"
       stroke-linejoin="miter"
       stroke-linecap="butt"
       stroke="black"
       xml:space="preserve"
       transform="matrix(2.8151543,0,0,-2.8151543,-189.34767,2229.5429)"
       id="g7339"><path
         id="path7341"
         fill="black"
         stroke-width="0"
         d="M226.73,710.45 L226.77,710.63 L226.82,710.81 L226.87,710.99 L226.92,711.17 L226.96,711.36 L227,711.54 L227.04,711.72 L227.08,711.9 C227.2,712.57,227.27,713.23,227.27,713.35 C227.27,713.91,226.73,713.91,226.61,713.91 C225.85,713.91,225.17,713.63,224.71,713.31 C223.9,712.77,223.64,712.1,223.64,712.05 C223.64,711.98,223.71,711.98,223.74,711.98 C223.82,711.98,224.29,712.1,224.5,712.48 C224.76,712.99,225.05,713.36,225.95,713.36 C226.36,713.36,226.43,713.09,226.43,712.93 C226.43,712.92,226.4,712.45,226.28,711.76 C226.23,711.49,226.2,711.31,225.99,710.45 H225.63 C225.35,710.44,224.9,710.12,224.9,709.98 C224.9,709.92,224.9,709.91,225.12,709.91 H225.84 C225.63,709.21,225.35,708.26,224.9,707.05 C224.8,706.82,224.8,706.8,224.8,706.79 C224.8,706.72,224.88,706.72,224.9,706.72 C225.04,706.72,225.35,706.85,225.55,707.05 C225.6,707.1,225.62,707.12,225.66,707.22 C226.01,708.1,226.31,708.99,226.57,709.91 H228.8 C228.91,709.91,229.1,709.91,229.26,710.01 C229.15,709.59,228.74,707.97,228.74,707.18 C228.74,706.9,228.91,706.64,229.34,706.64 C230.66,706.64,231.4,707.46,231.4,707.78 C231.4,707.84,231.35,707.86,231.3,707.86 C231.22,707.86,230.7,707.72,230.55,707.33 C230.51,707.25,230.5,707.24,230.31,707.21 C230.2,707.19,230.01,707.18,230,707.18 C229.82,707.18,229.59,707.3,229.59,707.61 C229.59,707.73,229.66,708.28,229.69,708.5 C229.86,709.6,230.35,711.47,231.2,713.73 C231.23,713.8,231.23,713.82,231.23,713.84 C231.23,713.91,231.17,713.91,231.13,713.91 C230.98,713.91,230.7,713.77,230.51,713.6 C230.5,713.58,230.44,713.53,230.4,713.44 C230,712.47,229.69,711.47,229.39,710.45 Z "
         style="fill:#c90000;fill-opacity:1;stroke:#c90000;stroke-opacity:1" /></g>    <g
       id="g3872"
       transform="matrix(2.8151543,0,0,-2.8151543,-343.49549,2307.2958)"
       xml:space="preserve"
       stroke="black"
       stroke-linecap="butt"
       stroke-linejoin="miter"
       stroke-miterlimit="10.433"
       stroke-dasharray="none"
       stroke-dashoffset="0"
       stroke-opacity="1"
       fill="none"
       fill-rule="evenodd"
       fill-opacity="1"
       font-style="normal"
       font-variant="normal"
       font-weight="normal"
       font-stretch="normal"
       font-size-adjust="none"
       letter-spacing="normal"
       word-spacing="normal"
       text-anchor="start"
       ns0:text="$\\mbox{\\boldmath{$\\rm t$}}$"
       ns0:preamble=""
       style="font-style:normal;font-variant:normal;font-weight:normal;font-stretch:normal;letter-spacing:normal;word-spacing:normal;text-anchor:start;fill:#166600;fill-opacity:1;fill-rule:evenodd;stroke:none;stroke-linecap:butt;stroke-linejoin:miter;stroke-miterlimit:10.43299960999999954;stroke-opacity:1;stroke-dasharray:none;stroke-dashoffset:0"><path
         d="M224.46,711.07 V708.35 C224.46,707.28,225.32,707.07,226.03,707.07 C226.79,707.07,227.23,707.63,227.23,708.36 V708.88 H226.76 V708.38 C226.76,707.7,226.45,707.46,226.17,707.46 C225.59,707.46,225.59,708.1,225.59,708.33 V711.07 H227.04 V711.54 H225.59 V713.43 H225.12 C225.11,712.44,224.63,711.46,223.64,711.43 V711.07 Z "
         stroke-width="0"
         fill="black"
         id="path3874"
         style="stroke:none;stroke-opacity:1;fill:#166600;fill-opacity:1" /></g>  </g>
</svg>
