<?xml version="1.0" encoding="UTF-8" standalone="no"?>
<!-- Created with Inkscape (http://www.inkscape.org/) -->

<svg
   xmlns:ns0="http://www.iki.fi/pav/software/textext/"
   xmlns:dc="http://purl.org/dc/elements/1.1/"
   xmlns:cc="http://creativecommons.org/ns#"
   xmlns:rdf="http://www.w3.org/1999/02/22-rdf-syntax-ns#"
   xmlns:svg="http://www.w3.org/2000/svg"
   xmlns="http://www.w3.org/2000/svg"
   xmlns:sodipodi="http://sodipodi.sourceforge.net/DTD/sodipodi-0.dtd"
   xmlns:inkscape="http://www.inkscape.org/namespaces/inkscape"
   width="744.09448819"
   height="1052.3622047"
   id="svg2"
   version="1.1"
   inkscape:version="0.48.4 r9939"
   sodipodi:docname="dualityCHb.svg">
  <sodipodi:namedview
     id="base"
     pagecolor="#ffffff"
     bordercolor="#666666"
     borderopacity="1.0"
     inkscape:pageopacity="0.0"
     inkscape:pageshadow="2"
     inkscape:zoom="1.4"
     inkscape:cx="281.54855"
     inkscape:cy="696.86223"
     inkscape:document-units="px"
     inkscape:current-layer="layer3"
     showgrid="true"
     inkscape:window-width="1918"
     inkscape:window-height="1062"
     inkscape:window-x="0"
     inkscape:window-y="0"
     inkscape:window-maximized="0"
     inkscape:snap-object-midpoints="true"
     inkscape:object-paths="true"
     inkscape:snap-grids="false"
     inkscape:snap-intersection-paths="true"
     inkscape:snap-nodes="true"
     inkscape:object-nodes="false"
     inkscape:snap-global="true">
    <inkscape:grid
       type="xygrid"
       id="grid3004"
       empspacing="5"
       visible="false"
       enabled="false"
       snapvisiblegridlinesonly="true"
       units="mm"
       spacingx="1mm"
       spacingy="1mm" />
  </sodipodi:namedview>
  <defs
     id="defs4">
    <marker
       inkscape:stockid="Arrow1Mend"
       orient="auto"
       refY="0.0"
       refX="0.0"
       id="Arrow1Mend"
       style="overflow:visible;">
      <path
         id="path5082"
         d="M 0.0,0.0 L 5.0,-5.0 L -12.5,0.0 L 5.0,5.0 L 0.0,0.0 z "
         style="fill-rule:evenodd;stroke:#000000;stroke-width:1.0pt;"
         transform="scale(0.4) rotate(180) translate(10,0)" />
    </marker>
    <marker
       inkscape:stockid="Arrow1Mendd"
       orient="auto"
       refY="0.0"
       refX="0.0"
       id="Arrow1Mendd"
       style="overflow:visible;">
      <path
         id="path6313"
         d="M 0.0,0.0 L 5.0,-5.0 L -12.5,0.0 L 5.0,5.0 L 0.0,0.0 z "
         style="stroke:#0018f1;stroke-width:1.0pt;fill:#0018f1;fill-rule:evenodd"
         transform="scale(0.4) rotate(180) translate(10,0)" />
    </marker>
    <marker
       inkscape:stockid="Arrow1Mendh"
       orient="auto"
       refY="0.0"
       refX="0.0"
       id="Arrow1Mendh"
       style="overflow:visible;">
      <path
         id="path3970"
         d="M 0.0,0.0 L 5.0,-5.0 L -12.5,0.0 L 5.0,5.0 L 0.0,0.0 z "
         style="stroke:#f12000;stroke-width:1.0pt;fill:#f12000;fill-rule:evenodd"
         transform="scale(0.4) rotate(180) translate(10,0)" />
    </marker>
  </defs>
  <metadata
     id="metadata7">
    <rdf:RDF>
      <cc:Work
         rdf:about="">
        <dc:format>image/svg+xml</dc:format>
        <dc:type
           rdf:resource="http://purl.org/dc/dcmitype/StillImage" />
        <dc:title />
      </cc:Work>
    </rdf:RDF>
  </metadata>
  <g
     inkscape:groupmode="layer"
     id="layer2"
     inkscape:label="helplines"
     style="display:none">
    <path
       style="fill:#2a1313;fill-opacity:0.19026549;stroke:#000000;stroke-width:0.35433072;stroke-miterlimit:4;stroke-opacity:1;stroke-dasharray:none;display:inline"
       d="M 132.47216,701.83918 369.46972,83.31454"
       id="path3818"
       inkscape:connector-curvature="0"
       sodipodi:nodetypes="cc" />
    <path
       style="fill:#2a1313;fill-opacity:0.19026549;stroke:#000000;stroke-width:0.35433072;stroke-miterlimit:4;stroke-opacity:1;stroke-dasharray:none;display:inline"
       d="M 159.6041,373.97911 371.23106,356.30144"
       id="path3822"
       inkscape:connector-curvature="0" />
    <path
       inkscape:connector-curvature="0"
       id="path3826"
       d="M 219.56979,221.03094 342.8084,406.39393"
       style="fill:#2a1313;fill-opacity:0.19026549;stroke:#000000;stroke-width:0.35433072;stroke-miterlimit:4;stroke-opacity:1;stroke-dasharray:none;display:inline" />
    <path
       style="fill:#2a1313;fill-opacity:0.19026549;stroke:#000000;stroke-width:0.35433072;stroke-miterlimit:4;stroke-opacity:1;stroke-dasharray:none;display:inline"
       d="m 161.42857,557.36218 54.28572,25"
       id="path3828"
       inkscape:connector-curvature="0" />
    <path
       style="fill:#2a1313;fill-opacity:0.19026549;stroke:#000000;stroke-width:0.35433072;stroke-miterlimit:4;stroke-opacity:1;stroke-dasharray:none"
       d="m 297.85714,178.79075 65,11.42857"
       id="path3849"
       inkscape:connector-curvature="0" />
  </g>
  <g
     inkscape:label="Layer 1"
     inkscape:groupmode="layer"
     id="layer1"
     style="display:inline">
    <path
       sodipodi:nodetypes="cc"
       inkscape:connector-curvature="0"
       id="path3175"
       d="m 281.27555,313.06081 51.39856,-134.1418"
       style="marker-end:url(#Arrow1Mendh);stroke-opacity:1;fill-opacity:0.14601770000000000;stroke:#f12000;stroke-miterlimit:4;stroke-dasharray:none;stroke-width:1.77165353000000003;display:inline;fill:#2a1313" />
    <path
       style="fill:#2a1313;fill-opacity:0.1460177;stroke:none"
       d="m 194.98772,371.02344 117.76439,-9.83712 44.70801,175.76301 -27.43532,122.15411 -136.72103,34.1451 -81.29921,-80.43307 -9.42633,-159.43757 z"
       id="path3006"
       inkscape:connector-curvature="0"
       sodipodi:nodetypes="cccccccc" />
    <path
       transform="matrix(0.15,0,0,0.15,111.21232,658.25651)"
       d="m 159.44882,290.55115 a 17.716536,17.716536 0 1 1 -35.43307,0 17.716536,17.716536 0 1 1 35.43307,0 z"
       sodipodi:ry="17.716536"
       sodipodi:rx="17.716536"
       sodipodi:cy="290.55115"
       sodipodi:cx="141.73228"
       id="path3784"
       style="fill:#000000;fill-opacity:1;stroke:none;display:inline"
       sodipodi:type="arc" />
    <path
       sodipodi:type="arc"
       style="fill:#000000;fill-opacity:1;stroke:none;display:inline"
       id="path3852"
       sodipodi:cx="141.73228"
       sodipodi:cy="290.55115"
       sodipodi:rx="17.716536"
       sodipodi:ry="17.716536"
       d="m 159.44882,290.55115 a 17.716536,17.716536 0 1 1 -35.43307,0 17.716536,17.716536 0 1 1 35.43307,0 z"
       transform="matrix(0.15,0,0,0.15,172.04393,649.66587)" />
    <path
       transform="matrix(0.15,0,0,0.15,308.76496,615.52077)"
       d="m 159.44882,290.55115 a 17.716536,17.716536 0 1 1 -35.43307,0 17.716536,17.716536 0 1 1 35.43307,0 z"
       sodipodi:ry="17.716536"
       sodipodi:rx="17.716536"
       sodipodi:cy="290.55115"
       sodipodi:cx="141.73228"
       id="path3854"
       style="fill:#000000;fill-opacity:1;stroke:none;display:inline"
       sodipodi:type="arc" />
    <path
       sodipodi:type="arc"
       style="fill:#000000;fill-opacity:1;stroke:none;display:inline"
       id="path3858"
       sodipodi:cx="141.73228"
       sodipodi:cy="290.55115"
       sodipodi:rx="17.716536"
       sodipodi:ry="17.716536"
       d="m 159.44882,290.55115 a 17.716536,17.716536 0 1 1 -35.43307,0 17.716536,17.716536 0 1 1 35.43307,0 z"
       transform="matrix(0.15,0,0,0.15,336.20028,493.36666)" />
    <path
       transform="matrix(0.15,0,0,0.15,291.49227,317.60365)"
       d="m 159.44882,290.55115 a 17.716536,17.716536 0 1 1 -35.43307,0 17.716536,17.716536 0 1 1 35.43307,0 z"
       sodipodi:ry="17.716536"
       sodipodi:rx="17.716536"
       sodipodi:cy="290.55115"
       sodipodi:cx="141.73228"
       id="path3860"
       style="fill:#000000;fill-opacity:1;stroke:none;display:inline"
       sodipodi:type="arc" />
    <path
       sodipodi:type="arc"
       style="fill:#000000;fill-opacity:1;stroke:none;display:inline"
       id="path3862"
       sodipodi:cx="141.73228"
       sodipodi:cy="290.55115"
       sodipodi:rx="17.716536"
       sodipodi:ry="17.716536"
       d="m 159.44882,290.55115 a 17.716536,17.716536 0 1 1 -35.43307,0 17.716536,17.716536 0 1 1 35.43307,0 z"
       transform="matrix(0.15,0,0,0.15,173.72788,327.44077)" />
    <path
       transform="matrix(0.15,0,0,0.15,81.318387,409.79523)"
       d="m 159.44882,290.55115 a 17.716536,17.716536 0 1 1 -35.43307,0 17.716536,17.716536 0 1 1 35.43307,0 z"
       sodipodi:ry="17.716536"
       sodipodi:rx="17.716536"
       sodipodi:cy="290.55115"
       sodipodi:cx="141.73228"
       id="path3864"
       style="fill:#000000;fill-opacity:1;stroke:none;display:inline"
       sodipodi:type="arc" />
    <path
       sodipodi:type="arc"
       style="fill:#000000;fill-opacity:1;stroke:none;display:inline"
       id="path3866"
       sodipodi:cx="141.73228"
       sodipodi:cy="290.55115"
       sodipodi:rx="17.716536"
       sodipodi:ry="17.716536"
       d="m 159.44882,290.55115 a 17.716536,17.716536 0 1 1 -35.43307,0 17.716536,17.716536 0 1 1 35.43307,0 z"
       transform="matrix(0.15,0,0,0.15,90.744717,569.2328)" />
    <path
       sodipodi:type="arc"
       style="fill:#000000;fill-opacity:1;stroke:none;display:inline"
       id="path4018"
       sodipodi:cx="141.73228"
       sodipodi:cy="290.55115"
       sodipodi:rx="17.716536"
       sodipodi:ry="17.716536"
       d="m 159.44882,290.55115 a 17.716536,17.716536 0 1 1 -35.43307,0 17.716536,17.716536 0 1 1 35.43307,0 z"
       transform="matrix(0.15,0,0,0.15,251.69134,545.82025)" />
    <path
       transform="matrix(0.15,0,0,0.15,150.171,419.0461)"
       d="m 159.44882,290.55115 a 17.716536,17.716536 0 1 1 -35.43307,0 17.716536,17.716536 0 1 1 35.43307,0 z"
       sodipodi:ry="17.716536"
       sodipodi:rx="17.716536"
       sodipodi:cy="290.55115"
       sodipodi:cx="141.73228"
       id="path4020"
       style="fill:#000000;fill-opacity:1;stroke:none;display:inline"
       sodipodi:type="arc" />
    <path
       inkscape:connector-curvature="0"
       id="path5820"
       d="M 132.47216,701.83918 330.35714,184.50504"
       style="fill:#2a1313;fill-opacity:0.1460177;stroke:#000000;stroke-width:0.53149605;stroke-miterlimit:4;stroke-opacity:1;stroke-dasharray:4.25196838, 4.25196838;stroke-dashoffset:0;display:inline"
       sodipodi:nodetypes="cc" />
    <path
       transform="matrix(0.15,0,0,0.15,259.58735,270.35708)"
       d="m 159.44882,290.55115 a 17.716536,17.716536 0 1 1 -35.43307,0 17.716536,17.716536 0 1 1 35.43307,0 z"
       sodipodi:ry="17.716536"
       sodipodi:rx="17.716536"
       sodipodi:cy="290.55115"
       sodipodi:cx="141.73228"
       id="path5825"
       style="fill:#0018f1;fill-opacity:1;stroke:none;display:inline"
       sodipodi:type="arc" />
    <path
       style="display:inline;fill:#2a1313;fill-opacity:0.14601770000000000;stroke:#000000;stroke-width:1.77165353000000003;stroke-miterlimit:4;stroke-opacity:1;stroke-dasharray:none;marker-end:url(#Arrow1Mend)"
       d="m 132.47216,701.83918 51.39856,-134.1418"
       id="path5067"
       inkscape:connector-curvature="0"
       sodipodi:nodetypes="cc" />
    <path
       style="display:inline;fill:#2a1313;fill-opacity:0.19026549000000001;stroke:#0018f1;stroke-width:1.06299213000000004;stroke-miterlimit:4;stroke-opacity:1;stroke-dasharray:none"
       d="M 50.760165,466.91315 421.48614,220.43593"
       id="path3824"
       inkscape:connector-curvature="0" />
    <path
       inkscape:connector-curvature="0"
       id="path6121"
       d="m 281.1891,313.71244 -61.08397,-91.8763"
       style="marker-end:url(#Arrow1Mendd);stroke-opacity:1;fill-opacity:1;stroke-dashoffset:0;stroke:#0018f1;stroke-miterlimit:4;stroke-dasharray:none;stroke-width:1.77165353999999997;display:inline;fill:#0018f1" />
    <path
       sodipodi:open="true"
       sodipodi:type="arc"
       style="fill:none;stroke:#f12000;stroke-width:1.0629921;stroke-miterlimit:4;stroke-opacity:1;stroke-dasharray:none;stroke-dashoffset:0"
       id="path6739"
       sodipodi:cx="280.8472"
       sodipodi:cy="313.93976"
       sodipodi:rx="57.350998"
       sodipodi:ry="57.350998"
       d="m 249.42765,265.96113 a 57.350998,57.350998 0 0 1 52.00786,-5.54948"
       sodipodi:start="4.132601"
       sodipodi:end="5.0795723" />
  </g>
  <g
     inkscape:groupmode="layer"
     id="layer3"
     inkscape:label="popisky"
     style="display:inline">
    <g
       id="g4028"
       transform="matrix(2.8151543,0,0,-2.8151543,-467.00124,2441.0622)"
       xml:space="preserve"
       stroke-miterlimit="10.433"
       font-style="normal"
       font-variant="normal"
       font-weight="normal"
       font-stretch="normal"
       font-size-adjust="none"
       letter-spacing="normal"
       word-spacing="normal"
       ns0:text="$\\mbox{\\boldmath{$\\rm a$}}_1$"
       ns0:preamble=""
       style="font-style:normal;font-variant:normal;font-weight:normal;font-stretch:normal;letter-spacing:normal;word-spacing:normal;text-anchor:start;fill:none;stroke:#000000;stroke-linecap:butt;stroke-linejoin:miter;stroke-miterlimit:10.43299961;stroke-opacity:1;stroke-dasharray:none;stroke-dashoffset:0"><path
         style="fill:#000000;stroke-width:0"
         inkscape:connector-curvature="0"
         d="m 227.15,707.89 0,-0.06 0.01,-0.06 0,-0.03 0,-0.03 0,-0.04 0.01,-0.03 0.01,-0.03 0,-0.03 0.02,-0.04 0.01,-0.03 0.01,-0.03 0.02,-0.03 0.02,-0.03 0.02,-0.03 0.03,-0.03 0.03,-0.02 0.03,-0.03 0.02,-0.01 0.02,-0.01 0.02,-0.02 0.02,-0.01 0.02,-0.01 0.02,-0.01 0.02,-0.01 0.03,-0.01 0.02,-0.01 0.03,-0.01 0.03,-0.01 0.03,-0.01 0.03,0 0.03,-0.01 0.03,-0.01 0.03,0 0.04,-0.01 0.04,0 0.03,-0.01 0.04,0 0.04,-0.01 0.05,0 0.04,0 0.04,0 0.05,0 0.05,-0.01 h 0.47 c 0.2,0 0.32,0 0.32,0.24 0,0.23 -0.13,0.23 -0.25,0.23 -0.61,0.01 -0.61,0.14 -0.61,0.37 v 2.13 c 0,0.89 -0.71,1.53 -2.19,1.53 -0.57,0 -1.78,-0.03 -1.78,-0.91 0,-0.44 0.35,-0.62 0.61,-0.62 0.31,0 0.63,0.2 0.63,0.62 0,0.3 -0.19,0.47 -0.22,0.49 0.28,0.06 0.6,0.07 0.72,0.07 0.75,0 1.09,-0.42 1.09,-1.18 v -0.33 -0.31 -0.94 c 0,-0.96 -0.91,-1.09 -1.16,-1.09 -0.51,0 -0.91,0.35 -0.91,0.79 0,1.07 1.58,1.21 2.07,1.24 h 0 v 0.31 c -0.7,-0.03 -3.23,-0.12 -3.23,-1.56 0,-0.96 1.23,-1.13 1.92,-1.13 0.8,0 1.26,0.4 1.48,0.82 z"
         id="path4030" /><path
         style="fill:#000000;stroke-width:0"
         inkscape:connector-curvature="0"
         d="m 231.33,710.05 0,0.01 0,0.01 0,0.01 0,0.01 0,0 0,0.01 0,0.01 0,0.01 0,0 0,0.01 0,0.01 0,0 0,0.01 0,0 0,0.01 0,0 0,0.01 0,0 -0.01,0.01 0,0.01 0,0.01 0,0 -0.01,0.01 0,0.01 -0.01,0 0,0.01 -0.01,0 -0.01,0 0,0.01 -0.01,0 -0.01,0 -0.01,0 0,0 -0.01,0 -0.01,0 0,0.01 -0.01,0 0,0 -0.01,0 -0.01,0 0,0 -0.01,0 -0.01,0 0,0 -0.01,0 -0.01,0 -0.01,0 -0.01,0 -0.01,0 -0.01,0 c -0.44,-0.44 -1.07,-0.45 -1.36,-0.45 v -0.25 c 0.17,0 0.63,0 1.01,0.2 v -3.55 c 0,-0.23 0,-0.32 -0.7,-0.32 h -0.26 v -0.25 c 0.12,0.01 0.98,0.03 1.24,0.03 0.21,0 1.09,-0.02 1.24,-0.03 v 0.25 h -0.26 c -0.7,0 -0.7,0.09 -0.7,0.32 z"
         id="path4032" /></g>    <g
       style="font-style:normal;font-variant:normal;font-weight:normal;font-stretch:normal;letter-spacing:normal;word-spacing:normal;text-anchor:start;fill:none;stroke:#000000;stroke-linecap:butt;stroke-linejoin:miter;stroke-miterlimit:10.43299961;stroke-opacity:1;stroke-dasharray:none;stroke-dashoffset:0"
       ns0:preamble=""
       ns0:text="$0$"
       word-spacing="normal"
       letter-spacing="normal"
       font-size-adjust="none"
       font-stretch="normal"
       font-weight="normal"
       font-variant="normal"
       font-style="normal"
       stroke-miterlimit="10.433"
       xml:space="preserve"
       transform="matrix(2.8151543,0,0,-2.8151543,-503.64832,2722.4519)"
       id="g4127"><path
         id="path4129"
         d="m 228.01,710.3 0,0.15 0,0.15 -0.01,0.15 0,0.15 -0.01,0.15 -0.02,0.14 -0.01,0.15 -0.02,0.15 -0.02,0.14 -0.03,0.15 -0.03,0.14 -0.04,0.15 -0.04,0.14 -0.05,0.14 -0.06,0.14 -0.03,0.07 -0.03,0.07 c -0.46,0.95 -1.27,1.11 -1.69,1.11 -0.6,0 -1.32,-0.26 -1.73,-1.18 -0.32,-0.69 -0.37,-1.46 -0.37,-2.26 0,-0.74 0.04,-1.64 0.45,-2.39 0.43,-0.81 1.15,-1 1.64,-1 v 0.21 c -0.39,0 -0.98,0.25 -1.15,1.21 -0.11,0.59 -0.11,1.51 -0.11,2.09 0,0.64 0,1.29 0.08,1.83 0.18,1.18 0.93,1.27 1.18,1.27 0.33,0 0.98,-0.18 1.17,-1.16 0.1,-0.56 0.1,-1.31 0.1,-1.94 0,-0.74 0,-1.42 -0.11,-2.05 -0.15,-0.95 -0.71,-1.25 -1.16,-1.25 h 0 v -0.21 c 0.54,0 1.29,0.2 1.73,1.15 0.32,0.68 0.37,1.46 0.37,2.24 z"
         inkscape:connector-curvature="0"
         style="fill:#000000;stroke-width:0" /></g>    <g
       id="g4232"
       transform="matrix(2.8151543,0,0,-2.8151543,-348.37884,2573.2051)"
       xml:space="preserve"
       stroke-miterlimit="10.433"
       font-style="normal"
       font-variant="normal"
       font-weight="normal"
       font-stretch="normal"
       font-size-adjust="none"
       letter-spacing="normal"
       word-spacing="normal"
       ns0:text="$\\mbox{\\boldmath{$\\rm a$}}_2$"
       ns0:preamble=""
       style="font-style:normal;font-variant:normal;font-weight:normal;font-stretch:normal;letter-spacing:normal;word-spacing:normal;text-anchor:start;fill:none;stroke:#000000;stroke-linecap:butt;stroke-linejoin:miter;stroke-miterlimit:10.43299961;stroke-opacity:1;stroke-dasharray:none;stroke-dashoffset:0"><path
         d="m 227.15,707.89 0,-0.06 0.01,-0.06 0,-0.03 0,-0.03 0,-0.04 0.01,-0.03 0.01,-0.03 0,-0.03 0.02,-0.04 0.01,-0.03 0.01,-0.03 0.02,-0.03 0.02,-0.03 0.02,-0.03 0.03,-0.03 0.03,-0.02 0.03,-0.03 0.02,-0.01 0.02,-0.01 0.02,-0.02 0.02,-0.01 0.02,-0.01 0.02,-0.01 0.02,-0.01 0.03,-0.01 0.02,-0.01 0.03,-0.01 0.03,-0.01 0.03,-0.01 0.03,0 0.03,-0.01 0.03,-0.01 0.03,0 0.04,-0.01 0.04,0 0.03,-0.01 0.04,0 0.04,-0.01 0.05,0 0.04,0 0.04,0 0.05,0 0.05,-0.01 h 0.47 c 0.2,0 0.32,0 0.32,0.24 0,0.23 -0.13,0.23 -0.25,0.23 -0.61,0.01 -0.61,0.14 -0.61,0.37 v 2.13 c 0,0.89 -0.71,1.53 -2.19,1.53 -0.57,0 -1.78,-0.03 -1.78,-0.91 0,-0.44 0.35,-0.62 0.61,-0.62 0.31,0 0.63,0.2 0.63,0.62 0,0.3 -0.19,0.47 -0.22,0.49 0.28,0.06 0.6,0.07 0.72,0.07 0.75,0 1.09,-0.42 1.09,-1.18 v -0.33 -0.31 -0.94 c 0,-0.96 -0.91,-1.09 -1.16,-1.09 -0.51,0 -0.91,0.35 -0.91,0.79 0,1.07 1.58,1.21 2.07,1.24 h 0 v 0.31 c -0.7,-0.03 -3.23,-0.12 -3.23,-1.56 0,-0.96 1.23,-1.13 1.92,-1.13 0.8,0 1.26,0.4 1.48,0.82 z"
         id="path4234"
         inkscape:connector-curvature="0"
         style="fill:#000000;stroke-width:0" /><path
         d="m 232.52,706.9 h -0.24 c -0.02,-0.16 -0.09,-0.57 -0.18,-0.64 -0.06,-0.04 -0.59,-0.04 -0.69,-0.04 h -1.28 c 0.73,0.65 0.97,0.84 1.39,1.17 0.52,0.41 1,0.84 1,1.5 0,0.84 -0.74,1.36 -1.63,1.36 -0.87,0 -1.45,-0.61 -1.45,-1.25 0,-0.35 0.3,-0.39 0.37,-0.39 0.17,0 0.37,0.12 0.37,0.37 0,0.13 -0.05,0.37 -0.41,0.37 0.21,0.49 0.69,0.65 1.01,0.65 0.7,0 1.06,-0.54 1.06,-1.11 0,-0.6 -0.43,-1.08 -0.65,-1.33 l -1.68,-1.66 c -0.07,-0.06 -0.07,-0.07 -0.07,-0.27 h 2.87 z"
         id="path4236"
         inkscape:connector-curvature="0"
         style="fill:#000000;stroke-width:0" /></g>    <g
       style="font-style:normal;font-variant:normal;font-weight:normal;font-stretch:normal;letter-spacing:normal;word-spacing:normal;text-anchor:start;fill:none;stroke:#000000;stroke-linecap:butt;stroke-linejoin:miter;stroke-miterlimit:10.43299961;stroke-opacity:1;stroke-dasharray:none;stroke-dashoffset:0"
       ns0:preamble=""
       ns0:text="$\\mbox{\\boldmath{$\\rm a$}}_3$"
       word-spacing="normal"
       letter-spacing="normal"
       font-size-adjust="none"
       font-stretch="normal"
       font-weight="normal"
       font-variant="normal"
       font-style="normal"
       stroke-miterlimit="10.433"
       xml:space="preserve"
       transform="matrix(2.8151543,0,0,-2.8151543,-435.37292,2383.9763)"
       id="g4339"><path
         id="path4341"
         d="m 227.15,707.89 0,-0.06 0.01,-0.06 0,-0.03 0,-0.03 0,-0.04 0.01,-0.03 0.01,-0.03 0,-0.03 0.02,-0.04 0.01,-0.03 0.01,-0.03 0.02,-0.03 0.02,-0.03 0.02,-0.03 0.03,-0.03 0.03,-0.02 0.03,-0.03 0.02,-0.01 0.02,-0.01 0.02,-0.02 0.02,-0.01 0.02,-0.01 0.02,-0.01 0.02,-0.01 0.03,-0.01 0.02,-0.01 0.03,-0.01 0.03,-0.01 0.03,-0.01 0.03,0 0.03,-0.01 0.03,-0.01 0.03,0 0.04,-0.01 0.04,0 0.03,-0.01 0.04,0 0.04,-0.01 0.05,0 0.04,0 0.04,0 0.05,0 0.05,-0.01 h 0.47 c 0.2,0 0.32,0 0.32,0.24 0,0.23 -0.13,0.23 -0.25,0.23 -0.61,0.01 -0.61,0.14 -0.61,0.37 v 2.13 c 0,0.89 -0.71,1.53 -2.19,1.53 -0.57,0 -1.78,-0.03 -1.78,-0.91 0,-0.44 0.35,-0.62 0.61,-0.62 0.31,0 0.63,0.2 0.63,0.62 0,0.3 -0.19,0.47 -0.22,0.49 0.28,0.06 0.6,0.07 0.72,0.07 0.75,0 1.09,-0.42 1.09,-1.18 v -0.33 -0.31 -0.94 c 0,-0.96 -0.91,-1.09 -1.16,-1.09 -0.51,0 -0.91,0.35 -0.91,0.79 0,1.07 1.58,1.21 2.07,1.24 h 0 v 0.31 c -0.7,-0.03 -3.23,-0.12 -3.23,-1.56 0,-0.96 1.23,-1.13 1.92,-1.13 0.8,0 1.26,0.4 1.48,0.82 z"
         inkscape:connector-curvature="0"
         style="fill:#000000;stroke-width:0" /><path
         id="path4343"
         d="m 230.9,707.95 0.05,0 0.05,0 0.05,-0.01 0.05,0 0.04,-0.01 0.05,-0.02 0.04,-0.01 0.05,-0.02 0.04,-0.02 0.04,-0.02 0.04,-0.02 0.04,-0.02 0.03,-0.03 0.04,-0.03 0.03,-0.03 0.03,-0.04 0.03,-0.03 0.03,-0.04 0.03,-0.04 0.02,-0.04 0.03,-0.05 0.02,-0.05 0.02,-0.05 0.02,-0.05 0.01,-0.05 0.02,-0.06 0.01,-0.05 0.01,-0.06 0.01,-0.07 0,-0.06 0,-0.07 0.01,-0.07 c 0,-0.86 -0.51,-1.12 -0.91,-1.12 -0.28,0 -0.89,0.08 -1.18,0.49 0.32,0.02 0.4,0.25 0.4,0.39 0,0.22 -0.17,0.38 -0.38,0.38 -0.2,0 -0.39,-0.12 -0.39,-0.4 0,-0.65 0.72,-1.08 1.56,-1.08 0.97,0 1.64,0.65 1.64,1.34 0,0.55 -0.45,1.09 -1.21,1.25 0.73,0.26 1,0.78 1,1.21 0,0.55 -0.64,0.96 -1.41,0.96 -0.78,0 -1.37,-0.38 -1.37,-0.93 0,-0.24 0.16,-0.37 0.37,-0.37 0.21,0 0.35,0.16 0.35,0.35 0,0.2 -0.14,0.35 -0.35,0.36 0.24,0.31 0.72,0.39 0.98,0.39 0.31,0 0.75,-0.16 0.75,-0.76 0,-0.29 -0.1,-0.61 -0.28,-0.83 -0.23,-0.26 -0.42,-0.28 -0.77,-0.3 -0.18,-0.01 -0.19,-0.01 -0.23,-0.02 -0.01,0 -0.06,-0.01 -0.06,-0.09 0,-0.1 0.06,-0.1 0.18,-0.1 z"
         inkscape:connector-curvature="0"
         style="fill:#000000;stroke-width:0" /></g>    <g
       id="g4446"
       transform="matrix(2.8151543,0,0,-2.8151543,-551.91484,2622.4908)"
       xml:space="preserve"
       stroke-miterlimit="10.433"
       font-style="normal"
       font-variant="normal"
       font-weight="normal"
       font-stretch="normal"
       font-size-adjust="none"
       letter-spacing="normal"
       word-spacing="normal"
       ns0:text="$\\mbox{\\boldmath{$\\rm a$}}_4$"
       ns0:preamble=""
       style="font-style:normal;font-variant:normal;font-weight:normal;font-stretch:normal;letter-spacing:normal;word-spacing:normal;text-anchor:start;fill:none;stroke:#000000;stroke-linecap:butt;stroke-linejoin:miter;stroke-miterlimit:10.43299961;stroke-opacity:1;stroke-dasharray:none;stroke-dashoffset:0"><path
         d="m 227.15,707.89 0,-0.06 0.01,-0.06 0,-0.03 0,-0.03 0,-0.04 0.01,-0.03 0.01,-0.03 0,-0.03 0.02,-0.04 0.01,-0.03 0.01,-0.03 0.02,-0.03 0.02,-0.03 0.02,-0.03 0.03,-0.03 0.03,-0.02 0.03,-0.03 0.02,-0.01 0.02,-0.01 0.02,-0.02 0.02,-0.01 0.02,-0.01 0.02,-0.01 0.02,-0.01 0.03,-0.01 0.02,-0.01 0.03,-0.01 0.03,-0.01 0.03,-0.01 0.03,0 0.03,-0.01 0.03,-0.01 0.03,0 0.04,-0.01 0.04,0 0.03,-0.01 0.04,0 0.04,-0.01 0.05,0 0.04,0 0.04,0 0.05,0 0.05,-0.01 h 0.47 c 0.2,0 0.32,0 0.32,0.24 0,0.23 -0.13,0.23 -0.25,0.23 -0.61,0.01 -0.61,0.14 -0.61,0.37 v 2.13 c 0,0.89 -0.71,1.53 -2.19,1.53 -0.57,0 -1.78,-0.03 -1.78,-0.91 0,-0.44 0.35,-0.62 0.61,-0.62 0.31,0 0.63,0.2 0.63,0.62 0,0.3 -0.19,0.47 -0.22,0.49 0.28,0.06 0.6,0.07 0.72,0.07 0.75,0 1.09,-0.42 1.09,-1.18 v -0.33 -0.31 -0.94 c 0,-0.96 -0.91,-1.09 -1.16,-1.09 -0.51,0 -0.91,0.35 -0.91,0.79 0,1.07 1.58,1.21 2.07,1.24 h 0 v 0.31 c -0.7,-0.03 -3.23,-0.12 -3.23,-1.56 0,-0.96 1.23,-1.13 1.92,-1.13 0.8,0 1.26,0.4 1.48,0.82 z"
         id="path4448"
         inkscape:connector-curvature="0"
         style="fill:#000000;stroke-width:0" /><path
         d="m 232.68,706.77 v 0.25 h -0.77 v 3.1 c 0,0.15 0,0.2 -0.15,0.2 -0.08,0 -0.11,0 -0.18,-0.1 l -2.31,-3.2 v -0.25 h 2.05 l 0.05,0.25 h -1.84 l 1.84,2.55 v -2.55 l -0.05,-0.25 v -0.57 c 0,-0.23 0,-0.32 -0.56,-0.32 h -0.19 v -0.25 c 0.35,0.02 0.79,0.03 1.04,0.03 0.26,0 0.71,-0.01 1.05,-0.03 v 0.25 h -0.18 c -0.57,0 -0.57,0.09 -0.57,0.32 v 0.57 z"
         id="path4450"
         inkscape:connector-curvature="0"
         style="fill:#000000;stroke-width:0" /></g>    <g
       style="font-style:normal;font-variant:normal;font-weight:normal;font-stretch:normal;letter-spacing:normal;word-spacing:normal;text-anchor:start;fill:none;stroke:#000000;stroke-linecap:butt;stroke-linejoin:miter;stroke-miterlimit:10.43299961;stroke-opacity:1;stroke-dasharray:none;stroke-dashoffset:0"
       ns0:preamble=""
       ns0:text="$\\mbox{\\boldmath{$\\rm a$}}_5$"
       word-spacing="normal"
       letter-spacing="normal"
       font-size-adjust="none"
       font-stretch="normal"
       font-weight="normal"
       font-variant="normal"
       font-style="normal"
       stroke-miterlimit="10.433"
       xml:space="preserve"
       transform="matrix(2.8151543,0,0,-2.8151543,-291.23601,2667.5217)"
       id="g4553"><path
         id="path4555"
         d="m 227.15,707.89 0,-0.06 0.01,-0.06 0,-0.03 0,-0.03 0,-0.04 0.01,-0.03 0.01,-0.03 0,-0.03 0.02,-0.04 0.01,-0.03 0.01,-0.03 0.02,-0.03 0.02,-0.03 0.02,-0.03 0.03,-0.03 0.03,-0.02 0.03,-0.03 0.02,-0.01 0.02,-0.01 0.02,-0.02 0.02,-0.01 0.02,-0.01 0.02,-0.01 0.02,-0.01 0.03,-0.01 0.02,-0.01 0.03,-0.01 0.03,-0.01 0.03,-0.01 0.03,0 0.03,-0.01 0.03,-0.01 0.03,0 0.04,-0.01 0.04,0 0.03,-0.01 0.04,0 0.04,-0.01 0.05,0 0.04,0 0.04,0 0.05,0 0.05,-0.01 h 0.47 c 0.2,0 0.32,0 0.32,0.24 0,0.23 -0.13,0.23 -0.25,0.23 -0.61,0.01 -0.61,0.14 -0.61,0.37 v 2.13 c 0,0.89 -0.71,1.53 -2.19,1.53 -0.57,0 -1.78,-0.03 -1.78,-0.91 0,-0.44 0.35,-0.62 0.61,-0.62 0.31,0 0.63,0.2 0.63,0.62 0,0.3 -0.19,0.47 -0.22,0.49 0.28,0.06 0.6,0.07 0.72,0.07 0.75,0 1.09,-0.42 1.09,-1.18 v -0.33 -0.31 -0.94 c 0,-0.96 -0.91,-1.09 -1.16,-1.09 -0.51,0 -0.91,0.35 -0.91,0.79 0,1.07 1.58,1.21 2.07,1.24 h 0 v 0.31 c -0.7,-0.03 -3.23,-0.12 -3.23,-1.56 0,-0.96 1.23,-1.13 1.92,-1.13 0.8,0 1.26,0.4 1.48,0.82 z"
         inkscape:connector-curvature="0"
         style="fill:#000000;stroke-width:0" /><path
         id="path4557"
         d="m 230.08,709.51 0.03,-0.01 0.04,0 0.03,-0.01 0.03,-0.01 0.03,0 0.03,-0.01 0.02,-0.01 0.03,0 0.03,-0.01 0.02,0 0.03,0 0.02,-0.01 0.02,0 0.03,0 0.02,-0.01 0.02,0 0.02,0 0.02,0 0.02,0 0.02,0 0.01,-0.01 0.02,0 0.02,0 0.01,0 0.02,0 0.01,0 0.02,0 0.01,0 0.01,0 0.01,0 0.02,0 0.01,0 c 0.92,0 1.46,0.63 1.46,0.73 0,0.08 -0.05,0.1 -0.09,0.1 -0.01,0 -0.02,0 -0.05,-0.02 -0.17,-0.07 -0.54,-0.2 -1.05,-0.2 -0.2,0 -0.57,0.01 -1.02,0.18 -0.07,0.04 -0.08,0.04 -0.09,0.04 -0.09,0 -0.09,-0.08 -0.09,-0.19 v -2.05 c 0,-0.12 0,-0.2 0.11,-0.2 0.06,0 0.07,0.01 0.14,0.1 0.3,0.38 0.72,0.43 0.97,0.43 0.42,0 0.6,-0.33 0.64,-0.39 0.13,-0.23 0.17,-0.49 0.17,-0.89 0,-0.21 0,-0.62 -0.21,-0.93 -0.18,-0.25 -0.48,-0.42 -0.82,-0.42 -0.45,0 -0.92,0.26 -1.09,0.71 0.26,-0.02 0.4,0.16 0.4,0.34 0,0.3 -0.26,0.36 -0.35,0.36 -0.02,0 -0.35,0 -0.35,-0.38 0,-0.62 0.57,-1.25 1.41,-1.25 0.89,0 1.67,0.66 1.67,1.54 0,0.78 -0.6,1.51 -1.46,1.51 -0.31,0 -0.67,-0.08 -0.98,-0.34 z"
         inkscape:connector-curvature="0"
         style="fill:#000000;stroke-width:0" /></g>    <g
       id="g4660"
       transform="matrix(2.8151543,0,0,-2.8151543,-559.75823,2469.1026)"
       xml:space="preserve"
       stroke-miterlimit="10.433"
       font-style="normal"
       font-variant="normal"
       font-weight="normal"
       font-stretch="normal"
       font-size-adjust="none"
       letter-spacing="normal"
       word-spacing="normal"
       ns0:text="$\\mbox{\\boldmath{$\\rm a$}}_6$"
       ns0:preamble=""
       style="font-style:normal;font-variant:normal;font-weight:normal;font-stretch:normal;letter-spacing:normal;word-spacing:normal;text-anchor:start;fill:none;stroke:#000000;stroke-linecap:butt;stroke-linejoin:miter;stroke-miterlimit:10.43299961;stroke-opacity:1;stroke-dasharray:none;stroke-dashoffset:0"><path
         d="m 227.15,707.89 0,-0.06 0.01,-0.06 0,-0.03 0,-0.03 0,-0.04 0.01,-0.03 0.01,-0.03 0,-0.03 0.02,-0.04 0.01,-0.03 0.01,-0.03 0.02,-0.03 0.02,-0.03 0.02,-0.03 0.03,-0.03 0.03,-0.02 0.03,-0.03 0.02,-0.01 0.02,-0.01 0.02,-0.02 0.02,-0.01 0.02,-0.01 0.02,-0.01 0.02,-0.01 0.03,-0.01 0.02,-0.01 0.03,-0.01 0.03,-0.01 0.03,-0.01 0.03,0 0.03,-0.01 0.03,-0.01 0.03,0 0.04,-0.01 0.04,0 0.03,-0.01 0.04,0 0.04,-0.01 0.05,0 0.04,0 0.04,0 0.05,0 0.05,-0.01 h 0.47 c 0.2,0 0.32,0 0.32,0.24 0,0.23 -0.13,0.23 -0.25,0.23 -0.61,0.01 -0.61,0.14 -0.61,0.37 v 2.13 c 0,0.89 -0.71,1.53 -2.19,1.53 -0.57,0 -1.78,-0.03 -1.78,-0.91 0,-0.44 0.35,-0.62 0.61,-0.62 0.31,0 0.63,0.2 0.63,0.62 0,0.3 -0.19,0.47 -0.22,0.49 0.28,0.06 0.6,0.07 0.72,0.07 0.75,0 1.09,-0.42 1.09,-1.18 v -0.33 -0.31 -0.94 c 0,-0.96 -0.91,-1.09 -1.16,-1.09 -0.51,0 -0.91,0.35 -0.91,0.79 0,1.07 1.58,1.21 2.07,1.24 h 0 v 0.31 c -0.7,-0.03 -3.23,-0.12 -3.23,-1.56 0,-0.96 1.23,-1.13 1.92,-1.13 0.8,0 1.26,0.4 1.48,0.82 z"
         id="path4662"
         inkscape:connector-curvature="0"
         style="fill:#000000;stroke-width:0" /><path
         d="m 230.05,707.91 0,0.1 0,0.11 0,0.1 0.01,0.1 0.01,0.1 0.01,0.1 0.01,0.1 0.01,0.09 0.02,0.1 0.02,0.09 0.03,0.09 0.03,0.09 0.01,0.04 0.02,0.05 0.02,0.04 0.02,0.04 0.02,0.04 0.02,0.04 0.02,0.04 0.03,0.04 c 0.24,0.38 0.61,0.64 1.06,0.64 0.21,0 0.48,-0.06 0.62,-0.25 -0.17,-0.01 -0.32,-0.13 -0.32,-0.33 0,-0.17 0.12,-0.33 0.33,-0.33 0.21,0 0.34,0.14 0.34,0.34 0,0.41 -0.3,0.77 -0.99,0.77 -1,0 -2.02,-0.92 -2.02,-2.41 0,-1.81 0.85,-2.35 1.61,-2.35 0.85,0 1.59,0.65 1.59,1.56 0,0.88 -0.7,1.54 -1.52,1.54 l -0.03,-0.2 c 0.32,0 0.53,-0.12 0.71,-0.38 0.16,-0.27 0.17,-0.56 0.17,-0.96 0,-0.4 0,-0.69 -0.19,-0.96 -0.16,-0.24 -0.39,-0.38 -0.73,-0.38 h 0 c -0.34,0 -0.62,0.21 -0.76,0.51 -0.11,0.21 -0.16,0.56 -0.16,0.98 0,0.67 0.4,1.19 0.96,1.19 l 0.03,0.2 c -0.55,0 -0.86,-0.37 -1.01,-0.68 z"
         id="path4664"
         inkscape:connector-curvature="0"
         style="fill:#000000;stroke-width:0" /></g>    <g
       style="font-style:normal;font-variant:normal;font-weight:normal;font-stretch:normal;letter-spacing:normal;word-spacing:normal;text-anchor:start;fill:none;stroke:#000000;stroke-linecap:butt;stroke-linejoin:miter;stroke-miterlimit:10.43299961;stroke-opacity:1;stroke-dasharray:none;stroke-dashoffset:0"
       ns0:preamble=""
       ns0:text="$\\mbox{\\boldmath{$\\rm a$}}_7$"
       word-spacing="normal"
       letter-spacing="normal"
       font-size-adjust="none"
       font-stretch="normal"
       font-weight="normal"
       font-variant="normal"
       font-style="normal"
       stroke-miterlimit="10.433"
       xml:space="preserve"
       transform="matrix(2.8151543,0,0,-2.8151543,-306.88824,2350.3788)"
       id="g4767"><path
         id="path4769"
         d="m 227.15,707.89 0,-0.06 0.01,-0.06 0,-0.03 0,-0.03 0,-0.04 0.01,-0.03 0.01,-0.03 0,-0.03 0.02,-0.04 0.01,-0.03 0.01,-0.03 0.02,-0.03 0.02,-0.03 0.02,-0.03 0.03,-0.03 0.03,-0.02 0.03,-0.03 0.02,-0.01 0.02,-0.01 0.02,-0.02 0.02,-0.01 0.02,-0.01 0.02,-0.01 0.02,-0.01 0.03,-0.01 0.02,-0.01 0.03,-0.01 0.03,-0.01 0.03,-0.01 0.03,0 0.03,-0.01 0.03,-0.01 0.03,0 0.04,-0.01 0.04,0 0.03,-0.01 0.04,0 0.04,-0.01 0.05,0 0.04,0 0.04,0 0.05,0 0.05,-0.01 h 0.47 c 0.2,0 0.32,0 0.32,0.24 0,0.23 -0.13,0.23 -0.25,0.23 -0.61,0.01 -0.61,0.14 -0.61,0.37 v 2.13 c 0,0.89 -0.71,1.53 -2.19,1.53 -0.57,0 -1.78,-0.03 -1.78,-0.91 0,-0.44 0.35,-0.62 0.61,-0.62 0.31,0 0.63,0.2 0.63,0.62 0,0.3 -0.19,0.47 -0.22,0.49 0.28,0.06 0.6,0.07 0.72,0.07 0.75,0 1.09,-0.42 1.09,-1.18 v -0.33 -0.31 -0.94 c 0,-0.96 -0.91,-1.09 -1.16,-1.09 -0.51,0 -0.91,0.35 -0.91,0.79 0,1.07 1.58,1.21 2.07,1.24 h 0 v 0.31 c -0.7,-0.03 -3.23,-0.12 -3.23,-1.56 0,-0.96 1.23,-1.13 1.92,-1.13 0.8,0 1.26,0.4 1.48,0.82 z"
         inkscape:connector-curvature="0"
         style="fill:#000000;stroke-width:0" /><path
         id="path4771"
         d="m 232.73,709.83 0,0.01 0.01,0.01 0,0 0.01,0.01 0,0.01 0.01,0 0,0.01 0.01,0 0,0.01 0,0.01 0.01,0 0,0.01 0,0 0,0.01 0.01,0.01 0,0 0,0.01 0,0.01 0,0.01 0,0 0,0.01 0,0.01 0.01,0.01 0,0.01 0,0.01 0,0.01 0,0.02 0,0.01 0,0.01 0,0.01 0,0.01 0,0 0,0.01 0,0.01 0,0.01 h -1.83 c -0.28,0 -0.35,0.01 -0.6,0.03 -0.37,0.02 -0.38,0.07 -0.4,0.19 h -0.24 l -0.24,-1.49 h 0.24 c 0.01,0.11 0.08,0.57 0.19,0.64 0.06,0.04 0.62,0.04 0.73,0.04 h 1.51 c -0.22,-0.29 -0.57,-0.73 -0.72,-0.92 -0.91,-1.2 -1,-2.3 -1,-2.71 0,-0.08 0,-0.4 0.33,-0.4 0.33,0 0.33,0.31 0.33,0.41 v 0.27 c 0,1.35 0.28,1.97 0.58,2.35 z"
         inkscape:connector-curvature="0"
         style="fill:#000000;stroke-width:0" /></g>    <g
       id="content"
       transform="matrix(2.8151543,0,0,-2.8151543,-259.07985,2531.0931)"
       xml:space="preserve"
       stroke-miterlimit="10.433"
       font-style="normal"
       font-variant="normal"
       font-weight="normal"
       font-stretch="normal"
       font-size-adjust="none"
       letter-spacing="normal"
       word-spacing="normal"
       ns0:text="$\\mbox{\\boldmath{$\\rm a$}}_8$"
       ns0:preamble=""
       style="font-style:normal;font-variant:normal;font-weight:normal;font-stretch:normal;letter-spacing:normal;word-spacing:normal;text-anchor:start;fill:none;stroke:#000000;stroke-linecap:butt;stroke-linejoin:miter;stroke-miterlimit:10.43299961;stroke-opacity:1;stroke-dasharray:none;stroke-dashoffset:0"><path
         d="m 227.15,707.89 0,-0.06 0.01,-0.06 0,-0.03 0,-0.03 0,-0.04 0.01,-0.03 0.01,-0.03 0,-0.03 0.02,-0.04 0.01,-0.03 0.01,-0.03 0.02,-0.03 0.02,-0.03 0.02,-0.03 0.03,-0.03 0.03,-0.02 0.03,-0.03 0.02,-0.01 0.02,-0.01 0.02,-0.02 0.02,-0.01 0.02,-0.01 0.02,-0.01 0.02,-0.01 0.03,-0.01 0.02,-0.01 0.03,-0.01 0.03,-0.01 0.03,-0.01 0.03,0 0.03,-0.01 0.03,-0.01 0.03,0 0.04,-0.01 0.04,0 0.03,-0.01 0.04,0 0.04,-0.01 0.05,0 0.04,0 0.04,0 0.05,0 0.05,-0.01 h 0.47 c 0.2,0 0.32,0 0.32,0.24 0,0.23 -0.13,0.23 -0.25,0.23 -0.61,0.01 -0.61,0.14 -0.61,0.37 v 2.13 c 0,0.89 -0.71,1.53 -2.19,1.53 -0.57,0 -1.78,-0.03 -1.78,-0.91 0,-0.44 0.35,-0.62 0.61,-0.62 0.31,0 0.63,0.2 0.63,0.62 0,0.3 -0.19,0.47 -0.22,0.49 0.28,0.06 0.6,0.07 0.72,0.07 0.75,0 1.09,-0.42 1.09,-1.18 v -0.33 -0.31 -0.94 c 0,-0.96 -0.91,-1.09 -1.16,-1.09 -0.51,0 -0.91,0.35 -0.91,0.79 0,1.07 1.58,1.21 2.07,1.24 h 0 v 0.31 c -0.7,-0.03 -3.23,-0.12 -3.23,-1.56 0,-0.96 1.23,-1.13 1.92,-1.13 0.8,0 1.26,0.4 1.48,0.82 z"
         id="path4875"
         inkscape:connector-curvature="0"
         style="fill:#000000;stroke-width:0" /><path
         d="m 231.47,708.14 0.05,0.03 0.05,0.02 0.05,0.03 0.05,0.02 0.04,0.03 0.05,0.03 0.04,0.02 0.04,0.03 0.04,0.03 0.04,0.03 0.04,0.03 0.03,0.03 0.04,0.03 0.03,0.03 0.03,0.03 0.03,0.04 0.03,0.03 0.03,0.03 0.02,0.04 0.03,0.03 0.02,0.04 0.02,0.03 0.02,0.04 0.01,0.04 0.02,0.04 0.01,0.04 0.01,0.04 0.01,0.04 0.01,0.04 0,0.04 0,0.05 0.01,0.04 c 0,0.68 -0.71,1.04 -1.38,1.04 l -0.02,-0.2 c 0.54,0 1.03,-0.34 1.03,-0.84 0,-0.62 -0.73,-0.93 -0.74,-0.93 -0.02,0 -0.03,0.01 -0.08,0.04 l -0.84,0.48 c -0.18,0.11 -0.38,0.29 -0.38,0.55 0,0.44 0.51,0.7 1.01,0.7 l 0.02,0.2 c -0.77,0 -1.4,-0.5 -1.4,-1.16 0,-0.33 0.16,-0.57 0.28,-0.7 0.13,-0.15 0.18,-0.18 0.59,-0.42 -0.39,-0.17 -1.08,-0.55 -1.08,-1.27 0,-0.78 0.8,-1.21 1.59,-1.21 l 0.02,0.22 c -0.64,0 -1.2,0.41 -1.2,0.99 0,0.51 0.39,0.91 0.89,1.14 h 0 l 0.95,-0.55 c 0.19,-0.11 0.53,-0.32 0.53,-0.73 0,-0.52 -0.57,-0.85 -1.17,-0.85 l -0.02,-0.22 c 0.89,0 1.61,0.56 1.61,1.32 0,0.46 -0.27,0.84 -0.68,1.08 -0.08,0.06 -0.33,0.2 -0.43,0.25 z"
         id="path4877"
         inkscape:connector-curvature="0"
         style="fill:#000000;stroke-width:0" /></g>    <g
       style="font-style:normal;font-variant:normal;font-weight:normal;font-stretch:normal;letter-spacing:normal;word-spacing:normal;text-anchor:start;fill:none;stroke:#000000;stroke-linecap:butt;stroke-linejoin:miter;stroke-miterlimit:10.43299961;stroke-opacity:1;stroke-dasharray:none;stroke-dashoffset:0"
       ns0:preamble=""
       ns0:text="$\\mbox{\\boldmath{$\\rm a$}}_9$"
       word-spacing="normal"
       letter-spacing="normal"
       font-size-adjust="none"
       font-stretch="normal"
       font-weight="normal"
       font-variant="normal"
       font-style="normal"
       stroke-miterlimit="10.433"
       xml:space="preserve"
       transform="matrix(2.8151543,0,0,-2.8151543,-438.36557,2708.9502)"
       id="g4980"><path
         id="path4982"
         d="m 227.15,707.89 0,-0.06 0.01,-0.06 0,-0.03 0,-0.03 0,-0.04 0.01,-0.03 0.01,-0.03 0,-0.03 0.02,-0.04 0.01,-0.03 0.01,-0.03 0.02,-0.03 0.02,-0.03 0.02,-0.03 0.03,-0.03 0.03,-0.02 0.03,-0.03 0.02,-0.01 0.02,-0.01 0.02,-0.02 0.02,-0.01 0.02,-0.01 0.02,-0.01 0.02,-0.01 0.03,-0.01 0.02,-0.01 0.03,-0.01 0.03,-0.01 0.03,-0.01 0.03,0 0.03,-0.01 0.03,-0.01 0.03,0 0.04,-0.01 0.04,0 0.03,-0.01 0.04,0 0.04,-0.01 0.05,0 0.04,0 0.04,0 0.05,0 0.05,-0.01 h 0.47 c 0.2,0 0.32,0 0.32,0.24 0,0.23 -0.13,0.23 -0.25,0.23 -0.61,0.01 -0.61,0.14 -0.61,0.37 v 2.13 c 0,0.89 -0.71,1.53 -2.19,1.53 -0.57,0 -1.78,-0.03 -1.78,-0.91 0,-0.44 0.35,-0.62 0.61,-0.62 0.31,0 0.63,0.2 0.63,0.62 0,0.3 -0.19,0.47 -0.22,0.49 0.28,0.06 0.6,0.07 0.72,0.07 0.75,0 1.09,-0.42 1.09,-1.18 v -0.33 -0.31 -0.94 c 0,-0.96 -0.91,-1.09 -1.16,-1.09 -0.51,0 -0.91,0.35 -0.91,0.79 0,1.07 1.58,1.21 2.07,1.24 h 0 v 0.31 c -0.7,-0.03 -3.23,-0.12 -3.23,-1.56 0,-0.96 1.23,-1.13 1.92,-1.13 0.8,0 1.26,0.4 1.48,0.82 z"
         inkscape:connector-curvature="0"
         style="fill:#000000;stroke-width:0" /><path
         id="path4984"
         d="m 231.91,707.7 0,-0.08 0,-0.07 0,-0.08 -0.01,-0.07 0,-0.07 -0.01,-0.07 -0.01,-0.07 -0.01,-0.07 -0.01,-0.06 -0.01,-0.06 -0.01,-0.06 -0.01,-0.06 -0.01,-0.06 -0.02,-0.05 -0.01,-0.05 -0.02,-0.06 -0.01,-0.04 -0.02,-0.05 -0.02,-0.05 -0.02,-0.04 -0.04,-0.09 -0.04,-0.07 -0.05,-0.08 -0.04,-0.06 -0.05,-0.06 -0.05,-0.06 -0.05,-0.05 -0.05,-0.04 -0.05,-0.04 -0.06,-0.04 -0.05,-0.03 -0.05,-0.03 -0.05,-0.03 -0.06,-0.02 -0.05,-0.02 -0.05,-0.01 -0.05,-0.01 -0.05,-0.01 -0.04,-0.01 -0.05,0 -0.04,-0.01 -0.04,0 c -0.16,0 -0.52,0.02 -0.71,0.23 0.28,0.03 0.3,0.27 0.3,0.33 0,0.18 -0.11,0.33 -0.32,0.33 -0.21,0 -0.34,-0.14 -0.34,-0.34 0,-0.48 0.4,-0.77 1.08,-0.77 0.99,0 1.93,0.94 1.93,2.43 0,1.72 -0.76,2.33 -1.58,2.33 -0.23,0 -0.71,-0.04 -1.11,-0.43 -0.23,-0.23 -0.51,-0.5 -0.51,-1.12 0,-0.89 0.7,-1.54 1.52,-1.54 l 0.03,0.19 c -0.27,0 -0.53,0.1 -0.72,0.42 -0.16,0.25 -0.16,0.55 -0.16,0.93 0,0.4 0,0.68 0.2,0.96 0.16,0.24 0.4,0.39 0.76,0.39 0.35,0 0.56,-0.23 0.67,-0.41 0.19,-0.29 0.21,-0.78 0.21,-1.02 0,-0.9 -0.52,-1.27 -0.96,-1.27 h 0 l -0.03,-0.19 c 0.55,0 0.85,0.37 1.01,0.68 z"
         inkscape:connector-curvature="0"
         style="fill:#000000;stroke-width:0" /></g>    <g
       id="g5759"
       transform="matrix(2.8151543,0,0,-2.8151543,-467.37712,2639.9715)"
       xml:space="preserve"
       stroke-miterlimit="10.433"
       font-style="normal"
       font-variant="normal"
       font-weight="normal"
       font-stretch="normal"
       font-size-adjust="none"
       letter-spacing="normal"
       word-spacing="normal"
       ns0:text="$\\mbox{\\boldmath{$\\rm c$}}$"
       ns0:preamble=""
       style="font-style:normal;font-variant:normal;font-weight:normal;font-stretch:normal;letter-spacing:normal;word-spacing:normal;text-anchor:start;fill:none;stroke:#000000;stroke-linecap:butt;stroke-linejoin:miter;stroke-miterlimit:10.43299961;stroke-opacity:1;stroke-dasharray:none;stroke-dashoffset:0"><path
         d="m 227.01,711.17 -0.01,-0.02 -0.02,-0.01 -0.01,-0.02 -0.02,-0.01 -0.01,-0.02 -0.01,-0.02 -0.01,-0.01 -0.01,-0.02 -0.01,-0.01 -0.01,-0.02 -0.01,-0.02 -0.01,-0.01 0,-0.02 -0.01,-0.01 -0.01,-0.02 0,-0.02 -0.01,-0.01 0,-0.02 -0.01,-0.01 0,-0.02 0,-0.01 0,-0.02 -0.01,-0.01 0,-0.01 0,-0.01 0,-0.02 0,-0.01 0,-0.01 0,-0.01 0,-0.01 0,-0.01 0,-0.01 c 0,-0.44 0.34,-0.62 0.61,-0.62 0.31,0 0.63,0.2 0.63,0.62 0,0.86 -1.16,0.91 -1.73,0.91 -1.78,0 -2.52,-1.14 -2.52,-2.29 0,-1.32 0.93,-2.26 2.47,-2.26 1.61,0 1.91,1.15 1.91,1.22 0,0.14 -0.14,0.14 -0.24,0.14 -0.18,0 -0.19,-0.02 -0.24,-0.15 -0.26,-0.63 -0.74,-0.82 -1.24,-0.82 -1.39,0 -1.39,1.46 -1.39,1.92 0,0.56 0,1.85 1.29,1.85 0.34,0 0.51,-0.03 0.64,-0.06 z"
         id="path5761"
         inkscape:connector-curvature="0"
         style="fill:#000000;stroke-width:0" /></g>    <g
       style="font-style:normal;font-variant:normal;font-weight:normal;font-stretch:normal;letter-spacing:normal;word-spacing:normal;text-anchor:start;fill:#0018f1;fill-opacity:1;stroke:#000000;stroke-linecap:butt;stroke-linejoin:miter;stroke-miterlimit:10.43299961;stroke-opacity:1;stroke-dasharray:none;stroke-dashoffset:0"
       ns0:preamble=""
       ns0:text="$\\alpha\\mbox{\\boldmath{$\\rm c$}}$"
       word-spacing="normal"
       letter-spacing="normal"
       font-size-adjust="none"
       font-stretch="normal"
       font-weight="normal"
       font-variant="normal"
       font-style="normal"
       stroke-miterlimit="10.433"
       xml:space="preserve"
       transform="matrix(2.8151543,0,0,-2.8151543,-339.10433,2315.1598)"
       id="g5892"><path
         id="path5894"
         d="m 228.18,709.47 0,0.07 0,0.07 -0.01,0.07 0,0.07 -0.02,0.13 -0.01,0.12 -0.03,0.12 -0.02,0.12 -0.03,0.1 -0.04,0.11 -0.04,0.09 -0.04,0.1 -0.04,0.08 -0.05,0.08 -0.06,0.08 -0.05,0.07 -0.06,0.07 -0.06,0.06 -0.06,0.05 -0.06,0.06 -0.07,0.05 -0.06,0.04 -0.07,0.04 -0.07,0.04 -0.07,0.03 -0.07,0.03 -0.08,0.02 -0.07,0.02 -0.07,0.02 -0.07,0.01 -0.07,0.01 -0.07,0.01 -0.07,0 -0.07,0.01 c -1.37,0 -2.68,-1.43 -2.68,-2.83 0,-0.92 0.6,-1.67 1.61,-1.67 l 0.02,0.21 c -0.59,0 -0.89,0.45 -0.89,1.09 0,0.48 0.26,1.56 0.57,2.06 0.47,0.73 1.01,0.92 1.36,0.92 0.98,0 0.98,-1.3 0.98,-2.08 0,-0.37 0,-0.94 0.02,-1.11 h 0 c -0.87,-0.77 -1.64,-0.88 -2.04,-0.88 l -0.02,-0.21 c 0.63,0 1.34,0.22 2.1,0.83 0.13,-0.53 0.46,-0.83 0.91,-0.83 0.52,0 0.83,0.54 0.83,0.7 0,0.07 -0.06,0.1 -0.12,0.1 -0.07,0 -0.1,-0.03 -0.13,-0.1 -0.18,-0.49 -0.53,-0.49 -0.55,-0.49 -0.31,0 -0.31,0.78 -0.31,1.02 0,0.21 0,0.23 0.1,0.34 0.93,1.18 1.14,2.33 1.14,2.34 0,0.02 -0.01,0.1 -0.12,0.1 -0.1,0 -0.1,-0.03 -0.15,-0.21 -0.18,-0.62 -0.5,-1.38 -0.97,-1.97 z"
         inkscape:connector-curvature="0"
         style="fill:#0018f1;fill-opacity:1;stroke-width:0" /><path
         id="path5896"
         d="m 233.42,711.17 -0.01,-0.02 -0.02,-0.01 -0.01,-0.02 -0.02,-0.01 -0.01,-0.02 -0.01,-0.02 -0.01,-0.01 -0.01,-0.02 -0.01,-0.01 -0.01,-0.02 -0.01,-0.02 -0.01,-0.01 0,-0.02 -0.01,-0.01 -0.01,-0.02 0,-0.02 -0.01,-0.01 0,-0.02 -0.01,-0.01 0,-0.02 0,-0.01 0,-0.02 -0.01,-0.01 0,-0.01 0,-0.01 0,-0.02 0,-0.01 0,-0.01 0,-0.01 0,-0.01 0,-0.01 0,-0.01 c 0,-0.44 0.34,-0.62 0.61,-0.62 0.31,0 0.63,0.2 0.63,0.62 0,0.86 -1.16,0.91 -1.73,0.91 -1.78,0 -2.52,-1.14 -2.52,-2.29 0,-1.32 0.93,-2.26 2.47,-2.26 1.61,0 1.91,1.15 1.91,1.22 0,0.14 -0.14,0.14 -0.24,0.14 -0.18,0 -0.19,-0.02 -0.24,-0.15 -0.26,-0.63 -0.74,-0.82 -1.24,-0.82 -1.39,0 -1.39,1.46 -1.39,1.92 0,0.56 0,1.85 1.29,1.85 0.34,0 0.51,-0.03 0.64,-0.06 z"
         inkscape:connector-curvature="0"
         style="fill:#0018f1;fill-opacity:1;stroke-width:0" /></g>    <g
       style="font-style:normal;font-variant:normal;font-weight:normal;font-stretch:normal;letter-spacing:normal;word-spacing:normal;text-anchor:start;fill:#0018f1;fill-opacity:1;fill-rule:evenodd;stroke:#000000;stroke-linecap:butt;stroke-linejoin:miter;stroke-miterlimit:10.43299961;stroke-opacity:1;stroke-dasharray:none;stroke-dashoffset:0"
       ns0:preamble=""
       ns0:text="$\\mbox{\\boldmath{$\\rm x$}}$"
       word-spacing="normal"
       letter-spacing="normal"
       font-size-adjust="none"
       font-stretch="normal"
       font-weight="normal"
       font-variant="normal"
       font-style="normal"
       stroke-miterlimit="10.433"
       xml:space="preserve"
       transform="matrix(2.8151543,0,0,-2.8151543,-380.52059,2244.4491)"
       id="g6663"><path
         id="path6665"
         d="m 226.87,709.57 1.17,1.29 c 0.13,0.14 0.19,0.21 1.01,0.21 v 0.47 c -0.34,-0.02 -0.86,-0.03 -0.91,-0.03 -0.25,0 -0.75,0.02 -1.03,0.03 v -0.47 c 0.14,0 0.26,-0.02 0.38,-0.09 -0.04,-0.06 -0.04,-0.08 -0.08,-0.12 l -0.83,-0.93 -0.98,1.14 h 0.4 v 0.47 c -0.26,-0.01 -0.89,-0.03 -1.21,-0.03 -0.31,0 -0.76,0.02 -1.09,0.03 v -0.47 h 0.71 l 1.55,-1.83 -1.3,-1.46 c -0.17,-0.19 -0.53,-0.19 -1.01,-0.19 v -0.47 c 0.35,0.03 0.87,0.04 0.92,0.04 0.25,0 0.82,-0.02 1.02,-0.04 v 0.47 c -0.18,0 -0.37,0.05 -0.37,0.11 0,0.01 0,0.02 0.07,0.1 l 0.97,1.08 1.09,-1.29 h -0.39 v -0.47 c 0.26,0.02 0.87,0.04 1.2,0.04 0.32,0 0.76,-0.02 1.09,-0.04 v 0.47 h -0.7 z"
         style="fill:#0018f1;fill-opacity:1;stroke-width:0"
         inkscape:connector-curvature="0" /></g>    <g
       style="font-style:normal;font-variant:normal;font-weight:normal;font-stretch:normal;letter-spacing:normal;word-spacing:normal;text-anchor:start;fill:#f12000;fill-opacity:1;fill-rule:evenodd;stroke:#000000;stroke-linecap:butt;stroke-linejoin:miter;stroke-miterlimit:10.43299961;stroke-opacity:1;stroke-dasharray:none;stroke-dashoffset:0"
       ns0:preamble=""
       ns0:text="$\\varphi$"
       word-spacing="normal"
       letter-spacing="normal"
       font-size-adjust="none"
       font-stretch="normal"
       font-weight="normal"
       font-variant="normal"
       font-style="normal"
       stroke-miterlimit="10.433"
       xml:space="preserve"
       transform="matrix(2.8151543,0,0,-2.8151543,-361.45446,2269.46)"
       id="g6976"><path
         id="path6978"
         d="m 225.12,705.44 0,-0.01 0,-0.01 0,0 0,-0.01 -0.01,-0.01 0,-0.01 0,-0.01 -0.01,-0.01 0,0 0,-0.01 0,-0.01 -0.01,-0.01 0,0 0,-0.01 0,-0.01 0,0 0,-0.01 -0.01,0 0,-0.01 0,0 0,-0.01 0,0 0,-0.01 0,0 0,-0.01 0,-0.01 -0.01,0 0,-0.01 0,-0.01 0,0 c 0,-0.22 0.19,-0.28 0.29,-0.28 0.05,0 0.27,0.03 0.37,0.26 0.03,0.08 0.08,0.4 0.35,1.82 0.09,-0.01 0.16,-0.02 0.33,-0.02 1.65,0 3.18,1.56 3.18,3.13 l -0.28,-0.22 c 0,-1.13 -1.28,-2.34 -2.81,-2.34 h 0 c -0.08,0 -0.1,0 -0.18,0.01 -0.12,0 -0.13,0.01 -0.13,0.04 0,0.02 0.17,0.93 0.2,1.07 0.31,1.28 1.08,2.23 1.97,2.23 0.68,0 0.95,-0.54 0.95,-1.01 l 0.28,0.22 c 0,0.77 -0.39,1.37 -1.13,1.37 -1.45,0 -2.04,-1.93 -2.64,-3.87 -1.08,0.2 -1.63,0.76 -1.63,1.47 0,0.28 0.23,1.37 0.82,2.06 0.08,0.09 0.08,0.11 0.08,0.13 0,0.04 -0.02,0.1 -0.12,0.1 -0.27,0 -1.04,-1.44 -1.04,-2.4 0,-0.93 0.66,-1.66 1.72,-1.91 z"
         inkscape:connector-curvature="0"
         style="fill:#f12000;fill-opacity:1;stroke-width:0" /></g>    <g
       id="g3246"
       transform="matrix(2.8151543,0,0,-2.8151543,-235.5329,2254.4455)"
       xml:space="preserve"
       stroke="black"
       stroke-linecap="butt"
       stroke-linejoin="miter"
       stroke-miterlimit="10.433"
       stroke-dasharray="none"
       stroke-dashoffset="0"
       stroke-opacity="1"
       fill="none"
       fill-rule="evenodd"
       fill-opacity="1"
       font-style="normal"
       font-variant="normal"
       font-weight="normal"
       font-stretch="normal"
       font-size-adjust="none"
       letter-spacing="normal"
       word-spacing="normal"
       text-anchor="start"
       ns0:text="${\\cal H}_{\\bf x}$"
       ns0:preamble=""
       style="font-style:normal;font-variant:normal;font-weight:normal;font-stretch:normal;letter-spacing:normal;word-spacing:normal;text-anchor:start;fill:#0018f1;fill-opacity:1;fill-rule:evenodd;stroke:#0018f1;stroke-linecap:butt;stroke-linejoin:miter;stroke-miterlimit:10.43299960999999954;stroke-opacity:1;stroke-dasharray:none;stroke-dashoffset:0"><path
         style="stroke:#0018f1;fill:#0018f1;stroke-opacity:1;fill-opacity:1"
         d="M226.73,710.45 L226.77,710.63 L226.82,710.81 L226.87,710.99 L226.92,711.17 L226.96,711.36 L227,711.54 L227.04,711.72 L227.08,711.9 C227.2,712.57,227.27,713.23,227.27,713.35 C227.27,713.91,226.73,713.91,226.61,713.91 C225.85,713.91,225.17,713.63,224.71,713.31 C223.9,712.77,223.64,712.1,223.64,712.05 C223.64,711.98,223.71,711.98,223.74,711.98 C223.82,711.98,224.29,712.1,224.5,712.48 C224.76,712.99,225.05,713.36,225.95,713.36 C226.36,713.36,226.43,713.09,226.43,712.93 C226.43,712.92,226.4,712.45,226.28,711.76 C226.23,711.49,226.2,711.31,225.99,710.45 H225.63 C225.35,710.44,224.9,710.12,224.9,709.98 C224.9,709.92,224.9,709.91,225.12,709.91 H225.84 C225.63,709.21,225.35,708.26,224.9,707.05 C224.8,706.82,224.8,706.8,224.8,706.79 C224.8,706.72,224.88,706.72,224.9,706.72 C225.04,706.72,225.35,706.85,225.55,707.05 C225.6,707.1,225.62,707.12,225.66,707.22 C226.01,708.1,226.31,708.99,226.57,709.91 H228.8 C228.91,709.91,229.1,709.91,229.26,710.01 C229.15,709.59,228.74,707.97,228.74,707.18 C228.74,706.9,228.91,706.64,229.34,706.64 C230.66,706.64,231.4,707.46,231.4,707.78 C231.4,707.84,231.35,707.86,231.3,707.86 C231.22,707.86,230.7,707.72,230.55,707.33 C230.51,707.25,230.5,707.24,230.31,707.21 C230.2,707.19,230.01,707.18,230,707.18 C229.82,707.18,229.59,707.3,229.59,707.61 C229.59,707.73,229.66,708.28,229.69,708.5 C229.86,709.6,230.35,711.47,231.2,713.73 C231.23,713.8,231.23,713.82,231.23,713.84 C231.23,713.91,231.17,713.91,231.13,713.91 C230.98,713.91,230.7,713.77,230.51,713.6 C230.5,713.58,230.44,713.53,230.4,713.44 C230,712.47,229.69,711.47,229.39,710.45 Z "
         stroke-width="0"
         fill="black"
         id="path3248" /><path
         style="stroke:#0018f1;fill:#0018f1;stroke-opacity:1;fill-opacity:1"
         d="M234.6,707.31 L235.56,708.28 C235.73,708.33,235.91,708.33,236.21,708.33 V708.72 C235.98,708.7,235.75,708.69,235.53,708.69 C235.29,708.69,234.81,708.71,234.76,708.72 V708.33 C234.85,708.33,234.9,708.32,234.95,708.29 L234.29,707.63 L233.62,708.33 H233.8 V708.72 C233.76,708.72,233.21,708.69,232.92,708.69 C232.65,708.69,232.4,708.7,232.13,708.72 V708.33 H232.65 L233.8,707.14 L232.79,706.13 C232.7,706.05,232.7,706.04,232.48,706.03 C232.37,706.02,232.12,706.02,232.09,706.02 V705.63 C232.31,705.65,232.54,705.66,232.76,705.66 C232.95,705.66,233.45,705.64,233.54,705.63 V706.02 C233.43,706.02,233.4,706.03,233.35,706.07 L234.1,706.82 L234.88,706.02 H234.69 V705.63 C234.7,705.63,235.26,705.66,235.58,705.66 C235.84,705.66,236.1,705.65,236.36,705.63 V706.02 H235.84 Z "
         stroke-width="0"
         fill="black"
         id="path3250" /></g>    <g
       style="font-style:normal;font-variant:normal;font-weight:normal;font-stretch:normal;letter-spacing:normal;word-spacing:normal;text-anchor:start;fill:#f12000;stroke:#f12000;stroke-linecap:butt;stroke-linejoin:miter;stroke-miterlimit:10.43299960999999954;stroke-opacity:1;stroke-dasharray:none;stroke-dashoffset:0;fill-opacity:1"
       ns0:preamble=""
       ns0:text="$\\mbox{\\boldmath{$\\rm c$}}$"
       word-spacing="normal"
       letter-spacing="normal"
       font-size-adjust="none"
       font-stretch="normal"
       font-weight="normal"
       font-variant="normal"
       font-style="normal"
       stroke-miterlimit="10.433"
       xml:space="preserve"
       transform="matrix(2.8151543,0,0,-2.8151543,-315.94855,2249.9715)"
       id="g3177"><path
         style="fill:#f12000;stroke-width:0;stroke:#f12000;stroke-opacity:1;fill-opacity:1"
         inkscape:connector-curvature="0"
         id="path3179"
         d="m 227.01,711.17 -0.01,-0.02 -0.02,-0.01 -0.01,-0.02 -0.02,-0.01 -0.01,-0.02 -0.01,-0.02 -0.01,-0.01 -0.01,-0.02 -0.01,-0.01 -0.01,-0.02 -0.01,-0.02 -0.01,-0.01 0,-0.02 -0.01,-0.01 -0.01,-0.02 0,-0.02 -0.01,-0.01 0,-0.02 -0.01,-0.01 0,-0.02 0,-0.01 0,-0.02 -0.01,-0.01 0,-0.01 0,-0.01 0,-0.02 0,-0.01 0,-0.01 0,-0.01 0,-0.01 0,-0.01 0,-0.01 c 0,-0.44 0.34,-0.62 0.61,-0.62 0.31,0 0.63,0.2 0.63,0.62 0,0.86 -1.16,0.91 -1.73,0.91 -1.78,0 -2.52,-1.14 -2.52,-2.29 0,-1.32 0.93,-2.26 2.47,-2.26 1.61,0 1.91,1.15 1.91,1.22 0,0.14 -0.14,0.14 -0.24,0.14 -0.18,0 -0.19,-0.02 -0.24,-0.15 -0.26,-0.63 -0.74,-0.82 -1.24,-0.82 -1.39,0 -1.39,1.46 -1.39,1.92 0,0.56 0,1.85 1.29,1.85 0.34,0 0.51,-0.03 0.64,-0.06 z" /></g>  </g>
</svg>
