<?xml version="1.0" encoding="UTF-8" standalone="no"?>
<!-- Created with Inkscape (http://www.inkscape.org/) -->

<svg
   xmlns:ns0="http://www.iki.fi/pav/software/textext/"
   xmlns:dc="http://purl.org/dc/elements/1.1/"
   xmlns:cc="http://creativecommons.org/ns#"
   xmlns:rdf="http://www.w3.org/1999/02/22-rdf-syntax-ns#"
   xmlns:svg="http://www.w3.org/2000/svg"
   xmlns="http://www.w3.org/2000/svg"
   xmlns:sodipodi="http://sodipodi.sourceforge.net/DTD/sodipodi-0.dtd"
   xmlns:inkscape="http://www.inkscape.org/namespaces/inkscape"
   width="744.09448819"
   height="1052.3622047"
   id="svg26635"
   version="1.1"
   inkscape:version="0.48.4 r9939"
   sodipodi:docname="edmonds5.svg">
  <sodipodi:namedview
     id="base"
     pagecolor="#ffffff"
     bordercolor="#666666"
     borderopacity="1.0"
     inkscape:pageopacity="0.0"
     inkscape:pageshadow="2"
     inkscape:zoom="1.4142136"
     inkscape:cx="304.06328"
     inkscape:cy="569.5421"
     inkscape:document-units="px"
     inkscape:current-layer="layer5"
     showgrid="false"
     inkscape:window-width="1918"
     inkscape:window-height="1062"
     inkscape:window-x="0"
     inkscape:window-y="0"
     inkscape:window-maximized="0"
     inkscape:snap-nodes="true"
     inkscape:snap-object-midpoints="true"
     inkscape:object-nodes="true"
     inkscape:snap-global="false"
     showborder="false" />
  <defs
     id="defs26637" />
  <metadata
     id="metadata26640">
    <rdf:RDF>
      <cc:Work
         rdf:about="">
        <dc:format>image/svg+xml</dc:format>
        <dc:type
           rdf:resource="http://purl.org/dc/dcmitype/StillImage" />
        <dc:title />
      </cc:Work>
    </rdf:RDF>
  </metadata>
  <g
     inkscape:groupmode="layer"
     id="layer5"
     inkscape:label="Layer">
    <path
       style="fill:none;stroke:#ff1414;stroke-width:2.83464575;stroke-miterlimit:4;stroke-opacity:1;stroke-dasharray:none;stroke-dashoffset:0"
       d="m -56.118587,398.58659 -20,47.14286"
       id="path26049"
       inkscape:connector-curvature="0"
       sodipodi:nodetypes="cc" />
    <path
       sodipodi:nodetypes="cc"
       inkscape:connector-curvature="0"
       id="path27258"
       d="m 23.88141,377.87236 38.57143,26.42856"
       style="fill:none;stroke:#ff1414;stroke-width:2.83464575;stroke-miterlimit:4;stroke-opacity:1;stroke-dasharray:none;stroke-dashoffset:0" />
    <path
       style="fill:none;stroke:#ff1414;stroke-width:2.83464575;stroke-miterlimit:4;stroke-opacity:1;stroke-dasharray:none;stroke-dashoffset:0"
       d="M 24.5957,522.87231 61.73856,493.58662"
       id="path27260"
       inkscape:connector-curvature="0"
       sodipodi:nodetypes="cc" />
    <path
       sodipodi:nodetypes="cc"
       inkscape:connector-curvature="0"
       id="path27262"
       d="M -63.975729,610.72945 -49.69001,527.15802"
       style="fill:none;stroke:#ff1414;stroke-width:2.83464575;stroke-miterlimit:4;stroke-opacity:1;stroke-dasharray:none;stroke-dashoffset:0" />
    <path
       sodipodi:nodetypes="cc"
       inkscape:connector-curvature="0"
       id="path27282"
       d="M -2.5052901,355.15373 -50.828,371.87117"
       style="fill:none;stroke:#000000;stroke-width:0.70866144;stroke-miterlimit:4;stroke-opacity:1;stroke-dasharray:none;stroke-dashoffset:0" />
    <path
       style="fill:none;stroke:#000000;stroke-width:0.70866144;stroke-miterlimit:4;stroke-opacity:1;stroke-dasharray:none;stroke-dashoffset:0"
       d="m 64.30579,432.22531 -1.10805,38.32496"
       id="path27284"
       inkscape:connector-curvature="0"
       sodipodi:nodetypes="cc" />
    <path
       sodipodi:nodetypes="cc"
       inkscape:connector-curvature="0"
       id="path27286"
       d="m -46.38593,517.2107 58.93502,3.43494"
       style="fill:none;stroke:#000000;stroke-width:0.70866144;stroke-miterlimit:4;stroke-opacity:1;stroke-dasharray:none;stroke-dashoffset:0" />
    <path
       style="fill:none;stroke:#000000;stroke-width:0.70866144;stroke-miterlimit:4;stroke-opacity:1;stroke-dasharray:none;stroke-dashoffset:0"
       d="m -76.406053,515.28666 -2.775451,-49.29438"
       id="path27288"
       inkscape:connector-curvature="0"
       sodipodi:nodetypes="cc" />
    <path
       style="fill:none;stroke:#000000;stroke-width:2.83464575;stroke-miterlimit:4;stroke-opacity:1;stroke-dasharray:none;stroke-dashoffset:0"
       d="m -47.29455,270.84415 -7.559194,97.00128"
       id="path26024"
       inkscape:connector-curvature="0"
       sodipodi:nodetypes="cc" />
    <path
       sodipodi:nodetypes="cc"
       inkscape:connector-curvature="0"
       id="path28170"
       d="m 512.88141,398.58659 -8.57143,51.42857"
       style="fill:none;stroke:#ff1414;stroke-width:2.83464575;stroke-miterlimit:4;stroke-opacity:1;stroke-dasharray:none;stroke-dashoffset:0" />
    <path
       style="fill:none;stroke:#ff1414;stroke-width:2.83464575;stroke-miterlimit:4;stroke-opacity:1;stroke-dasharray:none;stroke-dashoffset:0"
       d="m 615.02429,346.44377 2.85712,53.57144"
       id="path28172"
       inkscape:connector-curvature="0"
       sodipodi:nodetypes="cc" />
    <path
       sodipodi:nodetypes="cc"
       inkscape:connector-curvature="0"
       id="path28174"
       d="m 702.16711,401.44377 0.7143,-55"
       style="fill:none;stroke:#ff1414;stroke-width:2.83464575;stroke-miterlimit:4;stroke-opacity:1;stroke-dasharray:none;stroke-dashoffset:0" />
    <path
       style="fill:none;stroke:#ff1414;stroke-width:2.83464575;stroke-miterlimit:4;stroke-opacity:1;stroke-dasharray:none;stroke-dashoffset:0"
       d="m 485.02427,638.58659 14.28572,-83.57143"
       id="path28176"
       inkscape:connector-curvature="0"
       sodipodi:nodetypes="cc" />
    <path
       style="fill:none;stroke:#000000;stroke-width:0.70866144;stroke-miterlimit:4;stroke-opacity:1;stroke-dasharray:2.83464575,2.83464575;stroke-dashoffset:0"
       d="M 597.80842,328.43622 518.172,371.87117"
       id="path28178"
       inkscape:connector-curvature="0"
       sodipodi:nodetypes="cc" />
    <path
       style="fill:none;stroke:#000000;stroke-width:0.70866144;stroke-miterlimit:4;stroke-opacity:1;stroke-dasharray:2.83464575, 2.83464575;stroke-dashoffset:0"
       d="m 516.89978,540.06784 c 0,0 60.34856,-9.79301 102.6818,-36.49681 42.33325,-26.7038 62.6818,-80.78253 62.6818,-80.78253"
       id="path28182"
       inkscape:connector-curvature="0"
       sodipodi:nodetypes="czc" />
    <path
       sodipodi:nodetypes="cc"
       inkscape:connector-curvature="0"
       id="path28184"
       d="m 496.34395,521.17952 4.18883,-34.47296"
       style="fill:none;stroke:#000000;stroke-width:0.70866144;stroke-miterlimit:4;stroke-opacity:1;stroke-dasharray:none;stroke-dashoffset:0" />
    <path
       sodipodi:nodetypes="cc"
       inkscape:connector-curvature="0"
       id="path28186"
       d="m 521.70545,270.84415 -7.55919,97.00128"
       style="fill:none;stroke:#000000;stroke-width:2.83464575;stroke-miterlimit:4;stroke-opacity:1;stroke-dasharray:none;stroke-dashoffset:0" />
    <g
       id="g26603"
       transform="matrix(2.48832,0,0,-2.48832,-126.61686,2233.8132)"
       xml:space="preserve"
       stroke-miterlimit="10.433"
       font-style="normal"
       font-variant="normal"
       font-weight="normal"
       font-stretch="normal"
       font-size-adjust="none"
       letter-spacing="normal"
       word-spacing="normal"
       ns0:text="$+\\varepsilon$"
       ns0:preamble=""
       style="font-style:normal;font-variant:normal;font-weight:normal;font-stretch:normal;letter-spacing:normal;word-spacing:normal;text-anchor:start;fill:#17a000;fill-opacity:1;stroke:none"><path
         style="fill:#17a000;fill-opacity:1;stroke:none"
         inkscape:connector-curvature="0"
         d="m 227.5,709.41 h 2.78 c 0.14,0 0.32,0 0.32,0.2 0,0.2 -0.18,0.2 -0.32,0.2 h -2.78 v 2.78 c 0,0.14 0,0.33 -0.2,0.33 -0.2,0 -0.2,-0.19 -0.2,-0.33 v -2.78 h -2.78 c -0.14,0 -0.33,0 -0.33,-0.2 0,-0.2 0.19,-0.2 0.33,-0.2 h 2.78 v -2.78 c 0,-0.14 0,-0.33 0.2,-0.33 0.2,0 0.2,0.19 0.2,0.33 z"
         id="path26605" /><path
         style="fill:#17a000;fill-opacity:1;stroke:none"
         inkscape:connector-curvature="0"
         d="m 232.58,709.38 0.03,-0.01 0.04,-0.01 0.03,-0.02 0.03,-0.01 0.02,-0.01 0.03,0 0.03,-0.01 0.03,-0.01 0.03,-0.01 0.03,0 0.06,-0.02 0.05,0 0.06,-0.01 0.05,-0.01 0.05,0 0.05,0 0.05,-0.01 0.05,0 0.05,0 0.04,0 0.05,0 v 0.22 c -0.22,0 -0.34,0 -0.53,0.05 h 0 c 0.23,0.08 0.44,0.09 0.61,0.09 0.25,0 0.29,-0.01 0.47,-0.06 -0.15,-0.07 -0.17,-0.08 -0.55,-0.08 v -0.22 c 0.26,0 0.8,0 0.8,0.31 0,0.24 -0.34,0.27 -0.72,0.27 -0.21,0 -0.56,-0.02 -0.93,-0.19 -0.22,0.12 -0.39,0.31 -0.39,0.57 0,0.61 0.97,0.97 1.87,0.97 0.16,0 0.51,0 0.91,-0.28 0.11,-0.08 0.13,-0.1 0.2,-0.1 0.13,0 0.27,0.13 0.27,0.27 0,0.19 -0.61,0.56 -1.28,0.56 -1.15,0 -2.22,-0.66 -2.22,-1.42 0,-0.42 0.35,-0.67 0.4,-0.7 -0.59,-0.33 -0.91,-0.89 -0.91,-1.34 0,-0.65 0.57,-1.25 1.62,-1.25 1.32,0 1.87,0.87 1.87,1.02 0,0.06 -0.05,0.1 -0.11,0.1 -0.05,0 -0.08,-0.04 -0.1,-0.07 -0.14,-0.23 -0.37,-0.6 -1.57,-0.6 -0.61,0 -1.45,0.15 -1.45,0.86 0,0.33 0.28,0.86 0.88,1.16 z"
         id="path26607" /></g>    <g
       id="g26579"
       transform="matrix(2.48832,0,0,-2.48832,-454.52422,2122.9547)"
       xml:space="preserve"
       stroke-miterlimit="10.433"
       font-style="normal"
       font-variant="normal"
       font-weight="normal"
       font-stretch="normal"
       font-size-adjust="none"
       letter-spacing="normal"
       word-spacing="normal"
       ns0:text="$-\\varepsilon$"
       ns0:preamble=""
       style="font-style:normal;font-variant:normal;font-weight:normal;font-stretch:normal;letter-spacing:normal;word-spacing:normal;text-anchor:start;fill:#17a000;fill-opacity:1;fill-rule:evenodd;stroke:#000000;stroke-linecap:butt;stroke-linejoin:miter;stroke-miterlimit:10.43299961;stroke-opacity:1;stroke-dasharray:none;stroke-dashoffset:0"><path
         style="fill:#17a000;fill-opacity:1;stroke-width:0"
         d="m 229.99,709.41 0.03,0 0.03,0 0.03,0 0.02,0 0.01,0 0.02,0 0.01,0.01 0.02,0 0.01,0 0.02,0 0.01,0.01 0.01,0 0.02,0 0.01,0.01 0.01,0.01 0.01,0 0.01,0.01 0.01,0.01 0.01,0 0.01,0.01 0.01,0.01 0,0.01 0,0 0.01,0.01 0,0.01 0,0 0,0.01 0.01,0.01 0,0 0,0.01 0,0.01 0,0.01 0,0 0.01,0.01 0,0.01 0,0.01 0,0.01 c 0,0.2 -0.18,0.2 -0.35,0.2 h -5.38 c -0.17,0 -0.35,0 -0.35,-0.2 0,-0.2 0.18,-0.2 0.35,-0.2 z"
         id="path26581"
         inkscape:connector-curvature="0" /><path
         style="fill:#17a000;fill-opacity:1;stroke-width:0"
         d="m 232.58,709.38 0.03,-0.01 0.04,-0.01 0.03,-0.02 0.03,-0.01 0.02,-0.01 0.03,0 0.03,-0.01 0.03,-0.01 0.03,-0.01 0.03,0 0.06,-0.02 0.05,0 0.06,-0.01 0.05,-0.01 0.05,0 0.05,0 0.05,-0.01 0.05,0 0.05,0 0.04,0 0.05,0 v 0.22 c -0.22,0 -0.34,0 -0.53,0.05 h 0 c 0.23,0.08 0.44,0.09 0.61,0.09 0.25,0 0.29,-0.01 0.47,-0.06 -0.15,-0.07 -0.17,-0.08 -0.55,-0.08 v -0.22 c 0.26,0 0.8,0 0.8,0.31 0,0.24 -0.34,0.27 -0.72,0.27 -0.21,0 -0.56,-0.02 -0.93,-0.19 -0.22,0.12 -0.39,0.31 -0.39,0.57 0,0.61 0.97,0.97 1.87,0.97 0.16,0 0.51,0 0.91,-0.28 0.11,-0.08 0.13,-0.1 0.2,-0.1 0.13,0 0.27,0.13 0.27,0.27 0,0.19 -0.61,0.56 -1.28,0.56 -1.15,0 -2.22,-0.66 -2.22,-1.42 0,-0.42 0.35,-0.67 0.4,-0.7 -0.59,-0.33 -0.91,-0.89 -0.91,-1.34 0,-0.65 0.57,-1.25 1.62,-1.25 1.32,0 1.87,0.87 1.87,1.02 0,0.06 -0.05,0.1 -0.11,0.1 -0.05,0 -0.08,-0.04 -0.1,-0.07 -0.14,-0.23 -0.37,-0.6 -1.57,-0.6 -0.61,0 -1.45,0.15 -1.45,0.86 0,0.33 0.28,0.86 0.88,1.16 z"
         id="path26583"
         inkscape:connector-curvature="0" /></g>    <g
       style="font-style:normal;font-variant:normal;font-weight:normal;font-stretch:normal;letter-spacing:normal;word-spacing:normal;text-anchor:start;fill:#17a000;fill-opacity:1;fill-rule:evenodd;stroke:#000000;stroke-linecap:butt;stroke-linejoin:miter;stroke-miterlimit:10.43299961;stroke-opacity:1;stroke-dasharray:none;stroke-dashoffset:0"
       ns0:preamble=""
       ns0:text="$-\\varepsilon$"
       word-spacing="normal"
       letter-spacing="normal"
       font-size-adjust="none"
       font-stretch="normal"
       font-weight="normal"
       font-variant="normal"
       font-style="normal"
       stroke-miterlimit="10.433"
       xml:space="preserve"
       transform="matrix(2.48832,0,0,-2.48832,-114.80993,2149.3833)"
       id="g28312"><path
         inkscape:connector-curvature="0"
         id="path28314"
         d="m 229.99,709.41 0.03,0 0.03,0 0.03,0 0.02,0 0.01,0 0.02,0 0.01,0.01 0.02,0 0.01,0 0.02,0 0.01,0.01 0.01,0 0.02,0 0.01,0.01 0.01,0.01 0.01,0 0.01,0.01 0.01,0.01 0.01,0 0.01,0.01 0.01,0.01 0,0.01 0,0 0.01,0.01 0,0.01 0,0 0,0.01 0.01,0.01 0,0 0,0.01 0,0.01 0,0.01 0,0 0.01,0.01 0,0.01 0,0.01 0,0.01 c 0,0.2 -0.18,0.2 -0.35,0.2 h -5.38 c -0.17,0 -0.35,0 -0.35,-0.2 0,-0.2 0.18,-0.2 0.35,-0.2 z"
         style="fill:#17a000;fill-opacity:1;stroke-width:0" /><path
         inkscape:connector-curvature="0"
         id="path28316"
         d="m 232.58,709.38 0.03,-0.01 0.04,-0.01 0.03,-0.02 0.03,-0.01 0.02,-0.01 0.03,0 0.03,-0.01 0.03,-0.01 0.03,-0.01 0.03,0 0.06,-0.02 0.05,0 0.06,-0.01 0.05,-0.01 0.05,0 0.05,0 0.05,-0.01 0.05,0 0.05,0 0.04,0 0.05,0 v 0.22 c -0.22,0 -0.34,0 -0.53,0.05 h 0 c 0.23,0.08 0.44,0.09 0.61,0.09 0.25,0 0.29,-0.01 0.47,-0.06 -0.15,-0.07 -0.17,-0.08 -0.55,-0.08 v -0.22 c 0.26,0 0.8,0 0.8,0.31 0,0.24 -0.34,0.27 -0.72,0.27 -0.21,0 -0.56,-0.02 -0.93,-0.19 -0.22,0.12 -0.39,0.31 -0.39,0.57 0,0.61 0.97,0.97 1.87,0.97 0.16,0 0.51,0 0.91,-0.28 0.11,-0.08 0.13,-0.1 0.2,-0.1 0.13,0 0.27,0.13 0.27,0.27 0,0.19 -0.61,0.56 -1.28,0.56 -1.15,0 -2.22,-0.66 -2.22,-1.42 0,-0.42 0.35,-0.67 0.4,-0.7 -0.59,-0.33 -0.91,-0.89 -0.91,-1.34 0,-0.65 0.57,-1.25 1.62,-1.25 1.32,0 1.87,0.87 1.87,1.02 0,0.06 -0.05,0.1 -0.11,0.1 -0.05,0 -0.08,-0.04 -0.1,-0.07 -0.14,-0.23 -0.37,-0.6 -1.57,-0.6 -0.61,0 -1.45,0.15 -1.45,0.86 0,0.33 0.28,0.86 0.88,1.16 z"
         style="fill:#17a000;fill-opacity:1;stroke-width:0" /></g>    <g
       id="g28318"
       transform="matrix(2.48832,0,0,-2.48832,-130.52422,2307.2404)"
       xml:space="preserve"
       stroke-miterlimit="10.433"
       font-style="normal"
       font-variant="normal"
       font-weight="normal"
       font-stretch="normal"
       font-size-adjust="none"
       letter-spacing="normal"
       word-spacing="normal"
       ns0:text="$-\\varepsilon$"
       ns0:preamble=""
       style="font-style:normal;font-variant:normal;font-weight:normal;font-stretch:normal;letter-spacing:normal;word-spacing:normal;text-anchor:start;fill:#17a000;fill-opacity:1;fill-rule:evenodd;stroke:#000000;stroke-linecap:butt;stroke-linejoin:miter;stroke-miterlimit:10.43299961;stroke-opacity:1;stroke-dasharray:none;stroke-dashoffset:0"><path
         style="fill:#17a000;fill-opacity:1;stroke-width:0"
         d="m 229.99,709.41 0.03,0 0.03,0 0.03,0 0.02,0 0.01,0 0.02,0 0.01,0.01 0.02,0 0.01,0 0.02,0 0.01,0.01 0.01,0 0.02,0 0.01,0.01 0.01,0.01 0.01,0 0.01,0.01 0.01,0.01 0.01,0 0.01,0.01 0.01,0.01 0,0.01 0,0 0.01,0.01 0,0.01 0,0 0,0.01 0.01,0.01 0,0 0,0.01 0,0.01 0,0.01 0,0 0.01,0.01 0,0.01 0,0.01 0,0.01 c 0,0.2 -0.18,0.2 -0.35,0.2 h -5.38 c -0.17,0 -0.35,0 -0.35,-0.2 0,-0.2 0.18,-0.2 0.35,-0.2 z"
         id="path28320"
         inkscape:connector-curvature="0" /><path
         style="fill:#17a000;fill-opacity:1;stroke-width:0"
         d="m 232.58,709.38 0.03,-0.01 0.04,-0.01 0.03,-0.02 0.03,-0.01 0.02,-0.01 0.03,0 0.03,-0.01 0.03,-0.01 0.03,-0.01 0.03,0 0.06,-0.02 0.05,0 0.06,-0.01 0.05,-0.01 0.05,0 0.05,0 0.05,-0.01 0.05,0 0.05,0 0.04,0 0.05,0 v 0.22 c -0.22,0 -0.34,0 -0.53,0.05 h 0 c 0.23,0.08 0.44,0.09 0.61,0.09 0.25,0 0.29,-0.01 0.47,-0.06 -0.15,-0.07 -0.17,-0.08 -0.55,-0.08 v -0.22 c 0.26,0 0.8,0 0.8,0.31 0,0.24 -0.34,0.27 -0.72,0.27 -0.21,0 -0.56,-0.02 -0.93,-0.19 -0.22,0.12 -0.39,0.31 -0.39,0.57 0,0.61 0.97,0.97 1.87,0.97 0.16,0 0.51,0 0.91,-0.28 0.11,-0.08 0.13,-0.1 0.2,-0.1 0.13,0 0.27,0.13 0.27,0.27 0,0.19 -0.61,0.56 -1.28,0.56 -1.15,0 -2.22,-0.66 -2.22,-1.42 0,-0.42 0.35,-0.67 0.4,-0.7 -0.59,-0.33 -0.91,-0.89 -0.91,-1.34 0,-0.65 0.57,-1.25 1.62,-1.25 1.32,0 1.87,0.87 1.87,1.02 0,0.06 -0.05,0.1 -0.11,0.1 -0.05,0 -0.08,-0.04 -0.1,-0.07 -0.14,-0.23 -0.37,-0.6 -1.57,-0.6 -0.61,0 -1.45,0.15 -1.45,0.86 0,0.33 0.28,0.86 0.88,1.16 z"
         id="path28322"
         inkscape:connector-curvature="0" /></g>    <text
       xml:space="preserve"
       style="font-size:144px;font-style:normal;font-variant:normal;font-weight:normal;font-stretch:normal;text-align:start;line-height:125%;letter-spacing:0px;word-spacing:0px;writing-mode:lr-tb;text-anchor:start;fill:#003199;fill-opacity:1;stroke:none;font-family:TeX Gyre Termes;-inkscape-font-specification:TeX Gyre Termes"
       x="220"
       y="476.36218"
       id="text28326"
       sodipodi:linespacing="125%"><tspan
         sodipodi:role="line"
         id="tspan28332"
         x="220"
         y="476.36218">⇝ </tspan></text>
    <g
       id="g11030"
       transform="matrix(2.48832,0,0,-2.48832,-507.69877,2087.4778)"
       xml:space="preserve"
       stroke="black"
       stroke-linecap="butt"
       stroke-linejoin="miter"
       stroke-miterlimit="10.433"
       stroke-dasharray="none"
       stroke-dashoffset="0"
       stroke-opacity="1"
       fill="none"
       fill-rule="evenodd"
       fill-opacity="1"
       font-style="normal"
       font-variant="normal"
       font-weight="normal"
       font-stretch="normal"
       font-size-adjust="none"
       letter-spacing="normal"
       word-spacing="normal"
       text-anchor="start"
       ns0:text="$K$"
       ns0:preamble=""
       style="font-style:normal;font-variant:normal;font-weight:normal;font-stretch:normal;letter-spacing:normal;word-spacing:normal;text-anchor:start;fill:#17a000;fill-opacity:1;fill-rule:evenodd;stroke:none"><path
         d="M228.5,711.14 L228.49,711.14 L228.49,711.14 L228.49,711.15 L228.49,711.15 L228.49,711.16 L228.49,711.16 L228.49,711.16 L228.48,711.17 L228.48,711.17 L228.48,711.18 L228.48,711.18 L228.48,711.19 L228.47,711.2 L228.47,711.21 L228.46,711.22 L228.46,711.23 L228.46,711.23 L228.46,711.24 L228.45,711.24 L228.45,711.25 L228.45,711.25 L228.45,711.26 L228.45,711.26 L228.45,711.26 L228.45,711.27 L228.45,711.27 L228.45,711.27 L228.45,711.28 C228.45,711.29,228.63,711.43,228.74,711.51 L230.48,712.85 C231.41,713.53,231.8,713.57,232.1,713.6 C232.18,713.61,232.28,713.62,232.28,713.8 C232.28,713.84,232.25,713.91,232.17,713.91 C231.95,713.91,231.7,713.88,231.46,713.88 C231.1,713.88,230.71,713.91,230.36,713.91 C230.29,713.91,230.17,713.91,230.17,713.71 C230.17,713.64,230.22,713.61,230.29,713.6 C230.51,713.58,230.6,713.53,230.6,713.39 C230.6,713.21,230.3,712.99,230.24,712.94 L226.36,709.96 L227.15,713.15 C227.24,713.5,227.26,713.6,227.99,713.6 C228.24,713.6,228.33,713.6,228.33,713.8 C228.33,713.89,228.25,713.91,228.19,713.91 C227.91,713.91,227.19,713.88,226.91,713.88 C226.63,713.88,225.92,713.91,225.63,713.91 C225.56,713.91,225.43,713.91,225.43,713.72 C225.43,713.6,225.52,713.6,225.72,713.6 C225.85,713.6,226.03,713.59,226.15,713.58 C226.31,713.56,226.37,713.53,226.37,713.42 C226.37,713.38,226.36,713.35,226.33,713.23 L224.99,707.9 C224.9,707.51,224.88,707.43,224.09,707.43 C223.92,707.43,223.81,707.43,223.81,707.24 C223.81,707.12,223.93,707.12,223.96,707.12 C224.24,707.12,224.94,707.16,225.22,707.16 C225.43,707.16,225.65,707.15,225.86,707.15 C226.08,707.15,226.3,707.12,226.51,707.12 C226.58,707.12,226.71,707.12,226.71,707.32 C226.71,707.43,226.62,707.43,226.43,707.43 C226.06,707.43,225.78,707.43,225.78,707.61 C225.78,707.68,225.84,707.9,225.87,708.05 C226.01,708.57,226.14,709.09,226.27,709.61 L227.75,710.76 L228.9,708.09 C229.02,707.82,229.02,707.8,229.02,707.74 C229.02,707.44,228.6,707.43,228.51,707.43 C228.4,707.43,228.29,707.43,228.29,707.23 C228.29,707.12,228.41,707.12,228.43,707.12 C228.82,707.12,229.24,707.16,229.64,707.16 C229.86,707.16,230.4,707.12,230.62,707.12 C230.66,707.12,230.79,707.12,230.79,707.32 C230.79,707.43,230.68,707.43,230.6,707.43 C230.19,707.44,230.06,707.53,229.91,707.88 Z "
         stroke-width="0"
         fill="black"
         id="path11032" /></g>    <g
       style="font-style:normal;font-variant:normal;font-weight:normal;font-stretch:normal;letter-spacing:normal;word-spacing:normal;text-anchor:start;fill:#17a000;fill-opacity:1;fill-rule:evenodd;stroke:none"
       ns0:preamble=""
       ns0:text="$K_4$"
       word-spacing="normal"
       letter-spacing="normal"
       font-size-adjust="none"
       font-stretch="normal"
       font-weight="normal"
       font-variant="normal"
       font-style="normal"
       stroke-miterlimit="10.433"
       xml:space="preserve"
       transform="matrix(2.48832,0,0,-2.48832,-556.8714,2122.852)"
       id="g11249"><path
         id="path11251"
         d="m 228.5,711.14 -0.01,0 0,0 0,0.01 0,0 0,0.01 0,0 0,0 -0.01,0.01 0,0 0,0.01 0,0 0,0.01 -0.01,0.01 0,0.01 -0.01,0.01 0,0.01 0,0 0,0.01 -0.01,0 0,0.01 0,0 0,0.01 0,0 0,0 0,0.01 0,0 0,0 0,0.01 c 0,0.01 0.18,0.15 0.29,0.23 l 1.74,1.34 c 0.93,0.68 1.32,0.72 1.62,0.75 0.08,0.01 0.18,0.02 0.18,0.2 0,0.04 -0.03,0.11 -0.11,0.11 -0.22,0 -0.47,-0.03 -0.71,-0.03 -0.36,0 -0.75,0.03 -1.1,0.03 -0.07,0 -0.19,0 -0.19,-0.2 0,-0.07 0.05,-0.1 0.12,-0.11 0.22,-0.02 0.31,-0.07 0.31,-0.21 0,-0.18 -0.3,-0.4 -0.36,-0.45 l -3.88,-2.98 0.79,3.19 c 0.09,0.35 0.11,0.45 0.84,0.45 0.25,0 0.34,0 0.34,0.2 0,0.09 -0.08,0.11 -0.14,0.11 -0.28,0 -1,-0.03 -1.28,-0.03 -0.28,0 -0.99,0.03 -1.28,0.03 -0.07,0 -0.2,0 -0.2,-0.19 0,-0.12 0.09,-0.12 0.29,-0.12 0.13,0 0.31,-0.01 0.43,-0.02 0.16,-0.02 0.22,-0.05 0.22,-0.16 0,-0.04 -0.01,-0.07 -0.04,-0.19 l -1.34,-5.33 c -0.09,-0.39 -0.11,-0.47 -0.9,-0.47 -0.17,0 -0.28,0 -0.28,-0.19 0,-0.12 0.12,-0.12 0.15,-0.12 0.28,0 0.98,0.04 1.26,0.04 0.21,0 0.43,-0.01 0.64,-0.01 0.22,0 0.44,-0.03 0.65,-0.03 0.07,0 0.2,0 0.2,0.2 0,0.11 -0.09,0.11 -0.28,0.11 -0.37,0 -0.65,0 -0.65,0.18 0,0.07 0.06,0.29 0.09,0.44 0.14,0.52 0.27,1.04 0.4,1.56 l 1.48,1.15 1.15,-2.67 c 0.12,-0.27 0.12,-0.29 0.12,-0.35 0,-0.3 -0.42,-0.31 -0.51,-0.31 -0.11,0 -0.22,0 -0.22,-0.2 0,-0.11 0.12,-0.11 0.14,-0.11 0.39,0 0.81,0.04 1.21,0.04 0.22,0 0.76,-0.04 0.98,-0.04 0.04,0 0.17,0 0.17,0.2 0,0.11 -0.11,0.11 -0.19,0.11 -0.41,0.01 -0.54,0.1 -0.69,0.45 z"
         inkscape:connector-curvature="0"
         style="fill:#000000" /><path
         id="path11253"
         d="m 235.58,706.77 v 0.25 h -0.78 v 3.1 c 0,0.15 0,0.2 -0.15,0.2 -0.08,0 -0.11,0 -0.18,-0.1 l -2.31,-3.2 v -0.25 h 2.05 l 0.05,0.25 h -1.84 l 1.84,2.55 v -2.55 l -0.05,-0.25 v -0.57 c 0,-0.23 0,-0.32 -0.56,-0.32 h -0.19 v -0.25 c 0.35,0.02 0.79,0.03 1.05,0.03 0.25,0 0.7,-0.01 1.05,-0.03 v 0.25 h -0.19 c -0.57,0 -0.57,0.09 -0.57,0.32 v 0.57 z"
         inkscape:connector-curvature="0"
         style="fill:#000000" /></g>    <g
       id="g11470"
       transform="matrix(2.48832,0,0,-2.48832,-492.30184,2182.2687)"
       xml:space="preserve"
       stroke-miterlimit="10.433"
       font-style="normal"
       font-variant="normal"
       font-weight="normal"
       font-stretch="normal"
       font-size-adjust="none"
       letter-spacing="normal"
       word-spacing="normal"
       ns0:text="$K_5$"
       ns0:preamble=""
       style="font-style:normal;font-variant:normal;font-weight:normal;font-stretch:normal;letter-spacing:normal;word-spacing:normal;text-anchor:start;fill:#17a000;fill-opacity:1;fill-rule:evenodd;stroke:none"><path
         style="fill:#000000"
         inkscape:connector-curvature="0"
         d="m 228.5,711.14 -0.01,0 0,0 0,0.01 0,0 0,0.01 0,0 0,0 -0.01,0.01 0,0 0,0.01 0,0 0,0.01 -0.01,0.01 0,0.01 -0.01,0.01 0,0.01 0,0 0,0.01 -0.01,0 0,0.01 0,0 0,0.01 0,0 0,0 0,0.01 0,0 0,0 0,0.01 c 0,0.01 0.18,0.15 0.29,0.23 l 1.74,1.34 c 0.93,0.68 1.32,0.72 1.62,0.75 0.08,0.01 0.18,0.02 0.18,0.2 0,0.04 -0.03,0.11 -0.11,0.11 -0.22,0 -0.47,-0.03 -0.71,-0.03 -0.36,0 -0.75,0.03 -1.1,0.03 -0.07,0 -0.19,0 -0.19,-0.2 0,-0.07 0.05,-0.1 0.12,-0.11 0.22,-0.02 0.31,-0.07 0.31,-0.21 0,-0.18 -0.3,-0.4 -0.36,-0.45 l -3.88,-2.98 0.79,3.19 c 0.09,0.35 0.11,0.45 0.84,0.45 0.25,0 0.34,0 0.34,0.2 0,0.09 -0.08,0.11 -0.14,0.11 -0.28,0 -1,-0.03 -1.28,-0.03 -0.28,0 -0.99,0.03 -1.28,0.03 -0.07,0 -0.2,0 -0.2,-0.19 0,-0.12 0.09,-0.12 0.29,-0.12 0.13,0 0.31,-0.01 0.43,-0.02 0.16,-0.02 0.22,-0.05 0.22,-0.16 0,-0.04 -0.01,-0.07 -0.04,-0.19 l -1.34,-5.33 c -0.09,-0.39 -0.11,-0.47 -0.9,-0.47 -0.17,0 -0.28,0 -0.28,-0.19 0,-0.12 0.12,-0.12 0.15,-0.12 0.28,0 0.98,0.04 1.26,0.04 0.21,0 0.43,-0.01 0.64,-0.01 0.22,0 0.44,-0.03 0.65,-0.03 0.07,0 0.2,0 0.2,0.2 0,0.11 -0.09,0.11 -0.28,0.11 -0.37,0 -0.65,0 -0.65,0.18 0,0.07 0.06,0.29 0.09,0.44 0.14,0.52 0.27,1.04 0.4,1.56 l 1.48,1.15 1.15,-2.67 c 0.12,-0.27 0.12,-0.29 0.12,-0.35 0,-0.3 -0.42,-0.31 -0.51,-0.31 -0.11,0 -0.22,0 -0.22,-0.2 0,-0.11 0.12,-0.11 0.14,-0.11 0.39,0 0.81,0.04 1.21,0.04 0.22,0 0.76,-0.04 0.98,-0.04 0.04,0 0.17,0 0.17,0.2 0,0.11 -0.11,0.11 -0.19,0.11 -0.41,0.01 -0.54,0.1 -0.69,0.45 z"
         id="path11472" /><path
         style="fill:#000000"
         inkscape:connector-curvature="0"
         d="m 232.97,709.51 0.04,-0.01 0.03,0 0.03,-0.01 0.03,-0.01 0.03,0 0.03,-0.01 0.03,-0.01 0.02,0 0.03,-0.01 0.02,0 0.03,0 0.02,-0.01 0.03,0 0.02,0 0.02,-0.01 0.02,0 0.02,0 0.02,0 0.02,0 0.02,0 0.02,-0.01 0.01,0 0.02,0 0.02,0 0.01,0 0.01,0 0.02,0 0.01,0 0.01,0 0.02,0 0.01,0 0.01,0 c 0.92,0 1.46,0.63 1.46,0.73 0,0.08 -0.05,0.1 -0.08,0.1 -0.02,0 -0.03,0 -0.06,-0.02 -0.17,-0.07 -0.54,-0.2 -1.05,-0.2 -0.19,0 -0.56,0.01 -1.02,0.18 -0.07,0.04 -0.08,0.04 -0.09,0.04 -0.09,0 -0.09,-0.08 -0.09,-0.19 v -2.05 c 0,-0.12 0,-0.2 0.11,-0.2 0.07,0 0.07,0.01 0.14,0.1 0.3,0.38 0.73,0.43 0.97,0.43 0.42,0 0.61,-0.33 0.64,-0.39 0.13,-0.23 0.17,-0.49 0.17,-0.89 0,-0.21 0,-0.62 -0.21,-0.93 -0.17,-0.25 -0.47,-0.42 -0.81,-0.42 -0.46,0 -0.93,0.26 -1.1,0.71 0.27,-0.02 0.4,0.16 0.4,0.34 0,0.3 -0.26,0.36 -0.35,0.36 -0.01,0 -0.35,0 -0.35,-0.38 0,-0.62 0.57,-1.25 1.41,-1.25 0.89,0 1.67,0.66 1.67,1.54 0,0.78 -0.6,1.51 -1.46,1.51 -0.31,0 -0.67,-0.08 -0.98,-0.34 z"
         id="path11474" /></g>    <g
       style="font-style:normal;font-variant:normal;font-weight:normal;font-stretch:normal;letter-spacing:normal;word-spacing:normal;text-anchor:start;fill:#17a000;fill-opacity:1;fill-rule:evenodd;stroke:none"
       ns0:preamble=""
       ns0:text="$K_6$"
       text-anchor="start"
       word-spacing="normal"
       letter-spacing="normal"
       font-size-adjust="none"
       font-stretch="normal"
       font-weight="normal"
       font-variant="normal"
       font-style="normal"
       fill-opacity="1"
       fill-rule="evenodd"
       fill="none"
       stroke-opacity="1"
       stroke-dashoffset="0"
       stroke-dasharray="none"
       stroke-miterlimit="10.433"
       stroke-linejoin="miter"
       stroke-linecap="butt"
       stroke="black"
       xml:space="preserve"
       transform="matrix(2.48832,0,0,-2.48832,-492.77672,2244.3324)"
       id="g11691"><path
         id="path11693"
         fill="black"
         stroke-width="0"
         d="M228.5,711.14 L228.49,711.14 L228.49,711.14 L228.49,711.15 L228.49,711.15 L228.49,711.16 L228.49,711.16 L228.49,711.16 L228.48,711.17 L228.48,711.17 L228.48,711.18 L228.48,711.18 L228.48,711.19 L228.47,711.2 L228.47,711.21 L228.46,711.22 L228.46,711.23 L228.46,711.23 L228.46,711.24 L228.45,711.24 L228.45,711.25 L228.45,711.25 L228.45,711.26 L228.45,711.26 L228.45,711.26 L228.45,711.27 L228.45,711.27 L228.45,711.27 L228.45,711.28 C228.45,711.29,228.63,711.43,228.74,711.51 L230.48,712.85 C231.41,713.53,231.8,713.57,232.1,713.6 C232.18,713.61,232.28,713.62,232.28,713.8 C232.28,713.84,232.25,713.91,232.17,713.91 C231.95,713.91,231.7,713.88,231.46,713.88 C231.1,713.88,230.71,713.91,230.36,713.91 C230.29,713.91,230.17,713.91,230.17,713.71 C230.17,713.64,230.22,713.61,230.29,713.6 C230.51,713.58,230.6,713.53,230.6,713.39 C230.6,713.21,230.3,712.99,230.24,712.94 L226.36,709.96 L227.15,713.15 C227.24,713.5,227.26,713.6,227.99,713.6 C228.24,713.6,228.33,713.6,228.33,713.8 C228.33,713.89,228.25,713.91,228.19,713.91 C227.91,713.91,227.19,713.88,226.91,713.88 C226.63,713.88,225.92,713.91,225.63,713.91 C225.56,713.91,225.43,713.91,225.43,713.72 C225.43,713.6,225.52,713.6,225.72,713.6 C225.85,713.6,226.03,713.59,226.15,713.58 C226.31,713.56,226.37,713.53,226.37,713.42 C226.37,713.38,226.36,713.35,226.33,713.23 L224.99,707.9 C224.9,707.51,224.88,707.43,224.09,707.43 C223.92,707.43,223.81,707.43,223.81,707.24 C223.81,707.12,223.93,707.12,223.96,707.12 C224.24,707.12,224.94,707.16,225.22,707.16 C225.43,707.16,225.65,707.15,225.86,707.15 C226.08,707.15,226.3,707.12,226.51,707.12 C226.58,707.12,226.71,707.12,226.71,707.32 C226.71,707.43,226.62,707.43,226.43,707.43 C226.06,707.43,225.78,707.43,225.78,707.61 C225.78,707.68,225.84,707.9,225.87,708.05 C226.01,708.57,226.14,709.09,226.27,709.61 L227.75,710.76 L228.9,708.09 C229.02,707.82,229.02,707.8,229.02,707.74 C229.02,707.44,228.6,707.43,228.51,707.43 C228.4,707.43,228.29,707.43,228.29,707.23 C228.29,707.12,228.41,707.12,228.43,707.12 C228.82,707.12,229.24,707.16,229.64,707.16 C229.86,707.16,230.4,707.12,230.62,707.12 C230.66,707.12,230.79,707.12,230.79,707.32 C230.79,707.43,230.68,707.43,230.6,707.43 C230.19,707.44,230.06,707.53,229.91,707.88 Z " /><path
         id="path11695"
         fill="black"
         stroke-width="0"
         d="M232.94,707.91 L232.94,708.01 L232.94,708.12 L232.94,708.22 L232.95,708.32 L232.96,708.42 L232.97,708.52 L232.98,708.62 L233,708.71 L233.01,708.81 L233.04,708.9 L233.06,708.99 L233.09,709.08 L233.11,709.12 L233.12,709.17 L233.14,709.21 L233.16,709.25 L233.18,709.29 L233.2,709.33 L233.23,709.37 L233.25,709.41 C233.49,709.79,233.86,710.05,234.31,710.05 C234.52,710.05,234.8,709.99,234.94,709.8 C234.76,709.79,234.62,709.67,234.62,709.47 C234.62,709.3,234.73,709.14,234.94,709.14 C235.15,709.14,235.28,709.28,235.28,709.48 C235.28,709.89,234.99,710.25,234.3,710.25 C233.29,710.25,232.27,709.33,232.27,707.84 C232.27,706.03,233.12,705.49,233.88,705.49 C234.73,705.49,235.47,706.14,235.47,707.05 C235.47,707.93,234.77,708.59,233.95,708.59 L233.92,708.39 C234.24,708.39,234.46,708.27,234.63,708.01 C234.8,707.74,234.8,707.45,234.8,707.05 C234.8,706.65,234.8,706.36,234.62,706.09 C234.45,705.85,234.23,705.71,233.88,705.71 H233.88 C233.54,705.71,233.26,705.92,233.12,706.22 C233.01,706.43,232.96,706.78,232.96,707.2 C232.96,707.87,233.36,708.39,233.92,708.39 L233.95,708.59 C233.4,708.59,233.09,708.22,232.94,707.91 Z " /></g>    <g
       id="g11912"
       transform="matrix(2.48832,0,0,-2.48832,-557.90617,2307.1712)"
       xml:space="preserve"
       stroke-miterlimit="10.433"
       font-style="normal"
       font-variant="normal"
       font-weight="normal"
       font-stretch="normal"
       font-size-adjust="none"
       letter-spacing="normal"
       word-spacing="normal"
       ns0:text="$K_7$"
       ns0:preamble=""
       style="font-style:normal;font-variant:normal;font-weight:normal;font-stretch:normal;letter-spacing:normal;word-spacing:normal;text-anchor:start;fill:#17a000;fill-opacity:1;fill-rule:evenodd;stroke:none"><path
         d="m 228.5,711.14 -0.01,0 0,0 0,0.01 0,0 0,0.01 0,0 0,0 -0.01,0.01 0,0 0,0.01 0,0 0,0.01 -0.01,0.01 0,0.01 -0.01,0.01 0,0.01 0,0 0,0.01 -0.01,0 0,0.01 0,0 0,0.01 0,0 0,0 0,0.01 0,0 0,0 0,0.01 c 0,0.01 0.18,0.15 0.29,0.23 l 1.74,1.34 c 0.93,0.68 1.32,0.72 1.62,0.75 0.08,0.01 0.18,0.02 0.18,0.2 0,0.04 -0.03,0.11 -0.11,0.11 -0.22,0 -0.47,-0.03 -0.71,-0.03 -0.36,0 -0.75,0.03 -1.1,0.03 -0.07,0 -0.19,0 -0.19,-0.2 0,-0.07 0.05,-0.1 0.12,-0.11 0.22,-0.02 0.31,-0.07 0.31,-0.21 0,-0.18 -0.3,-0.4 -0.36,-0.45 l -3.88,-2.98 0.79,3.19 c 0.09,0.35 0.11,0.45 0.84,0.45 0.25,0 0.34,0 0.34,0.2 0,0.09 -0.08,0.11 -0.14,0.11 -0.28,0 -1,-0.03 -1.28,-0.03 -0.28,0 -0.99,0.03 -1.28,0.03 -0.07,0 -0.2,0 -0.2,-0.19 0,-0.12 0.09,-0.12 0.29,-0.12 0.13,0 0.31,-0.01 0.43,-0.02 0.16,-0.02 0.22,-0.05 0.22,-0.16 0,-0.04 -0.01,-0.07 -0.04,-0.19 l -1.34,-5.33 c -0.09,-0.39 -0.11,-0.47 -0.9,-0.47 -0.17,0 -0.28,0 -0.28,-0.19 0,-0.12 0.12,-0.12 0.15,-0.12 0.28,0 0.98,0.04 1.26,0.04 0.21,0 0.43,-0.01 0.64,-0.01 0.22,0 0.44,-0.03 0.65,-0.03 0.07,0 0.2,0 0.2,0.2 0,0.11 -0.09,0.11 -0.28,0.11 -0.37,0 -0.65,0 -0.65,0.18 0,0.07 0.06,0.29 0.09,0.44 0.14,0.52 0.27,1.04 0.4,1.56 l 1.48,1.15 1.15,-2.67 c 0.12,-0.27 0.12,-0.29 0.12,-0.35 0,-0.3 -0.42,-0.31 -0.51,-0.31 -0.11,0 -0.22,0 -0.22,-0.2 0,-0.11 0.12,-0.11 0.14,-0.11 0.39,0 0.81,0.04 1.21,0.04 0.22,0 0.76,-0.04 0.98,-0.04 0.04,0 0.17,0 0.17,0.2 0,0.11 -0.11,0.11 -0.19,0.11 -0.41,0.01 -0.54,0.1 -0.69,0.45 z"
         id="path11914"
         inkscape:connector-curvature="0"
         style="fill:#000000" /><path
         d="m 235.62,709.83 0.01,0.01 0,0.01 0.01,0 0,0.01 0.01,0.01 0,0 0.01,0.01 0,0 0,0.01 0.01,0.01 0,0 0,0.01 0,0 0.01,0.01 0,0.01 0,0 0,0.01 0,0.01 0,0.01 0.01,0 0,0.01 0,0.01 0,0.01 0,0.01 0,0.01 0,0.01 0,0.02 0,0.01 0,0.01 0,0.01 0,0.01 0,0 0,0.01 0,0.01 0,0.01 h -1.83 c -0.27,0 -0.35,0.01 -0.6,0.03 -0.36,0.02 -0.38,0.07 -0.4,0.19 h -0.24 l -0.24,-1.49 h 0.24 c 0.01,0.11 0.08,0.57 0.19,0.64 0.06,0.04 0.62,0.04 0.73,0.04 h 1.51 c -0.22,-0.29 -0.57,-0.73 -0.72,-0.92 -0.91,-1.2 -0.99,-2.3 -0.99,-2.71 0,-0.08 0,-0.4 0.32,-0.4 0.34,0 0.34,0.31 0.34,0.41 v 0.27 c 0,1.35 0.27,1.97 0.57,2.35 z"
         id="path11916"
         inkscape:connector-curvature="0"
         style="fill:#000000" /></g>    <g
       style="font-style:normal;font-variant:normal;font-weight:normal;font-stretch:normal;letter-spacing:normal;word-spacing:normal;text-anchor:start;fill:#17a000;fill-opacity:1;fill-rule:evenodd;stroke:none"
       ns0:preamble=""
       ns0:text="$K_1$"
       word-spacing="normal"
       letter-spacing="normal"
       font-size-adjust="none"
       font-stretch="normal"
       font-weight="normal"
       font-variant="normal"
       font-style="normal"
       stroke-miterlimit="10.433"
       xml:space="preserve"
       transform="matrix(2.48832,0,0,-2.48832,-623.80085,2268.7803)"
       id="content"><path
         id="path12134"
         d="m 228.5,711.14 -0.01,0 0,0 0,0.01 0,0 0,0.01 0,0 0,0 -0.01,0.01 0,0 0,0.01 0,0 0,0.01 -0.01,0.01 0,0.01 -0.01,0.01 0,0.01 0,0 0,0.01 -0.01,0 0,0.01 0,0 0,0.01 0,0 0,0 0,0.01 0,0 0,0 0,0.01 c 0,0.01 0.18,0.15 0.29,0.23 l 1.74,1.34 c 0.93,0.68 1.32,0.72 1.62,0.75 0.08,0.01 0.18,0.02 0.18,0.2 0,0.04 -0.03,0.11 -0.11,0.11 -0.22,0 -0.47,-0.03 -0.71,-0.03 -0.36,0 -0.75,0.03 -1.1,0.03 -0.07,0 -0.19,0 -0.19,-0.2 0,-0.07 0.05,-0.1 0.12,-0.11 0.22,-0.02 0.31,-0.07 0.31,-0.21 0,-0.18 -0.3,-0.4 -0.36,-0.45 l -3.88,-2.98 0.79,3.19 c 0.09,0.35 0.11,0.45 0.84,0.45 0.25,0 0.34,0 0.34,0.2 0,0.09 -0.08,0.11 -0.14,0.11 -0.28,0 -1,-0.03 -1.28,-0.03 -0.28,0 -0.99,0.03 -1.28,0.03 -0.07,0 -0.2,0 -0.2,-0.19 0,-0.12 0.09,-0.12 0.29,-0.12 0.13,0 0.31,-0.01 0.43,-0.02 0.16,-0.02 0.22,-0.05 0.22,-0.16 0,-0.04 -0.01,-0.07 -0.04,-0.19 l -1.34,-5.33 c -0.09,-0.39 -0.11,-0.47 -0.9,-0.47 -0.17,0 -0.28,0 -0.28,-0.19 0,-0.12 0.12,-0.12 0.15,-0.12 0.28,0 0.98,0.04 1.26,0.04 0.21,0 0.43,-0.01 0.64,-0.01 0.22,0 0.44,-0.03 0.65,-0.03 0.07,0 0.2,0 0.2,0.2 0,0.11 -0.09,0.11 -0.28,0.11 -0.37,0 -0.65,0 -0.65,0.18 0,0.07 0.06,0.29 0.09,0.44 0.14,0.52 0.27,1.04 0.4,1.56 l 1.48,1.15 1.15,-2.67 c 0.12,-0.27 0.12,-0.29 0.12,-0.35 0,-0.3 -0.42,-0.31 -0.51,-0.31 -0.11,0 -0.22,0 -0.22,-0.2 0,-0.11 0.12,-0.11 0.14,-0.11 0.39,0 0.81,0.04 1.21,0.04 0.22,0 0.76,-0.04 0.98,-0.04 0.04,0 0.17,0 0.17,0.2 0,0.11 -0.11,0.11 -0.19,0.11 -0.41,0.01 -0.54,0.1 -0.69,0.45 z"
         inkscape:connector-curvature="0"
         style="fill:#000000" /><path
         id="path12136"
         d="m 234.23,710.05 0,0.01 0,0.01 0,0.01 0,0.01 0,0 0,0.01 0,0.01 0,0.01 -0.01,0 0,0.01 0,0.01 0,0 0,0.01 0,0 0,0.01 0,0 0,0.01 0,0 0,0.01 -0.01,0.01 0,0.01 0,0 -0.01,0.01 0,0.01 -0.01,0 0,0.01 -0.01,0 0,0 -0.01,0.01 -0.01,0 -0.01,0 -0.01,0 0,0 -0.01,0 0,0 -0.01,0.01 -0.01,0 0,0 -0.01,0 0,0 -0.01,0 -0.01,0 -0.01,0 0,0 -0.01,0 -0.01,0 -0.01,0 -0.01,0 0,0 -0.01,0 c -0.45,-0.44 -1.08,-0.45 -1.37,-0.45 v -0.25 c 0.17,0 0.63,0 1.01,0.2 v -3.55 c 0,-0.23 0,-0.32 -0.7,-0.32 h -0.26 v -0.25 c 0.13,0.01 0.98,0.03 1.24,0.03 0.22,0 1.09,-0.02 1.25,-0.03 v 0.25 h -0.27 c -0.69,0 -0.69,0.09 -0.69,0.32 z"
         inkscape:connector-curvature="0"
         style="fill:#000000" /></g>    <g
       id="g12353"
       transform="matrix(2.48832,0,0,-2.48832,-667.5128,2220.0988)"
       xml:space="preserve"
       stroke-miterlimit="10.433"
       font-style="normal"
       font-variant="normal"
       font-weight="normal"
       font-stretch="normal"
       font-size-adjust="none"
       letter-spacing="normal"
       word-spacing="normal"
       ns0:text="$K_2$"
       ns0:preamble=""
       style="font-style:normal;font-variant:normal;font-weight:normal;font-stretch:normal;letter-spacing:normal;word-spacing:normal;text-anchor:start;fill:#17a000;fill-opacity:1;fill-rule:evenodd;stroke:none"><path
         d="m 228.5,711.14 -0.01,0 0,0 0,0.01 0,0 0,0.01 0,0 0,0 -0.01,0.01 0,0 0,0.01 0,0 0,0.01 -0.01,0.01 0,0.01 -0.01,0.01 0,0.01 0,0 0,0.01 -0.01,0 0,0.01 0,0 0,0.01 0,0 0,0 0,0.01 0,0 0,0 0,0.01 c 0,0.01 0.18,0.15 0.29,0.23 l 1.74,1.34 c 0.93,0.68 1.32,0.72 1.62,0.75 0.08,0.01 0.18,0.02 0.18,0.2 0,0.04 -0.03,0.11 -0.11,0.11 -0.22,0 -0.47,-0.03 -0.71,-0.03 -0.36,0 -0.75,0.03 -1.1,0.03 -0.07,0 -0.19,0 -0.19,-0.2 0,-0.07 0.05,-0.1 0.12,-0.11 0.22,-0.02 0.31,-0.07 0.31,-0.21 0,-0.18 -0.3,-0.4 -0.36,-0.45 l -3.88,-2.98 0.79,3.19 c 0.09,0.35 0.11,0.45 0.84,0.45 0.25,0 0.34,0 0.34,0.2 0,0.09 -0.08,0.11 -0.14,0.11 -0.28,0 -1,-0.03 -1.28,-0.03 -0.28,0 -0.99,0.03 -1.28,0.03 -0.07,0 -0.2,0 -0.2,-0.19 0,-0.12 0.09,-0.12 0.29,-0.12 0.13,0 0.31,-0.01 0.43,-0.02 0.16,-0.02 0.22,-0.05 0.22,-0.16 0,-0.04 -0.01,-0.07 -0.04,-0.19 l -1.34,-5.33 c -0.09,-0.39 -0.11,-0.47 -0.9,-0.47 -0.17,0 -0.28,0 -0.28,-0.19 0,-0.12 0.12,-0.12 0.15,-0.12 0.28,0 0.98,0.04 1.26,0.04 0.21,0 0.43,-0.01 0.64,-0.01 0.22,0 0.44,-0.03 0.65,-0.03 0.07,0 0.2,0 0.2,0.2 0,0.11 -0.09,0.11 -0.28,0.11 -0.37,0 -0.65,0 -0.65,0.18 0,0.07 0.06,0.29 0.09,0.44 0.14,0.52 0.27,1.04 0.4,1.56 l 1.48,1.15 1.15,-2.67 c 0.12,-0.27 0.12,-0.29 0.12,-0.35 0,-0.3 -0.42,-0.31 -0.51,-0.31 -0.11,0 -0.22,0 -0.22,-0.2 0,-0.11 0.12,-0.11 0.14,-0.11 0.39,0 0.81,0.04 1.21,0.04 0.22,0 0.76,-0.04 0.98,-0.04 0.04,0 0.17,0 0.17,0.2 0,0.11 -0.11,0.11 -0.19,0.11 -0.41,0.01 -0.54,0.1 -0.69,0.45 z"
         id="path12355"
         inkscape:connector-curvature="0"
         style="fill:#000000" /><path
         d="m 235.41,706.9 h -0.24 c -0.02,-0.16 -0.09,-0.57 -0.18,-0.64 -0.05,-0.04 -0.59,-0.04 -0.69,-0.04 h -1.28 c 0.73,0.65 0.98,0.84 1.39,1.17 0.52,0.41 1,0.84 1,1.5 0,0.84 -0.74,1.36 -1.63,1.36 -0.86,0 -1.45,-0.61 -1.45,-1.25 0,-0.35 0.3,-0.39 0.37,-0.39 0.17,0 0.37,0.12 0.37,0.37 0,0.13 -0.05,0.37 -0.41,0.37 0.22,0.49 0.69,0.65 1.02,0.65 0.69,0 1.05,-0.54 1.05,-1.11 0,-0.6 -0.43,-1.08 -0.65,-1.33 l -1.68,-1.66 c -0.07,-0.06 -0.07,-0.07 -0.07,-0.27 h 2.87 z"
         id="path12357"
         inkscape:connector-curvature="0"
         style="fill:#000000" /></g>    <g
       style="font-style:normal;font-variant:normal;font-weight:normal;font-stretch:normal;letter-spacing:normal;word-spacing:normal;text-anchor:start;fill:#17a000;fill-opacity:1;fill-rule:evenodd;stroke:none"
       ns0:preamble=""
       ns0:text="$K_3$"
       word-spacing="normal"
       letter-spacing="normal"
       font-size-adjust="none"
       font-stretch="normal"
       font-weight="normal"
       font-variant="normal"
       font-style="normal"
       stroke-miterlimit="10.433"
       xml:space="preserve"
       transform="matrix(2.48832,0,0,-2.48832,-631.65238,2146.8425)"
       id="g12574"><path
         id="path12576"
         d="m 228.5,711.14 -0.01,0 0,0 0,0.01 0,0 0,0.01 0,0 0,0 -0.01,0.01 0,0 0,0.01 0,0 0,0.01 -0.01,0.01 0,0.01 -0.01,0.01 0,0.01 0,0 0,0.01 -0.01,0 0,0.01 0,0 0,0.01 0,0 0,0 0,0.01 0,0 0,0 0,0.01 c 0,0.01 0.18,0.15 0.29,0.23 l 1.74,1.34 c 0.93,0.68 1.32,0.72 1.62,0.75 0.08,0.01 0.18,0.02 0.18,0.2 0,0.04 -0.03,0.11 -0.11,0.11 -0.22,0 -0.47,-0.03 -0.71,-0.03 -0.36,0 -0.75,0.03 -1.1,0.03 -0.07,0 -0.19,0 -0.19,-0.2 0,-0.07 0.05,-0.1 0.12,-0.11 0.22,-0.02 0.31,-0.07 0.31,-0.21 0,-0.18 -0.3,-0.4 -0.36,-0.45 l -3.88,-2.98 0.79,3.19 c 0.09,0.35 0.11,0.45 0.84,0.45 0.25,0 0.34,0 0.34,0.2 0,0.09 -0.08,0.11 -0.14,0.11 -0.28,0 -1,-0.03 -1.28,-0.03 -0.28,0 -0.99,0.03 -1.28,0.03 -0.07,0 -0.2,0 -0.2,-0.19 0,-0.12 0.09,-0.12 0.29,-0.12 0.13,0 0.31,-0.01 0.43,-0.02 0.16,-0.02 0.22,-0.05 0.22,-0.16 0,-0.04 -0.01,-0.07 -0.04,-0.19 l -1.34,-5.33 c -0.09,-0.39 -0.11,-0.47 -0.9,-0.47 -0.17,0 -0.28,0 -0.28,-0.19 0,-0.12 0.12,-0.12 0.15,-0.12 0.28,0 0.98,0.04 1.26,0.04 0.21,0 0.43,-0.01 0.64,-0.01 0.22,0 0.44,-0.03 0.65,-0.03 0.07,0 0.2,0 0.2,0.2 0,0.11 -0.09,0.11 -0.28,0.11 -0.37,0 -0.65,0 -0.65,0.18 0,0.07 0.06,0.29 0.09,0.44 0.14,0.52 0.27,1.04 0.4,1.56 l 1.48,1.15 1.15,-2.67 c 0.12,-0.27 0.12,-0.29 0.12,-0.35 0,-0.3 -0.42,-0.31 -0.51,-0.31 -0.11,0 -0.22,0 -0.22,-0.2 0,-0.11 0.12,-0.11 0.14,-0.11 0.39,0 0.81,0.04 1.21,0.04 0.22,0 0.76,-0.04 0.98,-0.04 0.04,0 0.17,0 0.17,0.2 0,0.11 -0.11,0.11 -0.19,0.11 -0.41,0.01 -0.54,0.1 -0.69,0.45 z"
         inkscape:connector-curvature="0"
         style="fill:#000000" /><path
         id="path12578"
         d="m 233.79,707.95 0.05,0 0.05,0 0.05,-0.01 0.05,0 0.05,-0.01 0.04,-0.02 0.05,-0.01 0.04,-0.02 0.04,-0.02 0.04,-0.02 0.04,-0.02 0.04,-0.02 0.03,-0.03 0.04,-0.03 0.03,-0.03 0.03,-0.04 0.04,-0.03 0.02,-0.04 0.03,-0.04 0.03,-0.04 0.02,-0.05 0.02,-0.05 0.02,-0.05 0.02,-0.05 0.01,-0.05 0.02,-0.06 0.01,-0.05 0.01,-0.06 0.01,-0.07 0,-0.06 0.01,-0.07 0,-0.07 c 0,-0.86 -0.5,-1.12 -0.91,-1.12 -0.28,0 -0.89,0.08 -1.18,0.49 0.32,0.02 0.4,0.25 0.4,0.39 0,0.22 -0.16,0.38 -0.38,0.38 -0.2,0 -0.39,-0.12 -0.39,-0.4 0,-0.65 0.72,-1.08 1.57,-1.08 0.96,0 1.63,0.65 1.63,1.34 0,0.55 -0.44,1.09 -1.21,1.25 0.73,0.26 1,0.78 1,1.21 0,0.55 -0.64,0.96 -1.41,0.96 -0.77,0 -1.36,-0.38 -1.36,-0.93 0,-0.24 0.15,-0.37 0.36,-0.37 0.21,0 0.35,0.16 0.35,0.35 0,0.2 -0.14,0.35 -0.35,0.36 0.24,0.31 0.72,0.39 0.98,0.39 0.31,0 0.75,-0.16 0.75,-0.76 0,-0.29 -0.1,-0.61 -0.28,-0.83 -0.23,-0.26 -0.42,-0.28 -0.77,-0.3 -0.17,-0.01 -0.19,-0.01 -0.22,-0.02 -0.02,0 -0.07,-0.01 -0.07,-0.09 0,-0.1 0.06,-0.1 0.18,-0.1 z"
         inkscape:connector-curvature="0"
         style="fill:#000000" /></g>    <g
       id="g12718"
       transform="matrix(2.48832,0,0,-2.48832,-81.449947,2301.3072)"
       xml:space="preserve"
       stroke-miterlimit="10.433"
       font-style="normal"
       font-variant="normal"
       font-weight="normal"
       font-stretch="normal"
       font-size-adjust="none"
       letter-spacing="normal"
       word-spacing="normal"
       ns0:text="$K_1$"
       ns0:preamble=""
       style="font-style:normal;font-variant:normal;font-weight:normal;font-stretch:normal;letter-spacing:normal;word-spacing:normal;text-anchor:start;fill:#17a000;fill-opacity:1;fill-rule:evenodd;stroke:none"><path
         style="fill:#000000"
         inkscape:connector-curvature="0"
         d="m 228.5,711.14 -0.01,0 0,0 0,0.01 0,0 0,0.01 0,0 0,0 -0.01,0.01 0,0 0,0.01 0,0 0,0.01 -0.01,0.01 0,0.01 -0.01,0.01 0,0.01 0,0 0,0.01 -0.01,0 0,0.01 0,0 0,0.01 0,0 0,0 0,0.01 0,0 0,0 0,0.01 c 0,0.01 0.18,0.15 0.29,0.23 l 1.74,1.34 c 0.93,0.68 1.32,0.72 1.62,0.75 0.08,0.01 0.18,0.02 0.18,0.2 0,0.04 -0.03,0.11 -0.11,0.11 -0.22,0 -0.47,-0.03 -0.71,-0.03 -0.36,0 -0.75,0.03 -1.1,0.03 -0.07,0 -0.19,0 -0.19,-0.2 0,-0.07 0.05,-0.1 0.12,-0.11 0.22,-0.02 0.31,-0.07 0.31,-0.21 0,-0.18 -0.3,-0.4 -0.36,-0.45 l -3.88,-2.98 0.79,3.19 c 0.09,0.35 0.11,0.45 0.84,0.45 0.25,0 0.34,0 0.34,0.2 0,0.09 -0.08,0.11 -0.14,0.11 -0.28,0 -1,-0.03 -1.28,-0.03 -0.28,0 -0.99,0.03 -1.28,0.03 -0.07,0 -0.2,0 -0.2,-0.19 0,-0.12 0.09,-0.12 0.29,-0.12 0.13,0 0.31,-0.01 0.43,-0.02 0.16,-0.02 0.22,-0.05 0.22,-0.16 0,-0.04 -0.01,-0.07 -0.04,-0.19 l -1.34,-5.33 c -0.09,-0.39 -0.11,-0.47 -0.9,-0.47 -0.17,0 -0.28,0 -0.28,-0.19 0,-0.12 0.12,-0.12 0.15,-0.12 0.28,0 0.98,0.04 1.26,0.04 0.21,0 0.43,-0.01 0.64,-0.01 0.22,0 0.44,-0.03 0.65,-0.03 0.07,0 0.2,0 0.2,0.2 0,0.11 -0.09,0.11 -0.28,0.11 -0.37,0 -0.65,0 -0.65,0.18 0,0.07 0.06,0.29 0.09,0.44 0.14,0.52 0.27,1.04 0.4,1.56 l 1.48,1.15 1.15,-2.67 c 0.12,-0.27 0.12,-0.29 0.12,-0.35 0,-0.3 -0.42,-0.31 -0.51,-0.31 -0.11,0 -0.22,0 -0.22,-0.2 0,-0.11 0.12,-0.11 0.14,-0.11 0.39,0 0.81,0.04 1.21,0.04 0.22,0 0.76,-0.04 0.98,-0.04 0.04,0 0.17,0 0.17,0.2 0,0.11 -0.11,0.11 -0.19,0.11 -0.41,0.01 -0.54,0.1 -0.69,0.45 z"
         id="path12720" /><path
         style="fill:#000000"
         inkscape:connector-curvature="0"
         d="m 234.23,710.05 0,0.01 0,0.01 0,0.01 0,0.01 0,0 0,0.01 0,0.01 0,0.01 -0.01,0 0,0.01 0,0.01 0,0 0,0.01 0,0 0,0.01 0,0 0,0.01 0,0 0,0.01 -0.01,0.01 0,0.01 0,0 -0.01,0.01 0,0.01 -0.01,0 0,0.01 -0.01,0 0,0 -0.01,0.01 -0.01,0 -0.01,0 -0.01,0 0,0 -0.01,0 0,0 -0.01,0.01 -0.01,0 0,0 -0.01,0 0,0 -0.01,0 -0.01,0 -0.01,0 0,0 -0.01,0 -0.01,0 -0.01,0 -0.01,0 0,0 -0.01,0 c -0.45,-0.44 -1.08,-0.45 -1.37,-0.45 v -0.25 c 0.17,0 0.63,0 1.01,0.2 v -3.55 c 0,-0.23 0,-0.32 -0.7,-0.32 h -0.26 v -0.25 c 0.13,0.01 0.98,0.03 1.24,0.03 0.22,0 1.09,-0.02 1.25,-0.03 v 0.25 h -0.27 c -0.69,0 -0.69,0.09 -0.69,0.32 z"
         id="path12722" /></g>    <g
       style="font-style:normal;font-variant:normal;font-weight:normal;font-stretch:normal;letter-spacing:normal;word-spacing:normal;text-anchor:start;fill:#17a000;fill-opacity:1;fill-rule:evenodd;stroke:none"
       ns0:preamble=""
       ns0:text="$K_2$"
       word-spacing="normal"
       letter-spacing="normal"
       font-size-adjust="none"
       font-stretch="normal"
       font-weight="normal"
       font-variant="normal"
       font-style="normal"
       stroke-miterlimit="10.433"
       xml:space="preserve"
       transform="matrix(2.48832,0,0,-2.48832,-74.957317,2237.7765)"
       id="g12724"><path
         style="fill:#000000"
         inkscape:connector-curvature="0"
         id="path12726"
         d="m 228.5,711.14 -0.01,0 0,0 0,0.01 0,0 0,0.01 0,0 0,0 -0.01,0.01 0,0 0,0.01 0,0 0,0.01 -0.01,0.01 0,0.01 -0.01,0.01 0,0.01 0,0 0,0.01 -0.01,0 0,0.01 0,0 0,0.01 0,0 0,0 0,0.01 0,0 0,0 0,0.01 c 0,0.01 0.18,0.15 0.29,0.23 l 1.74,1.34 c 0.93,0.68 1.32,0.72 1.62,0.75 0.08,0.01 0.18,0.02 0.18,0.2 0,0.04 -0.03,0.11 -0.11,0.11 -0.22,0 -0.47,-0.03 -0.71,-0.03 -0.36,0 -0.75,0.03 -1.1,0.03 -0.07,0 -0.19,0 -0.19,-0.2 0,-0.07 0.05,-0.1 0.12,-0.11 0.22,-0.02 0.31,-0.07 0.31,-0.21 0,-0.18 -0.3,-0.4 -0.36,-0.45 l -3.88,-2.98 0.79,3.19 c 0.09,0.35 0.11,0.45 0.84,0.45 0.25,0 0.34,0 0.34,0.2 0,0.09 -0.08,0.11 -0.14,0.11 -0.28,0 -1,-0.03 -1.28,-0.03 -0.28,0 -0.99,0.03 -1.28,0.03 -0.07,0 -0.2,0 -0.2,-0.19 0,-0.12 0.09,-0.12 0.29,-0.12 0.13,0 0.31,-0.01 0.43,-0.02 0.16,-0.02 0.22,-0.05 0.22,-0.16 0,-0.04 -0.01,-0.07 -0.04,-0.19 l -1.34,-5.33 c -0.09,-0.39 -0.11,-0.47 -0.9,-0.47 -0.17,0 -0.28,0 -0.28,-0.19 0,-0.12 0.12,-0.12 0.15,-0.12 0.28,0 0.98,0.04 1.26,0.04 0.21,0 0.43,-0.01 0.64,-0.01 0.22,0 0.44,-0.03 0.65,-0.03 0.07,0 0.2,0 0.2,0.2 0,0.11 -0.09,0.11 -0.28,0.11 -0.37,0 -0.65,0 -0.65,0.18 0,0.07 0.06,0.29 0.09,0.44 0.14,0.52 0.27,1.04 0.4,1.56 l 1.48,1.15 1.15,-2.67 c 0.12,-0.27 0.12,-0.29 0.12,-0.35 0,-0.3 -0.42,-0.31 -0.51,-0.31 -0.11,0 -0.22,0 -0.22,-0.2 0,-0.11 0.12,-0.11 0.14,-0.11 0.39,0 0.81,0.04 1.21,0.04 0.22,0 0.76,-0.04 0.98,-0.04 0.04,0 0.17,0 0.17,0.2 0,0.11 -0.11,0.11 -0.19,0.11 -0.41,0.01 -0.54,0.1 -0.69,0.45 z" /><path
         style="fill:#000000"
         inkscape:connector-curvature="0"
         id="path12728"
         d="m 235.41,706.9 h -0.24 c -0.02,-0.16 -0.09,-0.57 -0.18,-0.64 -0.05,-0.04 -0.59,-0.04 -0.69,-0.04 h -1.28 c 0.73,0.65 0.98,0.84 1.39,1.17 0.52,0.41 1,0.84 1,1.5 0,0.84 -0.74,1.36 -1.63,1.36 -0.86,0 -1.45,-0.61 -1.45,-1.25 0,-0.35 0.3,-0.39 0.37,-0.39 0.17,0 0.37,0.12 0.37,0.37 0,0.13 -0.05,0.37 -0.41,0.37 0.22,0.49 0.69,0.65 1.02,0.65 0.69,0 1.05,-0.54 1.05,-1.11 0,-0.6 -0.43,-1.08 -0.65,-1.33 l -1.68,-1.66 c -0.07,-0.06 -0.07,-0.07 -0.07,-0.27 h 2.87 z" /></g>    <g
       id="g12730"
       transform="matrix(2.48832,0,0,-2.48832,-60.310101,2146.8425)"
       xml:space="preserve"
       stroke-miterlimit="10.433"
       font-style="normal"
       font-variant="normal"
       font-weight="normal"
       font-stretch="normal"
       font-size-adjust="none"
       letter-spacing="normal"
       word-spacing="normal"
       ns0:text="$K_3$"
       ns0:preamble=""
       style="font-style:normal;font-variant:normal;font-weight:normal;font-stretch:normal;letter-spacing:normal;word-spacing:normal;text-anchor:start;fill:#17a000;fill-opacity:1;fill-rule:evenodd;stroke:none"><path
         style="fill:#000000"
         inkscape:connector-curvature="0"
         d="m 228.5,711.14 -0.01,0 0,0 0,0.01 0,0 0,0.01 0,0 0,0 -0.01,0.01 0,0 0,0.01 0,0 0,0.01 -0.01,0.01 0,0.01 -0.01,0.01 0,0.01 0,0 0,0.01 -0.01,0 0,0.01 0,0 0,0.01 0,0 0,0 0,0.01 0,0 0,0 0,0.01 c 0,0.01 0.18,0.15 0.29,0.23 l 1.74,1.34 c 0.93,0.68 1.32,0.72 1.62,0.75 0.08,0.01 0.18,0.02 0.18,0.2 0,0.04 -0.03,0.11 -0.11,0.11 -0.22,0 -0.47,-0.03 -0.71,-0.03 -0.36,0 -0.75,0.03 -1.1,0.03 -0.07,0 -0.19,0 -0.19,-0.2 0,-0.07 0.05,-0.1 0.12,-0.11 0.22,-0.02 0.31,-0.07 0.31,-0.21 0,-0.18 -0.3,-0.4 -0.36,-0.45 l -3.88,-2.98 0.79,3.19 c 0.09,0.35 0.11,0.45 0.84,0.45 0.25,0 0.34,0 0.34,0.2 0,0.09 -0.08,0.11 -0.14,0.11 -0.28,0 -1,-0.03 -1.28,-0.03 -0.28,0 -0.99,0.03 -1.28,0.03 -0.07,0 -0.2,0 -0.2,-0.19 0,-0.12 0.09,-0.12 0.29,-0.12 0.13,0 0.31,-0.01 0.43,-0.02 0.16,-0.02 0.22,-0.05 0.22,-0.16 0,-0.04 -0.01,-0.07 -0.04,-0.19 l -1.34,-5.33 c -0.09,-0.39 -0.11,-0.47 -0.9,-0.47 -0.17,0 -0.28,0 -0.28,-0.19 0,-0.12 0.12,-0.12 0.15,-0.12 0.28,0 0.98,0.04 1.26,0.04 0.21,0 0.43,-0.01 0.64,-0.01 0.22,0 0.44,-0.03 0.65,-0.03 0.07,0 0.2,0 0.2,0.2 0,0.11 -0.09,0.11 -0.28,0.11 -0.37,0 -0.65,0 -0.65,0.18 0,0.07 0.06,0.29 0.09,0.44 0.14,0.52 0.27,1.04 0.4,1.56 l 1.48,1.15 1.15,-2.67 c 0.12,-0.27 0.12,-0.29 0.12,-0.35 0,-0.3 -0.42,-0.31 -0.51,-0.31 -0.11,0 -0.22,0 -0.22,-0.2 0,-0.11 0.12,-0.11 0.14,-0.11 0.39,0 0.81,0.04 1.21,0.04 0.22,0 0.76,-0.04 0.98,-0.04 0.04,0 0.17,0 0.17,0.2 0,0.11 -0.11,0.11 -0.19,0.11 -0.41,0.01 -0.54,0.1 -0.69,0.45 z"
         id="path12732" /><path
         style="fill:#000000"
         inkscape:connector-curvature="0"
         d="m 233.79,707.95 0.05,0 0.05,0 0.05,-0.01 0.05,0 0.05,-0.01 0.04,-0.02 0.05,-0.01 0.04,-0.02 0.04,-0.02 0.04,-0.02 0.04,-0.02 0.04,-0.02 0.03,-0.03 0.04,-0.03 0.03,-0.03 0.03,-0.04 0.04,-0.03 0.02,-0.04 0.03,-0.04 0.03,-0.04 0.02,-0.05 0.02,-0.05 0.02,-0.05 0.02,-0.05 0.01,-0.05 0.02,-0.06 0.01,-0.05 0.01,-0.06 0.01,-0.07 0,-0.06 0.01,-0.07 0,-0.07 c 0,-0.86 -0.5,-1.12 -0.91,-1.12 -0.28,0 -0.89,0.08 -1.18,0.49 0.32,0.02 0.4,0.25 0.4,0.39 0,0.22 -0.16,0.38 -0.38,0.38 -0.2,0 -0.39,-0.12 -0.39,-0.4 0,-0.65 0.72,-1.08 1.57,-1.08 0.96,0 1.63,0.65 1.63,1.34 0,0.55 -0.44,1.09 -1.21,1.25 0.73,0.26 1,0.78 1,1.21 0,0.55 -0.64,0.96 -1.41,0.96 -0.77,0 -1.36,-0.38 -1.36,-0.93 0,-0.24 0.15,-0.37 0.36,-0.37 0.21,0 0.35,0.16 0.35,0.35 0,0.2 -0.14,0.35 -0.35,0.36 0.24,0.31 0.72,0.39 0.98,0.39 0.31,0 0.75,-0.16 0.75,-0.76 0,-0.29 -0.1,-0.61 -0.28,-0.83 -0.23,-0.26 -0.42,-0.28 -0.77,-0.3 -0.17,-0.01 -0.19,-0.01 -0.22,-0.02 -0.02,0 -0.07,-0.01 -0.07,-0.09 0,-0.1 0.06,-0.1 0.18,-0.1 z"
         id="path12734" /></g>    <g
       id="g12736"
       transform="matrix(2.48832,0,0,-2.48832,46.290685,2088.2038)"
       xml:space="preserve"
       stroke-miterlimit="10.433"
       font-style="normal"
       font-variant="normal"
       font-weight="normal"
       font-stretch="normal"
       font-size-adjust="none"
       letter-spacing="normal"
       word-spacing="normal"
       ns0:text="$K_4$"
       ns0:preamble=""
       style="font-style:normal;font-variant:normal;font-weight:normal;font-stretch:normal;letter-spacing:normal;word-spacing:normal;text-anchor:start;fill:#17a000;fill-opacity:1;fill-rule:evenodd;stroke:none"><path
         style="fill:#000000"
         inkscape:connector-curvature="0"
         d="m 228.5,711.14 -0.01,0 0,0 0,0.01 0,0 0,0.01 0,0 0,0 -0.01,0.01 0,0 0,0.01 0,0 0,0.01 -0.01,0.01 0,0.01 -0.01,0.01 0,0.01 0,0 0,0.01 -0.01,0 0,0.01 0,0 0,0.01 0,0 0,0 0,0.01 0,0 0,0 0,0.01 c 0,0.01 0.18,0.15 0.29,0.23 l 1.74,1.34 c 0.93,0.68 1.32,0.72 1.62,0.75 0.08,0.01 0.18,0.02 0.18,0.2 0,0.04 -0.03,0.11 -0.11,0.11 -0.22,0 -0.47,-0.03 -0.71,-0.03 -0.36,0 -0.75,0.03 -1.1,0.03 -0.07,0 -0.19,0 -0.19,-0.2 0,-0.07 0.05,-0.1 0.12,-0.11 0.22,-0.02 0.31,-0.07 0.31,-0.21 0,-0.18 -0.3,-0.4 -0.36,-0.45 l -3.88,-2.98 0.79,3.19 c 0.09,0.35 0.11,0.45 0.84,0.45 0.25,0 0.34,0 0.34,0.2 0,0.09 -0.08,0.11 -0.14,0.11 -0.28,0 -1,-0.03 -1.28,-0.03 -0.28,0 -0.99,0.03 -1.28,0.03 -0.07,0 -0.2,0 -0.2,-0.19 0,-0.12 0.09,-0.12 0.29,-0.12 0.13,0 0.31,-0.01 0.43,-0.02 0.16,-0.02 0.22,-0.05 0.22,-0.16 0,-0.04 -0.01,-0.07 -0.04,-0.19 l -1.34,-5.33 c -0.09,-0.39 -0.11,-0.47 -0.9,-0.47 -0.17,0 -0.28,0 -0.28,-0.19 0,-0.12 0.12,-0.12 0.15,-0.12 0.28,0 0.98,0.04 1.26,0.04 0.21,0 0.43,-0.01 0.64,-0.01 0.22,0 0.44,-0.03 0.65,-0.03 0.07,0 0.2,0 0.2,0.2 0,0.11 -0.09,0.11 -0.28,0.11 -0.37,0 -0.65,0 -0.65,0.18 0,0.07 0.06,0.29 0.09,0.44 0.14,0.52 0.27,1.04 0.4,1.56 l 1.48,1.15 1.15,-2.67 c 0.12,-0.27 0.12,-0.29 0.12,-0.35 0,-0.3 -0.42,-0.31 -0.51,-0.31 -0.11,0 -0.22,0 -0.22,-0.2 0,-0.11 0.12,-0.11 0.14,-0.11 0.39,0 0.81,0.04 1.21,0.04 0.22,0 0.76,-0.04 0.98,-0.04 0.04,0 0.17,0 0.17,0.2 0,0.11 -0.11,0.11 -0.19,0.11 -0.41,0.01 -0.54,0.1 -0.69,0.45 z"
         id="path12738" /><path
         style="fill:#000000"
         inkscape:connector-curvature="0"
         d="m 235.58,706.77 v 0.25 h -0.78 v 3.1 c 0,0.15 0,0.2 -0.15,0.2 -0.08,0 -0.11,0 -0.18,-0.1 l -2.31,-3.2 v -0.25 h 2.05 l 0.05,0.25 h -1.84 l 1.84,2.55 v -2.55 l -0.05,-0.25 v -0.57 c 0,-0.23 0,-0.32 -0.56,-0.32 h -0.19 v -0.25 c 0.35,0.02 0.79,0.03 1.05,0.03 0.25,0 0.7,-0.01 1.05,-0.03 v 0.25 h -0.19 c -0.57,0 -0.57,0.09 -0.57,0.32 v 0.57 z"
         id="path12740" /></g>    <g
       style="font-style:normal;font-variant:normal;font-weight:normal;font-stretch:normal;letter-spacing:normal;word-spacing:normal;text-anchor:start;fill:#17a000;fill-opacity:1;fill-rule:evenodd;stroke:none"
       ns0:preamble=""
       ns0:text="$K_5$"
       word-spacing="normal"
       letter-spacing="normal"
       font-size-adjust="none"
       font-stretch="normal"
       font-weight="normal"
       font-variant="normal"
       font-style="normal"
       stroke-miterlimit="10.433"
       xml:space="preserve"
       transform="matrix(2.48832,0,0,-2.48832,45.806421,2186.5113)"
       id="g12742"><path
         id="path12744"
         d="m 228.5,711.14 -0.01,0 0,0 0,0.01 0,0 0,0.01 0,0 0,0 -0.01,0.01 0,0 0,0.01 0,0 0,0.01 -0.01,0.01 0,0.01 -0.01,0.01 0,0.01 0,0 0,0.01 -0.01,0 0,0.01 0,0 0,0.01 0,0 0,0 0,0.01 0,0 0,0 0,0.01 c 0,0.01 0.18,0.15 0.29,0.23 l 1.74,1.34 c 0.93,0.68 1.32,0.72 1.62,0.75 0.08,0.01 0.18,0.02 0.18,0.2 0,0.04 -0.03,0.11 -0.11,0.11 -0.22,0 -0.47,-0.03 -0.71,-0.03 -0.36,0 -0.75,0.03 -1.1,0.03 -0.07,0 -0.19,0 -0.19,-0.2 0,-0.07 0.05,-0.1 0.12,-0.11 0.22,-0.02 0.31,-0.07 0.31,-0.21 0,-0.18 -0.3,-0.4 -0.36,-0.45 l -3.88,-2.98 0.79,3.19 c 0.09,0.35 0.11,0.45 0.84,0.45 0.25,0 0.34,0 0.34,0.2 0,0.09 -0.08,0.11 -0.14,0.11 -0.28,0 -1,-0.03 -1.28,-0.03 -0.28,0 -0.99,0.03 -1.28,0.03 -0.07,0 -0.2,0 -0.2,-0.19 0,-0.12 0.09,-0.12 0.29,-0.12 0.13,0 0.31,-0.01 0.43,-0.02 0.16,-0.02 0.22,-0.05 0.22,-0.16 0,-0.04 -0.01,-0.07 -0.04,-0.19 l -1.34,-5.33 c -0.09,-0.39 -0.11,-0.47 -0.9,-0.47 -0.17,0 -0.28,0 -0.28,-0.19 0,-0.12 0.12,-0.12 0.15,-0.12 0.28,0 0.98,0.04 1.26,0.04 0.21,0 0.43,-0.01 0.64,-0.01 0.22,0 0.44,-0.03 0.65,-0.03 0.07,0 0.2,0 0.2,0.2 0,0.11 -0.09,0.11 -0.28,0.11 -0.37,0 -0.65,0 -0.65,0.18 0,0.07 0.06,0.29 0.09,0.44 0.14,0.52 0.27,1.04 0.4,1.56 l 1.48,1.15 1.15,-2.67 c 0.12,-0.27 0.12,-0.29 0.12,-0.35 0,-0.3 -0.42,-0.31 -0.51,-0.31 -0.11,0 -0.22,0 -0.22,-0.2 0,-0.11 0.12,-0.11 0.14,-0.11 0.39,0 0.81,0.04 1.21,0.04 0.22,0 0.76,-0.04 0.98,-0.04 0.04,0 0.17,0 0.17,0.2 0,0.11 -0.11,0.11 -0.19,0.11 -0.41,0.01 -0.54,0.1 -0.69,0.45 z"
         inkscape:connector-curvature="0"
         style="fill:#000000" /><path
         id="path12746"
         d="m 232.97,709.51 0.04,-0.01 0.03,0 0.03,-0.01 0.03,-0.01 0.03,0 0.03,-0.01 0.03,-0.01 0.02,0 0.03,-0.01 0.02,0 0.03,0 0.02,-0.01 0.03,0 0.02,0 0.02,-0.01 0.02,0 0.02,0 0.02,0 0.02,0 0.02,0 0.02,-0.01 0.01,0 0.02,0 0.02,0 0.01,0 0.01,0 0.02,0 0.01,0 0.01,0 0.02,0 0.01,0 0.01,0 c 0.92,0 1.46,0.63 1.46,0.73 0,0.08 -0.05,0.1 -0.08,0.1 -0.02,0 -0.03,0 -0.06,-0.02 -0.17,-0.07 -0.54,-0.2 -1.05,-0.2 -0.19,0 -0.56,0.01 -1.02,0.18 -0.07,0.04 -0.08,0.04 -0.09,0.04 -0.09,0 -0.09,-0.08 -0.09,-0.19 v -2.05 c 0,-0.12 0,-0.2 0.11,-0.2 0.07,0 0.07,0.01 0.14,0.1 0.3,0.38 0.73,0.43 0.97,0.43 0.42,0 0.61,-0.33 0.64,-0.39 0.13,-0.23 0.17,-0.49 0.17,-0.89 0,-0.21 0,-0.62 -0.21,-0.93 -0.17,-0.25 -0.47,-0.42 -0.81,-0.42 -0.46,0 -0.93,0.26 -1.1,0.71 0.27,-0.02 0.4,0.16 0.4,0.34 0,0.3 -0.26,0.36 -0.35,0.36 -0.01,0 -0.35,0 -0.35,-0.38 0,-0.62 0.57,-1.25 1.41,-1.25 0.89,0 1.67,0.66 1.67,1.54 0,0.78 -0.6,1.51 -1.46,1.51 -0.31,0 -0.67,-0.08 -0.98,-0.34 z"
         inkscape:connector-curvature="0"
         style="fill:#000000" /></g>    <g
       id="g12748"
       transform="matrix(2.48832,0,0,-2.48832,131.59857,2088.7689)"
       xml:space="preserve"
       stroke-miterlimit="10.433"
       font-style="normal"
       font-variant="normal"
       font-weight="normal"
       font-stretch="normal"
       font-size-adjust="none"
       letter-spacing="normal"
       word-spacing="normal"
       ns0:text="$K_6$"
       ns0:preamble=""
       style="font-style:normal;font-variant:normal;font-weight:normal;font-stretch:normal;letter-spacing:normal;word-spacing:normal;text-anchor:start;fill:#17a000;fill-opacity:1;fill-rule:evenodd;stroke:none"><path
         d="m 228.5,711.14 -0.01,0 0,0 0,0.01 0,0 0,0.01 0,0 0,0 -0.01,0.01 0,0 0,0.01 0,0 0,0.01 -0.01,0.01 0,0.01 -0.01,0.01 0,0.01 0,0 0,0.01 -0.01,0 0,0.01 0,0 0,0.01 0,0 0,0 0,0.01 0,0 0,0 0,0.01 c 0,0.01 0.18,0.15 0.29,0.23 l 1.74,1.34 c 0.93,0.68 1.32,0.72 1.62,0.75 0.08,0.01 0.18,0.02 0.18,0.2 0,0.04 -0.03,0.11 -0.11,0.11 -0.22,0 -0.47,-0.03 -0.71,-0.03 -0.36,0 -0.75,0.03 -1.1,0.03 -0.07,0 -0.19,0 -0.19,-0.2 0,-0.07 0.05,-0.1 0.12,-0.11 0.22,-0.02 0.31,-0.07 0.31,-0.21 0,-0.18 -0.3,-0.4 -0.36,-0.45 l -3.88,-2.98 0.79,3.19 c 0.09,0.35 0.11,0.45 0.84,0.45 0.25,0 0.34,0 0.34,0.2 0,0.09 -0.08,0.11 -0.14,0.11 -0.28,0 -1,-0.03 -1.28,-0.03 -0.28,0 -0.99,0.03 -1.28,0.03 -0.07,0 -0.2,0 -0.2,-0.19 0,-0.12 0.09,-0.12 0.29,-0.12 0.13,0 0.31,-0.01 0.43,-0.02 0.16,-0.02 0.22,-0.05 0.22,-0.16 0,-0.04 -0.01,-0.07 -0.04,-0.19 l -1.34,-5.33 c -0.09,-0.39 -0.11,-0.47 -0.9,-0.47 -0.17,0 -0.28,0 -0.28,-0.19 0,-0.12 0.12,-0.12 0.15,-0.12 0.28,0 0.98,0.04 1.26,0.04 0.21,0 0.43,-0.01 0.64,-0.01 0.22,0 0.44,-0.03 0.65,-0.03 0.07,0 0.2,0 0.2,0.2 0,0.11 -0.09,0.11 -0.28,0.11 -0.37,0 -0.65,0 -0.65,0.18 0,0.07 0.06,0.29 0.09,0.44 0.14,0.52 0.27,1.04 0.4,1.56 l 1.48,1.15 1.15,-2.67 c 0.12,-0.27 0.12,-0.29 0.12,-0.35 0,-0.3 -0.42,-0.31 -0.51,-0.31 -0.11,0 -0.22,0 -0.22,-0.2 0,-0.11 0.12,-0.11 0.14,-0.11 0.39,0 0.81,0.04 1.21,0.04 0.22,0 0.76,-0.04 0.98,-0.04 0.04,0 0.17,0 0.17,0.2 0,0.11 -0.11,0.11 -0.19,0.11 -0.41,0.01 -0.54,0.1 -0.69,0.45 z"
         id="path12750"
         inkscape:connector-curvature="0"
         style="fill:#000000" /><path
         d="m 232.94,707.91 0,0.1 0,0.11 0,0.1 0.01,0.1 0.01,0.1 0.01,0.1 0.01,0.1 0.02,0.09 0.01,0.1 0.03,0.09 0.02,0.09 0.03,0.09 0.02,0.04 0.01,0.05 0.02,0.04 0.02,0.04 0.02,0.04 0.02,0.04 0.03,0.04 0.02,0.04 c 0.24,0.38 0.61,0.64 1.06,0.64 0.21,0 0.49,-0.06 0.63,-0.25 -0.18,-0.01 -0.32,-0.13 -0.32,-0.33 0,-0.17 0.11,-0.33 0.32,-0.33 0.21,0 0.34,0.14 0.34,0.34 0,0.41 -0.29,0.77 -0.98,0.77 -1.01,0 -2.03,-0.92 -2.03,-2.41 0,-1.81 0.85,-2.35 1.61,-2.35 0.85,0 1.59,0.65 1.59,1.56 0,0.88 -0.7,1.54 -1.52,1.54 l -0.03,-0.2 c 0.32,0 0.54,-0.12 0.71,-0.38 0.17,-0.27 0.17,-0.56 0.17,-0.96 0,-0.4 0,-0.69 -0.18,-0.96 -0.17,-0.24 -0.39,-0.38 -0.74,-0.38 h 0 c -0.34,0 -0.62,0.21 -0.76,0.51 -0.11,0.21 -0.16,0.56 -0.16,0.98 0,0.67 0.4,1.19 0.96,1.19 l 0.03,0.2 c -0.55,0 -0.86,-0.37 -1.01,-0.68 z"
         id="path12752"
         inkscape:connector-curvature="0"
         style="fill:#000000" /></g>    <g
       style="font-style:normal;font-variant:normal;font-weight:normal;font-stretch:normal;letter-spacing:normal;word-spacing:normal;text-anchor:start;fill:#17a000;fill-opacity:1;fill-rule:evenodd;stroke:none"
       ns0:preamble=""
       ns0:text="$K_7$"
       word-spacing="normal"
       letter-spacing="normal"
       font-size-adjust="none"
       font-stretch="normal"
       font-weight="normal"
       font-variant="normal"
       font-style="normal"
       stroke-miterlimit="10.433"
       xml:space="preserve"
       transform="matrix(2.48832,0,0,-2.48832,131.52294,2187.6702)"
       id="g12754"><path
         style="fill:#000000"
         inkscape:connector-curvature="0"
         id="path12756"
         d="m 228.5,711.14 -0.01,0 0,0 0,0.01 0,0 0,0.01 0,0 0,0 -0.01,0.01 0,0 0,0.01 0,0 0,0.01 -0.01,0.01 0,0.01 -0.01,0.01 0,0.01 0,0 0,0.01 -0.01,0 0,0.01 0,0 0,0.01 0,0 0,0 0,0.01 0,0 0,0 0,0.01 c 0,0.01 0.18,0.15 0.29,0.23 l 1.74,1.34 c 0.93,0.68 1.32,0.72 1.62,0.75 0.08,0.01 0.18,0.02 0.18,0.2 0,0.04 -0.03,0.11 -0.11,0.11 -0.22,0 -0.47,-0.03 -0.71,-0.03 -0.36,0 -0.75,0.03 -1.1,0.03 -0.07,0 -0.19,0 -0.19,-0.2 0,-0.07 0.05,-0.1 0.12,-0.11 0.22,-0.02 0.31,-0.07 0.31,-0.21 0,-0.18 -0.3,-0.4 -0.36,-0.45 l -3.88,-2.98 0.79,3.19 c 0.09,0.35 0.11,0.45 0.84,0.45 0.25,0 0.34,0 0.34,0.2 0,0.09 -0.08,0.11 -0.14,0.11 -0.28,0 -1,-0.03 -1.28,-0.03 -0.28,0 -0.99,0.03 -1.28,0.03 -0.07,0 -0.2,0 -0.2,-0.19 0,-0.12 0.09,-0.12 0.29,-0.12 0.13,0 0.31,-0.01 0.43,-0.02 0.16,-0.02 0.22,-0.05 0.22,-0.16 0,-0.04 -0.01,-0.07 -0.04,-0.19 l -1.34,-5.33 c -0.09,-0.39 -0.11,-0.47 -0.9,-0.47 -0.17,0 -0.28,0 -0.28,-0.19 0,-0.12 0.12,-0.12 0.15,-0.12 0.28,0 0.98,0.04 1.26,0.04 0.21,0 0.43,-0.01 0.64,-0.01 0.22,0 0.44,-0.03 0.65,-0.03 0.07,0 0.2,0 0.2,0.2 0,0.11 -0.09,0.11 -0.28,0.11 -0.37,0 -0.65,0 -0.65,0.18 0,0.07 0.06,0.29 0.09,0.44 0.14,0.52 0.27,1.04 0.4,1.56 l 1.48,1.15 1.15,-2.67 c 0.12,-0.27 0.12,-0.29 0.12,-0.35 0,-0.3 -0.42,-0.31 -0.51,-0.31 -0.11,0 -0.22,0 -0.22,-0.2 0,-0.11 0.12,-0.11 0.14,-0.11 0.39,0 0.81,0.04 1.21,0.04 0.22,0 0.76,-0.04 0.98,-0.04 0.04,0 0.17,0 0.17,0.2 0,0.11 -0.11,0.11 -0.19,0.11 -0.41,0.01 -0.54,0.1 -0.69,0.45 z" /><path
         style="fill:#000000"
         inkscape:connector-curvature="0"
         id="path12758"
         d="m 235.62,709.83 0.01,0.01 0,0.01 0.01,0 0,0.01 0.01,0.01 0,0 0.01,0.01 0,0 0,0.01 0.01,0.01 0,0 0,0.01 0,0 0.01,0.01 0,0.01 0,0 0,0.01 0,0.01 0,0.01 0.01,0 0,0.01 0,0.01 0,0.01 0,0.01 0,0.01 0,0.01 0,0.02 0,0.01 0,0.01 0,0.01 0,0.01 0,0 0,0.01 0,0.01 0,0.01 h -1.83 c -0.27,0 -0.35,0.01 -0.6,0.03 -0.36,0.02 -0.38,0.07 -0.4,0.19 h -0.24 l -0.24,-1.49 h 0.24 c 0.01,0.11 0.08,0.57 0.19,0.64 0.06,0.04 0.62,0.04 0.73,0.04 h 1.51 c -0.22,-0.29 -0.57,-0.73 -0.72,-0.92 -0.91,-1.2 -0.99,-2.3 -0.99,-2.71 0,-0.08 0,-0.4 0.32,-0.4 0.34,0 0.34,0.31 0.34,0.41 v 0.27 c 0,1.35 0.27,1.97 0.57,2.35 z" /></g>  </g>
  <g
     inkscape:label="Layer 1"
     inkscape:groupmode="layer"
     id="layer1">
    <rect
       style="fill:#000000;fill-opacity:1;stroke:none"
       id="rect24331"
       width="9.3656254"
       height="9.3656254"
       x="-60.801399"
       y="393.90378" />
    <path
       transform="matrix(0.77567406,0,0,0.77567406,-238.79581,221.55966)"
       d="m 274.28572,211.6479 a 37.857143,37.857143 0 1 1 -75.71429,0 37.857143,37.857143 0 1 1 75.71429,0 z"
       sodipodi:ry="37.857143"
       sodipodi:rx="37.857143"
       sodipodi:cy="211.6479"
       sodipodi:cx="236.42857"
       id="path27208"
       style="fill:none;stroke:#17a000;stroke-width:2.19265723;stroke-miterlimit:4;stroke-opacity:1;stroke-dasharray:none;stroke-dashoffset:0"
       sodipodi:type="arc" />
    <path
       sodipodi:type="arc"
       style="fill:none;stroke:#17a000;stroke-width:2.19265723;stroke-miterlimit:4;stroke-opacity:1;stroke-dasharray:none;stroke-dashoffset:0"
       id="path27210"
       sodipodi:cx="236.42857"
       sodipodi:cy="211.6479"
       sodipodi:rx="37.857143"
       sodipodi:ry="37.857143"
       d="m 274.28572,211.6479 a 37.857143,37.857143 0 1 1 -75.71429,0 37.857143,37.857143 0 1 1 75.71429,0 z"
       transform="matrix(0.77567406,0,0,0.77567406,-169.54618,204.90468)" />
    <path
       transform="matrix(0.77567406,0,0,0.77567406,-113.34836,248.66201)"
       d="m 274.28572,211.6479 a 37.857143,37.857143 0 1 1 -75.71429,0 37.857143,37.857143 0 1 1 75.71429,0 z"
       sodipodi:ry="37.857143"
       sodipodi:rx="37.857143"
       sodipodi:cy="211.6479"
       sodipodi:cx="236.42857"
       id="path27214"
       style="fill:none;stroke:#17a000;stroke-width:2.19265723;stroke-miterlimit:4;stroke-opacity:1;stroke-dasharray:none;stroke-dashoffset:0"
       sodipodi:type="arc" />
    <path
       sodipodi:type="arc"
       style="fill:none;stroke:#17a000;stroke-width:2.19265723;stroke-miterlimit:4;stroke-opacity:1;stroke-dasharray:none;stroke-dashoffset:0"
       id="path27216"
       sodipodi:cx="236.42857"
       sodipodi:cy="211.6479"
       sodipodi:rx="37.857143"
       sodipodi:ry="37.857143"
       d="m 274.28572,211.6479 a 37.857143,37.857143 0 1 1 -75.71429,0 37.857143,37.857143 0 1 1 75.71429,0 z"
       transform="matrix(0.77567406,0,0,0.77567406,-112.52045,319.88148)" />
    <path
       transform="matrix(0.77567406,0,0,0.77567406,-167.68588,364.93338)"
       d="m 274.28572,211.6479 a 37.857143,37.857143 0 1 1 -75.71429,0 37.857143,37.857143 0 1 1 75.71429,0 z"
       sodipodi:ry="37.857143"
       sodipodi:rx="37.857143"
       sodipodi:cy="211.6479"
       sodipodi:cx="236.42857"
       id="path27218"
       style="fill:none;stroke:#17a000;stroke-width:2.19265723;stroke-miterlimit:4;stroke-opacity:1;stroke-dasharray:none;stroke-dashoffset:0"
       sodipodi:type="arc" />
    <path
       sodipodi:type="arc"
       style="fill:none;stroke:#17a000;stroke-width:2.19265723;stroke-miterlimit:4;stroke-opacity:1;stroke-dasharray:none;stroke-dashoffset:0"
       id="path27220"
       sodipodi:cx="236.42857"
       sodipodi:cy="211.6479"
       sodipodi:rx="37.857143"
       sodipodi:ry="37.857143"
       d="m 274.28572,211.6479 a 37.857143,37.857143 0 1 1 -75.71429,0 37.857143,37.857143 0 1 1 75.71429,0 z"
       transform="matrix(0.77567406,0,0,0.77567406,-237.30396,349.89271)" />
    <path
       transform="matrix(0.77567406,0,0,0.77567406,-268.95085,286.0854)"
       d="m 274.28572,211.6479 a 37.857143,37.857143 0 1 1 -75.71429,0 37.857143,37.857143 0 1 1 75.71429,0 z"
       sodipodi:ry="37.857143"
       sodipodi:rx="37.857143"
       sodipodi:cy="211.6479"
       sodipodi:cx="236.42857"
       id="path27222"
       style="fill:none;stroke:#17a000;stroke-width:2.19265723;stroke-miterlimit:4;stroke-opacity:1;stroke-dasharray:none;stroke-dashoffset:0"
       sodipodi:type="arc" />
    <path
       sodipodi:type="arc"
       style="fill:none;stroke:#17a000;stroke-width:3.54330707;stroke-miterlimit:4;stroke-opacity:1;stroke-dasharray:14.17322853, 3.54330713;stroke-dashoffset:0"
       id="path27224"
       sodipodi:cx="510.71429"
       sodipodi:cy="442.36218"
       sodipodi:rx="114.28571"
       sodipodi:ry="114.28571"
       d="m 625.00001,442.36218 a 114.28571,114.28571 0 1 1 -228.57143,0 114.28571,114.28571 0 1 1 228.57143,0 z"
       transform="matrix(1.1,0,0,1.1,-565.273,-37.297284)" />
    <rect
       y="441.04663"
       x="-80.801399"
       height="9.3656254"
       width="9.3656254"
       id="rect27226"
       style="fill:#000000;fill-opacity:1;stroke:none" />
    <rect
       style="fill:#000000;fill-opacity:1;stroke:none"
       id="rect27228"
       width="9.3656254"
       height="9.3656254"
       x="-54.372826"
       y="522.47522" />
    <rect
       y="518.18951"
       x="19.912888"
       height="9.3656254"
       width="9.3656254"
       id="rect27230"
       style="fill:#000000;fill-opacity:1;stroke:none" />
    <rect
       style="fill:#000000;fill-opacity:1;stroke:none"
       id="rect27232"
       width="9.3656254"
       height="9.3656254"
       x="57.05574"
       y="488.90381" />
    <rect
       y="399.6181"
       x="57.77002"
       height="9.3656254"
       width="9.3656254"
       id="rect27234"
       style="fill:#000000;fill-opacity:1;stroke:none" />
    <rect
       style="fill:#000000;fill-opacity:1;stroke:none"
       id="rect27236"
       width="9.3656254"
       height="9.3656254"
       x="19.198593"
       y="373.18954" />
    <rect
       y="393.90378"
       x="508.19861"
       height="9.3656254"
       width="9.3656254"
       id="rect28234"
       style="fill:#000000;fill-opacity:1;stroke:none" />
    <path
       sodipodi:type="arc"
       style="fill:none;stroke:#17a000;stroke-width:2.19265723;stroke-miterlimit:4;stroke-opacity:1;stroke-dasharray:none;stroke-dashoffset:0"
       id="path28236"
       sodipodi:cx="236.42857"
       sodipodi:cy="211.6479"
       sodipodi:rx="37.857143"
       sodipodi:ry="37.857143"
       d="m 274.28572,211.6479 a 37.857143,37.857143 0 1 1 -75.71429,0 37.857143,37.857143 0 1 1 75.71429,0 z"
       transform="matrix(0.77567406,0,0,0.77567406,330.2042,221.55966)" />
    <path
       transform="matrix(0.77567406,0,0,0.77567406,432.31096,163.47611)"
       d="m 274.28572,211.6479 a 37.857143,37.857143 0 1 1 -75.71429,0 37.857143,37.857143 0 1 1 75.71429,0 z"
       sodipodi:ry="37.857143"
       sodipodi:rx="37.857143"
       sodipodi:cy="211.6479"
       sodipodi:cx="236.42857"
       id="path28238"
       style="fill:none;stroke:#17a000;stroke-width:2.19265723;stroke-miterlimit:4;stroke-opacity:1;stroke-dasharray:none;stroke-dashoffset:0"
       sodipodi:type="arc" />
    <path
       sodipodi:type="arc"
       style="fill:none;stroke:#17a000;stroke-width:2.19265723;stroke-miterlimit:4;stroke-opacity:1;stroke-dasharray:none;stroke-dashoffset:0"
       id="path28240"
       sodipodi:cx="236.42857"
       sodipodi:cy="211.6479"
       sodipodi:rx="37.857143"
       sodipodi:ry="37.857143"
       d="m 274.28572,211.6479 a 37.857143,37.857143 0 1 1 -75.71429,0 37.857143,37.857143 0 1 1 75.71429,0 z"
       transform="matrix(0.77567406,0,0,0.77567406,435.65164,252.23344)" />
    <path
       transform="matrix(0.77567406,0,0,0.77567406,518.6224,163.47611)"
       d="m 274.28572,211.6479 a 37.857143,37.857143 0 1 1 -75.71429,0 37.857143,37.857143 0 1 1 75.71429,0 z"
       sodipodi:ry="37.857143"
       sodipodi:rx="37.857143"
       sodipodi:cy="211.6479"
       sodipodi:cx="236.42857"
       id="path28242"
       style="fill:none;stroke:#17a000;stroke-width:2.19265723;stroke-miterlimit:4;stroke-opacity:1;stroke-dasharray:none;stroke-dashoffset:0"
       sodipodi:type="arc" />
    <path
       sodipodi:type="arc"
       style="fill:none;stroke:#17a000;stroke-width:2.19265723;stroke-miterlimit:4;stroke-opacity:1;stroke-dasharray:none;stroke-dashoffset:0"
       id="path28244"
       sodipodi:cx="236.42857"
       sodipodi:cy="211.6479"
       sodipodi:rx="37.857143"
       sodipodi:ry="37.857143"
       d="m 274.28572,211.6479 a 37.857143,37.857143 0 1 1 -75.71429,0 37.857143,37.857143 0 1 1 75.71429,0 z"
       transform="matrix(0.77567406,0,0,0.77567406,517.74269,252.23344)" />
    <path
       transform="matrix(0.77567406,0,0,0.77567406,311.69604,377.74985)"
       d="m 274.28572,211.6479 a 37.857143,37.857143 0 1 1 -75.71429,0 37.857143,37.857143 0 1 1 75.71429,0 z"
       sodipodi:ry="37.857143"
       sodipodi:rx="37.857143"
       sodipodi:cy="211.6479"
       sodipodi:cx="236.42857"
       id="path28246"
       style="fill:none;stroke:#17a000;stroke-width:2.19265723;stroke-miterlimit:4;stroke-opacity:1;stroke-dasharray:none;stroke-dashoffset:0"
       sodipodi:type="arc" />
    <path
       sodipodi:type="arc"
       style="fill:none;stroke:#17a000;stroke-width:2.19265723;stroke-miterlimit:4;stroke-opacity:1;stroke-dasharray:none;stroke-dashoffset:0"
       id="path28248"
       sodipodi:cx="236.42857"
       sodipodi:cy="211.6479"
       sodipodi:rx="37.857143"
       sodipodi:ry="37.857143"
       d="m 274.28572,211.6479 a 37.857143,37.857143 0 1 1 -75.71429,0 37.857143,37.857143 0 1 1 75.71429,0 z"
       transform="matrix(0.77567406,0,0,0.77567406,317.90629,303.94254)" />
    <rect
       style="fill:#000000;fill-opacity:1;stroke:none"
       id="rect28252"
       width="9.3656254"
       height="9.3656254"
       x="499.62717"
       y="446.04663" />
    <rect
       y="550.33234"
       x="494.6272"
       height="9.3656254"
       width="9.3656254"
       id="rect28254"
       style="fill:#000000;fill-opacity:1;stroke:none" />
    <rect
       style="fill:#000000;fill-opacity:1;stroke:none"
       id="rect28256"
       width="9.3656254"
       height="9.3656254"
       x="697.48431"
       y="396.76096" />
    <rect
       y="341.76096"
       x="698.19861"
       height="9.3656254"
       width="9.3656254"
       id="rect28258"
       style="fill:#000000;fill-opacity:1;stroke:none" />
    <rect
       style="fill:#000000;fill-opacity:1;stroke:none"
       id="rect28260"
       width="9.3656254"
       height="9.3656254"
       x="613.19861"
       y="395.3324" />
    <rect
       y="341.76096"
       x="610.34149"
       height="9.3656254"
       width="9.3656254"
       id="rect28262"
       style="fill:#000000;fill-opacity:1;stroke:none" />
  </g>
</svg>
