<?xml version="1.0" encoding="UTF-8" standalone="no"?>
<!-- Created with Inkscape (http://www.inkscape.org/) -->

<svg
   xmlns:ns0="http://www.iki.fi/pav/software/textext/"
   xmlns:dc="http://purl.org/dc/elements/1.1/"
   xmlns:cc="http://creativecommons.org/ns#"
   xmlns:rdf="http://www.w3.org/1999/02/22-rdf-syntax-ns#"
   xmlns:svg="http://www.w3.org/2000/svg"
   xmlns="http://www.w3.org/2000/svg"
   xmlns:sodipodi="http://sodipodi.sourceforge.net/DTD/sodipodi-0.dtd"
   xmlns:inkscape="http://www.inkscape.org/namespaces/inkscape"
   width="744.09448819"
   height="1052.3622047"
   id="svg26635"
   version="1.1"
   inkscape:version="0.48.4 r9939"
   sodipodi:docname="edmonds6.svg">
  <sodipodi:namedview
     id="base"
     pagecolor="#ffffff"
     bordercolor="#666666"
     borderopacity="1.0"
     inkscape:pageopacity="0.0"
     inkscape:pageshadow="2"
     inkscape:zoom="1"
     inkscape:cx="554.8422"
     inkscape:cy="254.88502"
     inkscape:document-units="px"
     inkscape:current-layer="layer5"
     showgrid="false"
     inkscape:window-width="1918"
     inkscape:window-height="1062"
     inkscape:window-x="0"
     inkscape:window-y="0"
     inkscape:window-maximized="0"
     inkscape:snap-nodes="true"
     inkscape:snap-object-midpoints="true"
     inkscape:object-nodes="true"
     inkscape:snap-global="false" />
  <defs
     id="defs26637" />
  <metadata
     id="metadata26640">
    <rdf:RDF>
      <cc:Work
         rdf:about="">
        <dc:format>image/svg+xml</dc:format>
        <dc:type
           rdf:resource="http://purl.org/dc/dcmitype/StillImage" />
        <dc:title />
      </cc:Work>
    </rdf:RDF>
  </metadata>
  <g
     inkscape:label="Layer"
     id="layer5"
     inkscape:groupmode="layer">
    <path
       sodipodi:nodetypes="cc"
       inkscape:connector-curvature="0"
       id="path26049"
       d="m 179.73856,773.58661 -0.35105,52.43573"
       style="fill:none;stroke:#ff1414;stroke-width:2.83464575;stroke-miterlimit:4;stroke-opacity:1;stroke-dasharray:none;stroke-dashoffset:0" />
    <path
       sodipodi:nodetypes="cc"
       inkscape:connector-curvature="0"
       id="path27260"
       d="m 79.658146,828.96419 1.937553,-54.09188"
       style="fill:none;stroke:#ff1414;stroke-width:2.83464575;stroke-miterlimit:4;stroke-opacity:1;stroke-dasharray:none;stroke-dashoffset:0" />
    <path
       style="fill:none;stroke:#ff1414;stroke-width:2.83464575;stroke-miterlimit:4;stroke-opacity:1;stroke-dasharray:none;stroke-dashoffset:0"
       d="m -29.801399,740.04663 0.111386,-82.88861"
       id="path27262"
       inkscape:connector-curvature="0"
       sodipodi:nodetypes="cc" />
    <path
       style="fill:none;stroke:#000000;stroke-width:0.70866144;stroke-miterlimit:4;stroke-opacity:1;stroke-dasharray:none;stroke-dashoffset:0"
       d="m 131.1496,639.85536 44.08578,100.30857"
       id="path27286"
       inkscape:connector-curvature="0"
       sodipodi:nodetypes="cc" />
    <path
       sodipodi:nodetypes="cc"
       inkscape:connector-curvature="0"
       id="path27288"
       d="M 80.373384,751.14936 102.78906,643.80851"
       style="fill:none;stroke:#000000;stroke-width:0.70866144;stroke-miterlimit:4;stroke-opacity:1;stroke-dasharray:none;stroke-dashoffset:0" />
    <path
       sodipodi:nodetypes="cc"
       inkscape:connector-curvature="0"
       id="path28176"
       d="m 110.63877,619.53638 -0.42066,-57.47097"
       style="fill:none;stroke:#ff1414;stroke-width:2.83464575;stroke-miterlimit:4;stroke-opacity:1;stroke-dasharray:none;stroke-dashoffset:0" />
    <path
       sodipodi:nodetypes="cc"
       inkscape:connector-curvature="0"
       id="path28178"
       d="M 90.243449,626.84181 -2.8280003,639.87117"
       style="fill:none;stroke:#000000;stroke-width:0.70866144;stroke-miterlimit:4;stroke-opacity:1;stroke-dasharray:2.83464575, 2.83464575;stroke-dashoffset:0" />
    <g
       style="font-style:normal;font-variant:normal;font-weight:normal;font-stretch:normal;letter-spacing:normal;word-spacing:normal;text-anchor:start;fill:#17a000;fill-opacity:1;stroke:none"
       ns0:preamble=""
       ns0:text="$+\\varepsilon$"
       word-spacing="normal"
       letter-spacing="normal"
       font-size-adjust="none"
       font-stretch="normal"
       font-weight="normal"
       font-variant="normal"
       font-style="normal"
       stroke-miterlimit="10.433"
       xml:space="preserve"
       transform="matrix(2.48832,0,0,-2.48832,-413.61686,2377.8132)"
       id="g26603"><path
         id="path26605"
         d="m 227.5,709.41 h 2.78 c 0.14,0 0.32,0 0.32,0.2 0,0.2 -0.18,0.2 -0.32,0.2 h -2.78 v 2.78 c 0,0.14 0,0.33 -0.2,0.33 -0.2,0 -0.2,-0.19 -0.2,-0.33 v -2.78 h -2.78 c -0.14,0 -0.33,0 -0.33,-0.2 0,-0.2 0.19,-0.2 0.33,-0.2 h 2.78 v -2.78 c 0,-0.14 0,-0.33 0.2,-0.33 0.2,0 0.2,0.19 0.2,0.33 z"
         inkscape:connector-curvature="0"
         style="fill:#17a000;fill-opacity:1;stroke:none" /><path
         id="path26607"
         d="m 232.58,709.38 0.03,-0.01 0.04,-0.01 0.03,-0.02 0.03,-0.01 0.02,-0.01 0.03,0 0.03,-0.01 0.03,-0.01 0.03,-0.01 0.03,0 0.06,-0.02 0.05,0 0.06,-0.01 0.05,-0.01 0.05,0 0.05,0 0.05,-0.01 0.05,0 0.05,0 0.04,0 0.05,0 v 0.22 c -0.22,0 -0.34,0 -0.53,0.05 h 0 c 0.23,0.08 0.44,0.09 0.61,0.09 0.25,0 0.29,-0.01 0.47,-0.06 -0.15,-0.07 -0.17,-0.08 -0.55,-0.08 v -0.22 c 0.26,0 0.8,0 0.8,0.31 0,0.24 -0.34,0.27 -0.72,0.27 -0.21,0 -0.56,-0.02 -0.93,-0.19 -0.22,0.12 -0.39,0.31 -0.39,0.57 0,0.61 0.97,0.97 1.87,0.97 0.16,0 0.51,0 0.91,-0.28 0.11,-0.08 0.13,-0.1 0.2,-0.1 0.13,0 0.27,0.13 0.27,0.27 0,0.19 -0.61,0.56 -1.28,0.56 -1.15,0 -2.22,-0.66 -2.22,-1.42 0,-0.42 0.35,-0.67 0.4,-0.7 -0.59,-0.33 -0.91,-0.89 -0.91,-1.34 0,-0.65 0.57,-1.25 1.62,-1.25 1.32,0 1.87,0.87 1.87,1.02 0,0.06 -0.05,0.1 -0.11,0.1 -0.05,0 -0.08,-0.04 -0.1,-0.07 -0.14,-0.23 -0.37,-0.6 -1.57,-0.6 -0.61,0 -1.45,0.15 -1.45,0.86 0,0.33 0.28,0.86 0.88,1.16 z"
         inkscape:connector-curvature="0"
         style="fill:#17a000;fill-opacity:1;stroke:none" /></g>    <g
       id="g28312"
       transform="matrix(2.48832,0,0,-2.48832,-360.70942,2558.6554)"
       xml:space="preserve"
       stroke-miterlimit="10.433"
       font-style="normal"
       font-variant="normal"
       font-weight="normal"
       font-stretch="normal"
       font-size-adjust="none"
       letter-spacing="normal"
       word-spacing="normal"
       ns0:text="$-\\varepsilon$"
       ns0:preamble=""
       style="font-style:normal;font-variant:normal;font-weight:normal;font-stretch:normal;letter-spacing:normal;word-spacing:normal;text-anchor:start;fill:#17a000;fill-opacity:1;fill-rule:evenodd;stroke:#000000;stroke-linecap:butt;stroke-linejoin:miter;stroke-miterlimit:10.43299961;stroke-opacity:1;stroke-dasharray:none;stroke-dashoffset:0"><path
         style="fill:#17a000;fill-opacity:1;stroke-width:0"
         d="m 229.99,709.41 0.03,0 0.03,0 0.03,0 0.02,0 0.01,0 0.02,0 0.01,0.01 0.02,0 0.01,0 0.02,0 0.01,0.01 0.01,0 0.02,0 0.01,0.01 0.01,0.01 0.01,0 0.01,0.01 0.01,0.01 0.01,0 0.01,0.01 0.01,0.01 0,0.01 0,0 0.01,0.01 0,0.01 0,0 0,0.01 0.01,0.01 0,0 0,0.01 0,0.01 0,0.01 0,0 0.01,0.01 0,0.01 0,0.01 0,0.01 c 0,0.2 -0.18,0.2 -0.35,0.2 h -5.38 c -0.17,0 -0.35,0 -0.35,-0.2 0,-0.2 0.18,-0.2 0.35,-0.2 z"
         id="path28314"
         inkscape:connector-curvature="0" /><path
         style="fill:#17a000;fill-opacity:1;stroke-width:0"
         d="m 232.58,709.38 0.03,-0.01 0.04,-0.01 0.03,-0.02 0.03,-0.01 0.02,-0.01 0.03,0 0.03,-0.01 0.03,-0.01 0.03,-0.01 0.03,0 0.06,-0.02 0.05,0 0.06,-0.01 0.05,-0.01 0.05,0 0.05,0 0.05,-0.01 0.05,0 0.05,0 0.04,0 0.05,0 v 0.22 c -0.22,0 -0.34,0 -0.53,0.05 h 0 c 0.23,0.08 0.44,0.09 0.61,0.09 0.25,0 0.29,-0.01 0.47,-0.06 -0.15,-0.07 -0.17,-0.08 -0.55,-0.08 v -0.22 c 0.26,0 0.8,0 0.8,0.31 0,0.24 -0.34,0.27 -0.72,0.27 -0.21,0 -0.56,-0.02 -0.93,-0.19 -0.22,0.12 -0.39,0.31 -0.39,0.57 0,0.61 0.97,0.97 1.87,0.97 0.16,0 0.51,0 0.91,-0.28 0.11,-0.08 0.13,-0.1 0.2,-0.1 0.13,0 0.27,0.13 0.27,0.27 0,0.19 -0.61,0.56 -1.28,0.56 -1.15,0 -2.22,-0.66 -2.22,-1.42 0,-0.42 0.35,-0.67 0.4,-0.7 -0.59,-0.33 -0.91,-0.89 -0.91,-1.34 0,-0.65 0.57,-1.25 1.62,-1.25 1.32,0 1.87,0.87 1.87,1.02 0,0.06 -0.05,0.1 -0.11,0.1 -0.05,0 -0.08,-0.04 -0.1,-0.07 -0.14,-0.23 -0.37,-0.6 -1.57,-0.6 -0.61,0 -1.45,0.15 -1.45,0.86 0,0.33 0.28,0.86 0.88,1.16 z"
         id="path28316"
         inkscape:connector-curvature="0" /></g>    <g
       style="font-style:normal;font-variant:normal;font-weight:normal;font-stretch:normal;letter-spacing:normal;word-spacing:normal;text-anchor:start;fill:#17a000;fill-opacity:1;fill-rule:evenodd;stroke:#000000;stroke-linecap:butt;stroke-linejoin:miter;stroke-miterlimit:10.43299961;stroke-opacity:1;stroke-dasharray:none;stroke-dashoffset:0"
       ns0:preamble=""
       ns0:text="$-\\varepsilon$"
       word-spacing="normal"
       letter-spacing="normal"
       font-size-adjust="none"
       font-stretch="normal"
       font-weight="normal"
       font-variant="normal"
       font-style="normal"
       stroke-miterlimit="10.433"
       xml:space="preserve"
       transform="matrix(2.48832,0,0,-2.48832,-467.97144,2558.6554)"
       id="g28318"><path
         inkscape:connector-curvature="0"
         id="path28320"
         d="m 229.99,709.41 0.03,0 0.03,0 0.03,0 0.02,0 0.01,0 0.02,0 0.01,0.01 0.02,0 0.01,0 0.02,0 0.01,0.01 0.01,0 0.02,0 0.01,0.01 0.01,0.01 0.01,0 0.01,0.01 0.01,0.01 0.01,0 0.01,0.01 0.01,0.01 0,0.01 0,0 0.01,0.01 0,0.01 0,0 0,0.01 0.01,0.01 0,0 0,0.01 0,0.01 0,0.01 0,0 0.01,0.01 0,0.01 0,0.01 0,0.01 c 0,0.2 -0.18,0.2 -0.35,0.2 h -5.38 c -0.17,0 -0.35,0 -0.35,-0.2 0,-0.2 0.18,-0.2 0.35,-0.2 z"
         style="fill:#17a000;fill-opacity:1;stroke-width:0" /><path
         inkscape:connector-curvature="0"
         id="path28322"
         d="m 232.58,709.38 0.03,-0.01 0.04,-0.01 0.03,-0.02 0.03,-0.01 0.02,-0.01 0.03,0 0.03,-0.01 0.03,-0.01 0.03,-0.01 0.03,0 0.06,-0.02 0.05,0 0.06,-0.01 0.05,-0.01 0.05,0 0.05,0 0.05,-0.01 0.05,0 0.05,0 0.04,0 0.05,0 v 0.22 c -0.22,0 -0.34,0 -0.53,0.05 h 0 c 0.23,0.08 0.44,0.09 0.61,0.09 0.25,0 0.29,-0.01 0.47,-0.06 -0.15,-0.07 -0.17,-0.08 -0.55,-0.08 v -0.22 c 0.26,0 0.8,0 0.8,0.31 0,0.24 -0.34,0.27 -0.72,0.27 -0.21,0 -0.56,-0.02 -0.93,-0.19 -0.22,0.12 -0.39,0.31 -0.39,0.57 0,0.61 0.97,0.97 1.87,0.97 0.16,0 0.51,0 0.91,-0.28 0.11,-0.08 0.13,-0.1 0.2,-0.1 0.13,0 0.27,0.13 0.27,0.27 0,0.19 -0.61,0.56 -1.28,0.56 -1.15,0 -2.22,-0.66 -2.22,-1.42 0,-0.42 0.35,-0.67 0.4,-0.7 -0.59,-0.33 -0.91,-0.89 -0.91,-1.34 0,-0.65 0.57,-1.25 1.62,-1.25 1.32,0 1.87,0.87 1.87,1.02 0,0.06 -0.05,0.1 -0.11,0.1 -0.05,0 -0.08,-0.04 -0.1,-0.07 -0.14,-0.23 -0.37,-0.6 -1.57,-0.6 -0.61,0 -1.45,0.15 -1.45,0.86 0,0.33 0.28,0.86 0.88,1.16 z"
         style="fill:#17a000;fill-opacity:1;stroke-width:0" /></g>    <text
       sodipodi:linespacing="125%"
       id="text28326"
       y="727.36218"
       x="250"
       style="font-size:144px;font-style:normal;font-variant:normal;font-weight:normal;font-stretch:normal;text-align:start;line-height:125%;letter-spacing:0px;word-spacing:0px;writing-mode:lr-tb;text-anchor:start;fill:#003199;fill-opacity:1;stroke:none;font-family:TeX Gyre Termes;-inkscape-font-specification:TeX Gyre Termes"
       xml:space="preserve"><tspan
         y="727.36218"
         x="250"
         id="tspan28332"
         sodipodi:role="line">⇝ </tspan></text>
    <path
       style="fill:none;stroke:#ff1414;stroke-width:2.83464575;stroke-miterlimit:4;stroke-opacity:1;stroke-dasharray:none;stroke-dashoffset:0"
       d="m 699.46204,773.58661 -0.35105,52.43573"
       id="path28531"
       inkscape:connector-curvature="0"
       sodipodi:nodetypes="cc" />
    <path
       style="fill:none;stroke:#ff1414;stroke-width:2.83464575;stroke-miterlimit:4;stroke-opacity:1;stroke-dasharray:none;stroke-dashoffset:0"
       d="m 602.38163,828.96419 -1.06245,-54.09188"
       id="path28533"
       inkscape:connector-curvature="0"
       sodipodi:nodetypes="cc" />
    <path
       sodipodi:nodetypes="cc"
       inkscape:connector-curvature="0"
       id="path28535"
       d="m 511.8424,856.71925 0.11138,-82.88861"
       style="fill:none;stroke:#ff1414;stroke-width:2.83464575;stroke-miterlimit:4;stroke-opacity:1;stroke-dasharray:none;stroke-dashoffset:0" />
    <path
       sodipodi:nodetypes="cc"
       inkscape:connector-curvature="0"
       id="path28537"
       d="m 650.87308,639.85536 44.08578,100.30857"
       style="fill:none;stroke:#000000;stroke-width:0.70866144;stroke-miterlimit:4;stroke-opacity:1;stroke-dasharray:none;stroke-dashoffset:0" />
    <path
       style="fill:none;stroke:#000000;stroke-width:0.70866144;stroke-miterlimit:4;stroke-opacity:1;stroke-dasharray:none;stroke-dashoffset:0"
       d="M 600.09687,751.14936 622.51254,643.80851"
       id="path28539"
       inkscape:connector-curvature="0"
       sodipodi:nodetypes="cc" />
    <path
       style="fill:none;stroke:#ff1414;stroke-width:2.83464575;stroke-miterlimit:4;stroke-opacity:1;stroke-dasharray:none;stroke-dashoffset:0"
       d="m 630.36225,619.53638 -0.42066,-57.47097"
       id="path28553"
       inkscape:connector-curvature="0"
       sodipodi:nodetypes="cc" />
    <path
       style="fill:none;stroke:#000000;stroke-width:0.709;stroke-miterlimit:4;stroke-opacity:1;stroke-dasharray:none;stroke-dashoffset:0"
       d="M 609.96693,626.84181 527.50208,738.86612"
       id="path28555"
       inkscape:connector-curvature="0"
       sodipodi:nodetypes="cc" />
    <g
       id="g28557"
       transform="matrix(2.48832,0,0,-2.48832,95.106625,2360.8132)"
       xml:space="preserve"
       stroke-miterlimit="10.433"
       font-style="normal"
       font-variant="normal"
       font-weight="normal"
       font-stretch="normal"
       font-size-adjust="none"
       letter-spacing="normal"
       word-spacing="normal"
       ns0:text="$+\\varepsilon$"
       ns0:preamble=""
       style="font-style:normal;font-variant:normal;font-weight:normal;font-stretch:normal;letter-spacing:normal;word-spacing:normal;text-anchor:start;fill:#17a000;fill-opacity:1;stroke:none"><path
         style="fill:#17a000;fill-opacity:1;stroke:none"
         inkscape:connector-curvature="0"
         d="m 227.5,709.41 h 2.78 c 0.14,0 0.32,0 0.32,0.2 0,0.2 -0.18,0.2 -0.32,0.2 h -2.78 v 2.78 c 0,0.14 0,0.33 -0.2,0.33 -0.2,0 -0.2,-0.19 -0.2,-0.33 v -2.78 h -2.78 c -0.14,0 -0.33,0 -0.33,-0.2 0,-0.2 0.19,-0.2 0.33,-0.2 h 2.78 v -2.78 c 0,-0.14 0,-0.33 0.2,-0.33 0.2,0 0.2,0.19 0.2,0.33 z"
         id="path28559" /><path
         style="fill:#17a000;fill-opacity:1;stroke:none"
         inkscape:connector-curvature="0"
         d="m 232.58,709.38 0.03,-0.01 0.04,-0.01 0.03,-0.02 0.03,-0.01 0.02,-0.01 0.03,0 0.03,-0.01 0.03,-0.01 0.03,-0.01 0.03,0 0.06,-0.02 0.05,0 0.06,-0.01 0.05,-0.01 0.05,0 0.05,0 0.05,-0.01 0.05,0 0.05,0 0.04,0 0.05,0 v 0.22 c -0.22,0 -0.34,0 -0.53,0.05 h 0 c 0.23,0.08 0.44,0.09 0.61,0.09 0.25,0 0.29,-0.01 0.47,-0.06 -0.15,-0.07 -0.17,-0.08 -0.55,-0.08 v -0.22 c 0.26,0 0.8,0 0.8,0.31 0,0.24 -0.34,0.27 -0.72,0.27 -0.21,0 -0.56,-0.02 -0.93,-0.19 -0.22,0.12 -0.39,0.31 -0.39,0.57 0,0.61 0.97,0.97 1.87,0.97 0.16,0 0.51,0 0.91,-0.28 0.11,-0.08 0.13,-0.1 0.2,-0.1 0.13,0 0.27,0.13 0.27,0.27 0,0.19 -0.61,0.56 -1.28,0.56 -1.15,0 -2.22,-0.66 -2.22,-1.42 0,-0.42 0.35,-0.67 0.4,-0.7 -0.59,-0.33 -0.91,-0.89 -0.91,-1.34 0,-0.65 0.57,-1.25 1.62,-1.25 1.32,0 1.87,0.87 1.87,1.02 0,0.06 -0.05,0.1 -0.11,0.1 -0.05,0 -0.08,-0.04 -0.1,-0.07 -0.14,-0.23 -0.37,-0.6 -1.57,-0.6 -0.61,0 -1.45,0.15 -1.45,0.86 0,0.33 0.28,0.86 0.88,1.16 z"
         id="path28561" /></g>    <g
       style="font-style:normal;font-variant:normal;font-weight:normal;font-stretch:normal;letter-spacing:normal;word-spacing:normal;text-anchor:start;fill:#17a000;fill-opacity:1;fill-rule:evenodd;stroke:#000000;stroke-linecap:butt;stroke-linejoin:miter;stroke-miterlimit:10.43299961;stroke-opacity:1;stroke-dasharray:none;stroke-dashoffset:0"
       ns0:preamble=""
       ns0:text="$-\\varepsilon$"
       word-spacing="normal"
       letter-spacing="normal"
       font-size-adjust="none"
       font-stretch="normal"
       font-weight="normal"
       font-variant="normal"
       font-style="normal"
       stroke-miterlimit="10.433"
       xml:space="preserve"
       transform="matrix(2.48832,0,0,-2.48832,151.01406,2560.1277)"
       id="g28563"><path
         inkscape:connector-curvature="0"
         id="path28565"
         d="m 229.99,709.41 0.03,0 0.03,0 0.03,0 0.02,0 0.01,0 0.02,0 0.01,0.01 0.02,0 0.01,0 0.02,0 0.01,0.01 0.01,0 0.02,0 0.01,0.01 0.01,0.01 0.01,0 0.01,0.01 0.01,0.01 0.01,0 0.01,0.01 0.01,0.01 0,0.01 0,0 0.01,0.01 0,0.01 0,0 0,0.01 0.01,0.01 0,0 0,0.01 0,0.01 0,0.01 0,0 0.01,0.01 0,0.01 0,0.01 0,0.01 c 0,0.2 -0.18,0.2 -0.35,0.2 h -5.38 c -0.17,0 -0.35,0 -0.35,-0.2 0,-0.2 0.18,-0.2 0.35,-0.2 z"
         style="fill:#17a000;fill-opacity:1;stroke-width:0" /><path
         inkscape:connector-curvature="0"
         id="path28567"
         d="m 232.58,709.38 0.03,-0.01 0.04,-0.01 0.03,-0.02 0.03,-0.01 0.02,-0.01 0.03,0 0.03,-0.01 0.03,-0.01 0.03,-0.01 0.03,0 0.06,-0.02 0.05,0 0.06,-0.01 0.05,-0.01 0.05,0 0.05,0 0.05,-0.01 0.05,0 0.05,0 0.04,0 0.05,0 v 0.22 c -0.22,0 -0.34,0 -0.53,0.05 h 0 c 0.23,0.08 0.44,0.09 0.61,0.09 0.25,0 0.29,-0.01 0.47,-0.06 -0.15,-0.07 -0.17,-0.08 -0.55,-0.08 v -0.22 c 0.26,0 0.8,0 0.8,0.31 0,0.24 -0.34,0.27 -0.72,0.27 -0.21,0 -0.56,-0.02 -0.93,-0.19 -0.22,0.12 -0.39,0.31 -0.39,0.57 0,0.61 0.97,0.97 1.87,0.97 0.16,0 0.51,0 0.91,-0.28 0.11,-0.08 0.13,-0.1 0.2,-0.1 0.13,0 0.27,0.13 0.27,0.27 0,0.19 -0.61,0.56 -1.28,0.56 -1.15,0 -2.22,-0.66 -2.22,-1.42 0,-0.42 0.35,-0.67 0.4,-0.7 -0.59,-0.33 -0.91,-0.89 -0.91,-1.34 0,-0.65 0.57,-1.25 1.62,-1.25 1.32,0 1.87,0.87 1.87,1.02 0,0.06 -0.05,0.1 -0.11,0.1 -0.05,0 -0.08,-0.04 -0.1,-0.07 -0.14,-0.23 -0.37,-0.6 -1.57,-0.6 -0.61,0 -1.45,0.15 -1.45,0.86 0,0.33 0.28,0.86 0.88,1.16 z"
         style="fill:#17a000;fill-opacity:1;stroke-width:0" /></g>    <g
       id="g28569"
       transform="matrix(2.48832,0,0,-2.48832,60.634296,2560.1277)"
       xml:space="preserve"
       stroke-miterlimit="10.433"
       font-style="normal"
       font-variant="normal"
       font-weight="normal"
       font-stretch="normal"
       font-size-adjust="none"
       letter-spacing="normal"
       word-spacing="normal"
       ns0:text="$-\\varepsilon$"
       ns0:preamble=""
       style="font-style:normal;font-variant:normal;font-weight:normal;font-stretch:normal;letter-spacing:normal;word-spacing:normal;text-anchor:start;fill:#17a000;fill-opacity:1;fill-rule:evenodd;stroke:#000000;stroke-linecap:butt;stroke-linejoin:miter;stroke-miterlimit:10.43299961;stroke-opacity:1;stroke-dasharray:none;stroke-dashoffset:0"><path
         style="fill:#17a000;fill-opacity:1;stroke-width:0"
         d="m 229.99,709.41 0.03,0 0.03,0 0.03,0 0.02,0 0.01,0 0.02,0 0.01,0.01 0.02,0 0.01,0 0.02,0 0.01,0.01 0.01,0 0.02,0 0.01,0.01 0.01,0.01 0.01,0 0.01,0.01 0.01,0.01 0.01,0 0.01,0.01 0.01,0.01 0,0.01 0,0 0.01,0.01 0,0.01 0,0 0,0.01 0.01,0.01 0,0 0,0.01 0,0.01 0,0.01 0,0 0.01,0.01 0,0.01 0,0.01 0,0.01 c 0,0.2 -0.18,0.2 -0.35,0.2 h -5.38 c -0.17,0 -0.35,0 -0.35,-0.2 0,-0.2 0.18,-0.2 0.35,-0.2 z"
         id="path28571"
         inkscape:connector-curvature="0" /><path
         style="fill:#17a000;fill-opacity:1;stroke-width:0"
         d="m 232.58,709.38 0.03,-0.01 0.04,-0.01 0.03,-0.02 0.03,-0.01 0.02,-0.01 0.03,0 0.03,-0.01 0.03,-0.01 0.03,-0.01 0.03,0 0.06,-0.02 0.05,0 0.06,-0.01 0.05,-0.01 0.05,0 0.05,0 0.05,-0.01 0.05,0 0.05,0 0.04,0 0.05,0 v 0.22 c -0.22,0 -0.34,0 -0.53,0.05 h 0 c 0.23,0.08 0.44,0.09 0.61,0.09 0.25,0 0.29,-0.01 0.47,-0.06 -0.15,-0.07 -0.17,-0.08 -0.55,-0.08 v -0.22 c 0.26,0 0.8,0 0.8,0.31 0,0.24 -0.34,0.27 -0.72,0.27 -0.21,0 -0.56,-0.02 -0.93,-0.19 -0.22,0.12 -0.39,0.31 -0.39,0.57 0,0.61 0.97,0.97 1.87,0.97 0.16,0 0.51,0 0.91,-0.28 0.11,-0.08 0.13,-0.1 0.2,-0.1 0.13,0 0.27,0.13 0.27,0.27 0,0.19 -0.61,0.56 -1.28,0.56 -1.15,0 -2.22,-0.66 -2.22,-1.42 0,-0.42 0.35,-0.67 0.4,-0.7 -0.59,-0.33 -0.91,-0.89 -0.91,-1.34 0,-0.65 0.57,-1.25 1.62,-1.25 1.32,0 1.87,0.87 1.87,1.02 0,0.06 -0.05,0.1 -0.11,0.1 -0.05,0 -0.08,-0.04 -0.1,-0.07 -0.14,-0.23 -0.37,-0.6 -1.57,-0.6 -0.61,0 -1.45,0.15 -1.45,0.86 0,0.33 0.28,0.86 0.88,1.16 z"
         id="path28573"
         inkscape:connector-curvature="0" /></g>    <g
       style="font-style:normal;font-variant:normal;font-weight:normal;font-stretch:normal;letter-spacing:normal;word-spacing:normal;text-anchor:start;fill:#17a000;fill-opacity:1;fill-rule:evenodd;stroke:#000000;stroke-linecap:butt;stroke-linejoin:miter;stroke-miterlimit:10.43299961;stroke-opacity:1;stroke-dasharray:none;stroke-dashoffset:0"
       ns0:preamble=""
       ns0:text="$-\\varepsilon$"
       word-spacing="normal"
       letter-spacing="normal"
       font-size-adjust="none"
       font-stretch="normal"
       font-weight="normal"
       font-variant="normal"
       font-style="normal"
       stroke-miterlimit="10.433"
       xml:space="preserve"
       transform="matrix(2.48832,0,0,-2.48832,-92.43529,2560.1277)"
       id="g28603"><path
         inkscape:connector-curvature="0"
         id="path28605"
         d="m 229.99,709.41 0.03,0 0.03,0 0.03,0 0.02,0 0.01,0 0.02,0 0.01,0.01 0.02,0 0.01,0 0.02,0 0.01,0.01 0.01,0 0.02,0 0.01,0.01 0.01,0.01 0.01,0 0.01,0.01 0.01,0.01 0.01,0 0.01,0.01 0.01,0.01 0,0.01 0,0 0.01,0.01 0,0.01 0,0 0,0.01 0.01,0.01 0,0 0,0.01 0,0.01 0,0.01 0,0 0.01,0.01 0,0.01 0,0.01 0,0.01 c 0,0.2 -0.18,0.2 -0.35,0.2 h -5.38 c -0.17,0 -0.35,0 -0.35,-0.2 0,-0.2 0.18,-0.2 0.35,-0.2 z"
         style="fill:#17a000;fill-opacity:1;stroke-width:0" /><path
         inkscape:connector-curvature="0"
         id="path28607"
         d="m 232.58,709.38 0.03,-0.01 0.04,-0.01 0.03,-0.02 0.03,-0.01 0.02,-0.01 0.03,0 0.03,-0.01 0.03,-0.01 0.03,-0.01 0.03,0 0.06,-0.02 0.05,0 0.06,-0.01 0.05,-0.01 0.05,0 0.05,0 0.05,-0.01 0.05,0 0.05,0 0.04,0 0.05,0 v 0.22 c -0.22,0 -0.34,0 -0.53,0.05 h 0 c 0.23,0.08 0.44,0.09 0.61,0.09 0.25,0 0.29,-0.01 0.47,-0.06 -0.15,-0.07 -0.17,-0.08 -0.55,-0.08 v -0.22 c 0.26,0 0.8,0 0.8,0.31 0,0.24 -0.34,0.27 -0.72,0.27 -0.21,0 -0.56,-0.02 -0.93,-0.19 -0.22,0.12 -0.39,0.31 -0.39,0.57 0,0.61 0.97,0.97 1.87,0.97 0.16,0 0.51,0 0.91,-0.28 0.11,-0.08 0.13,-0.1 0.2,-0.1 0.13,0 0.27,0.13 0.27,0.27 0,0.19 -0.61,0.56 -1.28,0.56 -1.15,0 -2.22,-0.66 -2.22,-1.42 0,-0.42 0.35,-0.67 0.4,-0.7 -0.59,-0.33 -0.91,-0.89 -0.91,-1.34 0,-0.65 0.57,-1.25 1.62,-1.25 1.32,0 1.87,0.87 1.87,1.02 0,0.06 -0.05,0.1 -0.11,0.1 -0.05,0 -0.08,-0.04 -0.1,-0.07 -0.14,-0.23 -0.37,-0.6 -1.57,-0.6 -0.61,0 -1.45,0.15 -1.45,0.86 0,0.33 0.28,0.86 0.88,1.16 z"
         style="fill:#17a000;fill-opacity:1;stroke-width:0" /></g>    <g
       style="font-style:normal;font-variant:normal;font-weight:normal;font-stretch:normal;letter-spacing:normal;word-spacing:normal;text-anchor:start;fill:#17a000;fill-opacity:1;stroke:none"
       ns0:preamble=""
       ns0:text="$+\\varepsilon$"
       word-spacing="normal"
       letter-spacing="normal"
       font-size-adjust="none"
       font-stretch="normal"
       font-weight="normal"
       font-variant="normal"
       font-style="normal"
       stroke-miterlimit="10.433"
       xml:space="preserve"
       transform="matrix(2.48832,0,0,-2.48832,-114.19698,2637.9991)"
       id="g28609"><path
         id="path28611"
         d="m 227.5,709.41 h 2.78 c 0.14,0 0.32,0 0.32,0.2 0,0.2 -0.18,0.2 -0.32,0.2 h -2.78 v 2.78 c 0,0.14 0,0.33 -0.2,0.33 -0.2,0 -0.2,-0.19 -0.2,-0.33 v -2.78 h -2.78 c -0.14,0 -0.33,0 -0.33,-0.2 0,-0.2 0.19,-0.2 0.33,-0.2 h 2.78 v -2.78 c 0,-0.14 0,-0.33 0.2,-0.33 0.2,0 0.2,0.19 0.2,0.33 z"
         inkscape:connector-curvature="0"
         style="fill:#17a000;fill-opacity:1;stroke:none" /><path
         id="path28613"
         d="m 232.58,709.38 0.03,-0.01 0.04,-0.01 0.03,-0.02 0.03,-0.01 0.02,-0.01 0.03,0 0.03,-0.01 0.03,-0.01 0.03,-0.01 0.03,0 0.06,-0.02 0.05,0 0.06,-0.01 0.05,-0.01 0.05,0 0.05,0 0.05,-0.01 0.05,0 0.05,0 0.04,0 0.05,0 v 0.22 c -0.22,0 -0.34,0 -0.53,0.05 h 0 c 0.23,0.08 0.44,0.09 0.61,0.09 0.25,0 0.29,-0.01 0.47,-0.06 -0.15,-0.07 -0.17,-0.08 -0.55,-0.08 v -0.22 c 0.26,0 0.8,0 0.8,0.31 0,0.24 -0.34,0.27 -0.72,0.27 -0.21,0 -0.56,-0.02 -0.93,-0.19 -0.22,0.12 -0.39,0.31 -0.39,0.57 0,0.61 0.97,0.97 1.87,0.97 0.16,0 0.51,0 0.91,-0.28 0.11,-0.08 0.13,-0.1 0.2,-0.1 0.13,0 0.27,0.13 0.27,0.27 0,0.19 -0.61,0.56 -1.28,0.56 -1.15,0 -2.22,-0.66 -2.22,-1.42 0,-0.42 0.35,-0.67 0.4,-0.7 -0.59,-0.33 -0.91,-0.89 -0.91,-1.34 0,-0.65 0.57,-1.25 1.62,-1.25 1.32,0 1.87,0.87 1.87,1.02 0,0.06 -0.05,0.1 -0.11,0.1 -0.05,0 -0.08,-0.04 -0.1,-0.07 -0.14,-0.23 -0.37,-0.6 -1.57,-0.6 -0.61,0 -1.45,0.15 -1.45,0.86 0,0.33 0.28,0.86 0.88,1.16 z"
         inkscape:connector-curvature="0"
         style="fill:#17a000;fill-opacity:1;stroke:none" /></g>    <g
       style="font-style:normal;font-variant:normal;font-weight:normal;font-stretch:normal;letter-spacing:normal;word-spacing:normal;text-anchor:start;fill:#17a000;fill-opacity:1;fill-rule:evenodd;stroke:none"
       ns0:preamble=""
       ns0:text="$e$"
       text-anchor="start"
       word-spacing="normal"
       letter-spacing="normal"
       font-size-adjust="none"
       font-stretch="normal"
       font-weight="normal"
       font-variant="normal"
       font-style="normal"
       fill-opacity="1"
       fill-rule="evenodd"
       fill="none"
       stroke-opacity="1"
       stroke-dashoffset="0"
       stroke-dasharray="none"
       stroke-miterlimit="10.433"
       stroke-linejoin="miter"
       stroke-linecap="butt"
       stroke="black"
       xml:space="preserve"
       transform="matrix(2.48832,0,0,-2.48832,-530.14629,2383.943)"
       id="g28682"><path
         id="path28684"
         fill="black"
         stroke-width="0"
         d="M225.29,709.42 L225.32,709.42 L225.35,709.42 L225.38,709.42 L225.42,709.42 L225.46,709.42 L225.5,709.42 L225.54,709.42 L225.58,709.43 L225.63,709.43 L225.67,709.43 L225.72,709.43 L225.77,709.44 L225.82,709.44 L225.87,709.45 L225.98,709.46 L226.08,709.47 L226.19,709.48 L226.3,709.5 L226.41,709.52 L226.51,709.55 L226.57,709.56 L226.62,709.58 L226.67,709.59 L226.72,709.61 L226.77,709.63 L226.82,709.65 C227.51,709.95,227.56,710.53,227.56,710.67 C227.56,711.11,227.18,711.52,226.5,711.52 V711.3 C226.96,711.3,227.23,711.01,227.23,710.67 C227.23,709.64,225.64,709.64,225.23,709.64 H224.82 C225.21,711.15,226.24,711.3,226.5,711.3 V711.52 C225.39,711.52,223.89,710.55,223.89,708.81 C223.89,707.8,224.48,707.02,225.45,707.02 C226.87,707.02,227.71,708.07,227.71,708.19 C227.71,708.25,227.65,708.32,227.59,708.32 C227.54,708.32,227.52,708.3,227.46,708.22 C226.68,707.23,225.59,707.23,225.47,707.23 C224.7,707.23,224.61,708.07,224.61,708.39 C224.61,708.51,224.62,708.81,224.76,709.42 Z " /></g>    <g
       id="g12909"
       transform="matrix(2.48832,0,0,-2.48832,-639.14629,2454.943)"
       xml:space="preserve"
       stroke="black"
       stroke-linecap="butt"
       stroke-linejoin="miter"
       stroke-miterlimit="10.433"
       stroke-dasharray="none"
       stroke-dashoffset="0"
       stroke-opacity="1"
       fill="none"
       fill-rule="evenodd"
       fill-opacity="1"
       font-style="normal"
       font-variant="normal"
       font-weight="normal"
       font-stretch="normal"
       font-size-adjust="none"
       letter-spacing="normal"
       word-spacing="normal"
       text-anchor="start"
       ns0:text="$H$"
       ns0:preamble=""
       style="font-style:normal;font-variant:normal;font-weight:normal;font-stretch:normal;letter-spacing:normal;word-spacing:normal;text-anchor:start;fill:#17a000;fill-opacity:1;fill-rule:evenodd;stroke:none"><path
         d="M231.02,713.15 L231.03,713.18 L231.04,713.21 L231.05,713.24 L231.05,713.27 L231.06,713.29 L231.07,713.32 L231.08,713.34 L231.09,713.37 L231.1,713.39 L231.11,713.41 L231.12,713.43 L231.14,713.45 L231.15,713.46 L231.17,713.48 L231.18,713.49 L231.2,713.51 L231.22,713.52 L231.25,713.53 L231.27,713.54 L231.3,713.55 L231.33,713.56 L231.36,713.57 L231.38,713.57 L231.4,713.57 L231.42,713.58 L231.43,713.58 L231.45,713.58 L231.48,713.59 L231.5,713.59 L231.52,713.59 L231.54,713.59 L231.57,713.59 L231.59,713.6 L231.62,713.6 L231.65,713.6 L231.67,713.6 L231.7,713.6 L231.73,713.6 L231.76,713.6 L231.79,713.6 L231.83,713.6 L231.86,713.6 C232.12,713.6,232.2,713.6,232.2,713.8 C232.2,713.91,232.09,713.91,232.06,713.91 C231.78,713.91,231.06,713.88,230.78,713.88 C230.5,713.88,229.79,713.91,229.5,713.91 C229.42,713.91,229.31,713.91,229.31,713.71 C229.31,713.6,229.4,713.6,229.59,713.6 C229.61,713.6,229.8,713.6,229.97,713.58 C230.15,713.56,230.24,713.55,230.24,713.42 C230.24,713.38,230.23,713.36,230.2,713.23 L229.6,710.81 H226.57 L227.15,713.15 C227.24,713.5,227.27,713.6,227.99,713.6 C228.25,713.6,228.33,713.6,228.33,713.8 C228.33,713.91,228.22,713.91,228.19,713.91 C227.91,713.91,227.19,713.88,226.91,713.88 C226.63,713.88,225.92,713.91,225.63,713.91 C225.55,713.91,225.44,713.91,225.44,713.71 C225.44,713.6,225.53,713.6,225.72,713.6 C225.74,713.6,225.93,713.6,226.1,713.58 C226.28,713.56,226.37,713.55,226.37,713.42 C226.37,713.38,226.36,713.35,226.33,713.23 L224.99,707.9 C224.9,707.51,224.88,707.43,224.09,707.43 C223.91,707.43,223.82,707.43,223.82,707.23 C223.82,707.12,223.94,707.12,223.96,707.12 C224.24,707.12,224.94,707.16,225.22,707.16 C225.43,707.16,225.65,707.15,225.86,707.15 C226.08,707.15,226.3,707.12,226.51,707.12 C226.59,707.12,226.71,707.12,226.71,707.32 C226.71,707.43,226.62,707.43,226.43,707.43 C226.06,707.43,225.78,707.43,225.78,707.61 C225.78,707.67,225.8,707.72,225.81,707.78 L226.49,710.5 H229.52 C229.1,708.85,228.87,707.91,228.83,707.76 C228.74,707.44,228.55,707.43,227.93,707.43 C227.78,707.43,227.69,707.43,227.69,707.23 C227.69,707.12,227.81,707.12,227.83,707.12 C228.11,707.12,228.82,707.16,229.09,707.16 C229.3,707.16,229.52,707.15,229.73,707.15 C229.95,707.15,230.17,707.12,230.38,707.12 C230.46,707.12,230.58,707.12,230.58,707.32 C230.58,707.43,230.49,707.43,230.3,707.43 C229.93,707.43,229.65,707.43,229.65,707.61 C229.65,707.67,229.67,707.72,229.68,707.78 Z "
         stroke-width="0"
         fill="black"
         id="path12911" /></g>    <g
       style="font-style:normal;font-variant:normal;font-weight:normal;font-stretch:normal;letter-spacing:normal;word-spacing:normal;text-anchor:start;fill:#17a000;fill-opacity:1;fill-rule:evenodd;stroke:none"
       ns0:preamble=""
       ns0:text="$H_1$"
       text-anchor="start"
       word-spacing="normal"
       letter-spacing="normal"
       font-size-adjust="none"
       font-stretch="normal"
       font-weight="normal"
       font-variant="normal"
       font-style="normal"
       fill-opacity="1"
       fill-rule="evenodd"
       fill="none"
       stroke-opacity="1"
       stroke-dashoffset="0"
       stroke-dasharray="none"
       stroke-miterlimit="10.433"
       stroke-linejoin="miter"
       stroke-linecap="butt"
       stroke="black"
       xml:space="preserve"
       transform="matrix(2.48832,0,0,-2.48832,-597.25796,2399.3943)"
       id="content"><path
         id="path13081"
         fill="black"
         stroke-width="0"
         d="M231.02,713.15 L231.03,713.18 L231.04,713.21 L231.05,713.24 L231.05,713.27 L231.06,713.29 L231.07,713.32 L231.08,713.34 L231.09,713.37 L231.1,713.39 L231.11,713.41 L231.12,713.43 L231.14,713.45 L231.15,713.46 L231.17,713.48 L231.18,713.49 L231.2,713.51 L231.22,713.52 L231.25,713.53 L231.27,713.54 L231.3,713.55 L231.33,713.56 L231.36,713.57 L231.38,713.57 L231.4,713.57 L231.42,713.58 L231.43,713.58 L231.45,713.58 L231.48,713.59 L231.5,713.59 L231.52,713.59 L231.54,713.59 L231.57,713.59 L231.59,713.6 L231.62,713.6 L231.65,713.6 L231.67,713.6 L231.7,713.6 L231.73,713.6 L231.76,713.6 L231.79,713.6 L231.83,713.6 L231.86,713.6 C232.12,713.6,232.2,713.6,232.2,713.8 C232.2,713.91,232.09,713.91,232.06,713.91 C231.78,713.91,231.06,713.88,230.78,713.88 C230.5,713.88,229.79,713.91,229.5,713.91 C229.42,713.91,229.31,713.91,229.31,713.71 C229.31,713.6,229.4,713.6,229.59,713.6 C229.61,713.6,229.8,713.6,229.97,713.58 C230.15,713.56,230.24,713.55,230.24,713.42 C230.24,713.38,230.23,713.36,230.2,713.23 L229.6,710.81 H226.57 L227.15,713.15 C227.24,713.5,227.27,713.6,227.99,713.6 C228.25,713.6,228.33,713.6,228.33,713.8 C228.33,713.91,228.22,713.91,228.19,713.91 C227.91,713.91,227.19,713.88,226.91,713.88 C226.63,713.88,225.92,713.91,225.63,713.91 C225.55,713.91,225.44,713.91,225.44,713.71 C225.44,713.6,225.53,713.6,225.72,713.6 C225.74,713.6,225.93,713.6,226.1,713.58 C226.28,713.56,226.37,713.55,226.37,713.42 C226.37,713.38,226.36,713.35,226.33,713.23 L224.99,707.9 C224.9,707.51,224.88,707.43,224.09,707.43 C223.91,707.43,223.82,707.43,223.82,707.23 C223.82,707.12,223.94,707.12,223.96,707.12 C224.24,707.12,224.94,707.16,225.22,707.16 C225.43,707.16,225.65,707.15,225.86,707.15 C226.08,707.15,226.3,707.12,226.51,707.12 C226.59,707.12,226.71,707.12,226.71,707.32 C226.71,707.43,226.62,707.43,226.43,707.43 C226.06,707.43,225.78,707.43,225.78,707.61 C225.78,707.67,225.8,707.72,225.81,707.78 L226.49,710.5 H229.52 C229.1,708.85,228.87,707.91,228.83,707.76 C228.74,707.44,228.55,707.43,227.93,707.43 C227.78,707.43,227.69,707.43,227.69,707.23 C227.69,707.12,227.81,707.12,227.83,707.12 C228.11,707.12,228.82,707.16,229.09,707.16 C229.3,707.16,229.52,707.15,229.73,707.15 C229.95,707.15,230.17,707.12,230.38,707.12 C230.46,707.12,230.58,707.12,230.58,707.32 C230.58,707.43,230.49,707.43,230.3,707.43 C229.93,707.43,229.65,707.43,229.65,707.61 C229.65,707.67,229.67,707.72,229.68,707.78 Z " /><path
         id="path13083"
         fill="black"
         stroke-width="0"
         d="M234.05,710.05 L234.05,710.06 L234.05,710.07 L234.05,710.08 L234.05,710.09 L234.05,710.09 L234.05,710.1 L234.05,710.11 L234.05,710.12 L234.05,710.12 L234.05,710.13 L234.04,710.14 L234.04,710.14 L234.04,710.15 L234.04,710.15 L234.04,710.16 L234.04,710.16 L234.04,710.17 L234.04,710.17 L234.04,710.18 L234.04,710.19 L234.03,710.2 L234.03,710.2 L234.02,710.21 L234.02,710.22 L234.02,710.22 L234.01,710.23 L234,710.23 L234,710.23 L233.99,710.24 L233.98,710.24 L233.97,710.24 L233.96,710.24 L233.96,710.24 L233.95,710.24 L233.95,710.24 L233.94,710.25 L233.94,710.25 L233.93,710.25 L233.92,710.25 L233.92,710.25 L233.91,710.25 L233.9,710.25 L233.9,710.25 L233.89,710.25 L233.88,710.25 L233.87,710.25 L233.86,710.25 L233.86,710.25 L233.85,710.25 L233.84,710.25 C233.39,709.81,232.76,709.8,232.47,709.8 V709.55 C232.64,709.55,233.1,709.55,233.48,709.75 V706.2 C233.48,705.97,233.48,705.88,232.79,705.88 H232.52 V705.63 C232.65,705.64,233.5,705.66,233.76,705.66 C233.98,705.66,234.85,705.64,235.01,705.63 V705.88 H234.74 C234.05,705.88,234.05,705.97,234.05,706.2 Z " /></g>    <g
       id="g13252"
       transform="matrix(2.48832,0,0,-2.48832,-598.5128,2525.9064)"
       xml:space="preserve"
       stroke="black"
       stroke-linecap="butt"
       stroke-linejoin="miter"
       stroke-miterlimit="10.433"
       stroke-dasharray="none"
       stroke-dashoffset="0"
       stroke-opacity="1"
       fill="none"
       fill-rule="evenodd"
       fill-opacity="1"
       font-style="normal"
       font-variant="normal"
       font-weight="normal"
       font-stretch="normal"
       font-size-adjust="none"
       letter-spacing="normal"
       word-spacing="normal"
       text-anchor="start"
       ns0:text="$H_2$"
       ns0:preamble=""
       style="font-style:normal;font-variant:normal;font-weight:normal;font-stretch:normal;letter-spacing:normal;word-spacing:normal;text-anchor:start;fill:#17a000;fill-opacity:1;fill-rule:evenodd;stroke:none"><path
         d="M231.02,713.15 L231.03,713.18 L231.04,713.21 L231.05,713.24 L231.05,713.27 L231.06,713.29 L231.07,713.32 L231.08,713.34 L231.09,713.37 L231.1,713.39 L231.11,713.41 L231.12,713.43 L231.14,713.45 L231.15,713.46 L231.17,713.48 L231.18,713.49 L231.2,713.51 L231.22,713.52 L231.25,713.53 L231.27,713.54 L231.3,713.55 L231.33,713.56 L231.36,713.57 L231.38,713.57 L231.4,713.57 L231.42,713.58 L231.43,713.58 L231.45,713.58 L231.48,713.59 L231.5,713.59 L231.52,713.59 L231.54,713.59 L231.57,713.59 L231.59,713.6 L231.62,713.6 L231.65,713.6 L231.67,713.6 L231.7,713.6 L231.73,713.6 L231.76,713.6 L231.79,713.6 L231.83,713.6 L231.86,713.6 C232.12,713.6,232.2,713.6,232.2,713.8 C232.2,713.91,232.09,713.91,232.06,713.91 C231.78,713.91,231.06,713.88,230.78,713.88 C230.5,713.88,229.79,713.91,229.5,713.91 C229.42,713.91,229.31,713.91,229.31,713.71 C229.31,713.6,229.4,713.6,229.59,713.6 C229.61,713.6,229.8,713.6,229.97,713.58 C230.15,713.56,230.24,713.55,230.24,713.42 C230.24,713.38,230.23,713.36,230.2,713.23 L229.6,710.81 H226.57 L227.15,713.15 C227.24,713.5,227.27,713.6,227.99,713.6 C228.25,713.6,228.33,713.6,228.33,713.8 C228.33,713.91,228.22,713.91,228.19,713.91 C227.91,713.91,227.19,713.88,226.91,713.88 C226.63,713.88,225.92,713.91,225.63,713.91 C225.55,713.91,225.44,713.91,225.44,713.71 C225.44,713.6,225.53,713.6,225.72,713.6 C225.74,713.6,225.93,713.6,226.1,713.58 C226.28,713.56,226.37,713.55,226.37,713.42 C226.37,713.38,226.36,713.35,226.33,713.23 L224.99,707.9 C224.9,707.51,224.88,707.43,224.09,707.43 C223.91,707.43,223.82,707.43,223.82,707.23 C223.82,707.12,223.94,707.12,223.96,707.12 C224.24,707.12,224.94,707.16,225.22,707.16 C225.43,707.16,225.65,707.15,225.86,707.15 C226.08,707.15,226.3,707.12,226.51,707.12 C226.59,707.12,226.71,707.12,226.71,707.32 C226.71,707.43,226.62,707.43,226.43,707.43 C226.06,707.43,225.78,707.43,225.78,707.61 C225.78,707.67,225.8,707.72,225.81,707.78 L226.49,710.5 H229.52 C229.1,708.85,228.87,707.91,228.83,707.76 C228.74,707.44,228.55,707.43,227.93,707.43 C227.78,707.43,227.69,707.43,227.69,707.23 C227.69,707.12,227.81,707.12,227.83,707.12 C228.11,707.12,228.82,707.16,229.09,707.16 C229.3,707.16,229.52,707.15,229.73,707.15 C229.95,707.15,230.17,707.12,230.38,707.12 C230.46,707.12,230.58,707.12,230.58,707.32 C230.58,707.43,230.49,707.43,230.3,707.43 C229.93,707.43,229.65,707.43,229.65,707.61 C229.65,707.67,229.67,707.72,229.68,707.78 Z "
         stroke-width="0"
         fill="black"
         id="path13254" /><path
         d="M235.23,706.9 H234.99 C234.97,706.74,234.9,706.33,234.81,706.26 C234.76,706.22,234.22,706.22,234.12,706.22 H232.84 C233.57,706.87,233.82,707.06,234.24,707.39 C234.75,707.8,235.23,708.23,235.23,708.89 C235.23,709.73,234.49,710.25,233.6,710.25 C232.74,710.25,232.15,709.64,232.15,709 C232.15,708.65,232.45,708.61,232.52,708.61 C232.69,708.61,232.89,708.73,232.89,708.98 C232.89,709.11,232.84,709.35,232.48,709.35 C232.7,709.84,233.17,710,233.5,710 C234.19,710,234.55,709.46,234.55,708.89 C234.55,708.29,234.12,707.81,233.9,707.56 L232.22,705.9 C232.15,705.84,232.15,705.83,232.15,705.63 H235.02 Z "
         stroke-width="0"
         fill="black"
         id="path13256" /></g>    <g
       style="font-style:normal;font-variant:normal;font-weight:normal;font-stretch:normal;letter-spacing:normal;word-spacing:normal;text-anchor:start;fill:#17a000;fill-opacity:1;fill-rule:evenodd;stroke:none"
       ns0:preamble=""
       ns0:text="$K$"
       word-spacing="normal"
       letter-spacing="normal"
       font-size-adjust="none"
       font-stretch="normal"
       font-weight="normal"
       font-variant="normal"
       font-style="normal"
       stroke-miterlimit="10.433"
       xml:space="preserve"
       transform="matrix(2.48832,0,0,-2.48832,-450.277,2404.1866)"
       id="g13426"><path
         id="path13428"
         d="m 228.5,711.14 -0.01,0 0,0 0,0.01 0,0 0,0.01 0,0 0,0 -0.01,0.01 0,0 0,0.01 0,0 0,0.01 -0.01,0.01 0,0.01 -0.01,0.01 0,0.01 0,0 0,0.01 -0.01,0 0,0.01 0,0 0,0.01 0,0 0,0 0,0.01 0,0 0,0 0,0.01 c 0,0.01 0.18,0.15 0.29,0.23 l 1.74,1.34 c 0.93,0.68 1.32,0.72 1.62,0.75 0.08,0.01 0.18,0.02 0.18,0.2 0,0.04 -0.03,0.11 -0.11,0.11 -0.22,0 -0.47,-0.03 -0.71,-0.03 -0.36,0 -0.75,0.03 -1.1,0.03 -0.07,0 -0.19,0 -0.19,-0.2 0,-0.07 0.05,-0.1 0.12,-0.11 0.22,-0.02 0.31,-0.07 0.31,-0.21 0,-0.18 -0.3,-0.4 -0.36,-0.45 l -3.88,-2.98 0.79,3.19 c 0.09,0.35 0.11,0.45 0.84,0.45 0.25,0 0.34,0 0.34,0.2 0,0.09 -0.08,0.11 -0.14,0.11 -0.28,0 -1,-0.03 -1.28,-0.03 -0.28,0 -0.99,0.03 -1.28,0.03 -0.07,0 -0.2,0 -0.2,-0.19 0,-0.12 0.09,-0.12 0.29,-0.12 0.13,0 0.31,-0.01 0.43,-0.02 0.16,-0.02 0.22,-0.05 0.22,-0.16 0,-0.04 -0.01,-0.07 -0.04,-0.19 l -1.34,-5.33 c -0.09,-0.39 -0.11,-0.47 -0.9,-0.47 -0.17,0 -0.28,0 -0.28,-0.19 0,-0.12 0.12,-0.12 0.15,-0.12 0.28,0 0.98,0.04 1.26,0.04 0.21,0 0.43,-0.01 0.64,-0.01 0.22,0 0.44,-0.03 0.65,-0.03 0.07,0 0.2,0 0.2,0.2 0,0.11 -0.09,0.11 -0.28,0.11 -0.37,0 -0.65,0 -0.65,0.18 0,0.07 0.06,0.29 0.09,0.44 0.14,0.52 0.27,1.04 0.4,1.56 l 1.48,1.15 1.15,-2.67 c 0.12,-0.27 0.12,-0.29 0.12,-0.35 0,-0.3 -0.42,-0.31 -0.51,-0.31 -0.11,0 -0.22,0 -0.22,-0.2 0,-0.11 0.12,-0.11 0.14,-0.11 0.39,0 0.81,0.04 1.21,0.04 0.22,0 0.76,-0.04 0.98,-0.04 0.04,0 0.17,0 0.17,0.2 0,0.11 -0.11,0.11 -0.19,0.11 -0.41,0.01 -0.54,0.1 -0.69,0.45 z"
         inkscape:connector-curvature="0"
         style="fill:#000000" /></g>    <g
       id="g13535"
       transform="matrix(2.48832,0,0,-2.48832,68.723,2406.1866)"
       xml:space="preserve"
       stroke-miterlimit="10.433"
       font-style="normal"
       font-variant="normal"
       font-weight="normal"
       font-stretch="normal"
       font-size-adjust="none"
       letter-spacing="normal"
       word-spacing="normal"
       ns0:text="$K$"
       ns0:preamble=""
       style="font-style:normal;font-variant:normal;font-weight:normal;font-stretch:normal;letter-spacing:normal;word-spacing:normal;text-anchor:start;fill:#17a000;fill-opacity:1;fill-rule:evenodd;stroke:none"><path
         style="fill:#000000"
         inkscape:connector-curvature="0"
         d="m 228.5,711.14 -0.01,0 0,0 0,0.01 0,0 0,0.01 0,0 0,0 -0.01,0.01 0,0 0,0.01 0,0 0,0.01 -0.01,0.01 0,0.01 -0.01,0.01 0,0.01 0,0 0,0.01 -0.01,0 0,0.01 0,0 0,0.01 0,0 0,0 0,0.01 0,0 0,0 0,0.01 c 0,0.01 0.18,0.15 0.29,0.23 l 1.74,1.34 c 0.93,0.68 1.32,0.72 1.62,0.75 0.08,0.01 0.18,0.02 0.18,0.2 0,0.04 -0.03,0.11 -0.11,0.11 -0.22,0 -0.47,-0.03 -0.71,-0.03 -0.36,0 -0.75,0.03 -1.1,0.03 -0.07,0 -0.19,0 -0.19,-0.2 0,-0.07 0.05,-0.1 0.12,-0.11 0.22,-0.02 0.31,-0.07 0.31,-0.21 0,-0.18 -0.3,-0.4 -0.36,-0.45 l -3.88,-2.98 0.79,3.19 c 0.09,0.35 0.11,0.45 0.84,0.45 0.25,0 0.34,0 0.34,0.2 0,0.09 -0.08,0.11 -0.14,0.11 -0.28,0 -1,-0.03 -1.28,-0.03 -0.28,0 -0.99,0.03 -1.28,0.03 -0.07,0 -0.2,0 -0.2,-0.19 0,-0.12 0.09,-0.12 0.29,-0.12 0.13,0 0.31,-0.01 0.43,-0.02 0.16,-0.02 0.22,-0.05 0.22,-0.16 0,-0.04 -0.01,-0.07 -0.04,-0.19 l -1.34,-5.33 c -0.09,-0.39 -0.11,-0.47 -0.9,-0.47 -0.17,0 -0.28,0 -0.28,-0.19 0,-0.12 0.12,-0.12 0.15,-0.12 0.28,0 0.98,0.04 1.26,0.04 0.21,0 0.43,-0.01 0.64,-0.01 0.22,0 0.44,-0.03 0.65,-0.03 0.07,0 0.2,0 0.2,0.2 0,0.11 -0.09,0.11 -0.28,0.11 -0.37,0 -0.65,0 -0.65,0.18 0,0.07 0.06,0.29 0.09,0.44 0.14,0.52 0.27,1.04 0.4,1.56 l 1.48,1.15 1.15,-2.67 c 0.12,-0.27 0.12,-0.29 0.12,-0.35 0,-0.3 -0.42,-0.31 -0.51,-0.31 -0.11,0 -0.22,0 -0.22,-0.2 0,-0.11 0.12,-0.11 0.14,-0.11 0.39,0 0.81,0.04 1.21,0.04 0.22,0 0.76,-0.04 0.98,-0.04 0.04,0 0.17,0 0.17,0.2 0,0.11 -0.11,0.11 -0.19,0.11 -0.41,0.01 -0.54,0.1 -0.69,0.45 z"
         id="path13537" /></g>    <g
       id="g13539"
       transform="matrix(2.48832,0,0,-2.48832,-58.25796,2518.3943)"
       xml:space="preserve"
       stroke-miterlimit="10.433"
       font-style="normal"
       font-variant="normal"
       font-weight="normal"
       font-stretch="normal"
       font-size-adjust="none"
       letter-spacing="normal"
       word-spacing="normal"
       ns0:text="$H_1$"
       ns0:preamble=""
       style="font-style:normal;font-variant:normal;font-weight:normal;font-stretch:normal;letter-spacing:normal;word-spacing:normal;text-anchor:start;fill:#17a000;fill-opacity:1;fill-rule:evenodd;stroke:none"><path
         d="m 231.02,713.15 0.01,0.03 0.01,0.03 0.01,0.03 0,0.03 0.01,0.02 0.01,0.03 0.01,0.02 0.01,0.03 0.01,0.02 0.01,0.02 0.01,0.02 0.02,0.02 0.01,0.01 0.02,0.02 0.01,0.01 0.02,0.02 0.02,0.01 0.03,0.01 0.02,0.01 0.03,0.01 0.03,0.01 0.03,0.01 0.02,0 0.02,0 0.02,0.01 0.01,0 0.02,0 0.03,0.01 0.02,0 0.02,0 0.02,0 0.03,0 0.02,0.01 0.03,0 0.03,0 0.02,0 0.03,0 0.03,0 0.03,0 0.03,0 0.04,0 0.03,0 c 0.26,0 0.34,0 0.34,0.2 0,0.11 -0.11,0.11 -0.14,0.11 -0.28,0 -1,-0.03 -1.28,-0.03 -0.28,0 -0.99,0.03 -1.28,0.03 -0.08,0 -0.19,0 -0.19,-0.2 0,-0.11 0.09,-0.11 0.28,-0.11 0.02,0 0.21,0 0.38,-0.02 0.18,-0.02 0.27,-0.03 0.27,-0.16 0,-0.04 -0.01,-0.06 -0.04,-0.19 l -0.6,-2.42 h -3.03 l 0.58,2.34 c 0.09,0.35 0.12,0.45 0.84,0.45 0.26,0 0.34,0 0.34,0.2 0,0.11 -0.11,0.11 -0.14,0.11 -0.28,0 -1,-0.03 -1.28,-0.03 -0.28,0 -0.99,0.03 -1.28,0.03 -0.08,0 -0.19,0 -0.19,-0.2 0,-0.11 0.09,-0.11 0.28,-0.11 0.02,0 0.21,0 0.38,-0.02 0.18,-0.02 0.27,-0.03 0.27,-0.16 0,-0.04 -0.01,-0.07 -0.04,-0.19 l -1.34,-5.33 c -0.09,-0.39 -0.11,-0.47 -0.9,-0.47 -0.18,0 -0.27,0 -0.27,-0.2 0,-0.11 0.12,-0.11 0.14,-0.11 0.28,0 0.98,0.04 1.26,0.04 0.21,0 0.43,-0.01 0.64,-0.01 0.22,0 0.44,-0.03 0.65,-0.03 0.08,0 0.2,0 0.2,0.2 0,0.11 -0.09,0.11 -0.28,0.11 -0.37,0 -0.65,0 -0.65,0.18 0,0.06 0.02,0.11 0.03,0.17 l 0.68,2.72 h 3.03 c -0.42,-1.65 -0.65,-2.59 -0.69,-2.74 -0.09,-0.32 -0.28,-0.33 -0.9,-0.33 -0.15,0 -0.24,0 -0.24,-0.2 0,-0.11 0.12,-0.11 0.14,-0.11 0.28,0 0.99,0.04 1.26,0.04 0.21,0 0.43,-0.01 0.64,-0.01 0.22,0 0.44,-0.03 0.65,-0.03 0.08,0 0.2,0 0.2,0.2 0,0.11 -0.09,0.11 -0.28,0.11 -0.37,0 -0.65,0 -0.65,0.18 0,0.06 0.02,0.11 0.03,0.17 z"
         id="path13541"
         inkscape:connector-curvature="0"
         style="fill:#000000" /><path
         d="m 234.05,710.05 0,0.01 0,0.01 0,0.01 0,0.01 0,0 0,0.01 0,0.01 0,0.01 0,0 0,0.01 -0.01,0.01 0,0 0,0.01 0,0 0,0.01 0,0 0,0.01 0,0 0,0.01 0,0.01 -0.01,0.01 0,0 -0.01,0.01 0,0.01 0,0 -0.01,0.01 -0.01,0 0,0 -0.01,0.01 -0.01,0 -0.01,0 -0.01,0 0,0 -0.01,0 0,0 -0.01,0.01 0,0 -0.01,0 -0.01,0 0,0 -0.01,0 -0.01,0 0,0 -0.01,0 -0.01,0 -0.01,0 -0.01,0 0,0 -0.01,0 -0.01,0 c -0.45,-0.44 -1.08,-0.45 -1.37,-0.45 v -0.25 c 0.17,0 0.63,0 1.01,0.2 v -3.55 c 0,-0.23 0,-0.32 -0.69,-0.32 h -0.27 v -0.25 c 0.13,0.01 0.98,0.03 1.24,0.03 0.22,0 1.09,-0.02 1.25,-0.03 v 0.25 h -0.27 c -0.69,0 -0.69,0.09 -0.69,0.32 z"
         id="path13543"
         inkscape:connector-curvature="0"
         style="fill:#000000" /></g>    <g
       style="font-style:normal;font-variant:normal;font-weight:normal;font-stretch:normal;letter-spacing:normal;word-spacing:normal;text-anchor:start;fill:#17a000;fill-opacity:1;fill-rule:evenodd;stroke:none"
       ns0:preamble=""
       ns0:text="$H_2$"
       word-spacing="normal"
       letter-spacing="normal"
       font-size-adjust="none"
       font-stretch="normal"
       font-weight="normal"
       font-variant="normal"
       font-style="normal"
       stroke-miterlimit="10.433"
       xml:space="preserve"
       transform="matrix(2.48832,0,0,-2.48832,-60.5128,2645.9064)"
       id="g13545"><path
         id="path13547"
         d="m 231.02,713.15 0.01,0.03 0.01,0.03 0.01,0.03 0,0.03 0.01,0.02 0.01,0.03 0.01,0.02 0.01,0.03 0.01,0.02 0.01,0.02 0.01,0.02 0.02,0.02 0.01,0.01 0.02,0.02 0.01,0.01 0.02,0.02 0.02,0.01 0.03,0.01 0.02,0.01 0.03,0.01 0.03,0.01 0.03,0.01 0.02,0 0.02,0 0.02,0.01 0.01,0 0.02,0 0.03,0.01 0.02,0 0.02,0 0.02,0 0.03,0 0.02,0.01 0.03,0 0.03,0 0.02,0 0.03,0 0.03,0 0.03,0 0.03,0 0.04,0 0.03,0 c 0.26,0 0.34,0 0.34,0.2 0,0.11 -0.11,0.11 -0.14,0.11 -0.28,0 -1,-0.03 -1.28,-0.03 -0.28,0 -0.99,0.03 -1.28,0.03 -0.08,0 -0.19,0 -0.19,-0.2 0,-0.11 0.09,-0.11 0.28,-0.11 0.02,0 0.21,0 0.38,-0.02 0.18,-0.02 0.27,-0.03 0.27,-0.16 0,-0.04 -0.01,-0.06 -0.04,-0.19 l -0.6,-2.42 h -3.03 l 0.58,2.34 c 0.09,0.35 0.12,0.45 0.84,0.45 0.26,0 0.34,0 0.34,0.2 0,0.11 -0.11,0.11 -0.14,0.11 -0.28,0 -1,-0.03 -1.28,-0.03 -0.28,0 -0.99,0.03 -1.28,0.03 -0.08,0 -0.19,0 -0.19,-0.2 0,-0.11 0.09,-0.11 0.28,-0.11 0.02,0 0.21,0 0.38,-0.02 0.18,-0.02 0.27,-0.03 0.27,-0.16 0,-0.04 -0.01,-0.07 -0.04,-0.19 l -1.34,-5.33 c -0.09,-0.39 -0.11,-0.47 -0.9,-0.47 -0.18,0 -0.27,0 -0.27,-0.2 0,-0.11 0.12,-0.11 0.14,-0.11 0.28,0 0.98,0.04 1.26,0.04 0.21,0 0.43,-0.01 0.64,-0.01 0.22,0 0.44,-0.03 0.65,-0.03 0.08,0 0.2,0 0.2,0.2 0,0.11 -0.09,0.11 -0.28,0.11 -0.37,0 -0.65,0 -0.65,0.18 0,0.06 0.02,0.11 0.03,0.17 l 0.68,2.72 h 3.03 c -0.42,-1.65 -0.65,-2.59 -0.69,-2.74 -0.09,-0.32 -0.28,-0.33 -0.9,-0.33 -0.15,0 -0.24,0 -0.24,-0.2 0,-0.11 0.12,-0.11 0.14,-0.11 0.28,0 0.99,0.04 1.26,0.04 0.21,0 0.43,-0.01 0.64,-0.01 0.22,0 0.44,-0.03 0.65,-0.03 0.08,0 0.2,0 0.2,0.2 0,0.11 -0.09,0.11 -0.28,0.11 -0.37,0 -0.65,0 -0.65,0.18 0,0.06 0.02,0.11 0.03,0.17 z"
         inkscape:connector-curvature="0"
         style="fill:#000000" /><path
         id="path13549"
         d="m 235.23,706.9 h -0.24 c -0.02,-0.16 -0.09,-0.57 -0.18,-0.64 -0.05,-0.04 -0.59,-0.04 -0.69,-0.04 h -1.28 c 0.73,0.65 0.98,0.84 1.4,1.17 0.51,0.41 0.99,0.84 0.99,1.5 0,0.84 -0.74,1.36 -1.63,1.36 -0.86,0 -1.45,-0.61 -1.45,-1.25 0,-0.35 0.3,-0.39 0.37,-0.39 0.17,0 0.37,0.12 0.37,0.37 0,0.13 -0.05,0.37 -0.41,0.37 0.22,0.49 0.69,0.65 1.02,0.65 0.69,0 1.05,-0.54 1.05,-1.11 0,-0.6 -0.43,-1.08 -0.65,-1.33 l -1.68,-1.66 c -0.07,-0.06 -0.07,-0.07 -0.07,-0.27 h 2.87 z"
         inkscape:connector-curvature="0"
         style="fill:#000000" /></g>  </g>
  <g
     id="layer1"
     inkscape:groupmode="layer"
     inkscape:label="Layer 1">
    <rect
       y="614.85358"
       x="105.95596"
       height="9.3656254"
       width="9.3656254"
       id="rect24331"
       style="fill:#000000;fill-opacity:1;stroke:none" />
    <path
       sodipodi:type="arc"
       style="fill:none;stroke:#17a000;stroke-width:2.19265723;stroke-miterlimit:4;stroke-opacity:1;stroke-dasharray:none;stroke-dashoffset:0"
       id="path27208"
       sodipodi:cx="236.42857"
       sodipodi:cy="211.6479"
       sodipodi:rx="37.857143"
       sodipodi:ry="37.857143"
       d="m 274.28572,211.6479 a 37.857143,37.857143 0 1 1 -75.71429,0 37.857143,37.857143 0 1 1 75.71429,0 z"
       transform="matrix(0.77567406,0,0,0.77567406,-73.79581,471.55966)" />
    <path
       transform="matrix(0.77567406,0,0,0.77567406,-12.763091,591.17437)"
       d="m 274.28572,211.6479 a 37.857143,37.857143 0 1 1 -75.71429,0 37.857143,37.857143 0 1 1 75.71429,0 z"
       sodipodi:ry="37.857143"
       sodipodi:rx="37.857143"
       sodipodi:cy="211.6479"
       sodipodi:cx="236.42857"
       id="path27216"
       style="fill:none;stroke:#17a000;stroke-width:2.19265723;stroke-miterlimit:4;stroke-opacity:1;stroke-dasharray:none;stroke-dashoffset:0"
       sodipodi:type="arc" />
    <path
       sodipodi:type="arc"
       style="fill:none;stroke:#17a000;stroke-width:2.19265723;stroke-miterlimit:4;stroke-opacity:1;stroke-dasharray:none;stroke-dashoffset:0"
       id="path27218"
       sodipodi:cx="236.42857"
       sodipodi:cy="211.6479"
       sodipodi:rx="37.857143"
       sodipodi:ry="37.857143"
       d="m 274.28572,211.6479 a 37.857143,37.857143 0 1 1 -75.71429,0 37.857143,37.857143 0 1 1 75.71429,0 z"
       transform="matrix(0.77567406,0,0,0.77567406,-92.736133,592.51917)" />
    <path
       transform="matrix(0.77567406,0,0,0.77567406,-207.30396,474.77139)"
       d="m 274.28572,211.6479 a 37.857143,37.857143 0 1 1 -75.71429,0 37.857143,37.857143 0 1 1 75.71429,0 z"
       sodipodi:ry="37.857143"
       sodipodi:rx="37.857143"
       sodipodi:cy="211.6479"
       sodipodi:cx="236.42857"
       id="path27220"
       style="fill:none;stroke:#17a000;stroke-width:2.19265723;stroke-miterlimit:4;stroke-opacity:1;stroke-dasharray:none;stroke-dashoffset:0"
       sodipodi:type="arc" />
    <path
       sodipodi:type="arc"
       style="fill:none;stroke:#17a000;stroke-width:2.19265723;stroke-miterlimit:4;stroke-opacity:1;stroke-dasharray:none;stroke-dashoffset:0"
       id="path27222"
       sodipodi:cx="236.42857"
       sodipodi:cy="211.6479"
       sodipodi:rx="37.857143"
       sodipodi:ry="37.857143"
       d="m 274.28572,211.6479 a 37.857143,37.857143 0 1 1 -75.71429,0 37.857143,37.857143 0 1 1 75.71429,0 z"
       transform="matrix(0.77567406,0,0,0.77567406,-213.07217,592.79251)" />
    <rect
       style="fill:#000000;fill-opacity:1;stroke:none"
       id="rect27226"
       width="9.3656254"
       height="9.3656254"
       x="-34.484211"
       y="735.36383" />
    <rect
       y="652.47522"
       x="-34.372826"
       height="9.3656254"
       width="9.3656254"
       id="rect27228"
       style="fill:#000000;fill-opacity:1;stroke:none" />
    <rect
       style="fill:#000000;fill-opacity:1;stroke:none"
       id="rect27230"
       width="9.3656254"
       height="9.3656254"
       x="76.912888"
       y="770.18951" />
    <rect
       y="768.90381"
       x="175.05574"
       height="9.3656254"
       width="9.3656254"
       id="rect27232"
       style="fill:#000000;fill-opacity:1;stroke:none" />
    <rect
       style="fill:#000000;fill-opacity:1;stroke:none"
       id="rect28583"
       width="9.3656254"
       height="9.3656254"
       x="625.67944"
       y="614.85358" />
    <path
       transform="matrix(0.77567406,0,0,0.77567406,445.92767,471.55966)"
       d="m 274.28572,211.6479 a 37.857143,37.857143 0 1 1 -75.71429,0 37.857143,37.857143 0 1 1 75.71429,0 z"
       sodipodi:ry="37.857143"
       sodipodi:rx="37.857143"
       sodipodi:cy="211.6479"
       sodipodi:cx="236.42857"
       id="path28585"
       style="fill:none;stroke:#17a000;stroke-width:2.19265723;stroke-miterlimit:4;stroke-opacity:1;stroke-dasharray:none;stroke-dashoffset:0"
       sodipodi:type="arc" />
    <path
       sodipodi:type="arc"
       style="fill:none;stroke:#17a000;stroke-width:2.19265723;stroke-miterlimit:4;stroke-opacity:1;stroke-dasharray:none;stroke-dashoffset:0"
       id="path28587"
       sodipodi:cx="236.42857"
       sodipodi:cy="211.6479"
       sodipodi:rx="37.857143"
       sodipodi:ry="37.857143"
       d="m 274.28572,211.6479 a 37.857143,37.857143 0 1 1 -75.71429,0 37.857143,37.857143 0 1 1 75.71429,0 z"
       transform="matrix(0.77567406,0,0,0.77567406,506.96039,591.17437)" />
    <path
       transform="matrix(0.77567406,0,0,0.77567406,426.98735,592.51917)"
       d="m 274.28572,211.6479 a 37.857143,37.857143 0 1 1 -75.71429,0 37.857143,37.857143 0 1 1 75.71429,0 z"
       sodipodi:ry="37.857143"
       sodipodi:rx="37.857143"
       sodipodi:cy="211.6479"
       sodipodi:cx="236.42857"
       id="path28589"
       style="fill:none;stroke:#17a000;stroke-width:2.19265723;stroke-miterlimit:4;stroke-opacity:1;stroke-dasharray:none;stroke-dashoffset:0"
       sodipodi:type="arc" />
    <path
       sodipodi:type="arc"
       style="fill:none;stroke:#17a000;stroke-width:2.19265723;stroke-miterlimit:4;stroke-opacity:1;stroke-dasharray:none;stroke-dashoffset:0"
       id="path28591"
       sodipodi:cx="236.42857"
       sodipodi:cy="211.6479"
       sodipodi:rx="37.857143"
       sodipodi:ry="37.857143"
       d="m 274.28572,211.6479 a 37.857143,37.857143 0 1 1 -75.71429,0 37.857143,37.857143 0 1 1 75.71429,0 z"
       transform="matrix(0.77567406,0,0,0.77567406,334.33983,591.44401)" />
    <path
       transform="matrix(0.77567406,0,0,0.77567406,328.57162,709.46513)"
       d="m 274.28572,211.6479 a 37.857143,37.857143 0 1 1 -75.71429,0 37.857143,37.857143 0 1 1 75.71429,0 z"
       sodipodi:ry="37.857143"
       sodipodi:rx="37.857143"
       sodipodi:cy="211.6479"
       sodipodi:cx="236.42857"
       id="path28593"
       style="fill:none;stroke:#17a000;stroke-width:2.19265723;stroke-miterlimit:4;stroke-opacity:1;stroke-dasharray:none;stroke-dashoffset:0"
       sodipodi:type="arc" />
    <rect
       y="852.03644"
       x="507.15961"
       height="9.3656254"
       width="9.3656254"
       id="rect28595"
       style="fill:#000000;fill-opacity:1;stroke:none" />
    <rect
       style="fill:#000000;fill-opacity:1;stroke:none"
       id="rect28597"
       width="9.3656254"
       height="9.3656254"
       x="507.27097"
       y="769.14783" />
    <rect
       y="770.18951"
       x="596.63635"
       height="9.3656254"
       width="9.3656254"
       id="rect28599"
       style="fill:#000000;fill-opacity:1;stroke:none" />
    <rect
       style="fill:#000000;fill-opacity:1;stroke:none"
       id="rect28601"
       width="9.3656254"
       height="9.3656254"
       x="694.77924"
       y="768.90381" />
  </g>
</svg>
