<?xml version="1.0" encoding="UTF-8" standalone="no"?>
<!-- Created with Inkscape (http://www.inkscape.org/) -->

<svg
   xmlns:ns0="http://www.iki.fi/pav/software/textext/"
   xmlns:dc="http://purl.org/dc/elements/1.1/"
   xmlns:cc="http://creativecommons.org/ns#"
   xmlns:rdf="http://www.w3.org/1999/02/22-rdf-syntax-ns#"
   xmlns:svg="http://www.w3.org/2000/svg"
   xmlns="http://www.w3.org/2000/svg"
   xmlns:sodipodi="http://sodipodi.sourceforge.net/DTD/sodipodi-0.dtd"
   xmlns:inkscape="http://www.inkscape.org/namespaces/inkscape"
   width="744.09448819"
   height="1052.3622047"
   id="svg2"
   version="1.1"
   inkscape:version="0.48.4 r9939"
   sodipodi:docname="flowcut.svg">
  <sodipodi:namedview
     id="base"
     pagecolor="#ffffff"
     bordercolor="#666666"
     borderopacity="1.0"
     inkscape:pageopacity="0.0"
     inkscape:pageshadow="2"
     inkscape:zoom="1.4"
     inkscape:cx="481.08397"
     inkscape:cy="622.33202"
     inkscape:document-units="px"
     inkscape:current-layer="layer2"
     showgrid="false"
     inkscape:object-paths="true"
     inkscape:snap-midpoints="true"
     inkscape:window-width="1918"
     inkscape:window-height="1062"
     inkscape:window-x="0"
     inkscape:window-y="0"
     inkscape:window-maximized="0"
     inkscape:snap-global="false" />
  <defs
     id="defs4">
    <marker
       style="overflow:visible;"
       id="Arrow1Lend"
       refX="0.0"
       refY="0.0"
       orient="auto"
       inkscape:stockid="Arrow1Lend">
      <path
         transform="scale(0.8) rotate(180) translate(12.5,0)"
         style="fill-rule:evenodd;stroke:#000000;stroke-width:1.0pt;"
         d="M 0.0,0.0 L 5.0,-5.0 L -12.5,0.0 L 5.0,5.0 L 0.0,0.0 z "
         id="path3974" />
    </marker>
    <marker
       style="overflow:visible;"
       id="Arrow1Mend"
       refX="0.0"
       refY="0.0"
       orient="auto"
       inkscape:stockid="Arrow1Mend">
      <path
         transform="scale(0.4) rotate(180) translate(10,0)"
         style="fill-rule:evenodd;stroke:#000000;stroke-width:1.0pt;"
         d="M 0.0,0.0 L 5.0,-5.0 L -12.5,0.0 L 5.0,5.0 L 0.0,0.0 z "
         id="path3980" />
    </marker>
  </defs>
  <metadata
     id="metadata7">
    <rdf:RDF>
      <cc:Work
         rdf:about="">
        <dc:format>image/svg+xml</dc:format>
        <dc:type
           rdf:resource="http://purl.org/dc/dcmitype/StillImage" />
        <dc:title />
      </cc:Work>
    </rdf:RDF>
  </metadata>
  <g
     id="layer1"
     inkscape:groupmode="layer"
     inkscape:label="Layer 1">
    <path
       sodipodi:nodetypes="cc"
       inkscape:connector-curvature="0"
       id="path2985"
       d="m 138.57143,323.79075 507.85714,0"
       style="fill:#2a1313;fill-opacity:0.43805315;stroke:#000000;stroke-width:0.70866144;stroke-miterlimit:4;stroke-opacity:1;stroke-dasharray:none" />
    <path
       sodipodi:nodetypes="cc"
       inkscape:connector-curvature="0"
       id="path2989"
       d="m 351.07143,346.26555 0,-89.3985"
       style="fill:#2a1313;fill-opacity:0.43805315;stroke:#000000;stroke-width:0.70866144;stroke-miterlimit:4;stroke-opacity:1;stroke-dasharray:none" />
    <path
       sodipodi:nodetypes="cc"
       inkscape:connector-curvature="0"
       id="path2991"
       d="m 437.39605,309.39499 0,36.87056"
       style="fill:#2a1313;fill-opacity:0.43805315;stroke:#000000;stroke-width:0.70866144;stroke-miterlimit:4;stroke-opacity:1;stroke-dasharray:none" />
    <path
       inkscape:connector-curvature="0"
       id="path3963"
       d="m 135.86552,267.47365 215.20591,0"
       style="fill:#2a1313;fill-opacity:0.43805315000000000;stroke:#000000;stroke-width:0.70866143999999998;stroke-miterlimit:4;stroke-opacity:1;stroke-dasharray:none;marker-end:url(#Arrow1Lend)" />
    <path
       sodipodi:nodetypes="cc"
       style="fill:#2a1313;fill-opacity:0.43805315;stroke:#000000;stroke-width:0.70866144;stroke-miterlimit:4;stroke-opacity:1;stroke-dasharray:none;marker-end:url(#Arrow1Lend)"
       d="m 647.85714,267.22111 -296.70286,0.25254"
       id="path3965"
       inkscape:connector-curvature="0" />
    <path
       sodipodi:nodetypes="cc"
       inkscape:connector-curvature="0"
       id="path4781"
       d="M 648.57142,309.26871 438.0274,309.52125"
       style="fill:#2a1313;fill-opacity:0.43805315;stroke:#000000;stroke-width:0.70866144;stroke-miterlimit:4;stroke-opacity:1;stroke-dasharray:none;marker-end:url(#Arrow1Lend)" />
  </g>
  <g
     inkscape:groupmode="layer"
     id="layer2"
     inkscape:label="popisky"
     style="display:inline">
    <g
       ns0:preamble=""
       ns0:text="maxim\\\'alny tok"
       word-spacing="normal"
       letter-spacing="normal"
       font-size-adjust="none"
       font-stretch="normal"
       font-weight="normal"
       font-variant="normal"
       font-style="normal"
       stroke-miterlimit="10.433"
       xml:space="preserve"
       transform="matrix(2.48832,0,0,-2.48832,-391.96235,2018.9317)"
       id="g4832"
       style="font-style:normal;font-variant:normal;font-weight:normal;font-stretch:normal;letter-spacing:normal;word-spacing:normal;text-anchor:start;fill:none;stroke:#000000;stroke-linecap:butt;stroke-linejoin:miter;stroke-miterlimit:10.43299961;stroke-opacity:1;stroke-dasharray:none;stroke-dashoffset:0"><path
         id="path4834"
         d="m 224.53,710.54 v -2.66 c 0,-0.45 -0.11,-0.45 -0.78,-0.45 v -0.31 c 0.35,0.02 0.86,0.04 1.13,0.04 0.25,0 0.77,-0.02 1.11,-0.04 v 0.31 c -0.67,0 -0.78,0 -0.78,0.45 v 1.83 c 0,1.03 0.71,1.59 1.35,1.59 0.62,0 0.73,-0.54 0.73,-1.1 v -2.32 c 0,-0.45 -0.11,-0.45 -0.77,-0.45 v -0.31 c 0.34,0.02 0.85,0.04 1.12,0.04 0.26,0 0.78,-0.02 1.12,-0.04 v 0.31 c -0.67,0 -0.78,0 -0.78,0.45 v 1.83 c 0,1.03 0.7,1.59 1.34,1.59 0.63,0 0.74,-0.54 0.74,-1.1 v -2.32 c 0,-0.45 -0.11,-0.45 -0.78,-0.45 v -0.31 c 0.35,0.02 0.86,0.04 1.13,0.04 0.25,0 0.77,-0.02 1.11,-0.04 v 0.31 c -0.52,0 -0.76,0 -0.78,0.3 v 1.9 c 0,0.85 0,1.16 -0.3,1.52 -0.14,0.17 -0.47,0.37 -1.05,0.37 -0.83,0 -1.27,-0.6 -1.44,-0.98 -0.14,0.87 -0.88,0.98 -1.32,0.98 -0.73,0 -1.2,-0.43 -1.48,-1.05 v 1.05 l -1.4,-0.11 v -0.31 c 0.7,0 0.78,-0.07 0.78,-0.56 z"
         inkscape:connector-curvature="0"
         style="fill:#000000;stroke-width:0" /><path
         id="path4836"
         d="m 235.05,707.88 0,-0.04 0.01,-0.03 0,-0.04 0.01,-0.04 0.01,-0.04 0.01,-0.03 0.02,-0.04 0.01,-0.03 0.01,-0.04 0.02,-0.03 0.02,-0.04 0.02,-0.03 0.02,-0.03 0.02,-0.04 0.02,-0.03 0.02,-0.03 0.03,-0.02 0.03,-0.03 0.02,-0.03 0.03,-0.02 0.03,-0.02 0.03,-0.03 0.04,-0.02 0.03,-0.01 0.03,-0.02 0.04,-0.01 0.04,-0.02 0.04,-0.01 0.04,0 0.04,-0.01 0.04,0 0.04,0 c 0.21,0 0.82,0.13 0.82,0.94 v 0.56 h -0.25 v -0.56 c 0,-0.58 -0.25,-0.64 -0.36,-0.64 -0.33,0 -0.37,0.45 -0.37,0.5 v 1.99 c 0,0.41 0,0.8 -0.35,1.17 -0.39,0.39 -0.89,0.55 -1.37,0.55 -0.81,0 -1.5,-0.47 -1.5,-1.13 0,-0.29 0.2,-0.46 0.46,-0.46 0.28,0 0.46,0.19 0.46,0.45 0,0.12 -0.05,0.45 -0.51,0.46 0.27,0.35 0.75,0.46 1.07,0.46 0.49,0 1.06,-0.39 1.06,-1.27 v -0.37 -0.21 -0.99 c 0,-0.95 -0.72,-1.29 -1.17,-1.29 -0.48,0 -0.89,0.35 -0.89,0.85 0,0.54 0.42,1.37 2.06,1.43 h 0 v 0.21 c -0.51,-0.03 -1.21,-0.06 -1.83,-0.36 -0.75,-0.34 -1,-0.85 -1,-1.29 0,-0.81 0.97,-1.05 1.59,-1.05 0.66,0 1.12,0.39 1.31,0.86 z"
         inkscape:connector-curvature="0"
         style="fill:#000000;stroke-width:0" /><path
         id="path4838"
         d="m 239.57,709.46 0.06,0.07 0.06,0.08 0.06,0.07 0.06,0.08 0.12,0.15 0.06,0.08 0.06,0.08 0.06,0.07 0.06,0.07 0.06,0.07 0.05,0.07 0.03,0.03 0.03,0.03 0.02,0.04 0.03,0.03 0.03,0.02 0.02,0.03 0.02,0.03 0.03,0.02 c 0.3,0.36 0.71,0.51 1.18,0.52 v 0.31 c -0.26,-0.02 -0.56,-0.03 -0.82,-0.03 -0.3,0 -0.82,0.02 -0.95,0.03 v -0.31 c 0.21,-0.02 0.29,-0.15 0.29,-0.31 0,-0.16 -0.1,-0.29 -0.15,-0.35 l -0.62,-0.77 -0.77,1 c -0.09,0.1 -0.09,0.12 -0.09,0.18 0,0.15 0.15,0.24 0.34,0.25 v 0.31 c -0.25,-0.01 -0.91,-0.03 -1.07,-0.03 -0.21,0 -0.68,0.01 -0.95,0.03 v -0.31 c 0.7,0 0.71,-0.01 1.18,-0.61 l 0.98,-1.28 -0.93,-1.18 c -0.48,-0.58 -1.07,-0.6 -1.27,-0.6 v -0.31 c 0.25,0.03 0.56,0.04 0.82,0.04 0.29,0 0.71,-0.02 0.94,-0.04 v 0.31 c -0.21,0.03 -0.28,0.16 -0.28,0.31 0,0.22 0.28,0.55 0.89,1.26 l 0.76,-0.99 c 0.08,-0.11 0.21,-0.27 0.21,-0.33 0,-0.09 -0.09,-0.24 -0.36,-0.25 v -0.31 c 0.3,0.02 0.86,0.04 1.07,0.04 0.27,0 0.66,-0.01 0.96,-0.04 v 0.31 c -0.54,0 -0.72,0.02 -0.95,0.31 z"
         inkscape:connector-curvature="0"
         style="fill:#000000;stroke-width:0" /><path
         id="path4840"
         d="m 243.73,711.52 -1.39,-0.11 v -0.31 c 0.65,0 0.74,-0.06 0.74,-0.55 v -2.67 c 0,-0.45 -0.11,-0.45 -0.78,-0.45 v -0.31 c 0.32,0.02 0.86,0.04 1.1,0.04 0.34,0 0.69,-0.02 1.03,-0.04 v 0.31 c -0.66,0 -0.7,0.05 -0.7,0.44 z"
         inkscape:connector-curvature="0"
         style="fill:#000000;stroke-width:0" /><path
         id="path4842"
         d="m 243.77,713.24 0,0.03 0,0.03 0,0.03 -0.01,0.03 0,0.02 -0.01,0.03 -0.01,0.03 -0.01,0.02 -0.01,0.02 -0.01,0.03 -0.02,0.02 -0.01,0.02 -0.01,0.02 -0.02,0.02 -0.02,0.02 -0.02,0.02 -0.01,0.01 -0.02,0.02 -0.02,0.01 -0.02,0.02 -0.03,0.01 -0.02,0.01 -0.02,0.01 -0.02,0.01 -0.03,0.01 -0.02,0.01 -0.03,0.01 -0.02,0 -0.03,0.01 -0.02,0 -0.03,0 -0.02,0 c -0.31,0 -0.53,-0.27 -0.53,-0.53 0,-0.26 0.22,-0.52 0.53,-0.52 0.27,0 0.52,0.21 0.52,0.52 z"
         inkscape:connector-curvature="0"
         style="fill:#000000;stroke-width:0" /><path
         id="path4844"
         d="m 245.84,710.54 v -2.66 c 0,-0.45 -0.11,-0.45 -0.78,-0.45 v -0.31 c 0.35,0.02 0.85,0.04 1.12,0.04 0.26,0 0.78,-0.02 1.12,-0.04 v 0.31 c -0.67,0 -0.78,0 -0.78,0.45 v 1.83 c 0,1.03 0.71,1.59 1.35,1.59 0.62,0 0.73,-0.54 0.73,-1.1 v -2.32 c 0,-0.45 -0.11,-0.45 -0.78,-0.45 v -0.31 c 0.35,0.02 0.86,0.04 1.13,0.04 0.26,0 0.78,-0.02 1.11,-0.04 v 0.31 c -0.66,0 -0.77,0 -0.77,0.45 v 1.83 c 0,1.03 0.7,1.59 1.34,1.59 0.63,0 0.74,-0.54 0.74,-1.1 v -2.32 c 0,-0.45 -0.11,-0.45 -0.78,-0.45 v -0.31 c 0.35,0.02 0.86,0.04 1.12,0.04 0.26,0 0.78,-0.02 1.12,-0.04 v 0.31 c -0.52,0 -0.77,0 -0.78,0.3 v 1.9 c 0,0.85 0,1.16 -0.31,1.52 -0.13,0.17 -0.46,0.37 -1.04,0.37 -0.83,0 -1.27,-0.6 -1.44,-0.98 -0.14,0.87 -0.88,0.98 -1.33,0.98 -0.72,0 -1.19,-0.43 -1.47,-1.05 v 1.05 l -1.4,-0.11 v -0.31 c 0.7,0 0.78,-0.07 0.78,-0.56 z"
         inkscape:connector-curvature="0"
         style="fill:#000000;stroke-width:0" /><path
         id="path4846"
         d="m 256.77,713.4 0.02,0.02 0.02,0.01 0.01,0.02 0.02,0.01 0.01,0.02 0.01,0.01 0.01,0.01 0,0.01 0.01,0 0.01,0.01 0,0.01 0.01,0.01 0,0.01 0.01,0.01 0,0.01 0.01,0.01 0,0.01 0.01,0.01 0,0.01 0,0.01 0.01,0.02 0,0.01 0,0.01 0,0.01 0,0.01 0,0.01 0,0.01 c 0,0.18 -0.18,0.36 -0.36,0.36 -0.15,0 -0.25,-0.11 -0.29,-0.17 l -1.2,-1.52 0.17,-0.18 z"
         inkscape:connector-curvature="0"
         style="fill:#000000;stroke-width:0" /><path
         id="path4848"
         d="m 256.36,707.88 0,-0.04 0.01,-0.03 0,-0.04 0.01,-0.04 0.01,-0.04 0.01,-0.03 0.01,-0.04 0.02,-0.03 0.01,-0.04 0.02,-0.03 0.02,-0.04 0.02,-0.03 0.02,-0.03 0.02,-0.04 0.02,-0.03 0.02,-0.03 0.03,-0.02 0.02,-0.03 0.03,-0.03 0.03,-0.02 0.03,-0.02 0.03,-0.03 0.04,-0.02 0.03,-0.01 0.03,-0.02 0.04,-0.01 0.04,-0.02 0.04,-0.01 0.04,0 0.04,-0.01 0.04,0 0.04,0 c 0.21,0 0.82,0.13 0.82,0.94 v 0.56 h -0.25 v -0.56 c 0,-0.58 -0.25,-0.64 -0.36,-0.64 -0.33,0 -0.37,0.45 -0.37,0.5 v 1.99 c 0,0.41 0,0.8 -0.36,1.17 -0.38,0.39 -0.88,0.55 -1.36,0.55 -0.81,0 -1.5,-0.47 -1.5,-1.13 0,-0.29 0.2,-0.46 0.46,-0.46 0.28,0 0.45,0.19 0.45,0.45 0,0.12 -0.04,0.45 -0.5,0.46 0.27,0.35 0.75,0.46 1.07,0.46 0.49,0 1.06,-0.39 1.06,-1.27 v -0.37 -0.21 -0.99 c 0,-0.95 -0.72,-1.29 -1.17,-1.29 -0.49,0 -0.89,0.35 -0.89,0.85 0,0.54 0.42,1.37 2.06,1.43 h 0 v 0.21 c -0.51,-0.03 -1.21,-0.06 -1.83,-0.36 -0.75,-0.34 -1,-0.85 -1,-1.29 0,-0.81 0.97,-1.05 1.59,-1.05 0.66,0 1.12,0.39 1.31,0.86 z"
         inkscape:connector-curvature="0"
         style="fill:#000000;stroke-width:0" /><path
         id="path4850"
         d="m 259.79,714.02 -1.44,-0.11 v -0.31 c 0.7,0 0.78,-0.07 0.78,-0.55 v -5.17 c 0,-0.45 -0.11,-0.45 -0.78,-0.45 v -0.31 c 0.33,0.02 0.86,0.04 1.11,0.04 0.24,0 0.73,-0.02 1.1,-0.04 v 0.31 c -0.67,0 -0.77,0 -0.77,0.45 z"
         inkscape:connector-curvature="0"
         style="fill:#000000;stroke-width:0" /><path
         id="path4852"
         d="m 261.89,710.54 v -2.66 c 0,-0.45 -0.11,-0.45 -0.78,-0.45 v -0.31 c 0.35,0.02 0.86,0.04 1.12,0.04 0.26,0 0.78,-0.02 1.12,-0.04 v 0.31 c -0.67,0 -0.78,0 -0.78,0.45 v 1.83 c 0,1.03 0.71,1.59 1.35,1.59 0.62,0 0.73,-0.54 0.73,-1.1 v -2.32 c 0,-0.45 -0.11,-0.45 -0.77,-0.45 v -0.31 c 0.34,0.02 0.85,0.04 1.12,0.04 0.26,0 0.78,-0.02 1.11,-0.04 v 0.31 c -0.51,0 -0.76,0 -0.77,0.3 v 1.9 c 0,0.85 0,1.16 -0.31,1.52 -0.14,0.17 -0.47,0.37 -1.05,0.37 -0.72,0 -1.19,-0.43 -1.47,-1.05 v 1.05 l -1.4,-0.11 v -0.31 c 0.7,0 0.78,-0.07 0.78,-0.56 z"
         inkscape:connector-curvature="0"
         style="fill:#000000;stroke-width:0" /><path
         id="path4854"
         d="m 270.18,710.46 0.01,0.03 0.01,0.03 0.01,0.03 0.02,0.02 0.01,0.03 0.02,0.02 0.01,0.03 0.01,0.02 0.03,0.04 0.03,0.04 0.04,0.04 0.03,0.04 0.03,0.03 0.03,0.03 0.04,0.02 0.03,0.03 0.04,0.02 0.03,0.02 0.03,0.02 0.04,0.02 0.03,0.01 0.03,0.01 0.04,0.01 0.03,0.01 0.03,0.01 0.03,0.01 0.03,0 0.03,0.01 0.02,0 0.03,0 0.02,0.01 0.03,0 0.02,0 0.02,0 0.02,0 0.01,0 v 0.31 c -0.23,-0.02 -0.52,-0.03 -0.74,-0.03 -0.18,0 -0.65,0.02 -0.87,0.03 v -0.31 c 0.31,-0.01 0.47,-0.18 0.47,-0.43 0,-0.1 -0.01,-0.12 -0.06,-0.24 l -1.01,-2.44 -1.1,2.67 c -0.04,0.1 -0.06,0.14 -0.06,0.18 0,0.26 0.37,0.26 0.56,0.26 v 0.31 c -0.26,-0.01 -0.92,-0.03 -1.09,-0.03 -0.27,0 -0.66,0.01 -0.96,0.03 v -0.31 c 0.47,0 0.66,0 0.8,-0.35 l 1.5,-3.63 c -0.06,-0.12 -0.19,-0.45 -0.25,-0.58 -0.22,-0.55 -0.5,-1.23 -1.14,-1.23 -0.05,0 -0.28,0 -0.47,0.18 0.31,0.04 0.39,0.25 0.39,0.41 0,0.26 -0.19,0.42 -0.42,0.42 -0.19,0 -0.41,-0.13 -0.41,-0.43 0,-0.44 0.41,-0.8 0.91,-0.8 0.63,0 1.04,0.57 1.28,1.13 z"
         inkscape:connector-curvature="0"
         style="fill:#000000;stroke-width:0" /><path
         id="path4856"
         d="m 276.36,711.1 h 1.42 v 0.31 h -1.42 v 1.82 h -0.25 c -0.01,-0.81 -0.31,-1.87 -1.29,-1.91 v -0.22 h 0.85 v -2.74 c 0,-1.22 0.92,-1.34 1.28,-1.34 0.71,0 0.99,0.7 0.99,1.34 v 0.56 h -0.25 v -0.54 c 0,-0.74 -0.3,-1.12 -0.67,-1.12 -0.66,0 -0.66,0.91 -0.66,1.08 z"
         inkscape:connector-curvature="0"
         style="fill:#000000;stroke-width:0" /><path
         id="path4858"
         d="m 283.19,709.25 0,0.12 -0.01,0.12 -0.01,0.11 -0.02,0.12 -0.03,0.11 -0.03,0.11 -0.03,0.11 -0.04,0.1 -0.04,0.1 -0.05,0.1 -0.06,0.1 -0.05,0.09 -0.07,0.1 -0.06,0.08 -0.07,0.09 -0.07,0.08 -0.08,0.08 -0.08,0.07 -0.08,0.07 -0.09,0.06 -0.09,0.07 -0.09,0.05 -0.1,0.05 -0.09,0.05 -0.1,0.04 -0.1,0.04 -0.11,0.03 -0.1,0.03 -0.11,0.02 -0.11,0.01 -0.11,0.01 -0.12,0.01 -0.01,-0.22 c 0.44,0 0.87,-0.22 1.13,-0.65 0.26,-0.43 0.26,-1 0.26,-1.38 0,-0.36 0,-0.89 -0.22,-1.33 -0.22,-0.45 -0.66,-0.74 -1.16,-0.74 h 0 c -0.42,0 -0.86,0.21 -1.13,0.67 -0.25,0.44 -0.25,1.04 -0.25,1.4 0,0.39 0,0.92 0.24,1.36 0.27,0.46 0.74,0.67 1.13,0.67 l 0.01,0.22 c -1.24,0 -2.2,-1.09 -2.2,-2.33 0,-1.28 1.03,-2.23 2.19,-2.23 1.21,0 2.21,0.97 2.21,2.23 z"
         inkscape:connector-curvature="0"
         style="fill:#000000;stroke-width:0" /><path
         id="path4860"
         d="m 284.54,707.88 0,-0.02 0,-0.02 0,-0.04 0,-0.03 0,-0.04 -0.01,-0.03 0,-0.03 -0.01,-0.02 0,-0.03 -0.01,-0.02 -0.01,-0.02 -0.01,-0.02 -0.02,-0.02 -0.01,-0.01 -0.02,-0.02 -0.01,-0.01 -0.02,-0.01 -0.03,-0.01 -0.02,-0.01 -0.03,-0.01 -0.02,0 -0.03,-0.01 -0.04,0 -0.03,-0.01 -0.04,0 -0.02,0 -0.02,0 -0.02,0 -0.02,0 -0.03,0 -0.02,-0.01 -0.02,0 -0.03,0 -0.02,0 -0.03,0 -0.03,0 -0.02,0 -0.03,0 -0.03,0 -0.03,0 -0.03,0 v -0.31 c 0.33,0.02 0.79,0.04 1.08,0.04 0.3,0 0.7,-0.01 1.1,-0.04 v 0.31 c -0.67,0 -0.78,0 -0.78,0.45 v 1.02 l 0.64,0.55 c 0.76,-1.05 1.18,-1.61 1.18,-1.79 0,-0.19 -0.17,-0.23 -0.36,-0.23 v -0.31 c 0.28,0.02 0.87,0.04 1.08,0.04 0.29,0 0.58,-0.01 0.86,-0.04 v 0.31 c -0.37,0 -0.58,0 -0.96,0.53 l -1.26,1.78 c -0.02,0.02 -0.06,0.08 -0.06,0.11 0,0.04 0.7,0.63 0.8,0.71 0.63,0.51 1.05,0.53 1.26,0.54 v 0.31 c -0.29,-0.03 -0.42,-0.03 -0.7,-0.03 -0.36,0 -0.98,0.02 -1.12,0.03 v -0.31 c 0.19,-0.01 0.29,-0.12 0.29,-0.25 0,-0.2 -0.14,-0.32 -0.22,-0.39 l -1.4,-1.21 v 4.77 l -1.43,-0.11 v -0.31 c 0.69,0 0.77,-0.07 0.77,-0.55 z"
         inkscape:connector-curvature="0"
         style="fill:#000000;stroke-width:0" /></g>    <g
       style="font-style:normal;font-variant:normal;font-weight:normal;font-stretch:normal;letter-spacing:normal;word-spacing:normal;text-anchor:start;fill:none;stroke:#000000;stroke-linecap:butt;stroke-linejoin:miter;stroke-miterlimit:10.43299961;stroke-opacity:1;stroke-dasharray:none;stroke-dashoffset:0"
       id="g4984"
       transform="matrix(2.48832,0,0,-2.48832,-192.08659,2018.9317)"
       xml:space="preserve"
       stroke-miterlimit="10.433"
       font-style="normal"
       font-variant="normal"
       font-weight="normal"
       font-stretch="normal"
       font-size-adjust="none"
       letter-spacing="normal"
       word-spacing="normal"
       ns0:text="relaxovan\\\'y minim\\\'alny rez"
       ns0:preamble=""><path
         style="fill:#000000;stroke-width:0"
         inkscape:connector-curvature="0"
         d="m 225.09,710.42 v 1.1 l -1.38,-0.11 v -0.31 c 0.7,0 0.78,-0.07 0.78,-0.56 v -2.66 c 0,-0.45 -0.11,-0.45 -0.78,-0.45 v -0.31 c 0.39,0.02 0.86,0.04 1.14,0.04 0.39,0 0.86,0 1.26,-0.04 v 0.31 h -0.21 c -0.74,0 -0.76,0.11 -0.76,0.47 v 1.53 c 0,0.98 0.42,1.87 1.18,1.87 0.07,0 0.09,0 0.11,-0.01 -0.03,-0.01 -0.23,-0.13 -0.23,-0.39 0,-0.28 0.21,-0.43 0.43,-0.43 0.17,0 0.42,0.12 0.42,0.44 0,0.32 -0.31,0.61 -0.73,0.61 -0.73,0 -1.09,-0.67 -1.23,-1.1 z"
         id="path4986" /><path
         style="fill:#000000;stroke-width:0"
         inkscape:connector-curvature="0"
         d="m 228.44,709.42 0.01,0.21 c 0.06,1.48 0.89,1.73 1.23,1.73 1.03,0 1.13,-1.34 1.13,-1.73 h -2.36 l -0.01,-0.21 h 2.77 c 0.22,0 0.25,0 0.25,0.21 0,0.98 -0.53,1.95 -1.78,1.95 -1.15,0 -2.07,-1.03 -2.07,-2.27 0,-1.33 1.05,-2.29 2.19,-2.29 1.22,0 1.66,1.1 1.66,1.29 0,0.1 -0.08,0.12 -0.13,0.12 -0.09,0 -0.1,-0.06 -0.12,-0.14 -0.35,-1.03 -1.25,-1.03 -1.35,-1.03 -0.5,0 -0.89,0.3 -1.12,0.67 -0.3,0.48 -0.3,1.13 -0.3,1.49 z"
         id="path4988" /><path
         style="fill:#000000;stroke-width:0"
         inkscape:connector-curvature="0"
         d="m 233.52,714.02 -1.43,-0.11 v -0.31 c 0.7,0 0.78,-0.07 0.78,-0.55 v -5.17 c 0,-0.45 -0.11,-0.45 -0.78,-0.45 v -0.31 c 0.33,0.02 0.86,0.04 1.1,0.04 0.25,0 0.74,-0.02 1.11,-0.04 v 0.31 c -0.67,0 -0.78,0 -0.78,0.45 z"
         id="path4990" /><path
         style="fill:#000000;stroke-width:0"
         inkscape:connector-curvature="0"
         d="m 237.84,707.88 0.01,-0.04 0,-0.03 0.01,-0.04 0.01,-0.04 0.01,-0.04 0.01,-0.03 0.01,-0.04 0.01,-0.03 0.02,-0.04 0.02,-0.03 0.01,-0.04 0.02,-0.03 0.02,-0.03 0.02,-0.04 0.03,-0.03 0.02,-0.03 0.02,-0.02 0.03,-0.03 0.03,-0.03 0.03,-0.02 0.03,-0.02 0.03,-0.03 0.03,-0.02 0.04,-0.01 0.03,-0.02 0.04,-0.01 0.03,-0.02 0.04,-0.01 0.04,0 0.04,-0.01 0.04,0 0.05,0 c 0.21,0 0.81,0.13 0.81,0.94 v 0.56 h -0.24 v -0.56 c 0,-0.58 -0.25,-0.64 -0.36,-0.64 -0.33,0 -0.37,0.45 -0.37,0.5 v 1.99 c 0,0.41 0,0.8 -0.36,1.17 -0.39,0.39 -0.88,0.55 -1.36,0.55 -0.82,0 -1.5,-0.47 -1.5,-1.13 0,-0.29 0.19,-0.46 0.45,-0.46 0.28,0 0.46,0.19 0.46,0.45 0,0.12 -0.05,0.45 -0.51,0.46 0.27,0.35 0.76,0.46 1.08,0.46 0.49,0 1.05,-0.39 1.05,-1.27 v -0.37 -0.21 -0.99 c 0,-0.95 -0.71,-1.29 -1.16,-1.29 -0.49,0 -0.9,0.35 -0.9,0.85 0,0.54 0.42,1.37 2.06,1.43 h 0 v 0.21 c -0.51,-0.03 -1.2,-0.06 -1.83,-0.36 -0.74,-0.34 -0.99,-0.85 -0.99,-1.29 0,-0.81 0.96,-1.05 1.59,-1.05 0.66,0 1.11,0.39 1.3,0.86 z"
         id="path4992" /><path
         style="fill:#000000;stroke-width:0"
         inkscape:connector-curvature="0"
         d="m 242.37,709.46 0.05,0.07 0.06,0.08 0.06,0.07 0.06,0.08 0.12,0.15 0.07,0.08 0.06,0.08 0.06,0.07 0.06,0.07 0.05,0.07 0.06,0.07 0.03,0.03 0.02,0.03 0.03,0.04 0.03,0.03 0.02,0.02 0.02,0.03 0.03,0.03 0.02,0.02 c 0.31,0.36 0.72,0.51 1.18,0.52 v 0.31 c -0.25,-0.02 -0.55,-0.03 -0.81,-0.03 -0.3,0 -0.83,0.02 -0.96,0.03 v -0.31 c 0.21,-0.02 0.29,-0.15 0.29,-0.31 0,-0.16 -0.1,-0.29 -0.15,-0.35 l -0.61,-0.77 -0.78,1 c -0.09,0.1 -0.09,0.12 -0.09,0.18 0,0.15 0.15,0.24 0.35,0.25 v 0.31 c -0.26,-0.01 -0.92,-0.03 -1.08,-0.03 -0.2,0 -0.67,0.01 -0.94,0.03 v -0.31 c 0.7,0 0.71,-0.01 1.17,-0.61 l 0.99,-1.28 -0.94,-1.18 c -0.47,-0.58 -1.06,-0.6 -1.27,-0.6 v -0.31 c 0.26,0.03 0.57,0.04 0.83,0.04 0.28,0 0.7,-0.02 0.94,-0.04 v 0.31 c -0.22,0.03 -0.29,0.16 -0.29,0.31 0,0.22 0.29,0.55 0.9,1.26 l 0.75,-0.99 c 0.08,-0.11 0.21,-0.27 0.21,-0.33 0,-0.09 -0.09,-0.24 -0.35,-0.25 v -0.31 c 0.29,0.02 0.85,0.04 1.07,0.04 0.27,0 0.66,-0.01 0.95,-0.04 v 0.31 c -0.53,0 -0.71,0.02 -0.94,0.31 z"
         id="path4994" /><path
         style="fill:#000000;stroke-width:0"
         inkscape:connector-curvature="0"
         d="m 249.46,709.25 -0.01,0.12 -0.01,0.12 -0.01,0.11 -0.02,0.12 -0.02,0.11 -0.03,0.11 -0.04,0.11 -0.04,0.1 -0.04,0.1 -0.05,0.1 -0.06,0.1 -0.05,0.09 -0.06,0.1 -0.07,0.08 -0.07,0.09 -0.07,0.08 -0.08,0.08 -0.08,0.07 -0.08,0.07 -0.09,0.06 -0.09,0.07 -0.09,0.05 -0.1,0.05 -0.09,0.05 -0.1,0.04 -0.1,0.04 -0.11,0.03 -0.1,0.03 -0.11,0.02 -0.11,0.01 -0.11,0.01 -0.11,0.01 -0.01,-0.22 c 0.43,0 0.86,-0.22 1.12,-0.65 0.26,-0.43 0.26,-1 0.26,-1.38 0,-0.36 0,-0.89 -0.22,-1.33 -0.22,-0.45 -0.66,-0.74 -1.15,-0.74 h 0 c -0.43,0 -0.87,0.21 -1.14,0.67 -0.25,0.44 -0.25,1.04 -0.25,1.4 0,0.39 0,0.92 0.24,1.36 0.27,0.46 0.74,0.67 1.14,0.67 l 0.01,0.22 c -1.25,0 -2.21,-1.09 -2.21,-2.33 0,-1.28 1.03,-2.23 2.2,-2.23 1.2,0 2.21,0.97 2.21,2.23 z"
         id="path4996" /><path
         style="fill:#000000;stroke-width:0"
         inkscape:connector-curvature="0"
         d="m 253.61,710.43 0.01,0.02 0.01,0.03 0.01,0.02 0.01,0.03 0.01,0.02 0.01,0.03 0.01,0.02 0.02,0.03 0.01,0.03 0.02,0.03 0.02,0.02 0.02,0.03 0.02,0.03 0.02,0.03 0.02,0.02 0.03,0.03 0.02,0.02 0.03,0.03 0.03,0.02 0.03,0.02 0.03,0.03 0.04,0.02 0.04,0.02 0.04,0.01 0.04,0.02 0.04,0.01 0.05,0.02 0.05,0.01 0.05,0.01 0.03,0 0.03,0 0.03,0 0.02,0.01 0.03,0 0.03,0 v 0.31 c -0.22,-0.02 -0.51,-0.03 -0.74,-0.03 -0.24,0 -0.7,0.02 -0.87,0.03 v -0.31 c 0.37,-0.01 0.48,-0.24 0.48,-0.43 0,-0.09 -0.02,-0.13 -0.06,-0.24 l -1.01,-2.53 -1.12,2.77 c -0.06,0.13 -0.06,0.15 -0.06,0.17 0,0.26 0.39,0.26 0.57,0.26 v 0.31 c -0.3,-0.01 -0.86,-0.03 -1.09,-0.03 -0.26,0 -0.66,0.01 -0.96,0.03 v -0.31 c 0.63,0 0.67,-0.06 0.8,-0.37 l 1.43,-3.53 c 0.06,-0.13 0.08,-0.18 0.21,-0.18 0.13,0 0.17,0.08 0.21,0.18 z"
         id="path4998" /><path
         style="fill:#000000;stroke-width:0"
         inkscape:connector-curvature="0"
         d="m 257.49,707.88 0.01,-0.04 0,-0.03 0.01,-0.04 0.01,-0.04 0.01,-0.04 0.01,-0.03 0.01,-0.04 0.02,-0.03 0.01,-0.04 0.02,-0.03 0.02,-0.04 0.01,-0.03 0.02,-0.03 0.03,-0.04 0.02,-0.03 0.02,-0.03 0.03,-0.02 0.02,-0.03 0.03,-0.03 0.03,-0.02 0.03,-0.02 0.03,-0.03 0.03,-0.02 0.04,-0.01 0.03,-0.02 0.04,-0.01 0.04,-0.02 0.03,-0.01 0.04,0 0.05,-0.01 0.04,0 0.04,0 c 0.21,0 0.82,0.13 0.82,0.94 v 0.56 h -0.25 v -0.56 c 0,-0.58 -0.25,-0.64 -0.36,-0.64 -0.33,0 -0.37,0.45 -0.37,0.5 v 1.99 c 0,0.41 0,0.8 -0.36,1.17 -0.39,0.39 -0.88,0.55 -1.36,0.55 -0.82,0 -1.5,-0.47 -1.5,-1.13 0,-0.29 0.2,-0.46 0.46,-0.46 0.27,0 0.45,0.19 0.45,0.45 0,0.12 -0.05,0.45 -0.5,0.46 0.26,0.35 0.75,0.46 1.07,0.46 0.49,0 1.05,-0.39 1.05,-1.27 v -0.37 -0.21 -0.99 c 0,-0.95 -0.71,-1.29 -1.16,-1.29 -0.49,0 -0.89,0.35 -0.89,0.85 0,0.54 0.41,1.37 2.05,1.43 h 0 v 0.21 c -0.5,-0.03 -1.2,-0.06 -1.83,-0.36 -0.74,-0.34 -0.99,-0.85 -0.99,-1.29 0,-0.81 0.96,-1.05 1.59,-1.05 0.66,0 1.12,0.39 1.3,0.86 z"
         id="path5000" /><path
         style="fill:#000000;stroke-width:0"
         inkscape:connector-curvature="0"
         d="m 260.26,710.54 v -2.66 c 0,-0.45 -0.11,-0.45 -0.78,-0.45 v -0.31 c 0.35,0.02 0.86,0.04 1.13,0.04 0.25,0 0.77,-0.02 1.11,-0.04 v 0.31 c -0.67,0 -0.78,0 -0.78,0.45 v 1.83 c 0,1.03 0.71,1.59 1.35,1.59 0.62,0 0.73,-0.54 0.73,-1.1 v -2.32 c 0,-0.45 -0.11,-0.45 -0.77,-0.45 v -0.31 c 0.35,0.02 0.85,0.04 1.12,0.04 0.26,0 0.78,-0.02 1.12,-0.04 v 0.31 c -0.52,0 -0.77,0 -0.78,0.3 v 1.9 c 0,0.85 0,1.16 -0.31,1.52 -0.14,0.17 -0.47,0.37 -1.04,0.37 -0.73,0 -1.2,-0.43 -1.48,-1.05 v 1.05 l -1.4,-0.11 v -0.31 c 0.7,0 0.78,-0.07 0.78,-0.56 z"
         id="path5002" /><path
         style="fill:#000000;stroke-width:0"
         inkscape:connector-curvature="0"
         d="m 268.56,713.4 0.01,0.02 0.02,0.01 0.02,0.02 0.01,0.01 0.02,0.02 0,0.01 0.01,0.01 0.01,0.01 0,0 0.01,0.01 0.01,0.01 0,0.01 0.01,0.01 0,0.01 0.01,0.01 0,0.01 0.01,0.01 0,0.01 0,0.01 0.01,0.01 0,0.02 0,0.01 0,0.01 0.01,0.01 0,0.01 0,0.01 0,0.01 c 0,0.18 -0.18,0.36 -0.36,0.36 -0.15,0 -0.26,-0.11 -0.3,-0.17 l -1.19,-1.52 0.17,-0.18 z"
         id="path5004" /><path
         style="fill:#000000;stroke-width:0"
         inkscape:connector-curvature="0"
         d="m 268.83,710.46 0.01,0.03 0.01,0.03 0.01,0.03 0.02,0.02 0.01,0.03 0.02,0.02 0.01,0.03 0.01,0.02 0.03,0.04 0.03,0.04 0.04,0.04 0.03,0.04 0.03,0.03 0.03,0.03 0.04,0.02 0.03,0.03 0.04,0.02 0.03,0.02 0.03,0.02 0.04,0.02 0.03,0.01 0.03,0.01 0.04,0.01 0.03,0.01 0.03,0.01 0.03,0.01 0.03,0 0.03,0.01 0.02,0 0.03,0 0.02,0.01 0.03,0 0.02,0 0.02,0 0.02,0 0.01,0 v 0.31 c -0.23,-0.02 -0.52,-0.03 -0.74,-0.03 -0.18,0 -0.65,0.02 -0.87,0.03 v -0.31 c 0.31,-0.01 0.47,-0.18 0.47,-0.43 0,-0.1 -0.01,-0.12 -0.06,-0.24 l -1.01,-2.44 -1.1,2.67 c -0.04,0.1 -0.06,0.14 -0.06,0.18 0,0.26 0.37,0.26 0.56,0.26 v 0.31 c -0.26,-0.01 -0.92,-0.03 -1.09,-0.03 -0.27,0 -0.67,0.01 -0.96,0.03 v -0.31 c 0.47,0 0.66,0 0.8,-0.35 l 1.49,-3.63 c -0.04,-0.12 -0.18,-0.45 -0.24,-0.58 -0.22,-0.55 -0.5,-1.23 -1.14,-1.23 -0.05,0 -0.28,0 -0.47,0.18 0.31,0.04 0.39,0.25 0.39,0.41 0,0.26 -0.19,0.42 -0.42,0.42 -0.19,0 -0.41,-0.13 -0.41,-0.43 0,-0.44 0.41,-0.8 0.91,-0.8 0.63,0 1.04,0.57 1.28,1.13 z"
         id="path5006" /><path
         style="fill:#000000;stroke-width:0"
         inkscape:connector-curvature="0"
         d="m 274.37,710.54 v -2.66 c 0,-0.45 -0.11,-0.45 -0.78,-0.45 v -0.31 c 0.35,0.02 0.86,0.04 1.13,0.04 0.26,0 0.77,-0.02 1.11,-0.04 v 0.31 c -0.67,0 -0.78,0 -0.78,0.45 v 1.83 c 0,1.03 0.71,1.59 1.35,1.59 0.62,0 0.73,-0.54 0.73,-1.1 v -2.32 c 0,-0.45 -0.11,-0.45 -0.77,-0.45 v -0.31 c 0.35,0.02 0.85,0.04 1.12,0.04 0.26,0 0.78,-0.02 1.12,-0.04 v 0.31 c -0.67,0 -0.78,0 -0.78,0.45 v 1.83 c 0,1.03 0.71,1.59 1.34,1.59 0.63,0 0.74,-0.54 0.74,-1.1 v -2.32 c 0,-0.45 -0.11,-0.45 -0.78,-0.45 v -0.31 c 0.35,0.02 0.86,0.04 1.13,0.04 0.26,0 0.77,-0.02 1.11,-0.04 v 0.31 c -0.51,0 -0.76,0 -0.77,0.3 v 1.9 c 0,0.85 0,1.16 -0.31,1.52 -0.14,0.17 -0.47,0.37 -1.05,0.37 -0.83,0 -1.27,-0.6 -1.44,-0.98 -0.14,0.87 -0.87,0.98 -1.32,0.98 -0.73,0 -1.2,-0.43 -1.48,-1.05 v 1.05 l -1.4,-0.11 v -0.31 c 0.7,0 0.78,-0.07 0.78,-0.56 z"
         id="path5008" /><path
         style="fill:#000000;stroke-width:0"
         inkscape:connector-curvature="0"
         d="m 283.34,711.52 -1.4,-0.11 v -0.31 c 0.65,0 0.74,-0.06 0.74,-0.55 v -2.67 c 0,-0.45 -0.11,-0.45 -0.78,-0.45 v -0.31 c 0.32,0.02 0.86,0.04 1.1,0.04 0.35,0 0.7,-0.02 1.03,-0.04 v 0.31 c -0.65,0 -0.69,0.05 -0.69,0.44 z"
         id="path5010" /><path
         style="fill:#000000;stroke-width:0"
         inkscape:connector-curvature="0"
         d="m 283.38,713.24 0,0.03 -0.01,0.03 0,0.03 -0.01,0.03 0,0.02 -0.01,0.03 -0.01,0.03 -0.01,0.02 -0.01,0.02 -0.01,0.03 -0.01,0.02 -0.02,0.02 -0.01,0.02 -0.02,0.02 -0.02,0.02 -0.01,0.02 -0.02,0.01 -0.02,0.02 -0.02,0.01 -0.02,0.02 -0.02,0.01 -0.03,0.01 -0.02,0.01 -0.02,0.01 -0.02,0.01 -0.03,0.01 -0.02,0.01 -0.03,0 -0.02,0.01 -0.03,0 -0.02,0 -0.03,0 c -0.31,0 -0.53,-0.27 -0.53,-0.53 0,-0.26 0.22,-0.52 0.53,-0.52 0.28,0 0.53,0.21 0.53,0.52 z"
         id="path5012" /><path
         style="fill:#000000;stroke-width:0"
         inkscape:connector-curvature="0"
         d="m 285.44,710.54 v -2.66 c 0,-0.45 -0.11,-0.45 -0.78,-0.45 v -0.31 c 0.35,0.02 0.86,0.04 1.13,0.04 0.25,0 0.77,-0.02 1.11,-0.04 v 0.31 c -0.67,0 -0.78,0 -0.78,0.45 v 1.83 c 0,1.03 0.71,1.59 1.35,1.59 0.62,0 0.73,-0.54 0.73,-1.1 v -2.32 c 0,-0.45 -0.11,-0.45 -0.77,-0.45 v -0.31 c 0.35,0.02 0.85,0.04 1.12,0.04 0.26,0 0.78,-0.02 1.12,-0.04 v 0.31 c -0.52,0 -0.77,0 -0.78,0.3 v 1.9 c 0,0.85 0,1.16 -0.31,1.52 -0.14,0.17 -0.47,0.37 -1.04,0.37 -0.73,0 -1.2,-0.43 -1.48,-1.05 v 1.05 l -1.4,-0.11 v -0.31 c 0.7,0 0.78,-0.07 0.78,-0.56 z"
         id="path5014" /><path
         style="fill:#000000;stroke-width:0"
         inkscape:connector-curvature="0"
         d="m 291.64,711.52 -1.39,-0.11 v -0.31 c 0.64,0 0.73,-0.06 0.73,-0.55 v -2.67 c 0,-0.45 -0.11,-0.45 -0.77,-0.45 v -0.31 c 0.31,0.02 0.85,0.04 1.09,0.04 0.35,0 0.7,-0.02 1.04,-0.04 v 0.31 c -0.66,0 -0.7,0.05 -0.7,0.44 z"
         id="path5016" /><path
         style="fill:#000000;stroke-width:0"
         inkscape:connector-curvature="0"
         d="m 291.68,713.24 0,0.03 0,0.03 -0.01,0.03 0,0.03 -0.01,0.02 -0.01,0.03 0,0.03 -0.01,0.02 -0.02,0.02 -0.01,0.03 -0.01,0.02 -0.01,0.02 -0.02,0.02 -0.02,0.02 -0.01,0.02 -0.02,0.02 -0.02,0.01 -0.02,0.02 -0.02,0.01 -0.02,0.02 -0.02,0.01 -0.02,0.01 -0.03,0.01 -0.02,0.01 -0.02,0.01 -0.03,0.01 -0.02,0.01 -0.03,0 -0.02,0.01 -0.03,0 -0.02,0 -0.03,0 c -0.31,0 -0.53,-0.27 -0.53,-0.53 0,-0.26 0.22,-0.52 0.53,-0.52 0.28,0 0.53,0.21 0.53,0.52 z"
         id="path5018" /><path
         style="fill:#000000;stroke-width:0"
         inkscape:connector-curvature="0"
         d="m 293.74,710.54 v -2.66 c 0,-0.45 -0.11,-0.45 -0.78,-0.45 v -0.31 c 0.35,0.02 0.86,0.04 1.13,0.04 0.26,0 0.77,-0.02 1.11,-0.04 v 0.31 c -0.66,0 -0.77,0 -0.77,0.45 v 1.83 c 0,1.03 0.7,1.59 1.34,1.59 0.63,0 0.74,-0.54 0.74,-1.1 v -2.32 c 0,-0.45 -0.11,-0.45 -0.78,-0.45 v -0.31 c 0.35,0.02 0.86,0.04 1.12,0.04 0.26,0 0.78,-0.02 1.12,-0.04 v 0.31 c -0.67,0 -0.78,0 -0.78,0.45 v 1.83 c 0,1.03 0.71,1.59 1.35,1.59 0.62,0 0.73,-0.54 0.73,-1.1 v -2.32 c 0,-0.45 -0.11,-0.45 -0.77,-0.45 v -0.31 c 0.34,0.02 0.85,0.04 1.12,0.04 0.26,0 0.78,-0.02 1.11,-0.04 v 0.31 c -0.51,0 -0.76,0 -0.77,0.3 v 1.9 c 0,0.85 0,1.16 -0.31,1.52 -0.14,0.17 -0.47,0.37 -1.04,0.37 -0.84,0 -1.28,-0.6 -1.45,-0.98 -0.14,0.87 -0.87,0.98 -1.32,0.98 -0.73,0 -1.19,-0.43 -1.47,-1.05 v 1.05 l -1.41,-0.11 v -0.31 c 0.7,0 0.78,-0.07 0.78,-0.56 z"
         id="path5020" /><path
         style="fill:#000000;stroke-width:0"
         inkscape:connector-curvature="0"
         d="m 304.68,713.4 0.02,0.02 0.01,0.01 0.02,0.02 0.01,0.01 0.02,0.02 0,0.01 0.01,0.01 0.01,0.01 0,0 0.01,0.01 0.01,0.01 0,0.01 0.01,0.01 0,0.01 0.01,0.01 0,0.01 0.01,0.01 0,0.01 0,0.01 0.01,0.01 0,0.02 0,0.01 0,0.01 0.01,0.01 0,0.01 0,0.01 0,0.01 c 0,0.18 -0.18,0.36 -0.36,0.36 -0.15,0 -0.26,-0.11 -0.3,-0.17 l -1.19,-1.52 0.17,-0.18 z"
         id="path5022" /><path
         style="fill:#000000;stroke-width:0"
         inkscape:connector-curvature="0"
         d="m 304.26,707.88 0.01,-0.04 0,-0.03 0.01,-0.04 0.01,-0.04 0.01,-0.04 0.01,-0.03 0.01,-0.04 0.01,-0.03 0.02,-0.04 0.01,-0.03 0.02,-0.04 0.02,-0.03 0.02,-0.03 0.02,-0.04 0.02,-0.03 0.03,-0.03 0.02,-0.02 0.03,-0.03 0.03,-0.03 0.03,-0.02 0.03,-0.02 0.03,-0.03 0.03,-0.02 0.03,-0.01 0.04,-0.02 0.04,-0.01 0.03,-0.02 0.04,-0.01 0.04,0 0.04,-0.01 0.04,0 0.05,0 c 0.21,0 0.81,0.13 0.81,0.94 v 0.56 h -0.25 v -0.56 c 0,-0.58 -0.24,-0.64 -0.35,-0.64 -0.33,0 -0.37,0.45 -0.37,0.5 v 1.99 c 0,0.41 0,0.8 -0.36,1.17 -0.39,0.39 -0.89,0.55 -1.36,0.55 -0.82,0 -1.51,-0.47 -1.51,-1.13 0,-0.29 0.2,-0.46 0.46,-0.46 0.28,0 0.46,0.19 0.46,0.45 0,0.12 -0.05,0.45 -0.51,0.46 0.27,0.35 0.76,0.46 1.08,0.46 0.48,0 1.05,-0.39 1.05,-1.27 v -0.37 -0.21 -0.99 c 0,-0.95 -0.71,-1.29 -1.16,-1.29 -0.49,0 -0.9,0.35 -0.9,0.85 0,0.54 0.42,1.37 2.06,1.43 h 0 v 0.21 c -0.51,-0.03 -1.2,-0.06 -1.83,-0.36 -0.75,-0.34 -0.99,-0.85 -0.99,-1.29 0,-0.81 0.96,-1.05 1.59,-1.05 0.65,0 1.11,0.39 1.3,0.86 z"
         id="path5024" /><path
         style="fill:#000000;stroke-width:0"
         inkscape:connector-curvature="0"
         d="m 307.69,714.02 -1.43,-0.11 v -0.31 c 0.69,0 0.77,-0.07 0.77,-0.55 v -5.17 c 0,-0.45 -0.11,-0.45 -0.77,-0.45 v -0.31 c 0.33,0.02 0.85,0.04 1.1,0.04 0.25,0 0.74,-0.02 1.11,-0.04 v 0.31 c -0.67,0 -0.78,0 -0.78,0.45 z"
         id="path5026" /><path
         style="fill:#000000;stroke-width:0"
         inkscape:connector-curvature="0"
         d="m 309.79,710.54 v -2.66 c 0,-0.45 -0.11,-0.45 -0.77,-0.45 v -0.31 c 0.34,0.02 0.85,0.04 1.12,0.04 0.26,0 0.78,-0.02 1.11,-0.04 v 0.31 c -0.66,0 -0.77,0 -0.77,0.45 v 1.83 c 0,1.03 0.7,1.59 1.34,1.59 0.63,0 0.74,-0.54 0.74,-1.1 v -2.32 c 0,-0.45 -0.11,-0.45 -0.78,-0.45 v -0.31 c 0.35,0.02 0.86,0.04 1.12,0.04 0.26,0 0.78,-0.02 1.12,-0.04 v 0.31 c -0.52,0 -0.77,0 -0.78,0.3 v 1.9 c 0,0.85 0,1.16 -0.31,1.52 -0.13,0.17 -0.46,0.37 -1.04,0.37 -0.73,0 -1.19,-0.43 -1.47,-1.05 v 1.05 l -1.4,-0.11 v -0.31 c 0.69,0 0.77,-0.07 0.77,-0.56 z"
         id="path5028" /><path
         style="fill:#000000;stroke-width:0"
         inkscape:connector-curvature="0"
         d="m 318.08,710.46 0.01,0.03 0.02,0.03 0.01,0.03 0.01,0.02 0.02,0.03 0.01,0.02 0.02,0.03 0.01,0.02 0.03,0.04 0.03,0.04 0.03,0.04 0.03,0.04 0.04,0.03 0.03,0.03 0.03,0.02 0.04,0.03 0.03,0.02 0.03,0.02 0.04,0.02 0.03,0.02 0.04,0.01 0.03,0.01 0.03,0.01 0.03,0.01 0.03,0.01 0.03,0.01 0.03,0 0.03,0.01 0.03,0 0.02,0 0.03,0.01 0.02,0 0.02,0 0.02,0 0.02,0 0.02,0 v 0.31 c -0.23,-0.02 -0.52,-0.03 -0.75,-0.03 -0.18,0 -0.65,0.02 -0.87,0.03 v -0.31 c 0.31,-0.01 0.47,-0.18 0.47,-0.43 0,-0.1 -0.01,-0.12 -0.06,-0.24 l -1,-2.44 -1.11,2.67 c -0.04,0.1 -0.06,0.14 -0.06,0.18 0,0.26 0.37,0.26 0.56,0.26 v 0.31 c -0.26,-0.01 -0.91,-0.03 -1.08,-0.03 -0.27,0 -0.67,0.01 -0.97,0.03 v -0.31 c 0.48,0 0.67,0 0.81,-0.35 l 1.49,-3.63 c -0.05,-0.12 -0.19,-0.45 -0.25,-0.58 -0.22,-0.55 -0.5,-1.23 -1.13,-1.23 -0.05,0 -0.28,0 -0.47,0.18 0.31,0.04 0.39,0.25 0.39,0.41 0,0.26 -0.19,0.42 -0.42,0.42 -0.2,0 -0.42,-0.13 -0.42,-0.43 0,-0.44 0.42,-0.8 0.92,-0.8 0.62,0 1.03,0.57 1.27,1.13 z"
         id="path5030" /><path
         style="fill:#000000;stroke-width:0"
         inkscape:connector-curvature="0"
         d="m 324.19,710.42 v 1.1 l -1.38,-0.11 v -0.31 c 0.69,0 0.77,-0.07 0.77,-0.56 v -2.66 c 0,-0.45 -0.11,-0.45 -0.77,-0.45 v -0.31 c 0.39,0.02 0.85,0.04 1.13,0.04 0.4,0 0.87,0 1.26,-0.04 v 0.31 H 325 c -0.74,0 -0.76,0.11 -0.76,0.47 v 1.53 c 0,0.98 0.42,1.87 1.17,1.87 0.07,0 0.09,0 0.11,-0.01 -0.03,-0.01 -0.22,-0.13 -0.22,-0.39 0,-0.28 0.2,-0.43 0.42,-0.43 0.18,0 0.43,0.12 0.43,0.44 0,0.32 -0.31,0.61 -0.74,0.61 -0.72,0 -1.08,-0.67 -1.22,-1.1 z"
         id="path5032" /><path
         style="fill:#000000;stroke-width:0"
         inkscape:connector-curvature="0"
         d="m 327.54,709.42 0.01,0.21 c 0.06,1.48 0.89,1.73 1.23,1.73 1.02,0 1.12,-1.34 1.12,-1.73 h -2.35 l -0.01,-0.21 h 2.77 c 0.22,0 0.25,0 0.25,0.21 0,0.98 -0.54,1.95 -1.78,1.95 -1.16,0 -2.07,-1.03 -2.07,-2.27 0,-1.33 1.04,-2.29 2.19,-2.29 1.21,0 1.66,1.1 1.66,1.29 0,0.1 -0.08,0.12 -0.13,0.12 -0.09,0 -0.11,-0.06 -0.13,-0.14 -0.35,-1.03 -1.24,-1.03 -1.34,-1.03 -0.5,0 -0.9,0.3 -1.13,0.67 -0.29,0.48 -0.29,1.13 -0.29,1.49 z"
         id="path5034" /><path
         style="fill:#000000;stroke-width:0"
         inkscape:connector-curvature="0"
         d="m 334.74,711.11 0,0 0.01,0.01 0,0 0,0.01 0.01,0 0,0.01 0.01,0 0,0.01 0,0 0,0 0.01,0.01 0,0 0,0 0.01,0.01 0,0.01 0,0 0.01,0.01 0,0 0.01,0.01 0,0 0,0.01 0,0 0.01,0.01 0,0 0,0.01 0,0 0,0.01 0,0 0.01,0 0,0.01 0,0 0,0.01 0,0 0,0.01 0,0.01 c 0,0.13 -0.08,0.13 -0.26,0.13 h -3.18 l -0.11,-1.6 h 0.24 c 0.06,1.01 0.25,1.38 1.35,1.38 H 334 l -2.77,-3.75 c -0.09,-0.11 -0.09,-0.13 -0.09,-0.18 0,-0.14 0.07,-0.14 0.26,-0.14 h 3.28 l 0.17,1.86 h -0.25 c -0.09,-1.17 -0.3,-1.61 -1.45,-1.61 h -1.18 z"
         id="path5036" /></g>    <g
       ns0:preamble=""
       ns0:text="minim\\\'alny rez"
       word-spacing="normal"
       letter-spacing="normal"
       font-size-adjust="none"
       font-stretch="normal"
       font-weight="normal"
       font-variant="normal"
       font-style="normal"
       stroke-miterlimit="10.433"
       xml:space="preserve"
       transform="matrix(2.48832,0,0,-2.48832,-97.892001,2061.0746)"
       id="g5214"
       style="font-style:normal;font-variant:normal;font-weight:normal;font-stretch:normal;letter-spacing:normal;word-spacing:normal;text-anchor:start;fill:none;stroke:#000000;stroke-linecap:butt;stroke-linejoin:miter;stroke-miterlimit:10.43299961;stroke-opacity:1;stroke-dasharray:none;stroke-dashoffset:0"><path
         id="path5216"
         d="m 224.53,710.54 v -2.66 c 0,-0.45 -0.11,-0.45 -0.78,-0.45 v -0.31 c 0.35,0.02 0.86,0.04 1.13,0.04 0.25,0 0.77,-0.02 1.11,-0.04 v 0.31 c -0.67,0 -0.78,0 -0.78,0.45 v 1.83 c 0,1.03 0.71,1.59 1.35,1.59 0.62,0 0.73,-0.54 0.73,-1.1 v -2.32 c 0,-0.45 -0.11,-0.45 -0.77,-0.45 v -0.31 c 0.34,0.02 0.85,0.04 1.12,0.04 0.26,0 0.78,-0.02 1.12,-0.04 v 0.31 c -0.67,0 -0.78,0 -0.78,0.45 v 1.83 c 0,1.03 0.7,1.59 1.34,1.59 0.63,0 0.74,-0.54 0.74,-1.1 v -2.32 c 0,-0.45 -0.11,-0.45 -0.78,-0.45 v -0.31 c 0.35,0.02 0.86,0.04 1.13,0.04 0.25,0 0.77,-0.02 1.11,-0.04 v 0.31 c -0.52,0 -0.76,0 -0.78,0.3 v 1.9 c 0,0.85 0,1.16 -0.3,1.52 -0.14,0.17 -0.47,0.37 -1.05,0.37 -0.83,0 -1.27,-0.6 -1.44,-0.98 -0.14,0.87 -0.88,0.98 -1.32,0.98 -0.73,0 -1.2,-0.43 -1.48,-1.05 v 1.05 l -1.4,-0.11 v -0.31 c 0.7,0 0.78,-0.07 0.78,-0.56 z"
         inkscape:connector-curvature="0"
         style="fill:#000000;stroke-width:0" /><path
         id="path5218"
         d="m 233.49,711.52 -1.39,-0.11 v -0.31 c 0.65,0 0.74,-0.06 0.74,-0.55 v -2.67 c 0,-0.45 -0.11,-0.45 -0.78,-0.45 v -0.31 c 0.32,0.02 0.86,0.04 1.1,0.04 0.35,0 0.69,-0.02 1.03,-0.04 v 0.31 c -0.65,0 -0.7,0.05 -0.7,0.44 z"
         inkscape:connector-curvature="0"
         style="fill:#000000;stroke-width:0" /><path
         id="path5220"
         d="m 233.54,713.24 -0.01,0.03 0,0.03 0,0.03 -0.01,0.03 0,0.02 -0.01,0.03 -0.01,0.03 -0.01,0.02 -0.01,0.02 -0.01,0.03 -0.01,0.02 -0.02,0.02 -0.01,0.02 -0.02,0.02 -0.02,0.02 -0.01,0.02 -0.02,0.01 -0.02,0.02 -0.02,0.01 -0.02,0.02 -0.02,0.01 -0.03,0.01 -0.02,0.01 -0.02,0.01 -0.03,0.01 -0.02,0.01 -0.03,0.01 -0.02,0 -0.03,0.01 -0.02,0 -0.03,0 -0.02,0 c -0.31,0 -0.53,-0.27 -0.53,-0.53 0,-0.26 0.22,-0.52 0.53,-0.52 0.28,0 0.53,0.21 0.53,0.52 z"
         inkscape:connector-curvature="0"
         style="fill:#000000;stroke-width:0" /><path
         id="path5222"
         d="m 235.6,710.54 v -2.66 c 0,-0.45 -0.11,-0.45 -0.78,-0.45 v -0.31 c 0.35,0.02 0.86,0.04 1.12,0.04 0.26,0 0.78,-0.02 1.12,-0.04 v 0.31 c -0.67,0 -0.78,0 -0.78,0.45 v 1.83 c 0,1.03 0.71,1.59 1.35,1.59 0.62,0 0.73,-0.54 0.73,-1.1 v -2.32 c 0,-0.45 -0.11,-0.45 -0.77,-0.45 v -0.31 c 0.34,0.02 0.85,0.04 1.12,0.04 0.26,0 0.78,-0.02 1.11,-0.04 v 0.31 c -0.51,0 -0.76,0 -0.77,0.3 v 1.9 c 0,0.85 0,1.16 -0.31,1.52 -0.14,0.17 -0.47,0.37 -1.04,0.37 -0.73,0 -1.2,-0.43 -1.48,-1.05 v 1.05 l -1.4,-0.11 v -0.31 c 0.7,0 0.78,-0.07 0.78,-0.56 z"
         inkscape:connector-curvature="0"
         style="fill:#000000;stroke-width:0" /><path
         id="path5224"
         d="m 241.8,711.52 -1.4,-0.11 v -0.31 c 0.65,0 0.74,-0.06 0.74,-0.55 v -2.67 c 0,-0.45 -0.11,-0.45 -0.77,-0.45 v -0.31 c 0.31,0.02 0.85,0.04 1.09,0.04 0.35,0 0.7,-0.02 1.03,-0.04 v 0.31 c -0.65,0 -0.69,0.05 -0.69,0.44 z"
         inkscape:connector-curvature="0"
         style="fill:#000000;stroke-width:0" /><path
         id="path5226"
         d="m 241.84,713.24 0,0.03 -0.01,0.03 0,0.03 0,0.03 -0.01,0.02 -0.01,0.03 -0.01,0.03 -0.01,0.02 -0.01,0.02 -0.01,0.03 -0.01,0.02 -0.02,0.02 -0.01,0.02 -0.02,0.02 -0.01,0.02 -0.02,0.02 -0.02,0.01 -0.02,0.02 -0.02,0.01 -0.02,0.02 -0.02,0.01 -0.02,0.01 -0.03,0.01 -0.02,0.01 -0.02,0.01 -0.03,0.01 -0.02,0.01 -0.03,0 -0.02,0.01 -0.03,0 -0.02,0 -0.03,0 c -0.31,0 -0.53,-0.27 -0.53,-0.53 0,-0.26 0.22,-0.52 0.53,-0.52 0.28,0 0.53,0.21 0.53,0.52 z"
         inkscape:connector-curvature="0"
         style="fill:#000000;stroke-width:0" /><path
         id="path5228"
         d="m 243.9,710.54 v -2.66 c 0,-0.45 -0.11,-0.45 -0.78,-0.45 v -0.31 c 0.35,0.02 0.86,0.04 1.13,0.04 0.26,0 0.77,-0.02 1.11,-0.04 v 0.31 c -0.66,0 -0.77,0 -0.77,0.45 v 1.83 c 0,1.03 0.7,1.59 1.34,1.59 0.62,0 0.73,-0.54 0.73,-1.1 v -2.32 c 0,-0.45 -0.11,-0.45 -0.77,-0.45 v -0.31 c 0.35,0.02 0.85,0.04 1.12,0.04 0.26,0 0.78,-0.02 1.12,-0.04 v 0.31 c -0.67,0 -0.78,0 -0.78,0.45 v 1.83 c 0,1.03 0.71,1.59 1.34,1.59 0.63,0 0.74,-0.54 0.74,-1.1 v -2.32 c 0,-0.45 -0.11,-0.45 -0.78,-0.45 v -0.31 c 0.35,0.02 0.86,0.04 1.13,0.04 0.26,0 0.77,-0.02 1.11,-0.04 v 0.31 c -0.51,0 -0.76,0 -0.77,0.3 v 1.9 c 0,0.85 0,1.16 -0.31,1.52 -0.14,0.17 -0.47,0.37 -1.05,0.37 -0.83,0 -1.27,-0.6 -1.44,-0.98 -0.14,0.87 -0.87,0.98 -1.32,0.98 -0.73,0 -1.2,-0.43 -1.48,-1.05 v 1.05 l -1.4,-0.11 v -0.31 c 0.7,0 0.78,-0.07 0.78,-0.56 z"
         inkscape:connector-curvature="0"
         style="fill:#000000;stroke-width:0" /><path
         id="path5230"
         d="m 254.84,713.4 0.01,0.02 0.02,0.01 0.02,0.02 0.01,0.01 0.01,0.01 0.01,0.01 0,0.01 0.01,0.01 0.01,0.01 0,0 0.01,0.01 0.01,0.01 0,0.01 0.01,0.01 0,0.01 0.01,0.01 0,0.01 0,0.01 0.01,0.01 0,0.01 0.01,0.01 0,0.02 0,0.01 0,0.01 0,0.01 0.01,0.01 0,0.01 0,0.01 c 0,0.18 -0.18,0.36 -0.36,0.36 -0.15,0 -0.26,-0.11 -0.3,-0.17 l -1.19,-1.52 0.16,-0.18 z"
         inkscape:connector-curvature="0"
         style="fill:#000000;stroke-width:0" /><path
         id="path5232"
         d="m 254.42,707.88 0,-0.04 0.01,-0.03 0.01,-0.04 0,-0.04 0.01,-0.04 0.02,-0.03 0.01,-0.04 0.01,-0.03 0.02,-0.04 0.01,-0.03 0.02,-0.04 0.02,-0.03 0.02,-0.03 0.02,-0.04 0.02,-0.03 0.03,-0.03 0.02,-0.02 0.03,-0.03 0.03,-0.03 0.02,-0.02 0.03,-0.02 0.04,-0.03 0.03,-0.02 0.03,-0.01 0.04,-0.02 0.03,-0.01 0.04,-0.02 0.04,-0.01 0.04,0 0.04,-0.01 0.04,0 0.05,0 c 0.2,0 0.81,0.13 0.81,0.94 v 0.56 h -0.25 v -0.56 c 0,-0.58 -0.25,-0.64 -0.36,-0.64 -0.32,0 -0.36,0.45 -0.36,0.5 v 1.99 c 0,0.41 0,0.8 -0.36,1.17 -0.39,0.39 -0.89,0.55 -1.36,0.55 -0.82,0 -1.51,-0.47 -1.51,-1.13 0,-0.29 0.2,-0.46 0.46,-0.46 0.28,0 0.46,0.19 0.46,0.45 0,0.12 -0.05,0.45 -0.51,0.46 0.27,0.35 0.76,0.46 1.07,0.46 0.49,0 1.06,-0.39 1.06,-1.27 v -0.37 -0.21 -0.99 c 0,-0.95 -0.72,-1.29 -1.17,-1.29 -0.48,0 -0.89,0.35 -0.89,0.85 0,0.54 0.42,1.37 2.06,1.43 h 0 v 0.21 c -0.51,-0.03 -1.2,-0.06 -1.83,-0.36 -0.75,-0.34 -1,-0.85 -1,-1.29 0,-0.81 0.97,-1.05 1.6,-1.05 0.65,0 1.11,0.39 1.3,0.86 z"
         inkscape:connector-curvature="0"
         style="fill:#000000;stroke-width:0" /><path
         id="path5234"
         d="m 257.85,714.02 -1.43,-0.11 v -0.31 c 0.69,0 0.77,-0.07 0.77,-0.55 v -5.17 c 0,-0.45 -0.11,-0.45 -0.77,-0.45 v -0.31 c 0.32,0.02 0.85,0.04 1.1,0.04 0.25,0 0.74,-0.02 1.1,-0.04 v 0.31 c -0.66,0 -0.77,0 -0.77,0.45 z"
         inkscape:connector-curvature="0"
         style="fill:#000000;stroke-width:0" /><path
         id="path5236"
         d="m 259.95,710.54 v -2.66 c 0,-0.45 -0.11,-0.45 -0.78,-0.45 v -0.31 c 0.35,0.02 0.86,0.04 1.13,0.04 0.26,0 0.77,-0.02 1.11,-0.04 v 0.31 c -0.67,0 -0.77,0 -0.77,0.45 v 1.83 c 0,1.03 0.7,1.59 1.34,1.59 0.63,0 0.73,-0.54 0.73,-1.1 v -2.32 c 0,-0.45 -0.1,-0.45 -0.77,-0.45 v -0.31 c 0.35,0.02 0.86,0.04 1.12,0.04 0.26,0 0.78,-0.02 1.12,-0.04 v 0.31 c -0.52,0 -0.77,0 -0.78,0.3 v 1.9 c 0,0.85 0,1.16 -0.31,1.52 -0.14,0.17 -0.46,0.37 -1.04,0.37 -0.73,0 -1.19,-0.43 -1.47,-1.05 v 1.05 l -1.41,-0.11 v -0.31 c 0.7,0 0.78,-0.07 0.78,-0.56 z"
         inkscape:connector-curvature="0"
         style="fill:#000000;stroke-width:0" /><path
         id="path5238"
         d="m 268.24,710.46 0.01,0.03 0.01,0.03 0.02,0.03 0.01,0.02 0.01,0.03 0.02,0.02 0.01,0.03 0.02,0.02 0.03,0.04 0.03,0.04 0.03,0.04 0.03,0.04 0.03,0.03 0.04,0.03 0.03,0.02 0.03,0.03 0.04,0.02 0.03,0.02 0.04,0.02 0.03,0.02 0.03,0.01 0.04,0.01 0.03,0.01 0.03,0.01 0.03,0.01 0.03,0.01 0.03,0 0.03,0.01 0.03,0 0.02,0 0.03,0.01 0.02,0 0.02,0 0.02,0 0.02,0 0.02,0 v 0.31 c -0.23,-0.02 -0.52,-0.03 -0.75,-0.03 -0.18,0 -0.65,0.02 -0.87,0.03 v -0.31 c 0.31,-0.01 0.47,-0.18 0.47,-0.43 0,-0.1 -0.01,-0.12 -0.06,-0.24 l -1,-2.44 -1.11,2.67 c -0.04,0.1 -0.06,0.14 -0.06,0.18 0,0.26 0.37,0.26 0.56,0.26 v 0.31 c -0.26,-0.01 -0.92,-0.03 -1.08,-0.03 -0.27,0 -0.67,0.01 -0.97,0.03 v -0.31 c 0.48,0 0.67,0 0.81,-0.35 l 1.49,-3.63 c -0.05,-0.12 -0.19,-0.45 -0.25,-0.58 -0.22,-0.55 -0.5,-1.23 -1.13,-1.23 -0.05,0 -0.28,0 -0.47,0.18 0.31,0.04 0.39,0.25 0.39,0.41 0,0.26 -0.19,0.42 -0.42,0.42 -0.2,0 -0.42,-0.13 -0.42,-0.43 0,-0.44 0.42,-0.8 0.92,-0.8 0.62,0 1.03,0.57 1.27,1.13 z"
         inkscape:connector-curvature="0"
         style="fill:#000000;stroke-width:0" /><path
         id="path5240"
         d="m 274.35,710.42 v 1.1 l -1.39,-0.11 v -0.31 c 0.7,0 0.78,-0.07 0.78,-0.56 v -2.66 c 0,-0.45 -0.11,-0.45 -0.78,-0.45 v -0.31 c 0.39,0.02 0.86,0.04 1.14,0.04 0.4,0 0.86,0 1.26,-0.04 v 0.31 h -0.21 c -0.73,0 -0.75,0.11 -0.75,0.47 v 1.53 c 0,0.98 0.42,1.87 1.17,1.87 0.07,0 0.09,0 0.11,-0.01 -0.03,-0.01 -0.23,-0.13 -0.23,-0.39 0,-0.28 0.21,-0.43 0.43,-0.43 0.18,0 0.43,0.12 0.43,0.44 0,0.32 -0.31,0.61 -0.74,0.61 -0.72,0 -1.08,-0.67 -1.22,-1.1 z"
         inkscape:connector-curvature="0"
         style="fill:#000000;stroke-width:0" /><path
         id="path5242"
         d="m 277.69,709.42 0.01,0.21 c 0.06,1.48 0.9,1.73 1.24,1.73 1.02,0 1.12,-1.34 1.12,-1.73 h -2.36 l -0.01,-0.21 h 2.78 c 0.22,0 0.25,0 0.25,0.21 0,0.98 -0.54,1.95 -1.78,1.95 -1.16,0 -2.07,-1.03 -2.07,-2.27 0,-1.33 1.04,-2.29 2.19,-2.29 1.21,0 1.66,1.1 1.66,1.29 0,0.1 -0.08,0.12 -0.13,0.12 -0.09,0 -0.11,-0.06 -0.13,-0.14 -0.35,-1.03 -1.24,-1.03 -1.34,-1.03 -0.5,0 -0.9,0.3 -1.13,0.67 -0.3,0.48 -0.3,1.13 -0.3,1.49 z"
         inkscape:connector-curvature="0"
         style="fill:#000000;stroke-width:0" /><path
         id="path5244"
         d="m 284.91,711.11 0,0 0.01,0.01 0,0 0,0.01 0.01,0 0,0.01 0,0 0.01,0.01 0,0 0,0 0.01,0.01 0,0 0,0 0,0.01 0.01,0.01 0,0 0.01,0.01 0,0 0,0.01 0.01,0 0,0.01 0,0 0,0.01 0.01,0 0,0.01 0,0 0,0.01 0,0 0,0 0,0.01 0,0 0.01,0.01 0,0 0,0.01 0,0.01 c 0,0.13 -0.08,0.13 -0.26,0.13 h -3.19 l -0.1,-1.6 h 0.24 c 0.06,1.01 0.25,1.38 1.35,1.38 h 1.13 l -2.78,-3.75 c -0.09,-0.11 -0.09,-0.13 -0.09,-0.18 0,-0.14 0.08,-0.14 0.26,-0.14 h 3.29 l 0.17,1.86 h -0.25 c -0.09,-1.17 -0.3,-1.61 -1.45,-1.61 h -1.18 z"
         inkscape:connector-curvature="0"
         style="fill:#000000;stroke-width:0" /></g>    <g
       style="font-style:normal;font-variant:normal;font-weight:normal;font-stretch:normal;letter-spacing:normal;word-spacing:normal;text-anchor:start;fill:none;stroke:#000000;stroke-linecap:butt;stroke-linejoin:miter;stroke-miterlimit:10.43299961;stroke-opacity:1;stroke-dasharray:none;stroke-dashoffset:0"
       ns0:preamble=""
       ns0:text="mo\\v{z}n\\\'e hodnoty pr\\\'ipustn\\\'eho rie\\v{s}enia"
       text-anchor="start"
       word-spacing="normal"
       letter-spacing="normal"
       font-size-adjust="none"
       font-stretch="normal"
       font-weight="normal"
       font-variant="normal"
       font-style="normal"
       fill-opacity="1"
       fill-rule="evenodd"
       fill="none"
       stroke-opacity="1"
       stroke-dashoffset="0"
       stroke-dasharray="none"
       stroke-miterlimit="10.433"
       stroke-linejoin="miter"
       stroke-linecap="butt"
       stroke="black"
       xml:space="preserve"
       transform="matrix(2.48832,0,0,-2.48832,-350.88294,2141.0989)"
       id="content"><path
         id="path5876"
         fill="black"
         stroke-width="0"
         d="M224.53,710.54 V707.88 C224.53,707.43,224.42,707.43,223.75,707.43 V707.12 C224.1,707.14,224.61,707.16,224.88,707.16 C225.13,707.16,225.65,707.14,225.99,707.12 V707.43 C225.32,707.43,225.21,707.43,225.21,707.88 V709.71 C225.21,710.74,225.92,711.3,226.56,711.3 C227.18,711.3,227.29,710.76,227.29,710.2 V707.88 C227.29,707.43,227.18,707.43,226.52,707.43 V707.12 C226.86,707.14,227.37,707.16,227.64,707.16 C227.9,707.16,228.42,707.14,228.76,707.12 V707.43 C228.09,707.43,227.98,707.43,227.98,707.88 V709.71 C227.98,710.74,228.68,711.3,229.32,711.3 C229.95,711.3,230.06,710.76,230.06,710.2 V707.88 C230.06,707.43,229.95,707.43,229.28,707.43 V707.12 C229.63,707.14,230.14,707.16,230.41,707.16 C230.66,707.16,231.18,707.14,231.52,707.12 V707.43 C231,707.43,230.76,707.43,230.74,707.73 V709.63 C230.74,710.48,230.74,710.79,230.44,711.15 C230.3,711.32,229.97,711.52,229.39,711.52 C228.56,711.52,228.12,710.92,227.95,710.54 C227.81,711.41,227.07,711.52,226.63,711.52 C225.9,711.52,225.43,711.09,225.15,710.47 V711.52 L223.75,711.41 V711.1 C224.45,711.1,224.53,711.03,224.53,710.54 Z " /><path
         id="path5878"
         fill="black"
         stroke-width="0"
         d="M236.42,709.25 L236.42,709.37 L236.41,709.49 L236.39,709.6 L236.37,709.72 L236.35,709.83 L236.32,709.94 L236.29,710.05 L236.25,710.15 L236.2,710.25 L236.15,710.35 L236.1,710.45 L236.04,710.54 L235.98,710.64 L235.91,710.72 L235.85,710.81 L235.77,710.89 L235.7,710.97 L235.62,711.04 L235.53,711.11 L235.45,711.17 L235.36,711.24 L235.26,711.29 L235.17,711.34 L235.07,711.39 L234.97,711.43 L234.87,711.47 L234.77,711.5 L234.66,711.53 L234.55,711.55 L234.44,711.56 L234.33,711.57 L234.22,711.58 L234.21,711.36 C234.65,711.36,235.08,711.14,235.34,710.71 C235.59,710.28,235.59,709.71,235.59,709.33 C235.59,708.97,235.59,708.44,235.38,708 C235.16,707.55,234.72,707.26,234.22,707.26 H234.22 C233.79,707.26,233.36,707.47,233.09,707.93 C232.84,708.37,232.84,708.97,232.84,709.33 C232.84,709.72,232.84,710.25,233.08,710.69 C233.35,711.15,233.81,711.36,234.21,711.36 L234.22,711.58 C232.98,711.58,232.01,710.49,232.01,709.25 C232.01,707.97,233.05,707.02,234.21,707.02 C235.41,707.02,236.42,707.99,236.42,709.25 Z " /><polygon
         id="polygon5880"
         fill="black"
         stroke-width="0"
         points="238.92,712.78 237.75,713.46 237.61,713.26 238.91,712.25 240.23,713.26 240.09,713.46 " /><path
         id="path5882"
         fill="black"
         stroke-width="0"
         d="M240.6,711.11 L240.6,711.11 L240.6,711.12 L240.61,711.12 L240.61,711.13 L240.61,711.13 L240.62,711.14 L240.62,711.14 L240.62,711.15 L240.63,711.15 L240.63,711.15 L240.63,711.16 L240.64,711.16 L240.64,711.16 L240.64,711.17 L240.65,711.18 L240.65,711.18 L240.66,711.19 L240.66,711.19 L240.66,711.2 L240.67,711.2 L240.67,711.21 L240.67,711.21 L240.67,711.22 L240.68,711.22 L240.68,711.23 L240.68,711.23 L240.68,711.24 L240.68,711.24 L240.68,711.24 L240.68,711.25 L240.68,711.25 L240.68,711.26 L240.68,711.26 L240.68,711.27 L240.68,711.28 C240.68,711.41,240.6,711.41,240.43,711.41 H237.24 L237.13,709.81 H237.38 C237.44,710.82,237.63,711.19,238.73,711.19 H239.86 L237.08,707.44 C236.99,707.33,236.99,707.31,236.99,707.26 C236.99,707.12,237.06,707.12,237.25,707.12 H240.54 L240.71,708.98 H240.46 C240.37,707.81,240.16,707.37,239,707.37 H237.83 Z " /><path
         id="path5884"
         fill="black"
         stroke-width="0"
         d="M242.24,710.54 V707.88 C242.24,707.43,242.13,707.43,241.46,707.43 V707.12 C241.81,707.14,242.32,707.16,242.59,707.16 C242.84,707.16,243.36,707.14,243.7,707.12 V707.43 C243.03,707.43,242.92,707.43,242.92,707.88 V709.71 C242.92,710.74,243.63,711.3,244.27,711.3 C244.89,711.3,245,710.76,245,710.2 V707.88 C245,707.43,244.89,707.43,244.23,707.43 V707.12 C244.57,707.14,245.08,707.16,245.35,707.16 C245.61,707.16,246.13,707.14,246.46,707.12 V707.43 C245.95,707.43,245.7,707.43,245.69,707.73 V709.63 C245.69,710.48,245.69,710.79,245.38,711.15 C245.24,711.32,244.91,711.52,244.34,711.52 C243.61,711.52,243.14,711.09,242.86,710.47 V711.52 L241.46,711.41 V711.1 C242.16,711.1,242.24,711.03,242.24,710.54 Z " /><path
         id="path5886"
         fill="black"
         stroke-width="0"
         d="M250.13,713.4 L250.15,713.42 L250.16,713.43 L250.18,713.45 L250.19,713.46 L250.21,713.48 L250.22,713.49 L250.22,713.5 L250.23,713.51 L250.24,713.51 L250.24,713.52 L250.25,713.53 L250.25,713.54 L250.26,713.55 L250.26,713.56 L250.27,713.57 L250.27,713.58 L250.28,713.59 L250.28,713.6 L250.29,713.61 L250.29,713.62 L250.29,713.64 L250.29,713.65 L250.3,713.66 L250.3,713.67 L250.3,713.68 L250.3,713.69 L250.3,713.7 C250.3,713.88,250.12,714.06,249.94,714.06 C249.79,714.06,249.68,713.95,249.64,713.89 L248.45,712.37 L248.62,712.19 Z " /><path
         id="path5888"
         fill="black"
         stroke-width="0"
         d="M247.78,709.42 L247.79,709.63 C247.85,711.11,248.69,711.36,249.03,711.36 C250.05,711.36,250.15,710.02,250.15,709.63 H247.79 L247.78,709.42 H250.56 C250.78,709.42,250.81,709.42,250.81,709.63 C250.81,710.61,250.27,711.58,249.03,711.58 C247.87,711.58,246.96,710.55,246.96,709.31 C246.96,707.98,248,707.02,249.15,707.02 C250.36,707.02,250.81,708.12,250.81,708.31 C250.81,708.41,250.73,708.43,250.68,708.43 C250.59,708.43,250.57,708.37,250.55,708.29 C250.2,707.26,249.3,707.26,249.21,707.26 C248.71,707.26,248.31,707.56,248.08,707.93 C247.78,708.41,247.78,709.06,247.78,709.42 Z " /><path
         id="path5890"
         fill="black"
         stroke-width="0"
         d="M255.52,707.88 L255.52,707.86 L255.52,707.84 L255.52,707.8 L255.51,707.77 L255.51,707.73 L255.51,707.7 L255.5,707.67 L255.5,707.65 L255.49,707.62 L255.48,707.6 L255.47,707.58 L255.46,707.56 L255.45,707.54 L255.43,707.53 L255.42,707.51 L255.4,707.5 L255.38,707.49 L255.36,707.48 L255.33,707.47 L255.31,707.46 L255.28,707.46 L255.25,707.45 L255.22,707.45 L255.18,707.44 L255.16,707.44 L255.14,707.44 L255.12,707.44 L255.1,707.44 L255.08,707.44 L255.06,707.44 L255.04,707.44 L255.01,707.43 L254.99,707.43 L254.97,707.43 L254.94,707.43 L254.91,707.43 L254.89,707.43 L254.86,707.43 L254.83,707.43 L254.8,707.43 L254.77,707.43 L254.74,707.43 V707.12 C255.09,707.14,255.6,707.16,255.87,707.16 C256.12,707.16,256.64,707.14,256.98,707.12 V707.43 C256.31,707.43,256.2,707.43,256.2,707.88 V709.71 C256.2,710.74,256.91,711.3,257.55,711.3 C258.17,711.3,258.28,710.76,258.28,710.2 V707.88 C258.28,707.43,258.17,707.43,257.51,707.43 V707.12 C257.86,707.14,258.36,707.16,258.63,707.16 C258.89,707.16,259.41,707.14,259.74,707.12 V707.43 C259.23,707.43,258.98,707.43,258.97,707.73 V709.63 C258.97,710.48,258.97,710.79,258.66,711.15 C258.52,711.32,258.19,711.52,257.62,711.52 C256.78,711.52,256.34,710.92,256.17,710.54 V714.02 L254.74,713.91 V713.6 C255.44,713.6,255.52,713.53,255.52,713.05 Z " /><path
         id="path5892"
         fill="black"
         stroke-width="0"
         d="M264.64,709.25 L264.64,709.37 L264.63,709.49 L264.62,709.6 L264.6,709.72 L264.57,709.83 L264.54,709.94 L264.51,710.05 L264.47,710.15 L264.43,710.25 L264.38,710.35 L264.32,710.45 L264.27,710.54 L264.2,710.64 L264.14,710.72 L264.07,710.81 L264,710.89 L263.92,710.97 L263.84,711.04 L263.76,711.11 L263.67,711.17 L263.58,711.24 L263.49,711.29 L263.39,711.34 L263.3,711.39 L263.2,711.43 L263.1,711.47 L262.99,711.5 L262.89,711.53 L262.78,711.55 L262.67,711.56 L262.56,711.57 L262.45,711.58 L262.43,711.36 C262.87,711.36,263.3,711.14,263.56,710.71 C263.82,710.28,263.82,709.71,263.82,709.33 C263.82,708.97,263.82,708.44,263.6,708 C263.38,707.55,262.94,707.26,262.45,707.26 H262.45 C262.02,707.26,261.58,707.47,261.31,707.93 C261.06,708.37,261.06,708.97,261.06,709.33 C261.06,709.72,261.06,710.25,261.3,710.69 C261.57,711.15,262.04,711.36,262.43,711.36 L262.45,711.58 C261.2,711.58,260.24,710.49,260.24,709.25 C260.24,707.97,261.27,707.02,262.43,707.02 C263.64,707.02,264.64,707.99,264.64,709.25 Z " /><path
         id="path5894"
         fill="black"
         stroke-width="0"
         d="M269,707.67 V707.02 L270.46,707.12 V707.43 C269.77,707.43,269.68,707.5,269.68,707.99 V714.02 L268.25,713.91 V713.6 C268.95,713.6,269.03,713.53,269.03,713.05 V710.9 C268.74,711.26,268.31,711.52,267.77,711.52 L267.82,711.3 C268.16,711.3,268.58,711.15,268.89,710.7 C269,710.53,269,710.51,269,710.33 H269 V708.3 C269,708.12,269,708.1,268.89,707.93 C268.59,707.45,268.14,707.23,267.71,707.23 C267.27,707.23,266.91,707.49,266.67,707.87 C266.41,708.28,266.38,708.84,266.38,709.25 C266.38,709.62,266.4,710.21,266.69,710.66 C266.9,710.97,267.28,711.3,267.82,711.3 L267.77,711.52 C266.6,711.52,265.56,710.54,265.56,709.26 C265.56,708,266.53,707.02,267.67,707.02 C268.3,707.02,268.75,707.35,269,707.67 Z " /><path
         id="path5896"
         fill="black"
         stroke-width="0"
         d="M271.85,710.54 V707.88 C271.85,707.43,271.74,707.43,271.07,707.43 V707.12 C271.42,707.14,271.93,707.16,272.2,707.16 C272.45,707.16,272.97,707.14,273.31,707.12 V707.43 C272.64,707.43,272.53,707.43,272.53,707.88 V709.71 C272.53,710.74,273.24,711.3,273.88,711.3 C274.5,711.3,274.61,710.76,274.61,710.2 V707.88 C274.61,707.43,274.5,707.43,273.84,707.43 V707.12 C274.19,707.14,274.69,707.16,274.96,707.16 C275.22,707.16,275.74,707.14,276.08,707.12 V707.43 C275.56,707.43,275.31,707.43,275.3,707.73 V709.63 C275.3,710.48,275.3,710.79,274.99,711.15 C274.85,711.32,274.52,711.52,273.95,711.52 C273.22,711.52,272.75,711.09,272.48,710.47 V711.52 L271.07,711.41 V711.1 C271.77,711.1,271.85,711.03,271.85,710.54 Z " /><path
         id="path5898"
         fill="black"
         stroke-width="0"
         d="M280.98,709.25 L280.97,709.37 L280.96,709.49 L280.95,709.6 L280.93,709.72 L280.91,709.83 L280.88,709.94 L280.84,710.05 L280.8,710.15 L280.76,710.25 L280.71,710.35 L280.65,710.45 L280.6,710.54 L280.54,710.64 L280.47,710.72 L280.4,710.81 L280.33,710.89 L280.25,710.97 L280.17,711.04 L280.09,711.11 L280,711.17 L279.91,711.24 L279.82,711.29 L279.72,711.34 L279.63,711.39 L279.53,711.43 L279.43,711.47 L279.32,711.5 L279.22,711.53 L279.11,711.55 L279,711.56 L278.89,711.57 L278.78,711.58 L278.77,711.36 C279.2,711.36,279.63,711.14,279.89,710.71 C280.15,710.28,280.15,709.71,280.15,709.33 C280.15,708.97,280.15,708.44,279.93,708 C279.71,707.55,279.27,707.26,278.78,707.26 H278.78 C278.35,707.26,277.91,707.47,277.64,707.93 C277.39,708.37,277.39,708.97,277.39,709.33 C277.39,709.72,277.39,710.25,277.63,710.69 C277.9,711.15,278.37,711.36,278.77,711.36 L278.78,711.58 C277.53,711.58,276.57,710.49,276.57,709.25 C276.57,707.97,277.6,707.02,278.77,707.02 C279.97,707.02,280.98,707.99,280.98,709.25 Z " /><path
         id="path5900"
         fill="black"
         stroke-width="0"
         d="M282.99,711.1 H284.41 V711.41 H282.99 V713.23 H282.74 C282.73,712.42,282.43,711.36,281.46,711.32 V711.1 H282.3 V708.36 C282.3,707.14,283.23,707.02,283.59,707.02 C284.29,707.02,284.57,707.72,284.57,708.36 V708.92 H284.32 V708.38 C284.32,707.64,284.03,707.26,283.66,707.26 C282.99,707.26,282.99,708.17,282.99,708.34 Z " /><path
         id="path5902"
         fill="black"
         stroke-width="0"
         d="M288.99,710.46 L289.01,710.49 L289.02,710.52 L289.03,710.55 L289.05,710.57 L289.06,710.6 L289.07,710.62 L289.09,710.65 L289.1,710.67 L289.13,710.71 L289.16,710.75 L289.19,710.79 L289.23,710.83 L289.26,710.86 L289.29,710.89 L289.32,710.91 L289.36,710.94 L289.39,710.96 L289.43,710.98 L289.46,711 L289.49,711.02 L289.53,711.03 L289.56,711.04 L289.59,711.05 L289.62,711.06 L289.66,711.07 L289.69,711.08 L289.72,711.08 L289.74,711.09 L289.77,711.09 L289.8,711.09 L289.82,711.1 L289.84,711.1 L289.87,711.1 L289.89,711.1 L289.9,711.1 L289.92,711.1 V711.41 C289.69,711.39,289.4,711.38,289.17,711.38 C288.99,711.38,288.53,711.4,288.31,711.41 V711.1 C288.62,711.09,288.77,710.92,288.77,710.67 C288.77,710.57,288.77,710.55,288.72,710.43 L287.71,707.99 L286.61,710.66 C286.57,710.76,286.55,710.8,286.55,710.84 C286.55,711.1,286.92,711.1,287.1,711.1 V711.41 C286.85,711.4,286.19,711.38,286.02,711.38 C285.75,711.38,285.35,711.39,285.05,711.41 V711.1 C285.53,711.1,285.72,711.1,285.86,710.75 L287.35,707.12 C287.3,707,287.16,706.67,287.1,706.54 C286.89,705.99,286.61,705.31,285.97,705.31 C285.92,705.31,285.69,705.31,285.5,705.49 C285.81,705.53,285.89,705.74,285.89,705.9 C285.89,706.16,285.7,706.32,285.47,706.32 C285.27,706.32,285.05,706.19,285.05,705.89 C285.05,705.45,285.47,705.09,285.97,705.09 C286.6,705.09,287,705.66,287.24,706.22 Z " /><path
         id="path5904"
         fill="black"
         stroke-width="0"
         d="M295.16,710.86 V711.52 L293.73,711.41 V711.1 C294.44,711.1,294.51,711.04,294.51,710.6 V705.95 C294.51,705.51,294.4,705.51,293.73,705.51 V705.2 C294.07,705.21,294.58,705.23,294.84,705.23 C295.11,705.23,295.62,705.21,295.97,705.2 V705.51 C295.3,705.51,295.19,705.51,295.19,705.95 V707.62 V707.71 L295.33,707.84 C295.19,708.05,295.19,708.06,295.19,708.26 H295.19 V710.47 C295.48,710.98,295.97,711.27,296.48,711.27 C297.2,711.27,297.81,710.39,297.81,709.27 C297.81,708.07,297.11,707.23,296.38,707.23 C295.98,707.23,295.6,707.43,295.33,707.84 L295.19,707.71 C295.24,707.55,295.66,707.02,296.42,707.02 C297.6,707.02,298.64,707.99,298.64,709.27 C298.64,710.53,297.67,711.52,296.55,711.52 C295.78,711.52,295.36,711.08,295.16,710.86 Z " /><path
         id="path5906"
         fill="black"
         stroke-width="0"
         d="M300.65,710.42 V711.52 L299.27,711.41 V711.1 C299.96,711.1,300.04,711.03,300.04,710.54 V707.88 C300.04,707.43,299.93,707.43,299.27,707.43 V707.12 C299.65,707.14,300.12,707.16,300.4,707.16 C300.8,707.16,301.27,707.16,301.66,707.12 V707.43 H301.45 C300.72,707.43,300.7,707.54,300.7,707.9 V709.43 C300.7,710.41,301.11,711.3,301.87,711.3 C301.94,711.3,301.96,711.3,301.98,711.29 C301.95,711.28,301.75,711.16,301.75,710.9 C301.75,710.62,301.96,710.47,302.18,710.47 C302.36,710.47,302.61,710.59,302.61,710.91 C302.61,711.23,302.3,711.52,301.87,711.52 C301.14,711.52,300.79,710.85,300.65,710.42 Z " /><path
         id="path5908"
         fill="black"
         stroke-width="0"
         d="M305.5,713.4 L305.52,713.42 L305.54,713.43 L305.55,713.45 L305.57,713.46 L305.58,713.48 L305.59,713.49 L305.6,713.5 L305.6,713.51 L305.61,713.51 L305.62,713.52 L305.62,713.53 L305.63,713.54 L305.63,713.55 L305.64,713.56 L305.64,713.57 L305.65,713.58 L305.65,713.59 L305.66,713.6 L305.66,713.61 L305.66,713.62 L305.67,713.64 L305.67,713.65 L305.67,713.66 L305.67,713.67 L305.67,713.68 L305.67,713.69 L305.67,713.7 C305.67,713.88,305.49,714.06,305.32,714.06 C305.17,714.06,305.06,713.95,305.02,713.89 L303.82,712.37 L303.99,712.19 Z " /><path
         id="path5910"
         fill="black"
         stroke-width="0"
         d="M304.65,711.52 L303.26,711.41 V711.1 C303.9,711.1,303.99,711.04,303.99,710.55 V707.88 C303.99,707.43,303.88,707.43,303.22,707.43 V707.12 C303.54,707.14,304.07,707.16,304.31,707.16 C304.66,707.16,305.01,707.14,305.35,707.12 V707.43 C304.69,707.43,304.65,707.48,304.65,707.87 Z " /><path
         id="path5912"
         fill="black"
         stroke-width="0"
         d="M307.37,710.86 V711.52 L305.93,711.41 V711.1 C306.64,711.1,306.71,711.04,306.71,710.6 V705.95 C306.71,705.51,306.6,705.51,305.93,705.51 V705.2 C306.27,705.21,306.79,705.23,307.05,705.23 C307.32,705.23,307.83,705.21,308.17,705.2 V705.51 C307.51,705.51,307.4,705.51,307.4,705.95 V707.62 V707.71 L307.54,707.84 C307.4,708.05,307.4,708.06,307.4,708.26 H307.4 V710.47 C307.69,710.98,308.17,711.27,308.68,711.27 C309.41,711.27,310.01,710.39,310.01,709.27 C310.01,708.07,309.32,707.23,308.58,707.23 C308.18,707.23,307.8,707.43,307.54,707.84 L307.4,707.71 C307.45,707.55,307.86,707.02,308.62,707.02 C309.8,707.02,310.84,707.99,310.84,709.27 C310.84,710.53,309.88,711.52,308.76,711.52 C307.98,711.52,307.57,711.08,307.37,710.86 Z " /><path
         id="path5914"
         fill="black"
         stroke-width="0"
         d="M315.07,707.91 V707.02 L316.5,707.12 V707.43 C315.81,707.43,315.73,707.5,315.73,707.99 V711.52 L314.27,711.41 V711.1 C314.96,711.1,315.04,711.03,315.04,710.54 V708.77 C315.04,707.91,314.56,707.23,313.84,707.23 C313,707.23,312.96,707.7,312.96,708.22 V711.52 L311.5,711.41 V711.1 C312.28,711.1,312.28,711.07,312.28,710.18 V708.69 C312.28,707.92,312.28,707.02,313.79,707.02 C314.35,707.02,314.78,707.29,315.07,707.91 Z " /><path
         id="path5916"
         fill="black"
         stroke-width="0"
         d="M318.79,709.05 L318.81,709.05 L318.83,709.04 L318.86,709.04 L318.89,709.03 L318.93,709.02 L318.96,709.01 L319,709 L319.04,708.99 L319.08,708.98 L319.12,708.97 L319.17,708.95 L319.21,708.93 L319.25,708.92 L319.3,708.89 L319.34,708.87 L319.39,708.85 L319.43,708.82 L319.47,708.79 L319.51,708.76 L319.55,708.73 L319.59,708.7 L319.63,708.66 L319.66,708.62 L319.69,708.58 L319.72,708.53 L319.73,708.51 L319.74,708.48 L319.76,708.46 L319.77,708.43 L319.78,708.41 L319.79,708.38 L319.79,708.35 L319.8,708.33 L319.81,708.3 L319.81,708.27 L319.82,708.24 L319.82,708.2 L319.82,708.17 L319.82,708.14 C319.82,707.63,319.47,707.23,318.7,707.23 C317.86,707.23,317.5,707.8,317.31,708.65 C317.28,708.77,317.27,708.81,317.17,708.81 C317.05,708.81,317.05,708.74,317.05,708.57 V707.25 C317.05,707.09,317.05,707.02,317.15,707.02 C317.2,707.02,317.21,707.03,317.4,707.21 C317.42,707.23,317.42,707.25,317.6,707.44 C318.04,707.03,318.49,707.02,318.7,707.02 C319.84,707.02,320.3,707.68,320.3,708.4 C320.3,708.92,320,709.22,319.88,709.34 C319.55,709.66,319.16,709.74,318.75,709.82 C318.19,709.93,317.52,710.05,317.52,710.63 C317.52,710.98,317.78,711.39,318.64,711.39 C319.73,711.39,319.78,710.49,319.8,710.18 C319.81,710.09,319.9,710.09,319.92,710.09 C320.05,710.09,320.05,710.15,320.05,710.33 V711.34 C320.05,711.51,320.05,711.58,319.94,711.58 C319.89,711.58,319.87,711.58,319.74,711.46 C319.71,711.42,319.61,711.33,319.57,711.3 C319.19,711.58,318.79,711.58,318.64,711.58 C317.42,711.58,317.05,710.91,317.05,710.35 C317.05,710.01,317.2,709.73,317.47,709.51 C317.79,709.25,318.07,709.19,318.79,709.05 Z " /><path
         id="path5918"
         fill="black"
         stroke-width="0"
         d="M322.38,711.1 H323.8 V711.41 H322.38 V713.23 H322.13 C322.12,712.42,321.82,711.36,320.85,711.32 V711.1 H321.69 V708.36 C321.69,707.14,322.62,707.02,322.97,707.02 C323.68,707.02,323.96,707.72,323.96,708.36 V708.92 H323.71 V708.38 C323.71,707.64,323.41,707.26,323.04,707.26 C322.38,707.26,322.38,708.17,322.38,708.34 Z " /><path
         id="path5920"
         fill="black"
         stroke-width="0"
         d="M325.61,710.54 V707.88 C325.61,707.43,325.51,707.43,324.84,707.43 V707.12 C325.19,707.14,325.69,707.16,325.96,707.16 C326.22,707.16,326.74,707.14,327.08,707.12 V707.43 C326.41,707.43,326.3,707.43,326.3,707.88 V709.71 C326.3,710.74,327.01,711.3,327.64,711.3 C328.27,711.3,328.38,710.76,328.38,710.2 V707.88 C328.38,707.43,328.27,707.43,327.61,707.43 V707.12 C327.95,707.14,328.46,707.16,328.73,707.16 C328.99,707.16,329.51,707.14,329.84,707.12 V707.43 C329.33,707.43,329.08,707.43,329.07,707.73 V709.63 C329.07,710.48,329.07,710.79,328.76,711.15 C328.62,711.32,328.29,711.52,327.71,711.52 C326.99,711.52,326.52,711.09,326.24,710.47 V711.52 L324.84,711.41 V711.1 C325.54,711.1,325.61,711.03,325.61,710.54 Z " /><path
         id="path5922"
         fill="black"
         stroke-width="0"
         d="M333.52,713.4 L333.53,713.42 L333.55,713.43 L333.57,713.45 L333.58,713.46 L333.6,713.48 L333.6,713.49 L333.61,713.5 L333.62,713.51 L333.62,713.51 L333.63,713.52 L333.64,713.53 L333.64,713.54 L333.65,713.55 L333.65,713.56 L333.66,713.57 L333.66,713.58 L333.67,713.59 L333.67,713.6 L333.67,713.61 L333.68,713.62 L333.68,713.64 L333.68,713.65 L333.68,713.66 L333.68,713.67 L333.69,713.68 L333.69,713.69 L333.69,713.7 C333.69,713.88,333.51,714.06,333.33,714.06 C333.18,714.06,333.07,713.95,333.03,713.89 L331.84,712.37 L332.01,712.19 Z " /><path
         id="path5924"
         fill="black"
         stroke-width="0"
         d="M331.16,709.42 L331.17,709.63 C331.23,711.11,332.07,711.36,332.4,711.36 C333.43,711.36,333.53,710.02,333.53,709.63 H331.17 L331.16,709.42 H333.94 C334.15,709.42,334.18,709.42,334.18,709.63 C334.18,710.61,333.65,711.58,332.4,711.58 C331.25,711.58,330.33,710.55,330.33,709.31 C330.33,707.98,331.38,707.02,332.52,707.02 C333.74,707.02,334.18,708.12,334.18,708.31 C334.18,708.41,334.11,708.43,334.05,708.43 C333.97,708.43,333.95,708.37,333.93,708.29 C333.58,707.26,332.68,707.26,332.58,707.26 C332.08,707.26,331.69,707.56,331.46,707.93 C331.16,708.41,331.16,709.06,331.16,709.42 Z " /><path
         id="path5926"
         fill="black"
         stroke-width="0"
         d="M335.58,707.88 L335.58,707.86 L335.58,707.84 L335.58,707.8 L335.57,707.77 L335.57,707.73 L335.57,707.7 L335.56,707.67 L335.56,707.65 L335.55,707.62 L335.54,707.6 L335.53,707.58 L335.52,707.56 L335.51,707.54 L335.49,707.53 L335.48,707.51 L335.46,707.5 L335.44,707.49 L335.42,707.48 L335.39,707.47 L335.37,707.46 L335.34,707.46 L335.31,707.45 L335.28,707.45 L335.24,707.44 L335.22,707.44 L335.2,707.44 L335.18,707.44 L335.16,707.44 L335.14,707.44 L335.12,707.44 L335.1,707.44 L335.07,707.43 L335.05,707.43 L335.03,707.43 L335,707.43 L334.97,707.43 L334.95,707.43 L334.92,707.43 L334.89,707.43 L334.86,707.43 L334.83,707.43 L334.8,707.43 V707.12 C335.15,707.14,335.66,707.16,335.92,707.16 C336.18,707.16,336.7,707.14,337.04,707.12 V707.43 C336.37,707.43,336.26,707.43,336.26,707.88 V709.71 C336.26,710.74,336.97,711.3,337.61,711.3 C338.23,711.3,338.34,710.76,338.34,710.2 V707.88 C338.34,707.43,338.23,707.43,337.57,707.43 V707.12 C337.92,707.14,338.42,707.16,338.69,707.16 C338.95,707.16,339.47,707.14,339.81,707.12 V707.43 C339.29,707.43,339.04,707.43,339.03,707.73 V709.63 C339.03,710.48,339.03,710.79,338.72,711.15 C338.58,711.32,338.25,711.52,337.68,711.52 C336.84,711.52,336.4,710.92,336.23,710.54 V714.02 L334.8,713.91 V713.6 C335.5,713.6,335.58,713.53,335.58,713.05 Z " /><path
         id="path5928"
         fill="black"
         stroke-width="0"
         d="M344.7,709.25 L344.7,709.37 L344.69,709.49 L344.68,709.6 L344.66,709.72 L344.63,709.83 L344.6,709.94 L344.57,710.05 L344.53,710.15 L344.49,710.25 L344.44,710.35 L344.38,710.45 L344.33,710.54 L344.26,710.64 L344.2,710.72 L344.13,710.81 L344.06,710.89 L343.98,710.97 L343.9,711.04 L343.82,711.11 L343.73,711.17 L343.64,711.24 L343.55,711.29 L343.45,711.34 L343.36,711.39 L343.26,711.43 L343.16,711.47 L343.05,711.5 L342.95,711.53 L342.84,711.55 L342.73,711.56 L342.62,711.57 L342.51,711.58 L342.49,711.36 C342.93,711.36,343.36,711.14,343.62,710.71 C343.88,710.28,343.88,709.71,343.88,709.33 C343.88,708.97,343.88,708.44,343.66,708 C343.44,707.55,343,707.26,342.51,707.26 H342.51 C342.08,707.26,341.64,707.47,341.37,707.93 C341.12,708.37,341.12,708.97,341.12,709.33 C341.12,709.72,341.12,710.25,341.36,710.69 C341.63,711.15,342.1,711.36,342.49,711.36 L342.51,711.58 C341.26,711.58,340.3,710.49,340.3,709.25 C340.3,707.97,341.33,707.02,342.49,707.02 C343.7,707.02,344.7,707.99,344.7,709.25 Z " /><path
         id="path5930"
         fill="black"
         stroke-width="0"
         d="M349.99,710.42 V711.52 L348.61,711.41 V711.1 C349.3,711.1,349.38,711.03,349.38,710.54 V707.88 C349.38,707.43,349.27,707.43,348.61,707.43 V707.12 C348.99,707.14,349.46,707.16,349.74,707.16 C350.14,707.16,350.61,707.16,351,707.12 V707.43 H350.79 C350.06,707.43,350.04,707.54,350.04,707.9 V709.43 C350.04,710.41,350.46,711.3,351.21,711.3 C351.28,711.3,351.3,711.3,351.32,711.29 C351.29,711.28,351.09,711.16,351.09,710.9 C351.09,710.62,351.3,710.47,351.52,710.47 C351.7,710.47,351.95,710.59,351.95,710.91 C351.95,711.23,351.64,711.52,351.21,711.52 C350.49,711.52,350.13,710.85,349.99,710.42 Z " /><path
         id="path5932"
         fill="black"
         stroke-width="0"
         d="M353.99,711.52 L352.6,711.41 V711.1 C353.24,711.1,353.33,711.04,353.33,710.55 V707.88 C353.33,707.43,353.22,707.43,352.56,707.43 V707.12 C352.88,707.14,353.41,707.16,353.65,707.16 C354,707.16,354.35,707.14,354.69,707.12 V707.43 C354.03,707.43,353.99,707.48,353.99,707.87 Z " /><path
         id="path5934"
         fill="black"
         stroke-width="0"
         d="M354.03,713.24 L354.03,713.27 L354.03,713.3 L354.02,713.33 L354.02,713.36 L354.01,713.38 L354.01,713.41 L354,713.44 L353.99,713.46 L353.98,713.48 L353.96,713.51 L353.95,713.53 L353.94,713.55 L353.92,713.57 L353.91,713.59 L353.89,713.61 L353.87,713.63 L353.85,713.64 L353.83,713.66 L353.81,713.67 L353.79,713.69 L353.77,713.7 L353.75,713.71 L353.73,713.72 L353.7,713.73 L353.68,713.74 L353.65,713.75 L353.63,713.76 L353.61,713.76 L353.58,713.77 L353.55,713.77 L353.53,713.77 L353.5,713.77 C353.19,713.77,352.98,713.5,352.98,713.24 C352.98,712.98,353.19,712.72,353.5,712.72 C353.78,712.72,354.03,712.93,354.03,713.24 Z " /><path
         id="path5936"
         fill="black"
         stroke-width="0"
         d="M356.1,709.42 L356.11,709.63 C356.17,711.11,357.01,711.36,357.35,711.36 C358.37,711.36,358.47,710.02,358.47,709.63 H356.11 L356.1,709.42 H358.88 C359.1,709.42,359.13,709.42,359.13,709.63 C359.13,710.61,358.59,711.58,357.35,711.58 C356.19,711.58,355.27,710.55,355.27,709.31 C355.27,707.98,356.32,707.02,357.46,707.02 C358.68,707.02,359.13,708.12,359.13,708.31 C359.13,708.41,359.05,708.43,359,708.43 C358.91,708.43,358.89,708.37,358.87,708.29 C358.52,707.26,357.62,707.26,357.52,707.26 C357.03,707.26,356.63,707.56,356.4,707.93 C356.1,708.41,356.1,709.06,356.1,709.42 Z " /><polygon
         id="polygon5938"
         fill="black"
         stroke-width="0"
         points="361.38,712.78 360.21,713.46 360.07,713.26 361.37,712.25 362.69,713.26 362.55,713.46 " /><path
         id="path5940"
         fill="black"
         stroke-width="0"
         d="M361.49,709.05 L361.52,709.05 L361.54,709.04 L361.57,709.04 L361.6,709.03 L361.63,709.02 L361.67,709.01 L361.71,709 L361.75,708.99 L361.79,708.98 L361.83,708.97 L361.87,708.95 L361.92,708.93 L361.96,708.92 L362.01,708.89 L362.05,708.87 L362.09,708.85 L362.14,708.82 L362.18,708.79 L362.22,708.76 L362.26,708.73 L362.3,708.7 L362.33,708.66 L362.37,708.62 L362.4,708.58 L362.43,708.53 L362.44,708.51 L362.45,708.48 L362.46,708.46 L362.47,708.43 L362.48,708.41 L362.49,708.38 L362.5,708.35 L362.51,708.33 L362.51,708.3 L362.52,708.27 L362.52,708.24 L362.53,708.2 L362.53,708.17 L362.53,708.14 C362.53,707.63,362.18,707.23,361.4,707.23 C360.57,707.23,360.21,707.8,360.02,708.65 C359.99,708.77,359.98,708.81,359.88,708.81 C359.75,708.81,359.75,708.74,359.75,708.57 V707.25 C359.75,707.09,359.75,707.02,359.86,707.02 C359.91,707.02,359.92,707.03,360.11,707.21 C360.13,707.23,360.13,707.25,360.31,707.44 C360.75,707.03,361.2,707.02,361.4,707.02 C362.55,707.02,363.01,707.68,363.01,708.4 C363.01,708.92,362.71,709.22,362.59,709.34 C362.26,709.66,361.87,709.74,361.45,709.82 C360.9,709.93,360.23,710.05,360.23,710.63 C360.23,710.98,360.49,711.39,361.34,711.39 C362.44,711.39,362.49,710.49,362.51,710.18 C362.52,710.09,362.61,710.09,362.63,710.09 C362.76,710.09,362.76,710.15,362.76,710.33 V711.34 C362.76,711.51,362.76,711.58,362.65,711.58 C362.6,711.58,362.58,711.58,362.45,711.46 C362.42,711.42,362.32,711.33,362.28,711.3 C361.9,711.58,361.49,711.58,361.34,711.58 C360.13,711.58,359.75,710.91,359.75,710.35 C359.75,710.01,359.91,709.73,360.18,709.51 C360.5,709.25,360.78,709.19,361.49,709.05 Z " /><path
         id="path5942"
         fill="black"
         stroke-width="0"
         d="M364.46,709.42 L364.47,709.63 C364.53,711.11,365.36,711.36,365.7,711.36 C366.73,711.36,366.83,710.02,366.83,709.63 H364.47 L364.46,709.42 H367.23 C367.45,709.42,367.48,709.42,367.48,709.63 C367.48,710.61,366.95,711.58,365.7,711.58 C364.55,711.58,363.63,710.55,363.63,709.31 C363.63,707.98,364.68,707.02,365.82,707.02 C367.04,707.02,367.48,708.12,367.48,708.31 C367.48,708.41,367.4,708.43,367.35,708.43 C367.26,708.43,367.24,708.37,367.22,708.29 C366.88,707.26,365.98,707.26,365.88,707.26 C365.38,707.26,364.98,707.56,364.76,707.93 C364.46,708.41,364.46,709.06,364.46,709.42 Z " /><path
         id="path5944"
         fill="black"
         stroke-width="0"
         d="M368.88,710.54 V707.88 C368.88,707.43,368.77,707.43,368.1,707.43 V707.12 C368.45,707.14,368.95,707.16,369.22,707.16 C369.48,707.16,370,707.14,370.34,707.12 V707.43 C369.67,707.43,369.56,707.43,369.56,707.88 V709.71 C369.56,710.74,370.27,711.3,370.9,711.3 C371.53,711.3,371.64,710.76,371.64,710.2 V707.88 C371.64,707.43,371.53,707.43,370.86,707.43 V707.12 C371.21,707.14,371.72,707.16,371.99,707.16 C372.25,707.16,372.77,707.14,373.1,707.12 V707.43 C372.59,707.43,372.34,707.43,372.33,707.73 V709.63 C372.33,710.48,372.33,710.79,372.02,711.15 C371.88,711.32,371.55,711.52,370.97,711.52 C370.25,711.52,369.78,711.09,369.5,710.47 V711.52 L368.1,711.41 V711.1 C368.8,711.1,368.88,711.03,368.88,710.54 Z " /><path
         id="path5946"
         fill="black"
         stroke-width="0"
         d="M375.08,711.52 L373.68,711.41 V711.1 C374.33,711.1,374.42,711.04,374.42,710.55 V707.88 C374.42,707.43,374.31,707.43,373.64,707.43 V707.12 C373.96,707.14,374.5,707.16,374.74,707.16 C375.09,707.16,375.43,707.14,375.77,707.12 V707.43 C375.12,707.43,375.08,707.48,375.08,707.87 Z " /><path
         id="path5948"
         fill="black"
         stroke-width="0"
         d="M375.12,713.24 L375.12,713.27 L375.11,713.3 L375.11,713.33 L375.11,713.36 L375.1,713.38 L375.09,713.41 L375.08,713.44 L375.07,713.46 L375.06,713.48 L375.05,713.51 L375.04,713.53 L375.02,713.55 L375.01,713.57 L374.99,713.59 L374.98,713.61 L374.96,713.63 L374.94,713.64 L374.92,713.66 L374.9,713.67 L374.88,713.69 L374.86,713.7 L374.84,713.71 L374.81,713.72 L374.79,713.73 L374.77,713.74 L374.74,713.75 L374.72,713.76 L374.69,713.76 L374.67,713.77 L374.64,713.77 L374.62,713.77 L374.59,713.77 C374.28,713.77,374.06,713.5,374.06,713.24 C374.06,712.98,374.28,712.72,374.59,712.72 C374.87,712.72,375.12,712.93,375.12,713.24 Z " /><path
         id="path5950"
         fill="black"
         stroke-width="0"
         d="M379.4,707.88 L379.4,707.84 L379.41,707.81 L379.41,707.77 L379.42,707.73 L379.43,707.69 L379.44,707.66 L379.46,707.62 L379.47,707.59 L379.48,707.55 L379.5,707.52 L379.52,707.48 L379.54,707.45 L379.56,707.42 L379.58,707.38 L379.6,707.35 L379.62,707.32 L379.65,707.3 L379.68,707.27 L379.7,707.24 L379.73,707.22 L379.76,707.2 L379.79,707.17 L379.83,707.15 L379.86,707.14 L379.89,707.12 L379.93,707.11 L379.97,707.09 L380.01,707.08 L380.05,707.08 L380.09,707.07 L380.13,707.07 L380.17,707.07 C380.38,707.07,380.99,707.2,380.99,708.01 V708.57 H380.74 V708.01 C380.74,707.43,380.49,707.37,380.38,707.37 C380.05,707.37,380.01,707.82,380.01,707.87 V709.86 C380.01,710.27,380.01,710.66,379.65,711.03 C379.27,711.42,378.77,711.58,378.29,711.58 C377.48,711.58,376.79,711.11,376.79,710.45 C376.79,710.16,376.99,709.99,377.25,709.99 C377.53,709.99,377.7,710.18,377.7,710.44 C377.7,710.56,377.65,710.89,377.2,710.9 C377.47,711.25,377.95,711.36,378.27,711.36 C378.76,711.36,379.33,710.97,379.33,710.09 V709.72 V709.51 V708.52 C379.33,707.57,378.61,707.23,378.16,707.23 C377.67,707.23,377.27,707.58,377.27,708.08 C377.27,708.62,377.68,709.45,379.33,709.51 H379.33 V709.72 C378.82,709.69,378.12,709.66,377.5,709.36 C376.75,709.02,376.5,708.51,376.5,708.07 C376.5,707.26,377.47,707.02,378.09,707.02 C378.75,707.02,379.21,707.41,379.4,707.88 Z " /></g>  </g>
</svg>
