<?xml version="1.0" encoding="UTF-8" standalone="no"?>
<!-- Created with Inkscape (http://www.inkscape.org/) -->

<svg
   xmlns:ns0="http://www.iki.fi/pav/software/textext/"
   xmlns:dc="http://purl.org/dc/elements/1.1/"
   xmlns:cc="http://creativecommons.org/ns#"
   xmlns:rdf="http://www.w3.org/1999/02/22-rdf-syntax-ns#"
   xmlns:svg="http://www.w3.org/2000/svg"
   xmlns="http://www.w3.org/2000/svg"
   xmlns:sodipodi="http://sodipodi.sourceforge.net/DTD/sodipodi-0.dtd"
   xmlns:inkscape="http://www.inkscape.org/namespaces/inkscape"
   width="744.09448819"
   height="1052.3622047"
   id="svg2"
   version="1.1"
   inkscape:version="0.91 r13725"
   sodipodi:docname="generalminrelax_en.svg">
  <sodipodi:namedview
     id="base"
     pagecolor="#ffffff"
     bordercolor="#666666"
     borderopacity="1.0"
     inkscape:pageopacity="0.0"
     inkscape:pageshadow="2"
     inkscape:zoom="2.8"
     inkscape:cx="262.58571"
     inkscape:cy="847.05319"
     inkscape:document-units="px"
     inkscape:current-layer="layer1"
     showgrid="true"
     inkscape:window-width="1918"
     inkscape:window-height="1057"
     inkscape:window-x="0"
     inkscape:window-y="0"
     inkscape:window-maximized="0"
     showborder="false"
     inkscape:showpageshadow="false"
     inkscape:snap-grids="false">
    <inkscape:grid
       snapvisiblegridlinesonly="true"
       enabled="true"
       visible="true"
       empspacing="5"
       id="grid2998"
       type="xygrid" />
  </sodipodi:namedview>
  <defs
     id="defs4">
    <marker
       style="overflow:visible"
       id="Arrow2Lstart"
       refX="0.0"
       refY="0.0"
       orient="auto"
       inkscape:stockid="Arrow2Lstart">
      <path
         transform="scale(1.1) translate(1,0)"
         d="M 8.7185878,4.0337352 L -2.2072895,0.016013256 L 8.7185884,-4.0017078 C 6.9730900,-1.6296469 6.9831476,1.6157441 8.7185878,4.0337352 z "
         style="fill-rule:evenodd;stroke-width:0.62500000;stroke-linejoin:round"
         id="path4166" />
    </marker>
    <marker
       style="overflow:visible"
       id="Arrow1Lstart"
       refX="0.0"
       refY="0.0"
       orient="auto"
       inkscape:stockid="Arrow1Lstart">
      <path
         transform="scale(0.8) translate(12.5,0)"
         style="fill-rule:evenodd;stroke:#000000;stroke-width:1.0pt"
         d="M 0.0,0.0 L 5.0,-5.0 L -12.5,0.0 L 5.0,5.0 L 0.0,0.0 z "
         id="path4148" />
    </marker>
    <marker
       style="overflow:visible;"
       id="Arrow2Lend"
       refX="0.0"
       refY="0.0"
       orient="auto"
       inkscape:stockid="Arrow2Lend">
      <path
         transform="scale(1.1) rotate(180) translate(1,0)"
         d="M 8.7185878,4.0337352 L -2.2072895,0.016013256 L 8.7185884,-4.0017078 C 6.9730900,-1.6296469 6.9831476,1.6157441 8.7185878,4.0337352 z "
         style="fill-rule:evenodd;stroke-width:0.62500000;stroke-linejoin:round;"
         id="path4169" />
    </marker>
    <marker
       style="overflow:visible;"
       id="Arrow2Mend"
       refX="0.0"
       refY="0.0"
       orient="auto"
       inkscape:stockid="Arrow2Mend">
      <path
         transform="scale(0.6) rotate(180) translate(0,0)"
         d="M 8.7185878,4.0337352 L -2.2072895,0.016013256 L 8.7185884,-4.0017078 C 6.9730900,-1.6296469 6.9831476,1.6157441 8.7185878,4.0337352 z "
         style="fill-rule:evenodd;stroke-width:0.62500000;stroke-linejoin:round;"
         id="path4175" />
    </marker>
    <marker
       style="overflow:visible;"
       id="Arrow2Send"
       refX="0.0"
       refY="0.0"
       orient="auto"
       inkscape:stockid="Arrow2Send">
      <path
         transform="scale(0.3) rotate(180) translate(-2.3,0)"
         d="M 8.7185878,4.0337352 L -2.2072895,0.016013256 L 8.7185884,-4.0017078 C 6.9730900,-1.6296469 6.9831476,1.6157441 8.7185878,4.0337352 z "
         style="fill-rule:evenodd;stroke-width:0.62500000;stroke-linejoin:round;"
         id="path4181" />
    </marker>
  </defs>
  <metadata
     id="metadata7">
    <rdf:RDF>
      <cc:Work
         rdf:about="">
        <dc:format>image/svg+xml</dc:format>
        <dc:type
           rdf:resource="http://purl.org/dc/dcmitype/StillImage" />
        <dc:title />
      </cc:Work>
    </rdf:RDF>
  </metadata>
  <g
     style="display:inline"
     inkscape:label="Layer 1"
     inkscape:groupmode="layer"
     id="layer1">
    <path
       inkscape:connector-curvature="0"
       id="path3000"
       d="m 130,257.36218 290,0"
       style="fill:none;stroke:#000000;stroke-width:0.51785713;stroke-linecap:round;stroke-miterlimit:4;stroke-opacity:1;stroke-dasharray:none;stroke-dashoffset:0;marker-end:url(#Arrow2Lend)" />
    <path
       inkscape:connector-curvature="0"
       id="path3770"
       d="m 135,249.86218 0,15"
       style="fill:none;stroke:#000000;stroke-width:3;stroke-linecap:round;stroke-miterlimit:4;stroke-opacity:1;stroke-dasharray:none;stroke-dashoffset:0" />
    <path
       style="fill:none;stroke:#000000;stroke-width:0.5;stroke-linecap:round;stroke-miterlimit:4;stroke-opacity:1;stroke-dasharray:none;stroke-dashoffset:0"
       d="m 145,252.36218 0,10"
       id="path3772"
       inkscape:connector-curvature="0" />
    <path
       inkscape:connector-curvature="0"
       id="path3774"
       d="m 170,252.36218 0,10"
       style="fill:none;stroke:#000000;stroke-width:0.5;stroke-linecap:round;stroke-miterlimit:4;stroke-opacity:1;stroke-dasharray:none;stroke-dashoffset:0" />
    <path
       style="fill:none;stroke:#000000;stroke-width:0.50000012;stroke-linecap:round;stroke-miterlimit:4;stroke-opacity:1;stroke-dasharray:none;stroke-dashoffset:0"
       d="m 175,252.36218 0,10"
       id="path3776"
       inkscape:connector-curvature="0" />
    <path
       inkscape:connector-curvature="0"
       id="path3778"
       d="m 205,252.36218 0,10"
       style="fill:none;stroke:#000000;stroke-width:0.5;stroke-linecap:round;stroke-miterlimit:4;stroke-opacity:1;stroke-dasharray:none;stroke-dashoffset:0" />
    <path
       style="fill:none;stroke:#000000;stroke-width:0.5;stroke-linecap:round;stroke-miterlimit:4;stroke-opacity:1;stroke-dasharray:none;stroke-dashoffset:0"
       d="m 195,252.36218 0,10"
       id="path3780"
       inkscape:connector-curvature="0" />
    <path
       style="fill:none;stroke:#000000;stroke-width:0.5;stroke-linecap:round;stroke-miterlimit:4;stroke-opacity:1;stroke-dasharray:none;stroke-dashoffset:0"
       d="m 220,252.36218 0,10"
       id="path3782"
       inkscape:connector-curvature="0" />
    <path
       style="fill:none;stroke:#000000;stroke-width:0.5;stroke-linecap:round;stroke-miterlimit:4;stroke-opacity:1;stroke-dasharray:none;stroke-dashoffset:0"
       d="m 230,252.36218 0,10"
       id="path3786"
       inkscape:connector-curvature="0" />
    <path
       inkscape:connector-curvature="0"
       id="path3788"
       d="m 235,252.36218 0,10"
       style="fill:none;stroke:#000000;stroke-width:0.5;stroke-linecap:round;stroke-miterlimit:4;stroke-opacity:1;stroke-dasharray:none;stroke-dashoffset:0" />
    <path
       style="fill:none;stroke:#000000;stroke-width:0.5;stroke-linecap:round;stroke-miterlimit:4;stroke-opacity:1;stroke-dasharray:none;stroke-dashoffset:0"
       d="m 245,252.36218 0,10"
       id="path3790"
       inkscape:connector-curvature="0" />
    <path
       inkscape:connector-curvature="0"
       id="path3792"
       d="m 250,252.36218 0,10"
       style="fill:none;stroke:#000000;stroke-width:0.5;stroke-linecap:round;stroke-miterlimit:4;stroke-opacity:1;stroke-dasharray:none;stroke-dashoffset:0" />
    <path
       style="fill:none;stroke:#000000;stroke-width:0.5;stroke-linecap:round;stroke-miterlimit:4;stroke-opacity:1;stroke-dasharray:none;stroke-dashoffset:0"
       d="m 260,252.36218 0,10"
       id="path3794"
       inkscape:connector-curvature="0" />
    <path
       inkscape:connector-curvature="0"
       id="path3796"
       d="m 275,252.36218 0,10"
       style="fill:none;stroke:#000000;stroke-width:0.5;stroke-linecap:round;stroke-miterlimit:4;stroke-opacity:1;stroke-dasharray:none;stroke-dashoffset:0" />
    <path
       style="fill:none;stroke:#000000;stroke-width:0.5;stroke-linecap:round;stroke-miterlimit:4;stroke-opacity:1;stroke-dasharray:none;stroke-dashoffset:0"
       d="m 285,252.36218 0,10"
       id="path3798"
       inkscape:connector-curvature="0" />
    <path
       sodipodi:nodetypes="cc"
       inkscape:connector-curvature="0"
       id="path3800"
       d="m 290,247.36218 0,20"
       style="fill:none;stroke:#000000;stroke-width:2;stroke-linecap:round;stroke-miterlimit:4;stroke-opacity:1;stroke-dasharray:none;stroke-dashoffset:0" />
    <path
       style="fill:none;stroke:#000000;stroke-width:0.5;stroke-linecap:round;stroke-miterlimit:4;stroke-opacity:1;stroke-dasharray:none;stroke-dashoffset:0"
       d="m 325,252.36218 0,10"
       id="path3802"
       inkscape:connector-curvature="0" />
    <path
       inkscape:connector-curvature="0"
       id="path3804"
       d="m 330,252.36218 0,10"
       style="fill:none;stroke:#000000;stroke-width:0.5;stroke-linecap:round;stroke-miterlimit:4;stroke-opacity:1;stroke-dasharray:none;stroke-dashoffset:0" />
    <path
       style="fill:none;stroke:#000000;stroke-width:0.5;stroke-linecap:round;stroke-miterlimit:4;stroke-opacity:1;stroke-dasharray:none;stroke-dashoffset:0"
       d="m 295,252.36218 0,10"
       id="path3806"
       inkscape:connector-curvature="0" />
    <path
       inkscape:connector-curvature="0"
       id="path3808"
       d="m 345,252.36218 0,10"
       style="fill:none;stroke:#000000;stroke-width:0.5;stroke-linecap:round;stroke-miterlimit:4;stroke-opacity:1;stroke-dasharray:none;stroke-dashoffset:0" />
    <path
       style="fill:none;stroke:#000000;stroke-width:0.5;stroke-linecap:round;stroke-miterlimit:4;stroke-opacity:1;stroke-dasharray:none;stroke-dashoffset:0"
       d="m 355,252.36218 0,10"
       id="path3810"
       inkscape:connector-curvature="0" />
    <path
       inkscape:connector-curvature="0"
       id="path3812"
       d="m 360,252.36218 0,10"
       style="fill:none;stroke:#000000;stroke-width:0.5;stroke-linecap:round;stroke-miterlimit:4;stroke-opacity:1;stroke-dasharray:none;stroke-dashoffset:0" />
    <path
       style="fill:none;stroke:#000000;stroke-width:0.5;stroke-linecap:round;stroke-miterlimit:4;stroke-opacity:1;stroke-dasharray:none;stroke-dashoffset:0"
       d="m 365,252.36218 0,10"
       id="path3814"
       inkscape:connector-curvature="0" />
    <path
       inkscape:connector-curvature="0"
       id="path3816"
       d="m 370,252.36218 0,10"
       style="fill:none;stroke:#000000;stroke-width:0.5;stroke-linecap:round;stroke-miterlimit:4;stroke-opacity:1;stroke-dasharray:none;stroke-dashoffset:0" />
    <path
       style="fill:none;stroke:#000000;stroke-width:0.5;stroke-linecap:round;stroke-miterlimit:4;stroke-opacity:1;stroke-dasharray:none;stroke-dashoffset:0"
       d="m 385,252.36218 0,10"
       id="path3818"
       inkscape:connector-curvature="0" />
    <path
       inkscape:connector-curvature="0"
       id="path3820"
       d="m 385,252.36218 0,10"
       style="fill:none;stroke:#000000;stroke-width:0.5;stroke-linecap:round;stroke-miterlimit:4;stroke-opacity:1;stroke-dasharray:none;stroke-dashoffset:0" />
    <path
       style="fill:none;stroke:#000000;stroke-width:0.5;stroke-linecap:round;stroke-miterlimit:4;stroke-opacity:1;stroke-dasharray:none;stroke-dashoffset:0"
       d="m 390,252.36218 0,10"
       id="path3822"
       inkscape:connector-curvature="0" />
    <path
       inkscape:connector-curvature="0"
       id="path3824"
       d="m 395,252.36218 0,10"
       style="fill:none;stroke:#000000;stroke-width:0.5;stroke-linecap:round;stroke-miterlimit:4;stroke-opacity:1;stroke-dasharray:none;stroke-dashoffset:0" />
    <path
       style="fill:none;stroke:#000000;stroke-width:0.5;stroke-linecap:round;stroke-miterlimit:4;stroke-opacity:1;stroke-dasharray:none;stroke-dashoffset:0"
       d="m 405,252.36218 0,10"
       id="path3826"
       inkscape:connector-curvature="0" />
    <path
       inkscape:connector-curvature="0"
       id="path4142"
       d="m 145,302.36218 -10,-35"
       style="fill:none;stroke:#000000;stroke-width:0.25;stroke-linecap:round;stroke-miterlimit:4;stroke-opacity:1;stroke-dasharray:0.75, 0.75;stroke-dashoffset:0;marker-end:url(#Arrow2Lend)"
       sodipodi:nodetypes="cc" />
    <path
       inkscape:connector-curvature="0"
       id="path5016"
       d="m 260,302.36218 145,-35"
       style="fill:none;stroke:#000000;stroke-width:0.25;stroke-linecap:round;stroke-miterlimit:4;stroke-opacity:1;stroke-dasharray:0.75, 0.75;stroke-dashoffset:0;marker-end:url(#Arrow2Lend)"
       sodipodi:nodetypes="cc" />
    <path
       sodipodi:nodetypes="cc"
       style="fill:none;stroke:#000000;stroke-width:0.25;stroke-linecap:round;stroke-miterlimit:4;stroke-opacity:1;stroke-dasharray:0.75, 0.75;stroke-dashoffset:0;marker-end:url(#Arrow2Lend)"
       d="m 300,302.36218 -130,-35"
       id="path5233"
       inkscape:connector-curvature="0" />
    <path
       style="fill:none;stroke:#000000;stroke-width:0.25;stroke-linecap:round;stroke-miterlimit:4;stroke-opacity:1;stroke-dasharray:0.75, 0.75;stroke-dashoffset:0;marker-end:url(#Arrow2Lend)"
       d="m 380,302.36218 10,-35"
       id="path5557"
       inkscape:connector-curvature="0"
       sodipodi:nodetypes="cc" />
    <path
       sodipodi:nodetypes="czc"
       inkscape:connector-curvature="0"
       id="path6352"
       d="m 140,227.36218 c 0,0 35,-24.99999 90,-25 55,0 80,25 80,25"
       style="fill:none;stroke:#000000;stroke-width:0.5;stroke-linecap:round;stroke-miterlimit:4;stroke-opacity:1;stroke-dasharray:none;stroke-dashoffset:0;marker-start:url(#Arrow2Lstart);marker-mid:none;marker-end:url(#Arrow2Lend)" />
    <path
       inkscape:connector-curvature="0"
       id="path7116"
       d="m 170,232.36218 0,15"
       style="fill:none;stroke:#000000;stroke-width:1;stroke-linecap:round;stroke-miterlimit:4;stroke-opacity:1;stroke-dasharray:none;stroke-dashoffset:0;marker-end:url(#Arrow2Send)" />
    <path
       inkscape:connector-curvature="0"
       id="path7512"
       d="m 310,247.36218 0,20"
       style="fill:none;stroke:#000000;stroke-width:0.40000001;stroke-linecap:round;stroke-miterlimit:4;stroke-opacity:1;stroke-dasharray:1.60000002,1.60000002;stroke-dashoffset:0" />
    <path
       style="fill:none;stroke:#000000;stroke-width:1;stroke-linecap:round;stroke-miterlimit:4;stroke-opacity:1;stroke-dasharray:none;stroke-dashoffset:0;marker-end:url(#Arrow2Send)"
       d="m 255,232.36218 30,15"
       id="path7874"
       inkscape:connector-curvature="0"
       sodipodi:nodetypes="cc" />
    <path
       inkscape:connector-curvature="0"
       id="path3145"
       d="m 200,252.36218 0,10"
       style="fill:none;stroke:#000000;stroke-width:0.5;stroke-linecap:round;stroke-miterlimit:4;stroke-opacity:1;stroke-dasharray:none;stroke-dashoffset:0" />
    <g
       id="g3870"
       transform="matrix(1,0,0,-1,-57.44,936.04218)"
       xml:space="preserve"
       stroke="black"
       stroke-linecap="butt"
       stroke-linejoin="miter"
       stroke-miterlimit="10.433"
       stroke-dasharray="none"
       stroke-dashoffset="0"
       stroke-opacity="1"
       fill="none"
       fill-rule="evenodd"
       fill-opacity="1"
       font-style="normal"
       font-variant="normal"
       font-weight="normal"
       font-stretch="normal"
       font-size-adjust="none"
       letter-spacing="normal"
       word-spacing="normal"
       text-anchor="start"
       ns0:text="$m^\\star$"
       ns0:preamble=""
       style="font-style:normal;font-variant:normal;font-weight:normal;font-stretch:normal;letter-spacing:normal;word-spacing:normal;text-anchor:start;fill:none;stroke:#000000;stroke-linecap:butt;stroke-linejoin:miter;stroke-miterlimit:10.43299961;stroke-opacity:1;stroke-dasharray:none;stroke-dashoffset:0"><path
         d="M224.31,707.71 L224.31,707.7 L224.3,707.68 L224.3,707.67 L224.3,707.65 L224.29,707.62 L224.28,707.59 L224.27,707.56 L224.27,707.52 L224.26,707.49 L224.25,707.46 L224.25,707.45 L224.24,707.43 L224.24,707.42 L224.24,707.4 L224.24,707.39 L224.23,707.38 L224.23,707.36 L224.23,707.35 L224.23,707.34 L224.22,707.33 L224.22,707.32 L224.22,707.31 L224.22,707.3 L224.22,707.3 L224.22,707.29 L224.22,707.28 C224.22,707.1,224.36,707.02,224.51,707.02 C224.63,707.02,224.8,707.09,224.88,707.29 C224.88,707.31,225,707.78,225.06,708.03 L225.28,708.92 C225.34,709.14,225.4,709.36,225.45,709.59 C225.49,709.76,225.57,710.05,225.58,710.09 C225.73,710.39,226.26,711.3,227.2,711.3 C227.65,711.3,227.74,710.93,227.74,710.6 C227.74,710.35,227.67,710.08,227.59,709.78 L227.31,708.62 L227.11,707.87 C227.07,707.67,226.98,707.33,226.98,707.28 C226.98,707.1,227.12,707.02,227.27,707.02 C227.58,707.02,227.64,707.26,227.72,707.58 C227.86,708.14,228.23,709.59,228.32,709.98 C228.35,710.1,228.87,711.3,229.96,711.3 C230.39,711.3,230.5,710.96,230.5,710.6 C230.5,710.04,230.08,708.9,229.88,708.38 C229.79,708.14,229.75,708.03,229.75,707.83 C229.75,707.36,230.1,707.02,230.57,707.02 C231.5,707.02,231.87,708.47,231.87,708.55 C231.87,708.65,231.78,708.65,231.75,708.65 C231.65,708.65,231.65,708.61,231.6,708.47 C231.45,707.94,231.13,707.23,230.59,707.23 C230.42,707.23,230.35,707.33,230.35,707.56 C230.35,707.81,230.44,708.05,230.53,708.27 C230.71,708.78,231.13,709.89,231.13,710.45 C231.13,711.1,230.74,711.52,229.99,711.52 C229.24,711.52,228.74,711.08,228.37,710.55 C228.36,710.68,228.33,711.02,228.05,711.26 C227.8,711.47,227.48,711.52,227.23,711.52 C226.34,711.52,225.85,710.88,225.68,710.65 C225.63,711.22,225.21,711.52,224.76,711.52 C224.31,711.52,224.12,711.13,224.03,710.95 C223.85,710.6,223.72,710.02,223.72,709.99 C223.72,709.89,223.82,709.89,223.84,709.89 C223.94,709.89,223.95,709.9,224.01,710.11 C224.18,710.82,224.38,711.3,224.74,711.3 C224.9,711.3,225.04,711.22,225.04,710.84 C225.04,710.63,225.01,710.52,224.88,710.01 Z "
         stroke-width="0"
         fill="black"
         id="path3872" /><path
         d="M235.84,712.74 L235.84,712.74 L235.85,712.74 L235.85,712.74 L235.86,712.75 L235.86,712.75 L235.87,712.75 L235.87,712.75 L235.88,712.76 L235.88,712.76 L235.89,712.76 L235.89,712.76 L235.89,712.77 L235.9,712.77 L235.9,712.77 L235.9,712.77 L235.91,712.77 L235.91,712.78 L235.91,712.78 L235.92,712.78 L235.92,712.78 L235.93,712.79 L235.93,712.79 L235.93,712.8 L235.94,712.8 L235.94,712.8 L235.95,712.81 L235.95,712.81 L235.95,712.82 L235.95,712.82 L235.95,712.82 L235.96,712.83 L235.96,712.83 L235.96,712.83 L235.96,712.84 L235.96,712.84 L235.96,712.84 L235.96,712.85 L235.96,712.85 L235.96,712.86 L235.96,712.86 C235.96,712.92,235.9,712.95,235.86,712.95 C235.83,712.95,234.67,712.73,234.48,712.69 L234.32,713.97 C234.31,714.07,234.3,714.15,234.21,714.15 C234.14,714.15,234.12,714.09,234.1,713.98 L233.95,712.69 L232.67,712.94 C232.58,712.95,232.57,712.95,232.56,712.95 C232.53,712.95,232.46,712.92,232.46,712.86 C232.46,712.83,232.48,712.81,232.5,712.78 C232.53,712.76,233.63,712.26,233.78,712.19 L233.15,711.03 C233.1,710.95,233.1,710.93,233.1,710.92 C233.1,710.87,233.14,710.82,233.19,710.82 C233.25,710.82,233.4,710.99,233.67,711.3 C233.84,711.49,234.03,711.68,234.21,711.87 C234.55,711.52,235.05,710.97,235.13,710.89 C235.19,710.84,235.2,710.82,235.24,710.82 C235.29,710.82,235.33,710.87,235.33,710.92 C235.33,710.95,235.24,711.1,235.2,711.19 L234.64,712.18 Z "
         stroke-width="0"
         fill="black"
         id="path3874" /></g>    <g
       style="font-style:normal;font-variant:normal;font-weight:normal;font-stretch:normal;letter-spacing:normal;word-spacing:normal;text-anchor:start;fill:none;stroke:#000000;stroke-linecap:butt;stroke-linejoin:miter;stroke-miterlimit:10.43299961;stroke-opacity:1;stroke-dasharray:none;stroke-dashoffset:0"
       ns0:preamble=""
       ns0:text="$m$"
       word-spacing="normal"
       letter-spacing="normal"
       font-size-adjust="none"
       font-stretch="normal"
       font-weight="normal"
       font-variant="normal"
       font-style="normal"
       stroke-miterlimit="10.433"
       xml:space="preserve"
       transform="matrix(1,0,0,-1,21.25,937.31361)"
       id="g4164"><path
         id="path4167"
         d="m 224.31,707.71 0,-0.01 -0.01,-0.02 0,-0.01 0,-0.02 -0.01,-0.03 -0.01,-0.03 -0.01,-0.03 0,-0.04 -0.01,-0.03 -0.01,-0.03 0,-0.01 -0.01,-0.02 0,-0.01 0,-0.02 0,-0.01 -0.01,-0.01 0,-0.02 0,-0.01 0,-0.01 -0.01,-0.01 0,-0.01 0,-0.01 0,-0.01 0,0 0,-0.01 0,-0.01 c 0,-0.18 0.14,-0.26 0.29,-0.26 0.12,0 0.29,0.07 0.37,0.27 0,0.02 0.12,0.49 0.18,0.74 l 0.22,0.89 c 0.06,0.22 0.12,0.44 0.17,0.67 0.04,0.17 0.12,0.46 0.13,0.5 0.15,0.3 0.68,1.21 1.62,1.21 0.45,0 0.54,-0.37 0.54,-0.7 0,-0.25 -0.07,-0.52 -0.15,-0.82 l -0.28,-1.16 -0.2,-0.75 c -0.04,-0.2 -0.13,-0.54 -0.13,-0.59 0,-0.18 0.14,-0.26 0.29,-0.26 0.31,0 0.37,0.24 0.45,0.56 0.14,0.56 0.51,2.01 0.6,2.4 0.03,0.12 0.55,1.32 1.64,1.32 0.43,0 0.54,-0.34 0.54,-0.7 0,-0.56 -0.42,-1.7 -0.62,-2.22 -0.09,-0.24 -0.13,-0.35 -0.13,-0.55 0,-0.47 0.35,-0.81 0.82,-0.81 0.93,0 1.3,1.45 1.3,1.53 0,0.1 -0.09,0.1 -0.12,0.1 -0.1,0 -0.1,-0.04 -0.15,-0.18 -0.15,-0.53 -0.47,-1.24 -1.01,-1.24 -0.17,0 -0.24,0.1 -0.24,0.33 0,0.25 0.09,0.49 0.18,0.71 0.18,0.51 0.6,1.62 0.6,2.18 0,0.65 -0.39,1.07 -1.14,1.07 -0.75,0 -1.25,-0.44 -1.62,-0.97 -0.01,0.13 -0.04,0.47 -0.32,0.71 -0.25,0.21 -0.57,0.26 -0.82,0.26 -0.89,0 -1.38,-0.64 -1.55,-0.87 -0.05,0.57 -0.47,0.87 -0.92,0.87 -0.45,0 -0.64,-0.39 -0.73,-0.57 -0.18,-0.35 -0.31,-0.93 -0.31,-0.96 0,-0.1 0.1,-0.1 0.12,-0.1 0.1,0 0.11,0.01 0.17,0.22 0.17,0.71 0.37,1.19 0.73,1.19 0.16,0 0.3,-0.08 0.3,-0.46 0,-0.21 -0.03,-0.32 -0.16,-0.83 z"
         inkscape:connector-curvature="0"
         style="fill:#000000;stroke-width:0" /></g>    <g
       id="content"
       transform="matrix(1,0,0,-1,-95.392524,949.97855)"
       xml:space="preserve"
       stroke-miterlimit="10.433"
       font-style="normal"
       font-variant="normal"
       font-weight="normal"
       font-stretch="normal"
       font-size-adjust="none"
       letter-spacing="normal"
       word-spacing="normal"
       ns0:text="\\boldmath{$m^\\star_Q$}"
       ns0:preamble=""
       style="font-style:normal;font-variant:normal;font-weight:normal;font-stretch:normal;letter-spacing:normal;word-spacing:normal;text-anchor:start;fill:none;stroke:#000000;stroke-linecap:butt;stroke-linejoin:miter;stroke-miterlimit:10.43299961;stroke-opacity:1;stroke-dasharray:none;stroke-dashoffset:0"><path
         style="fill:#000000;stroke-width:0"
         inkscape:connector-curvature="0"
         d="m 227.72,708.22 -0.01,-0.03 0,-0.02 -0.01,-0.03 0,-0.02 -0.01,-0.03 -0.01,-0.03 -0.01,-0.05 -0.02,-0.06 -0.01,-0.06 -0.01,-0.05 -0.02,-0.06 0,-0.02 -0.01,-0.03 -0.01,-0.03 0,-0.02 -0.01,-0.02 0,-0.03 -0.01,-0.02 0,-0.02 -0.01,-0.02 0,-0.01 0,-0.02 0,-0.02 -0.01,-0.01 0,-0.01 0,-0.01 0,-0.01 c 0,-0.21 0.16,-0.43 0.47,-0.43 0.17,0 0.48,0.09 0.63,0.42 0.08,0.21 0.52,2.09 0.62,2.5 0.03,0.14 0.05,0.19 0.26,0.47 0.26,0.34 0.73,0.82 1.42,0.82 0.26,0 0.5,-0.1 0.5,-0.59 0,-0.57 -0.44,-1.73 -0.63,-2.22 -0.11,-0.27 -0.14,-0.34 -0.14,-0.51 0,-0.58 0.58,-0.89 1.13,-0.89 1.05,0 1.55,1.35 1.55,1.54 0,0.14 -0.15,0.14 -0.24,0.14 -0.12,0 -0.19,0 -0.23,-0.13 -0.32,-1.1 -0.86,-1.2 -1.02,-1.2 -0.07,0 -0.17,0 -0.17,0.21 0,0.23 0.1,0.48 0.2,0.73 0.16,0.4 0.62,1.57 0.62,2.12 0,0.92 -0.77,1.15 -1.49,1.15 -0.23,0 -0.98,0 -1.73,-0.85 -0.03,0.13 -0.1,0.44 -0.48,0.65 -0.35,0.2 -0.85,0.2 -0.96,0.2 -0.21,0 -0.94,0 -1.64,-0.75 -0.14,0.5 -0.69,0.75 -1.23,0.75 -0.36,0 -0.64,-0.2 -0.86,-0.56 -0.25,-0.4 -0.38,-0.94 -0.38,-0.98 0,-0.14 0.15,-0.14 0.24,-0.14 0.11,0 0.15,0 0.2,0.05 0.02,0.02 0.02,0.04 0.08,0.28 0.2,0.78 0.42,1 0.67,1 0.15,0 0.23,-0.1 0.23,-0.37 0,-0.17 -0.04,-0.33 -0.14,-0.73 -0.07,-0.27 -0.16,-0.67 -0.21,-0.89 l -0.36,-1.39 c -0.03,-0.14 -0.08,-0.33 -0.08,-0.4 0,-0.21 0.16,-0.43 0.47,-0.43 0.51,0 0.63,0.45 0.7,0.75 0.1,0.37 0.18,0.69 0.28,1.11 0.04,0.13 0.29,1.16 0.31,1.18 0.01,0.07 0.29,0.51 0.62,0.78 0.27,0.22 0.6,0.39 1.02,0.39 0.26,0 0.5,-0.1 0.5,-0.59 0,-0.23 -0.07,-0.51 -0.11,-0.66 z"
         id="path4436" /><path
         style="fill:#000000;stroke-width:0"
         inkscape:connector-curvature="0"
         d="m 237.72,712.71 0.02,0.01 0.01,0 0.02,0.01 0,0.01 0.01,0 0.01,0 0,0.01 0.01,0 0.01,0.01 0,0 0.01,0 0,0.01 0.01,0 0,0.01 0.01,0 0,0.01 0,0 0.01,0.01 0,0 0.01,0.01 0,0.01 0,0 0,0.01 0,0.01 0.01,0 0,0.01 0,0.01 0,0.01 0,0.01 c 0,0.07 -0.05,0.15 -0.16,0.15 -0.06,0 -0.49,-0.06 -1.33,-0.19 l -0.22,1.24 c -0.03,0.1 -0.04,0.2 -0.17,0.2 -0.12,0 -0.13,-0.11 -0.15,-0.2 l -0.23,-1.24 c -0.58,0.08 -1.27,0.19 -1.33,0.19 -0.11,0 -0.16,-0.08 -0.16,-0.15 0,-0.1 0.05,-0.12 0.14,-0.16 l 1.03,-0.55 c 0.08,-0.04 0.08,-0.05 0.08,-0.06 0,-0.02 -0.14,-0.3 -0.16,-0.35 -0.11,-0.19 -0.43,-0.85 -0.43,-0.9 0,-0.08 0.07,-0.15 0.15,-0.15 0.03,0 0.06,0 0.08,0.02 0.02,0.01 0.16,0.15 0.5,0.48 l 0.48,0.46 0.69,-0.66 c 0.05,-0.04 0.17,-0.16 0.21,-0.21 0.11,-0.09 0.12,-0.09 0.17,-0.09 0.09,0 0.15,0.07 0.15,0.15 0,0.03 -0.01,0.05 -0.03,0.1 -0.04,0.09 -0.18,0.38 -0.28,0.56 -0.06,0.13 -0.22,0.46 -0.28,0.6 z"
         id="path4438" /><path
         style="fill:#000000;stroke-width:0"
         inkscape:connector-curvature="0"
         d="m 237.8,704.14 0.16,0.06 0.15,0.06 0.14,0.07 0.14,0.07 0.13,0.07 0.12,0.08 0.12,0.09 0.11,0.08 0.11,0.09 0.1,0.09 0.09,0.1 0.09,0.09 0.08,0.1 0.08,0.1 0.07,0.1 0.07,0.11 0.06,0.1 0.05,0.1 0.06,0.11 0.04,0.1 0.05,0.1 0.04,0.11 0.03,0.1 0.03,0.1 0.03,0.1 0.02,0.1 0.02,0.09 0.01,0.1 0.01,0.09 0.01,0.09 0.01,0.08 0,0.08 c 0,1.26 -0.95,1.87 -2.3,1.87 -2.39,0 -3.56,-1.81 -3.56,-3.15 0,-1.23 0.93,-1.84 2.31,-1.84 l 0.09,0.36 c -0.15,0 -0.4,0 -0.4,0.18 0,0.21 0.29,0.37 0.57,0.37 v 0.32 c -0.3,0 -0.89,-0.18 -0.89,-0.73 h 0 c -0.48,0.21 -0.66,0.62 -0.66,1.14 0,0.32 0.16,1.54 0.81,2.28 0.5,0.55 1.15,0.72 1.64,0.72 0.22,0 0.66,-0.03 1.01,-0.34 0.28,-0.24 0.36,-0.62 0.36,-0.96 0,-0.12 -0.08,-2.09 -1.42,-2.74 -0.15,0.26 -0.35,0.63 -0.85,0.63 v -0.32 c 0.21,0 0.38,-0.07 0.45,-0.47 h 0 c -0.32,-0.08 -0.55,-0.08 -0.62,-0.08 l -0.09,-0.36 c 0.38,0 0.69,0.06 0.75,0.06 0.05,-0.63 0.1,-1.29 0.81,-1.29 0.89,0 1.36,1.13 1.36,1.34 0,0.09 -0.07,0.16 -0.15,0.16 -0.1,0 -0.13,-0.08 -0.16,-0.14 -0.09,-0.22 -0.43,-0.26 -0.73,-0.26 -0.18,0 -0.36,0 -0.56,0.34 z"
         id="path4440" /></g>    <g
       id="g5049"
       transform="matrix(1,0,0,-1,78.536047,946.04998)"
       xml:space="preserve"
       stroke="black"
       stroke-linecap="butt"
       stroke-linejoin="miter"
       stroke-miterlimit="10.433"
       stroke-dasharray="none"
       stroke-dashoffset="0"
       stroke-opacity="1"
       fill="none"
       fill-rule="evenodd"
       fill-opacity="1"
       font-style="normal"
       font-variant="normal"
       font-weight="normal"
       font-stretch="normal"
       font-size-adjust="none"
       letter-spacing="normal"
       word-spacing="normal"
       text-anchor="start"
       ns0:text="\\boldmath{$rm^\\star_Q$}"
       ns0:preamble=""
       style="font-style:normal;font-variant:normal;font-weight:normal;font-stretch:normal;letter-spacing:normal;word-spacing:normal;text-anchor:start;fill:none;stroke:#000000;stroke-linecap:butt;stroke-linejoin:miter;stroke-miterlimit:10.43299961;stroke-opacity:1;stroke-dasharray:none;stroke-dashoffset:0"><path
         d="M227.85,711.12 L227.82,711.11 L227.8,711.11 L227.78,711.1 L227.75,711.09 L227.73,711.09 L227.71,711.08 L227.69,711.07 L227.67,711.06 L227.65,711.05 L227.63,711.04 L227.61,711.03 L227.59,711.02 L227.56,711 L227.52,710.98 L227.49,710.95 L227.47,710.93 L227.44,710.9 L227.42,710.88 L227.4,710.85 L227.38,710.82 L227.36,710.79 L227.34,710.77 L227.33,710.74 L227.31,710.71 L227.3,710.68 L227.29,710.66 L227.28,710.63 L227.27,710.61 L227.27,710.58 L227.26,710.56 L227.26,710.54 L227.25,710.51 L227.25,710.49 L227.25,710.48 L227.24,710.46 L227.24,710.45 L227.24,710.43 L227.24,710.42 C227.24,710.2,227.41,709.97,227.74,709.97 C228.08,709.97,228.46,710.24,228.46,710.75 C228.46,711.21,228.1,711.61,227.48,711.61 C226.92,711.61,226.46,711.34,226.16,711.02 C225.92,711.48,225.35,711.61,224.99,711.61 C224.63,711.61,224.35,711.41,224.13,711.05 C223.89,710.66,223.75,710.12,223.75,710.07 C223.75,709.93,223.9,709.93,223.99,709.93 C224.1,709.93,224.14,709.93,224.19,709.98 C224.21,710,224.21,710.02,224.27,710.26 C224.46,711.02,224.68,711.26,224.94,711.26 C225.09,711.26,225.17,711.16,225.17,710.9 C225.17,710.72,225.14,710.61,225.03,710.15 C224.98,709.98,224.82,709.32,224.76,709.07 C224.71,708.88,224.61,708.44,224.56,708.26 C224.5,708,224.38,707.55,224.38,707.48 C224.38,707.27,224.54,707.05,224.85,707.05 C225.04,707.05,225.39,707.16,225.5,707.57 C225.51,707.6,226.19,710.3,226.2,710.36 C226.24,710.51,226.24,710.53,226.37,710.68 C226.6,710.97,226.96,711.26,227.46,711.26 C227.71,711.26,227.82,711.15,227.85,711.12 Z "
         stroke-width="0"
         fill="black"
         id="path5051" /><path
         d="M233.31,708.22 L233.3,708.19 L233.29,708.17 L233.29,708.14 L233.28,708.12 L233.27,708.09 L233.27,708.06 L233.25,708.01 L233.24,707.95 L233.23,707.89 L233.21,707.84 L233.2,707.78 L233.19,707.76 L233.19,707.73 L233.18,707.7 L233.17,707.68 L233.17,707.66 L233.16,707.63 L233.16,707.61 L233.15,707.59 L233.15,707.57 L233.15,707.56 L233.14,707.54 L233.14,707.52 L233.14,707.51 L233.14,707.5 L233.14,707.49 L233.14,707.48 C233.14,707.27,233.3,707.05,233.6,707.05 C233.77,707.05,234.08,707.14,234.23,707.47 C234.31,707.68,234.76,709.56,234.86,709.97 C234.89,710.11,234.91,710.16,235.12,710.44 C235.38,710.78,235.84,711.26,236.54,711.26 C236.8,711.26,237.04,711.16,237.04,710.67 C237.04,710.1,236.6,708.94,236.41,708.45 C236.3,708.18,236.27,708.11,236.27,707.94 C236.27,707.36,236.85,707.05,237.4,707.05 C238.45,707.05,238.95,708.4,238.95,708.59 C238.95,708.73,238.8,708.73,238.71,708.73 C238.59,708.73,238.52,708.73,238.48,708.6 C238.15,707.5,237.61,707.4,237.46,707.4 C237.38,707.4,237.29,707.4,237.29,707.61 C237.29,707.84,237.38,708.09,237.49,708.34 C237.64,708.74,238.1,709.91,238.1,710.46 C238.1,711.38,237.34,711.61,236.62,711.61 C236.39,711.61,235.63,711.61,234.89,710.76 C234.86,710.89,234.79,711.2,234.41,711.41 C234.05,711.61,233.55,711.61,233.45,711.61 C233.24,711.61,232.51,711.61,231.8,710.86 C231.66,711.36,231.12,711.61,230.58,711.61 C230.21,711.61,229.93,711.41,229.71,711.05 C229.47,710.65,229.34,710.11,229.34,710.07 C229.34,709.93,229.49,709.93,229.57,709.93 C229.68,709.93,229.72,709.93,229.77,709.98 C229.79,710,229.79,710.02,229.85,710.26 C230.05,711.04,230.27,711.26,230.53,711.26 C230.68,711.26,230.76,711.16,230.76,710.89 C230.76,710.72,230.72,710.56,230.62,710.16 C230.55,709.89,230.45,709.49,230.4,709.27 L230.04,707.88 C230.01,707.74,229.96,707.55,229.96,707.48 C229.96,707.27,230.12,707.05,230.43,707.05 C230.95,707.05,231.07,707.5,231.14,707.8 C231.24,708.17,231.32,708.49,231.42,708.91 C231.46,709.04,231.7,710.07,231.72,710.09 C231.73,710.16,232.01,710.6,232.34,710.87 C232.62,711.09,232.95,711.26,233.37,711.26 C233.62,711.26,233.86,711.16,233.86,710.67 C233.86,710.44,233.79,710.16,233.75,710.01 Z "
         stroke-width="0"
         fill="black"
         id="path5053" /><path
         d="M243.31,712.71 L243.32,712.72 L243.34,712.72 L243.35,712.73 L243.36,712.74 L243.37,712.74 L243.37,712.74 L243.38,712.75 L243.38,712.75 L243.39,712.76 L243.4,712.76 L243.4,712.76 L243.41,712.77 L243.41,712.77 L243.42,712.78 L243.42,712.78 L243.43,712.79 L243.43,712.79 L243.43,712.8 L243.44,712.8 L243.44,712.81 L243.44,712.82 L243.45,712.82 L243.45,712.83 L243.45,712.84 L243.45,712.84 L243.45,712.85 L243.45,712.86 L243.45,712.87 L243.45,712.88 C243.45,712.95,243.4,713.03,243.29,713.03 C243.24,713.03,242.81,712.97,241.96,712.84 L241.74,714.08 C241.72,714.18,241.71,714.28,241.58,714.28 C241.46,714.28,241.44,714.17,241.42,714.08 L241.2,712.84 C240.61,712.92,239.92,713.03,239.87,713.03 C239.76,713.03,239.71,712.95,239.71,712.88 C239.71,712.78,239.76,712.76,239.85,712.72 L240.87,712.17 C240.95,712.13,240.95,712.12,240.95,712.11 C240.95,712.09,240.81,711.81,240.79,711.76 C240.69,711.57,240.36,710.91,240.36,710.86 C240.36,710.78,240.43,710.71,240.51,710.71 C240.55,710.71,240.57,710.71,240.6,710.73 C240.61,710.74,240.75,710.88,241.1,711.21 L241.58,711.67 L242.26,711.01 C242.31,710.97,242.43,710.85,242.48,710.8 C242.58,710.71,242.6,710.71,242.65,710.71 C242.73,710.71,242.8,710.78,242.8,710.86 C242.8,710.89,242.79,710.91,242.76,710.96 C242.72,711.05,242.58,711.34,242.49,711.52 C242.42,711.65,242.27,711.98,242.2,712.12 Z "
         stroke-width="0"
         fill="black"
         id="path5055" /><path
         d="M243.38,704.14 L243.54,704.2 L243.69,704.26 L243.83,704.33 L243.97,704.4 L244.1,704.47 L244.23,704.55 L244.34,704.64 L244.45,704.72 L244.56,704.81 L244.66,704.9 L244.75,705 L244.84,705.09 L244.92,705.19 L245,705.29 L245.07,705.39 L245.14,705.5 L245.2,705.6 L245.26,705.7 L245.31,705.81 L245.36,705.91 L245.4,706.01 L245.44,706.12 L245.48,706.22 L245.51,706.32 L245.53,706.42 L245.55,706.52 L245.57,706.61 L245.59,706.71 L245.6,706.8 L245.61,706.89 L245.61,706.97 L245.61,707.05 C245.61,708.31,244.67,708.92,243.32,708.92 C240.93,708.92,239.76,707.11,239.76,705.77 C239.76,704.54,240.69,703.93,242.07,703.93 L242.15,704.29 C242.01,704.29,241.75,704.29,241.75,704.47 C241.75,704.68,242.05,704.84,242.33,704.84 V705.16 C242.03,705.16,241.43,704.98,241.43,704.43 H241.43 C240.95,704.64,240.77,705.05,240.77,705.57 C240.77,705.89,240.93,707.11,241.59,707.85 C242.08,708.4,242.73,708.57,243.22,708.57 C243.45,708.57,243.89,708.54,244.23,708.23 C244.51,707.99,244.6,707.61,244.6,707.27 C244.6,707.15,244.52,705.18,243.18,704.53 C243.03,704.79,242.82,705.16,242.33,705.16 V704.84 C242.53,704.84,242.71,704.77,242.77,704.37 H242.77 C242.46,704.29,242.23,704.29,242.15,704.29 L242.07,703.93 C242.44,703.93,242.76,703.99,242.81,703.99 C242.86,703.36,242.91,702.7,243.62,702.7 C244.51,702.7,244.99,703.83,244.99,704.04 C244.99,704.13,244.92,704.2,244.83,704.2 C244.74,704.2,244.7,704.12,244.67,704.06 C244.59,703.84,244.24,703.8,243.95,703.8 C243.77,703.8,243.59,703.8,243.38,704.14 Z "
         stroke-width="0"
         fill="black"
         id="path5057" /></g>    <g
       style="font-style:normal;font-variant:normal;font-weight:normal;font-stretch:normal;letter-spacing:normal;word-spacing:normal;text-anchor:start;fill:none;stroke:#000000;stroke-linecap:butt;stroke-linejoin:miter;stroke-miterlimit:10.43299961;stroke-opacity:1;stroke-dasharray:none;stroke-dashoffset:0"
       ns0:preamble=""
       ns0:text="guaranteed rounding"
       text-anchor="start"
       word-spacing="normal"
       letter-spacing="normal"
       font-size-adjust="none"
       font-stretch="normal"
       font-weight="normal"
       font-variant="normal"
       font-style="normal"
       fill-opacity="1"
       fill-rule="evenodd"
       fill="none"
       stroke-opacity="1"
       stroke-dashoffset="0"
       stroke-dasharray="none"
       stroke-miterlimit="10.433"
       stroke-linejoin="miter"
       stroke-linecap="butt"
       stroke="black"
       xml:space="preserve"
       transform="matrix(1,0,0,-1,-37.678571,906.24218)"
       id="g3819"><path
         id="path3821"
         fill="black"
         stroke-width="0"
         d="M224.49,708.45 L224.49,708.45 L224.49,708.46 L224.49,708.46 L224.49,708.47 L224.49,708.48 L224.49,708.49 L224.49,708.5 L224.49,708.51 L224.49,708.52 L224.49,708.53 L224.49,708.55 L224.5,708.56 L224.5,708.57 L224.5,708.59 L224.5,708.6 L224.51,708.62 L224.51,708.64 L224.52,708.65 L224.52,708.67 L224.53,708.69 L224.53,708.71 L224.54,708.72 L224.55,708.74 L224.56,708.76 L224.57,708.78 L224.58,708.8 L224.59,708.82 L224.6,708.84 L224.61,708.86 L224.63,708.88 L224.64,708.89 L224.66,708.91 C225.04,708.64,225.45,708.6,225.64,708.6 V708.83 C224.77,708.83,224.77,709.83,224.77,710.05 C224.77,710.32,224.79,710.64,224.93,710.89 C225.01,711.01,225.24,711.29,225.64,711.29 C226.51,711.29,226.51,710.29,226.51,710.07 C226.51,709.8,226.5,709.48,226.35,709.23 C226.27,709.11,226.04,708.83,225.64,708.83 H225.64 V708.6 C226.57,708.6,227.25,709.29,227.25,710.05 C227.25,710.42,227.09,710.79,226.85,711.02 C227.2,711.36,227.56,711.41,227.74,711.41 C227.76,711.41,227.81,711.41,227.84,711.4 C227.73,711.36,227.68,711.25,227.68,711.13 C227.68,710.96,227.81,710.84,227.97,710.84 C228.07,710.84,228.26,710.91,228.26,711.14 C228.26,711.31,228.14,711.62,227.75,711.62 C227.55,711.62,227.11,711.57,226.7,711.16 C226.28,711.49,225.86,711.52,225.64,711.52 C224.71,711.52,224.03,710.83,224.03,710.07 C224.03,709.63,224.25,709.25,224.5,709.04 C224.37,708.89,224.19,708.57,224.19,708.22 C224.19,707.91,224.32,707.53,224.63,707.33 C224.03,707.16,223.71,706.74,223.71,706.34 C223.71,705.62,224.7,705.08,225.91,705.08 L225.92,705.31 C224.91,705.31,224.23,705.81,224.23,706.34 C224.23,706.8,224.61,707.16,225.04,707.19 H225.63 C226.49,707.19,227.6,707.19,227.6,706.34 C227.6,705.8,226.89,705.31,225.92,705.31 H225.92 L225.91,705.08 C227.08,705.08,228.12,705.59,228.12,706.36 C228.12,706.71,227.98,707.21,227.47,707.49 C226.94,707.77,226.37,707.77,225.76,707.77 C225.51,707.77,225.08,707.77,225.01,707.78 C224.7,707.82,224.49,708.13,224.49,708.45 Z " /><path
         id="path3823"
         fill="black"
         stroke-width="0"
         d="M232.3,707.91 V707.02 L233.74,707.12 V707.43 C233.04,707.43,232.96,707.5,232.96,707.99 V711.52 L231.5,711.41 V711.1 C232.19,711.1,232.27,711.03,232.27,710.54 V708.77 C232.27,707.91,231.8,707.23,231.07,707.23 C230.23,707.23,230.19,707.7,230.19,708.22 V711.52 L228.73,711.41 V711.1 C229.51,711.1,229.51,711.07,229.51,710.18 V708.69 C229.51,707.92,229.51,707.02,231.02,707.02 C231.58,707.02,232.01,707.29,232.3,707.91 Z " /><path
         id="path3825"
         fill="black"
         stroke-width="0"
         d="M237.26,707.88 L237.27,707.84 L237.27,707.81 L237.28,707.77 L237.29,707.73 L237.3,707.69 L237.31,707.66 L237.32,707.62 L237.33,707.59 L237.35,707.55 L237.36,707.52 L237.38,707.48 L237.4,707.45 L237.42,707.42 L237.44,707.38 L237.47,707.35 L237.49,707.32 L237.51,707.3 L237.54,707.27 L237.57,707.24 L237.6,707.22 L237.63,707.2 L237.66,707.17 L237.69,707.15 L237.72,707.14 L237.76,707.12 L237.8,707.11 L237.83,707.09 L237.87,707.08 L237.91,707.08 L237.95,707.07 L237.99,707.07 L238.04,707.07 C238.25,707.07,238.85,707.2,238.85,708.01 V708.57 H238.6 V708.01 C238.6,707.43,238.36,707.37,238.25,707.37 C237.92,707.37,237.88,707.82,237.88,707.87 V709.86 C237.88,710.27,237.88,710.66,237.52,711.03 C237.13,711.42,236.63,711.58,236.16,711.58 C235.34,711.58,234.65,711.11,234.65,710.45 C234.65,710.16,234.85,709.99,235.11,709.99 C235.39,709.99,235.57,710.18,235.57,710.44 C235.57,710.56,235.52,710.89,235.06,710.9 C235.33,711.25,235.82,711.36,236.14,711.36 C236.62,711.36,237.19,710.97,237.19,710.09 V709.72 V709.51 V708.52 C237.19,707.57,236.48,707.23,236.03,707.23 C235.54,707.23,235.13,707.58,235.13,708.08 C235.13,708.62,235.55,709.45,237.19,709.51 H237.19 V709.72 C236.68,709.69,235.99,709.66,235.36,709.36 C234.62,709.02,234.37,708.51,234.37,708.07 C234.37,707.26,235.33,707.02,235.96,707.02 C236.62,707.02,237.07,707.41,237.26,707.88 Z " /><path
         id="path3827"
         fill="black"
         stroke-width="0"
         d="M240.59,710.42 V711.52 L239.21,711.41 V711.1 C239.9,711.1,239.98,711.03,239.98,710.54 V707.88 C239.98,707.43,239.88,707.43,239.21,707.43 V707.12 C239.6,707.14,240.06,707.16,240.34,707.16 C240.74,707.16,241.21,707.16,241.61,707.12 V707.43 H241.4 C240.66,707.43,240.64,707.54,240.64,707.9 V709.43 C240.64,710.41,241.06,711.3,241.82,711.3 C241.88,711.3,241.9,711.3,241.93,711.29 C241.9,711.28,241.7,711.16,241.7,710.9 C241.7,710.62,241.9,710.47,242.12,710.47 C242.3,710.47,242.55,710.59,242.55,710.91 C242.55,711.23,242.24,711.52,241.82,711.52 C241.09,711.52,240.73,710.85,240.59,710.42 Z " /><path
         id="path3829"
         fill="black"
         stroke-width="0"
         d="M246.15,707.88 L246.15,707.84 L246.16,707.81 L246.16,707.77 L246.17,707.73 L246.18,707.69 L246.19,707.66 L246.2,707.62 L246.22,707.59 L246.23,707.55 L246.25,707.52 L246.27,707.48 L246.28,707.45 L246.31,707.42 L246.33,707.38 L246.35,707.35 L246.37,707.32 L246.4,707.3 L246.42,707.27 L246.45,707.24 L246.48,707.22 L246.51,707.2 L246.54,707.17 L246.57,707.15 L246.61,707.14 L246.64,707.12 L246.68,707.11 L246.72,707.09 L246.76,707.08 L246.79,707.08 L246.84,707.07 L246.88,707.07 L246.92,707.07 C247.13,707.07,247.74,707.2,247.74,708.01 V708.57 H247.49 V708.01 C247.49,707.43,247.24,707.37,247.13,707.37 C246.8,707.37,246.76,707.82,246.76,707.87 V709.86 C246.76,710.27,246.76,710.66,246.4,711.03 C246.02,711.42,245.52,711.58,245.04,711.58 C244.23,711.58,243.54,711.11,243.54,710.45 C243.54,710.16,243.74,709.99,244,709.99 C244.27,709.99,244.45,710.18,244.45,710.44 C244.45,710.56,244.4,710.89,243.95,710.9 C244.21,711.25,244.7,711.36,245.02,711.36 C245.51,711.36,246.08,710.97,246.08,710.09 V709.72 V709.51 V708.52 C246.08,707.57,245.36,707.23,244.91,707.23 C244.42,707.23,244.02,707.58,244.02,708.08 C244.02,708.62,244.43,709.45,246.08,709.51 H246.08 V709.72 C245.57,709.69,244.87,709.66,244.24,709.36 C243.5,709.02,243.25,708.51,243.25,708.07 C243.25,707.26,244.21,707.02,244.84,707.02 C245.5,707.02,245.96,707.41,246.15,707.88 Z " /><path
         id="path3831"
         fill="black"
         stroke-width="0"
         d="M248.91,710.54 V707.88 C248.91,707.43,248.8,707.43,248.13,707.43 V707.12 C248.48,707.14,248.99,707.16,249.26,707.16 C249.51,707.16,250.03,707.14,250.37,707.12 V707.43 C249.7,707.43,249.59,707.43,249.59,707.88 V709.71 C249.59,710.74,250.3,711.3,250.94,711.3 C251.56,711.3,251.67,710.76,251.67,710.2 V707.88 C251.67,707.43,251.56,707.43,250.9,707.43 V707.12 C251.25,707.14,251.75,707.16,252.02,707.16 C252.28,707.16,252.8,707.14,253.14,707.12 V707.43 C252.62,707.43,252.37,707.43,252.36,707.73 V709.63 C252.36,710.48,252.36,710.79,252.05,711.15 C251.91,711.32,251.58,711.52,251.01,711.52 C250.28,711.52,249.81,711.09,249.54,710.47 V711.52 L248.13,711.41 V711.1 C248.83,711.1,248.91,711.03,248.91,710.54 Z " /><path
         id="path3833"
         fill="black"
         stroke-width="0"
         d="M254.79,711.1 H256.21 V711.41 H254.79 V713.23 H254.54 C254.53,712.42,254.23,711.36,253.26,711.32 V711.1 H254.1 V708.36 C254.1,707.14,255.03,707.02,255.39,707.02 C256.09,707.02,256.37,707.72,256.37,708.36 V708.92 H256.12 V708.38 C256.12,707.64,255.83,707.26,255.46,707.26 C254.79,707.26,254.79,708.17,254.79,708.34 Z " /><path
         id="path3835"
         fill="black"
         stroke-width="0"
         d="M258.05,709.42 L258.06,709.63 C258.12,711.11,258.95,711.36,259.29,711.36 C260.32,711.36,260.42,710.02,260.42,709.63 H258.06 L258.05,709.42 H260.82 C261.04,709.42,261.07,709.42,261.07,709.63 C261.07,710.61,260.54,711.58,259.29,711.58 C258.14,711.58,257.22,710.55,257.22,709.31 C257.22,707.98,258.27,707.02,259.41,707.02 C260.62,707.02,261.07,708.12,261.07,708.31 C261.07,708.41,260.99,708.43,260.94,708.43 C260.85,708.43,260.83,708.37,260.81,708.29 C260.47,707.26,259.57,707.26,259.47,707.26 C258.97,707.26,258.58,707.56,258.35,707.93 C258.05,708.41,258.05,709.06,258.05,709.42 Z " /><path
         id="path3837"
         fill="black"
         stroke-width="0"
         d="M262.48,709.42 L262.49,709.63 C262.55,711.11,263.38,711.36,263.72,711.36 C264.74,711.36,264.84,710.02,264.84,709.63 H262.49 L262.48,709.42 H265.25 C265.47,709.42,265.5,709.42,265.5,709.63 C265.5,710.61,264.96,711.58,263.72,711.58 C262.57,711.58,261.65,710.55,261.65,709.31 C261.65,707.98,262.7,707.02,263.84,707.02 C265.05,707.02,265.5,708.12,265.5,708.31 C265.5,708.41,265.42,708.43,265.37,708.43 C265.28,708.43,265.26,708.37,265.24,708.29 C264.89,707.26,264,707.26,263.9,707.26 C263.4,707.26,263,707.56,262.77,707.93 C262.48,708.41,262.48,709.06,262.48,709.42 Z " /><path
         id="path3839"
         fill="black"
         stroke-width="0"
         d="M269.58,707.67 V707.02 L271.04,707.12 V707.43 C270.35,707.43,270.27,707.5,270.27,707.99 V714.02 L268.83,713.91 V713.6 C269.53,713.6,269.61,713.53,269.61,713.05 V710.9 C269.32,711.26,268.89,711.52,268.36,711.52 L268.4,711.3 C268.74,711.3,269.16,711.15,269.47,710.7 C269.58,710.53,269.58,710.51,269.58,710.33 H269.58 V708.3 C269.58,708.12,269.58,708.1,269.47,707.93 C269.17,707.45,268.72,707.23,268.3,707.23 C267.85,707.23,267.49,707.49,267.25,707.87 C266.99,708.28,266.96,708.84,266.96,709.25 C266.96,709.62,266.98,710.21,267.27,710.66 C267.48,710.97,267.86,711.3,268.4,711.3 L268.36,711.52 C267.18,711.52,266.14,710.54,266.14,709.26 C266.14,708,267.11,707.02,268.25,707.02 C268.88,707.02,269.33,707.35,269.58,707.67 Z " /><path
         id="path3841"
         fill="black"
         stroke-width="0"
         d="M276.32,710.42 V711.52 L274.94,711.41 V711.1 C275.64,711.1,275.72,711.03,275.72,710.54 V707.88 C275.72,707.43,275.61,707.43,274.94,707.43 V707.12 C275.33,707.14,275.8,707.16,276.07,707.16 C276.47,707.16,276.94,707.16,277.34,707.12 V707.43 H277.13 C276.39,707.43,276.37,707.54,276.37,707.9 V709.43 C276.37,710.41,276.79,711.3,277.55,711.3 C277.62,711.3,277.64,711.3,277.66,711.29 C277.63,711.28,277.43,711.16,277.43,710.9 C277.43,710.62,277.64,710.47,277.86,710.47 C278.03,710.47,278.28,710.59,278.28,710.91 C278.28,711.23,277.98,711.52,277.55,711.52 C276.82,711.52,276.46,710.85,276.32,710.42 Z " /><path
         id="path3843"
         fill="black"
         stroke-width="0"
         d="M283.24,709.25 L283.24,709.37 L283.23,709.49 L283.21,709.6 L283.19,709.72 L283.17,709.83 L283.14,709.94 L283.11,710.05 L283.07,710.15 L283.02,710.25 L282.97,710.35 L282.92,710.45 L282.86,710.54 L282.8,710.64 L282.73,710.72 L282.67,710.81 L282.59,710.89 L282.52,710.97 L282.44,711.04 L282.35,711.11 L282.27,711.17 L282.18,711.24 L282.08,711.29 L281.99,711.34 L281.89,711.39 L281.79,711.43 L281.69,711.47 L281.59,711.5 L281.48,711.53 L281.37,711.55 L281.26,711.56 L281.15,711.57 L281.04,711.58 L281.03,711.36 C281.47,711.36,281.9,711.14,282.16,710.71 C282.41,710.28,282.41,709.71,282.41,709.33 C282.41,708.97,282.41,708.44,282.2,708 C281.98,707.55,281.54,707.26,281.04,707.26 H281.04 C280.61,707.26,280.18,707.47,279.91,707.93 C279.66,708.37,279.66,708.97,279.66,709.33 C279.66,709.72,279.66,710.25,279.9,710.69 C280.17,711.15,280.63,711.36,281.03,711.36 L281.04,711.58 C279.8,711.58,278.83,710.49,278.83,709.25 C278.83,707.97,279.87,707.02,281.03,707.02 C282.23,707.02,283.24,707.99,283.24,709.25 Z " /><path
         id="path3845"
         fill="black"
         stroke-width="0"
         d="M287.42,707.91 V707.02 L288.86,707.12 V707.43 C288.16,707.43,288.08,707.5,288.08,707.99 V711.52 L286.62,711.41 V711.1 C287.32,711.1,287.4,711.03,287.4,710.54 V708.77 C287.4,707.91,286.92,707.23,286.19,707.23 C285.36,707.23,285.32,707.7,285.32,708.22 V711.52 L283.85,711.41 V711.1 C284.63,711.1,284.63,711.07,284.63,710.18 V708.69 C284.63,707.92,284.63,707.02,286.14,707.02 C286.7,707.02,287.14,707.29,287.42,707.91 Z " /><path
         id="path3847"
         fill="black"
         stroke-width="0"
         d="M290.17,710.54 V707.88 C290.17,707.43,290.05,707.43,289.39,707.43 V707.12 C289.74,707.14,290.24,707.16,290.51,707.16 C290.77,707.16,291.29,707.14,291.63,707.12 V707.43 C290.96,707.43,290.85,707.43,290.85,707.88 V709.71 C290.85,710.74,291.56,711.3,292.2,711.3 C292.82,711.3,292.93,710.76,292.93,710.2 V707.88 C292.93,707.43,292.82,707.43,292.15,707.43 V707.12 C292.5,707.14,293.01,707.16,293.28,707.16 C293.54,707.16,294.05,707.14,294.39,707.12 V707.43 C293.88,707.43,293.63,707.43,293.62,707.73 V709.63 C293.62,710.48,293.62,710.79,293.31,711.15 C293.17,711.32,292.84,711.52,292.26,711.52 C291.54,711.52,291.07,711.09,290.79,710.47 V711.52 L289.39,711.41 V711.1 C290.08,711.1,290.17,711.03,290.17,710.54 Z " /><path
         id="path3849"
         fill="black"
         stroke-width="0"
         d="M298.39,707.67 V707.02 L299.85,707.12 V707.43 C299.15,707.43,299.07,707.5,299.07,707.99 V714.02 L297.64,713.91 V713.6 C298.34,713.6,298.42,713.53,298.42,713.05 V710.9 C298.13,711.26,297.7,711.52,297.16,711.52 L297.2,711.3 C297.55,711.3,297.97,711.15,298.28,710.7 C298.39,710.53,298.39,710.51,298.39,710.33 H298.39 V708.3 C298.39,708.12,298.39,708.1,298.28,707.93 C297.98,707.45,297.53,707.23,297.1,707.23 C296.65,707.23,296.3,707.49,296.06,707.87 C295.8,708.28,295.77,708.84,295.77,709.25 C295.77,709.62,295.79,710.21,296.08,710.66 C296.29,710.97,296.67,711.3,297.2,711.3 L297.16,711.52 C295.99,711.52,294.94,710.54,294.94,709.26 C294.94,708,295.92,707.02,297.05,707.02 C297.69,707.02,298.14,707.35,298.39,707.67 Z " /><path
         id="path3851"
         fill="black"
         stroke-width="0"
         d="M301.9,711.52 L300.51,711.41 V711.1 C301.16,711.1,301.24,711.04,301.24,710.55 V707.88 C301.24,707.43,301.14,707.43,300.47,707.43 V707.12 C300.79,707.14,301.33,707.16,301.56,707.16 C301.91,707.16,302.26,707.14,302.6,707.12 V707.43 C301.94,707.43,301.9,707.48,301.9,707.87 Z " /><path
         id="path3853"
         fill="black"
         stroke-width="0"
         d="M301.94,713.24 L301.94,713.27 L301.94,713.3 L301.94,713.33 L301.93,713.36 L301.92,713.38 L301.92,713.41 L301.91,713.44 L301.9,713.46 L301.89,713.48 L301.88,713.51 L301.86,713.53 L301.85,713.55 L301.83,713.57 L301.82,713.59 L301.8,713.61 L301.78,713.63 L301.76,713.64 L301.74,713.66 L301.72,713.67 L301.7,713.69 L301.68,713.7 L301.66,713.71 L301.64,713.72 L301.61,713.73 L301.59,713.74 L301.57,713.75 L301.54,713.76 L301.52,713.76 L301.49,713.77 L301.47,713.77 L301.44,713.77 L301.41,713.77 C301.11,713.77,300.89,713.5,300.89,713.24 C300.89,712.98,301.11,712.72,301.41,712.72 C301.69,712.72,301.94,712.93,301.94,713.24 Z " /><path
         id="path3855"
         fill="black"
         stroke-width="0"
         d="M304,710.54 V707.88 C304,707.43,303.89,707.43,303.23,707.43 V707.12 C303.58,707.14,304.08,707.16,304.35,707.16 C304.61,707.16,305.13,707.14,305.46,707.12 V707.43 C304.8,707.43,304.69,707.43,304.69,707.88 V709.71 C304.69,710.74,305.4,711.3,306.03,711.3 C306.66,711.3,306.77,710.76,306.77,710.2 V707.88 C306.77,707.43,306.66,707.43,305.99,707.43 V707.12 C306.34,707.14,306.85,707.16,307.12,707.16 C307.38,707.16,307.89,707.14,308.23,707.12 V707.43 C307.71,707.43,307.46,707.43,307.45,707.73 V709.63 C307.45,710.48,307.45,710.79,307.15,711.15 C307.01,711.32,306.68,711.52,306.1,711.52 C305.38,711.52,304.91,711.09,304.63,710.47 V711.52 L303.23,711.41 V711.1 C303.92,711.1,304,711.03,304,710.54 Z " /><path
         id="path3857"
         fill="black"
         stroke-width="0"
         d="M309.5,708.45 L309.5,708.45 L309.5,708.46 L309.5,708.46 L309.5,708.47 L309.5,708.48 L309.5,708.49 L309.5,708.5 L309.5,708.51 L309.5,708.52 L309.5,708.53 L309.5,708.55 L309.51,708.56 L309.51,708.57 L309.51,708.59 L309.52,708.6 L309.52,708.62 L309.52,708.64 L309.53,708.65 L309.53,708.67 L309.54,708.69 L309.55,708.71 L309.55,708.72 L309.56,708.74 L309.57,708.76 L309.58,708.78 L309.59,708.8 L309.6,708.82 L309.61,708.84 L309.62,708.86 L309.64,708.88 L309.65,708.89 L309.67,708.91 C310.05,708.64,310.46,708.6,310.65,708.6 V708.83 C309.79,708.83,309.79,709.83,309.79,710.05 C309.79,710.32,309.8,710.64,309.95,710.89 C310.03,711.01,310.25,711.29,310.65,711.29 C311.52,711.29,311.52,710.29,311.52,710.07 C311.52,709.8,311.51,709.48,311.36,709.23 C311.28,709.11,311.05,708.83,310.65,708.83 H310.65 V708.6 C311.58,708.6,312.26,709.29,312.26,710.05 C312.26,710.42,312.11,710.79,311.86,711.02 C312.21,711.36,312.57,711.41,312.75,711.41 C312.77,711.41,312.82,711.41,312.85,711.4 C312.74,711.36,312.69,711.25,312.69,711.13 C312.69,710.96,312.82,710.84,312.98,710.84 C313.08,710.84,313.27,710.91,313.27,711.14 C313.27,711.31,313.15,711.62,312.76,711.62 C312.56,711.62,312.12,711.57,311.71,711.16 C311.29,711.49,310.87,711.52,310.65,711.52 C309.73,711.52,309.04,710.83,309.04,710.07 C309.04,709.63,309.26,709.25,309.51,709.04 C309.38,708.89,309.2,708.57,309.2,708.22 C309.2,707.91,309.33,707.53,309.64,707.33 C309.04,707.16,308.72,706.74,308.72,706.34 C308.72,705.62,309.71,705.08,310.92,705.08 L310.93,705.31 C309.93,705.31,309.24,705.81,309.24,706.34 C309.24,706.8,309.62,707.16,310.05,707.19 H310.64 C311.5,707.19,312.61,707.19,312.61,706.34 C312.61,705.8,311.91,705.31,310.93,705.31 H310.93 L310.92,705.08 C312.1,705.08,313.13,705.59,313.13,706.36 C313.13,706.71,312.99,707.21,312.48,707.49 C311.96,707.77,311.38,707.77,310.77,707.77 C310.52,707.77,310.1,707.77,310.03,707.78 C309.71,707.82,309.5,708.13,309.5,708.45 Z " /></g>    <g
       id="g4138"
       transform="matrix(1,0,0,-1,-83.049679,1018.5684)"
       xml:space="preserve"
       stroke-miterlimit="10.433"
       font-style="normal"
       font-variant="normal"
       font-weight="normal"
       font-stretch="normal"
       font-size-adjust="none"
       letter-spacing="normal"
       word-spacing="normal"
       ns0:text="values of feasible solutions"
       ns0:preamble=""
       style="font-style:normal;font-variant:normal;font-weight:normal;font-stretch:normal;letter-spacing:normal;word-spacing:normal;text-anchor:start;fill:none;fill-opacity:1;fill-rule:evenodd;stroke:#000000;stroke-linecap:butt;stroke-linejoin:miter;stroke-miterlimit:10.43299961;stroke-dasharray:none;stroke-dashoffset:0;stroke-opacity:1"><path
         style="fill:#000000;stroke-width:0"
         inkscape:connector-curvature="0"
         d="m 227.57,710.43 0.01,0.02 0.01,0.03 0.01,0.02 0.01,0.03 0.01,0.02 0.01,0.03 0.02,0.02 0.01,0.03 0.01,0.03 0.02,0.03 0.02,0.02 0.02,0.03 0.02,0.03 0.02,0.03 0.02,0.02 0.03,0.03 0.02,0.02 0.03,0.03 0.03,0.02 0.03,0.02 0.04,0.03 0.03,0.02 0.04,0.02 0.04,0.01 0.04,0.02 0.05,0.01 0.04,0.02 0.05,0.01 0.05,0.01 0.03,0 0.03,0 0.03,0 0.03,0.01 0.03,0 0.03,0 0,0.31 c -0.23,-0.02 -0.52,-0.03 -0.75,-0.03 -0.24,0 -0.7,0.02 -0.87,0.03 l 0,-0.31 c 0.37,-0.01 0.48,-0.24 0.48,-0.43 0,-0.09 -0.02,-0.13 -0.06,-0.24 l -1.01,-2.53 -1.12,2.77 c -0.06,0.13 -0.06,0.15 -0.06,0.17 0,0.26 0.39,0.26 0.57,0.26 l 0,0.31 c -0.3,-0.01 -0.85,-0.03 -1.08,-0.03 -0.27,0 -0.67,0.01 -0.97,0.03 l 0,-0.31 c 0.63,0 0.67,-0.06 0.8,-0.37 l 1.43,-3.53 c 0.06,-0.13 0.08,-0.18 0.21,-0.18 0.13,0 0.17,0.08 0.21,0.18 z"
         id="path4140" /><path
         style="fill:#000000;stroke-width:0"
         inkscape:connector-curvature="0"
         d="m 231.45,707.88 0,-0.04 0.01,-0.03 0,-0.04 0.01,-0.04 0.01,-0.04 0.01,-0.03 0.01,-0.04 0.02,-0.03 0.01,-0.04 0.02,-0.03 0.02,-0.04 0.01,-0.03 0.03,-0.03 0.02,-0.04 0.02,-0.03 0.02,-0.03 0.03,-0.02 0.02,-0.03 0.03,-0.03 0.03,-0.02 0.03,-0.02 0.03,-0.03 0.03,-0.02 0.04,-0.01 0.03,-0.02 0.04,-0.01 0.04,-0.02 0.04,-0.01 0.03,0 0.05,-0.01 0.04,0 0.04,0 c 0.21,0 0.82,0.13 0.82,0.94 l 0,0.56 -0.25,0 0,-0.56 c 0,-0.58 -0.25,-0.64 -0.36,-0.64 -0.33,0 -0.37,0.45 -0.37,0.5 l 0,1.99 c 0,0.41 0,0.8 -0.36,1.17 -0.38,0.39 -0.88,0.55 -1.36,0.55 -0.82,0 -1.5,-0.47 -1.5,-1.13 0,-0.29 0.2,-0.46 0.46,-0.46 0.27,0 0.45,0.19 0.45,0.45 0,0.12 -0.05,0.45 -0.5,0.46 0.26,0.35 0.75,0.46 1.07,0.46 0.49,0 1.06,-0.39 1.06,-1.27 l 0,-0.37 0,-0.21 0,-0.99 c 0,-0.95 -0.72,-1.29 -1.17,-1.29 -0.49,0 -0.89,0.35 -0.89,0.85 0,0.54 0.41,1.37 2.06,1.43 l 0,0 0,0.21 c -0.51,-0.03 -1.21,-0.06 -1.84,-0.36 -0.74,-0.34 -0.99,-0.85 -0.99,-1.29 0,-0.81 0.96,-1.05 1.59,-1.05 0.66,0 1.12,0.39 1.31,0.86 z"
         id="path4143" /><path
         style="fill:#000000;stroke-width:0"
         inkscape:connector-curvature="0"
         d="m 234.88,714.02 -1.44,-0.11 0,-0.31 c 0.7,0 0.78,-0.07 0.78,-0.55 l 0,-5.17 c 0,-0.45 -0.11,-0.45 -0.78,-0.45 l 0,-0.31 c 0.33,0.02 0.86,0.04 1.11,0.04 0.24,0 0.73,-0.02 1.1,-0.04 l 0,0.31 c -0.67,0 -0.77,0 -0.77,0.45 z"
         id="path4145" /><path
         style="fill:#000000;stroke-width:0"
         inkscape:connector-curvature="0"
         d="m 239.77,707.91 0,-0.89 1.43,0.1 0,0.31 c -0.69,0 -0.77,0.07 -0.77,0.56 l 0,3.53 -1.47,-0.11 0,-0.31 c 0.7,0 0.78,-0.07 0.78,-0.56 l 0,-1.77 c 0,-0.86 -0.48,-1.54 -1.2,-1.54 -0.84,0 -0.88,0.47 -0.88,0.99 l 0,3.3 -1.46,-0.11 0,-0.31 c 0.78,0 0.78,-0.03 0.78,-0.92 l 0,-1.49 c 0,-0.77 0,-1.67 1.51,-1.67 0.55,0 0.99,0.27 1.28,0.89 z"
         id="path4147" /><path
         style="fill:#000000;stroke-width:0"
         inkscape:connector-curvature="0"
         d="m 242.52,709.42 0.01,0.21 c 0.06,1.48 0.9,1.73 1.23,1.73 1.03,0 1.13,-1.34 1.13,-1.73 l -2.36,0 -0.01,-0.21 2.78,0 c 0.22,0 0.24,0 0.24,0.21 0,0.98 -0.53,1.95 -1.78,1.95 -1.15,0 -2.06,-1.03 -2.06,-2.27 0,-1.33 1.04,-2.29 2.18,-2.29 1.22,0 1.66,1.1 1.66,1.29 0,0.1 -0.07,0.12 -0.12,0.12 -0.09,0 -0.11,-0.06 -0.13,-0.14 -0.35,-1.03 -1.25,-1.03 -1.35,-1.03 -0.49,0 -0.89,0.3 -1.12,0.67 -0.3,0.48 -0.3,1.13 -0.3,1.49 z"
         id="path4149" /><path
         style="fill:#000000;stroke-width:0"
         inkscape:connector-curvature="0"
         d="m 247.91,709.05 0.03,0 0.02,-0.01 0.03,0 0.03,-0.01 0.03,-0.01 0.04,-0.01 0.04,-0.01 0.04,-0.01 0.04,-0.01 0.04,-0.01 0.04,-0.02 0.05,-0.02 0.04,-0.01 0.04,-0.03 0.05,-0.02 0.04,-0.02 0.05,-0.03 0.04,-0.03 0.04,-0.03 0.04,-0.03 0.04,-0.03 0.03,-0.04 0.04,-0.04 0.03,-0.04 0.03,-0.05 0.01,-0.02 0.01,-0.03 0.01,-0.02 0.01,-0.03 0.01,-0.02 0.01,-0.03 0.01,-0.03 0.01,-0.02 0,-0.03 0.01,-0.03 0,-0.03 0.01,-0.04 0,-0.03 0,-0.03 c 0,-0.51 -0.35,-0.91 -1.13,-0.91 -0.83,0 -1.19,0.57 -1.38,1.42 -0.03,0.12 -0.04,0.16 -0.14,0.16 -0.13,0 -0.13,-0.07 -0.13,-0.24 l 0,-1.32 c 0,-0.16 0,-0.23 0.11,-0.23 0.05,0 0.06,0.01 0.25,0.19 0.02,0.02 0.02,0.04 0.2,0.23 0.44,-0.41 0.89,-0.42 1.09,-0.42 1.15,0 1.61,0.66 1.61,1.38 0,0.52 -0.3,0.82 -0.42,0.94 -0.33,0.32 -0.72,0.4 -1.14,0.48 -0.55,0.11 -1.22,0.23 -1.22,0.81 0,0.35 0.26,0.76 1.11,0.76 1.1,0 1.15,-0.9 1.17,-1.21 0.01,-0.09 0.1,-0.09 0.12,-0.09 0.13,0 0.13,0.06 0.13,0.24 l 0,1.01 c 0,0.17 0,0.24 -0.11,0.24 -0.05,0 -0.07,0 -0.2,-0.12 -0.03,-0.04 -0.13,-0.13 -0.17,-0.16 -0.38,0.28 -0.79,0.28 -0.94,0.28 -1.21,0 -1.59,-0.67 -1.59,-1.23 0,-0.34 0.16,-0.62 0.43,-0.84 0.32,-0.26 0.6,-0.32 1.31,-0.46 z"
         id="path4151" /><path
         style="fill:#000000;stroke-width:0"
         inkscape:connector-curvature="0"
         d="m 257.79,709.25 -0.01,0.12 0,0.12 -0.02,0.11 -0.02,0.12 -0.02,0.11 -0.03,0.11 -0.04,0.11 -0.04,0.1 -0.04,0.1 -0.05,0.1 -0.05,0.1 -0.06,0.09 -0.06,0.1 -0.07,0.08 -0.07,0.09 -0.07,0.08 -0.08,0.08 -0.08,0.07 -0.08,0.07 -0.09,0.06 -0.09,0.07 -0.09,0.05 -0.09,0.05 -0.1,0.05 -0.1,0.04 -0.1,0.04 -0.11,0.03 -0.1,0.03 -0.11,0.02 -0.11,0.01 -0.11,0.01 -0.11,0.01 -0.01,-0.22 c 0.44,0 0.86,-0.22 1.12,-0.65 0.26,-0.43 0.26,-1 0.26,-1.38 0,-0.36 0,-0.89 -0.22,-1.33 -0.22,-0.45 -0.66,-0.74 -1.15,-0.74 l 0,0 c -0.43,0 -0.87,0.21 -1.14,0.67 -0.24,0.44 -0.24,1.04 -0.24,1.4 0,0.39 0,0.92 0.23,1.36 0.27,0.46 0.74,0.67 1.14,0.67 l 0.01,0.22 c -1.25,0 -2.21,-1.09 -2.21,-2.33 0,-1.28 1.03,-2.23 2.2,-2.23 1.2,0 2.21,0.97 2.21,2.23 z"
         id="path4153" /><path
         style="fill:#000000;stroke-width:0"
         inkscape:connector-curvature="0"
         d="m 259.82,711.41 0,1.15 c 0,0.87 0.48,1.35 0.92,1.35 0.03,0 0.18,0 0.33,-0.07 -0.12,-0.04 -0.3,-0.17 -0.3,-0.42 0,-0.22 0.16,-0.42 0.43,-0.42 0.28,0 0.43,0.2 0.43,0.43 0,0.37 -0.36,0.7 -0.89,0.7 -0.7,0 -1.54,-0.53 -1.54,-1.58 l 0,-1.14 -0.79,0 0,-0.31 0.79,0 0,-3.22 c 0,-0.45 -0.11,-0.45 -0.78,-0.45 l 0,-0.31 c 0.39,0.02 0.86,0.04 1.13,0.04 0.4,0 0.87,0 1.27,-0.04 l 0,0.31 -0.21,0 c -0.74,0 -0.76,0.11 -0.76,0.47 l 0,3.2 1.14,0 0,0.31 z"
         id="path4155" /><path
         style="fill:#000000;stroke-width:0"
         inkscape:connector-curvature="0"
         d="m 266.18,711.41 0,1.15 c 0,0.87 0.48,1.35 0.92,1.35 0.03,0 0.18,0 0.33,-0.07 -0.12,-0.04 -0.3,-0.17 -0.3,-0.42 0,-0.22 0.16,-0.42 0.43,-0.42 0.29,0 0.44,0.2 0.44,0.43 0,0.37 -0.37,0.7 -0.9,0.7 -0.7,0 -1.54,-0.53 -1.54,-1.58 l 0,-1.14 -0.79,0 0,-0.31 0.79,0 0,-3.22 c 0,-0.45 -0.11,-0.45 -0.78,-0.45 l 0,-0.31 c 0.39,0.02 0.86,0.04 1.14,0.04 0.39,0 0.86,0 1.26,-0.04 l 0,0.31 -0.21,0 c -0.74,0 -0.76,0.11 -0.76,0.47 l 0,3.2 1.14,0 0,0.31 z"
         id="path4157" /><path
         style="fill:#000000;stroke-width:0"
         inkscape:connector-curvature="0"
         d="m 268.59,709.42 0.01,0.21 c 0.06,1.48 0.9,1.73 1.24,1.73 1.02,0 1.12,-1.34 1.12,-1.73 l -2.36,0 -0.01,-0.21 2.78,0 c 0.22,0 0.25,0 0.25,0.21 0,0.98 -0.54,1.95 -1.78,1.95 -1.16,0 -2.07,-1.03 -2.07,-2.27 0,-1.33 1.04,-2.29 2.19,-2.29 1.21,0 1.66,1.1 1.66,1.29 0,0.1 -0.08,0.12 -0.13,0.12 -0.09,0 -0.11,-0.06 -0.13,-0.14 -0.35,-1.03 -1.25,-1.03 -1.34,-1.03 -0.5,0 -0.9,0.3 -1.13,0.67 -0.3,0.48 -0.3,1.13 -0.3,1.49 z"
         id="path4159" /><path
         style="fill:#000000;stroke-width:0"
         inkscape:connector-curvature="0"
         d="m 275.23,707.88 0,-0.04 0.01,-0.03 0.01,-0.04 0,-0.04 0.01,-0.04 0.02,-0.03 0.01,-0.04 0.01,-0.03 0.02,-0.04 0.01,-0.03 0.02,-0.04 0.02,-0.03 0.02,-0.03 0.02,-0.04 0.02,-0.03 0.03,-0.03 0.02,-0.02 0.03,-0.03 0.03,-0.03 0.02,-0.02 0.03,-0.02 0.04,-0.03 0.03,-0.02 0.03,-0.01 0.04,-0.02 0.03,-0.01 0.04,-0.02 0.04,-0.01 0.04,0 0.04,-0.01 0.04,0 0.05,0 c 0.2,0 0.81,0.13 0.81,0.94 l 0,0.56 -0.25,0 0,-0.56 c 0,-0.58 -0.25,-0.64 -0.36,-0.64 -0.32,0 -0.36,0.45 -0.36,0.5 l 0,1.99 c 0,0.41 0,0.8 -0.36,1.17 -0.39,0.39 -0.89,0.55 -1.37,0.55 -0.81,0 -1.5,-0.47 -1.5,-1.13 0,-0.29 0.2,-0.46 0.46,-0.46 0.28,0 0.46,0.19 0.46,0.45 0,0.12 -0.05,0.45 -0.51,0.46 0.27,0.35 0.76,0.46 1.08,0.46 0.48,0 1.05,-0.39 1.05,-1.27 l 0,-0.37 0,-0.21 0,-0.99 c 0,-0.95 -0.72,-1.29 -1.17,-1.29 -0.48,0 -0.89,0.35 -0.89,0.85 0,0.54 0.42,1.37 2.06,1.43 l 0,0 0,0.21 c -0.51,-0.03 -1.21,-0.06 -1.83,-0.36 -0.75,-0.34 -1,-0.85 -1,-1.29 0,-0.81 0.97,-1.05 1.6,-1.05 0.65,0 1.11,0.39 1.3,0.86 z"
         id="path4161" /><path
         style="fill:#000000;stroke-width:0"
         inkscape:connector-curvature="0"
         d="m 278.97,709.05 0.02,0 0.02,-0.01 0.03,0 0.03,-0.01 0.04,-0.01 0.03,-0.01 0.04,-0.01 0.04,-0.01 0.04,-0.01 0.04,-0.01 0.05,-0.02 0.04,-0.02 0.04,-0.01 0.05,-0.03 0.04,-0.02 0.05,-0.02 0.04,-0.03 0.04,-0.03 0.04,-0.03 0.04,-0.03 0.04,-0.03 0.04,-0.04 0.03,-0.04 0.03,-0.04 0.03,-0.05 0.01,-0.02 0.01,-0.03 0.02,-0.02 0.01,-0.03 0.01,-0.02 0.01,-0.03 0,-0.03 0.01,-0.02 0.01,-0.03 0,-0.03 0.01,-0.03 0,-0.04 0,-0.03 0,-0.03 c 0,-0.51 -0.35,-0.91 -1.12,-0.91 -0.84,0 -1.2,0.57 -1.39,1.42 -0.03,0.12 -0.04,0.16 -0.13,0.16 -0.13,0 -0.13,-0.07 -0.13,-0.24 l 0,-1.32 c 0,-0.16 0,-0.23 0.1,-0.23 0.06,0 0.06,0.01 0.25,0.19 0.02,0.02 0.02,0.04 0.2,0.23 0.44,-0.41 0.89,-0.42 1.1,-0.42 1.14,0 1.6,0.66 1.6,1.38 0,0.52 -0.3,0.82 -0.42,0.94 -0.33,0.32 -0.71,0.4 -1.13,0.48 -0.56,0.11 -1.23,0.23 -1.23,0.81 0,0.35 0.26,0.76 1.12,0.76 1.09,0 1.14,-0.9 1.16,-1.21 0.01,-0.09 0.1,-0.09 0.12,-0.09 0.13,0 0.13,0.06 0.13,0.24 l 0,1.01 c 0,0.17 0,0.24 -0.11,0.24 -0.05,0 -0.07,0 -0.2,-0.12 -0.03,-0.04 -0.13,-0.13 -0.17,-0.16 -0.37,0.28 -0.78,0.28 -0.93,0.28 -1.22,0 -1.59,-0.67 -1.59,-1.23 0,-0.34 0.16,-0.62 0.42,-0.84 0.32,-0.26 0.6,-0.32 1.32,-0.46 z"
         id="path4163" /><path
         style="fill:#000000;stroke-width:0"
         inkscape:connector-curvature="0"
         d="m 282.59,711.52 -1.4,-0.11 0,-0.31 c 0.65,0 0.74,-0.06 0.74,-0.55 l 0,-2.67 c 0,-0.45 -0.11,-0.45 -0.78,-0.45 l 0,-0.31 c 0.32,0.02 0.86,0.04 1.1,0.04 0.35,0 0.7,-0.02 1.03,-0.04 l 0,0.31 c -0.65,0 -0.69,0.05 -0.69,0.44 z"
         id="path4165" /><path
         style="fill:#000000;stroke-width:0"
         inkscape:connector-curvature="0"
         d="m 282.63,713.24 0,0.03 -0.01,0.03 0,0.03 0,0.03 -0.01,0.02 -0.01,0.03 -0.01,0.03 -0.01,0.02 -0.01,0.02 -0.01,0.03 -0.01,0.02 -0.02,0.02 -0.01,0.02 -0.02,0.02 -0.01,0.02 -0.02,0.02 -0.02,0.01 -0.02,0.02 -0.02,0.01 -0.02,0.02 -0.02,0.01 -0.02,0.01 -0.03,0.01 -0.02,0.01 -0.02,0.01 -0.03,0.01 -0.02,0.01 -0.03,0 -0.02,0.01 -0.03,0 -0.02,0 -0.03,0 c -0.31,0 -0.53,-0.27 -0.53,-0.53 0,-0.26 0.22,-0.52 0.53,-0.52 0.28,0 0.53,0.21 0.53,0.52 z"
         id="path4168" /><path
         style="fill:#000000;stroke-width:0"
         inkscape:connector-curvature="0"
         d="m 285.3,710.87 0,3.15 -1.43,-0.11 0,-0.31 c 0.7,0 0.78,-0.07 0.78,-0.55 l 0,-5.93 0.25,0 c 0.01,0.02 0.09,0.15 0.36,0.62 0.14,-0.23 0.56,-0.72 1.3,-0.72 l -0.04,0.21 c -0.45,0 -0.81,0.24 -1.05,0.61 -0.14,0.21 -0.14,0.24 -0.14,0.42 l 0,0 0,2.04 c 0,0.19 0,0.2 0.11,0.36 0.39,0.56 0.94,0.64 1.18,0.64 0.45,0 0.8,-0.26 1.04,-0.64 0.26,-0.41 0.29,-0.97 0.29,-1.38 0,-0.37 -0.02,-0.96 -0.31,-1.41 -0.21,-0.31 -0.58,-0.64 -1.12,-0.64 l 0.04,-0.21 c 1.18,0 2.22,0.97 2.22,2.25 0,1.26 -0.98,2.25 -2.11,2.25 -0.78,0 -1.21,-0.47 -1.37,-0.65 z"
         id="path4170" /><path
         style="fill:#000000;stroke-width:0"
         inkscape:connector-curvature="0"
         d="m 290.89,714.02 -1.43,-0.11 0,-0.31 c 0.69,0 0.77,-0.07 0.77,-0.55 l 0,-5.17 c 0,-0.45 -0.11,-0.45 -0.77,-0.45 l 0,-0.31 c 0.33,0.02 0.85,0.04 1.1,0.04 0.25,0 0.74,-0.02 1.11,-0.04 l 0,0.31 c -0.67,0 -0.78,0 -0.78,0.45 z"
         id="path4172" /><path
         style="fill:#000000;stroke-width:0"
         inkscape:connector-curvature="0"
         d="m 293,709.42 0.01,0.21 c 0.06,1.48 0.9,1.73 1.23,1.73 1.03,0 1.13,-1.34 1.13,-1.73 l -2.36,0 -0.01,-0.21 2.78,0 c 0.22,0 0.25,0 0.25,0.21 0,0.98 -0.54,1.95 -1.79,1.95 -1.15,0 -2.07,-1.03 -2.07,-2.27 0,-1.33 1.05,-2.29 2.19,-2.29 1.22,0 1.67,1.1 1.67,1.29 0,0.1 -0.08,0.12 -0.13,0.12 -0.09,0 -0.11,-0.06 -0.13,-0.14 -0.35,-1.03 -1.25,-1.03 -1.35,-1.03 -0.49,0 -0.89,0.3 -1.12,0.67 -0.3,0.48 -0.3,1.13 -0.3,1.49 z"
         id="path4174" /><path
         style="fill:#000000;stroke-width:0"
         inkscape:connector-curvature="0"
         d="m 301.71,709.05 0.02,0 0.03,-0.01 0.03,0 0.03,-0.01 0.03,-0.01 0.04,-0.01 0.04,-0.01 0.04,-0.01 0.04,-0.01 0.04,-0.01 0.04,-0.02 0.04,-0.02 0.05,-0.01 0.04,-0.03 0.05,-0.02 0.04,-0.02 0.04,-0.03 0.05,-0.03 0.04,-0.03 0.04,-0.03 0.03,-0.03 0.04,-0.04 0.03,-0.04 0.04,-0.04 0.02,-0.05 0.02,-0.02 0.01,-0.03 0.01,-0.02 0.01,-0.03 0.01,-0.02 0.01,-0.03 0.01,-0.03 0.01,-0.02 0,-0.03 0.01,-0.03 0,-0.03 0,-0.04 0.01,-0.03 0,-0.03 c 0,-0.51 -0.35,-0.91 -1.13,-0.91 -0.83,0 -1.19,0.57 -1.38,1.42 -0.03,0.12 -0.04,0.16 -0.14,0.16 -0.13,0 -0.13,-0.07 -0.13,-0.24 l 0,-1.32 c 0,-0.16 0,-0.23 0.11,-0.23 0.05,0 0.06,0.01 0.25,0.19 0.02,0.02 0.02,0.04 0.2,0.23 0.43,-0.41 0.88,-0.42 1.09,-0.42 1.15,0 1.6,0.66 1.6,1.38 0,0.52 -0.3,0.82 -0.41,0.94 -0.33,0.32 -0.72,0.4 -1.14,0.48 -0.56,0.11 -1.22,0.23 -1.22,0.81 0,0.35 0.26,0.76 1.11,0.76 1.1,0 1.15,-0.9 1.17,-1.21 0.01,-0.09 0.1,-0.09 0.12,-0.09 0.13,0 0.13,0.06 0.13,0.24 l 0,1.01 c 0,0.17 0,0.24 -0.12,0.24 -0.04,0 -0.06,0 -0.19,-0.12 -0.03,-0.04 -0.13,-0.13 -0.17,-0.16 -0.38,0.28 -0.79,0.28 -0.94,0.28 -1.21,0 -1.59,-0.67 -1.59,-1.23 0,-0.34 0.16,-0.62 0.43,-0.84 0.32,-0.26 0.59,-0.32 1.31,-0.46 z"
         id="path4176" /><path
         style="fill:#000000;stroke-width:0"
         inkscape:connector-curvature="0"
         d="m 308.26,709.25 -0.01,0.12 0,0.12 -0.02,0.11 -0.02,0.12 -0.02,0.11 -0.03,0.11 -0.04,0.11 -0.04,0.1 -0.04,0.1 -0.05,0.1 -0.05,0.1 -0.06,0.09 -0.06,0.1 -0.07,0.08 -0.07,0.09 -0.07,0.08 -0.08,0.08 -0.08,0.07 -0.08,0.07 -0.09,0.06 -0.09,0.07 -0.09,0.05 -0.09,0.05 -0.1,0.05 -0.1,0.04 -0.1,0.04 -0.11,0.03 -0.1,0.03 -0.11,0.02 -0.11,0.01 -0.11,0.01 -0.11,0.01 -0.01,-0.22 c 0.44,0 0.86,-0.22 1.12,-0.65 0.26,-0.43 0.26,-1 0.26,-1.38 0,-0.36 0,-0.89 -0.22,-1.33 -0.22,-0.45 -0.65,-0.74 -1.15,-0.74 l 0,0 c -0.43,0 -0.87,0.21 -1.14,0.67 -0.25,0.44 -0.25,1.04 -0.25,1.4 0,0.39 0,0.92 0.24,1.36 0.27,0.46 0.74,0.67 1.14,0.67 l 0.01,0.22 c -1.24,0 -2.21,-1.09 -2.21,-2.33 0,-1.28 1.03,-2.23 2.2,-2.23 1.2,0 2.21,0.97 2.21,2.23 z"
         id="path4178" /><path
         style="fill:#000000;stroke-width:0"
         inkscape:connector-curvature="0"
         d="m 310.31,714.02 -1.43,-0.11 0,-0.31 c 0.7,0 0.78,-0.07 0.78,-0.55 l 0,-5.17 c 0,-0.45 -0.11,-0.45 -0.78,-0.45 l 0,-0.31 c 0.33,0.02 0.86,0.04 1.1,0.04 0.25,0 0.74,-0.02 1.11,-0.04 l 0,0.31 c -0.67,0 -0.78,0 -0.78,0.45 z"
         id="path4180" /><path
         style="fill:#000000;stroke-width:0"
         inkscape:connector-curvature="0"
         d="m 315.21,707.91 0,-0.89 1.43,0.1 0,0.31 c -0.69,0 -0.77,0.07 -0.77,0.56 l 0,3.53 -1.47,-0.11 0,-0.31 c 0.7,0 0.78,-0.07 0.78,-0.56 l 0,-1.77 c 0,-0.86 -0.48,-1.54 -1.2,-1.54 -0.84,0 -0.88,0.47 -0.88,0.99 l 0,3.3 -1.46,-0.11 0,-0.31 c 0.77,0 0.77,-0.03 0.77,-0.92 l 0,-1.49 c 0,-0.77 0,-1.67 1.52,-1.67 0.55,0 0.99,0.27 1.28,0.89 z"
         id="path4182" /><path
         style="fill:#000000;stroke-width:0"
         inkscape:connector-curvature="0"
         d="m 318.58,711.1 1.42,0 0,0.31 -1.42,0 0,1.82 -0.25,0 c -0.01,-0.81 -0.31,-1.87 -1.29,-1.91 l 0,-0.22 0.85,0 0,-2.74 c 0,-1.22 0.93,-1.34 1.28,-1.34 0.71,0 0.99,0.7 0.99,1.34 l 0,0.56 -0.25,0 0,-0.54 c 0,-0.74 -0.3,-1.12 -0.67,-1.12 -0.66,0 -0.66,0.91 -0.66,1.08 z"
         id="path4184" /><path
         style="fill:#000000;stroke-width:0"
         inkscape:connector-curvature="0"
         d="m 322.49,711.52 -1.39,-0.11 0,-0.31 c 0.64,0 0.73,-0.06 0.73,-0.55 l 0,-2.67 c 0,-0.45 -0.11,-0.45 -0.77,-0.45 l 0,-0.31 c 0.32,0.02 0.85,0.04 1.09,0.04 0.35,0 0.7,-0.02 1.04,-0.04 l 0,0.31 c -0.66,0 -0.7,0.05 -0.7,0.44 z"
         id="path4186" /><path
         style="fill:#000000;stroke-width:0"
         inkscape:connector-curvature="0"
         d="m 322.53,713.24 0,0.03 0,0.03 -0.01,0.03 0,0.03 -0.01,0.02 0,0.03 -0.01,0.03 -0.01,0.02 -0.01,0.02 -0.02,0.03 -0.01,0.02 -0.01,0.02 -0.02,0.02 -0.01,0.02 -0.02,0.02 -0.02,0.02 -0.02,0.01 -0.02,0.02 -0.02,0.01 -0.02,0.02 -0.02,0.01 -0.02,0.01 -0.02,0.01 -0.03,0.01 -0.02,0.01 -0.02,0.01 -0.03,0.01 -0.02,0 -0.03,0.01 -0.03,0 -0.02,0 -0.03,0 c -0.3,0 -0.52,-0.27 -0.52,-0.53 0,-0.26 0.22,-0.52 0.52,-0.52 0.28,0 0.53,0.21 0.53,0.52 z"
         id="path4188" /><path
         style="fill:#000000;stroke-width:0"
         inkscape:connector-curvature="0"
         d="m 328.18,709.25 0,0.12 -0.01,0.12 -0.01,0.11 -0.02,0.12 -0.03,0.11 -0.03,0.11 -0.03,0.11 -0.04,0.1 -0.05,0.1 -0.04,0.1 -0.06,0.1 -0.06,0.09 -0.06,0.1 -0.06,0.08 -0.07,0.09 -0.07,0.08 -0.08,0.08 -0.08,0.07 -0.08,0.07 -0.09,0.06 -0.09,0.07 -0.09,0.05 -0.1,0.05 -0.09,0.05 -0.1,0.04 -0.11,0.04 -0.1,0.03 -0.11,0.03 -0.1,0.02 -0.11,0.01 -0.11,0.01 -0.12,0.01 -0.01,-0.22 c 0.44,0 0.87,-0.22 1.13,-0.65 0.26,-0.43 0.26,-1 0.26,-1.38 0,-0.36 0,-0.89 -0.22,-1.33 -0.22,-0.45 -0.66,-0.74 -1.16,-0.74 l 0,0 c -0.42,0 -0.86,0.21 -1.13,0.67 -0.25,0.44 -0.25,1.04 -0.25,1.4 0,0.39 0,0.92 0.24,1.36 0.27,0.46 0.74,0.67 1.13,0.67 l 0.01,0.22 c -1.24,0 -2.2,-1.09 -2.2,-2.33 0,-1.28 1.03,-2.23 2.19,-2.23 1.21,0 2.21,0.97 2.21,2.23 z"
         id="path4190" /><path
         style="fill:#000000;stroke-width:0"
         inkscape:connector-curvature="0"
         d="m 329.57,710.54 0,-2.66 c 0,-0.45 -0.11,-0.45 -0.77,-0.45 l 0,-0.31 c 0.34,0.02 0.85,0.04 1.12,0.04 0.26,0 0.78,-0.02 1.12,-0.04 l 0,0.31 c -0.67,0 -0.78,0 -0.78,0.45 l 0,1.83 c 0,1.03 0.71,1.59 1.34,1.59 0.63,0 0.74,-0.54 0.74,-1.1 l 0,-2.32 c 0,-0.45 -0.11,-0.45 -0.78,-0.45 l 0,-0.31 c 0.35,0.02 0.86,0.04 1.13,0.04 0.26,0 0.77,-0.02 1.11,-0.04 l 0,0.31 c -0.52,0 -0.76,0 -0.78,0.3 l 0,1.9 c 0,0.85 0,1.16 -0.3,1.52 -0.14,0.17 -0.47,0.37 -1.05,0.37 -0.72,0 -1.19,-0.43 -1.47,-1.05 l 0,1.05 -1.4,-0.11 0,-0.31 c 0.69,0 0.77,-0.07 0.77,-0.56 z"
         id="path4192" /><path
         style="fill:#000000;stroke-width:0"
         inkscape:connector-curvature="0"
         d="m 336.08,709.05 0.03,0 0.02,-0.01 0.03,0 0.03,-0.01 0.03,-0.01 0.04,-0.01 0.04,-0.01 0.04,-0.01 0.04,-0.01 0.04,-0.01 0.04,-0.02 0.05,-0.02 0.04,-0.01 0.04,-0.03 0.05,-0.02 0.04,-0.02 0.05,-0.03 0.04,-0.03 0.04,-0.03 0.04,-0.03 0.04,-0.03 0.03,-0.04 0.04,-0.04 0.03,-0.04 0.03,-0.05 0.01,-0.02 0.01,-0.03 0.01,-0.02 0.01,-0.03 0.01,-0.02 0.01,-0.03 0.01,-0.03 0.01,-0.02 0,-0.03 0.01,-0.03 0,-0.03 0.01,-0.04 0,-0.03 0,-0.03 c 0,-0.51 -0.35,-0.91 -1.13,-0.91 -0.83,0 -1.19,0.57 -1.38,1.42 -0.03,0.12 -0.04,0.16 -0.14,0.16 -0.13,0 -0.13,-0.07 -0.13,-0.24 l 0,-1.32 c 0,-0.16 0,-0.23 0.11,-0.23 0.05,0 0.06,0.01 0.25,0.19 0.02,0.02 0.02,0.04 0.2,0.23 0.44,-0.41 0.89,-0.42 1.09,-0.42 1.15,0 1.61,0.66 1.61,1.38 0,0.52 -0.3,0.82 -0.42,0.94 -0.33,0.32 -0.72,0.4 -1.14,0.48 -0.55,0.11 -1.22,0.23 -1.22,0.81 0,0.35 0.26,0.76 1.11,0.76 1.1,0 1.15,-0.9 1.17,-1.21 0.01,-0.09 0.1,-0.09 0.12,-0.09 0.13,0 0.13,0.06 0.13,0.24 l 0,1.01 c 0,0.17 0,0.24 -0.11,0.24 -0.05,0 -0.07,0 -0.2,-0.12 -0.03,-0.04 -0.13,-0.13 -0.17,-0.16 -0.38,0.28 -0.79,0.28 -0.94,0.28 -1.21,0 -1.59,-0.67 -1.59,-1.23 0,-0.34 0.16,-0.62 0.43,-0.84 0.32,-0.26 0.6,-0.32 1.31,-0.46 z"
         id="path4194" /></g>    <g
       style="font-style:normal;font-variant:normal;font-weight:normal;font-stretch:normal;letter-spacing:normal;word-spacing:normal;text-anchor:start;fill:none;fill-opacity:1;fill-rule:evenodd;stroke:#000000;stroke-linecap:butt;stroke-linejoin:miter;stroke-miterlimit:10.43299961;stroke-dasharray:none;stroke-dashoffset:0;stroke-opacity:1"
       ns0:preamble=""
       ns0:text="integral solutions"
       word-spacing="normal"
       letter-spacing="normal"
       font-size-adjust="none"
       font-stretch="normal"
       font-weight="normal"
       font-variant="normal"
       font-style="normal"
       stroke-miterlimit="10.433"
       xml:space="preserve"
       transform="matrix(1,0,0,-1,80.479822,1018.4584)"
       id="g4474"><path
         id="path4476"
         d="m 225.19,711.52 -1.39,-0.11 0,-0.31 c 0.65,0 0.74,-0.06 0.74,-0.55 l 0,-2.67 c 0,-0.45 -0.11,-0.45 -0.78,-0.45 l 0,-0.31 c 0.32,0.02 0.86,0.04 1.09,0.04 0.35,0 0.7,-0.02 1.04,-0.04 l 0,0.31 c -0.66,0 -0.7,0.05 -0.7,0.44 z"
         inkscape:connector-curvature="0"
         style="fill:#000000;stroke-width:0" /><path
         id="path4478"
         d="m 225.23,713.24 0,0.03 0,0.03 0,0.03 -0.01,0.03 0,0.02 -0.01,0.03 -0.01,0.03 -0.01,0.02 -0.01,0.02 -0.01,0.03 -0.02,0.02 -0.01,0.02 -0.02,0.02 -0.01,0.02 -0.02,0.02 -0.02,0.02 -0.01,0.01 -0.02,0.02 -0.02,0.01 -0.03,0.02 -0.02,0.01 -0.02,0.01 -0.02,0.01 -0.02,0.01 -0.03,0.01 -0.02,0.01 -0.03,0.01 -0.02,0 -0.03,0.01 -0.02,0 -0.03,0 -0.02,0 c -0.31,0 -0.53,-0.27 -0.53,-0.53 0,-0.26 0.22,-0.52 0.53,-0.52 0.27,0 0.52,0.21 0.52,0.52 z"
         inkscape:connector-curvature="0"
         style="fill:#000000;stroke-width:0" /><path
         id="path4480"
         d="m 227.29,710.54 0,-2.66 c 0,-0.45 -0.11,-0.45 -0.77,-0.45 l 0,-0.31 c 0.35,0.02 0.85,0.04 1.12,0.04 0.26,0 0.78,-0.02 1.12,-0.04 l 0,0.31 c -0.67,0 -0.78,0 -0.78,0.45 l 0,1.83 c 0,1.03 0.71,1.59 1.34,1.59 0.63,0 0.74,-0.54 0.74,-1.1 l 0,-2.32 c 0,-0.45 -0.11,-0.45 -0.78,-0.45 l 0,-0.31 c 0.35,0.02 0.86,0.04 1.13,0.04 0.26,0 0.77,-0.02 1.11,-0.04 l 0,0.31 c -0.51,0 -0.76,0 -0.77,0.3 l 0,1.9 c 0,0.85 0,1.16 -0.31,1.52 -0.14,0.17 -0.47,0.37 -1.05,0.37 -0.72,0 -1.19,-0.43 -1.47,-1.05 l 0,1.05 -1.4,-0.11 0,-0.31 c 0.69,0 0.77,-0.07 0.77,-0.56 z"
         inkscape:connector-curvature="0"
         style="fill:#000000;stroke-width:0" /><path
         id="path4482"
         d="m 233.18,711.1 1.42,0 0,0.31 -1.42,0 0,1.82 -0.25,0 c -0.01,-0.81 -0.31,-1.87 -1.28,-1.91 l 0,-0.22 0.84,0 0,-2.74 c 0,-1.22 0.93,-1.34 1.28,-1.34 0.71,0 0.99,0.7 0.99,1.34 l 0,0.56 -0.25,0 0,-0.54 c 0,-0.74 -0.3,-1.12 -0.67,-1.12 -0.66,0 -0.66,0.91 -0.66,1.08 z"
         inkscape:connector-curvature="0"
         style="fill:#000000;stroke-width:0" /><path
         id="path4484"
         d="m 236.43,709.42 0.02,0.21 c 0.05,1.48 0.89,1.73 1.23,1.73 1.02,0 1.12,-1.34 1.12,-1.73 l -2.35,0 -0.02,-0.21 2.78,0 c 0.22,0 0.25,0 0.25,0.21 0,0.98 -0.54,1.95 -1.78,1.95 -1.16,0 -2.07,-1.03 -2.07,-2.27 0,-1.33 1.04,-2.29 2.19,-2.29 1.21,0 1.66,1.1 1.66,1.29 0,0.1 -0.08,0.12 -0.13,0.12 -0.09,0 -0.11,-0.06 -0.13,-0.14 -0.35,-1.03 -1.24,-1.03 -1.34,-1.03 -0.5,0 -0.9,0.3 -1.13,0.67 -0.3,0.48 -0.3,1.13 -0.3,1.49 z"
         inkscape:connector-curvature="0"
         style="fill:#000000;stroke-width:0" /><path
         id="path4486"
         d="m 240.81,708.45 0,0 0,0.01 0,0 0,0.01 0,0.01 0,0.01 0,0.01 0,0.01 0.01,0.01 0,0.01 0,0.02 0,0.01 0,0.01 0.01,0.02 0,0.01 0,0.02 0.01,0.02 0,0.01 0.01,0.02 0,0.02 0.01,0.02 0.01,0.01 0,0.02 0.01,0.02 0.01,0.02 0.01,0.02 0.01,0.02 0.02,0.02 0.01,0.02 0.01,0.02 0.02,0.01 0.01,0.02 c 0.39,-0.27 0.8,-0.31 0.99,-0.31 l 0,0.23 c -0.87,0 -0.87,1 -0.87,1.22 0,0.27 0.01,0.59 0.16,0.84 0.08,0.12 0.31,0.4 0.71,0.4 0.86,0 0.86,-1 0.86,-1.22 0,-0.27 -0.01,-0.59 -0.16,-0.84 -0.08,-0.12 -0.31,-0.4 -0.7,-0.4 l 0,0 0,-0.23 c 0.92,0 1.61,0.69 1.61,1.45 0,0.37 -0.16,0.74 -0.41,0.97 0.36,0.34 0.72,0.39 0.9,0.39 0.02,0 0.06,0 0.09,-0.01 -0.1,-0.04 -0.15,-0.15 -0.15,-0.27 0,-0.17 0.12,-0.29 0.28,-0.29 0.1,0 0.29,0.07 0.29,0.3 0,0.17 -0.12,0.48 -0.5,0.48 -0.2,0 -0.64,-0.05 -1.06,-0.46 -0.42,0.33 -0.84,0.36 -1.05,0.36 -0.93,0 -1.62,-0.69 -1.62,-1.45 0,-0.44 0.22,-0.82 0.47,-1.03 -0.13,-0.15 -0.31,-0.47 -0.31,-0.82 0,-0.31 0.13,-0.69 0.44,-0.89 -0.6,-0.17 -0.91,-0.59 -0.91,-0.99 0,-0.72 0.98,-1.26 2.2,-1.26 l 0,0.23 c -1,0 -1.69,0.5 -1.69,1.03 0,0.46 0.38,0.82 0.82,0.85 l 0.59,0 c 0.85,0 1.97,0 1.97,-0.85 0,-0.54 -0.71,-1.03 -1.69,-1.03 l 0,0 0,-0.23 c 1.17,0 2.2,0.51 2.2,1.28 0,0.35 -0.14,0.85 -0.64,1.13 -0.53,0.28 -1.11,0.28 -1.71,0.28 -0.25,0 -0.68,0 -0.75,0.01 -0.32,0.04 -0.53,0.35 -0.53,0.67 z"
         inkscape:connector-curvature="0"
         style="fill:#000000;stroke-width:0" /><path
         id="path4488"
         d="m 246.4,710.42 0,1.1 -1.38,-0.11 0,-0.31 c 0.69,0 0.77,-0.07 0.77,-0.56 l 0,-2.66 c 0,-0.45 -0.11,-0.45 -0.77,-0.45 l 0,-0.31 c 0.39,0.02 0.85,0.04 1.13,0.04 0.4,0 0.87,0 1.26,-0.04 l 0,0.31 -0.2,0 c -0.74,0 -0.76,0.11 -0.76,0.47 l 0,1.53 c 0,0.98 0.42,1.87 1.17,1.87 0.07,0 0.09,0 0.11,-0.01 -0.03,-0.01 -0.22,-0.13 -0.22,-0.39 0,-0.28 0.2,-0.43 0.42,-0.43 0.18,0 0.43,0.12 0.43,0.44 0,0.32 -0.31,0.61 -0.74,0.61 -0.72,0 -1.08,-0.67 -1.22,-1.1 z"
         inkscape:connector-curvature="0"
         style="fill:#000000;stroke-width:0" /><path
         id="path4490"
         d="m 251.95,707.88 0.01,-0.04 0,-0.03 0.01,-0.04 0.01,-0.04 0.01,-0.04 0.01,-0.03 0.01,-0.04 0.02,-0.03 0.01,-0.04 0.02,-0.03 0.02,-0.04 0.01,-0.03 0.02,-0.03 0.03,-0.04 0.02,-0.03 0.02,-0.03 0.03,-0.02 0.02,-0.03 0.03,-0.03 0.03,-0.02 0.03,-0.02 0.03,-0.03 0.03,-0.02 0.04,-0.01 0.03,-0.02 0.04,-0.01 0.04,-0.02 0.03,-0.01 0.04,0 0.04,-0.01 0.05,0 0.04,0 c 0.21,0 0.82,0.13 0.82,0.94 l 0,0.56 -0.25,0 0,-0.56 c 0,-0.58 -0.25,-0.64 -0.36,-0.64 -0.33,0 -0.37,0.45 -0.37,0.5 l 0,1.99 c 0,0.41 0,0.8 -0.36,1.17 -0.39,0.39 -0.88,0.55 -1.36,0.55 -0.82,0 -1.5,-0.47 -1.5,-1.13 0,-0.29 0.2,-0.46 0.45,-0.46 0.28,0 0.46,0.19 0.46,0.45 0,0.12 -0.05,0.45 -0.5,0.46 0.26,0.35 0.75,0.46 1.07,0.46 0.49,0 1.05,-0.39 1.05,-1.27 l 0,-0.37 0,-0.21 0,-0.99 c 0,-0.95 -0.71,-1.29 -1.16,-1.29 -0.49,0 -0.9,0.35 -0.9,0.85 0,0.54 0.42,1.37 2.06,1.43 l 0,0 0,0.21 c -0.5,-0.03 -1.2,-0.06 -1.83,-0.36 -0.74,-0.34 -0.99,-0.85 -0.99,-1.29 0,-0.81 0.96,-1.05 1.59,-1.05 0.66,0 1.11,0.39 1.3,0.86 z"
         inkscape:connector-curvature="0"
         style="fill:#000000;stroke-width:0" /><path
         id="path4492"
         d="m 255.38,714.02 -1.43,-0.11 0,-0.31 c 0.7,0 0.78,-0.07 0.78,-0.55 l 0,-5.17 c 0,-0.45 -0.11,-0.45 -0.78,-0.45 l 0,-0.31 c 0.33,0.02 0.86,0.04 1.1,0.04 0.25,0 0.74,-0.02 1.11,-0.04 l 0,0.31 c -0.67,0 -0.78,0 -0.78,0.45 z"
         inkscape:connector-curvature="0"
         style="fill:#000000;stroke-width:0" /><path
         id="path4494"
         d="m 261.78,709.05 0.02,0 0.02,-0.01 0.03,0 0.03,-0.01 0.04,-0.01 0.03,-0.01 0.04,-0.01 0.04,-0.01 0.04,-0.01 0.04,-0.01 0.05,-0.02 0.04,-0.02 0.04,-0.01 0.05,-0.03 0.04,-0.02 0.05,-0.02 0.04,-0.03 0.04,-0.03 0.04,-0.03 0.04,-0.03 0.04,-0.03 0.04,-0.04 0.03,-0.04 0.03,-0.04 0.03,-0.05 0.01,-0.02 0.02,-0.03 0.01,-0.02 0.01,-0.03 0.01,-0.02 0.01,-0.03 0,-0.03 0.01,-0.02 0.01,-0.03 0,-0.03 0.01,-0.03 0,-0.04 0,-0.03 0,-0.03 c 0,-0.51 -0.35,-0.91 -1.12,-0.91 -0.84,0 -1.2,0.57 -1.39,1.42 -0.03,0.12 -0.03,0.16 -0.13,0.16 -0.13,0 -0.13,-0.07 -0.13,-0.24 l 0,-1.32 c 0,-0.16 0,-0.23 0.11,-0.23 0.05,0 0.05,0.01 0.24,0.19 0.02,0.02 0.02,0.04 0.2,0.23 0.44,-0.41 0.89,-0.42 1.1,-0.42 1.14,0 1.6,0.66 1.6,1.38 0,0.52 -0.3,0.82 -0.42,0.94 -0.33,0.32 -0.72,0.4 -1.13,0.48 -0.56,0.11 -1.23,0.23 -1.23,0.81 0,0.35 0.26,0.76 1.12,0.76 1.09,0 1.14,-0.9 1.16,-1.21 0.01,-0.09 0.1,-0.09 0.12,-0.09 0.13,0 0.13,0.06 0.13,0.24 l 0,1.01 c 0,0.17 0,0.24 -0.11,0.24 -0.05,0 -0.07,0 -0.2,-0.12 -0.03,-0.04 -0.13,-0.13 -0.17,-0.16 -0.38,0.28 -0.78,0.28 -0.93,0.28 -1.22,0 -1.59,-0.67 -1.59,-1.23 0,-0.34 0.16,-0.62 0.42,-0.84 0.32,-0.26 0.6,-0.32 1.32,-0.46 z"
         inkscape:connector-curvature="0"
         style="fill:#000000;stroke-width:0" /><path
         id="path4496"
         d="m 268.33,709.25 0,0.12 -0.01,0.12 -0.01,0.11 -0.02,0.12 -0.03,0.11 -0.03,0.11 -0.03,0.11 -0.04,0.1 -0.05,0.1 -0.04,0.1 -0.06,0.1 -0.06,0.09 -0.06,0.1 -0.06,0.08 -0.07,0.09 -0.07,0.08 -0.08,0.08 -0.08,0.07 -0.08,0.07 -0.09,0.06 -0.09,0.07 -0.09,0.05 -0.1,0.05 -0.09,0.05 -0.1,0.04 -0.11,0.04 -0.1,0.03 -0.11,0.03 -0.1,0.02 -0.11,0.01 -0.11,0.01 -0.12,0.01 -0.01,-0.22 c 0.44,0 0.87,-0.22 1.13,-0.65 0.26,-0.43 0.26,-1 0.26,-1.38 0,-0.36 0,-0.89 -0.22,-1.33 -0.22,-0.45 -0.66,-0.74 -1.16,-0.74 l 0,0 c -0.42,0 -0.86,0.21 -1.13,0.67 -0.25,0.44 -0.25,1.04 -0.25,1.4 0,0.39 0,0.92 0.24,1.36 0.27,0.46 0.74,0.67 1.13,0.67 l 0.01,0.22 c -1.24,0 -2.21,-1.09 -2.21,-2.33 0,-1.28 1.04,-2.23 2.2,-2.23 1.21,0 2.21,0.97 2.21,2.23 z"
         inkscape:connector-curvature="0"
         style="fill:#000000;stroke-width:0" /><path
         id="path4498"
         d="m 270.39,714.02 -1.43,-0.11 0,-0.31 c 0.69,0 0.77,-0.07 0.77,-0.55 l 0,-5.17 c 0,-0.45 -0.11,-0.45 -0.77,-0.45 l 0,-0.31 c 0.33,0.02 0.85,0.04 1.1,0.04 0.25,0 0.74,-0.02 1.11,-0.04 l 0,0.31 c -0.67,0 -0.78,0 -0.78,0.45 z"
         inkscape:connector-curvature="0"
         style="fill:#000000;stroke-width:0" /><path
         id="path4500"
         d="m 275.29,707.91 0,-0.89 1.43,0.1 0,0.31 c -0.7,0 -0.78,0.07 -0.78,0.56 l 0,3.53 -1.46,-0.11 0,-0.31 c 0.7,0 0.78,-0.07 0.78,-0.56 l 0,-1.77 c 0,-0.86 -0.48,-1.54 -1.21,-1.54 -0.83,0 -0.87,0.47 -0.87,0.99 l 0,3.3 -1.47,-0.11 0,-0.31 c 0.78,0 0.78,-0.03 0.78,-0.92 l 0,-1.49 c 0,-0.77 0,-1.67 1.51,-1.67 0.56,0 1,0.27 1.29,0.89 z"
         inkscape:connector-curvature="0"
         style="fill:#000000;stroke-width:0" /><path
         id="path4502"
         d="m 278.64,711.1 1.43,0 0,0.31 -1.43,0 0,1.82 -0.25,0 c -0.01,-0.81 -0.31,-1.87 -1.28,-1.91 l 0,-0.22 0.85,0 0,-2.74 c 0,-1.22 0.92,-1.34 1.28,-1.34 0.71,0 0.98,0.7 0.98,1.34 l 0,0.56 -0.24,0 0,-0.54 c 0,-0.74 -0.3,-1.12 -0.67,-1.12 -0.67,0 -0.67,0.91 -0.67,1.08 z"
         inkscape:connector-curvature="0"
         style="fill:#000000;stroke-width:0" /><path
         id="path4504"
         d="m 282.56,711.52 -1.4,-0.11 0,-0.31 c 0.65,0 0.74,-0.06 0.74,-0.55 l 0,-2.67 c 0,-0.45 -0.11,-0.45 -0.78,-0.45 l 0,-0.31 c 0.32,0.02 0.86,0.04 1.1,0.04 0.35,0 0.7,-0.02 1.03,-0.04 l 0,0.31 c -0.65,0 -0.69,0.05 -0.69,0.44 z"
         inkscape:connector-curvature="0"
         style="fill:#000000;stroke-width:0" /><path
         id="path4506"
         d="m 282.6,713.24 0,0.03 -0.01,0.03 0,0.03 -0.01,0.03 0,0.02 -0.01,0.03 -0.01,0.03 -0.01,0.02 -0.01,0.02 -0.01,0.03 -0.01,0.02 -0.02,0.02 -0.01,0.02 -0.02,0.02 -0.02,0.02 -0.01,0.02 -0.02,0.01 -0.02,0.02 -0.02,0.01 -0.02,0.02 -0.02,0.01 -0.03,0.01 -0.02,0.01 -0.02,0.01 -0.02,0.01 -0.03,0.01 -0.02,0.01 -0.03,0 -0.02,0.01 -0.03,0 -0.02,0 -0.03,0 c -0.31,0 -0.53,-0.27 -0.53,-0.53 0,-0.26 0.22,-0.52 0.53,-0.52 0.28,0 0.53,0.21 0.53,0.52 z"
         inkscape:connector-curvature="0"
         style="fill:#000000;stroke-width:0" /><path
         id="path4508"
         d="m 288.25,709.25 0,0.12 -0.01,0.12 -0.02,0.11 -0.02,0.12 -0.02,0.11 -0.03,0.11 -0.04,0.11 -0.04,0.1 -0.04,0.1 -0.05,0.1 -0.05,0.1 -0.06,0.09 -0.06,0.1 -0.07,0.08 -0.07,0.09 -0.07,0.08 -0.08,0.08 -0.08,0.07 -0.08,0.07 -0.09,0.06 -0.08,0.07 -0.1,0.05 -0.09,0.05 -0.1,0.05 -0.1,0.04 -0.1,0.04 -0.1,0.03 -0.11,0.03 -0.11,0.02 -0.11,0.01 -0.11,0.01 -0.11,0.01 -0.01,-0.22 c 0.44,0 0.87,-0.22 1.13,-0.65 0.25,-0.43 0.25,-1 0.25,-1.38 0,-0.36 0,-0.89 -0.22,-1.33 -0.21,-0.45 -0.65,-0.74 -1.15,-0.74 l 0,0 c -0.43,0 -0.87,0.21 -1.13,0.67 -0.25,0.44 -0.25,1.04 -0.25,1.4 0,0.39 0,0.92 0.24,1.36 0.26,0.46 0.73,0.67 1.13,0.67 l 0.01,0.22 c -1.24,0 -2.21,-1.09 -2.21,-2.33 0,-1.28 1.04,-2.23 2.2,-2.23 1.2,0 2.21,0.97 2.21,2.23 z"
         inkscape:connector-curvature="0"
         style="fill:#000000;stroke-width:0" /><path
         id="path4510"
         d="m 289.64,710.54 0,-2.66 c 0,-0.45 -0.11,-0.45 -0.78,-0.45 l 0,-0.31 c 0.35,0.02 0.86,0.04 1.13,0.04 0.26,0 0.77,-0.02 1.11,-0.04 l 0,0.31 c -0.67,0 -0.77,0 -0.77,0.45 l 0,1.83 c 0,1.03 0.7,1.59 1.34,1.59 0.63,0 0.73,-0.54 0.73,-1.1 l 0,-2.32 c 0,-0.45 -0.1,-0.45 -0.77,-0.45 l 0,-0.31 c 0.35,0.02 0.85,0.04 1.12,0.04 0.26,0 0.78,-0.02 1.12,-0.04 l 0,0.31 c -0.52,0 -0.77,0 -0.78,0.3 l 0,1.9 c 0,0.85 0,1.16 -0.31,1.52 -0.14,0.17 -0.46,0.37 -1.04,0.37 -0.73,0 -1.2,-0.43 -1.47,-1.05 l 0,1.05 -1.41,-0.11 0,-0.31 c 0.7,0 0.78,-0.07 0.78,-0.56 z"
         inkscape:connector-curvature="0"
         style="fill:#000000;stroke-width:0" /><path
         id="path4512"
         d="m 296.15,709.05 0.02,0 0.03,-0.01 0.03,0 0.03,-0.01 0.03,-0.01 0.04,-0.01 0.03,-0.01 0.04,-0.01 0.04,-0.01 0.05,-0.01 0.04,-0.02 0.04,-0.02 0.05,-0.01 0.04,-0.03 0.04,-0.02 0.05,-0.02 0.04,-0.03 0.04,-0.03 0.04,-0.03 0.04,-0.03 0.04,-0.03 0.04,-0.04 0.03,-0.04 0.03,-0.04 0.03,-0.05 0.01,-0.02 0.02,-0.03 0.01,-0.02 0.01,-0.03 0.01,-0.02 0.01,-0.03 0.01,-0.03 0,-0.02 0.01,-0.03 0,-0.03 0.01,-0.03 0,-0.04 0,-0.03 0,-0.03 c 0,-0.51 -0.35,-0.91 -1.12,-0.91 -0.84,0 -1.19,0.57 -1.38,1.42 -0.03,0.12 -0.04,0.16 -0.14,0.16 -0.13,0 -0.13,-0.07 -0.13,-0.24 l 0,-1.32 c 0,-0.16 0,-0.23 0.11,-0.23 0.05,0 0.06,0.01 0.25,0.19 0.02,0.02 0.02,0.04 0.19,0.23 0.44,-0.41 0.89,-0.42 1.1,-0.42 1.14,0 1.6,0.66 1.6,1.38 0,0.52 -0.3,0.82 -0.42,0.94 -0.32,0.32 -0.71,0.4 -1.13,0.48 -0.56,0.11 -1.22,0.23 -1.22,0.81 0,0.35 0.25,0.76 1.11,0.76 1.09,0 1.14,-0.9 1.16,-1.21 0.01,-0.09 0.1,-0.09 0.12,-0.09 0.13,0 0.13,0.06 0.13,0.24 l 0,1.01 c 0,0.17 0,0.24 -0.11,0.24 -0.05,0 -0.07,0 -0.2,-0.12 -0.03,-0.04 -0.12,-0.13 -0.17,-0.16 -0.37,0.28 -0.78,0.28 -0.93,0.28 -1.21,0 -1.59,-0.67 -1.59,-1.23 0,-0.34 0.16,-0.62 0.43,-0.84 0.31,-0.26 0.59,-0.32 1.31,-0.46 z"
         inkscape:connector-curvature="0"
         style="fill:#000000;stroke-width:0" /></g>  </g>
  <g
     inkscape:label="Layer"
     id="layer2"
     inkscape:groupmode="layer">
    <path
       transform="matrix(0.5,0,0,0.5,82.5,146.18109)"
       d="m 180,222.36218 a 5,5 0 1 1 -10,0 5,5 0 1 1 10,0 z"
       sodipodi:ry="5"
       sodipodi:rx="5"
       sodipodi:cy="222.36218"
       sodipodi:cx="175"
       id="path5207"
       style="fill:#32b32d;fill-opacity:1;stroke:#000000;stroke-width:0.25;stroke-linecap:round;stroke-miterlimit:4;stroke-opacity:1;stroke-dasharray:none;stroke-dashoffset:0"
       sodipodi:type="arc" />
    <path
       sodipodi:type="arc"
       style="fill:#32b32d;fill-opacity:1;stroke:#000000;stroke-width:0.25;stroke-linecap:round;stroke-miterlimit:4;stroke-opacity:1;stroke-dasharray:none;stroke-dashoffset:0"
       id="path5209"
       sodipodi:cx="175"
       sodipodi:cy="222.36218"
       sodipodi:rx="5"
       sodipodi:ry="5"
       d="m 180,222.36218 a 5,5 0 1 1 -10,0 5,5 0 1 1 10,0 z"
       transform="matrix(0.5,0,0,0.5,107.5,146.18109)" />
    <path
       transform="matrix(0.5,0,0,0.5,117.5,146.18109)"
       d="m 180,222.36218 a 5,5 0 1 1 -10,0 5,5 0 1 1 10,0 z"
       sodipodi:ry="5"
       sodipodi:rx="5"
       sodipodi:cy="222.36218"
       sodipodi:cx="175"
       id="path5211"
       style="fill:#32b32d;fill-opacity:1;stroke:#000000;stroke-width:0.25;stroke-linecap:round;stroke-miterlimit:4;stroke-opacity:1;stroke-dasharray:none;stroke-dashoffset:0"
       sodipodi:type="arc" />
    <path
       sodipodi:type="arc"
       style="fill:#32b32d;fill-opacity:1;stroke:#000000;stroke-width:0.25;stroke-linecap:round;stroke-miterlimit:4;stroke-opacity:1;stroke-dasharray:none;stroke-dashoffset:0"
       id="path5213"
       sodipodi:cx="175"
       sodipodi:cy="222.36218"
       sodipodi:rx="5"
       sodipodi:ry="5"
       d="m 180,222.36218 a 5,5 0 1 1 -10,0 5,5 0 1 1 10,0 z"
       transform="matrix(0.5,0,0,0.5,147.5,146.18109)" />
    <path
       transform="matrix(0.5,0,0,0.5,157.5,146.18109)"
       d="m 180,222.36218 a 5,5 0 1 1 -10,0 5,5 0 1 1 10,0 z"
       sodipodi:ry="5"
       sodipodi:rx="5"
       sodipodi:cy="222.36218"
       sodipodi:cx="175"
       id="path5215"
       style="fill:#32b32d;fill-opacity:1;stroke:#000000;stroke-width:0.25;stroke-linecap:round;stroke-miterlimit:4;stroke-opacity:1;stroke-dasharray:none;stroke-dashoffset:0"
       sodipodi:type="arc" />
    <path
       transform="matrix(0.5,0,0,0.5,202.5,146.18109)"
       d="m 180,222.36218 a 5,5 0 1 1 -10,0 5,5 0 1 1 10,0 z"
       sodipodi:ry="5"
       sodipodi:rx="5"
       sodipodi:cy="222.36218"
       sodipodi:cx="175"
       id="path5219"
       style="fill:#32b32d;fill-opacity:1;stroke:#000000;stroke-width:0.25;stroke-linecap:round;stroke-miterlimit:4;stroke-opacity:1;stroke-dasharray:none;stroke-dashoffset:0"
       sodipodi:type="arc" />
    <path
       sodipodi:type="arc"
       style="fill:#32b32d;fill-opacity:1;stroke:#000000;stroke-width:0.25;stroke-linecap:round;stroke-miterlimit:4;stroke-opacity:1;stroke-dasharray:none;stroke-dashoffset:0"
       id="path5221"
       sodipodi:cx="175"
       sodipodi:cy="222.36218"
       sodipodi:rx="5"
       sodipodi:ry="5"
       d="m 180,222.36218 a 5,5 0 1 1 -10,0 5,5 0 1 1 10,0 z"
       transform="matrix(0.5,0,0,0.5,237.5,146.18109)" />
    <path
       transform="matrix(0.5,0,0,0.5,272.5,146.18109)"
       d="m 180,222.36218 a 5,5 0 1 1 -10,0 5,5 0 1 1 10,0 z"
       sodipodi:ry="5"
       sodipodi:rx="5"
       sodipodi:cy="222.36218"
       sodipodi:cx="175"
       id="path5227"
       style="fill:#32b32d;fill-opacity:1;stroke:#000000;stroke-width:0.25;stroke-linecap:round;stroke-miterlimit:4;stroke-opacity:1;stroke-dasharray:none;stroke-dashoffset:0"
       sodipodi:type="arc" />
    <path
       sodipodi:type="arc"
       style="fill:#32b32d;fill-opacity:1;stroke:#000000;stroke-width:0.25;stroke-linecap:round;stroke-miterlimit:4;stroke-opacity:1;stroke-dasharray:none;stroke-dashoffset:0"
       id="path5229"
       sodipodi:cx="175"
       sodipodi:cy="222.36218"
       sodipodi:rx="5"
       sodipodi:ry="5"
       d="m 180,222.36218 a 5,5 0 1 1 -10,0 5,5 0 1 1 10,0 z"
       transform="matrix(0.5,0,0,0.5,282.5,146.18109)" />
    <path
       transform="matrix(0.5,0,0,0.5,302.5,146.18109)"
       d="m 180,222.36218 a 5,5 0 1 1 -10,0 5,5 0 1 1 10,0 z"
       sodipodi:ry="5"
       sodipodi:rx="5"
       sodipodi:cy="222.36218"
       sodipodi:cx="175"
       id="path5231"
       style="fill:#32b32d;fill-opacity:1;stroke:#000000;stroke-width:0.25;stroke-linecap:round;stroke-miterlimit:4;stroke-opacity:1;stroke-dasharray:none;stroke-dashoffset:0"
       sodipodi:type="arc" />
  </g>
</svg>
