<?xml version="1.0" encoding="UTF-8" standalone="no"?>
<!-- Created with Inkscape (http://www.inkscape.org/) -->

<svg
   xmlns:ns0="http://www.iki.fi/pav/software/textext/"
   xmlns:dc="http://purl.org/dc/elements/1.1/"
   xmlns:cc="http://creativecommons.org/ns#"
   xmlns:rdf="http://www.w3.org/1999/02/22-rdf-syntax-ns#"
   xmlns:svg="http://www.w3.org/2000/svg"
   xmlns="http://www.w3.org/2000/svg"
   xmlns:sodipodi="http://sodipodi.sourceforge.net/DTD/sodipodi-0.dtd"
   xmlns:inkscape="http://www.inkscape.org/namespaces/inkscape"
   width="744.09448819"
   height="1052.3622047"
   id="svg2"
   version="1.1"
   inkscape:version="0.48.4 r9939"
   sodipodi:docname="kcut9.svg">
  <sodipodi:namedview
     id="base"
     pagecolor="#ffffff"
     bordercolor="#666666"
     borderopacity="1.0"
     inkscape:pageopacity="0.0"
     inkscape:pageshadow="2"
     inkscape:zoom="0.90509668"
     inkscape:cx="413.7897"
     inkscape:cy="719.30512"
     inkscape:document-units="px"
     inkscape:current-layer="layer6"
     showgrid="true"
     showborder="false"
     inkscape:snap-object-midpoints="true"
     inkscape:snap-global="false"
     inkscape:window-width="1918"
     inkscape:window-height="1062"
     inkscape:window-x="0"
     inkscape:window-y="0"
     inkscape:window-maximized="0">
    <inkscape:grid
       spacingy="1mm"
       spacingx="1mm"
       units="mm"
       snapvisiblegridlinesonly="true"
       enabled="true"
       visible="true"
       empspacing="5"
       id="grid2985"
       type="xygrid" />
  </sodipodi:namedview>
  <defs
     id="defs4" />
  <metadata
     id="metadata7">
    <rdf:RDF>
      <cc:Work
         rdf:about="">
        <dc:format>image/svg+xml</dc:format>
        <dc:type
           rdf:resource="http://purl.org/dc/dcmitype/StillImage" />
        <dc:title />
      </cc:Work>
    </rdf:RDF>
  </metadata>
  <g
     style="display:inline"
     inkscape:label="Layer#3"
     id="layer7"
     inkscape:groupmode="layer" />
  <g
     style="display:inline"
     inkscape:label="Layer#4"
     id="layer8"
     inkscape:groupmode="layer" />
  <g
     style="display:inline"
     inkscape:label="Layer"
     id="layer5"
     inkscape:groupmode="layer" />
  <g
     style="display:inline"
     inkscape:label="Layer#1"
     id="layer6"
     inkscape:groupmode="layer">
    <rect
       transform="matrix(-0.39826655,0.91726973,-0.91726973,-0.39826655,0,0)"
       style="fill:#edfaff;fill-opacity:1;stroke:#1668a3;stroke-width:1.77165353;stroke-linecap:round;stroke-linejoin:round;stroke-miterlimit:4;stroke-opacity:1;stroke-dasharray:none;stroke-dashoffset:0;display:inline"
       id="rect6671"
       width="318"
       height="105"
       x="-63.783329"
       y="-465.59726"
       ry="0" />
    <path
       sodipodi:type="arc"
       style="fill:#edfaff;fill-opacity:1;stroke:#1668a3;stroke-width:1.77165353;stroke-linecap:round;stroke-linejoin:round;stroke-miterlimit:4;stroke-opacity:1;stroke-dasharray:none;stroke-dashoffset:0"
       id="path3008"
       sodipodi:cx="301.18109"
       sodipodi:cy="201.96848"
       sodipodi:rx="230.31496"
       sodipodi:ry="159.40996"
       d="m 531.49605,201.96848 a 230.31496,159.40996 0 1 1 -460.629915,0 230.31496,159.40996 0 1 1 460.629915,0 z"
       transform="translate(156.6204,-61.634882)" />
    <path
       transform="translate(-53.149595,265.74804)"
       d="m 460.62991,201.96848 a 159.44882,106.29922 0 1 1 -318.89764,0 159.44882,106.29922 0 1 1 318.89764,0 z"
       sodipodi:ry="106.29922"
       sodipodi:rx="159.44882"
       sodipodi:cy="201.96848"
       sodipodi:cx="301.18109"
       id="path6563"
       style="fill:#edfaff;fill-opacity:1;stroke:#1668a3;stroke-width:1.77165353;stroke-linecap:round;stroke-linejoin:round;stroke-miterlimit:4;stroke-opacity:1;stroke-dasharray:none;stroke-dashoffset:0"
       sodipodi:type="arc" />
    <g
       ns0:preamble=""
       ns0:text="$S$\n"
       word-spacing="normal"
       letter-spacing="normal"
       font-size-adjust="none"
       font-stretch="normal"
       font-weight="normal"
       font-variant="normal"
       font-style="normal"
       stroke-miterlimit="10.433"
       xml:space="preserve"
       transform="matrix(7.8556059,0,0,-7.8556059,-1518.2311,5575.0833)"
       id="content"
       style="font-style:normal;font-variant:normal;font-weight:normal;font-stretch:normal;letter-spacing:normal;word-spacing:normal;text-anchor:start;fill:#1668a3;fill-opacity:1;stroke:none"><path
         id="path6813"
         d="m 229.85,714.03 0,0 0,0.01 0,0 0,0 0,0.01 0,0 0,0 -0.01,0.01 0,0 0,0.01 0,0 0,0 0,0.01 -0.01,0 0,0.01 0,0 -0.01,0 0,0.01 0,0 -0.01,0 0,0.01 -0.01,0 0,0 -0.01,0.01 0,0 0,0 -0.01,0 0,0 0,0 -0.01,0 0,0 0,0.01 -0.01,0 0,0 0,0 -0.01,0 0,0 -0.01,0 0,0 c -0.05,0 -0.06,-0.01 -0.18,-0.15 l -0.48,-0.57 c -0.26,0.47 -0.77,0.72 -1.42,0.72 -1.26,0 -2.46,-1.14 -2.46,-2.35 0,-0.8 0.53,-1.26 1.04,-1.41 l 1.06,-0.28 c 0.37,-0.08 0.92,-0.23 0.92,-1.05 0,-0.89 -0.82,-1.83 -1.79,-1.83 -0.64,0 -1.74,0.22 -1.74,1.45 0,0.24 0.05,0.48 0.05,0.54 0.02,0.04 0.02,0.05 0.02,0.07 0,0.1 -0.06,0.11 -0.11,0.11 -0.05,0 -0.07,-0.01 -0.1,-0.04 -0.04,-0.04 -0.6,-2.3 -0.6,-2.33 0,-0.06 0.05,-0.1 0.11,-0.1 0.05,0 0.06,0.01 0.18,0.14 l 0.49,0.57 c 0.42,-0.57 1.1,-0.71 1.68,-0.71 1.35,0 2.52,1.32 2.52,2.55 0,0.69 -0.33,1.02 -0.48,1.16 -0.23,0.23 -0.38,0.27 -1.27,0.5 -0.22,0.06 -0.57,0.16 -0.66,0.18 -0.27,0.09 -0.61,0.37 -0.61,0.9 0,0.81 0.8,1.65 1.74,1.65 0.83,0 1.43,-0.43 1.43,-1.54 0,-0.32 -0.04,-0.5 -0.04,-0.56 0,-0.01 0,-0.09 0.12,-0.09 0.1,0 0.11,0.02 0.15,0.19 z"
         inkscape:connector-curvature="0"
         style="fill:#1668a3;fill-opacity:1;stroke:none" /></g>    <g
       style="font-style:normal;font-variant:normal;font-weight:normal;font-stretch:normal;letter-spacing:normal;word-spacing:normal;text-anchor:start;fill:none;stroke:#000000;stroke-linecap:butt;stroke-linejoin:miter;stroke-miterlimit:10.43299961;stroke-opacity:1;stroke-dasharray:none;stroke-dashoffset:0"
       id="g7189"
       transform="matrix(7.0945191,0,0,-7.0945191,-1281.8164,5119.3412)"
       xml:space="preserve"
       stroke-miterlimit="10.433"
       font-style="normal"
       font-variant="normal"
       font-weight="normal"
       font-stretch="normal"
       font-size-adjust="none"
       letter-spacing="normal"
       word-spacing="normal"
       ns0:text="$x$"
       ns0:preamble=""><path
         style="fill:#000000;stroke-width:0"
         inkscape:connector-curvature="0"
         d="m 226.76,710.12 0,0.03 0.01,0.03 0.01,0.03 0.01,0.04 0.01,0.04 0.01,0.04 0.01,0.04 0.02,0.05 0.01,0.04 0.02,0.05 0.02,0.05 0.02,0.05 0.02,0.05 0.03,0.05 0.02,0.05 0.03,0.05 0.03,0.05 0.03,0.04 0.03,0.05 0.04,0.04 0.04,0.05 0.04,0.04 0.04,0.04 0.04,0.03 0.05,0.03 0.05,0.03 0.02,0.01 0.03,0.02 0.02,0.01 0.03,0.01 0.03,0.01 0.03,0 0.03,0.01 0.02,0.01 0.04,0 0.03,0 0.03,0.01 0.03,0 c 0.05,0 0.29,0 0.5,-0.13 -0.28,-0.05 -0.48,-0.3 -0.48,-0.54 0,-0.16 0.11,-0.35 0.38,-0.35 0.22,0 0.54,0.18 0.54,0.58 0,0.52 -0.59,0.66 -0.93,0.66 -0.58,0 -0.93,-0.53 -1.04,-0.76 -0.25,0.66 -0.79,0.76 -1.08,0.76 -1.03,0 -1.6,-1.29 -1.6,-1.53 0,-0.1 0.1,-0.1 0.12,-0.1 0.08,0 0.11,0.02 0.13,0.11 0.34,1.05 0.99,1.3 1.33,1.3 0.19,0 0.54,-0.09 0.54,-0.67 0,-0.31 -0.17,-0.97 -0.54,-2.36 -0.16,-0.62 -0.51,-1.04 -0.94,-1.04 -0.06,0 -0.29,0 -0.5,0.13 0.25,0.05 0.47,0.26 0.47,0.54 0,0.27 -0.22,0.35 -0.37,0.35 -0.3,0 -0.55,-0.26 -0.55,-0.58 0,-0.46 0.5,-0.65 0.94,-0.65 0.65,0 1.01,0.69 1.04,0.75 0.12,-0.37 0.48,-0.75 1.07,-0.75 1.03,0 1.6,1.28 1.6,1.53 0,0.1 -0.09,0.1 -0.12,0.1 -0.09,0 -0.11,-0.05 -0.13,-0.11 -0.33,-1.07 -1.01,-1.31 -1.33,-1.31 -0.38,0 -0.54,0.32 -0.54,0.66 0,0.22 0.06,0.44 0.17,0.87 z"
         id="path7191" /></g>    <path
       transform="matrix(4.3199786,0,0,4.3199786,-1632.7464,-703.12967)"
       d="m 453.54333,193.11021 a 1.7716675,1.7716537 0 1 1 -3.54333,0 1.7716675,1.7716537 0 1 1 3.54333,0 z"
       sodipodi:ry="1.7716537"
       sodipodi:rx="1.7716675"
       sodipodi:cy="193.11021"
       sodipodi:cx="451.77167"
       id="path4956-3"
       style="fill:#000000;fill-opacity:1;stroke:none;display:inline"
       sodipodi:type="arc" />
    <path
       sodipodi:type="arc"
       style="fill:#000000;fill-opacity:1;stroke:none;display:inline"
       id="path6333"
       sodipodi:cx="451.77167"
       sodipodi:cy="193.11021"
       sodipodi:rx="1.7716675"
       sodipodi:ry="1.7716537"
       d="m 453.54333,193.11021 a 1.7716675,1.7716537 0 1 1 -3.54333,0 1.7716675,1.7716537 0 1 1 3.54333,0 z"
       transform="matrix(4.3199786,0,0,4.3199786,-1455.581,-614.547)" />
    <path
       transform="matrix(4.3199786,0,0,4.3199786,-1420.1479,-738.56272)"
       d="m 453.54333,193.11021 a 1.7716675,1.7716537 0 1 1 -3.54333,0 1.7716675,1.7716537 0 1 1 3.54333,0 z"
       sodipodi:ry="1.7716537"
       sodipodi:rx="1.7716675"
       sodipodi:cy="193.11021"
       sodipodi:cx="451.77167"
       id="path6339"
       style="fill:#000000;fill-opacity:1;stroke:none;display:inline"
       sodipodi:type="arc" />
    <path
       sodipodi:type="arc"
       style="fill:#000000;fill-opacity:1;stroke:none;display:inline"
       id="path6359"
       sodipodi:cx="451.77167"
       sodipodi:cy="193.11021"
       sodipodi:rx="1.7716675"
       sodipodi:ry="1.7716537"
       d="m 453.54333,193.11021 a 1.7716675,1.7716537 0 1 1 -3.54333,0 1.7716675,1.7716537 0 1 1 3.54333,0 z"
       transform="matrix(4.3199786,0,0,4.3199786,-1703.6125,-401.94857)" />
    <path
       style="fill:none;stroke:#e83707;stroke-width:5.31496048;stroke-linecap:round;stroke-linejoin:round;stroke-miterlimit:4;stroke-opacity:1;stroke-dasharray:15.94488189, 15.94488189;stroke-dashoffset:0;display:inline"
       d="m 329.27383,-25.604562 c 0,0 79.33263,67.507748 95.55134,114.497477 12.48,36.157725 -3.55696,76.447595 -3.52691,114.698485 0.0394,50.13364 -15.5064,104.5115 4.85872,150.32248 18.54176,41.70935 70.35151,59.1583 98.64132,94.97942 22.50584,28.49735 55.31727,93.84831 55.31727,93.84831"
       id="path9922"
       inkscape:connector-curvature="0"
       sodipodi:nodetypes="caaaac" />
    <g
       id="g3091"
       transform="matrix(7.8556059,0,0,-7.8556059,-1724.8291,5934.1824)"
       xml:space="preserve"
       stroke-miterlimit="10.433"
       font-style="normal"
       font-variant="normal"
       font-weight="normal"
       font-stretch="normal"
       font-size-adjust="none"
       letter-spacing="normal"
       word-spacing="normal"
       ns0:text="$K_i$\n"
       ns0:preamble=""
       style="font-style:normal;font-variant:normal;font-weight:normal;font-stretch:normal;letter-spacing:normal;word-spacing:normal;text-anchor:start;fill:#1668a3;fill-opacity:1;fill-rule:evenodd;stroke:none"><path
         style="fill:#1668a3;fill-opacity:1"
         inkscape:connector-curvature="0"
         d="m 228.5,711.14 -0.01,0 0,0 0,0.01 0,0 0,0.01 0,0 0,0 -0.01,0.01 0,0 0,0.01 0,0 0,0.01 -0.01,0.01 0,0.01 -0.01,0.01 0,0.01 0,0 0,0.01 -0.01,0 0,0.01 0,0 0,0.01 0,0 0,0 0,0.01 0,0 0,0 0,0.01 c 0,0.01 0.18,0.15 0.29,0.23 l 1.74,1.34 c 0.93,0.68 1.32,0.72 1.62,0.75 0.08,0.01 0.18,0.02 0.18,0.2 0,0.04 -0.03,0.11 -0.11,0.11 -0.22,0 -0.47,-0.03 -0.71,-0.03 -0.36,0 -0.75,0.03 -1.1,0.03 -0.07,0 -0.19,0 -0.19,-0.2 0,-0.07 0.05,-0.1 0.12,-0.11 0.22,-0.02 0.31,-0.07 0.31,-0.21 0,-0.18 -0.3,-0.4 -0.36,-0.45 l -3.88,-2.98 0.79,3.19 c 0.09,0.35 0.11,0.45 0.84,0.45 0.25,0 0.34,0 0.34,0.2 0,0.09 -0.08,0.11 -0.14,0.11 -0.28,0 -1,-0.03 -1.28,-0.03 -0.28,0 -0.99,0.03 -1.28,0.03 -0.07,0 -0.2,0 -0.2,-0.19 0,-0.12 0.09,-0.12 0.29,-0.12 0.13,0 0.31,-0.01 0.43,-0.02 0.16,-0.02 0.22,-0.05 0.22,-0.16 0,-0.04 -0.01,-0.07 -0.04,-0.19 l -1.34,-5.33 c -0.09,-0.39 -0.11,-0.47 -0.9,-0.47 -0.17,0 -0.28,0 -0.28,-0.19 0,-0.12 0.12,-0.12 0.15,-0.12 0.28,0 0.98,0.04 1.26,0.04 0.21,0 0.43,-0.01 0.64,-0.01 0.22,0 0.44,-0.03 0.65,-0.03 0.07,0 0.2,0 0.2,0.2 0,0.11 -0.09,0.11 -0.28,0.11 -0.37,0 -0.65,0 -0.65,0.18 0,0.07 0.06,0.29 0.09,0.44 0.14,0.52 0.27,1.04 0.4,1.56 l 1.48,1.15 1.15,-2.67 c 0.12,-0.27 0.12,-0.29 0.12,-0.35 0,-0.3 -0.42,-0.31 -0.51,-0.31 -0.11,0 -0.22,0 -0.22,-0.2 0,-0.11 0.12,-0.11 0.14,-0.11 0.39,0 0.81,0.04 1.21,0.04 0.22,0 0.76,-0.04 0.98,-0.04 0.04,0 0.17,0 0.17,0.2 0,0.11 -0.11,0.11 -0.19,0.11 -0.41,0.01 -0.54,0.1 -0.69,0.45 z"
         id="path3093" /><path
         style="fill:#1668a3;fill-opacity:1"
         inkscape:connector-curvature="0"
         d="m 234.15,709.98 0,0.01 0,0.01 0,0.01 0,0.01 -0.01,0.01 0,0.01 0,0.01 -0.01,0.02 0,0.01 -0.01,0.01 0,0.01 -0.01,0.01 0,0.01 -0.01,0.01 -0.01,0.01 -0.01,0.01 -0.01,0.01 0,0.01 -0.01,0.01 -0.02,0.01 -0.01,0 -0.01,0.01 -0.01,0.01 -0.01,0.01 -0.02,0 -0.01,0.01 -0.02,0 -0.01,0 -0.02,0.01 -0.01,0 -0.02,0 -0.02,0 c -0.19,0 -0.39,-0.18 -0.39,-0.38 0,-0.12 0.09,-0.27 0.28,-0.27 0.2,0 0.39,0.2 0.39,0.39 z"
         id="path3095" /><path
         style="fill:#1668a3;fill-opacity:1"
         inkscape:connector-curvature="0"
         d="m 232.73,706.45 -0.01,-0.02 0,-0.02 -0.01,-0.03 -0.01,-0.02 0,-0.02 -0.01,-0.01 0,-0.02 -0.01,-0.02 0,-0.02 -0.01,-0.02 0,-0.01 0,-0.01 0,-0.01 0,-0.01 0,-0.01 0,-0.02 0,-0.01 0,-0.01 0,-0.01 c 0,-0.32 0.28,-0.59 0.66,-0.59 0.69,0 1,0.96 1,1.06 0,0.1 -0.09,0.1 -0.11,0.1 -0.1,0 -0.1,-0.05 -0.13,-0.12 -0.16,-0.56 -0.47,-0.84 -0.74,-0.84 -0.14,0 -0.18,0.09 -0.18,0.24 0,0.16 0.05,0.29 0.12,0.45 0.07,0.18 0.14,0.37 0.22,0.55 0.06,0.17 0.31,0.8 0.34,0.88 0.02,0.07 0.04,0.16 0.04,0.23 0,0.32 -0.28,0.59 -0.66,0.59 -0.69,0 -1.01,-0.95 -1.01,-1.07 0,-0.09 0.1,-0.09 0.12,-0.09 0.1,0 0.1,0.04 0.12,0.11 0.19,0.6 0.49,0.85 0.75,0.85 0.11,0 0.17,-0.05 0.17,-0.24 0,-0.16 -0.04,-0.27 -0.21,-0.7 z"
         id="path3097" /></g>    <g
       style="font-style:normal;font-variant:normal;font-weight:normal;font-stretch:normal;letter-spacing:normal;word-spacing:normal;text-anchor:start;fill:none;stroke:#000000;stroke-linecap:butt;stroke-linejoin:miter;stroke-miterlimit:10.43299961;stroke-opacity:1;stroke-dasharray:none;stroke-dashoffset:0"
       ns0:preamble=""
       ns0:text="$y$"
       word-spacing="normal"
       letter-spacing="normal"
       font-size-adjust="none"
       font-stretch="normal"
       font-weight="normal"
       font-variant="normal"
       font-style="normal"
       stroke-miterlimit="10.433"
       xml:space="preserve"
       transform="matrix(7.0945191,0,0,-7.0945191,-1036.5774,5080.8613)"
       id="g3921"><path
         id="path3923"
         d="m 228.27,710.91 0,0.01 0,0 0,0.01 0,0 0.01,0.02 0,0.01 0,0.01 0.01,0.01 0,0.01 0,0 0,0.01 0,0.01 0.01,0.01 0,0.01 0,0 0,0.01 0,0 0,0.01 0,0.01 0,0 0,0.01 0,0 0.01,0.01 0,0.01 0,0.01 0,0.01 0,0.01 0,0.01 0,0 0,0.01 c 0,0.18 -0.14,0.27 -0.29,0.27 -0.1,0 -0.26,-0.06 -0.35,-0.21 -0.02,-0.05 -0.1,-0.36 -0.14,-0.54 -0.07,-0.26 -0.14,-0.52 -0.2,-0.79 l -0.45,-1.79 c -0.03,-0.15 -0.46,-0.85 -1.12,-0.85 -0.51,0 -0.62,0.44 -0.62,0.81 0,0.46 0.17,1.07 0.51,1.95 0.16,0.4 0.2,0.51 0.2,0.71 0,0.45 -0.32,0.82 -0.82,0.82 -0.94,0 -1.31,-1.44 -1.31,-1.53 0,-0.1 0.1,-0.1 0.12,-0.1 0.1,0 0.11,0.02 0.16,0.18 0.27,0.93 0.67,1.23 1,1.23 0.08,0 0.25,0 0.25,-0.32 0,-0.25 -0.1,-0.51 -0.17,-0.7 -0.39,-1.05 -0.57,-1.62 -0.57,-2.08 0,-0.89 0.62,-1.18 1.21,-1.18 0.39,0 0.73,0.16 1.01,0.44 -0.13,-0.51 -0.25,-1 -0.65,-1.53 -0.26,-0.34 -0.64,-0.62 -1.1,-0.62 -0.13,0 -0.58,0.03 -0.75,0.41 0.16,0 0.29,0 0.43,0.12 0.1,0.09 0.19,0.22 0.19,0.41 0,0.31 -0.26,0.35 -0.36,0.35 -0.23,0 -0.56,-0.16 -0.56,-0.65 0,-0.49 0.44,-0.86 1.05,-0.86 1.03,0 2.05,0.9 2.33,2.02 z"
         inkscape:connector-curvature="0"
         style="fill:#000000;stroke-width:0" /></g>    <g
       id="g3981"
       transform="matrix(7.0945191,0,0,-7.0945191,-1356.9465,5498.3063)"
       xml:space="preserve"
       stroke-miterlimit="10.433"
       font-style="normal"
       font-variant="normal"
       font-weight="normal"
       font-stretch="normal"
       font-size-adjust="none"
       letter-spacing="normal"
       word-spacing="normal"
       ns0:text="$a_i$"
       ns0:preamble=""
       style="font-style:normal;font-variant:normal;font-weight:normal;font-stretch:normal;letter-spacing:normal;word-spacing:normal;text-anchor:start;fill:none;stroke:#000000;stroke-linecap:butt;stroke-linejoin:miter;stroke-miterlimit:10.43299961;stroke-opacity:1;stroke-dasharray:none;stroke-dashoffset:0"><path
         style="fill:#000000;stroke-width:0"
         inkscape:connector-curvature="0"
         d="m 227.14,710.88 -0.01,0.03 -0.02,0.04 -0.02,0.03 -0.02,0.03 -0.02,0.03 -0.02,0.03 -0.02,0.03 -0.02,0.03 -0.03,0.03 -0.02,0.03 -0.02,0.03 -0.03,0.02 -0.02,0.03 -0.03,0.02 -0.03,0.02 -0.02,0.03 -0.03,0.02 -0.03,0.02 -0.03,0.01 -0.03,0.02 -0.04,0.02 -0.03,0.01 -0.03,0.02 -0.04,0.01 -0.03,0.01 -0.04,0.01 -0.03,0.01 -0.04,0 -0.04,0.01 -0.04,0 -0.04,0.01 -0.04,0 c -1.17,0 -2.4,-1.47 -2.4,-2.92 0,-0.93 0.55,-1.58 1.32,-1.58 l 0.02,0.21 c -0.49,0 -0.63,0.55 -0.63,0.94 0,0.49 0.31,1.72 0.54,2.17 0.31,0.59 0.76,0.96 1.16,0.96 0.64,0 0.78,-0.82 0.78,-0.88 0,-0.06 -0.02,-0.12 -0.03,-0.17 l -0.49,-1.94 c -0.05,-0.18 -0.05,-0.2 -0.2,-0.37 -0.44,-0.55 -0.85,-0.71 -1.13,-0.71 l -0.02,-0.21 c 0.2,0 0.7,0.03 1.3,0.74 0.08,-0.42 0.42,-0.74 0.9,-0.74 0.35,0 0.58,0.22 0.74,0.54 0.17,0.36 0.3,0.97 0.3,0.99 0,0.1 -0.09,0.1 -0.12,0.1 -0.1,0 -0.11,-0.05 -0.14,-0.18 -0.17,-0.65 -0.35,-1.24 -0.76,-1.24 -0.27,0 -0.3,0.26 -0.3,0.46 0,0.22 0.02,0.3 0.13,0.74 0.11,0.41 0.13,0.51 0.22,0.89 l 0.36,1.39 c 0.07,0.28 0.07,0.3 0.07,0.34 0,0.17 -0.12,0.27 -0.29,0.27 -0.24,0 -0.39,-0.22 -0.42,-0.44 z"
         id="path3983" /><path
         style="fill:#000000;stroke-width:0"
         inkscape:connector-curvature="0"
         d="m 230.95,709.98 0,0.01 0,0.01 0,0.01 0,0.01 0,0.01 0,0.01 -0.01,0.01 0,0.02 -0.01,0.01 0,0.01 -0.01,0.01 0,0.01 -0.01,0.01 -0.01,0.01 0,0.01 -0.01,0.01 -0.01,0.01 -0.01,0.01 -0.01,0.01 -0.01,0.01 -0.01,0 -0.01,0.01 -0.02,0.01 -0.01,0.01 -0.01,0 -0.02,0.01 -0.01,0 -0.02,0 -0.01,0.01 -0.02,0 -0.02,0 -0.01,0 c -0.19,0 -0.39,-0.18 -0.39,-0.38 0,-0.12 0.09,-0.27 0.27,-0.27 0.21,0 0.39,0.2 0.39,0.39 z"
         id="path3985" /><path
         style="fill:#000000;stroke-width:0"
         inkscape:connector-curvature="0"
         d="m 229.53,706.45 0,-0.02 -0.01,-0.02 -0.01,-0.03 0,-0.02 -0.01,-0.02 0,-0.01 -0.01,-0.02 0,-0.02 -0.01,-0.02 0,-0.02 0,-0.01 0,-0.01 -0.01,-0.01 0,-0.01 0,-0.01 0,-0.02 0,-0.01 0,-0.01 0,-0.01 c 0,-0.32 0.28,-0.59 0.66,-0.59 0.7,0 1.01,0.96 1.01,1.06 0,0.1 -0.1,0.1 -0.12,0.1 -0.09,0 -0.1,-0.05 -0.13,-0.12 -0.16,-0.56 -0.46,-0.84 -0.74,-0.84 -0.14,0 -0.17,0.09 -0.17,0.24 0,0.16 0.05,0.29 0.11,0.45 0.07,0.18 0.15,0.37 0.22,0.55 0.07,0.17 0.32,0.8 0.34,0.88 0.03,0.07 0.05,0.16 0.05,0.23 0,0.32 -0.28,0.59 -0.66,0.59 -0.69,0 -1.02,-0.95 -1.02,-1.07 0,-0.09 0.1,-0.09 0.12,-0.09 0.1,0 0.11,0.04 0.13,0.11 0.18,0.6 0.49,0.85 0.74,0.85 0.12,0 0.18,-0.05 0.18,-0.24 0,-0.16 -0.04,-0.27 -0.22,-0.7 z"
         id="path3987" /></g>    <g
       style="font-style:normal;font-variant:normal;font-weight:normal;font-stretch:normal;letter-spacing:normal;word-spacing:normal;text-anchor:start;fill:none;stroke:#000000;stroke-linecap:butt;stroke-linejoin:miter;stroke-miterlimit:10.43299961;stroke-opacity:1;stroke-dasharray:none;stroke-dashoffset:0"
       ns0:preamble=""
       ns0:text="$s_i$"
       text-anchor="start"
       word-spacing="normal"
       letter-spacing="normal"
       font-size-adjust="none"
       font-stretch="normal"
       font-weight="normal"
       font-variant="normal"
       font-style="normal"
       fill-opacity="1"
       fill-rule="evenodd"
       fill="none"
       stroke-opacity="1"
       stroke-dashoffset="0"
       stroke-dasharray="none"
       stroke-miterlimit="10.433"
       stroke-linejoin="miter"
       stroke-linecap="butt"
       stroke="black"
       xml:space="preserve"
       transform="matrix(7.0945191,0,0,-7.0945191,-1069.6844,5267.3917)"
       id="g4057"><path
         id="path4059"
         fill="black"
         stroke-width="0"
         d="M227.32,710.84 L227.3,710.84 L227.27,710.84 L227.25,710.83 L227.22,710.83 L227.2,710.82 L227.17,710.81 L227.15,710.81 L227.13,710.8 L227.11,710.79 L227.09,710.78 L227.07,710.76 L227.05,710.75 L227.03,710.74 L227.01,710.72 L227,710.71 L226.98,710.69 L226.96,710.68 L226.95,710.66 L226.94,710.65 L226.92,710.63 L226.91,710.61 L226.9,710.59 L226.89,710.57 L226.88,710.55 L226.87,710.53 L226.87,710.51 L226.86,710.49 L226.85,710.47 L226.85,710.45 L226.85,710.43 L226.85,710.41 L226.85,710.39 C226.85,710.25,226.93,710.1,227.15,710.1 C227.37,710.1,227.61,710.27,227.61,710.66 C227.61,711.11,227.18,711.52,226.43,711.52 C225.11,711.52,224.74,710.5,224.74,710.07 C224.74,709.29,225.48,709.14,225.77,709.08 C226.29,708.98,226.8,708.87,226.8,708.33 C226.8,708.07,226.58,707.23,225.38,707.23 C225.24,707.23,224.48,707.23,224.25,707.76 C224.63,707.71,224.88,708.01,224.88,708.29 C224.88,708.52,224.71,708.64,224.51,708.64 C224.25,708.64,223.95,708.43,223.95,707.98 C223.95,707.41,224.52,707.02,225.37,707.02 C226.98,707.02,227.37,708.22,227.37,708.66 C227.37,709.02,227.18,709.27,227.06,709.39 C226.79,709.67,226.51,709.72,226.07,709.81 C225.71,709.89,225.31,709.96,225.31,710.4 C225.31,710.69,225.55,711.3,226.43,711.3 C226.68,711.3,227.17,711.23,227.32,710.84 Z " /><path
         id="path4061"
         fill="black"
         stroke-width="0"
         d="M230.36,709.98 L230.36,709.99 L230.36,710 L230.36,710.01 L230.35,710.02 L230.35,710.03 L230.35,710.04 L230.35,710.05 L230.34,710.07 L230.34,710.08 L230.33,710.09 L230.33,710.1 L230.32,710.11 L230.31,710.12 L230.31,710.13 L230.3,710.14 L230.29,710.15 L230.28,710.16 L230.27,710.17 L230.26,710.18 L230.25,710.19 L230.24,710.19 L230.23,710.2 L230.22,710.21 L230.21,710.22 L230.19,710.22 L230.18,710.23 L230.16,710.23 L230.15,710.23 L230.13,710.24 L230.12,710.24 L230.1,710.24 L230.08,710.24 C229.89,710.24,229.69,710.06,229.69,709.86 C229.69,709.74,229.78,709.59,229.97,709.59 C230.17,709.59,230.36,709.79,230.36,709.98 Z " /><path
         id="path4063"
         fill="black"
         stroke-width="0"
         d="M228.94,706.45 L228.93,706.43 L228.93,706.41 L228.92,706.38 L228.91,706.36 L228.91,706.34 L228.9,706.33 L228.9,706.31 L228.89,706.29 L228.89,706.27 L228.88,706.25 L228.88,706.24 L228.88,706.23 L228.88,706.22 L228.88,706.21 L228.88,706.2 L228.88,706.18 L228.88,706.17 L228.88,706.16 L228.88,706.15 C228.88,705.83,229.15,705.56,229.54,705.56 C230.23,705.56,230.54,706.52,230.54,706.62 C230.54,706.72,230.45,706.72,230.43,706.72 C230.33,706.72,230.32,706.67,230.3,706.6 C230.14,706.04,229.83,705.76,229.56,705.76 C229.42,705.76,229.38,705.85,229.38,706 C229.38,706.16,229.43,706.29,229.49,706.45 C229.57,706.63,229.64,706.82,229.72,707 C229.78,707.17,230.03,707.8,230.06,707.88 C230.08,707.95,230.1,708.04,230.1,708.11 C230.1,708.43,229.82,708.7,229.44,708.7 C228.75,708.7,228.43,707.75,228.43,707.63 C228.43,707.54,228.53,707.54,228.55,707.54 C228.65,707.54,228.65,707.58,228.67,707.65 C228.85,708.25,229.16,708.5,229.42,708.5 C229.53,708.5,229.59,708.45,229.59,708.26 C229.59,708.1,229.55,707.99,229.38,707.56 Z " /></g>  </g>
</svg>
