<?xml version="1.0" encoding="UTF-8" standalone="no"?>
<!-- Created with Inkscape (http://www.inkscape.org/) -->

<svg
   xmlns:ns0="http://www.iki.fi/pav/software/textext/"
   xmlns:dc="http://purl.org/dc/elements/1.1/"
   xmlns:cc="http://creativecommons.org/ns#"
   xmlns:rdf="http://www.w3.org/1999/02/22-rdf-syntax-ns#"
   xmlns:svg="http://www.w3.org/2000/svg"
   xmlns="http://www.w3.org/2000/svg"
   xmlns:sodipodi="http://sodipodi.sourceforge.net/DTD/sodipodi-0.dtd"
   xmlns:inkscape="http://www.inkscape.org/namespaces/inkscape"
   width="744.09448819"
   height="1052.3622047"
   id="svg2"
   version="1.1"
   inkscape:version="0.48.4 r9939"
   sodipodi:docname="kcut10.svg">
  <sodipodi:namedview
     id="base"
     pagecolor="#ffffff"
     bordercolor="#666666"
     borderopacity="1.0"
     inkscape:pageopacity="0.0"
     inkscape:pageshadow="2"
     inkscape:zoom="0.5"
     inkscape:cx="842.73605"
     inkscape:cy="393.52306"
     inkscape:document-units="px"
     inkscape:current-layer="layer1"
     showgrid="true"
     showborder="false"
     inkscape:snap-object-midpoints="true"
     inkscape:snap-global="true"
     inkscape:window-width="1918"
     inkscape:window-height="1062"
     inkscape:window-x="0"
     inkscape:window-y="0"
     inkscape:window-maximized="0">
    <inkscape:grid
       spacingy="1mm"
       spacingx="1mm"
       units="mm"
       snapvisiblegridlinesonly="true"
       enabled="true"
       visible="true"
       empspacing="5"
       id="grid2985"
       type="xygrid" />
  </sodipodi:namedview>
  <defs
     id="defs4">
    <marker
       inkscape:stockid="Arrow1Send"
       orient="auto"
       refY="0.0"
       refX="0.0"
       id="Arrow1Send"
       style="overflow:visible;">
      <path
         id="path4049"
         d="M 0.0,0.0 L 5.0,-5.0 L -12.5,0.0 L 5.0,5.0 L 0.0,0.0 z "
         style="fill-rule:evenodd;stroke:#000000;stroke-width:1.0pt;"
         transform="scale(0.2) rotate(180) translate(6,0)" />
    </marker>
    <marker
       inkscape:stockid="Arrow1Mend"
       orient="auto"
       refY="0.0"
       refX="0.0"
       id="Arrow1Mend"
       style="overflow:visible;">
      <path
         id="path4043"
         d="M 0.0,0.0 L 5.0,-5.0 L -12.5,0.0 L 5.0,5.0 L 0.0,0.0 z "
         style="fill-rule:evenodd;stroke:#000000;stroke-width:1.0pt;"
         transform="scale(0.4) rotate(180) translate(10,0)" />
    </marker>
    <marker
       inkscape:stockid="Arrow1Sendp"
       orient="auto"
       refY="0.0"
       refX="0.0"
       id="Arrow1Sendp"
       style="overflow:visible;">
      <path
         id="path4953"
         d="M 0.0,0.0 L 5.0,-5.0 L -12.5,0.0 L 5.0,5.0 L 0.0,0.0 z "
         style="stroke:#fa9381;stroke-width:1.0pt;fill:#fa9381;fill-rule:evenodd"
         transform="scale(0.2) rotate(180) translate(6,0)" />
    </marker>
    <marker
       inkscape:stockid="Arrow1Send0"
       orient="auto"
       refY="0.0"
       refX="0.0"
       id="Arrow1Send0"
       style="overflow:visible;">
      <path
         id="path5666"
         d="M 0.0,0.0 L 5.0,-5.0 L -12.5,0.0 L 5.0,5.0 L 0.0,0.0 z "
         style="stroke:#fa9381;stroke-width:1.0pt;fill:#fa9381;fill-rule:evenodd"
         transform="scale(0.2) rotate(180) translate(6,0)" />
    </marker>
    <marker
       inkscape:stockid="Arrow1Sendh"
       orient="auto"
       refY="0.0"
       refX="0.0"
       id="Arrow1Sendh"
       style="overflow:visible;">
      <path
         id="path5669"
         d="M 0.0,0.0 L 5.0,-5.0 L -12.5,0.0 L 5.0,5.0 L 0.0,0.0 z "
         style="stroke:#fa9381;stroke-width:1.0pt;fill:#fa9381;fill-rule:evenodd"
         transform="scale(0.2) rotate(180) translate(6,0)" />
    </marker>
    <marker
       inkscape:stockid="Arrow1Sendp2"
       orient="auto"
       refY="0.0"
       refX="0.0"
       id="Arrow1Sendp2"
       style="overflow:visible;">
      <path
         id="path5672"
         d="M 0.0,0.0 L 5.0,-5.0 L -12.5,0.0 L 5.0,5.0 L 0.0,0.0 z "
         style="fill-rule:evenodd;stroke:#fa9381;stroke-width:1.0pt;fill:#fa9381"
         transform="scale(0.2) rotate(180) translate(6,0)" />
    </marker>
    <marker
       inkscape:stockid="Arrow1Sendn"
       orient="auto"
       refY="0.0"
       refX="0.0"
       id="Arrow1Sendn"
       style="overflow:visible;">
      <path
         id="path5675"
         d="M 0.0,0.0 L 5.0,-5.0 L -12.5,0.0 L 5.0,5.0 L 0.0,0.0 z "
         style="stroke:#fa9381;stroke-width:1.0pt;fill:#fa9381;fill-rule:evenodd"
         transform="scale(0.2) rotate(180) translate(6,0)" />
    </marker>
  </defs>
  <metadata
     id="metadata7">
    <rdf:RDF>
      <cc:Work
         rdf:about="">
        <dc:format>image/svg+xml</dc:format>
        <dc:type
           rdf:resource="http://purl.org/dc/dcmitype/StillImage" />
        <dc:title />
      </cc:Work>
    </rdf:RDF>
  </metadata>
  <g
     style="display:none"
     inkscape:label="Layer#1"
     id="layer6"
     inkscape:groupmode="layer">
    <rect
       transform="matrix(-0.39826655,0.91726973,-0.91726973,-0.39826655,0,0)"
       style="fill:#edfaff;fill-opacity:1;stroke:#1668a3;stroke-width:1.77165353;stroke-linecap:round;stroke-linejoin:round;stroke-miterlimit:4;stroke-opacity:1;stroke-dasharray:none;stroke-dashoffset:0;display:inline"
       id="rect6671"
       width="318"
       height="105"
       x="-63.783329"
       y="-465.59726"
       ry="0" />
    <path
       sodipodi:type="arc"
       style="fill:#edfaff;fill-opacity:1;stroke:#1668a3;stroke-width:1.77165353;stroke-linecap:round;stroke-linejoin:round;stroke-miterlimit:4;stroke-opacity:1;stroke-dasharray:none;stroke-dashoffset:0"
       id="path3008"
       sodipodi:cx="301.18109"
       sodipodi:cy="201.96848"
       sodipodi:rx="230.31496"
       sodipodi:ry="159.40996"
       d="m 531.49605,201.96848 a 230.31496,159.40996 0 1 1 -460.629915,0 230.31496,159.40996 0 1 1 460.629915,0 z"
       transform="translate(156.6204,-61.634882)" />
    <path
       transform="translate(-53.149595,265.74804)"
       d="m 460.62991,201.96848 a 159.44882,106.29922 0 1 1 -318.89764,0 159.44882,106.29922 0 1 1 318.89764,0 z"
       sodipodi:ry="106.29922"
       sodipodi:rx="159.44882"
       sodipodi:cy="201.96848"
       sodipodi:cx="301.18109"
       id="path6563"
       style="fill:#edfaff;fill-opacity:1;stroke:#1668a3;stroke-width:1.77165353;stroke-linecap:round;stroke-linejoin:round;stroke-miterlimit:4;stroke-opacity:1;stroke-dasharray:none;stroke-dashoffset:0"
       sodipodi:type="arc" />
    <g
       ns0:preamble=""
       ns0:text="$S$\n"
       word-spacing="normal"
       letter-spacing="normal"
       font-size-adjust="none"
       font-stretch="normal"
       font-weight="normal"
       font-variant="normal"
       font-style="normal"
       stroke-miterlimit="10.433"
       xml:space="preserve"
       transform="matrix(7.8556059,0,0,-7.8556059,-1518.2311,5575.0833)"
       id="content"
       style="font-style:normal;font-variant:normal;font-weight:normal;font-stretch:normal;letter-spacing:normal;word-spacing:normal;text-anchor:start;fill:#1668a3;fill-opacity:1;stroke:none"><path
         id="path6813"
         d="m 229.85,714.03 0,0 0,0.01 0,0 0,0 0,0.01 0,0 0,0 -0.01,0.01 0,0 0,0.01 0,0 0,0 0,0.01 -0.01,0 0,0.01 0,0 -0.01,0 0,0.01 0,0 -0.01,0 0,0.01 -0.01,0 0,0 -0.01,0.01 0,0 0,0 -0.01,0 0,0 0,0 -0.01,0 0,0 0,0.01 -0.01,0 0,0 0,0 -0.01,0 0,0 -0.01,0 0,0 c -0.05,0 -0.06,-0.01 -0.18,-0.15 l -0.48,-0.57 c -0.26,0.47 -0.77,0.72 -1.42,0.72 -1.26,0 -2.46,-1.14 -2.46,-2.35 0,-0.8 0.53,-1.26 1.04,-1.41 l 1.06,-0.28 c 0.37,-0.08 0.92,-0.23 0.92,-1.05 0,-0.89 -0.82,-1.83 -1.79,-1.83 -0.64,0 -1.74,0.22 -1.74,1.45 0,0.24 0.05,0.48 0.05,0.54 0.02,0.04 0.02,0.05 0.02,0.07 0,0.1 -0.06,0.11 -0.11,0.11 -0.05,0 -0.07,-0.01 -0.1,-0.04 -0.04,-0.04 -0.6,-2.3 -0.6,-2.33 0,-0.06 0.05,-0.1 0.11,-0.1 0.05,0 0.06,0.01 0.18,0.14 l 0.49,0.57 c 0.42,-0.57 1.1,-0.71 1.68,-0.71 1.35,0 2.52,1.32 2.52,2.55 0,0.69 -0.33,1.02 -0.48,1.16 -0.23,0.23 -0.38,0.27 -1.27,0.5 -0.22,0.06 -0.57,0.16 -0.66,0.18 -0.27,0.09 -0.61,0.37 -0.61,0.9 0,0.81 0.8,1.65 1.74,1.65 0.83,0 1.43,-0.43 1.43,-1.54 0,-0.32 -0.04,-0.5 -0.04,-0.56 0,-0.01 0,-0.09 0.12,-0.09 0.1,0 0.11,0.02 0.15,0.19 z"
         inkscape:connector-curvature="0"
         style="fill:#1668a3;fill-opacity:1;stroke:none" /></g>    <g
       style="font-style:normal;font-variant:normal;font-weight:normal;font-stretch:normal;letter-spacing:normal;word-spacing:normal;text-anchor:start;fill:none;stroke:#000000;stroke-linecap:butt;stroke-linejoin:miter;stroke-miterlimit:10.43299961;stroke-opacity:1;stroke-dasharray:none;stroke-dashoffset:0"
       id="g7189"
       transform="matrix(7.0945191,0,0,-7.0945191,-1281.8164,5119.3412)"
       xml:space="preserve"
       stroke-miterlimit="10.433"
       font-style="normal"
       font-variant="normal"
       font-weight="normal"
       font-stretch="normal"
       font-size-adjust="none"
       letter-spacing="normal"
       word-spacing="normal"
       ns0:text="$x$"
       ns0:preamble=""><path
         style="fill:#000000;stroke-width:0"
         inkscape:connector-curvature="0"
         d="m 226.76,710.12 0,0.03 0.01,0.03 0.01,0.03 0.01,0.04 0.01,0.04 0.01,0.04 0.01,0.04 0.02,0.05 0.01,0.04 0.02,0.05 0.02,0.05 0.02,0.05 0.02,0.05 0.03,0.05 0.02,0.05 0.03,0.05 0.03,0.05 0.03,0.04 0.03,0.05 0.04,0.04 0.04,0.05 0.04,0.04 0.04,0.04 0.04,0.03 0.05,0.03 0.05,0.03 0.02,0.01 0.03,0.02 0.02,0.01 0.03,0.01 0.03,0.01 0.03,0 0.03,0.01 0.02,0.01 0.04,0 0.03,0 0.03,0.01 0.03,0 c 0.05,0 0.29,0 0.5,-0.13 -0.28,-0.05 -0.48,-0.3 -0.48,-0.54 0,-0.16 0.11,-0.35 0.38,-0.35 0.22,0 0.54,0.18 0.54,0.58 0,0.52 -0.59,0.66 -0.93,0.66 -0.58,0 -0.93,-0.53 -1.04,-0.76 -0.25,0.66 -0.79,0.76 -1.08,0.76 -1.03,0 -1.6,-1.29 -1.6,-1.53 0,-0.1 0.1,-0.1 0.12,-0.1 0.08,0 0.11,0.02 0.13,0.11 0.34,1.05 0.99,1.3 1.33,1.3 0.19,0 0.54,-0.09 0.54,-0.67 0,-0.31 -0.17,-0.97 -0.54,-2.36 -0.16,-0.62 -0.51,-1.04 -0.94,-1.04 -0.06,0 -0.29,0 -0.5,0.13 0.25,0.05 0.47,0.26 0.47,0.54 0,0.27 -0.22,0.35 -0.37,0.35 -0.3,0 -0.55,-0.26 -0.55,-0.58 0,-0.46 0.5,-0.65 0.94,-0.65 0.65,0 1.01,0.69 1.04,0.75 0.12,-0.37 0.48,-0.75 1.07,-0.75 1.03,0 1.6,1.28 1.6,1.53 0,0.1 -0.09,0.1 -0.12,0.1 -0.09,0 -0.11,-0.05 -0.13,-0.11 -0.33,-1.07 -1.01,-1.31 -1.33,-1.31 -0.38,0 -0.54,0.32 -0.54,0.66 0,0.22 0.06,0.44 0.17,0.87 z"
         id="path7191" /></g>    <path
       transform="matrix(4.3199786,0,0,4.3199786,-1632.7464,-703.12967)"
       d="m 453.54333,193.11021 a 1.7716675,1.7716537 0 1 1 -3.54333,0 1.7716675,1.7716537 0 1 1 3.54333,0 z"
       sodipodi:ry="1.7716537"
       sodipodi:rx="1.7716675"
       sodipodi:cy="193.11021"
       sodipodi:cx="451.77167"
       id="path4956-3"
       style="fill:#000000;fill-opacity:1;stroke:none;display:inline"
       sodipodi:type="arc" />
    <path
       sodipodi:type="arc"
       style="fill:#000000;fill-opacity:1;stroke:none;display:inline"
       id="path6333"
       sodipodi:cx="451.77167"
       sodipodi:cy="193.11021"
       sodipodi:rx="1.7716675"
       sodipodi:ry="1.7716537"
       d="m 453.54333,193.11021 a 1.7716675,1.7716537 0 1 1 -3.54333,0 1.7716675,1.7716537 0 1 1 3.54333,0 z"
       transform="matrix(4.3199786,0,0,4.3199786,-1455.581,-614.547)" />
    <path
       transform="matrix(4.3199786,0,0,4.3199786,-1420.1479,-738.56272)"
       d="m 453.54333,193.11021 a 1.7716675,1.7716537 0 1 1 -3.54333,0 1.7716675,1.7716537 0 1 1 3.54333,0 z"
       sodipodi:ry="1.7716537"
       sodipodi:rx="1.7716675"
       sodipodi:cy="193.11021"
       sodipodi:cx="451.77167"
       id="path6339"
       style="fill:#000000;fill-opacity:1;stroke:none;display:inline"
       sodipodi:type="arc" />
    <path
       sodipodi:type="arc"
       style="fill:#000000;fill-opacity:1;stroke:none;display:inline"
       id="path6359"
       sodipodi:cx="451.77167"
       sodipodi:cy="193.11021"
       sodipodi:rx="1.7716675"
       sodipodi:ry="1.7716537"
       d="m 453.54333,193.11021 a 1.7716675,1.7716537 0 1 1 -3.54333,0 1.7716675,1.7716537 0 1 1 3.54333,0 z"
       transform="matrix(4.3199786,0,0,4.3199786,-1703.6125,-401.94857)" />
    <path
       style="fill:none;stroke:#e83707;stroke-width:5.31496048;stroke-linecap:round;stroke-linejoin:round;stroke-miterlimit:4;stroke-opacity:1;stroke-dasharray:15.94488189, 15.94488189;stroke-dashoffset:0;display:inline"
       d="m 329.27383,-25.604562 c 0,0 79.33263,67.507748 95.55134,114.497477 12.48,36.157725 -3.55696,76.447595 -3.52691,114.698485 0.0394,50.13364 -15.5064,104.5115 4.85872,150.32248 18.54176,41.70935 70.35151,59.1583 98.64132,94.97942 22.50584,28.49735 55.31727,93.84831 55.31727,93.84831"
       id="path9922"
       inkscape:connector-curvature="0"
       sodipodi:nodetypes="caaaac" />
    <g
       id="g3091"
       transform="matrix(7.8556059,0,0,-7.8556059,-1724.8291,5934.1824)"
       xml:space="preserve"
       stroke-miterlimit="10.433"
       font-style="normal"
       font-variant="normal"
       font-weight="normal"
       font-stretch="normal"
       font-size-adjust="none"
       letter-spacing="normal"
       word-spacing="normal"
       ns0:text="$K_i$\n"
       ns0:preamble=""
       style="font-style:normal;font-variant:normal;font-weight:normal;font-stretch:normal;letter-spacing:normal;word-spacing:normal;text-anchor:start;fill:#1668a3;fill-opacity:1;fill-rule:evenodd;stroke:none"><path
         style="fill:#1668a3;fill-opacity:1"
         inkscape:connector-curvature="0"
         d="m 228.5,711.14 -0.01,0 0,0 0,0.01 0,0 0,0.01 0,0 0,0 -0.01,0.01 0,0 0,0.01 0,0 0,0.01 -0.01,0.01 0,0.01 -0.01,0.01 0,0.01 0,0 0,0.01 -0.01,0 0,0.01 0,0 0,0.01 0,0 0,0 0,0.01 0,0 0,0 0,0.01 c 0,0.01 0.18,0.15 0.29,0.23 l 1.74,1.34 c 0.93,0.68 1.32,0.72 1.62,0.75 0.08,0.01 0.18,0.02 0.18,0.2 0,0.04 -0.03,0.11 -0.11,0.11 -0.22,0 -0.47,-0.03 -0.71,-0.03 -0.36,0 -0.75,0.03 -1.1,0.03 -0.07,0 -0.19,0 -0.19,-0.2 0,-0.07 0.05,-0.1 0.12,-0.11 0.22,-0.02 0.31,-0.07 0.31,-0.21 0,-0.18 -0.3,-0.4 -0.36,-0.45 l -3.88,-2.98 0.79,3.19 c 0.09,0.35 0.11,0.45 0.84,0.45 0.25,0 0.34,0 0.34,0.2 0,0.09 -0.08,0.11 -0.14,0.11 -0.28,0 -1,-0.03 -1.28,-0.03 -0.28,0 -0.99,0.03 -1.28,0.03 -0.07,0 -0.2,0 -0.2,-0.19 0,-0.12 0.09,-0.12 0.29,-0.12 0.13,0 0.31,-0.01 0.43,-0.02 0.16,-0.02 0.22,-0.05 0.22,-0.16 0,-0.04 -0.01,-0.07 -0.04,-0.19 l -1.34,-5.33 c -0.09,-0.39 -0.11,-0.47 -0.9,-0.47 -0.17,0 -0.28,0 -0.28,-0.19 0,-0.12 0.12,-0.12 0.15,-0.12 0.28,0 0.98,0.04 1.26,0.04 0.21,0 0.43,-0.01 0.64,-0.01 0.22,0 0.44,-0.03 0.65,-0.03 0.07,0 0.2,0 0.2,0.2 0,0.11 -0.09,0.11 -0.28,0.11 -0.37,0 -0.65,0 -0.65,0.18 0,0.07 0.06,0.29 0.09,0.44 0.14,0.52 0.27,1.04 0.4,1.56 l 1.48,1.15 1.15,-2.67 c 0.12,-0.27 0.12,-0.29 0.12,-0.35 0,-0.3 -0.42,-0.31 -0.51,-0.31 -0.11,0 -0.22,0 -0.22,-0.2 0,-0.11 0.12,-0.11 0.14,-0.11 0.39,0 0.81,0.04 1.21,0.04 0.22,0 0.76,-0.04 0.98,-0.04 0.04,0 0.17,0 0.17,0.2 0,0.11 -0.11,0.11 -0.19,0.11 -0.41,0.01 -0.54,0.1 -0.69,0.45 z"
         id="path3093" /><path
         style="fill:#1668a3;fill-opacity:1"
         inkscape:connector-curvature="0"
         d="m 234.15,709.98 0,0.01 0,0.01 0,0.01 0,0.01 -0.01,0.01 0,0.01 0,0.01 -0.01,0.02 0,0.01 -0.01,0.01 0,0.01 -0.01,0.01 0,0.01 -0.01,0.01 -0.01,0.01 -0.01,0.01 -0.01,0.01 0,0.01 -0.01,0.01 -0.02,0.01 -0.01,0 -0.01,0.01 -0.01,0.01 -0.01,0.01 -0.02,0 -0.01,0.01 -0.02,0 -0.01,0 -0.02,0.01 -0.01,0 -0.02,0 -0.02,0 c -0.19,0 -0.39,-0.18 -0.39,-0.38 0,-0.12 0.09,-0.27 0.28,-0.27 0.2,0 0.39,0.2 0.39,0.39 z"
         id="path3095" /><path
         style="fill:#1668a3;fill-opacity:1"
         inkscape:connector-curvature="0"
         d="m 232.73,706.45 -0.01,-0.02 0,-0.02 -0.01,-0.03 -0.01,-0.02 0,-0.02 -0.01,-0.01 0,-0.02 -0.01,-0.02 0,-0.02 -0.01,-0.02 0,-0.01 0,-0.01 0,-0.01 0,-0.01 0,-0.01 0,-0.02 0,-0.01 0,-0.01 0,-0.01 c 0,-0.32 0.28,-0.59 0.66,-0.59 0.69,0 1,0.96 1,1.06 0,0.1 -0.09,0.1 -0.11,0.1 -0.1,0 -0.1,-0.05 -0.13,-0.12 -0.16,-0.56 -0.47,-0.84 -0.74,-0.84 -0.14,0 -0.18,0.09 -0.18,0.24 0,0.16 0.05,0.29 0.12,0.45 0.07,0.18 0.14,0.37 0.22,0.55 0.06,0.17 0.31,0.8 0.34,0.88 0.02,0.07 0.04,0.16 0.04,0.23 0,0.32 -0.28,0.59 -0.66,0.59 -0.69,0 -1.01,-0.95 -1.01,-1.07 0,-0.09 0.1,-0.09 0.12,-0.09 0.1,0 0.1,0.04 0.12,0.11 0.19,0.6 0.49,0.85 0.75,0.85 0.11,0 0.17,-0.05 0.17,-0.24 0,-0.16 -0.04,-0.27 -0.21,-0.7 z"
         id="path3097" /></g>    <g
       style="font-style:normal;font-variant:normal;font-weight:normal;font-stretch:normal;letter-spacing:normal;word-spacing:normal;text-anchor:start;fill:none;stroke:#000000;stroke-linecap:butt;stroke-linejoin:miter;stroke-miterlimit:10.43299961;stroke-opacity:1;stroke-dasharray:none;stroke-dashoffset:0"
       ns0:preamble=""
       ns0:text="$y$"
       word-spacing="normal"
       letter-spacing="normal"
       font-size-adjust="none"
       font-stretch="normal"
       font-weight="normal"
       font-variant="normal"
       font-style="normal"
       stroke-miterlimit="10.433"
       xml:space="preserve"
       transform="matrix(7.0945191,0,0,-7.0945191,-1036.5774,5080.8613)"
       id="g3921"><path
         id="path3923"
         d="m 228.27,710.91 0,0.01 0,0 0,0.01 0,0 0.01,0.02 0,0.01 0,0.01 0.01,0.01 0,0.01 0,0 0,0.01 0,0.01 0.01,0.01 0,0.01 0,0 0,0.01 0,0 0,0.01 0,0.01 0,0 0,0.01 0,0 0.01,0.01 0,0.01 0,0.01 0,0.01 0,0.01 0,0.01 0,0 0,0.01 c 0,0.18 -0.14,0.27 -0.29,0.27 -0.1,0 -0.26,-0.06 -0.35,-0.21 -0.02,-0.05 -0.1,-0.36 -0.14,-0.54 -0.07,-0.26 -0.14,-0.52 -0.2,-0.79 l -0.45,-1.79 c -0.03,-0.15 -0.46,-0.85 -1.12,-0.85 -0.51,0 -0.62,0.44 -0.62,0.81 0,0.46 0.17,1.07 0.51,1.95 0.16,0.4 0.2,0.51 0.2,0.71 0,0.45 -0.32,0.82 -0.82,0.82 -0.94,0 -1.31,-1.44 -1.31,-1.53 0,-0.1 0.1,-0.1 0.12,-0.1 0.1,0 0.11,0.02 0.16,0.18 0.27,0.93 0.67,1.23 1,1.23 0.08,0 0.25,0 0.25,-0.32 0,-0.25 -0.1,-0.51 -0.17,-0.7 -0.39,-1.05 -0.57,-1.62 -0.57,-2.08 0,-0.89 0.62,-1.18 1.21,-1.18 0.39,0 0.73,0.16 1.01,0.44 -0.13,-0.51 -0.25,-1 -0.65,-1.53 -0.26,-0.34 -0.64,-0.62 -1.1,-0.62 -0.13,0 -0.58,0.03 -0.75,0.41 0.16,0 0.29,0 0.43,0.12 0.1,0.09 0.19,0.22 0.19,0.41 0,0.31 -0.26,0.35 -0.36,0.35 -0.23,0 -0.56,-0.16 -0.56,-0.65 0,-0.49 0.44,-0.86 1.05,-0.86 1.03,0 2.05,0.9 2.33,2.02 z"
         inkscape:connector-curvature="0"
         style="fill:#000000;stroke-width:0" /></g>    <g
       id="g3981"
       transform="matrix(7.0945191,0,0,-7.0945191,-1356.9465,5498.3063)"
       xml:space="preserve"
       stroke-miterlimit="10.433"
       font-style="normal"
       font-variant="normal"
       font-weight="normal"
       font-stretch="normal"
       font-size-adjust="none"
       letter-spacing="normal"
       word-spacing="normal"
       ns0:text="$a_i$"
       ns0:preamble=""
       style="font-style:normal;font-variant:normal;font-weight:normal;font-stretch:normal;letter-spacing:normal;word-spacing:normal;text-anchor:start;fill:none;stroke:#000000;stroke-linecap:butt;stroke-linejoin:miter;stroke-miterlimit:10.43299961;stroke-opacity:1;stroke-dasharray:none;stroke-dashoffset:0"><path
         style="fill:#000000;stroke-width:0"
         inkscape:connector-curvature="0"
         d="m 227.14,710.88 -0.01,0.03 -0.02,0.04 -0.02,0.03 -0.02,0.03 -0.02,0.03 -0.02,0.03 -0.02,0.03 -0.02,0.03 -0.03,0.03 -0.02,0.03 -0.02,0.03 -0.03,0.02 -0.02,0.03 -0.03,0.02 -0.03,0.02 -0.02,0.03 -0.03,0.02 -0.03,0.02 -0.03,0.01 -0.03,0.02 -0.04,0.02 -0.03,0.01 -0.03,0.02 -0.04,0.01 -0.03,0.01 -0.04,0.01 -0.03,0.01 -0.04,0 -0.04,0.01 -0.04,0 -0.04,0.01 -0.04,0 c -1.17,0 -2.4,-1.47 -2.4,-2.92 0,-0.93 0.55,-1.58 1.32,-1.58 l 0.02,0.21 c -0.49,0 -0.63,0.55 -0.63,0.94 0,0.49 0.31,1.72 0.54,2.17 0.31,0.59 0.76,0.96 1.16,0.96 0.64,0 0.78,-0.82 0.78,-0.88 0,-0.06 -0.02,-0.12 -0.03,-0.17 l -0.49,-1.94 c -0.05,-0.18 -0.05,-0.2 -0.2,-0.37 -0.44,-0.55 -0.85,-0.71 -1.13,-0.71 l -0.02,-0.21 c 0.2,0 0.7,0.03 1.3,0.74 0.08,-0.42 0.42,-0.74 0.9,-0.74 0.35,0 0.58,0.22 0.74,0.54 0.17,0.36 0.3,0.97 0.3,0.99 0,0.1 -0.09,0.1 -0.12,0.1 -0.1,0 -0.11,-0.05 -0.14,-0.18 -0.17,-0.65 -0.35,-1.24 -0.76,-1.24 -0.27,0 -0.3,0.26 -0.3,0.46 0,0.22 0.02,0.3 0.13,0.74 0.11,0.41 0.13,0.51 0.22,0.89 l 0.36,1.39 c 0.07,0.28 0.07,0.3 0.07,0.34 0,0.17 -0.12,0.27 -0.29,0.27 -0.24,0 -0.39,-0.22 -0.42,-0.44 z"
         id="path3983" /><path
         style="fill:#000000;stroke-width:0"
         inkscape:connector-curvature="0"
         d="m 230.95,709.98 0,0.01 0,0.01 0,0.01 0,0.01 0,0.01 0,0.01 -0.01,0.01 0,0.02 -0.01,0.01 0,0.01 -0.01,0.01 0,0.01 -0.01,0.01 -0.01,0.01 0,0.01 -0.01,0.01 -0.01,0.01 -0.01,0.01 -0.01,0.01 -0.01,0.01 -0.01,0 -0.01,0.01 -0.02,0.01 -0.01,0.01 -0.01,0 -0.02,0.01 -0.01,0 -0.02,0 -0.01,0.01 -0.02,0 -0.02,0 -0.01,0 c -0.19,0 -0.39,-0.18 -0.39,-0.38 0,-0.12 0.09,-0.27 0.27,-0.27 0.21,0 0.39,0.2 0.39,0.39 z"
         id="path3985" /><path
         style="fill:#000000;stroke-width:0"
         inkscape:connector-curvature="0"
         d="m 229.53,706.45 0,-0.02 -0.01,-0.02 -0.01,-0.03 0,-0.02 -0.01,-0.02 0,-0.01 -0.01,-0.02 0,-0.02 -0.01,-0.02 0,-0.02 0,-0.01 0,-0.01 -0.01,-0.01 0,-0.01 0,-0.01 0,-0.02 0,-0.01 0,-0.01 0,-0.01 c 0,-0.32 0.28,-0.59 0.66,-0.59 0.7,0 1.01,0.96 1.01,1.06 0,0.1 -0.1,0.1 -0.12,0.1 -0.09,0 -0.1,-0.05 -0.13,-0.12 -0.16,-0.56 -0.46,-0.84 -0.74,-0.84 -0.14,0 -0.17,0.09 -0.17,0.24 0,0.16 0.05,0.29 0.11,0.45 0.07,0.18 0.15,0.37 0.22,0.55 0.07,0.17 0.32,0.8 0.34,0.88 0.03,0.07 0.05,0.16 0.05,0.23 0,0.32 -0.28,0.59 -0.66,0.59 -0.69,0 -1.02,-0.95 -1.02,-1.07 0,-0.09 0.1,-0.09 0.12,-0.09 0.1,0 0.11,0.04 0.13,0.11 0.18,0.6 0.49,0.85 0.74,0.85 0.12,0 0.18,-0.05 0.18,-0.24 0,-0.16 -0.04,-0.27 -0.22,-0.7 z"
         id="path3987" /></g>    <g
       style="font-style:normal;font-variant:normal;font-weight:normal;font-stretch:normal;letter-spacing:normal;word-spacing:normal;text-anchor:start;fill:none;stroke:#000000;stroke-linecap:butt;stroke-linejoin:miter;stroke-miterlimit:10.43299961;stroke-opacity:1;stroke-dasharray:none;stroke-dashoffset:0"
       ns0:preamble=""
       ns0:text="$s_i$"
       word-spacing="normal"
       letter-spacing="normal"
       font-size-adjust="none"
       font-stretch="normal"
       font-weight="normal"
       font-variant="normal"
       font-style="normal"
       stroke-miterlimit="10.433"
       xml:space="preserve"
       transform="matrix(7.0945191,0,0,-7.0945191,-1069.6844,5267.3917)"
       id="g4057"><path
         id="path4059"
         d="m 227.32,710.84 -0.02,0 -0.03,0 -0.02,-0.01 -0.03,0 -0.02,-0.01 -0.03,-0.01 -0.02,0 -0.02,-0.01 -0.02,-0.01 -0.02,-0.01 -0.02,-0.02 -0.02,-0.01 -0.02,-0.01 -0.02,-0.02 -0.01,-0.01 -0.02,-0.02 -0.02,-0.01 -0.01,-0.02 -0.01,-0.01 -0.02,-0.02 -0.01,-0.02 -0.01,-0.02 -0.01,-0.02 -0.01,-0.02 -0.01,-0.02 0,-0.02 -0.01,-0.02 -0.01,-0.02 0,-0.02 0,-0.02 0,-0.02 0,-0.02 c 0,-0.14 0.08,-0.29 0.3,-0.29 0.22,0 0.46,0.17 0.46,0.56 0,0.45 -0.43,0.86 -1.18,0.86 -1.32,0 -1.69,-1.02 -1.69,-1.45 0,-0.78 0.74,-0.93 1.03,-0.99 0.52,-0.1 1.03,-0.21 1.03,-0.75 0,-0.26 -0.22,-1.1 -1.42,-1.1 -0.14,0 -0.9,0 -1.13,0.53 0.38,-0.05 0.63,0.25 0.63,0.53 0,0.23 -0.17,0.35 -0.37,0.35 -0.26,0 -0.56,-0.21 -0.56,-0.66 0,-0.57 0.57,-0.96 1.42,-0.96 1.61,0 2,1.2 2,1.64 0,0.36 -0.19,0.61 -0.31,0.73 -0.27,0.28 -0.55,0.33 -0.99,0.42 -0.36,0.08 -0.76,0.15 -0.76,0.59 0,0.29 0.24,0.9 1.12,0.9 0.25,0 0.74,-0.07 0.89,-0.46 z"
         inkscape:connector-curvature="0"
         style="fill:#000000;stroke-width:0" /><path
         id="path4061"
         d="m 230.36,709.98 0,0.01 0,0.01 0,0.01 -0.01,0.01 0,0.01 0,0.01 0,0.01 -0.01,0.02 0,0.01 -0.01,0.01 0,0.01 -0.01,0.01 -0.01,0.01 0,0.01 -0.01,0.01 -0.01,0.01 -0.01,0.01 -0.01,0.01 -0.01,0.01 -0.01,0.01 -0.01,0 -0.01,0.01 -0.01,0.01 -0.01,0.01 -0.02,0 -0.01,0.01 -0.02,0 -0.01,0 -0.02,0.01 -0.01,0 -0.02,0 -0.02,0 c -0.19,0 -0.39,-0.18 -0.39,-0.38 0,-0.12 0.09,-0.27 0.28,-0.27 0.2,0 0.39,0.2 0.39,0.39 z"
         inkscape:connector-curvature="0"
         style="fill:#000000;stroke-width:0" /><path
         id="path4063"
         d="m 228.94,706.45 -0.01,-0.02 0,-0.02 -0.01,-0.03 -0.01,-0.02 0,-0.02 -0.01,-0.01 0,-0.02 -0.01,-0.02 0,-0.02 -0.01,-0.02 0,-0.01 0,-0.01 0,-0.01 0,-0.01 0,-0.01 0,-0.02 0,-0.01 0,-0.01 0,-0.01 c 0,-0.32 0.27,-0.59 0.66,-0.59 0.69,0 1,0.96 1,1.06 0,0.1 -0.09,0.1 -0.11,0.1 -0.1,0 -0.11,-0.05 -0.13,-0.12 -0.16,-0.56 -0.47,-0.84 -0.74,-0.84 -0.14,0 -0.18,0.09 -0.18,0.24 0,0.16 0.05,0.29 0.11,0.45 0.08,0.18 0.15,0.37 0.23,0.55 0.06,0.17 0.31,0.8 0.34,0.88 0.02,0.07 0.04,0.16 0.04,0.23 0,0.32 -0.28,0.59 -0.66,0.59 -0.69,0 -1.01,-0.95 -1.01,-1.07 0,-0.09 0.1,-0.09 0.12,-0.09 0.1,0 0.1,0.04 0.12,0.11 0.18,0.6 0.49,0.85 0.75,0.85 0.11,0 0.17,-0.05 0.17,-0.24 0,-0.16 -0.04,-0.27 -0.21,-0.7 z"
         inkscape:connector-curvature="0"
         style="fill:#000000;stroke-width:0" /></g>  </g>
  <g
     inkscape:groupmode="layer"
     id="layer1"
     inkscape:label="Layer">
    <path
       sodipodi:nodetypes="ccc"
       inkscape:connector-curvature="0"
       id="path5467"
       d="M 1160.4488,524.87557 1125.0157,409.71809 1089.5826,294.56061"
       style="fill:none;stroke:#fa9381;stroke-width:10.62992096;stroke-linecap:round;stroke-linejoin:round;stroke-miterlimit:4;stroke-opacity:1;stroke-dasharray:none;stroke-dashoffset:0;marker-mid:url(#Arrow1Sendn)" />
    <path
       sodipodi:nodetypes="csc"
       inkscape:connector-curvature="0"
       id="path5279"
       d="m 1426.1968,578.02517 c -40.7442,-28.95846 -84.0267,-43.53346 -128.7004,-50.22504 -44.6737,-6.69159 -90.7386,-5.49976 -137.0476,-2.92456"
       style="fill:none;stroke:#fa9381;stroke-width:10.62992096;stroke-linecap:round;stroke-linejoin:round;stroke-miterlimit:4;stroke-opacity:1;stroke-dasharray:none;stroke-dashoffset:0;marker-mid:url(#Arrow1Sendh)" />
    <path
       sodipodi:nodetypes="csc"
       inkscape:connector-curvature="0"
       id="path5091"
       d="m 1691.9448,436.29289 c -49.6363,15.15922 -96.9085,34.06153 -141.354,57.43941 -44.4456,23.37788 -86.0644,51.23134 -124.394,84.29287"
       style="fill:none;stroke:#fa9381;stroke-width:10.62992096;stroke-linecap:round;stroke-linejoin:round;stroke-miterlimit:4;stroke-opacity:1;stroke-dasharray:none;stroke-dashoffset:0;marker-mid:url(#Arrow1Send0)" />
    <path
       style="fill:none;stroke:#fa9381;stroke-width:10.62992096;stroke-linecap:round;stroke-linejoin:round;stroke-miterlimit:4;stroke-opacity:1;stroke-dasharray:none;stroke-dashoffset:0;marker-mid:url(#Arrow1Sendp2)"
       d="M 1461.6299,276.84407 1311.0394,400.85982 1160.4488,524.87557"
       id="path4028"
       inkscape:connector-curvature="0"
       sodipodi:nodetypes="ccc" />
    <path
       style="fill:none;stroke:#000000;stroke-width:1.77165353;stroke-linecap:round;stroke-linejoin:round;stroke-miterlimit:4;stroke-opacity:1;stroke-dasharray:none;stroke-dashoffset:0"
       d="m 1160.4488,524.87557 c 117.8961,-11.1799 204.2941,9.83607 265.748,53.1496 -103.7335,10.69125 -192.1843,-7.27253 -265.748,-53.1496 z"
       id="path4020"
       inkscape:connector-curvature="0"
       sodipodi:nodetypes="ccc" />
    <path
       style="fill:none;stroke:#000000;stroke-width:1.77165353;stroke-linecap:round;stroke-linejoin:round;stroke-miterlimit:4;stroke-opacity:1;stroke-dasharray:none;stroke-dashoffset:0"
       d="m 1426.1968,578.02517 c 119.2192,-5.22655 197.1741,-67.61063 265.748,-141.73228 -99.8786,32.72071 -192.1574,75.21265 -265.748,141.73228 z"
       id="path4022"
       inkscape:connector-curvature="0"
       sodipodi:nodetypes="ccc" />
    <path
       style="fill:none;stroke:#000000;stroke-width:1.77165353;stroke-linecap:round;stroke-linejoin:round;stroke-miterlimit:4;stroke-opacity:1;stroke-dasharray:none;stroke-dashoffset:0"
       d="m 1461.6299,276.84407 c 34.3744,74.40192 83.5116,145.0974 230.3149,159.44882 -70.4482,-120.73358 -150.4735,-141.26442 -230.3149,-159.44882 z"
       id="path4024"
       inkscape:connector-curvature="0"
       sodipodi:nodetypes="ccc" />
    <path
       style="fill:none;stroke:#000000;stroke-width:1.77165353;stroke-linecap:round;stroke-linejoin:round;stroke-miterlimit:4;stroke-opacity:1;stroke-dasharray:none;stroke-dashoffset:0"
       d="m 1089.5826,294.56061 70.8662,230.31496"
       id="path4018"
       inkscape:connector-curvature="0" />
    <path
       style="fill:none;stroke:#000000;stroke-width:1.77165353;stroke-linecap:round;stroke-linejoin:round;stroke-miterlimit:4;stroke-opacity:1;stroke-dasharray:none;stroke-dashoffset:0"
       d="M 1691.9448,436.29289 1461.6299,276.84407 1160.4488,524.87557"
       id="path4026"
       inkscape:connector-curvature="0" />
    <rect
       ry="48.657402"
       y="76.098099"
       x="-66.268372"
       height="269.12708"
       width="145.47032"
       id="rect4004"
       style="fill:#f9f2ad;fill-opacity:1;stroke:none;display:inline"
       transform="matrix(0.94086112,0.33879249,-0.33879249,0.94086112,0,0)" />
    <rect
       style="fill:#f9f2ad;fill-opacity:1;stroke:none;display:inline"
       id="rect4002"
       width="201.30258"
       height="356.37961"
       x="-93.244812"
       y="377.80679"
       ry="48.657402" />
    <path
       style="fill:none;stroke:#fa9381;stroke-width:10.62992096;stroke-linecap:round;stroke-linejoin:round;stroke-miterlimit:4;stroke-opacity:1;stroke-dasharray:none;stroke-dashoffset:0"
       d="M -53.149606,520.86612 -70.866142,308.26769"
       id="path7102"
       inkscape:connector-curvature="0" />
    <rect
       ry="48.657402"
       y="415.37183"
       x="168.60567"
       height="304.45142"
       width="117.33355"
       id="rect4000"
       style="fill:#f9f2ad;fill-opacity:1;stroke:none;display:inline" />
    <path
       style="fill:none;stroke:#fa9381;stroke-width:10.62992096;stroke-linecap:round;stroke-linejoin:round;stroke-miterlimit:4;stroke-opacity:1;stroke-dasharray:none;stroke-dashoffset:0"
       d="M 230.31496,467.71651 70.866142,414.56691"
       id="path7106"
       inkscape:connector-curvature="0" />
    <rect
       ry="48.657402"
       y="538.65063"
       x="59.403801"
       height="229.11208"
       width="440.71204"
       id="rect3998"
       style="fill:#f9f2ad;fill-opacity:1;stroke:none;display:inline"
       transform="matrix(0.81988454,-0.5725289,0.5725289,0.81988454,0,0)" />
    <path
       style="fill:none;stroke:#fa9381;stroke-width:10.62992096;stroke-linecap:round;stroke-linejoin:round;stroke-miterlimit:4;stroke-opacity:1;stroke-dasharray:none;stroke-dashoffset:0"
       d="M 442.91339,467.71651 230.31496,662.5984"
       id="path7108"
       inkscape:connector-curvature="0" />
    <rect
       style="fill:#f9f2ad;fill-opacity:1;stroke:none;display:inline"
       id="rect13237"
       width="349.35297"
       height="201.70001"
       x="126.62121"
       y="102.69803"
       ry="48.657402" />
    <path
       style="fill:none;stroke:#fa9381;stroke-width:10.62992096;stroke-linecap:round;stroke-linejoin:round;stroke-miterlimit:4;stroke-opacity:1;stroke-dasharray:none;stroke-dashoffset:0"
       d="M 230.31496,272.83462 70.866142,414.56691"
       id="path7104"
       inkscape:connector-curvature="0" />
    <path
       transform="matrix(4.3199786,0,0,4.3199786,-1774.4786,-649.98005)"
       d="m 453.54333,193.11021 a 1.7716675,1.7716537 0 1 1 -3.54333,0 1.7716675,1.7716537 0 1 1 3.54333,0 z"
       sodipodi:ry="1.7716537"
       sodipodi:rx="1.7716675"
       sodipodi:cy="193.11021"
       sodipodi:cx="451.77167"
       id="path4956-3-8"
       style="fill:#000000;fill-opacity:1;stroke:none;display:inline"
       sodipodi:type="arc" />
    <path
       sodipodi:type="arc"
       style="fill:#000000;fill-opacity:1;stroke:none;display:inline"
       id="path3826"
       sodipodi:cx="451.77167"
       sodipodi:cy="193.11021"
       sodipodi:rx="1.7716675"
       sodipodi:ry="1.7716537"
       d="m 453.54333,193.11021 a 1.7716675,1.7716537 0 1 1 -3.54333,0 1.7716675,1.7716537 0 1 1 3.54333,0 z"
       transform="matrix(4.3199786,0,0,4.3199786,-1721.329,-561.39737)" />
    <path
       transform="matrix(4.3199786,0,0,4.3199786,-1526.4471,-437.38162)"
       d="m 453.54333,193.11021 a 1.7716675,1.7716537 0 1 1 -3.54333,0 1.7716675,1.7716537 0 1 1 3.54333,0 z"
       sodipodi:ry="1.7716537"
       sodipodi:rx="1.7716675"
       sodipodi:cy="193.11021"
       sodipodi:cx="451.77167"
       id="path3828"
       style="fill:#000000;fill-opacity:1;stroke:none;display:inline"
       sodipodi:type="arc" />
    <path
       sodipodi:type="arc"
       style="fill:#000000;fill-opacity:1;stroke:none;display:inline"
       id="path3830"
       sodipodi:cx="451.77167"
       sodipodi:cy="193.11021"
       sodipodi:rx="1.7716675"
       sodipodi:ry="1.7716537"
       d="m 453.54333,193.11021 a 1.7716675,1.7716537 0 1 1 -3.54333,0 1.7716675,1.7716537 0 1 1 3.54333,0 z"
       transform="matrix(4.3199786,0,0,4.3199786,-1880.7778,-419.66509)" />
    <path
       transform="matrix(4.3199786,0,0,4.3199786,-1526.4471,-632.26351)"
       d="m 453.54333,193.11021 a 1.7716675,1.7716537 0 1 1 -3.54333,0 1.7716675,1.7716537 0 1 1 3.54333,0 z"
       sodipodi:ry="1.7716537"
       sodipodi:rx="1.7716675"
       sodipodi:cy="193.11021"
       sodipodi:cx="451.77167"
       id="path3832"
       style="fill:#000000;fill-opacity:1;stroke:none;display:inline"
       sodipodi:type="arc" />
    <path
       sodipodi:type="arc"
       style="fill:#000000;fill-opacity:1;stroke:none;display:inline"
       id="path3834"
       sodipodi:cx="451.77167"
       sodipodi:cy="193.11021"
       sodipodi:rx="1.7716675"
       sodipodi:ry="1.7716537"
       d="m 453.54333,193.11021 a 1.7716675,1.7716537 0 1 1 -3.54333,0 1.7716675,1.7716537 0 1 1 3.54333,0 z"
       transform="matrix(4.3199786,0,0,4.3199786,-1278.4156,-596.83044)" />
    <path
       style="fill:none;stroke:#000000;stroke-width:1.77165353;stroke-linecap:round;stroke-linejoin:round;stroke-miterlimit:4;stroke-opacity:1;stroke-dasharray:none;stroke-dashoffset:0"
       d="M 70.866142,414.56691 230.31496,272.83462 177.16535,184.25195"
       id="path3838"
       inkscape:connector-curvature="0" />
    <path
       style="fill:none;stroke:#000000;stroke-width:1.77165353;stroke-linecap:round;stroke-linejoin:round;stroke-miterlimit:4;stroke-opacity:1;stroke-dasharray:none;stroke-dashoffset:0"
       d="m 230.31496,272.83462 194.88189,124.01575 0,-194.88189 248.0315,35.43307"
       id="path3840"
       inkscape:connector-curvature="0" />
    <path
       transform="matrix(4.3199786,0,0,4.3199786,-2004.7935,-313.36587)"
       d="m 453.54333,193.11021 a 1.7716675,1.7716537 0 1 1 -3.54333,0 1.7716675,1.7716537 0 1 1 3.54333,0 z"
       sodipodi:ry="1.7716537"
       sodipodi:rx="1.7716675"
       sodipodi:cy="193.11021"
       sodipodi:cx="451.77167"
       id="path3975"
       style="fill:#000000;fill-opacity:1;stroke:none;display:inline"
       sodipodi:type="arc" />
    <path
       sodipodi:type="arc"
       style="fill:#000000;fill-opacity:1;stroke:none;display:inline"
       id="path3977"
       sodipodi:cx="451.77167"
       sodipodi:cy="193.11021"
       sodipodi:rx="1.7716675"
       sodipodi:ry="1.7716537"
       d="m 453.54333,193.11021 a 1.7716675,1.7716537 0 1 1 -3.54333,0 1.7716675,1.7716537 0 1 1 3.54333,0 z"
       transform="matrix(4.3199786,0,0,4.3199786,-1898.4943,-242.49973)" />
    <path
       transform="matrix(4.3199786,0,0,4.3199786,-1721.329,-366.51548)"
       d="m 453.54333,193.11021 a 1.7716675,1.7716537 0 1 1 -3.54333,0 1.7716675,1.7716537 0 1 1 3.54333,0 z"
       sodipodi:ry="1.7716537"
       sodipodi:rx="1.7716675"
       sodipodi:cy="193.11021"
       sodipodi:cx="451.77167"
       id="path3979"
       style="fill:#000000;fill-opacity:1;stroke:none;display:inline"
       sodipodi:type="arc" />
    <path
       sodipodi:type="arc"
       style="fill:#000000;fill-opacity:1;stroke:none;display:inline"
       id="path3981"
       sodipodi:cx="451.77167"
       sodipodi:cy="193.11021"
       sodipodi:rx="1.7716675"
       sodipodi:ry="1.7716537"
       d="m 453.54333,193.11021 a 1.7716675,1.7716537 0 1 1 -3.54333,0 1.7716675,1.7716537 0 1 1 3.54333,0 z"
       transform="matrix(4.3199786,0,0,4.3199786,-1508.7305,-366.51548)" />
    <path
       sodipodi:type="arc"
       style="fill:#000000;fill-opacity:1;stroke:none;display:inline"
       id="path3984"
       sodipodi:cx="451.77167"
       sodipodi:cy="193.11021"
       sodipodi:rx="1.7716675"
       sodipodi:ry="1.7716537"
       d="m 453.54333,193.11021 a 1.7716675,1.7716537 0 1 1 -3.54333,0 1.7716675,1.7716537 0 1 1 3.54333,0 z"
       transform="matrix(4.3199786,0,0,4.3199786,-1721.329,-171.63359)" />
    <path
       transform="matrix(4.3199786,0,0,4.3199786,-1313.8487,-419.66509)"
       d="m 453.54333,193.11021 a 1.7716675,1.7716537 0 1 1 -3.54333,0 1.7716675,1.7716537 0 1 1 3.54333,0 z"
       sodipodi:ry="1.7716537"
       sodipodi:rx="1.7716675"
       sodipodi:cy="193.11021"
       sodipodi:cx="451.77167"
       id="path3986"
       style="fill:#000000;fill-opacity:1;stroke:none;display:inline"
       sodipodi:type="arc" />
    <path
       style="fill:none;stroke:#000000;stroke-width:1.77165353;stroke-linecap:round;stroke-linejoin:round;stroke-miterlimit:4;stroke-opacity:1;stroke-dasharray:none;stroke-dashoffset:0"
       d="m 637.79528,414.56691 -194.88189,53.1496"
       id="path3988"
       inkscape:connector-curvature="0" />
    <path
       style="fill:none;stroke:#000000;stroke-width:1.77165353;stroke-linecap:round;stroke-linejoin:round;stroke-miterlimit:4;stroke-opacity:1;stroke-dasharray:none;stroke-dashoffset:0"
       d="m 70.866142,414.56691 159.448818,53.1496 212.59843,0 L 230.31496,662.5984 53.149606,591.73226"
       id="path3990"
       inkscape:connector-curvature="0" />
    <path
       style="fill:none;stroke:#000000;stroke-width:1.77165353;stroke-linecap:round;stroke-linejoin:round;stroke-miterlimit:4;stroke-opacity:1;stroke-dasharray:none;stroke-dashoffset:0"
       d="M 70.866142,414.56691 -53.149606,520.86612 -70.866142,308.26769 0,131.10234"
       id="path3992"
       inkscape:connector-curvature="0"
       sodipodi:nodetypes="cccc" />
    <path
       transform="matrix(4.3199786,0,0,4.3199786,-2022.5101,-525.9643)"
       d="m 453.54333,193.11021 a 1.7716675,1.7716537 0 1 1 -3.54333,0 1.7716675,1.7716537 0 1 1 3.54333,0 z"
       sodipodi:ry="1.7716537"
       sodipodi:rx="1.7716675"
       sodipodi:cy="193.11021"
       sodipodi:cx="451.77167"
       id="path3994"
       style="fill:#000000;fill-opacity:1;stroke:none;display:inline"
       sodipodi:type="arc" />
    <path
       sodipodi:type="arc"
       style="fill:#000000;fill-opacity:1;stroke:none;display:inline"
       id="path3996"
       sodipodi:cx="451.77167"
       sodipodi:cy="193.11021"
       sodipodi:rx="1.7716675"
       sodipodi:ry="1.7716537"
       d="m 453.54333,193.11021 a 1.7716675,1.7716537 0 1 1 -3.54333,0 1.7716675,1.7716537 0 1 1 3.54333,0 z"
       transform="matrix(4.3199786,0,0,4.3199786,-1951.6439,-703.12965)" />
    <rect
       style="fill:#f9f2ad;fill-opacity:1;stroke:#000000;stroke-width:1.77165353;stroke-linecap:round;stroke-linejoin:round;stroke-miterlimit:4;stroke-opacity:1;stroke-dasharray:none;stroke-dashoffset:0"
       id="rect4008"
       width="35.433064"
       height="35.433064"
       x="1071.8661"
       y="276.84409"
       ry="0" />
    <rect
       ry="0"
       y="259.12753"
       x="1443.9133"
       height="35.433064"
       width="35.433064"
       id="rect4010"
       style="fill:#f9f2ad;fill-opacity:1;stroke:#000000;stroke-width:1.77165353;stroke-linecap:round;stroke-linejoin:round;stroke-miterlimit:4;stroke-opacity:1;stroke-dasharray:none;stroke-dashoffset:0" />
    <rect
       style="fill:#f9f2ad;fill-opacity:1;stroke:#000000;stroke-width:1.77165353;stroke-linecap:round;stroke-linejoin:round;stroke-miterlimit:4;stroke-opacity:1;stroke-dasharray:none;stroke-dashoffset:0"
       id="rect4012"
       width="35.433064"
       height="35.433064"
       x="1674.2283"
       y="418.57635"
       ry="0" />
    <rect
       ry="0"
       y="560.30865"
       x="1408.4802"
       height="35.433064"
       width="35.433064"
       id="rect4014"
       style="fill:#f9f2ad;fill-opacity:1;stroke:#000000;stroke-width:1.77165353;stroke-linecap:round;stroke-linejoin:round;stroke-miterlimit:4;stroke-opacity:1;stroke-dasharray:none;stroke-dashoffset:0" />
    <rect
       style="fill:#f9f2ad;fill-opacity:1;stroke:#000000;stroke-width:1.77165353;stroke-linecap:round;stroke-linejoin:round;stroke-miterlimit:4;stroke-opacity:1;stroke-dasharray:none;stroke-dashoffset:0"
       id="rect4016"
       width="35.433064"
       height="35.433064"
       x="1142.7322"
       y="507.15903"
       ry="0" />
    <g
       style="font-style:normal;font-variant:normal;font-weight:normal;font-stretch:normal;letter-spacing:normal;word-spacing:normal;text-anchor:start;fill:none;stroke:#000000;stroke-linecap:butt;stroke-linejoin:miter;stroke-miterlimit:10.43299961;stroke-opacity:1;stroke-dasharray:none;stroke-dashoffset:0"
       id="g5912"
       transform="matrix(6.702474,0,0,-6.702474,-1229.4676,4928.3738)"
       xml:space="preserve"
       stroke-miterlimit="10.433"
       font-style="normal"
       font-variant="normal"
       font-weight="normal"
       font-stretch="normal"
       font-size-adjust="none"
       letter-spacing="normal"
       word-spacing="normal"
       ns0:text="$C_1$"
       ns0:preamble=""><path
         style="fill:#000000;stroke-width:0"
         inkscape:connector-curvature="0"
         d="m 230.99,714.03 0,0 0,0.01 0,0 0,0 0,0.01 0,0 0,0 0,0.01 0,0 0,0.01 -0.01,0 0,0 0,0.01 0,0 -0.01,0.01 0,0 0,0 0,0.01 -0.01,0 0,0 -0.01,0.01 0,0 -0.01,0 0,0.01 -0.01,0 0,0 0,0 -0.01,0 0,0 0,0 -0.01,0 0,0.01 0,0 -0.01,0 0,0 0,0 -0.01,0 0,0 -0.01,0 c -0.03,0 -0.04,-0.01 -0.14,-0.12 l -0.7,-0.77 c -0.09,0.14 -0.55,0.89 -1.65,0.89 -2.22,0 -4.46,-2.2 -4.46,-4.5 0,-1.64 1.17,-2.72 2.7,-2.72 0.86,0 1.62,0.39 2.14,0.85 0.93,0.82 1.1,1.72 1.1,1.75 0,0.1 -0.1,0.1 -0.12,0.1 -0.06,0 -0.11,-0.02 -0.13,-0.1 -0.09,-0.29 -0.32,-0.99 -1,-1.57 -0.69,-0.56 -1.32,-0.73 -1.83,-0.73 -0.9,0 -1.95,0.52 -1.95,2.07 0,0.57 0.2,2.18 1.2,3.34 0.61,0.7 1.54,1.2 2.43,1.2 1.01,0 1.6,-0.77 1.6,-1.92 0,-0.39 -0.03,-0.4 -0.03,-0.5 0,-0.1 0.11,-0.1 0.15,-0.1 0.13,0 0.13,0.02 0.18,0.2 z"
         id="path5914" /><path
         style="fill:#000000;stroke-width:0"
         inkscape:connector-curvature="0"
         d="m 232.89,710.05 0,0.01 0,0.01 0,0.01 0,0.01 0,0 0,0.01 0,0.01 0,0.01 -0.01,0 0,0.01 0,0.01 0,0 0,0.01 0,0 0,0.01 0,0 0,0.01 0,0 0,0.01 -0.01,0.01 0,0.01 0,0 -0.01,0.01 0,0.01 -0.01,0 0,0.01 -0.01,0 0,0 -0.01,0.01 -0.01,0 -0.01,0 -0.01,0 0,0 -0.01,0 0,0 -0.01,0.01 -0.01,0 0,0 -0.01,0 0,0 -0.01,0 -0.01,0 -0.01,0 0,0 -0.01,0 -0.01,0 -0.01,0 -0.01,0 0,0 -0.01,0 c -0.45,-0.44 -1.08,-0.45 -1.37,-0.45 v -0.25 c 0.17,0 0.63,0 1.01,0.2 v -3.55 c 0,-0.23 0,-0.32 -0.69,-0.32 h -0.27 v -0.25 c 0.13,0.01 0.98,0.03 1.24,0.03 0.22,0 1.09,-0.02 1.25,-0.03 v 0.25 h -0.27 c -0.69,0 -0.69,0.09 -0.69,0.32 z"
         id="path5916" /></g>    <g
       style="font-style:normal;font-variant:normal;font-weight:normal;font-stretch:normal;letter-spacing:normal;word-spacing:normal;text-anchor:start;fill:none;stroke:#000000;stroke-linecap:butt;stroke-linejoin:miter;stroke-miterlimit:10.43299961;stroke-opacity:1;stroke-dasharray:none;stroke-dashoffset:0"
       ns0:preamble=""
       ns0:text="$C_2$"
       text-anchor="start"
       word-spacing="normal"
       letter-spacing="normal"
       font-size-adjust="none"
       font-stretch="normal"
       font-weight="normal"
       font-variant="normal"
       font-style="normal"
       fill-opacity="1"
       fill-rule="evenodd"
       fill="none"
       stroke-opacity="1"
       stroke-dashoffset="0"
       stroke-dasharray="none"
       stroke-miterlimit="10.433"
       stroke-linejoin="miter"
       stroke-linecap="butt"
       stroke="black"
       xml:space="preserve"
       transform="matrix(6.702474,0,0,-6.702474,-829.24516,5083.9373)"
       id="g6125"><path
         id="path6127"
         fill="black"
         stroke-width="0"
         d="M230.99,714.03 L230.99,714.03 L230.99,714.04 L230.99,714.04 L230.99,714.04 L230.99,714.05 L230.99,714.05 L230.99,714.05 L230.99,714.06 L230.99,714.06 L230.99,714.07 L230.98,714.07 L230.98,714.07 L230.98,714.08 L230.98,714.08 L230.97,714.09 L230.97,714.09 L230.97,714.09 L230.97,714.1 L230.96,714.1 L230.96,714.1 L230.95,714.11 L230.95,714.11 L230.94,714.11 L230.94,714.12 L230.93,714.12 L230.93,714.12 L230.93,714.12 L230.92,714.12 L230.92,714.12 L230.92,714.12 L230.91,714.12 L230.91,714.13 L230.91,714.13 L230.9,714.13 L230.9,714.13 L230.9,714.13 L230.89,714.13 L230.89,714.13 L230.88,714.13 C230.85,714.13,230.84,714.12,230.74,714.01 L230.04,713.24 C229.95,713.38,229.49,714.13,228.39,714.13 C226.17,714.13,223.93,711.93,223.93,709.63 C223.93,707.99,225.1,706.91,226.63,706.91 C227.49,706.91,228.25,707.3,228.77,707.76 C229.7,708.58,229.87,709.48,229.87,709.51 C229.87,709.61,229.77,709.61,229.75,709.61 C229.69,709.61,229.64,709.59,229.62,709.51 C229.53,709.22,229.3,708.52,228.62,707.94 C227.93,707.38,227.3,707.21,226.79,707.21 C225.89,707.21,224.84,707.73,224.84,709.28 C224.84,709.85,225.04,711.46,226.04,712.62 C226.65,713.32,227.58,713.82,228.47,713.82 C229.48,713.82,230.07,713.05,230.07,711.9 C230.07,711.51,230.04,711.5,230.04,711.4 C230.04,711.3,230.15,711.3,230.19,711.3 C230.32,711.3,230.32,711.32,230.37,711.5 Z " /><path
         id="path6129"
         fill="black"
         stroke-width="0"
         d="M234.07,706.9 H233.83 C233.81,706.74,233.74,706.33,233.65,706.26 C233.6,706.22,233.06,706.22,232.96,706.22 H231.68 C232.41,706.87,232.66,707.06,233.07,707.39 C233.59,707.8,234.07,708.23,234.07,708.89 C234.07,709.73,233.33,710.25,232.44,710.25 C231.58,710.25,230.99,709.64,230.99,709 C230.99,708.65,231.29,708.61,231.36,708.61 C231.53,708.61,231.73,708.73,231.73,708.98 C231.73,709.11,231.68,709.35,231.32,709.35 C231.54,709.84,232.01,710,232.34,710 C233.03,710,233.39,709.46,233.39,708.89 C233.39,708.29,232.96,707.81,232.74,707.56 L231.06,705.9 C230.99,705.84,230.99,705.83,230.99,705.63 H233.86 Z " /></g>    <g
       id="g6326"
       transform="matrix(6.702474,0,0,-6.702474,-1304.4209,5318.6968)"
       xml:space="preserve"
       stroke="black"
       stroke-linecap="butt"
       stroke-linejoin="miter"
       stroke-miterlimit="10.433"
       stroke-dasharray="none"
       stroke-dashoffset="0"
       stroke-opacity="1"
       fill="none"
       fill-rule="evenodd"
       fill-opacity="1"
       font-style="normal"
       font-variant="normal"
       font-weight="normal"
       font-stretch="normal"
       font-size-adjust="none"
       letter-spacing="normal"
       word-spacing="normal"
       text-anchor="start"
       ns0:text="$C_3$"
       ns0:preamble=""
       style="font-style:normal;font-variant:normal;font-weight:normal;font-stretch:normal;letter-spacing:normal;word-spacing:normal;text-anchor:start;fill:none;stroke:#000000;stroke-linecap:butt;stroke-linejoin:miter;stroke-miterlimit:10.43299961;stroke-opacity:1;stroke-dasharray:none;stroke-dashoffset:0"><path
         d="M230.99,714.03 L230.99,714.03 L230.99,714.04 L230.99,714.04 L230.99,714.04 L230.99,714.05 L230.99,714.05 L230.99,714.05 L230.99,714.06 L230.99,714.06 L230.99,714.07 L230.98,714.07 L230.98,714.07 L230.98,714.08 L230.98,714.08 L230.97,714.09 L230.97,714.09 L230.97,714.09 L230.97,714.1 L230.96,714.1 L230.96,714.1 L230.95,714.11 L230.95,714.11 L230.94,714.11 L230.94,714.12 L230.93,714.12 L230.93,714.12 L230.93,714.12 L230.92,714.12 L230.92,714.12 L230.92,714.12 L230.91,714.12 L230.91,714.13 L230.91,714.13 L230.9,714.13 L230.9,714.13 L230.9,714.13 L230.89,714.13 L230.89,714.13 L230.88,714.13 C230.85,714.13,230.84,714.12,230.74,714.01 L230.04,713.24 C229.95,713.38,229.49,714.13,228.39,714.13 C226.17,714.13,223.93,711.93,223.93,709.63 C223.93,707.99,225.1,706.91,226.63,706.91 C227.49,706.91,228.25,707.3,228.77,707.76 C229.7,708.58,229.87,709.48,229.87,709.51 C229.87,709.61,229.77,709.61,229.75,709.61 C229.69,709.61,229.64,709.59,229.62,709.51 C229.53,709.22,229.3,708.52,228.62,707.94 C227.93,707.38,227.3,707.21,226.79,707.21 C225.89,707.21,224.84,707.73,224.84,709.28 C224.84,709.85,225.04,711.46,226.04,712.62 C226.65,713.32,227.58,713.82,228.47,713.82 C229.48,713.82,230.07,713.05,230.07,711.9 C230.07,711.51,230.04,711.5,230.04,711.4 C230.04,711.3,230.15,711.3,230.19,711.3 C230.32,711.3,230.32,711.32,230.37,711.5 Z "
         stroke-width="0"
         fill="black"
         id="path6328" /><path
         d="M232.45,707.95 L232.5,707.95 L232.55,707.95 L232.6,707.94 L232.65,707.94 L232.7,707.93 L232.74,707.91 L232.79,707.9 L232.83,707.88 L232.87,707.86 L232.91,707.84 L232.95,707.82 L232.99,707.8 L233.02,707.77 L233.06,707.74 L233.09,707.71 L233.12,707.67 L233.16,707.64 L233.18,707.6 L233.21,707.56 L233.24,707.52 L233.26,707.47 L233.28,707.42 L233.3,707.37 L233.32,707.32 L233.33,707.27 L233.35,707.21 L233.36,707.16 L233.37,707.1 L233.38,707.03 L233.38,706.97 L233.39,706.9 L233.39,706.83 C233.39,705.97,232.89,705.71,232.48,705.71 C232.2,705.71,231.59,705.79,231.3,706.2 C231.63,706.22,231.7,706.45,231.7,706.59 C231.7,706.81,231.54,706.97,231.32,706.97 C231.12,706.97,230.93,706.85,230.93,706.57 C230.93,705.92,231.65,705.49,232.5,705.49 C233.46,705.49,234.13,706.14,234.13,706.83 C234.13,707.38,233.69,707.92,232.92,708.08 C233.65,708.34,233.92,708.86,233.92,709.29 C233.92,709.84,233.28,710.25,232.51,710.25 C231.74,710.25,231.15,709.87,231.15,709.32 C231.15,709.08,231.3,708.95,231.51,708.95 C231.72,708.95,231.86,709.11,231.86,709.3 C231.86,709.5,231.72,709.65,231.51,709.66 C231.75,709.97,232.23,710.05,232.49,710.05 C232.8,710.05,233.24,709.89,233.24,709.29 C233.24,709,233.14,708.68,232.96,708.46 C232.73,708.2,232.54,708.18,232.19,708.16 C232.02,708.15,232,708.15,231.97,708.14 C231.95,708.14,231.9,708.13,231.9,708.05 C231.9,707.95,231.96,707.95,232.08,707.95 Z "
         stroke-width="0"
         fill="black"
         id="path6330" /></g>    <g
       style="font-style:normal;font-variant:normal;font-weight:normal;font-stretch:normal;letter-spacing:normal;word-spacing:normal;text-anchor:start;fill:none;stroke:#000000;stroke-linecap:butt;stroke-linejoin:miter;stroke-miterlimit:10.43299961;stroke-opacity:1;stroke-dasharray:none;stroke-dashoffset:0"
       ns0:preamble=""
       ns0:text="$C_4$"
       text-anchor="start"
       word-spacing="normal"
       letter-spacing="normal"
       font-size-adjust="none"
       font-stretch="normal"
       font-weight="normal"
       font-variant="normal"
       font-style="normal"
       fill-opacity="1"
       fill-rule="evenodd"
       fill="none"
       stroke-opacity="1"
       stroke-dashoffset="0"
       stroke-dasharray="none"
       stroke-miterlimit="10.433"
       stroke-linejoin="miter"
       stroke-linecap="butt"
       stroke="black"
       xml:space="preserve"
       transform="matrix(6.702474,0,0,-6.702474,-1551.9083,5409.2065)"
       id="g6527"><path
         id="path6529"
         fill="black"
         stroke-width="0"
         d="M230.99,714.03 L230.99,714.03 L230.99,714.04 L230.99,714.04 L230.99,714.04 L230.99,714.05 L230.99,714.05 L230.99,714.05 L230.99,714.06 L230.99,714.06 L230.99,714.07 L230.98,714.07 L230.98,714.07 L230.98,714.08 L230.98,714.08 L230.97,714.09 L230.97,714.09 L230.97,714.09 L230.97,714.1 L230.96,714.1 L230.96,714.1 L230.95,714.11 L230.95,714.11 L230.94,714.11 L230.94,714.12 L230.93,714.12 L230.93,714.12 L230.93,714.12 L230.92,714.12 L230.92,714.12 L230.92,714.12 L230.91,714.12 L230.91,714.13 L230.91,714.13 L230.9,714.13 L230.9,714.13 L230.9,714.13 L230.89,714.13 L230.89,714.13 L230.88,714.13 C230.85,714.13,230.84,714.12,230.74,714.01 L230.04,713.24 C229.95,713.38,229.49,714.13,228.39,714.13 C226.17,714.13,223.93,711.93,223.93,709.63 C223.93,707.99,225.1,706.91,226.63,706.91 C227.49,706.91,228.25,707.3,228.77,707.76 C229.7,708.58,229.87,709.48,229.87,709.51 C229.87,709.61,229.77,709.61,229.75,709.61 C229.69,709.61,229.64,709.59,229.62,709.51 C229.53,709.22,229.3,708.52,228.62,707.94 C227.93,707.38,227.3,707.21,226.79,707.21 C225.89,707.21,224.84,707.73,224.84,709.28 C224.84,709.85,225.04,711.46,226.04,712.62 C226.65,713.32,227.58,713.82,228.47,713.82 C229.48,713.82,230.07,713.05,230.07,711.9 C230.07,711.51,230.04,711.5,230.04,711.4 C230.04,711.3,230.15,711.3,230.19,711.3 C230.32,711.3,230.32,711.32,230.37,711.5 Z " /><path
         id="path6531"
         fill="black"
         stroke-width="0"
         d="M234.24,706.77 V707.02 H233.46 V710.12 C233.46,710.27,233.46,710.32,233.31,710.32 C233.23,710.32,233.2,710.32,233.13,710.22 L230.82,707.02 V706.77 H232.87 L232.92,707.02 H231.08 L232.92,709.57 V707.02 L232.87,706.77 V706.2 C232.87,705.97,232.87,705.88,232.31,705.88 H232.12 V705.63 C232.47,705.65,232.91,705.66,233.16,705.66 C233.42,705.66,233.87,705.65,234.22,705.63 V705.88 H234.03 C233.46,705.88,233.46,705.97,233.46,706.2 V706.77 Z " /></g>    <g
       id="g6728"
       transform="matrix(6.702474,0,0,-6.702474,-1614.1337,4946.7587)"
       xml:space="preserve"
       stroke="black"
       stroke-linecap="butt"
       stroke-linejoin="miter"
       stroke-miterlimit="10.433"
       stroke-dasharray="none"
       stroke-dashoffset="0"
       stroke-opacity="1"
       fill="none"
       fill-rule="evenodd"
       fill-opacity="1"
       font-style="normal"
       font-variant="normal"
       font-weight="normal"
       font-stretch="normal"
       font-size-adjust="none"
       letter-spacing="normal"
       word-spacing="normal"
       text-anchor="start"
       ns0:text="$C_5$"
       ns0:preamble=""
       style="font-style:normal;font-variant:normal;font-weight:normal;font-stretch:normal;letter-spacing:normal;word-spacing:normal;text-anchor:start;fill:none;stroke:#000000;stroke-linecap:butt;stroke-linejoin:miter;stroke-miterlimit:10.43299961;stroke-opacity:1;stroke-dasharray:none;stroke-dashoffset:0"><path
         d="M230.99,714.03 L230.99,714.03 L230.99,714.04 L230.99,714.04 L230.99,714.04 L230.99,714.05 L230.99,714.05 L230.99,714.05 L230.99,714.06 L230.99,714.06 L230.99,714.07 L230.98,714.07 L230.98,714.07 L230.98,714.08 L230.98,714.08 L230.97,714.09 L230.97,714.09 L230.97,714.09 L230.97,714.1 L230.96,714.1 L230.96,714.1 L230.95,714.11 L230.95,714.11 L230.94,714.11 L230.94,714.12 L230.93,714.12 L230.93,714.12 L230.93,714.12 L230.92,714.12 L230.92,714.12 L230.92,714.12 L230.91,714.12 L230.91,714.13 L230.91,714.13 L230.9,714.13 L230.9,714.13 L230.9,714.13 L230.89,714.13 L230.89,714.13 L230.88,714.13 C230.85,714.13,230.84,714.12,230.74,714.01 L230.04,713.24 C229.95,713.38,229.49,714.13,228.39,714.13 C226.17,714.13,223.93,711.93,223.93,709.63 C223.93,707.99,225.1,706.91,226.63,706.91 C227.49,706.91,228.25,707.3,228.77,707.76 C229.7,708.58,229.87,709.48,229.87,709.51 C229.87,709.61,229.77,709.61,229.75,709.61 C229.69,709.61,229.64,709.59,229.62,709.51 C229.53,709.22,229.3,708.52,228.62,707.94 C227.93,707.38,227.3,707.21,226.79,707.21 C225.89,707.21,224.84,707.73,224.84,709.28 C224.84,709.85,225.04,711.46,226.04,712.62 C226.65,713.32,227.58,713.82,228.47,713.82 C229.48,713.82,230.07,713.05,230.07,711.9 C230.07,711.51,230.04,711.5,230.04,711.4 C230.04,711.3,230.15,711.3,230.19,711.3 C230.32,711.3,230.32,711.32,230.37,711.5 Z "
         stroke-width="0"
         fill="black"
         id="path6730" /><path
         d="M231.63,709.51 L231.67,709.5 L231.7,709.5 L231.73,709.49 L231.76,709.48 L231.79,709.48 L231.82,709.47 L231.85,709.46 L231.87,709.46 L231.9,709.45 L231.92,709.45 L231.95,709.45 L231.97,709.44 L232,709.44 L232.02,709.44 L232.04,709.43 L232.06,709.43 L232.08,709.43 L232.1,709.43 L232.12,709.43 L232.14,709.43 L232.16,709.42 L232.17,709.42 L232.19,709.42 L232.21,709.42 L232.22,709.42 L232.23,709.42 L232.25,709.42 L232.26,709.42 L232.27,709.42 L232.29,709.42 L232.3,709.42 L232.31,709.42 C233.23,709.42,233.77,710.05,233.77,710.15 C233.77,710.23,233.72,710.25,233.69,710.25 C233.67,710.25,233.66,710.25,233.63,710.23 C233.46,710.16,233.1,710.03,232.58,710.03 C232.38,710.03,232.02,710.04,231.56,710.21 C231.49,710.25,231.48,710.25,231.47,710.25 C231.38,710.25,231.38,710.17,231.38,710.06 V708.01 C231.38,707.89,231.38,707.81,231.49,707.81 C231.56,707.81,231.56,707.82,231.63,707.91 C231.93,708.29,232.36,708.34,232.6,708.34 C233.02,708.34,233.21,708.01,233.24,707.95 C233.37,707.72,233.41,707.46,233.41,707.06 C233.41,706.85,233.41,706.44,233.2,706.13 C233.02,705.88,232.73,705.71,232.38,705.71 C231.93,705.71,231.46,705.97,231.29,706.42 C231.56,706.4,231.69,706.58,231.69,706.76 C231.69,707.06,231.43,707.12,231.34,707.12 C231.33,707.12,230.99,707.12,230.99,706.74 C230.99,706.12,231.56,705.49,232.4,705.49 C233.29,705.49,234.07,706.15,234.07,707.03 C234.07,707.81,233.47,708.54,232.61,708.54 C232.3,708.54,231.94,708.46,231.63,708.2 Z "
         stroke-width="0"
         fill="black"
         id="path6732" /></g>    <g
       style="font-style:normal;font-variant:normal;font-weight:normal;font-stretch:normal;letter-spacing:normal;word-spacing:normal;text-anchor:start;fill:none;stroke:#000000;stroke-linecap:butt;stroke-linejoin:miter;stroke-miterlimit:10.43299961;stroke-opacity:1;stroke-dasharray:none;stroke-dashoffset:0"
       ns0:preamble=""
       ns0:text="$C_5$"
       word-spacing="normal"
       letter-spacing="normal"
       font-size-adjust="none"
       font-stretch="normal"
       font-weight="normal"
       font-variant="normal"
       font-style="normal"
       stroke-miterlimit="10.433"
       xml:space="preserve"
       transform="matrix(6.702474,0,0,-6.702474,-444.57908,4990.5994)"
       id="g6832"><path
         style="fill:#000000;stroke-width:0"
         inkscape:connector-curvature="0"
         id="path6834"
         d="m 230.99,714.03 0,0 0,0.01 0,0 0,0 0,0.01 0,0 0,0 0,0.01 0,0 0,0.01 -0.01,0 0,0 0,0.01 0,0 -0.01,0.01 0,0 0,0 0,0.01 -0.01,0 0,0 -0.01,0.01 0,0 -0.01,0 0,0.01 -0.01,0 0,0 0,0 -0.01,0 0,0 0,0 -0.01,0 0,0.01 0,0 -0.01,0 0,0 0,0 -0.01,0 0,0 -0.01,0 c -0.03,0 -0.04,-0.01 -0.14,-0.12 l -0.7,-0.77 c -0.09,0.14 -0.55,0.89 -1.65,0.89 -2.22,0 -4.46,-2.2 -4.46,-4.5 0,-1.64 1.17,-2.72 2.7,-2.72 0.86,0 1.62,0.39 2.14,0.85 0.93,0.82 1.1,1.72 1.1,1.75 0,0.1 -0.1,0.1 -0.12,0.1 -0.06,0 -0.11,-0.02 -0.13,-0.1 -0.09,-0.29 -0.32,-0.99 -1,-1.57 -0.69,-0.56 -1.32,-0.73 -1.83,-0.73 -0.9,0 -1.95,0.52 -1.95,2.07 0,0.57 0.2,2.18 1.2,3.34 0.61,0.7 1.54,1.2 2.43,1.2 1.01,0 1.6,-0.77 1.6,-1.92 0,-0.39 -0.03,-0.4 -0.03,-0.5 0,-0.1 0.11,-0.1 0.15,-0.1 0.13,0 0.13,0.02 0.18,0.2 z" /><path
         style="fill:#000000;stroke-width:0"
         inkscape:connector-curvature="0"
         id="path6836"
         d="m 231.63,709.51 0.04,-0.01 0.03,0 0.03,-0.01 0.03,-0.01 0.03,0 0.03,-0.01 0.03,-0.01 0.02,0 0.03,-0.01 0.02,0 0.03,0 0.02,-0.01 0.03,0 0.02,0 0.02,-0.01 0.02,0 0.02,0 0.02,0 0.02,0 0.02,0 0.02,-0.01 0.01,0 0.02,0 0.02,0 0.01,0 0.01,0 0.02,0 0.01,0 0.01,0 0.02,0 0.01,0 0.01,0 c 0.92,0 1.46,0.63 1.46,0.73 0,0.08 -0.05,0.1 -0.08,0.1 -0.02,0 -0.03,0 -0.06,-0.02 -0.17,-0.07 -0.53,-0.2 -1.05,-0.2 -0.2,0 -0.56,0.01 -1.02,0.18 -0.07,0.04 -0.08,0.04 -0.09,0.04 -0.09,0 -0.09,-0.08 -0.09,-0.19 v -2.05 c 0,-0.12 0,-0.2 0.11,-0.2 0.07,0 0.07,0.01 0.14,0.1 0.3,0.38 0.73,0.43 0.97,0.43 0.42,0 0.61,-0.33 0.64,-0.39 0.13,-0.23 0.17,-0.49 0.17,-0.89 0,-0.21 0,-0.62 -0.21,-0.93 -0.18,-0.25 -0.47,-0.42 -0.82,-0.42 -0.45,0 -0.92,0.26 -1.09,0.71 0.27,-0.02 0.4,0.16 0.4,0.34 0,0.3 -0.26,0.36 -0.35,0.36 -0.01,0 -0.35,0 -0.35,-0.38 0,-0.62 0.57,-1.25 1.41,-1.25 0.89,0 1.67,0.66 1.67,1.54 0,0.78 -0.6,1.51 -1.46,1.51 -0.31,0 -0.67,-0.08 -0.98,-0.34 z" /></g>    <g
       ns0:preamble=""
       ns0:text="$C_1$"
       word-spacing="normal"
       letter-spacing="normal"
       font-size-adjust="none"
       font-stretch="normal"
       font-weight="normal"
       font-variant="normal"
       font-style="normal"
       stroke-miterlimit="10.433"
       xml:space="preserve"
       transform="matrix(6.702474,0,0,-6.702474,-71.226693,4976.4571)"
       id="g6838"
       style="font-style:normal;font-variant:normal;font-weight:normal;font-stretch:normal;letter-spacing:normal;word-spacing:normal;text-anchor:start;fill:none;stroke:#000000;stroke-linecap:butt;stroke-linejoin:miter;stroke-miterlimit:10.43299961;stroke-opacity:1;stroke-dasharray:none;stroke-dashoffset:0"><path
         id="path6840"
         d="m 230.99,714.03 0,0 0,0.01 0,0 0,0 0,0.01 0,0 0,0 0,0.01 0,0 0,0.01 -0.01,0 0,0 0,0.01 0,0 -0.01,0.01 0,0 0,0 0,0.01 -0.01,0 0,0 -0.01,0.01 0,0 -0.01,0 0,0.01 -0.01,0 0,0 0,0 -0.01,0 0,0 0,0 -0.01,0 0,0.01 0,0 -0.01,0 0,0 0,0 -0.01,0 0,0 -0.01,0 c -0.03,0 -0.04,-0.01 -0.14,-0.12 l -0.7,-0.77 c -0.09,0.14 -0.55,0.89 -1.65,0.89 -2.22,0 -4.46,-2.2 -4.46,-4.5 0,-1.64 1.17,-2.72 2.7,-2.72 0.86,0 1.62,0.39 2.14,0.85 0.93,0.82 1.1,1.72 1.1,1.75 0,0.1 -0.1,0.1 -0.12,0.1 -0.06,0 -0.11,-0.02 -0.13,-0.1 -0.09,-0.29 -0.32,-0.99 -1,-1.57 -0.69,-0.56 -1.32,-0.73 -1.83,-0.73 -0.9,0 -1.95,0.52 -1.95,2.07 0,0.57 0.2,2.18 1.2,3.34 0.61,0.7 1.54,1.2 2.43,1.2 1.01,0 1.6,-0.77 1.6,-1.92 0,-0.39 -0.03,-0.4 -0.03,-0.5 0,-0.1 0.11,-0.1 0.15,-0.1 0.13,0 0.13,0.02 0.18,0.2 z"
         inkscape:connector-curvature="0"
         style="fill:#000000;stroke-width:0" /><path
         id="path6842"
         d="m 232.89,710.05 0,0.01 0,0.01 0,0.01 0,0.01 0,0 0,0.01 0,0.01 0,0.01 -0.01,0 0,0.01 0,0.01 0,0 0,0.01 0,0 0,0.01 0,0 0,0.01 0,0 0,0.01 -0.01,0.01 0,0.01 0,0 -0.01,0.01 0,0.01 -0.01,0 0,0.01 -0.01,0 0,0 -0.01,0.01 -0.01,0 -0.01,0 -0.01,0 0,0 -0.01,0 0,0 -0.01,0.01 -0.01,0 0,0 -0.01,0 0,0 -0.01,0 -0.01,0 -0.01,0 0,0 -0.01,0 -0.01,0 -0.01,0 -0.01,0 0,0 -0.01,0 c -0.45,-0.44 -1.08,-0.45 -1.37,-0.45 v -0.25 c 0.17,0 0.63,0 1.01,0.2 v -3.55 c 0,-0.23 0,-0.32 -0.69,-0.32 h -0.27 v -0.25 c 0.13,0.01 0.98,0.03 1.24,0.03 0.22,0 1.09,-0.02 1.25,-0.03 v 0.25 h -0.27 c -0.69,0 -0.69,0.09 -0.69,0.32 z"
         inkscape:connector-curvature="0"
         style="fill:#000000;stroke-width:0" /></g>    <g
       id="g6844"
       transform="matrix(6.702474,0,0,-6.702474,230.0008,5198.4886)"
       xml:space="preserve"
       stroke-miterlimit="10.433"
       font-style="normal"
       font-variant="normal"
       font-weight="normal"
       font-stretch="normal"
       font-size-adjust="none"
       letter-spacing="normal"
       word-spacing="normal"
       ns0:text="$C_2$"
       ns0:preamble=""
       style="font-style:normal;font-variant:normal;font-weight:normal;font-stretch:normal;letter-spacing:normal;word-spacing:normal;text-anchor:start;fill:none;stroke:#000000;stroke-linecap:butt;stroke-linejoin:miter;stroke-miterlimit:10.43299961;stroke-opacity:1;stroke-dasharray:none;stroke-dashoffset:0"><path
         style="fill:#000000;stroke-width:0"
         inkscape:connector-curvature="0"
         d="m 230.99,714.03 0,0 0,0.01 0,0 0,0 0,0.01 0,0 0,0 0,0.01 0,0 0,0.01 -0.01,0 0,0 0,0.01 0,0 -0.01,0.01 0,0 0,0 0,0.01 -0.01,0 0,0 -0.01,0.01 0,0 -0.01,0 0,0.01 -0.01,0 0,0 0,0 -0.01,0 0,0 0,0 -0.01,0 0,0.01 0,0 -0.01,0 0,0 0,0 -0.01,0 0,0 -0.01,0 c -0.03,0 -0.04,-0.01 -0.14,-0.12 l -0.7,-0.77 c -0.09,0.14 -0.55,0.89 -1.65,0.89 -2.22,0 -4.46,-2.2 -4.46,-4.5 0,-1.64 1.17,-2.72 2.7,-2.72 0.86,0 1.62,0.39 2.14,0.85 0.93,0.82 1.1,1.72 1.1,1.75 0,0.1 -0.1,0.1 -0.12,0.1 -0.06,0 -0.11,-0.02 -0.13,-0.1 -0.09,-0.29 -0.32,-0.99 -1,-1.57 -0.69,-0.56 -1.32,-0.73 -1.83,-0.73 -0.9,0 -1.95,0.52 -1.95,2.07 0,0.57 0.2,2.18 1.2,3.34 0.61,0.7 1.54,1.2 2.43,1.2 1.01,0 1.6,-0.77 1.6,-1.92 0,-0.39 -0.03,-0.4 -0.03,-0.5 0,-0.1 0.11,-0.1 0.15,-0.1 0.13,0 0.13,0.02 0.18,0.2 z"
         id="path6846" /><path
         style="fill:#000000;stroke-width:0"
         inkscape:connector-curvature="0"
         d="m 234.07,706.9 h -0.24 c -0.02,-0.16 -0.09,-0.57 -0.18,-0.64 -0.05,-0.04 -0.59,-0.04 -0.69,-0.04 h -1.28 c 0.73,0.65 0.98,0.84 1.39,1.17 0.52,0.41 1,0.84 1,1.5 0,0.84 -0.74,1.36 -1.63,1.36 -0.86,0 -1.45,-0.61 -1.45,-1.25 0,-0.35 0.3,-0.39 0.37,-0.39 0.17,0 0.37,0.12 0.37,0.37 0,0.13 -0.05,0.37 -0.41,0.37 0.22,0.49 0.69,0.65 1.02,0.65 0.69,0 1.05,-0.54 1.05,-1.11 0,-0.6 -0.43,-1.08 -0.65,-1.33 l -1.68,-1.66 c -0.07,-0.06 -0.07,-0.07 -0.07,-0.27 h 2.87 z"
         id="path6848" /></g>    <g
       style="font-style:normal;font-variant:normal;font-weight:normal;font-stretch:normal;letter-spacing:normal;word-spacing:normal;text-anchor:start;fill:none;stroke:#000000;stroke-linecap:butt;stroke-linejoin:miter;stroke-miterlimit:10.43299961;stroke-opacity:1;stroke-dasharray:none;stroke-dashoffset:0"
       ns0:preamble=""
       ns0:text="$C_3$"
       word-spacing="normal"
       letter-spacing="normal"
       font-size-adjust="none"
       font-stretch="normal"
       font-weight="normal"
       font-variant="normal"
       font-style="normal"
       stroke-miterlimit="10.433"
       xml:space="preserve"
       transform="matrix(6.702474,0,0,-6.702474,-102.33937,5402.1354)"
       id="g6850"><path
         style="fill:#000000;stroke-width:0"
         inkscape:connector-curvature="0"
         id="path6852"
         d="m 230.99,714.03 0,0 0,0.01 0,0 0,0 0,0.01 0,0 0,0 0,0.01 0,0 0,0.01 -0.01,0 0,0 0,0.01 0,0 -0.01,0.01 0,0 0,0 0,0.01 -0.01,0 0,0 -0.01,0.01 0,0 -0.01,0 0,0.01 -0.01,0 0,0 0,0 -0.01,0 0,0 0,0 -0.01,0 0,0.01 0,0 -0.01,0 0,0 0,0 -0.01,0 0,0 -0.01,0 c -0.03,0 -0.04,-0.01 -0.14,-0.12 l -0.7,-0.77 c -0.09,0.14 -0.55,0.89 -1.65,0.89 -2.22,0 -4.46,-2.2 -4.46,-4.5 0,-1.64 1.17,-2.72 2.7,-2.72 0.86,0 1.62,0.39 2.14,0.85 0.93,0.82 1.1,1.72 1.1,1.75 0,0.1 -0.1,0.1 -0.12,0.1 -0.06,0 -0.11,-0.02 -0.13,-0.1 -0.09,-0.29 -0.32,-0.99 -1,-1.57 -0.69,-0.56 -1.32,-0.73 -1.83,-0.73 -0.9,0 -1.95,0.52 -1.95,2.07 0,0.57 0.2,2.18 1.2,3.34 0.61,0.7 1.54,1.2 2.43,1.2 1.01,0 1.6,-0.77 1.6,-1.92 0,-0.39 -0.03,-0.4 -0.03,-0.5 0,-0.1 0.11,-0.1 0.15,-0.1 0.13,0 0.13,0.02 0.18,0.2 z" /><path
         style="fill:#000000;stroke-width:0"
         inkscape:connector-curvature="0"
         id="path6854"
         d="m 232.45,707.95 0.05,0 0.05,0 0.05,-0.01 0.05,0 0.05,-0.01 0.04,-0.02 0.05,-0.01 0.04,-0.02 0.04,-0.02 0.04,-0.02 0.04,-0.02 0.04,-0.02 0.03,-0.03 0.04,-0.03 0.03,-0.03 0.03,-0.04 0.04,-0.03 0.02,-0.04 0.03,-0.04 0.03,-0.04 0.02,-0.05 0.02,-0.05 0.02,-0.05 0.02,-0.05 0.01,-0.05 0.02,-0.06 0.01,-0.05 0.01,-0.06 0.01,-0.07 0,-0.06 0.01,-0.07 0,-0.07 c 0,-0.86 -0.5,-1.12 -0.91,-1.12 -0.28,0 -0.89,0.08 -1.18,0.49 0.33,0.02 0.4,0.25 0.4,0.39 0,0.22 -0.16,0.38 -0.38,0.38 -0.2,0 -0.39,-0.12 -0.39,-0.4 0,-0.65 0.72,-1.08 1.57,-1.08 0.96,0 1.63,0.65 1.63,1.34 0,0.55 -0.44,1.09 -1.21,1.25 0.73,0.26 1,0.78 1,1.21 0,0.55 -0.64,0.96 -1.41,0.96 -0.77,0 -1.36,-0.38 -1.36,-0.93 0,-0.24 0.15,-0.37 0.36,-0.37 0.21,0 0.35,0.16 0.35,0.35 0,0.2 -0.14,0.35 -0.35,0.36 0.24,0.31 0.72,0.39 0.98,0.39 0.31,0 0.75,-0.16 0.75,-0.76 0,-0.29 -0.1,-0.61 -0.28,-0.83 -0.23,-0.26 -0.42,-0.28 -0.77,-0.3 -0.17,-0.01 -0.19,-0.01 -0.22,-0.02 -0.02,0 -0.07,-0.01 -0.07,-0.09 0,-0.1 0.06,-0.1 0.18,-0.1 z" /></g>    <g
       id="g6856"
       transform="matrix(6.702474,0,0,-6.702474,-433.26537,5341.3243)"
       xml:space="preserve"
       stroke-miterlimit="10.433"
       font-style="normal"
       font-variant="normal"
       font-weight="normal"
       font-stretch="normal"
       font-size-adjust="none"
       letter-spacing="normal"
       word-spacing="normal"
       ns0:text="$C_4$"
       ns0:preamble=""
       style="font-style:normal;font-variant:normal;font-weight:normal;font-stretch:normal;letter-spacing:normal;word-spacing:normal;text-anchor:start;fill:none;stroke:#000000;stroke-linecap:butt;stroke-linejoin:miter;stroke-miterlimit:10.43299961;stroke-opacity:1;stroke-dasharray:none;stroke-dashoffset:0"><path
         style="fill:#000000;stroke-width:0"
         inkscape:connector-curvature="0"
         d="m 230.99,714.03 0,0 0,0.01 0,0 0,0 0,0.01 0,0 0,0 0,0.01 0,0 0,0.01 -0.01,0 0,0 0,0.01 0,0 -0.01,0.01 0,0 0,0 0,0.01 -0.01,0 0,0 -0.01,0.01 0,0 -0.01,0 0,0.01 -0.01,0 0,0 0,0 -0.01,0 0,0 0,0 -0.01,0 0,0.01 0,0 -0.01,0 0,0 0,0 -0.01,0 0,0 -0.01,0 c -0.03,0 -0.04,-0.01 -0.14,-0.12 l -0.7,-0.77 c -0.09,0.14 -0.55,0.89 -1.65,0.89 -2.22,0 -4.46,-2.2 -4.46,-4.5 0,-1.64 1.17,-2.72 2.7,-2.72 0.86,0 1.62,0.39 2.14,0.85 0.93,0.82 1.1,1.72 1.1,1.75 0,0.1 -0.1,0.1 -0.12,0.1 -0.06,0 -0.11,-0.02 -0.13,-0.1 -0.09,-0.29 -0.32,-0.99 -1,-1.57 -0.69,-0.56 -1.32,-0.73 -1.83,-0.73 -0.9,0 -1.95,0.52 -1.95,2.07 0,0.57 0.2,2.18 1.2,3.34 0.61,0.7 1.54,1.2 2.43,1.2 1.01,0 1.6,-0.77 1.6,-1.92 0,-0.39 -0.03,-0.4 -0.03,-0.5 0,-0.1 0.11,-0.1 0.15,-0.1 0.13,0 0.13,0.02 0.18,0.2 z"
         id="path6858" /><path
         style="fill:#000000;stroke-width:0"
         inkscape:connector-curvature="0"
         d="m 234.24,706.77 v 0.25 h -0.78 v 3.1 c 0,0.15 0,0.2 -0.15,0.2 -0.08,0 -0.11,0 -0.18,-0.1 l -2.31,-3.2 v -0.25 h 2.05 l 0.05,0.25 h -1.84 l 1.84,2.55 v -2.55 l -0.05,-0.25 v -0.57 c 0,-0.23 0,-0.32 -0.56,-0.32 h -0.19 v -0.25 c 0.35,0.02 0.79,0.03 1.04,0.03 0.26,0 0.71,-0.01 1.06,-0.03 v 0.25 h -0.19 c -0.57,0 -0.57,0.09 -0.57,0.32 v 0.57 z"
         id="path6860" /></g>    <g
       style="font-style:normal;font-variant:normal;font-weight:normal;font-stretch:normal;letter-spacing:normal;word-spacing:normal;text-anchor:start;fill:none;stroke:#000000;stroke-linecap:butt;stroke-linejoin:miter;stroke-miterlimit:10.43299961;stroke-opacity:1;stroke-dasharray:none;stroke-dashoffset:0"
       ns0:preamble=""
       ns0:text="$T$"
       word-spacing="normal"
       letter-spacing="normal"
       font-size-adjust="none"
       font-stretch="normal"
       font-weight="normal"
       font-variant="normal"
       font-style="normal"
       stroke-miterlimit="10.433"
       xml:space="preserve"
       transform="matrix(6.702474,0,0,-6.702474,-965.00966,4936.8591)"
       id="g6983"><path
         id="path6985"
         d="m 227.68,713.16 0.01,0.02 0,0.02 0.01,0.03 0.01,0.02 0,0.02 0.01,0.02 0,0.02 0.01,0.02 0,0.01 0.01,0.02 0.01,0.01 0,0.02 0.01,0.01 0,0.01 0.01,0.01 0.01,0.01 0,0.01 0.01,0.01 0.01,0.01 0,0.01 0.01,0 0.01,0.01 0,0.01 0.01,0 0.01,0.01 0.01,0 0.01,0.01 0.01,0 0.01,0 0.01,0.01 0.01,0 0.01,0 c 0.09,0.02 0.42,0.02 0.63,0.02 1,0 1.45,-0.04 1.45,-0.81 0,-0.15 -0.04,-0.54 -0.08,-0.8 -0.01,-0.04 -0.03,-0.16 -0.03,-0.19 0,-0.06 0.03,-0.13 0.12,-0.13 0.11,0 0.13,0.09 0.15,0.23 l 0.27,1.73 c 0.01,0.04 0.02,0.14 0.02,0.17 0,0.11 -0.1,0.11 -0.27,0.11 h -5.52 c -0.24,0 -0.25,-0.01 -0.32,-0.2 l -0.6,-1.75 c -0.01,-0.02 -0.06,-0.16 -0.06,-0.18 0,-0.06 0.05,-0.11 0.12,-0.11 0.1,0 0.11,0.05 0.17,0.21 0.54,1.54 0.8,1.72 2.27,1.72 h 0.39 c 0.27,0 0.27,-0.04 0.27,-0.12 0,-0.06 -0.03,-0.18 -0.04,-0.21 l -1.33,-5.3 c -0.09,-0.37 -0.12,-0.48 -1.18,-0.48 -0.36,0 -0.42,0 -0.42,-0.19 0,-0.12 0.11,-0.12 0.17,-0.12 0.27,0 0.55,0.03 0.81,0.03 0.28,0 0.57,0.01 0.85,0.01 0.28,0 0.56,-0.01 0.83,-0.01 0.28,0 0.58,-0.03 0.86,-0.03 0.1,0 0.22,0 0.22,0.2 0,0.11 -0.08,0.11 -0.34,0.11 -0.25,0 -0.38,0 -0.64,0.02 -0.28,0.03 -0.36,0.06 -0.36,0.22 0,0.01 0,0.06 0.04,0.21 z"
         inkscape:connector-curvature="0"
         style="fill:#000000;stroke-width:0" /></g>  </g>
</svg>
