<?xml version="1.0" encoding="UTF-8" standalone="no"?>
<!-- Created with Inkscape (http://www.inkscape.org/) -->

<svg
   xmlns:ns0="http://www.iki.fi/pav/software/textext/"
   xmlns:dc="http://purl.org/dc/elements/1.1/"
   xmlns:cc="http://creativecommons.org/ns#"
   xmlns:rdf="http://www.w3.org/1999/02/22-rdf-syntax-ns#"
   xmlns:svg="http://www.w3.org/2000/svg"
   xmlns="http://www.w3.org/2000/svg"
   xmlns:sodipodi="http://sodipodi.sourceforge.net/DTD/sodipodi-0.dtd"
   xmlns:inkscape="http://www.inkscape.org/namespaces/inkscape"
   width="744.09448819"
   height="1052.3622047"
   id="svg2"
   version="1.1"
   inkscape:version="0.48.4 r9939"
   sodipodi:docname="kcut3.svg">
  <sodipodi:namedview
     id="base"
     pagecolor="#ffffff"
     bordercolor="#666666"
     borderopacity="1.0"
     inkscape:pageopacity="0.0"
     inkscape:pageshadow="2"
     inkscape:zoom="1.4142136"
     inkscape:cx="789.93228"
     inkscape:cy="706.20644"
     inkscape:document-units="px"
     inkscape:current-layer="layer4"
     showgrid="true"
     showborder="false"
     inkscape:snap-object-midpoints="true"
     inkscape:snap-global="false"
     inkscape:window-width="1918"
     inkscape:window-height="1062"
     inkscape:window-x="0"
     inkscape:window-y="0"
     inkscape:window-maximized="0">
    <inkscape:grid
       type="xygrid"
       id="grid2985"
       empspacing="5"
       visible="true"
       enabled="true"
       snapvisiblegridlinesonly="true"
       units="mm"
       spacingx="1mm"
       spacingy="1mm" />
  </sodipodi:namedview>
  <defs
     id="defs4" />
  <metadata
     id="metadata7">
    <rdf:RDF>
      <cc:Work
         rdf:about="">
        <dc:format>image/svg+xml</dc:format>
        <dc:type
           rdf:resource="http://purl.org/dc/dcmitype/StillImage" />
        <dc:title />
      </cc:Work>
    </rdf:RDF>
  </metadata>
  <g
     inkscape:groupmode="layer"
     id="layer4"
     inkscape:label="Layer#2"
     style="display:inline">
    <rect
       style="fill:#f9f2ad;fill-opacity:1;stroke:none;display:inline"
       id="rect13237"
       width="243.28697"
       height="275.72525"
       x="311.18906"
       y="27.787661"
       ry="48.657402" />
    <path
       style="fill:none;stroke:#508fbd;stroke-width:7.08661413;stroke-linecap:round;stroke-linejoin:round;stroke-miterlimit:4;stroke-opacity:1;stroke-dasharray:none"
       d="m 761.81102,290.55116 70.86615,-88.58268 177.16533,-53.1496 159.4488,70.86614 124.0158,-70.86614 0,124.01574"
       id="path5532"
       inkscape:connector-curvature="0" />
    <rect
       ry="55.395714"
       y="20.716593"
       x="-151.68634"
       height="313.909"
       width="354.02319"
       id="rect6086"
       style="fill:#f9f2ad;fill-opacity:1;stroke:none;display:inline" />
    <g
       style="display:inline;stroke:#525252;stroke-opacity:1;stroke-width:1;stroke-miterlimit:4;stroke-dasharray:1,8;stroke-dashoffset:0"
       id="g6097"
       transform="translate(832.67717,0)">
      <path
         style="fill:none;stroke:#525252;stroke-width:1;stroke-linecap:round;stroke-linejoin:round;stroke-miterlimit:4;stroke-opacity:1;stroke-dasharray:1,8;stroke-dashoffset:0"
         d="M -53.149606,60.236198 -70.866142,290.55116"
         id="path6099"
         inkscape:connector-curvature="0" />
      <path
         style="fill:none;stroke:#525252;stroke-opacity:1;stroke-width:1;stroke-miterlimit:4;stroke-dasharray:1,8;stroke-dashoffset:0"
         d="M -53.149606,60.236198 0,201.96848 -70.866142,290.55116"
         id="path6101"
         inkscape:connector-curvature="0" />
      <path
         style="fill:none;stroke:#525252;stroke-width:1;stroke-linecap:round;stroke-linejoin:round;stroke-miterlimit:4;stroke-opacity:1;stroke-dasharray:1,8;stroke-dashoffset:0"
         d="M 0,201.96848 124.01575,272.83462 177.16535,148.81888 -53.149606,60.236198"
         id="path6103"
         inkscape:connector-curvature="0"
         sodipodi:nodetypes="cccc" />
      <path
         style="fill:none;stroke:#525252;stroke-width:1;stroke-linecap:round;stroke-linejoin:round;stroke-miterlimit:4;stroke-opacity:1;stroke-dasharray:1,8;stroke-dashoffset:0"
         d="m 124.01575,272.83462 212.59842,-53.1496"
         id="path6105"
         inkscape:connector-curvature="0"
         sodipodi:nodetypes="cc" />
      <path
         style="fill:none;stroke:#525252;stroke-width:1;stroke-linecap:round;stroke-linejoin:round;stroke-miterlimit:4;stroke-opacity:1;stroke-dasharray:1,8;stroke-dashoffset:0"
         d="m -53.149606,60.236198 442.913386,0"
         id="path6107"
         inkscape:connector-curvature="0"
         sodipodi:nodetypes="cc" />
      <path
         style="fill:none;stroke:#525252;stroke-width:1;stroke-linecap:round;stroke-linejoin:round;stroke-miterlimit:4;stroke-opacity:1;stroke-dasharray:1,8;stroke-dashoffset:0"
         d="M 177.16535,148.81888 389.76378,60.236198 336.61417,219.68502 460.62992,148.81888 389.76378,60.236198"
         id="path6109"
         inkscape:connector-curvature="0"
         sodipodi:nodetypes="ccccc" />
      <path
         style="fill:none;stroke:#525252;stroke-width:1;stroke-linecap:round;stroke-linejoin:round;stroke-miterlimit:4;stroke-opacity:1;stroke-dasharray:1,8;stroke-dashoffset:0"
         d="m 460.62992,272.83462 0,-124.01574"
         id="path6111"
         inkscape:connector-curvature="0"
         sodipodi:nodetypes="cc" />
    </g>
  </g>
  <g
     inkscape:groupmode="layer"
     id="layer2"
     inkscape:label="Layer"
     style="display:inline">
    <g
       id="g6088">
      <path
         inkscape:connector-curvature="0"
         id="path4542"
         d="M -53.149606,60.236198 -70.866142,290.55116"
         style="fill:none;stroke:#000000;stroke-width:1.77165353;stroke-linecap:round;stroke-linejoin:round;stroke-miterlimit:4;stroke-opacity:1;stroke-dasharray:none;stroke-dashoffset:0" />
      <path
         inkscape:connector-curvature="0"
         id="path3772"
         d="M -53.149606,60.236198 0,201.96848 -70.866142,290.55116"
         style="fill:none;stroke:#000000;stroke-opacity:1" />
      <path
         sodipodi:nodetypes="cccc"
         inkscape:connector-curvature="0"
         id="path4544"
         d="M 0,201.96848 124.01575,272.83462 177.16535,148.81888 -53.149606,60.236198"
         style="fill:none;stroke:#000000;stroke-width:1.77165353;stroke-linecap:round;stroke-linejoin:round;stroke-miterlimit:4;stroke-opacity:1;stroke-dasharray:none;stroke-dashoffset:0" />
      <path
         sodipodi:nodetypes="cc"
         inkscape:connector-curvature="0"
         id="path4546"
         d="m 124.01575,272.83462 212.59842,-53.1496"
         style="fill:none;stroke:#000000;stroke-width:1.77165353;stroke-linecap:round;stroke-linejoin:round;stroke-miterlimit:4;stroke-opacity:1;stroke-dasharray:none;stroke-dashoffset:0" />
      <path
         sodipodi:nodetypes="cc"
         inkscape:connector-curvature="0"
         id="path4554"
         d="m -53.149606,60.236198 442.913386,0"
         style="fill:none;stroke:#000000;stroke-width:1.77165353;stroke-linecap:round;stroke-linejoin:round;stroke-miterlimit:4;stroke-opacity:1;stroke-dasharray:none;stroke-dashoffset:0" />
      <path
         sodipodi:nodetypes="ccccc"
         inkscape:connector-curvature="0"
         id="path4556"
         d="M 177.16535,148.81888 389.76378,60.236198 336.61417,219.68502 460.62992,148.81888 389.76378,60.236198"
         style="fill:none;stroke:#000000;stroke-width:1.77165353;stroke-linecap:round;stroke-linejoin:round;stroke-miterlimit:4;stroke-opacity:1;stroke-dasharray:none;stroke-dashoffset:0" />
      <path
         sodipodi:nodetypes="cc"
         inkscape:connector-curvature="0"
         id="path4558"
         d="m 460.62992,272.83462 0,-124.01574"
         style="fill:none;stroke:#000000;stroke-width:1.77165353;stroke-linecap:round;stroke-linejoin:round;stroke-miterlimit:4;stroke-opacity:1;stroke-dasharray:none;stroke-dashoffset:0" />
    </g>
    <path
       style="fill:none;stroke:#1668a3;stroke-width:1.77165353;stroke-linecap:round;stroke-linejoin:round;stroke-miterlimit:4;stroke-opacity:1;stroke-dasharray:none;stroke-dashoffset:0;display:inline"
       d="m 761.81102,290.55116 70.86615,-88.58268"
       id="path5490"
       inkscape:connector-curvature="0" />
    <path
       style="fill:none;stroke:#1668a3;stroke-width:1.77165353;stroke-linecap:round;stroke-linejoin:round;stroke-miterlimit:4;stroke-opacity:1;stroke-dasharray:none;stroke-dashoffset:0"
       d="m 779.52756,60.236198 53.14961,141.732282 177.16533,-53.1496 -53.14959,124.01574"
       id="path5493"
       inkscape:connector-curvature="0" />
    <path
       style="fill:none;stroke:#1668a3;stroke-width:1.77165353;stroke-linecap:round;stroke-linejoin:round;stroke-miterlimit:4;stroke-opacity:1;stroke-dasharray:none;stroke-dashoffset:0"
       d="m 1009.8425,148.81888 159.4488,70.86614 124.0158,-70.86614 0,124.01574"
       id="path5495"
       inkscape:connector-curvature="0" />
    <path
       style="fill:none;stroke:#1668a3;stroke-width:1.77165353;stroke-linecap:round;stroke-linejoin:round;stroke-miterlimit:4;stroke-opacity:1;stroke-dasharray:none;stroke-dashoffset:0"
       d="m 1222.4409,60.236198 70.8662,88.582682"
       id="path5497"
       inkscape:connector-curvature="0" />
    <text
       xml:space="preserve"
       style="font-size:28px;font-style:normal;font-variant:normal;font-weight:normal;font-stretch:normal;text-align:start;line-height:125%;letter-spacing:0px;word-spacing:0px;writing-mode:lr-tb;text-anchor:start;fill:#1668a3;fill-opacity:1;stroke:none;font-family:cmr10;-inkscape-font-specification:cmr10"
       x="803.98041"
       y="269.797"
       id="text5499"
       sodipodi:linespacing="125%"><tspan
         sodipodi:role="line"
         id="tspan5501"
         x="803.98041"
         y="269.797">100</tspan></text>
    <text
       xml:space="preserve"
       style="font-size:28px;font-style:normal;font-variant:normal;font-weight:normal;font-stretch:normal;text-align:start;line-height:125%;letter-spacing:0px;word-spacing:0px;writing-mode:lr-tb;text-anchor:start;fill:#1668a3;fill-opacity:1;stroke:none;font-family:cmr10;-inkscape-font-specification:cmr10"
       x="806.47534"
       y="114.13177"
       id="text5503"
       sodipodi:linespacing="125%"><tspan
         sodipodi:role="line"
         id="tspan5505"
         x="806.47534"
         y="114.13177">25</tspan></text>
    <text
       xml:space="preserve"
       style="font-size:28px;font-style:normal;font-variant:normal;font-weight:normal;font-stretch:normal;text-align:start;line-height:125%;letter-spacing:0px;word-spacing:0px;writing-mode:lr-tb;text-anchor:start;fill:#1668a3;fill-opacity:1;stroke:none;font-family:cmr10;-inkscape-font-specification:cmr10"
       x="882.46924"
       y="167.77161"
       id="text5507"
       sodipodi:linespacing="125%"><tspan
         sodipodi:role="line"
         id="tspan5509"
         x="882.46924"
         y="167.77161">14</tspan></text>
    <text
       xml:space="preserve"
       style="font-size:28px;font-style:normal;font-variant:normal;font-weight:normal;font-stretch:normal;text-align:start;line-height:125%;letter-spacing:0px;word-spacing:0px;writing-mode:lr-tb;text-anchor:start;fill:#1668a3;fill-opacity:1;stroke:none;font-family:cmr10;-inkscape-font-specification:cmr10"
       x="1090.7086"
       y="169.53542"
       id="text5511"
       sodipodi:linespacing="125%"><tspan
         sodipodi:role="line"
         id="tspan5513"
         x="1090.7086"
         y="169.53542">3</tspan></text>
    <text
       xml:space="preserve"
       style="font-size:28px;font-style:normal;font-variant:normal;font-weight:normal;font-stretch:normal;text-align:start;line-height:125%;letter-spacing:0px;word-spacing:0px;writing-mode:lr-tb;text-anchor:start;fill:#1668a3;fill-opacity:1;stroke:none;font-family:cmr10;-inkscape-font-specification:cmr10"
       x="934.79523"
       y="237.06807"
       id="text5515"
       sodipodi:linespacing="125%"><tspan
         sodipodi:role="line"
         id="tspan5517"
         x="934.79523"
         y="237.06807">34</tspan></text>
    <text
       xml:space="preserve"
       style="font-size:28px;font-style:normal;font-variant:normal;font-weight:normal;font-stretch:normal;text-align:start;line-height:125%;letter-spacing:0px;word-spacing:0px;writing-mode:lr-tb;text-anchor:start;fill:#1668a3;fill-opacity:1;stroke:none;font-family:cmr10;-inkscape-font-specification:cmr10"
       x="1205.6171"
       y="171.30713"
       id="text5519"
       sodipodi:linespacing="125%"><tspan
         sodipodi:role="line"
         id="tspan5521"
         x="1205.6171"
         y="171.30713">14</tspan></text>
    <text
       xml:space="preserve"
       style="font-size:28px;font-style:normal;font-variant:normal;font-weight:normal;font-stretch:normal;text-align:start;line-height:125%;letter-spacing:0px;word-spacing:0px;writing-mode:lr-tb;text-anchor:start;fill:#1668a3;fill-opacity:1;stroke:none;font-family:cmr10;-inkscape-font-specification:cmr10"
       x="1271.3781"
       y="104.13199"
       id="text5523"
       sodipodi:linespacing="125%"><tspan
         sodipodi:role="line"
         id="tspan5525"
         x="1271.3781"
         y="104.13199">54</tspan></text>
    <text
       xml:space="preserve"
       style="font-size:28px;font-style:normal;font-variant:normal;font-weight:normal;font-stretch:normal;text-align:start;line-height:125%;letter-spacing:0px;word-spacing:0px;writing-mode:lr-tb;text-anchor:start;fill:#1668a3;fill-opacity:1;stroke:none;font-family:cmr10;-inkscape-font-specification:cmr10"
       x="1313.8044"
       y="219.3904"
       id="text5527"
       sodipodi:linespacing="125%"><tspan
         sodipodi:role="line"
         id="tspan5529"
         x="1313.8044"
         y="219.3904">50</tspan></text>
    <path
       style="fill:none;stroke:#e83707;stroke-width:7.08661417;stroke-linecap:round;stroke-linejoin:round;stroke-miterlimit:4;stroke-opacity:1;stroke-dasharray:21.25984252,21.25984252;stroke-dashoffset:0;display:inline"
       d="m 1009.8425,148.81888 159.4488,70.86614"
       id="path5534"
       inkscape:connector-curvature="0" />
    <path
       style="fill:none;stroke:#e83707;stroke-width:5.31496048;stroke-linecap:round;stroke-linejoin:round;stroke-miterlimit:4;stroke-opacity:1;stroke-dasharray:15.94488189, 15.94488189;stroke-dashoffset:0"
       d="m 282,12.362182 c 0,0 -19.50118,42.432227 -19,65 0.66466,29.929588 29.29904,55.064518 29,84.999998 -0.23384,23.40823 -23.63748,42.59341 -24,66 -0.41299,26.66555 25,76 25,76"
       id="path5969"
       inkscape:connector-curvature="0"
       sodipodi:nodetypes="caaac" />
  </g>
  <g
     inkscape:label="Layer 1"
     inkscape:groupmode="layer"
     id="layer1"
     style="display:inline">
    <g
       id="g4674">
      <path
         sodipodi:type="arc"
         style="fill:#000000;fill-opacity:1;stroke:none"
         id="path5898"
         sodipodi:cx="451.77167"
         sodipodi:cy="193.11021"
         sodipodi:rx="1.7716675"
         sodipodi:ry="1.7716537"
         d="m 453.54333,193.11021 a 1.7716675,1.7716537 0 1 1 -3.54333,0 1.7716675,1.7716537 0 1 1 3.54333,0 z"
         transform="matrix(2.9999852,0,0,2.9999852,-1408.4579,-519.09159)" />
      <path
         transform="matrix(2.9999852,0,0,2.9999852,-1355.3083,-377.3593)"
         d="m 453.54333,193.11021 a 1.7716675,1.7716537 0 1 1 -3.54333,0 1.7716675,1.7716537 0 1 1 3.54333,0 z"
         sodipodi:ry="1.7716537"
         sodipodi:rx="1.7716675"
         sodipodi:cy="193.11021"
         sodipodi:cx="451.77167"
         id="path3762"
         style="fill:#000000;fill-opacity:1;stroke:none"
         sodipodi:type="arc" />
      <path
         sodipodi:type="arc"
         style="fill:#000000;fill-opacity:1;stroke:none"
         id="path3764"
         sodipodi:cx="451.77167"
         sodipodi:cy="193.11021"
         sodipodi:rx="1.7716675"
         sodipodi:ry="1.7716537"
         d="m 453.54333,193.11021 a 1.7716675,1.7716537 0 1 1 -3.54333,0 1.7716675,1.7716537 0 1 1 3.54333,0 z"
         transform="matrix(2.9999852,0,0,2.9999852,-1426.1745,-288.77663)" />
      <path
         sodipodi:type="arc"
         style="fill:#000000;fill-opacity:1;stroke:none"
         id="path3766"
         sodipodi:cx="451.77167"
         sodipodi:cy="193.11021"
         sodipodi:rx="1.7716675"
         sodipodi:ry="1.7716537"
         d="m 453.54333,193.11021 a 1.7716675,1.7716537 0 1 1 -3.54333,0 1.7716675,1.7716537 0 1 1 3.54333,0 z"
         transform="matrix(2.9999852,0,0,2.9999852,-1231.2926,-306.49316)" />
      <path
         transform="matrix(2.9999852,0,0,2.9999852,-1178.143,-430.50891)"
         d="m 453.54333,193.11021 a 1.7716675,1.7716537 0 1 1 -3.54333,0 1.7716675,1.7716537 0 1 1 3.54333,0 z"
         sodipodi:ry="1.7716537"
         sodipodi:rx="1.7716675"
         sodipodi:cy="193.11021"
         sodipodi:cx="451.77167"
         id="path3768"
         style="fill:#000000;fill-opacity:1;stroke:none"
         sodipodi:type="arc" />
      <path
         sodipodi:type="arc"
         style="fill:#000000;fill-opacity:1;stroke:none"
         id="path3770"
         sodipodi:cx="451.77167"
         sodipodi:cy="193.11021"
         sodipodi:rx="1.7716675"
         sodipodi:ry="1.7716537"
         d="m 453.54333,193.11021 a 1.7716675,1.7716537 0 1 1 -3.54333,0 1.7716675,1.7716537 0 1 1 3.54333,0 z"
         transform="matrix(2.9999852,0,0,2.9999852,-1018.6941,-359.64277)" />
      <path
         transform="matrix(2.9999852,0,0,2.9999852,-965.54454,-519.09159)"
         d="m 453.54333,193.11021 a 1.7716675,1.7716537 0 1 1 -3.54333,0 1.7716675,1.7716537 0 1 1 3.54333,0 z"
         sodipodi:ry="1.7716537"
         sodipodi:rx="1.7716675"
         sodipodi:cy="193.11021"
         sodipodi:cx="451.77167"
         id="path4548"
         style="fill:#000000;fill-opacity:1;stroke:none"
         sodipodi:type="arc" />
      <path
         sodipodi:type="arc"
         style="fill:#000000;fill-opacity:1;stroke:none"
         id="path4550"
         sodipodi:cx="451.77167"
         sodipodi:cy="193.11021"
         sodipodi:rx="1.7716675"
         sodipodi:ry="1.7716537"
         d="m 453.54333,193.11021 a 1.7716675,1.7716537 0 1 1 -3.54333,0 1.7716675,1.7716537 0 1 1 3.54333,0 z"
         transform="matrix(2.9999852,0,0,2.9999852,-894.67839,-430.50891)" />
      <path
         transform="matrix(2.9999852,0,0,2.9999852,-894.67839,-306.49316)"
         d="m 453.54333,193.11021 a 1.7716675,1.7716537 0 1 1 -3.54333,0 1.7716675,1.7716537 0 1 1 3.54333,0 z"
         sodipodi:ry="1.7716537"
         sodipodi:rx="1.7716675"
         sodipodi:cy="193.11021"
         sodipodi:cx="451.77167"
         id="path4552"
         style="fill:#000000;fill-opacity:1;stroke:none"
         sodipodi:type="arc" />
    </g>
    <g
       style="font-style:normal;font-variant:normal;font-weight:normal;font-stretch:normal;letter-spacing:normal;word-spacing:normal;text-anchor:start;fill:none;stroke:#000000;stroke-linecap:butt;stroke-linejoin:miter;stroke-miterlimit:10.43299961;stroke-opacity:1;stroke-dasharray:none;stroke-dashoffset:0;display:inline"
       ns0:preamble=""
       ns0:text="$v$"
       word-spacing="normal"
       letter-spacing="normal"
       font-size-adjust="none"
       font-stretch="normal"
       font-weight="normal"
       font-variant="normal"
       font-style="normal"
       stroke-miterlimit="10.433"
       xml:space="preserve"
       transform="matrix(4.015873,0,0,-4.015873,-424.26559,3130.6752)"
       id="g4873"><path
         style="fill:#000000;stroke-width:0"
         inkscape:connector-curvature="0"
         id="path4875"
         d="m 228.09,710.82 0,0.02 0,0.03 0,0.02 0,0.03 -0.01,0.02 0,0.02 0,0.02 0,0.02 -0.01,0.04 -0.01,0.04 -0.01,0.04 -0.01,0.04 -0.01,0.03 -0.01,0.03 -0.01,0.03 -0.01,0.03 -0.02,0.02 -0.01,0.03 -0.02,0.02 -0.01,0.02 -0.02,0.02 -0.02,0.02 -0.01,0.01 -0.02,0.02 -0.02,0.01 -0.02,0.01 -0.02,0.01 -0.02,0.01 -0.01,0.01 -0.02,0.01 -0.02,0 -0.02,0.01 -0.02,0 -0.01,0 -0.02,0.01 -0.02,0 c -0.25,0 -0.49,-0.26 -0.49,-0.48 0,-0.13 0.05,-0.19 0.16,-0.3 0.21,-0.2 0.34,-0.46 0.34,-0.81 0,-0.42 -0.61,-2.7 -1.77,-2.7 -0.51,0 -0.74,0.35 -0.74,0.87 0,0.56 0.27,1.28 0.58,2.1 0.07,0.17 0.12,0.31 0.12,0.5 0,0.45 -0.32,0.82 -0.82,0.82 -0.93,0 -1.31,-1.44 -1.31,-1.53 0,-0.1 0.1,-0.1 0.12,-0.1 0.1,0 0.11,0.02 0.16,0.18 0.29,1 0.71,1.23 1,1.23 0.08,0 0.25,0 0.25,-0.32 0,-0.25 -0.1,-0.52 -0.17,-0.7 -0.43,-1.15 -0.56,-1.61 -0.56,-2.03 0,-1.08 0.87,-1.23 1.33,-1.23 1.67,0 2.24,3.28 2.24,3.8 z" /></g>    <g
       style="font-style:normal;font-variant:normal;font-weight:normal;font-stretch:normal;letter-spacing:normal;word-spacing:normal;text-anchor:start;fill:none;stroke:#000000;stroke-linecap:butt;stroke-linejoin:miter;stroke-miterlimit:10.43299961;stroke-opacity:1;stroke-dasharray:none;stroke-dashoffset:0;display:inline"
       id="g5599"
       transform="matrix(4.015873,0,0,-4.015873,-1008.5513,3148.5323)"
       xml:space="preserve"
       stroke-miterlimit="10.433"
       font-style="normal"
       font-variant="normal"
       font-weight="normal"
       font-stretch="normal"
       font-size-adjust="none"
       letter-spacing="normal"
       word-spacing="normal"
       ns0:text="$u$"
       ns0:preamble=""><path
         style="fill:#000000;stroke-width:0"
         inkscape:connector-curvature="0"
         d="m 226.91,707.68 0.02,-0.04 0.01,-0.03 0.01,-0.04 0.02,-0.03 0.01,-0.04 0.02,-0.03 0.02,-0.03 0.02,-0.03 0.02,-0.03 0.02,-0.03 0.03,-0.03 0.02,-0.03 0.03,-0.02 0.02,-0.03 0.03,-0.02 0.03,-0.02 0.03,-0.03 0.03,-0.01 0.03,-0.02 0.03,-0.02 0.03,-0.02 0.04,-0.01 0.03,-0.02 0.04,-0.01 0.03,-0.01 0.04,-0.01 0.04,-0.01 0.03,0 0.04,-0.01 0.04,0 0.04,0 0.04,0 c 0.35,0 0.58,0.22 0.74,0.54 0.17,0.36 0.29,0.97 0.29,0.99 0,0.1 -0.09,0.1 -0.12,0.1 -0.09,0 -0.1,-0.05 -0.13,-0.18 -0.14,-0.56 -0.33,-1.24 -0.75,-1.24 -0.21,0 -0.31,0.13 -0.31,0.46 0,0.22 0.12,0.69 0.2,1.03 l 0.28,1.08 c 0.03,0.15 0.13,0.52 0.17,0.67 0.05,0.23 0.15,0.61 0.15,0.67 0,0.18 -0.14,0.27 -0.29,0.27 -0.05,0 -0.31,-0.01 -0.39,-0.35 -0.19,-0.73 -0.63,-2.47 -0.75,-2.99 -0.01,-0.04 -0.4,-0.84 -1.13,-0.84 -0.52,0 -0.62,0.45 -0.62,0.82 0,0.55 0.28,1.34 0.54,2.03 0.12,0.29 0.17,0.43 0.17,0.62 0,0.45 -0.32,0.82 -0.82,0.82 -0.94,0 -1.31,-1.44 -1.31,-1.53 0,-0.1 0.1,-0.1 0.12,-0.1 0.1,0 0.11,0.02 0.16,0.18 0.25,0.86 0.63,1.23 1,1.23 0.09,0 0.25,-0.01 0.25,-0.33 0,-0.24 -0.11,-0.53 -0.17,-0.68 -0.37,-0.98 -0.57,-1.6 -0.57,-2.08 0,-0.95 0.68,-1.19 1.22,-1.19 0.66,0 1.01,0.44 1.18,0.66 z"
         id="path4759" /></g>    <g
       id="g4952"
       transform="translate(832.67721,0)">
      <g
         id="g4954">
        <path
           sodipodi:type="arc"
           style="fill:#000000;fill-opacity:1;stroke:none"
           id="path4956"
           sodipodi:cx="451.77167"
           sodipodi:cy="193.11021"
           sodipodi:rx="1.7716675"
           sodipodi:ry="1.7716537"
           d="m 453.54333,193.11021 a 1.7716675,1.7716537 0 1 1 -3.54333,0 1.7716675,1.7716537 0 1 1 3.54333,0 z"
           transform="matrix(2.9999852,0,0,2.9999852,-1408.4579,-519.09159)" />
        <path
           transform="matrix(2.9999852,0,0,2.9999852,-1355.3083,-377.3593)"
           d="m 453.54333,193.11021 a 1.7716675,1.7716537 0 1 1 -3.54333,0 1.7716675,1.7716537 0 1 1 3.54333,0 z"
           sodipodi:ry="1.7716537"
           sodipodi:rx="1.7716675"
           sodipodi:cy="193.11021"
           sodipodi:cx="451.77167"
           id="path4958"
           style="fill:#000000;fill-opacity:1;stroke:none"
           sodipodi:type="arc" />
        <path
           sodipodi:type="arc"
           style="fill:#000000;fill-opacity:1;stroke:none"
           id="path4960"
           sodipodi:cx="451.77167"
           sodipodi:cy="193.11021"
           sodipodi:rx="1.7716675"
           sodipodi:ry="1.7716537"
           d="m 453.54333,193.11021 a 1.7716675,1.7716537 0 1 1 -3.54333,0 1.7716675,1.7716537 0 1 1 3.54333,0 z"
           transform="matrix(2.9999852,0,0,2.9999852,-1426.1745,-288.77663)" />
        <path
           sodipodi:type="arc"
           style="fill:#000000;fill-opacity:1;stroke:none"
           id="path4962"
           sodipodi:cx="451.77167"
           sodipodi:cy="193.11021"
           sodipodi:rx="1.7716675"
           sodipodi:ry="1.7716537"
           d="m 453.54333,193.11021 a 1.7716675,1.7716537 0 1 1 -3.54333,0 1.7716675,1.7716537 0 1 1 3.54333,0 z"
           transform="matrix(2.9999852,0,0,2.9999852,-1231.2926,-306.49316)" />
        <path
           transform="matrix(2.9999852,0,0,2.9999852,-1178.143,-430.50891)"
           d="m 453.54333,193.11021 a 1.7716675,1.7716537 0 1 1 -3.54333,0 1.7716675,1.7716537 0 1 1 3.54333,0 z"
           sodipodi:ry="1.7716537"
           sodipodi:rx="1.7716675"
           sodipodi:cy="193.11021"
           sodipodi:cx="451.77167"
           id="path4964"
           style="fill:#000000;fill-opacity:1;stroke:none"
           sodipodi:type="arc" />
        <path
           sodipodi:type="arc"
           style="fill:#000000;fill-opacity:1;stroke:none"
           id="path4966"
           sodipodi:cx="451.77167"
           sodipodi:cy="193.11021"
           sodipodi:rx="1.7716675"
           sodipodi:ry="1.7716537"
           d="m 453.54333,193.11021 a 1.7716675,1.7716537 0 1 1 -3.54333,0 1.7716675,1.7716537 0 1 1 3.54333,0 z"
           transform="matrix(2.9999852,0,0,2.9999852,-1018.6941,-359.64277)" />
        <path
           transform="matrix(2.9999852,0,0,2.9999852,-965.54454,-519.09159)"
           d="m 453.54333,193.11021 a 1.7716675,1.7716537 0 1 1 -3.54333,0 1.7716675,1.7716537 0 1 1 3.54333,0 z"
           sodipodi:ry="1.7716537"
           sodipodi:rx="1.7716675"
           sodipodi:cy="193.11021"
           sodipodi:cx="451.77167"
           id="path4968"
           style="fill:#000000;fill-opacity:1;stroke:none"
           sodipodi:type="arc" />
        <path
           sodipodi:type="arc"
           style="fill:#000000;fill-opacity:1;stroke:none"
           id="path4970"
           sodipodi:cx="451.77167"
           sodipodi:cy="193.11021"
           sodipodi:rx="1.7716675"
           sodipodi:ry="1.7716537"
           d="m 453.54333,193.11021 a 1.7716675,1.7716537 0 1 1 -3.54333,0 1.7716675,1.7716537 0 1 1 3.54333,0 z"
           transform="matrix(2.9999852,0,0,2.9999852,-894.67839,-430.50891)" />
        <path
           transform="matrix(2.9999852,0,0,2.9999852,-894.67839,-306.49316)"
           d="m 453.54333,193.11021 a 1.7716675,1.7716537 0 1 1 -3.54333,0 1.7716675,1.7716537 0 1 1 3.54333,0 z"
           sodipodi:ry="1.7716537"
           sodipodi:rx="1.7716675"
           sodipodi:cy="193.11021"
           sodipodi:cx="451.77167"
           id="path4972"
           style="fill:#000000;fill-opacity:1;stroke:none"
           sodipodi:type="arc" />
      </g>
      <g
         style="font-style:normal;font-variant:normal;font-weight:normal;font-stretch:normal;letter-spacing:normal;word-spacing:normal;text-anchor:start;fill:none;stroke:#000000;stroke-linecap:butt;stroke-linejoin:miter;stroke-miterlimit:10.43299961;stroke-opacity:1;stroke-dasharray:none;stroke-dashoffset:0;display:inline"
         ns0:preamble=""
         ns0:text="$v$"
         word-spacing="normal"
         letter-spacing="normal"
         font-size-adjust="none"
         font-stretch="normal"
         font-weight="normal"
         font-variant="normal"
         font-style="normal"
         stroke-miterlimit="10.433"
         xml:space="preserve"
         transform="matrix(4.015873,0,0,-4.015873,-424.26559,3130.6752)"
         id="g4974"><path
           id="path4976"
           d="m 228.09,710.82 0,0.02 0,0.03 0,0.02 0,0.03 -0.01,0.02 0,0.02 0,0.02 0,0.02 -0.01,0.04 -0.01,0.04 -0.01,0.04 -0.01,0.04 -0.01,0.03 -0.01,0.03 -0.01,0.03 -0.01,0.03 -0.02,0.02 -0.01,0.03 -0.02,0.02 -0.01,0.02 -0.02,0.02 -0.02,0.02 -0.01,0.01 -0.02,0.02 -0.02,0.01 -0.02,0.01 -0.02,0.01 -0.02,0.01 -0.01,0.01 -0.02,0.01 -0.02,0 -0.02,0.01 -0.02,0 -0.01,0 -0.02,0.01 -0.02,0 c -0.25,0 -0.49,-0.26 -0.49,-0.48 0,-0.13 0.05,-0.19 0.16,-0.3 0.21,-0.2 0.34,-0.46 0.34,-0.81 0,-0.42 -0.61,-2.7 -1.77,-2.7 -0.51,0 -0.74,0.35 -0.74,0.87 0,0.56 0.27,1.28 0.58,2.1 0.07,0.17 0.12,0.31 0.12,0.5 0,0.45 -0.32,0.82 -0.82,0.82 -0.93,0 -1.31,-1.44 -1.31,-1.53 0,-0.1 0.1,-0.1 0.12,-0.1 0.1,0 0.11,0.02 0.16,0.18 0.29,1 0.71,1.23 1,1.23 0.08,0 0.25,0 0.25,-0.32 0,-0.25 -0.1,-0.52 -0.17,-0.7 -0.43,-1.15 -0.56,-1.61 -0.56,-2.03 0,-1.08 0.87,-1.23 1.33,-1.23 1.67,0 2.24,3.28 2.24,3.8 z"
           inkscape:connector-curvature="0"
           style="fill:#000000;stroke-width:0" /></g>      <g
         style="font-style:normal;font-variant:normal;font-weight:normal;font-stretch:normal;letter-spacing:normal;word-spacing:normal;text-anchor:start;fill:none;stroke:#000000;stroke-linecap:butt;stroke-linejoin:miter;stroke-miterlimit:10.43299961;stroke-opacity:1;stroke-dasharray:none;stroke-dashoffset:0;display:inline"
         id="g4978"
         transform="matrix(4.015873,0,0,-4.015873,-1008.5513,3148.5323)"
         xml:space="preserve"
         stroke-miterlimit="10.433"
         font-style="normal"
         font-variant="normal"
         font-weight="normal"
         font-stretch="normal"
         font-size-adjust="none"
         letter-spacing="normal"
         word-spacing="normal"
         ns0:text="$u$"
         ns0:preamble=""><path
           style="fill:#000000;stroke-width:0"
           inkscape:connector-curvature="0"
           d="m 226.91,707.68 0.02,-0.04 0.01,-0.03 0.01,-0.04 0.02,-0.03 0.01,-0.04 0.02,-0.03 0.02,-0.03 0.02,-0.03 0.02,-0.03 0.02,-0.03 0.03,-0.03 0.02,-0.03 0.03,-0.02 0.02,-0.03 0.03,-0.02 0.03,-0.02 0.03,-0.03 0.03,-0.01 0.03,-0.02 0.03,-0.02 0.03,-0.02 0.04,-0.01 0.03,-0.02 0.04,-0.01 0.03,-0.01 0.04,-0.01 0.04,-0.01 0.03,0 0.04,-0.01 0.04,0 0.04,0 0.04,0 c 0.35,0 0.58,0.22 0.74,0.54 0.17,0.36 0.29,0.97 0.29,0.99 0,0.1 -0.09,0.1 -0.12,0.1 -0.09,0 -0.1,-0.05 -0.13,-0.18 -0.14,-0.56 -0.33,-1.24 -0.75,-1.24 -0.21,0 -0.31,0.13 -0.31,0.46 0,0.22 0.12,0.69 0.2,1.03 l 0.28,1.08 c 0.03,0.15 0.13,0.52 0.17,0.67 0.05,0.23 0.15,0.61 0.15,0.67 0,0.18 -0.14,0.27 -0.29,0.27 -0.05,0 -0.31,-0.01 -0.39,-0.35 -0.19,-0.73 -0.63,-2.47 -0.75,-2.99 -0.01,-0.04 -0.4,-0.84 -1.13,-0.84 -0.52,0 -0.62,0.45 -0.62,0.82 0,0.55 0.28,1.34 0.54,2.03 0.12,0.29 0.17,0.43 0.17,0.62 0,0.45 -0.32,0.82 -0.82,0.82 -0.94,0 -1.31,-1.44 -1.31,-1.53 0,-0.1 0.1,-0.1 0.12,-0.1 0.1,0 0.11,0.02 0.16,0.18 0.25,0.86 0.63,1.23 1,1.23 0.09,0 0.25,-0.01 0.25,-0.33 0,-0.24 -0.11,-0.53 -0.17,-0.68 -0.37,-0.98 -0.57,-1.6 -0.57,-2.08 0,-0.95 0.68,-1.19 1.22,-1.19 0.66,0 1.01,0.44 1.18,0.66 z"
           id="path4980" /></g>    </g>
    <g
       style="font-style:normal;font-variant:normal;font-weight:normal;font-stretch:normal;letter-spacing:normal;word-spacing:normal;text-anchor:start;fill:#e83707;fill-opacity:1;stroke:none;display:inline"
       ns0:preamble=""
       ns0:text="$e_{\\min}$"
       word-spacing="normal"
       letter-spacing="normal"
       font-size-adjust="none"
       font-stretch="normal"
       font-weight="normal"
       font-variant="normal"
       font-style="normal"
       stroke-miterlimit="10.433"
       xml:space="preserve"
       transform="matrix(4.015873,0,0,-4.015873,137.37045,3064.2609)"
       id="content"><path
         id="path5831"
         d="m 225.29,709.42 0.03,0 0.03,0 0.03,0 0.04,0 0.04,0 0.04,0 0.04,0 0.04,0.01 0.05,0 0.04,0 0.05,0 0.05,0.01 0.05,0 0.05,0.01 0.11,0.01 0.1,0.01 0.11,0.01 0.11,0.02 0.11,0.02 0.1,0.03 0.06,0.01 0.05,0.02 0.05,0.01 0.05,0.02 0.05,0.02 0.05,0.02 c 0.69,0.3 0.74,0.88 0.74,1.02 0,0.44 -0.38,0.85 -1.06,0.85 v -0.22 c 0.46,0 0.73,-0.29 0.73,-0.63 0,-1.03 -1.59,-1.03 -2,-1.03 h -0.41 c 0.39,1.51 1.42,1.66 1.68,1.66 v 0.22 c -1.11,0 -2.61,-0.97 -2.61,-2.71 0,-1.01 0.59,-1.79 1.56,-1.79 1.42,0 2.26,1.05 2.26,1.17 0,0.06 -0.06,0.13 -0.12,0.13 -0.05,0 -0.07,-0.02 -0.13,-0.1 -0.78,-0.99 -1.87,-0.99 -1.99,-0.99 -0.77,0 -0.86,0.84 -0.86,1.16 0,0.12 0.01,0.42 0.15,1.03 z"
         inkscape:connector-curvature="0"
         style="fill:#e83707;fill-opacity:1;stroke:none" /><path
         id="path5833"
         d="m 233.8,707.74 0,0.05 -0.01,0.06 0,0.05 -0.01,0.05 -0.01,0.05 -0.01,0.05 -0.01,0.05 -0.01,0.04 -0.02,0.05 -0.02,0.04 -0.02,0.04 -0.02,0.04 -0.02,0.03 -0.03,0.04 -0.03,0.03 -0.03,0.03 -0.03,0.03 -0.03,0.03 -0.04,0.03 -0.04,0.02 -0.04,0.03 -0.05,0.02 -0.04,0.02 -0.05,0.01 -0.05,0.02 -0.06,0.01 -0.05,0.01 -0.06,0.01 -0.06,0.01 -0.06,0 -0.07,0.01 -0.07,0 c -0.55,0 -0.93,-0.3 -1.11,-0.65 -0.14,0.49 -0.52,0.65 -1.03,0.65 -0.57,0 -0.94,-0.31 -1.13,-0.68 h -0.01 v 0.68 l -1.02,-0.08 v -0.25 c 0.46,0 0.52,-0.05 0.52,-0.39 v -1.8 c 0,-0.3 -0.07,-0.3 -0.52,-0.3 v -0.25 c 0.01,0 0.5,0.03 0.79,0.03 0.26,0 0.74,-0.02 0.8,-0.03 v 0.25 c -0.45,0 -0.52,0 -0.52,0.3 v 1.25 c 0,0.73 0.58,1.07 1.04,1.07 0.48,0 0.55,-0.38 0.55,-0.73 v -1.59 c 0,-0.3 -0.07,-0.3 -0.52,-0.3 v -0.25 c 0.01,0 0.5,0.03 0.79,0.03 0.26,0 0.74,-0.02 0.8,-0.03 v 0.25 c -0.45,0 -0.52,0 -0.52,0.3 v 1.25 c 0,0.73 0.58,1.07 1.04,1.07 0.48,0 0.55,-0.38 0.55,-0.73 v -1.59 c 0,-0.3 -0.07,-0.3 -0.53,-0.3 v -0.25 c 0.02,0 0.51,0.03 0.8,0.03 0.25,0 0.74,-0.02 0.8,-0.03 v 0.25 c -0.45,0 -0.52,0 -0.52,0.3 z"
         inkscape:connector-curvature="0"
         style="fill:#e83707;fill-opacity:1;stroke:none" /><path
         id="path5835"
         d="m 236.09,709.92 -0.01,0.02 0,0.02 0,0.02 0,0.02 -0.01,0.01 0,0.02 -0.01,0.02 0,0.02 -0.01,0.02 -0.01,0.01 -0.01,0.02 -0.01,0.02 -0.01,0.01 -0.01,0.02 -0.01,0.01 -0.02,0.02 -0.01,0.01 -0.02,0.01 -0.01,0.01 -0.02,0.02 -0.01,0.01 -0.02,0.01 -0.02,0.01 -0.02,0 -0.01,0.01 -0.02,0.01 -0.02,0 -0.02,0.01 -0.02,0 -0.02,0.01 -0.03,0 -0.02,0 c -0.21,0 -0.4,-0.17 -0.4,-0.4 0,-0.25 0.21,-0.4 0.4,-0.4 0.22,0 0.41,0.17 0.41,0.4 z"
         inkscape:connector-curvature="0"
         style="fill:#e83707;fill-opacity:1;stroke:none" /><path
         id="path5837"
         d="m 235.03,708.62 v -0.25 c 0.44,0 0.5,-0.04 0.5,-0.38 v -1.81 c 0,-0.3 -0.07,-0.3 -0.52,-0.3 v -0.25 c 0.01,0 0.5,0.03 0.78,0.03 0.24,0 0.49,-0.01 0.73,-0.03 v 0.25 c -0.4,0 -0.47,0 -0.47,0.29 v 2.53 z"
         inkscape:connector-curvature="0"
         style="fill:#e83707;fill-opacity:1;stroke:none" /><path
         id="path5839"
         d="m 240.46,707.74 0,0.05 -0.01,0.06 0,0.05 -0.01,0.05 0,0.05 -0.01,0.05 -0.02,0.05 -0.01,0.04 -0.02,0.05 -0.01,0.04 -0.02,0.04 -0.03,0.04 -0.02,0.03 -0.03,0.04 -0.02,0.03 -0.04,0.03 -0.03,0.03 -0.03,0.03 -0.04,0.03 -0.04,0.02 -0.04,0.03 -0.04,0.02 -0.05,0.02 -0.05,0.01 -0.05,0.02 -0.05,0.01 -0.06,0.01 -0.06,0.01 -0.06,0.01 -0.06,0 -0.07,0.01 -0.07,0 c -0.57,0 -0.94,-0.31 -1.13,-0.68 h -0.01 v 0.68 l -1.02,-0.08 v -0.25 c 0.46,0 0.52,-0.05 0.52,-0.39 v -1.8 c 0,-0.3 -0.07,-0.3 -0.52,-0.3 v -0.25 c 0.01,0 0.5,0.03 0.79,0.03 0.26,0 0.74,-0.02 0.8,-0.03 v 0.25 c -0.45,0 -0.52,0 -0.52,0.3 v 1.25 c 0,0.73 0.58,1.07 1.04,1.07 0.49,0 0.55,-0.38 0.55,-0.73 v -1.59 c 0,-0.3 -0.07,-0.3 -0.53,-0.3 v -0.25 c 0.02,0 0.51,0.03 0.8,0.03 0.26,0 0.74,-0.02 0.8,-0.03 v 0.25 c -0.45,0 -0.52,0 -0.52,0.3 z"
         inkscape:connector-curvature="0"
         style="fill:#e83707;fill-opacity:1;stroke:none" /></g>  </g>
  <g
     inkscape:groupmode="layer"
     id="layer3"
     inkscape:label="Layer#1"
     style="display:inline">
    <text
       xml:space="preserve"
       style="font-size:32px;font-style:normal;font-variant:normal;font-weight:normal;font-stretch:normal;text-align:start;line-height:125%;letter-spacing:0px;word-spacing:0px;writing-mode:lr-tb;text-anchor:start;fill:#000000;fill-opacity:1;stroke:none;font-family:cmr10;-inkscape-font-specification:cmr10"
       x="-83.842659"
       y="184.64114"
       id="text4579"
       sodipodi:linespacing="125%"><tspan
         sodipodi:role="line"
         id="tspan4581"
         x="-83.842659"
         y="184.64114" /></text>
    <text
       xml:space="preserve"
       style="font-size:28px;font-style:normal;font-variant:normal;font-weight:normal;font-stretch:normal;text-align:start;line-height:125%;letter-spacing:0px;word-spacing:0px;writing-mode:lr-tb;text-anchor:start;fill:#000000;fill-opacity:1;stroke:none;font-family:cmr10;-inkscape-font-specification:cmr10"
       x="-88.893425"
       y="181.61069"
       id="text4603"
       sodipodi:linespacing="125%"><tspan
         sodipodi:role="line"
         id="tspan4605"
         x="-88.893425"
         y="181.61069">1</tspan></text>
    <text
       xml:space="preserve"
       style="font-size:28px;font-style:normal;font-variant:normal;font-weight:normal;font-stretch:normal;text-align:start;line-height:125%;letter-spacing:0px;word-spacing:0px;writing-mode:lr-tb;text-anchor:start;fill:#000000;fill-opacity:1;stroke:none;font-family:cmr10;-inkscape-font-specification:cmr10"
       x="-33.335033"
       y="278.58533"
       id="text4607"
       sodipodi:linespacing="125%"><tspan
         sodipodi:role="line"
         id="tspan4609"
         x="-33.335033"
         y="278.58533">99</tspan></text>
    <text
       xml:space="preserve"
       style="font-size:28px;font-style:normal;font-variant:normal;font-weight:normal;font-stretch:normal;text-align:start;line-height:125%;letter-spacing:0px;word-spacing:0px;writing-mode:lr-tb;text-anchor:start;fill:#000000;fill-opacity:1;stroke:none;font-family:cmr10;-inkscape-font-specification:cmr10"
       x="-15.152288"
       y="142.21474"
       id="text4611"
       sodipodi:linespacing="125%"><tspan
         sodipodi:role="line"
         id="tspan4613"
         x="-15.152288"
         y="142.21474">20</tspan></text>
    <text
       xml:space="preserve"
       style="font-size:28px;font-style:normal;font-variant:normal;font-weight:normal;font-stretch:normal;text-align:start;line-height:125%;letter-spacing:0px;word-spacing:0px;writing-mode:lr-tb;text-anchor:start;fill:#000000;fill-opacity:1;stroke:none;font-family:cmr10;-inkscape-font-specification:cmr10"
       x="51.51778"
       y="226.0574"
       id="text4615"
       sodipodi:linespacing="125%"><tspan
         sodipodi:role="line"
         id="tspan4617"
         x="51.51778"
         y="226.0574">10</tspan></text>
    <text
       xml:space="preserve"
       style="font-size:28px;font-style:normal;font-variant:normal;font-weight:normal;font-stretch:normal;text-align:start;line-height:125%;letter-spacing:0px;word-spacing:0px;writing-mode:lr-tb;text-anchor:start;fill:#000000;fill-opacity:1;stroke:none;font-family:cmr10;-inkscape-font-specification:cmr10"
       x="224.25386"
       y="276.56503"
       id="text4619"
       sodipodi:linespacing="125%"><tspan
         sodipodi:role="line"
         id="tspan4621"
         x="224.25386"
         y="276.56503">1</tspan></text>
    <text
       xml:space="preserve"
       style="font-size:28px;font-style:normal;font-variant:normal;font-weight:normal;font-stretch:normal;text-align:start;line-height:125%;letter-spacing:0px;word-spacing:0px;writing-mode:lr-tb;text-anchor:start;fill:#000000;fill-opacity:1;stroke:none;font-family:cmr10;-inkscape-font-specification:cmr10"
       x="167.68532"
       y="214.94572"
       id="text4623"
       sodipodi:linespacing="125%"><tspan
         sodipodi:role="line"
         id="tspan4625"
         x="167.68532"
         y="214.94572">30</tspan></text>
    <text
       xml:space="preserve"
       style="font-size:28px;font-style:normal;font-variant:normal;font-weight:normal;font-stretch:normal;text-align:start;line-height:125%;letter-spacing:0px;word-spacing:0px;writing-mode:lr-tb;text-anchor:start;fill:#000000;fill-opacity:1;stroke:none;font-family:cmr10;-inkscape-font-specification:cmr10"
       x="88.893425"
       y="105.84925"
       id="text4627"
       sodipodi:linespacing="125%"><tspan
         sodipodi:role="line"
         id="tspan4629"
         x="88.893425"
         y="105.84925">3</tspan></text>
    <text
       xml:space="preserve"
       style="font-size:28px;font-style:normal;font-variant:normal;font-weight:normal;font-stretch:normal;text-align:start;line-height:125%;letter-spacing:0px;word-spacing:0px;writing-mode:lr-tb;text-anchor:start;fill:#000000;fill-opacity:1;stroke:none;font-family:cmr10;-inkscape-font-specification:cmr10"
       x="203.04066"
       y="43.219791"
       id="text4631"
       sodipodi:linespacing="125%"><tspan
         sodipodi:role="line"
         id="tspan4633"
         x="203.04066"
         y="43.219791">1</tspan></text>
    <text
       xml:space="preserve"
       style="font-size:28px;font-style:normal;font-variant:normal;font-weight:normal;font-stretch:normal;text-align:start;line-height:125%;letter-spacing:0px;word-spacing:0px;writing-mode:lr-tb;text-anchor:start;fill:#000000;fill-opacity:1;stroke:none;font-family:cmr10;-inkscape-font-specification:cmr10"
       x="230.31477"
       y="111.91016"
       id="text4635"
       sodipodi:linespacing="125%"><tspan
         sodipodi:role="line"
         id="tspan4637"
         x="230.31477"
         y="111.91016">1</tspan></text>
    <text
       xml:space="preserve"
       style="font-size:28px;font-style:normal;font-variant:normal;font-weight:normal;font-stretch:normal;text-align:start;line-height:125%;letter-spacing:0px;word-spacing:0px;writing-mode:lr-tb;text-anchor:start;fill:#000000;fill-opacity:1;stroke:none;font-family:cmr10;-inkscape-font-specification:cmr10"
       x="332.34018"
       y="153.32642"
       id="text4639"
       sodipodi:linespacing="125%"><tspan
         sodipodi:role="line"
         id="tspan4641"
         x="332.34018"
         y="153.32642">3</tspan></text>
    <text
       xml:space="preserve"
       style="font-size:28px;font-style:normal;font-variant:normal;font-weight:normal;font-stretch:normal;text-align:start;line-height:125%;letter-spacing:0px;word-spacing:0px;writing-mode:lr-tb;text-anchor:start;fill:#000000;fill-opacity:1;stroke:none;font-family:cmr10;-inkscape-font-specification:cmr10"
       x="389.91888"
       y="213.93558"
       id="text4643"
       sodipodi:linespacing="125%"><tspan
         sodipodi:role="line"
         id="tspan4645"
         x="389.91888"
         y="213.93558">10</tspan></text>
    <text
       xml:space="preserve"
       style="font-size:28px;font-style:normal;font-variant:normal;font-weight:normal;font-stretch:normal;text-align:start;line-height:125%;letter-spacing:0px;word-spacing:0px;writing-mode:lr-tb;text-anchor:start;fill:#000000;fill-opacity:1;stroke:none;font-family:cmr10;-inkscape-font-specification:cmr10"
       x="468.71078"
       y="231.10817"
       id="text4647"
       sodipodi:linespacing="125%"><tspan
         sodipodi:role="line"
         id="tspan4649"
         x="468.71078"
         y="231.10817">50</tspan></text>
    <text
       xml:space="preserve"
       style="font-size:28px;font-style:normal;font-variant:normal;font-weight:normal;font-stretch:normal;text-align:start;line-height:125%;letter-spacing:0px;word-spacing:0px;writing-mode:lr-tb;text-anchor:start;fill:#000000;fill-opacity:1;stroke:none;font-family:cmr10;-inkscape-font-specification:cmr10"
       x="433.35547"
       y="100.79848"
       id="text4651"
       sodipodi:linespacing="125%"><tspan
         sodipodi:role="line"
         id="tspan4653"
         x="433.35547"
         y="100.79848">50</tspan></text>
  </g>
</svg>
