<?xml version="1.0" encoding="UTF-8" standalone="no"?>
<!-- Created with Inkscape (http://www.inkscape.org/) -->

<svg
   xmlns:ns0="http://www.iki.fi/pav/software/textext/"
   xmlns:dc="http://purl.org/dc/elements/1.1/"
   xmlns:cc="http://creativecommons.org/ns#"
   xmlns:rdf="http://www.w3.org/1999/02/22-rdf-syntax-ns#"
   xmlns:svg="http://www.w3.org/2000/svg"
   xmlns="http://www.w3.org/2000/svg"
   xmlns:sodipodi="http://sodipodi.sourceforge.net/DTD/sodipodi-0.dtd"
   xmlns:inkscape="http://www.inkscape.org/namespaces/inkscape"
   width="744.09448819"
   height="1052.3622047"
   id="svg2"
   version="1.1"
   inkscape:version="0.48.3.1 r9886"
   sodipodi:docname="maxsat1.svg">
  <sodipodi:namedview
     id="base"
     pagecolor="#ffffff"
     bordercolor="#666666"
     borderopacity="1.0"
     inkscape:pageopacity="0.0"
     inkscape:pageshadow="2"
     inkscape:zoom="0.98994949"
     inkscape:cx="-738.24276"
     inkscape:cy="1061.6706"
     inkscape:document-units="px"
     inkscape:current-layer="layer1"
     showgrid="false"
     showborder="false"
     inkscape:window-width="958"
     inkscape:window-height="1062"
     inkscape:window-x="960"
     inkscape:window-y="0"
     inkscape:window-maximized="0"
     inkscape:object-paths="true"
     inkscape:snap-intersection-paths="true"
     inkscape:snap-global="false" />
  <defs
     id="defs4">
    <clipPath
       id="clipPath3136"
       clipPathUnits="userSpaceOnUse">
      <path
         id="path3138"
         d="m 69.375,5480.62 5411.245,0 0,-5411.245 -5411.245,0 0,5411.245 z" />
    </clipPath>
    <clipPath
       id="clipPath3126"
       clipPathUnits="userSpaceOnUse">
      <path
         id="path3128"
         d="m 69.375,3080.25 222,0 0,-208.13 -222,0 0,208.13 z" />
    </clipPath>
    <clipPath
       id="clipPath3086"
       clipPathUnits="userSpaceOnUse">
      <path
         id="path3088"
         d="m 69.375,5480.62 5411.245,0 0,-5411.245 -5411.245,0 0,5411.245 z" />
    </clipPath>
    <clipPath
       id="clipPath3076"
       clipPathUnits="userSpaceOnUse">
      <path
         id="path3078"
         d="m 2983.12,277.5 208.13,0 0,-208.125 -208.13,0 0,208.125 z" />
    </clipPath>
    <clipPath
       id="clipPath3034"
       clipPathUnits="userSpaceOnUse">
      <path
         id="path3036"
         d="m 69.375,5480.62 5411.245,0 0,-5411.245 -5411.245,0 0,5411.245 z" />
    </clipPath>
    <clipPath
       id="clipPath3022"
       clipPathUnits="userSpaceOnUse">
      <path
         id="path3024"
         d="m 749.25,5397.14 4689.64,0 0,-4814.378 -4689.64,0 0,4814.378 z" />
    </clipPath>
  </defs>
  <metadata
     id="metadata7">
    <rdf:RDF>
      <cc:Work
         rdf:about="">
        <dc:format>image/svg+xml</dc:format>
        <dc:type
           rdf:resource="http://purl.org/dc/dcmitype/StillImage" />
        <dc:title></dc:title>
      </cc:Work>
    </rdf:RDF>
  </metadata>
  <g
     inkscape:label="Layer 1"
     inkscape:groupmode="layer"
     id="layer1">
    <path
       id="path3016"
       style="fill:#ffffff;fill-opacity:1;fill-rule:nonzero;stroke:none"
       d="m -1141.1607,359.23718 693.75,0 0,-693.75 -693.75,0 0,693.75 z"
       inkscape:connector-curvature="0" />
    <g
       id="g3018"
       transform="matrix(0.125,0,0,-0.125,-1141.1607,359.23718)">
      <g
         clip-path="url(#clipPath3022)"
         id="g3020">
        <path
           id="path3026"
           style="fill:none;stroke:#ff0000;stroke-width:13.875;stroke-linecap:butt;stroke-linejoin:round;stroke-miterlimit:10;stroke-opacity:1;stroke-dasharray:none"
           d="m 763.125,596.625 101.313,203.965 88.152,170.926 99.14,185.214 99.79,179.2 99.32,171.37 92.08,152.9 95.35,152.46 98.59,151.61 98.3,145.2 101.1,143.43 89.05,121.5 100.25,131.59 100.66,126.78 97.01,117.27 88.1,102.5 104.74,117.08 88.75,95.26 103.21,106.43 91.38,90.44 100.25,95.28 95.45,87.05 99.6,87.13 91.47,76.83 98.65,79.55 102.48,79.14 89.2,66.09 96.35,68.57 99.54,67.87 97.37,63.62 94.21,59.01 104.61,62.72 94,53.94 100.36,55.16 90.95,47.9 99.42,50.18 93.56,45.21 97.77,45.27 95.62,42.36 100.07,42.42 96.41,39.07 98.58,38.21 97.76,36.22 89.84,31.86 102.96,34.93 92.08,29.86 98.2,30.44 93.97,27.86 101,28.59"
           inkscape:connector-curvature="0" />
        <path
           id="path3028"
           style="fill:none;stroke:#000000;stroke-width:13.875;stroke-linecap:butt;stroke-linejoin:round;stroke-miterlimit:10;stroke-opacity:1;stroke-dasharray:none"
           d="M 763.125,596.625 4440.27,5490.14"
           inkscape:connector-curvature="0" />
      </g>
    </g>
    <g
       id="g3030"
       transform="matrix(0.125,0,0,-0.125,-1141.1607,359.23718)">
      <g
         clip-path="url(#clipPath3034)"
         id="g3032">
        <path
           id="path3038"
           style="fill:none;stroke:#000000;stroke-width:13.875;stroke-linecap:butt;stroke-linejoin:round;stroke-miterlimit:10;stroke-opacity:1;stroke-dasharray:none"
           d="m 5178.73,596.625 0,-36.074"
           inkscape:connector-curvature="0" />
        <path
           id="path3040"
           style="fill:none;stroke:#000000;stroke-width:13.875;stroke-linecap:butt;stroke-linejoin:round;stroke-miterlimit:10;stroke-opacity:1;stroke-dasharray:none"
           d="m 4946.34,596.625 0,-36.074"
           inkscape:connector-curvature="0" />
        <path
           id="path3042"
           style="fill:none;stroke:#000000;stroke-width:13.875;stroke-linecap:butt;stroke-linejoin:round;stroke-miterlimit:10;stroke-opacity:1;stroke-dasharray:none"
           d="m 4481.53,596.625 0,-36.074"
           inkscape:connector-curvature="0" />
        <path
           id="path3044"
           style="fill:none;stroke:#000000;stroke-width:13.875;stroke-linecap:butt;stroke-linejoin:round;stroke-miterlimit:10;stroke-opacity:1;stroke-dasharray:none"
           d="m 4713.93,596.625 0,-36.074"
           inkscape:connector-curvature="0" />
        <path
           id="path3046"
           style="fill:none;stroke:#000000;stroke-width:13.875;stroke-linecap:butt;stroke-linejoin:round;stroke-miterlimit:10;stroke-opacity:1;stroke-dasharray:none"
           d="m 4016.73,596.625 0,-36.074"
           inkscape:connector-curvature="0" />
        <path
           id="path3048"
           style="fill:none;stroke:#000000;stroke-width:13.875;stroke-linecap:butt;stroke-linejoin:round;stroke-miterlimit:10;stroke-opacity:1;stroke-dasharray:none"
           d="m 3551.93,596.625 0,-36.074"
           inkscape:connector-curvature="0" />
        <path
           id="path3050"
           style="fill:none;stroke:#000000;stroke-width:13.875;stroke-linecap:butt;stroke-linejoin:round;stroke-miterlimit:10;stroke-opacity:1;stroke-dasharray:none"
           d="m 3784.32,596.625 0,-36.074"
           inkscape:connector-curvature="0" />
        <path
           id="path3052"
           style="fill:none;stroke:#000000;stroke-width:13.875;stroke-linecap:butt;stroke-linejoin:round;stroke-miterlimit:10;stroke-opacity:1;stroke-dasharray:none"
           d="m 3319.52,596.625 0,-36.074"
           inkscape:connector-curvature="0" />
        <path
           id="path3054"
           style="fill:none;stroke:#000000;stroke-width:13.875;stroke-linecap:butt;stroke-linejoin:round;stroke-miterlimit:10;stroke-opacity:1;stroke-dasharray:none"
           d="m 2854.73,596.625 0,-36.074"
           inkscape:connector-curvature="0" />
        <path
           id="path3056"
           style="fill:none;stroke:#000000;stroke-width:13.875;stroke-linecap:butt;stroke-linejoin:round;stroke-miterlimit:10;stroke-opacity:1;stroke-dasharray:none"
           d="m 2622.32,596.625 0,-36.074"
           inkscape:connector-curvature="0" />
        <path
           id="path3058"
           style="fill:none;stroke:#000000;stroke-width:13.875;stroke-linecap:butt;stroke-linejoin:round;stroke-miterlimit:10;stroke-opacity:1;stroke-dasharray:none"
           d="m 2157.52,596.625 0,-36.074"
           inkscape:connector-curvature="0" />
        <path
           id="path3060"
           style="fill:none;stroke:#000000;stroke-width:13.875;stroke-linecap:butt;stroke-linejoin:round;stroke-miterlimit:10;stroke-opacity:1;stroke-dasharray:none"
           d="m 2389.93,596.625 0,-36.074"
           inkscape:connector-curvature="0" />
        <path
           id="path3062"
           style="fill:none;stroke:#000000;stroke-width:13.875;stroke-linecap:butt;stroke-linejoin:round;stroke-miterlimit:10;stroke-opacity:1;stroke-dasharray:none"
           d="m 1460.32,596.625 0,-36.074"
           inkscape:connector-curvature="0" />
        <path
           id="path3064"
           style="fill:none;stroke:#000000;stroke-width:13.875;stroke-linecap:butt;stroke-linejoin:round;stroke-miterlimit:10;stroke-opacity:1;stroke-dasharray:none"
           d="m 1692.72,596.625 0,-36.074"
           inkscape:connector-curvature="0" />
        <path
           id="path3066"
           style="fill:none;stroke:#000000;stroke-width:13.875;stroke-linecap:butt;stroke-linejoin:round;stroke-miterlimit:10;stroke-opacity:1;stroke-dasharray:none"
           d="m 1227.93,596.625 0,-36.074"
           inkscape:connector-curvature="0" />
        <path
           id="path3068"
           style="fill:none;stroke:#000000;stroke-width:13.875;stroke-linecap:butt;stroke-linejoin:round;stroke-miterlimit:10;stroke-opacity:1;stroke-dasharray:none"
           d="m 995.527,596.625 0,-36.074"
           inkscape:connector-curvature="0" />
        <path
           id="path3070"
           style="fill:none;stroke:#000000;stroke-width:13.875;stroke-linecap:butt;stroke-linejoin:round;stroke-miterlimit:10;stroke-opacity:1;stroke-dasharray:none"
           d="m 763.125,596.625 4648.015,0"
           inkscape:connector-curvature="0" />
      </g>
    </g>
    <g
       id="g3082"
       transform="matrix(0.125,0,0,-0.125,-1141.1607,359.23718)">
      <g
         clip-path="url(#clipPath3086)"
         id="g3084">
        <path
           id="path3090"
           style="fill:none;stroke:#000000;stroke-width:13.875;stroke-linecap:butt;stroke-linejoin:round;stroke-miterlimit:10;stroke-opacity:1;stroke-dasharray:none"
           d="m 763.125,596.625 0,-72.148"
           inkscape:connector-curvature="0" />
        <path
           id="path3092"
           style="fill:#000000;fill-opacity:1;fill-rule:nonzero;stroke:none"
           d="m 761.824,315.879 c -13.441,0 -24.281,6.258 -32.519,18.758 -8.239,12.504 -12.36,28.945 -12.36,49.312 0,20.965 4.121,37.656 12.36,50.09 8.238,12.43 19.293,18.633 33.168,18.633 13.875,0 24.968,-6.203 33.281,-18.633 8.308,-12.434 12.465,-29.055 12.465,-49.867 0,-20.953 -4.157,-37.574 -12.465,-49.867 -8.313,-12.282 -19.621,-18.426 -33.93,-18.426 z m 0.215,5.426 c 18.5,-0.875 27.75,20.449 27.75,63.949 0,41.484 -9.105,62.215 -27.316,62.215 -18.067,0 -27.098,-21.02 -27.098,-63.074 0,-41.196 8.887,-62.231 26.664,-63.09"
           inkscape:connector-curvature="0" />
        <path
           id="path3094"
           style="fill:none;stroke:#000000;stroke-width:13.875;stroke-linecap:butt;stroke-linejoin:round;stroke-miterlimit:10;stroke-opacity:1;stroke-dasharray:none"
           d="m 1925.13,596.625 0,-72.148"
           inkscape:connector-curvature="0" />
        <path
           id="path3096"
           style="fill:#000000;fill-opacity:1;fill-rule:nonzero;stroke:none"
           d="m 1844.07,315.879 c -13.45,0 -24.28,6.258 -32.52,18.758 -8.25,12.504 -12.37,28.945 -12.37,49.312 0,20.965 4.12,37.656 12.37,50.09 8.24,12.43 19.3,18.633 33.17,18.633 13.88,0 24.96,-6.203 33.28,-18.633 8.3,-12.434 12.47,-29.055 12.47,-49.867 0,-20.953 -4.17,-37.574 -12.47,-49.867 -8.32,-12.282 -19.62,-18.426 -33.93,-18.426 z m 0.21,5.426 c 18.51,-0.875 27.75,20.449 27.75,63.949 0,41.484 -9.1,62.215 -27.31,62.215 -18.06,0 -27.1,-21.02 -27.1,-63.074 0,-41.196 8.88,-62.231 26.66,-63.09 z m 68.33,-2.18 0,21.687 21.69,0 0,-21.687 -21.69,0 z m 55.42,-0.207 0,21.894 8.67,0 0.23,-1.957 0.2,-6.714 c 0.29,-7.231 5.93,-10.836 16.92,-10.836 8.09,0 14.52,3.175 19.3,9.531 4.76,6.367 7.14,14.957 7.14,25.809 0,12.417 -3.67,21.312 -11.06,26.652 -7.36,5.355 -19.43,8.035 -36.2,8.035 l -3.03,0 0,58.094 65.69,0 0,-15.18 -60.27,0 0,-36.422 8.02,0 c 36.71,0 55.07,-13.945 55.07,-41.832 0,-12.586 -4.23,-22.41 -12.68,-29.484 -8.47,-7.09 -20.14,-10.629 -35.02,-10.629 -7.37,0 -15.03,1.012 -22.98,3.039"
           inkscape:connector-curvature="0" />
        <path
           id="path3098"
           style="fill:none;stroke:#000000;stroke-width:13.875;stroke-linecap:butt;stroke-linejoin:round;stroke-miterlimit:10;stroke-opacity:1;stroke-dasharray:none"
           d="m 3087.13,596.625 0,-72.148"
           inkscape:connector-curvature="0" />
        <path
           id="path3100"
           style="fill:#000000;fill-opacity:1;fill-rule:nonzero;stroke:none"
           d="m 3088.27,450.73 0,-108.835 0.65,-8.672 c 0.14,-3.469 1.11,-5.746 2.92,-6.828 1.81,-1.083 5.53,-1.622 11.16,-1.622 l 10.41,-0.222 0,-5.426 -67.42,0 0,5.426 10.19,0.222 c 5.63,0 9.36,0.539 11.17,1.622 1.8,1.082 2.85,3.359 3.13,6.828 l 0.45,8.672 0,80.863 -0.45,8.894 c 0,4.188 -1.22,6.286 -3.68,6.286 -1.73,0 -5.78,-0.583 -12.14,-1.735 l -8.67,-1.512 0,5.411 42.28,10.628"
           inkscape:connector-curvature="0" />
        <path
           id="path3102"
           style="fill:none;stroke:#000000;stroke-width:13.875;stroke-linecap:butt;stroke-linejoin:round;stroke-miterlimit:10;stroke-opacity:1;stroke-dasharray:none"
           d="m 4249.14,596.625 0,-72.148"
           inkscape:connector-curvature="0" />
        <path
           id="path3104"
           style="fill:#000000;fill-opacity:1;fill-rule:nonzero;stroke:none"
           d="m 4184.39,450.73 0,-108.835 0.66,-8.672 c 0.14,-3.469 1.11,-5.746 2.91,-6.828 1.82,-1.083 5.54,-1.622 11.17,-1.622 l 10.41,-0.222 0,-5.426 -67.42,0 0,5.426 10.18,0.222 c 5.63,0 9.37,0.539 11.17,1.622 1.81,1.082 2.86,3.359 3.14,6.828 l 0.44,8.672 0,80.863 -0.44,8.894 c 0,4.188 -1.22,6.286 -3.68,6.286 -1.73,0 -5.79,-0.583 -12.14,-1.735 l -8.67,-1.512 0,5.411 42.27,10.628 z m 59.22,-131.605 0,21.687 21.69,0 0,-21.687 -21.69,0 z m 55.42,-0.207 0,21.894 8.67,0 0.23,-1.957 0.2,-6.714 c 0.29,-7.231 5.93,-10.836 16.92,-10.836 8.09,0 14.52,3.175 19.3,9.531 4.76,6.367 7.14,14.957 7.14,25.809 0,12.417 -3.67,21.312 -11.06,26.652 -7.36,5.355 -19.43,8.035 -36.2,8.035 l -3.03,0 0,58.094 65.69,0 0,-15.18 -60.27,0 0,-36.422 8.02,0 c 36.71,0 55.07,-13.945 55.07,-41.832 0,-12.586 -4.23,-22.41 -12.68,-29.484 -8.47,-7.09 -20.14,-10.629 -35.02,-10.629 -7.37,0 -15.03,1.012 -22.98,3.039"
           inkscape:connector-curvature="0" />
        <path
           id="path3106"
           style="fill:none;stroke:#000000;stroke-width:13.875;stroke-linecap:butt;stroke-linejoin:round;stroke-miterlimit:10;stroke-opacity:1;stroke-dasharray:none"
           d="m 5411.14,596.625 0,-72.148"
           inkscape:connector-curvature="0" />
        <path
           id="path3108"
           style="fill:#000000;fill-opacity:1;fill-rule:nonzero;stroke:none"
           d="m 5355.96,319.125 0,8.672 c 5.06,14.609 12.86,26.891 23.42,36.867 l 9.53,8.672 c 10.7,10.113 17.86,18.133 21.47,24.059 3.6,5.925 5.42,12.722 5.42,20.382 0,8.961 -2.21,16.11 -6.62,21.465 -4.41,5.34 -10.22,8.02 -17.45,8.02 -7.95,0 -14.67,-2.164 -20.16,-6.508 -2.03,-1.598 -3.32,-7.438 -3.9,-17.566 l 0,-2.165 -8.9,0 0,23.852 c 12.73,5.34 24.44,8.02 35.14,8.02 11.69,0 21.35,-3.333 28.93,-9.977 7.59,-6.645 11.39,-15.027 11.39,-25.141 0,-13.738 -8.53,-26.445 -25.59,-38.156 l -10.63,-7.367 c -16.9,-11.574 -26.15,-24.215 -27.75,-37.949 l 63.31,0 0,-15.18 -77.61,0"
           inkscape:connector-curvature="0" />
        <path
           id="path3110"
           style="fill:none;stroke:#000000;stroke-width:13.875;stroke-linecap:butt;stroke-linejoin:round;stroke-miterlimit:10;stroke-opacity:1;stroke-dasharray:none"
           d="m 763.125,4892.11 -36.074,0"
           inkscape:connector-curvature="0" />
        <path
           id="path3112"
           style="fill:none;stroke:#000000;stroke-width:13.875;stroke-linecap:butt;stroke-linejoin:round;stroke-miterlimit:10;stroke-opacity:1;stroke-dasharray:none"
           d="m 763.125,2983.02 -36.074,0"
           inkscape:connector-curvature="0" />
        <path
           id="path3114"
           style="fill:none;stroke:#000000;stroke-width:13.875;stroke-linecap:butt;stroke-linejoin:round;stroke-miterlimit:10;stroke-opacity:1;stroke-dasharray:none"
           d="m 763.125,3937.56 -36.074,0"
           inkscape:connector-curvature="0" />
        <path
           id="path3116"
           style="fill:none;stroke:#000000;stroke-width:13.875;stroke-linecap:butt;stroke-linejoin:round;stroke-miterlimit:10;stroke-opacity:1;stroke-dasharray:none"
           d="m 763.125,2028.46 -36.074,0"
           inkscape:connector-curvature="0" />
        <path
           id="path3118"
           style="fill:none;stroke:#000000;stroke-width:13.875;stroke-linecap:butt;stroke-linejoin:round;stroke-miterlimit:10;stroke-opacity:1;stroke-dasharray:none"
           d="m 763.125,1073.91 -36.074,0"
           inkscape:connector-curvature="0" />
        <path
           id="path3120"
           style="fill:none;stroke:#000000;stroke-width:13.875;stroke-linecap:butt;stroke-linejoin:round;stroke-miterlimit:10;stroke-opacity:1;stroke-dasharray:none"
           d="m 763.125,596.625 0,4772.765"
           inkscape:connector-curvature="0" />
      </g>
    </g>
    <g
       id="g3132"
       transform="matrix(0.125,0,0,-0.125,-1141.1607,359.23718)">
      <g
         clip-path="url(#clipPath3136)"
         id="g3134">
        <path
           id="path3140"
           style="fill:none;stroke:#000000;stroke-width:13.875;stroke-linecap:butt;stroke-linejoin:round;stroke-miterlimit:10;stroke-opacity:1;stroke-dasharray:none"
           d="m 763.125,596.625 -72.148,0"
           inkscape:connector-curvature="0" />
        <path
           id="path3142"
           style="fill:#000000;fill-opacity:1;fill-rule:nonzero;stroke:none"
           d="m 581.449,510.129 c -13.441,0 -24.281,6.258 -32.519,18.758 -8.239,12.504 -12.36,28.945 -12.36,49.312 0,20.965 4.121,37.656 12.36,50.09 8.238,12.43 19.293,18.633 33.168,18.633 13.875,0 24.968,-6.203 33.281,-18.633 8.309,-12.434 12.465,-29.055 12.465,-49.867 0,-20.953 -4.156,-37.574 -12.465,-49.867 -8.313,-12.282 -19.621,-18.426 -33.93,-18.426 z m 0.215,5.426 c 18.5,-0.875 27.75,20.449 27.75,63.949 0,41.484 -9.105,62.215 -27.316,62.215 -18.067,0 -27.098,-21.02 -27.098,-63.074 0,-41.196 8.887,-62.231 26.664,-63.09"
           inkscape:connector-curvature="0" />
        <path
           id="path3144"
           style="fill:none;stroke:#000000;stroke-width:13.875;stroke-linecap:butt;stroke-linejoin:round;stroke-miterlimit:10;stroke-opacity:1;stroke-dasharray:none"
           d="m 763.125,1551.18 -72.148,0"
           inkscape:connector-curvature="0" />
        <path
           id="path3146"
           style="fill:#000000;fill-opacity:1;fill-rule:nonzero;stroke:none"
           d="m 428.824,1467.5 c -13.441,0 -24.281,6.26 -32.519,18.76 -8.239,12.51 -12.36,28.95 -12.36,49.31 0,20.97 4.121,37.66 12.36,50.09 8.238,12.43 19.293,18.64 33.168,18.64 13.875,0 24.968,-6.21 33.281,-18.64 8.308,-12.43 12.465,-29.05 12.465,-49.86 0,-20.96 -4.157,-37.58 -12.465,-49.87 -8.313,-12.28 -19.621,-18.43 -33.93,-18.43 z m 0.215,5.43 c 18.5,-0.88 27.75,20.45 27.75,63.95 0,41.48 -9.105,62.21 -27.316,62.21 -18.067,0 -27.098,-21.02 -27.098,-63.07 0,-41.2 8.887,-62.23 26.664,-63.09 z m 68.332,-2.18 0,21.69 21.68,0 0,-21.69 -21.68,0 z m 48.91,0 0,8.67 c 5.059,14.61 12.864,26.89 23.414,36.87 l 9.539,8.67 c 10.696,10.11 17.848,18.13 21.461,24.06 3.614,5.93 5.422,12.72 5.422,20.38 0,8.96 -2.203,16.11 -6.613,21.47 -4.406,5.34 -10.227,8.02 -17.453,8.02 -7.949,0 -14.668,-2.17 -20.16,-6.51 -2.024,-1.6 -3.325,-7.44 -3.903,-17.57 l 0,-2.16 -8.89,0 0,23.85 c 12.718,5.34 24.425,8.02 35.121,8.02 11.707,0 21.355,-3.33 28.941,-9.98 7.59,-6.64 11.383,-15.02 11.383,-25.14 0,-13.74 -8.527,-26.44 -25.582,-38.15 l -10.621,-7.37 c -16.91,-11.58 -26.16,-24.22 -27.75,-37.95 l 63.305,0 0,-15.18 -77.614,0"
           inkscape:connector-curvature="0" />
        <path
           id="path3148"
           style="fill:none;stroke:#000000;stroke-width:13.875;stroke-linecap:butt;stroke-linejoin:round;stroke-miterlimit:10;stroke-opacity:1;stroke-dasharray:none"
           d="m 763.125,2505.74 -72.148,0"
           inkscape:connector-curvature="0" />
        <path
           id="path3150"
           style="fill:#000000;fill-opacity:1;fill-rule:nonzero;stroke:none"
           d="m 428.824,2424.88 c -13.441,0 -24.281,6.26 -32.519,18.76 -8.239,12.5 -12.36,28.94 -12.36,49.31 0,20.96 4.121,37.66 12.36,50.09 8.238,12.43 19.293,18.63 33.168,18.63 13.875,0 24.968,-6.2 33.281,-18.63 8.308,-12.43 12.465,-29.06 12.465,-49.87 0,-20.95 -4.157,-37.57 -12.465,-49.87 -8.313,-12.28 -19.621,-18.42 -33.93,-18.42 z m 0.215,5.42 c 18.5,-0.87 27.75,20.45 27.75,63.95 0,41.49 -9.105,62.22 -27.316,62.22 -18.067,0 -27.098,-21.02 -27.098,-63.08 0,-41.19 8.887,-62.23 26.664,-63.09 z m 68.332,-2.18 0,21.69 21.68,0 0,-21.69 -21.68,0 z m 100.074,36.87 -59.836,0 0,8.67 65.254,86.93 9.758,0 0,-82.38 17.344,0 0,-13.22 -17.344,0 0,-14.1 c 0,-6.93 0.539,-11.41 1.625,-13.44 1.082,-2.03 3.434,-3.11 7.047,-3.25 l 6.07,-0.43 1.516,-0.22 0,-5.43 -49.863,0 0,5.43 1.519,0.22 9.106,0.43 c 3.179,0.14 5.273,1.31 6.285,3.47 1.012,2.17 1.519,6.58 1.519,13.22 l 0,14.1 z m -50.082,13.22 50.082,0 0,66.34 -50.082,-66.34"
           inkscape:connector-curvature="0" />
        <path
           id="path3152"
           style="fill:none;stroke:#000000;stroke-width:13.875;stroke-linecap:butt;stroke-linejoin:round;stroke-miterlimit:10;stroke-opacity:1;stroke-dasharray:none"
           d="m 763.125,3460.29 -72.148,0"
           inkscape:connector-curvature="0" />
        <path
           id="path3154"
           style="fill:#000000;fill-opacity:1;fill-rule:nonzero;stroke:none"
           d="m 428.824,3382.25 c -13.441,0 -24.281,6.26 -32.519,18.76 -8.239,12.51 -12.36,28.95 -12.36,49.31 0,20.97 4.121,37.66 12.36,50.09 8.238,12.43 19.293,18.64 33.168,18.64 13.875,0 24.968,-6.21 33.281,-18.64 8.308,-12.43 12.465,-29.05 12.465,-49.86 0,-20.96 -4.157,-37.58 -12.465,-49.87 -8.313,-12.28 -19.621,-18.43 -33.93,-18.43 z m 0.215,5.43 c 18.5,-0.88 27.75,20.45 27.75,63.95 0,41.48 -9.105,62.21 -27.316,62.21 -18.067,0 -27.098,-21.02 -27.098,-63.07 0,-41.2 8.887,-62.23 26.664,-63.09 z m 68.332,-2.18 0,21.69 21.68,0 0,-21.69 -21.68,0 z m 64.086,66.78 c 8.238,11.27 18.715,16.92 31.434,16.92 11.418,0 20.742,-3.81 27.968,-11.4 7.227,-7.57 10.84,-17.44 10.84,-29.58 0,-13.01 -4.121,-23.92 -12.359,-32.74 -8.238,-8.82 -18.356,-13.23 -30.352,-13.23 -14.742,0 -26.086,5.75 -34.035,17.23 -7.949,11.49 -11.926,27.87 -11.926,49.11 0,22.41 4.59,39.79 13.766,52.14 9.18,12.36 22.152,18.54 38.918,18.54 10.84,0 20.379,-1.96 28.617,-5.86 l 0,-20.81 -8.672,0 -0.218,1.74 -0.434,6.28 c -0.289,3.92 -2.383,7.09 -6.285,9.55 -3.903,2.45 -8.817,3.67 -14.742,3.67 -10.262,0 -18.25,-5.38 -23.957,-16.15 -5.711,-10.76 -8.563,-25.9 -8.563,-45.41 z m 0.648,-18.65 c 0,-13.44 2.711,-24.42 8.129,-32.95 5.422,-8.52 12.395,-12.79 20.922,-12.79 15.321,0 22.981,12.65 22.981,37.95 0,24.84 -7.949,37.28 -23.848,37.28 -8.672,0 -15.535,-2.68 -20.594,-8.02 -5.058,-5.35 -7.59,-12.5 -7.59,-21.47"
           inkscape:connector-curvature="0" />
        <path
           id="path3156"
           style="fill:none;stroke:#000000;stroke-width:13.875;stroke-linecap:butt;stroke-linejoin:round;stroke-miterlimit:10;stroke-opacity:1;stroke-dasharray:none"
           d="m 763.125,4414.84 -72.148,0"
           inkscape:connector-curvature="0" />
        <path
           id="path3158"
           style="fill:#000000;fill-opacity:1;fill-rule:nonzero;stroke:none"
           d="m 428.824,4339.62 c -13.441,0 -24.281,6.26 -32.519,18.76 -8.239,12.5 -12.36,28.94 -12.36,49.32 0,20.96 4.121,37.65 12.36,50.08 8.238,12.43 19.293,18.64 33.168,18.64 13.875,0 24.968,-6.21 33.281,-18.64 8.308,-12.43 12.465,-29.05 12.465,-49.87 0,-20.95 -4.157,-37.57 -12.465,-49.86 -8.313,-12.28 -19.621,-18.43 -33.93,-18.43 z m 0.215,5.42 c 18.5,-0.86 27.75,20.46 27.75,63.96 0,41.48 -9.105,62.22 -27.316,62.22 -18.067,0 -27.098,-21.03 -27.098,-63.09 0,-41.19 8.887,-62.22 26.664,-63.09 z m 68.332,-2.16 0,21.67 21.68,0 0,-21.67 -21.68,0 z m 72.539,70.24 c -13.441,9.25 -20.16,19.36 -20.16,30.35 0,9.83 3.574,17.81 10.73,23.96 7.153,6.14 16.512,9.21 28.075,9.21 10.984,0 19.765,-2.6 26.34,-7.8 6.578,-5.21 9.867,-12.14 9.867,-20.82 0,-13.44 -8.602,-24.5 -25.801,-33.17 20.812,-8.81 31.219,-21.53 31.219,-38.15 0,-10.99 -4.118,-19.91 -12.356,-26.78 -8.238,-6.86 -18.863,-10.3 -31.871,-10.3 -12.719,0 -23.015,3.22 -30.894,9.65 -7.875,6.43 -11.813,14.85 -11.813,25.26 0,17.49 8.887,30.35 26.664,38.59 z m 24.281,4.55 c 10.262,7.52 15.395,17.49 15.395,29.92 0,7.08 -2.098,12.79 -6.289,17.12 -4.192,4.34 -9.684,6.51 -16.477,6.51 -6.07,0 -11.238,-2.13 -15.5,-6.4 -4.265,-4.26 -6.394,-9.5 -6.394,-15.71 0,-6.07 1.949,-11.17 5.851,-15.29 3.903,-4.12 11.707,-9.5 23.414,-16.15 z m -20.379,-8.46 c -8.816,-8.09 -13.222,-18.93 -13.222,-32.51 0,-9.69 2.383,-17.38 7.152,-23.09 4.77,-5.71 11.129,-8.57 19.078,-8.57 7.516,0 13.731,2.53 18.645,7.59 4.914,5.06 7.371,11.42 7.371,19.08 0,6.36 -1.879,11.67 -5.637,15.93 -3.758,4.27 -10.765,9.22 -21.027,14.86 l -12.36,6.71"
           inkscape:connector-curvature="0" />
        <path
           id="path3160"
           style="fill:none;stroke:#000000;stroke-width:13.875;stroke-linecap:butt;stroke-linejoin:round;stroke-miterlimit:10;stroke-opacity:1;stroke-dasharray:none"
           d="m 763.125,5369.39 -72.148,0"
           inkscape:connector-curvature="0" />
        <path
           id="path3162"
           style="fill:#000000;fill-opacity:1;fill-rule:nonzero;stroke:none"
           d="m 590.77,5417.97 0,-108.83 0.652,-8.67 c 0.144,-3.47 1.121,-5.75 2.926,-6.83 1.808,-1.09 5.527,-1.63 11.164,-1.63 l 10.406,-0.21 0,-5.42 -67.422,0 0,5.42 10.188,0.21 c 5.636,0 9.359,0.54 11.168,1.63 1.804,1.08 2.851,3.36 3.14,6.83 l 0.434,8.67 0,80.86 -0.434,8.89 c 0,4.2 -1.226,6.29 -3.683,6.29 -1.735,0 -5.782,-0.58 -12.141,-1.73 l -8.672,-1.52 0,5.42 42.274,10.62"
           inkscape:connector-curvature="0" />
      </g>
    </g>
    <g
       style="font-style:normal;font-variant:normal;font-weight:normal;font-stretch:normal;letter-spacing:normal;word-spacing:normal;text-anchor:start;fill:none;stroke:#000000;stroke-linecap:butt;stroke-linejoin:miter;stroke-miterlimit:10.43299961;stroke-opacity:1;stroke-dasharray:none;stroke-dashoffset:0"
       id="content"
       transform="matrix(4.7407761,0,0,-4.7407761,-1561.4928,3610.7712)"
       xml:space="preserve"
       stroke-miterlimit="10.433"
       font-style="normal"
       font-variant="normal"
       font-weight="normal"
       font-stretch="normal"
       font-size-adjust="none"
       letter-spacing="normal"
       word-spacing="normal"
       ns0:text="$z$"
       ns0:preamble="">
<path
   style="fill:#000000;stroke-width:0"
   inkscape:connector-curvature="0"
   d="m 224.76,707.95 0.04,0.05 0.05,0.05 0.05,0.05 0.05,0.05 0.04,0.05 0.04,0.04 0.05,0.04 0.04,0.05 0.04,0.04 0.04,0.04 0.03,0.03 0.04,0.04 0.04,0.04 0.03,0.03 0.07,0.07 0.07,0.06 0.07,0.06 0.06,0.06 0.07,0.06 0.13,0.11 0.06,0.05 0.07,0.06 c 0,0.01 0.62,0.54 0.97,0.9 0.95,0.92 1.17,1.4 1.17,1.44 0,0.1 -0.09,0.1 -0.11,0.1 -0.07,0 -0.1,-0.02 -0.15,-0.11 -0.3,-0.48 -0.51,-0.64 -0.75,-0.64 -0.23,0 -0.36,0.15 -0.5,0.32 -0.19,0.23 -0.36,0.43 -0.69,0.43 -0.75,0 -1.2,-0.93 -1.2,-1.14 0,-0.05 0.03,-0.11 0.11,-0.11 0.09,0 0.11,0.05 0.13,0.11 0.19,0.46 0.77,0.47 0.85,0.47 0.21,0 0.4,-0.07 0.63,-0.15 0.39,-0.15 0.5,-0.15 0.76,-0.15 -0.36,-0.43 -1.19,-1.14 -1.38,-1.3 l -0.9,-0.83 c -0.67,-0.67 -1.02,-1.24 -1.02,-1.31 0,-0.09 0.1,-0.09 0.12,-0.09 0.08,0 0.1,0.02 0.16,0.13 0.23,0.34 0.53,0.61 0.84,0.61 0.23,0 0.33,-0.09 0.58,-0.38 0.17,-0.21 0.35,-0.36 0.64,-0.36 0.98,0 1.56,1.26 1.56,1.53 0,0.04 -0.04,0.1 -0.12,0.1 -0.09,0 -0.11,-0.06 -0.14,-0.13 -0.23,-0.65 -0.86,-0.84 -1.19,-0.84 -0.2,0 -0.38,0.06 -0.59,0.13 -0.34,0.13 -0.49,0.17 -0.7,0.17 -0.02,0 -0.17,0 -0.26,-0.03 z"
   id="path3439" />
</g>    <path
       style="fill:none;fill-opacity:1;stroke:#000000;stroke-width:0.70899999;stroke-linecap:butt;stroke-linejoin:round;stroke-miterlimit:4;stroke-opacity:1;stroke-dasharray:5.67199993,5.67199993;stroke-dashoffset:0"
       d="m -755.26945,286.39193 0,-620.90475"
       id="path4449"
       inkscape:connector-curvature="0" />
    <path
       style="fill:none;stroke:#000000;stroke-width:0.70899999;stroke-linecap:butt;stroke-linejoin:round;stroke-miterlimit:4;stroke-opacity:1;stroke-dasharray:5.67199993, 5.67199993;stroke-dashoffset:0"
       d="m -755.26945,-101.93684 -338.72575,0"
       id="path4820"
       inkscape:connector-curvature="0" />
    <g
       style="font-style:normal;font-variant:normal;font-weight:normal;font-stretch:normal;letter-spacing:normal;word-spacing:normal;text-anchor:start;fill:#ff0007;fill-opacity:1;stroke:#ff0707;stroke-linecap:butt;stroke-linejoin:miter;stroke-miterlimit:10.43299960999999954;stroke-opacity:1;stroke-dasharray:none;stroke-dashoffset:0"
       ns0:preamble=""
       ns0:text="$g_k(z)$"
       text-anchor="start"
       word-spacing="normal"
       letter-spacing="normal"
       font-size-adjust="none"
       font-stretch="normal"
       font-weight="normal"
       font-variant="normal"
       font-style="normal"
       fill-opacity="1"
       fill-rule="evenodd"
       fill="none"
       stroke-opacity="1"
       stroke-dashoffset="0"
       stroke-dasharray="none"
       stroke-miterlimit="10.433"
       stroke-linejoin="miter"
       stroke-linecap="butt"
       stroke="black"
       xml:space="preserve"
       transform="matrix(4.550191,0,0,-4.550191,-1590.9827,3048.8927)"
       id="g5141">
<path
   id="path5143"
   fill="black"
   stroke-width="0"
   d="M228.12,710.87 L228.12,710.88 L228.12,710.89 L228.12,710.9 L228.13,710.91 L228.13,710.93 L228.13,710.95 L228.14,710.96 L228.14,710.97 L228.14,710.98 L228.14,710.99 L228.14,711 L228.15,711.01 L228.15,711.02 L228.15,711.02 L228.15,711.03 L228.15,711.04 L228.15,711.04 L228.15,711.05 C228.15,711.22,228.03,711.32,227.86,711.32 C227.76,711.32,227.49,711.25,227.45,710.89 C227.27,711.26,226.92,711.52,226.53,711.52 L226.54,711.3 C227.19,711.3,227.33,710.49,227.33,710.44 C227.33,710.39,227.31,710.33,227.3,710.29 L226.82,708.4 C226.76,708.14,226.54,707.89,226.32,707.7 C226.11,707.52,225.8,707.34,225.51,707.34 C225.01,707.34,224.87,707.86,224.87,708.26 C224.87,708.73,225.15,709.91,225.42,710.41 C225.69,710.9,226.12,711.3,226.54,711.3 L226.53,711.52 C225.39,711.52,224.16,710.12,224.16,708.69 C224.16,707.71,224.76,707.12,225.48,707.12 C226.07,707.12,226.54,707.59,226.64,707.7 L226.65,707.69 C226.44,706.81,226.32,706.4,226.32,706.38 C226.28,706.29,225.94,705.31,224.88,705.31 C224.7,705.31,224.37,705.32,224.09,705.41 C224.39,705.5,224.5,705.75,224.5,705.92 C224.5,706.08,224.39,706.27,224.12,706.27 C223.9,706.27,223.58,706.09,223.58,705.69 C223.58,705.29,223.95,705.09,224.9,705.09 C226.15,705.09,226.86,705.86,227.01,706.46 Z "
   style="fill:#ff0007;fill-opacity:1" />
<path
   id="path5145"
   fill="black"
   stroke-width="0"
   d="M230.36,710.25 L230.36,710.25 L230.36,710.25 L230.37,710.25 L230.37,710.25 L230.37,710.25 L230.37,710.25 L230.37,710.26 L230.37,710.26 L230.37,710.26 L230.37,710.26 L230.37,710.27 L230.37,710.27 L230.37,710.27 L230.37,710.28 L230.37,710.28 L230.38,710.29 L230.38,710.29 L230.38,710.3 L230.38,710.31 L230.38,710.31 L230.38,710.32 L230.38,710.32 L230.38,710.32 L230.39,710.33 L230.39,710.33 L230.39,710.34 L230.39,710.34 L230.39,710.34 L230.39,710.35 L230.39,710.35 L230.39,710.35 L230.39,710.35 L230.39,710.35 L230.39,710.35 L230.39,710.36 L230.39,710.36 L230.39,710.36 L230.39,710.36 L230.39,710.36 L230.39,710.36 L230.39,710.36 C230.39,710.39,230.36,710.46,230.28,710.46 C230.14,710.46,229.56,710.4,229.39,710.39 C229.33,710.38,229.24,710.37,229.24,710.23 C229.24,710.13,229.33,710.13,229.42,710.13 C229.75,710.13,229.75,710.08,229.75,710.03 C229.75,709.98,229.74,709.93,229.72,709.87 L228.74,705.94 C228.71,705.81,228.71,705.8,228.71,705.78 C228.71,705.68,228.79,705.56,228.94,705.56 C229.13,705.56,229.22,705.7,229.26,705.85 C229.28,705.88,229.58,707.1,229.6,707.2 C230.1,707.15,230.5,706.99,230.5,706.63 C230.5,706.6,230.5,706.56,230.48,706.49 C230.45,706.39,230.45,706.35,230.45,706.28 C230.45,705.78,230.86,705.56,231.19,705.56 C231.87,705.56,232.08,706.62,232.08,706.62 C232.08,706.72,231.99,706.72,231.97,706.72 C231.87,706.72,231.86,706.68,231.83,706.55 C231.74,706.25,231.55,705.76,231.21,705.76 C231.02,705.76,230.97,705.93,230.97,706.12 C230.97,706.24,230.97,706.25,231.01,706.43 C231.02,706.45,231.05,706.57,231.05,706.65 C231.05,707.27,230.21,707.36,229.92,707.38 C230.12,707.51,230.38,707.74,230.5,707.84 C230.85,708.18,231.2,708.5,231.59,708.5 C231.67,708.5,231.76,708.48,231.82,708.41 C231.52,708.36,231.46,708.13,231.46,708.02 C231.46,707.87,231.58,707.77,231.74,707.77 C231.92,707.77,232.13,707.92,232.13,708.21 C232.13,708.44,231.97,708.7,231.6,708.7 C231.2,708.7,230.84,708.41,230.48,708.09 C230.19,707.81,229.96,707.59,229.67,707.47 Z "
   style="fill:#ff0007;fill-opacity:1" />
<path
   id="path5147"
   fill="black"
   stroke-width="0"
   d="M236.38,704.74 L236.38,704.75 L236.38,704.75 L236.38,704.75 L236.38,704.76 L236.38,704.76 L236.38,704.76 L236.38,704.77 L236.37,704.77 L236.37,704.77 L236.37,704.78 L236.37,704.78 L236.36,704.79 L236.36,704.79 L236.36,704.8 L236.35,704.8 L236.35,704.81 L236.34,704.82 L236.34,704.82 L236.33,704.83 L236.33,704.83 L236.33,704.84 L236.32,704.84 L236.32,704.84 L236.32,704.85 L236.31,704.85 L236.31,704.86 L236.3,704.86 L236.3,704.87 L236.29,704.87 L236.29,704.88 L236.28,704.88 L236.28,704.89 L236.27,704.9 L236.27,704.9 L236.26,704.91 L236.25,704.92 L236.25,704.92 L236.24,704.93 L236.23,704.94 L236.23,704.94 L236.22,704.95 L236.21,704.96 C234.97,706.21,234.65,708.09,234.65,709.61 C234.65,711.34,235.03,713.07,236.25,714.31 C236.38,714.43,236.38,714.45,236.38,714.48 C236.38,714.55,236.34,714.58,236.28,714.58 C236.18,714.58,235.29,713.9,234.7,712.64 C234.19,711.55,234.07,710.44,234.07,709.61 C234.07,708.83,234.18,707.63,234.73,706.51 C235.32,705.29,236.18,704.64,236.28,704.64 C236.34,704.64,236.38,704.67,236.38,704.74 Z "
   style="fill:#ff0007;fill-opacity:1" />
<path
   id="path5149"
   fill="black"
   stroke-width="0"
   d="M238.28,707.95 L238.33,708 L238.38,708.05 L238.43,708.1 L238.47,708.15 L238.52,708.2 L238.56,708.24 L238.6,708.28 L238.64,708.33 L238.68,708.37 L238.72,708.41 L238.76,708.44 L238.8,708.48 L238.84,708.52 L238.87,708.55 L238.94,708.62 L239.01,708.68 L239.08,708.74 L239.14,708.8 L239.21,708.86 L239.34,708.97 L239.4,709.02 L239.47,709.08 C239.47,709.09,240.08,709.62,240.44,709.98 C241.39,710.9,241.61,711.38,241.61,711.42 C241.61,711.52,241.52,711.52,241.5,711.52 C241.43,711.52,241.4,711.5,241.35,711.41 C241.05,710.93,240.84,710.77,240.6,710.77 C240.36,710.77,240.24,710.92,240.09,711.09 C239.9,711.32,239.74,711.52,239.41,711.52 C238.66,711.52,238.2,710.59,238.2,710.38 C238.2,710.33,238.23,710.27,238.32,710.27 C238.41,710.27,238.43,710.32,238.45,710.38 C238.64,710.84,239.22,710.85,239.3,710.85 C239.51,710.85,239.7,710.78,239.93,710.7 C240.32,710.55,240.43,710.55,240.69,710.55 C240.33,710.12,239.5,709.41,239.31,709.25 L238.41,708.42 C237.74,707.75,237.39,707.18,237.39,707.11 C237.39,707.02,237.49,707.02,237.51,707.02 C237.59,707.02,237.61,707.04,237.67,707.15 C237.9,707.49,238.19,707.76,238.51,707.76 C238.74,707.76,238.84,707.67,239.09,707.38 C239.26,707.17,239.44,707.02,239.73,707.02 C240.71,707.02,241.29,708.28,241.29,708.55 C241.29,708.59,241.25,708.65,241.17,708.65 C241.08,708.65,241.06,708.59,241.03,708.52 C240.8,707.87,240.16,707.68,239.84,707.68 C239.64,707.68,239.46,707.74,239.25,707.81 C238.91,707.94,238.76,707.98,238.55,707.98 C238.53,707.98,238.37,707.98,238.28,707.95 Z "
   style="fill:#ff0007;fill-opacity:1" />
<path
   id="path5151"
   fill="black"
   stroke-width="0"
   d="M244.91,709.61 L244.91,709.68 L244.9,709.76 L244.9,709.84 L244.9,709.92 L244.89,710.09 L244.88,710.26 L244.86,710.44 L244.84,710.63 L244.82,710.83 L244.78,711.03 L244.74,711.23 L244.7,711.44 L244.64,711.65 L244.58,711.86 L244.51,712.07 L244.44,712.28 L244.39,712.39 L244.35,712.5 L244.3,712.6 L244.25,712.71 C243.65,713.93,242.8,714.58,242.7,714.58 C242.64,714.58,242.6,714.54,242.6,714.48 C242.6,714.45,242.6,714.43,242.79,714.25 C243.76,713.26,244.33,711.68,244.33,709.61 C244.33,707.91,243.96,706.16,242.73,704.91 C242.6,704.79,242.6,704.77,242.6,704.74 C242.6,704.68,242.64,704.64,242.7,704.64 C242.8,704.64,243.69,705.32,244.28,706.58 C244.79,707.67,244.91,708.77,244.91,709.61 Z "
   style="fill:#ff0007;fill-opacity:1" />
</g>    <g
       id="g5333"
       transform="matrix(3.8757595,0,0,-3.8757595,-1450.785,2429.3004)"
       xml:space="preserve"
       stroke="black"
       stroke-linecap="butt"
       stroke-linejoin="miter"
       stroke-miterlimit="10.433"
       stroke-dasharray="none"
       stroke-dashoffset="0"
       stroke-opacity="1"
       fill="none"
       fill-rule="evenodd"
       fill-opacity="1"
       font-style="normal"
       font-variant="normal"
       font-weight="normal"
       font-stretch="normal"
       font-size-adjust="none"
       letter-spacing="normal"
       word-spacing="normal"
       text-anchor="start"
       ns0:text="$g_k(1)z$"
       ns0:preamble=""
       style="font-style:normal;font-variant:normal;font-weight:normal;font-stretch:normal;letter-spacing:normal;word-spacing:normal;text-anchor:start;fill:#ff0707;fill-opacity:1;fill-rule:evenodd;stroke:#ff0707;stroke-linecap:butt;stroke-linejoin:miter;stroke-miterlimit:10.43299961;stroke-opacity:1;stroke-dasharray:none;stroke-dashoffset:0">
<path
   d="M228.12,710.87 L228.12,710.88 L228.12,710.89 L228.12,710.9 L228.13,710.91 L228.13,710.93 L228.13,710.95 L228.14,710.96 L228.14,710.97 L228.14,710.98 L228.14,710.99 L228.14,711 L228.15,711.01 L228.15,711.02 L228.15,711.02 L228.15,711.03 L228.15,711.04 L228.15,711.04 L228.15,711.05 C228.15,711.22,228.03,711.32,227.86,711.32 C227.76,711.32,227.49,711.25,227.45,710.89 C227.27,711.26,226.92,711.52,226.53,711.52 L226.54,711.3 C227.19,711.3,227.33,710.49,227.33,710.44 C227.33,710.39,227.31,710.33,227.3,710.29 L226.82,708.4 C226.76,708.14,226.54,707.89,226.32,707.7 C226.11,707.52,225.8,707.34,225.51,707.34 C225.01,707.34,224.87,707.86,224.87,708.26 C224.87,708.73,225.15,709.91,225.42,710.41 C225.69,710.9,226.12,711.3,226.54,711.3 L226.53,711.52 C225.39,711.52,224.16,710.12,224.16,708.69 C224.16,707.71,224.76,707.12,225.48,707.12 C226.07,707.12,226.54,707.59,226.64,707.7 L226.65,707.69 C226.44,706.81,226.32,706.4,226.32,706.38 C226.28,706.29,225.94,705.31,224.88,705.31 C224.7,705.31,224.37,705.32,224.09,705.41 C224.39,705.5,224.5,705.75,224.5,705.92 C224.5,706.08,224.39,706.27,224.12,706.27 C223.9,706.27,223.58,706.09,223.58,705.69 C223.58,705.29,223.95,705.09,224.9,705.09 C226.15,705.09,226.86,705.86,227.01,706.46 Z "
   stroke-width="0"
   fill="black"
   id="path5335" />
<path
   d="M230.36,710.25 L230.36,710.25 L230.36,710.25 L230.37,710.25 L230.37,710.25 L230.37,710.25 L230.37,710.25 L230.37,710.26 L230.37,710.26 L230.37,710.26 L230.37,710.26 L230.37,710.27 L230.37,710.27 L230.37,710.27 L230.37,710.28 L230.37,710.28 L230.38,710.29 L230.38,710.29 L230.38,710.3 L230.38,710.31 L230.38,710.31 L230.38,710.32 L230.38,710.32 L230.38,710.32 L230.39,710.33 L230.39,710.33 L230.39,710.34 L230.39,710.34 L230.39,710.34 L230.39,710.35 L230.39,710.35 L230.39,710.35 L230.39,710.35 L230.39,710.35 L230.39,710.35 L230.39,710.36 L230.39,710.36 L230.39,710.36 L230.39,710.36 L230.39,710.36 L230.39,710.36 L230.39,710.36 C230.39,710.39,230.36,710.46,230.28,710.46 C230.14,710.46,229.56,710.4,229.39,710.39 C229.33,710.38,229.24,710.37,229.24,710.23 C229.24,710.13,229.33,710.13,229.42,710.13 C229.75,710.13,229.75,710.08,229.75,710.03 C229.75,709.98,229.74,709.93,229.72,709.87 L228.74,705.94 C228.71,705.81,228.71,705.8,228.71,705.78 C228.71,705.68,228.79,705.56,228.94,705.56 C229.13,705.56,229.22,705.7,229.26,705.85 C229.28,705.88,229.58,707.1,229.6,707.2 C230.1,707.15,230.5,706.99,230.5,706.63 C230.5,706.6,230.5,706.56,230.48,706.49 C230.45,706.39,230.45,706.35,230.45,706.28 C230.45,705.78,230.86,705.56,231.19,705.56 C231.87,705.56,232.08,706.62,232.08,706.62 C232.08,706.72,231.99,706.72,231.97,706.72 C231.87,706.72,231.86,706.68,231.83,706.55 C231.74,706.25,231.55,705.76,231.21,705.76 C231.02,705.76,230.97,705.93,230.97,706.12 C230.97,706.24,230.97,706.25,231.01,706.43 C231.02,706.45,231.05,706.57,231.05,706.65 C231.05,707.27,230.21,707.36,229.92,707.38 C230.12,707.51,230.38,707.74,230.5,707.84 C230.85,708.18,231.2,708.5,231.59,708.5 C231.67,708.5,231.76,708.48,231.82,708.41 C231.52,708.36,231.46,708.13,231.46,708.02 C231.46,707.87,231.58,707.77,231.74,707.77 C231.92,707.77,232.13,707.92,232.13,708.21 C232.13,708.44,231.97,708.7,231.6,708.7 C231.2,708.7,230.84,708.41,230.48,708.09 C230.19,707.81,229.96,707.59,229.67,707.47 Z "
   stroke-width="0"
   fill="black"
   id="path5337" />
<path
   d="M236.38,704.74 L236.38,704.75 L236.38,704.75 L236.38,704.75 L236.38,704.76 L236.38,704.76 L236.38,704.76 L236.38,704.77 L236.37,704.77 L236.37,704.77 L236.37,704.78 L236.37,704.78 L236.36,704.79 L236.36,704.79 L236.36,704.8 L236.35,704.8 L236.35,704.81 L236.34,704.82 L236.34,704.82 L236.33,704.83 L236.33,704.83 L236.33,704.84 L236.32,704.84 L236.32,704.84 L236.32,704.85 L236.31,704.85 L236.31,704.86 L236.3,704.86 L236.3,704.87 L236.29,704.87 L236.29,704.88 L236.28,704.88 L236.28,704.89 L236.27,704.9 L236.27,704.9 L236.26,704.91 L236.25,704.92 L236.25,704.92 L236.24,704.93 L236.23,704.94 L236.23,704.94 L236.22,704.95 L236.21,704.96 C234.97,706.21,234.65,708.09,234.65,709.61 C234.65,711.34,235.03,713.07,236.25,714.31 C236.38,714.43,236.38,714.45,236.38,714.48 C236.38,714.55,236.34,714.58,236.28,714.58 C236.18,714.58,235.29,713.9,234.7,712.64 C234.19,711.55,234.07,710.44,234.07,709.61 C234.07,708.83,234.18,707.63,234.73,706.51 C235.32,705.29,236.18,704.64,236.28,704.64 C236.34,704.64,236.38,704.67,236.38,704.74 Z "
   stroke-width="0"
   fill="black"
   id="path5339" />
<path
   d="M239.89,713.48 L239.89,713.49 L239.89,713.5 L239.89,713.52 L239.89,713.53 L239.89,713.53 L239.89,713.54 L239.89,713.55 L239.89,713.56 L239.89,713.57 L239.89,713.58 L239.88,713.59 L239.88,713.6 L239.88,713.6 L239.88,713.61 L239.88,713.62 L239.88,713.62 L239.88,713.63 L239.88,713.64 L239.88,713.65 L239.88,713.66 L239.87,713.67 L239.87,713.68 L239.87,713.69 L239.86,713.69 L239.86,713.7 L239.85,713.71 L239.85,713.71 L239.84,713.72 L239.83,713.72 L239.82,713.73 L239.82,713.73 L239.81,713.73 L239.81,713.73 L239.8,713.73 L239.8,713.73 L239.79,713.73 L239.78,713.74 L239.78,713.74 L239.77,713.74 L239.76,713.74 L239.76,713.74 L239.75,713.74 L239.74,713.74 L239.73,713.74 L239.72,713.74 L239.72,713.74 L239.71,713.74 L239.7,713.74 L239.69,713.74 L239.68,713.74 L239.67,713.74 L239.66,713.74 C239.04,713.1,238.16,713.1,237.85,713.1 V712.8 C238.04,712.8,238.63,712.8,239.15,713.05 V707.91 C239.15,707.55,239.12,707.43,238.22,707.43 H237.91 V707.12 C238.25,707.16,239.12,707.16,239.52,707.16 C239.91,707.16,240.78,707.16,241.13,707.12 V707.43 H240.81 C239.91,707.43,239.89,707.54,239.89,707.91 Z "
   stroke-width="0"
   fill="black"
   id="path5341" />
<path
   d="M244.82,709.61 L244.82,709.68 L244.82,709.76 L244.81,709.84 L244.81,709.92 L244.8,710.09 L244.79,710.26 L244.77,710.44 L244.75,710.63 L244.73,710.83 L244.69,711.03 L244.65,711.23 L244.61,711.44 L244.56,711.65 L244.49,711.86 L244.42,712.07 L244.35,712.28 L244.3,712.39 L244.26,712.5 L244.21,712.6 L244.16,712.71 C243.56,713.93,242.71,714.58,242.61,714.58 C242.55,714.58,242.51,714.54,242.51,714.48 C242.51,714.45,242.51,714.43,242.7,714.25 C243.67,713.26,244.24,711.68,244.24,709.61 C244.24,707.91,243.87,706.16,242.64,704.91 C242.51,704.79,242.51,704.77,242.51,704.74 C242.51,704.68,242.55,704.64,242.61,704.64 C242.71,704.64,243.6,705.32,244.19,706.58 C244.7,707.67,244.82,708.77,244.82,709.61 Z "
   stroke-width="0"
   fill="black"
   id="path5343" />
<path
   d="M247.14,707.95 L247.19,708 L247.24,708.05 L247.28,708.1 L247.33,708.15 L247.37,708.2 L247.42,708.24 L247.46,708.28 L247.5,708.33 L247.54,708.37 L247.58,708.41 L247.62,708.44 L247.66,708.48 L247.69,708.52 L247.73,708.55 L247.8,708.62 L247.87,708.68 L247.93,708.74 L248,708.8 L248.06,708.86 L248.19,708.97 L248.26,709.02 L248.32,709.08 C248.32,709.09,248.94,709.62,249.3,709.98 C250.24,710.9,250.46,711.38,250.46,711.42 C250.46,711.52,250.37,711.52,250.35,711.52 C250.28,711.52,250.25,711.5,250.2,711.41 C249.9,710.93,249.7,710.77,249.46,710.77 C249.22,710.77,249.1,710.92,248.95,711.09 C248.76,711.32,248.59,711.52,248.26,711.52 C247.52,711.52,247.06,710.59,247.06,710.38 C247.06,710.33,247.09,710.27,247.18,710.27 C247.27,710.27,247.29,710.32,247.31,710.38 C247.5,710.84,248.07,710.85,248.15,710.85 C248.36,710.85,248.55,710.78,248.78,710.7 C249.18,710.55,249.29,710.55,249.55,710.55 C249.19,710.12,248.35,709.41,248.16,709.25 L247.27,708.42 C246.59,707.75,246.24,707.18,246.24,707.11 C246.24,707.02,246.34,707.02,246.36,707.02 C246.44,707.02,246.46,707.04,246.52,707.15 C246.75,707.49,247.05,707.76,247.37,707.76 C247.6,707.76,247.7,707.67,247.95,707.38 C248.11,707.17,248.29,707.02,248.58,707.02 C249.57,707.02,250.14,708.28,250.14,708.55 C250.14,708.59,250.1,708.65,250.02,708.65 C249.93,708.65,249.91,708.59,249.88,708.52 C249.66,707.87,249.02,707.68,248.69,707.68 C248.49,707.68,248.31,707.74,248.1,707.81 C247.77,707.94,247.62,707.98,247.41,707.98 C247.39,707.98,247.23,707.98,247.14,707.95 Z "
   stroke-width="0"
   fill="black"
   id="path5345" />
</g>    <g
       style="font-style:normal;font-variant:normal;font-weight:normal;font-stretch:normal;letter-spacing:normal;word-spacing:normal;text-anchor:start;fill:none;stroke:#000000;stroke-linecap:butt;stroke-linejoin:miter;stroke-miterlimit:10.43299961;stroke-opacity:1;stroke-dasharray:none;stroke-dashoffset:0"
       ns0:preamble=""
       ns0:text="$g_k(1)$"
       text-anchor="start"
       word-spacing="normal"
       letter-spacing="normal"
       font-size-adjust="none"
       font-stretch="normal"
       font-weight="normal"
       font-variant="normal"
       font-style="normal"
       fill-opacity="1"
       fill-rule="evenodd"
       fill="none"
       stroke-opacity="1"
       stroke-dashoffset="0"
       stroke-dasharray="none"
       stroke-miterlimit="10.433"
       stroke-linejoin="miter"
       stroke-linecap="butt"
       stroke="black"
       xml:space="preserve"
       transform="matrix(4.1806345,0,0,-4.1806345,-2113.5277,2862.467)"
       id="g5530">
<path
   id="path5532"
   fill="black"
   stroke-width="0"
   d="M228.12,710.87 L228.12,710.88 L228.12,710.89 L228.12,710.9 L228.13,710.91 L228.13,710.93 L228.13,710.95 L228.14,710.96 L228.14,710.97 L228.14,710.98 L228.14,710.99 L228.14,711 L228.15,711.01 L228.15,711.02 L228.15,711.02 L228.15,711.03 L228.15,711.04 L228.15,711.04 L228.15,711.05 C228.15,711.22,228.03,711.32,227.86,711.32 C227.76,711.32,227.49,711.25,227.45,710.89 C227.27,711.26,226.92,711.52,226.53,711.52 L226.54,711.3 C227.19,711.3,227.33,710.49,227.33,710.44 C227.33,710.39,227.31,710.33,227.3,710.29 L226.82,708.4 C226.76,708.14,226.54,707.89,226.32,707.7 C226.11,707.52,225.8,707.34,225.51,707.34 C225.01,707.34,224.87,707.86,224.87,708.26 C224.87,708.73,225.15,709.91,225.42,710.41 C225.69,710.9,226.12,711.3,226.54,711.3 L226.53,711.52 C225.39,711.52,224.16,710.12,224.16,708.69 C224.16,707.71,224.76,707.12,225.48,707.12 C226.07,707.12,226.54,707.59,226.64,707.7 L226.65,707.69 C226.44,706.81,226.32,706.4,226.32,706.38 C226.28,706.29,225.94,705.31,224.88,705.31 C224.7,705.31,224.37,705.32,224.09,705.41 C224.39,705.5,224.5,705.75,224.5,705.92 C224.5,706.08,224.39,706.27,224.12,706.27 C223.9,706.27,223.58,706.09,223.58,705.69 C223.58,705.29,223.95,705.09,224.9,705.09 C226.15,705.09,226.86,705.86,227.01,706.46 Z " />
<path
   id="path5534"
   fill="black"
   stroke-width="0"
   d="M230.36,710.25 L230.36,710.25 L230.36,710.25 L230.37,710.25 L230.37,710.25 L230.37,710.25 L230.37,710.25 L230.37,710.26 L230.37,710.26 L230.37,710.26 L230.37,710.26 L230.37,710.27 L230.37,710.27 L230.37,710.27 L230.37,710.28 L230.37,710.28 L230.38,710.29 L230.38,710.29 L230.38,710.3 L230.38,710.31 L230.38,710.31 L230.38,710.32 L230.38,710.32 L230.38,710.32 L230.39,710.33 L230.39,710.33 L230.39,710.34 L230.39,710.34 L230.39,710.34 L230.39,710.35 L230.39,710.35 L230.39,710.35 L230.39,710.35 L230.39,710.35 L230.39,710.35 L230.39,710.36 L230.39,710.36 L230.39,710.36 L230.39,710.36 L230.39,710.36 L230.39,710.36 L230.39,710.36 C230.39,710.39,230.36,710.46,230.28,710.46 C230.14,710.46,229.56,710.4,229.39,710.39 C229.33,710.38,229.24,710.37,229.24,710.23 C229.24,710.13,229.33,710.13,229.42,710.13 C229.75,710.13,229.75,710.08,229.75,710.03 C229.75,709.98,229.74,709.93,229.72,709.87 L228.74,705.94 C228.71,705.81,228.71,705.8,228.71,705.78 C228.71,705.68,228.79,705.56,228.94,705.56 C229.13,705.56,229.22,705.7,229.26,705.85 C229.28,705.88,229.58,707.1,229.6,707.2 C230.1,707.15,230.5,706.99,230.5,706.63 C230.5,706.6,230.5,706.56,230.48,706.49 C230.45,706.39,230.45,706.35,230.45,706.28 C230.45,705.78,230.86,705.56,231.19,705.56 C231.87,705.56,232.08,706.62,232.08,706.62 C232.08,706.72,231.99,706.72,231.97,706.72 C231.87,706.72,231.86,706.68,231.83,706.55 C231.74,706.25,231.55,705.76,231.21,705.76 C231.02,705.76,230.97,705.93,230.97,706.12 C230.97,706.24,230.97,706.25,231.01,706.43 C231.02,706.45,231.05,706.57,231.05,706.65 C231.05,707.27,230.21,707.36,229.92,707.38 C230.12,707.51,230.38,707.74,230.5,707.84 C230.85,708.18,231.2,708.5,231.59,708.5 C231.67,708.5,231.76,708.48,231.82,708.41 C231.52,708.36,231.46,708.13,231.46,708.02 C231.46,707.87,231.58,707.77,231.74,707.77 C231.92,707.77,232.13,707.92,232.13,708.21 C232.13,708.44,231.97,708.7,231.6,708.7 C231.2,708.7,230.84,708.41,230.48,708.09 C230.19,707.81,229.96,707.59,229.67,707.47 Z " />
<path
   id="path5536"
   fill="black"
   stroke-width="0"
   d="M236.38,704.74 L236.38,704.75 L236.38,704.75 L236.38,704.75 L236.38,704.76 L236.38,704.76 L236.38,704.76 L236.38,704.77 L236.37,704.77 L236.37,704.77 L236.37,704.78 L236.37,704.78 L236.36,704.79 L236.36,704.79 L236.36,704.8 L236.35,704.8 L236.35,704.81 L236.34,704.82 L236.34,704.82 L236.33,704.83 L236.33,704.83 L236.33,704.84 L236.32,704.84 L236.32,704.84 L236.32,704.85 L236.31,704.85 L236.31,704.86 L236.3,704.86 L236.3,704.87 L236.29,704.87 L236.29,704.88 L236.28,704.88 L236.28,704.89 L236.27,704.9 L236.27,704.9 L236.26,704.91 L236.25,704.92 L236.25,704.92 L236.24,704.93 L236.23,704.94 L236.23,704.94 L236.22,704.95 L236.21,704.96 C234.97,706.21,234.65,708.09,234.65,709.61 C234.65,711.34,235.03,713.07,236.25,714.31 C236.38,714.43,236.38,714.45,236.38,714.48 C236.38,714.55,236.34,714.58,236.28,714.58 C236.18,714.58,235.29,713.9,234.7,712.64 C234.19,711.55,234.07,710.44,234.07,709.61 C234.07,708.83,234.18,707.63,234.73,706.51 C235.32,705.29,236.18,704.64,236.28,704.64 C236.34,704.64,236.38,704.67,236.38,704.74 Z " />
<path
   id="path5538"
   fill="black"
   stroke-width="0"
   d="M239.89,713.48 L239.89,713.49 L239.89,713.5 L239.89,713.52 L239.89,713.53 L239.89,713.53 L239.89,713.54 L239.89,713.55 L239.89,713.56 L239.89,713.57 L239.89,713.58 L239.88,713.59 L239.88,713.6 L239.88,713.6 L239.88,713.61 L239.88,713.62 L239.88,713.62 L239.88,713.63 L239.88,713.64 L239.88,713.65 L239.88,713.66 L239.87,713.67 L239.87,713.68 L239.87,713.69 L239.86,713.69 L239.86,713.7 L239.85,713.71 L239.85,713.71 L239.84,713.72 L239.83,713.72 L239.82,713.73 L239.82,713.73 L239.81,713.73 L239.81,713.73 L239.8,713.73 L239.8,713.73 L239.79,713.73 L239.78,713.74 L239.78,713.74 L239.77,713.74 L239.76,713.74 L239.76,713.74 L239.75,713.74 L239.74,713.74 L239.73,713.74 L239.72,713.74 L239.72,713.74 L239.71,713.74 L239.7,713.74 L239.69,713.74 L239.68,713.74 L239.67,713.74 L239.66,713.74 C239.04,713.1,238.16,713.1,237.85,713.1 V712.8 C238.04,712.8,238.63,712.8,239.15,713.05 V707.91 C239.15,707.55,239.12,707.43,238.22,707.43 H237.91 V707.12 C238.25,707.16,239.12,707.16,239.52,707.16 C239.91,707.16,240.78,707.16,241.13,707.12 V707.43 H240.81 C239.91,707.43,239.89,707.54,239.89,707.91 Z " />
<path
   id="path5540"
   fill="black"
   stroke-width="0"
   d="M244.82,709.61 L244.82,709.68 L244.82,709.76 L244.81,709.84 L244.81,709.92 L244.8,710.09 L244.79,710.26 L244.77,710.44 L244.75,710.63 L244.73,710.83 L244.69,711.03 L244.65,711.23 L244.61,711.44 L244.56,711.65 L244.49,711.86 L244.42,712.07 L244.35,712.28 L244.3,712.39 L244.26,712.5 L244.21,712.6 L244.16,712.71 C243.56,713.93,242.71,714.58,242.61,714.58 C242.55,714.58,242.51,714.54,242.51,714.48 C242.51,714.45,242.51,714.43,242.7,714.25 C243.67,713.26,244.24,711.68,244.24,709.61 C244.24,707.91,243.87,706.16,242.64,704.91 C242.51,704.79,242.51,704.77,242.51,704.74 C242.51,704.68,242.55,704.64,242.61,704.64 C242.71,704.64,243.6,705.32,244.19,706.58 C244.7,707.67,244.82,708.77,244.82,709.61 Z " />
</g>  </g>
</svg>
