<?xml version="1.0" encoding="UTF-8" standalone="no"?>
<!-- Created with Inkscape (http://www.inkscape.org/) -->

<svg
   xmlns:ns0="http://www.iki.fi/pav/software/textext/"
   xmlns:dc="http://purl.org/dc/elements/1.1/"
   xmlns:cc="http://creativecommons.org/ns#"
   xmlns:rdf="http://www.w3.org/1999/02/22-rdf-syntax-ns#"
   xmlns:svg="http://www.w3.org/2000/svg"
   xmlns="http://www.w3.org/2000/svg"
   xmlns:sodipodi="http://sodipodi.sourceforge.net/DTD/sodipodi-0.dtd"
   xmlns:inkscape="http://www.inkscape.org/namespaces/inkscape"
   width="744.09448819"
   height="1052.3622047"
   id="svg5663"
   version="1.1"
   inkscape:version="0.48.3.1 r9886"
   sodipodi:docname="maxsat2.svg">
  <sodipodi:namedview
     id="base"
     pagecolor="#ffffff"
     bordercolor="#666666"
     borderopacity="1.0"
     inkscape:pageopacity="0.0"
     inkscape:pageshadow="2"
     inkscape:zoom="0.98994949"
     inkscape:cx="-859.58455"
     inkscape:cy="1089.5382"
     inkscape:document-units="px"
     inkscape:current-layer="layer1"
     showgrid="false"
     showborder="false"
     inkscape:window-width="1918"
     inkscape:window-height="1062"
     inkscape:window-x="0"
     inkscape:window-y="0"
     inkscape:window-maximized="0"
     inkscape:object-paths="true"
     inkscape:snap-intersection-paths="true" />
  <defs
     id="defs5665">
    <clipPath
       id="clipPath5754"
       clipPathUnits="userSpaceOnUse">
      <path
         id="path5756"
         d="m 48.3438,3820.45 5453.3162,0 0,-3770.9031 -5453.3162,0 0,3770.9031 z" />
    </clipPath>
    <clipPath
       id="clipPath5744"
       clipPathUnits="userSpaceOnUse">
      <path
         id="path5746"
         d="m 2881.36,194.582 145.03,0 0,-145.0351 -145.03,0 0,145.0351 z" />
    </clipPath>
    <clipPath
       id="clipPath5722"
       clipPathUnits="userSpaceOnUse">
      <path
         id="path5724"
         d="m 48.3438,3820.45 5453.3162,0 0,-3770.9031 -5453.3162,0 0,3770.9031 z" />
    </clipPath>
    <clipPath
       id="clipPath5708"
       clipPathUnits="userSpaceOnUse">
      <path
         id="path5710"
         d="m 444.773,3762.36 5037.507,0 0,-3355.055 -5037.507,0 0,3355.055 z" />
    </clipPath>
  </defs>
  <metadata
     id="metadata5668">
    <rdf:RDF>
      <cc:Work
         rdf:about="">
        <dc:format>image/svg+xml</dc:format>
        <dc:type
           rdf:resource="http://purl.org/dc/dcmitype/StillImage" />
        <dc:title />
      </cc:Work>
    </rdf:RDF>
  </metadata>
  <g
     inkscape:label="Layer 1"
     inkscape:groupmode="layer"
     id="layer1">
    <path
       id="path5702"
       style="fill:#ffffff;fill-opacity:1;fill-rule:nonzero;stroke:none"
       d="m -1186.875,196.9437 693.75,0 0,-483.44875 -693.75,0 0,483.44875 z"
       inkscape:connector-curvature="0" />
    <g
       id="g5704"
       transform="matrix(0.125,0,0,-0.125,-1186.875,197.09409)">
      <g
         clip-path="url(#clipPath5708)"
         id="g5706">
        <path
           id="path5712"
           style="fill:none;stroke:#ff0000;stroke-width:9.66899014;stroke-linecap:butt;stroke-linejoin:round;stroke-miterlimit:10;stroke-opacity:1;stroke-dasharray:none"
           d="m 454.441,416.969 109.172,288.254 94.989,230.398 106.824,238.309 107.535,219.45 107.023,199.8 99.216,170.03 102.75,161.9 106.25,153.51 105.91,140.14 108.94,131.83 95.96,106.64 108.03,110.32 108.47,101.25 104.53,89.31 94.93,74.65 112.87,81.44 95.62,63.26 111.22,67.54 98.46,54.79 108.02,55.19 102.86,48.14 107.33,46.03 98.56,38.81 106.3,38.45 110.43,36.5 96.13,29.16 103.81,28.98 107.26,27.44 104.93,24.58 101.51,21.82 112.73,22.17 101.29,18.23 108.14,17.84 98,14.84 107.13,14.9 100.81,12.86 105.37,12.34 103.02,11.06 107.85,10.62 103.88,9.36 106.22,8.77 105.34,7.97 96.81,6.73 110.94,7.08 99.23,5.8 105.81,5.68 101.27,4.99 108.82,4.92"
           inkscape:connector-curvature="0" />
        <path
           id="path5714"
           style="fill:none;stroke:#0000ff;stroke-width:9.66899014;stroke-linecap:butt;stroke-linejoin:round;stroke-miterlimit:10;stroke-opacity:1;stroke-dasharray:none"
           d="m 454.441,3743.02 27.293,-188.13 27.293,-152.06 27.293,-128.67 27.293,-111.38 47.496,-163.28 47.493,-134.56 53.414,-126.3 53.41,-106.39 53.769,-91.62 53.766,-79.38 107.023,-130.44 99.216,-96.72 102.75,-82.44 106.25,-71.04 105.91,-59.84 108.94,-52.61 95.96,-40.34 108.03,-39.94 108.47,-35.28 104.53,-30.21 94.93,-24.72 112.87,-26.51 95.62,-20.34 111.22,-21.59 98.46,-17.45 108.02,-17.58 102.86,-15.43 107.33,-14.85 98.56,-12.67 106.3,-12.71 110.43,-12.27 96.13,-9.99 103.81,-10.13 107.26,-9.81 104.93,-9.02 101.51,-8.23 112.73,-8.59 101.29,-7.3 108.14,-7.37 98,-6.33 107.13,-6.59 100.81,-5.89 105.37,-5.86 103.02,-5.46 107.85,-5.45 103.88,-5.02 106.22,-4.89 105.34,-4.65 96.81,-4.1 110.94,-4.5 99.23,-3.87 105.81,-3.95 101.27,-3.65 108.82,-3.76"
           inkscape:connector-curvature="0" />
        <path
           id="path5716"
           style="fill:none;stroke:#000000;stroke-width:9.66899014;stroke-linecap:butt;stroke-linejoin:round;stroke-miterlimit:10;stroke-opacity:1;stroke-dasharray:none"
           d="m 454.441,2080 27.293,-56.8 27.293,-39.6 27.293,-28.72 27.293,-20.88 47.496,-22.9 47.493,-10.81 13.355,-1.41 13.352,-0.82 13.351,-0.26 13.356,0.23 26.707,1.77 26.703,3.29 53.769,10.28 53.766,13.94 107.023,34.69 99.216,36.65 102.75,39.73 106.25,41.24 105.91,40.15 108.94,39.61 95.96,33.16 108.03,35.18 108.47,32.98 104.53,29.55 94.93,24.96 112.87,27.47 95.62,21.46 111.22,22.98 98.46,18.67 108.02,18.8 102.86,16.36 107.33,15.59 98.56,13.07 106.3,12.87 110.43,12.11 96.13,9.59 103.81,9.42 107.26,8.81 104.93,7.79 101.51,6.79 112.73,6.79 101.29,5.47 108.14,5.23 98,4.26 107.13,4.15 100.81,3.49 105.37,3.23 103.02,2.81 107.85,2.58 103.88,2.18 106.22,1.93 105.34,1.66 96.81,1.32 110.94,1.29 99.23,0.97 105.81,0.86 101.27,0.67 108.82,0.58"
           inkscape:connector-curvature="0" />
      </g>
    </g>
    <g
       id="g5718"
       transform="matrix(0.125,0,0,-0.125,-1186.875,197.09409)">
      <g
         clip-path="url(#clipPath5722)"
         id="g5720">
        <path
           id="path5726"
           style="fill:none;stroke:#000000;stroke-width:9.66899014;stroke-linecap:butt;stroke-linejoin:round;stroke-miterlimit:10;stroke-opacity:1;stroke-dasharray:none"
           d="m 5045.57,387.961 0,-25.137"
           inkscape:connector-curvature="0" />
        <path
           id="path5728"
           style="fill:none;stroke:#000000;stroke-width:9.66899014;stroke-linecap:butt;stroke-linejoin:round;stroke-miterlimit:10;stroke-opacity:1;stroke-dasharray:none"
           d="m 4210.82,387.961 0,-25.137"
           inkscape:connector-curvature="0" />
        <path
           id="path5730"
           style="fill:none;stroke:#000000;stroke-width:9.66899014;stroke-linecap:butt;stroke-linejoin:round;stroke-miterlimit:10;stroke-opacity:1;stroke-dasharray:none"
           d="m 3376.06,387.961 0,-25.137"
           inkscape:connector-curvature="0" />
        <path
           id="path5732"
           style="fill:none;stroke:#000000;stroke-width:9.66899014;stroke-linecap:butt;stroke-linejoin:round;stroke-miterlimit:10;stroke-opacity:1;stroke-dasharray:none"
           d="m 2541.31,387.961 0,-25.137"
           inkscape:connector-curvature="0" />
        <path
           id="path5734"
           style="fill:none;stroke:#000000;stroke-width:9.66899014;stroke-linecap:butt;stroke-linejoin:round;stroke-miterlimit:10;stroke-opacity:1;stroke-dasharray:none"
           d="m 1706.57,387.961 0,-25.137"
           inkscape:connector-curvature="0" />
        <path
           id="path5736"
           style="fill:none;stroke:#000000;stroke-width:9.66899014;stroke-linecap:butt;stroke-linejoin:round;stroke-miterlimit:10;stroke-opacity:1;stroke-dasharray:none"
           d="m 871.816,387.961 0,-25.137"
           inkscape:connector-curvature="0" />
        <path
           id="path5738"
           style="fill:none;stroke:#000000;stroke-width:9.66899014;stroke-linecap:butt;stroke-linejoin:round;stroke-miterlimit:10;stroke-opacity:1;stroke-dasharray:none"
           d="m 425.434,387.961 5037.506,0"
           inkscape:connector-curvature="0" />
      </g>
    </g>
    <g
       id="g5750"
       transform="matrix(0.125,0,0,-0.125,-1186.875,197.09409)">
      <g
         clip-path="url(#clipPath5754)"
         id="g5752">
        <path
           id="path5758"
           style="fill:none;stroke:#000000;stroke-width:9.66899014;stroke-linecap:butt;stroke-linejoin:round;stroke-miterlimit:10;stroke-opacity:1;stroke-dasharray:none"
           d="m 454.441,387.961 0,-58.691"
           inkscape:connector-curvature="0" />
        <path
           id="path5760"
           style="fill:#000000;fill-opacity:1;fill-rule:nonzero;stroke:none"
           d="m 460.031,295.961 0,-75.844 0.453,-6.043 c 0.102,-2.418 0.782,-4.004 2.039,-4.758 1.262,-0.754 3.852,-1.128 7.782,-1.128 l 7.254,-0.157 0,-3.781 -46.989,0 0,3.781 7.102,0.157 c 3.93,0 6.523,0.374 7.781,1.128 1.258,0.754 1.988,2.34 2.192,4.758 l 0.3,6.043 0,56.352 -0.3,6.199 c 0,2.918 -0.856,4.379 -2.571,4.379 -1.207,0 -4.027,-0.406 -8.461,-1.207 l -6.043,-1.055 0,3.77 29.461,7.406"
           inkscape:connector-curvature="0" />
        <path
           id="path5762"
           style="fill:none;stroke:#000000;stroke-width:9.66899014;stroke-linecap:butt;stroke-linejoin:round;stroke-miterlimit:10;stroke-opacity:1;stroke-dasharray:none"
           d="m 1289.19,387.961 0,-58.691"
           inkscape:connector-curvature="0" />
        <path
           id="path5764"
           style="fill:#000000;fill-opacity:1;fill-rule:nonzero;stroke:none"
           d="m 1257.11,204.25 0,6.043 c 3.53,10.184 8.97,18.738 16.32,25.691 l 6.65,6.043 c 7.45,7.051 12.44,12.637 14.96,16.766 2.51,4.129 3.78,8.867 3.78,14.203 0,6.246 -1.54,11.227 -4.62,14.961 -3.07,3.723 -7.12,5.586 -12.16,5.586 -5.54,0 -10.22,-1.508 -14.05,-4.535 -1.41,-1.11 -2.31,-5.18 -2.72,-12.238 l 0,-1.508 -6.19,0 0,16.621 c 8.86,3.722 17.03,5.586 24.48,5.586 8.15,0 14.88,-2.321 20.16,-6.949 5.29,-4.633 7.94,-10.473 7.94,-17.524 0,-9.57 -5.95,-18.426 -17.83,-26.59 l -7.41,-5.133 c -11.78,-8.062 -18.22,-16.871 -19.34,-26.445 l 44.12,0 0,-10.578 -54.09,0"
           inkscape:connector-curvature="0" />
        <path
           id="path5766"
           style="fill:none;stroke:#000000;stroke-width:9.66899014;stroke-linecap:butt;stroke-linejoin:round;stroke-miterlimit:10;stroke-opacity:1;stroke-dasharray:none"
           d="m 2123.94,387.961 0,-58.691"
           inkscape:connector-curvature="0" />
        <path
           id="path5768"
           style="fill:#000000;fill-opacity:1;fill-rule:nonzero;stroke:none"
           d="m 2090.16,204.859 0,16.012 6.04,0 0.15,-1.351 0.16,-4.235 c 0,-2.621 1.54,-4.867 4.6,-6.723 3.07,-1.867 6.87,-2.792 11.41,-2.792 5.34,0 9.64,2.105 12.92,6.343 3.27,4.223 4.91,9.825 4.91,16.766 0,6.855 -2.15,12.211 -6.42,16.09 -4.29,3.875 -10.25,5.82 -17.91,5.82 l -7.55,0 0,3.781 4.08,0 c 17.13,0 25.68,6.891 25.68,20.692 0,12.289 -5.38,18.426 -16.16,18.426 -4.74,0 -8.87,-1.004 -12.39,-3.016 -1.32,-0.801 -2.22,-4.078 -2.72,-9.824 l 0,-0.899 -6.04,0 0,13.895 c 6.54,2.418 13.94,3.625 22.2,3.625 8.36,0 14.99,-1.883 19.87,-5.664 4.88,-3.774 7.33,-8.887 7.33,-15.336 0,-10.77 -6.34,-18.477 -19.04,-23.11 7.76,-2.019 13.33,-4.89 16.7,-8.613 3.37,-3.723 5.06,-8.918 5.06,-15.558 0,-8.364 -2.72,-14.989 -8.16,-19.872 -5.44,-4.882 -12.84,-7.328 -22.2,-7.328 -8.57,0 -16.07,0.957 -22.52,2.871"
           inkscape:connector-curvature="0" />
        <path
           id="path5770"
           style="fill:none;stroke:#000000;stroke-width:9.66899014;stroke-linecap:butt;stroke-linejoin:round;stroke-miterlimit:10;stroke-opacity:1;stroke-dasharray:none"
           d="m 2958.69,387.961 0,-58.691"
           inkscape:connector-curvature="0" />
        <path
           id="path5772"
           style="fill:#000000;fill-opacity:1;fill-rule:nonzero;stroke:none"
           d="m 2955.84,229.941 -41.7,0 0,6.043 45.47,60.578 6.8,0 0,-57.406 12.08,0 0,-9.215 -12.08,0 0,-9.824 c 0,-4.832 0.38,-7.957 1.14,-9.367 0.75,-1.414 2.39,-2.168 4.9,-2.266 l 4.24,-0.296 1.05,-0.157 0,-3.781 -34.74,0 0,3.781 1.05,0.157 6.34,0.296 c 2.22,0.098 3.68,0.911 4.39,2.418 0.7,1.508 1.06,4.582 1.06,9.215 l 0,9.824 z m -34.91,9.215 34.91,0 0,46.227 -34.91,-46.227"
           inkscape:connector-curvature="0" />
        <path
           id="path5774"
           style="fill:none;stroke:#000000;stroke-width:9.66899014;stroke-linecap:butt;stroke-linejoin:round;stroke-miterlimit:10;stroke-opacity:1;stroke-dasharray:none"
           d="m 3793.43,387.961 0,-58.691"
           inkscape:connector-curvature="0" />
        <path
           id="path5776"
           style="fill:#000000;fill-opacity:1;fill-rule:nonzero;stroke:none"
           d="m 3765.92,204.105 0,15.258 6.04,0 0.15,-1.363 0.15,-4.68 c 0.2,-5.039 4.13,-7.55 11.79,-7.55 5.63,0 10.12,2.214 13.45,6.64 3.31,4.442 4.98,10.426 4.98,17.985 0,8.656 -2.57,14.851 -7.71,18.574 -5.13,3.734 -13.55,5.601 -25.23,5.601 l -2.11,0 0,40.481 45.78,0 0,-10.574 -42,0 0,-25.383 5.58,0 c 25.59,0 38.38,-9.719 38.38,-29.153 0,-8.769 -2.95,-15.617 -8.84,-20.546 -5.9,-4.942 -14.03,-7.407 -24.4,-7.407 -5.14,0 -10.47,0.707 -16.01,2.117"
           inkscape:connector-curvature="0" />
        <path
           id="path5778"
           style="fill:none;stroke:#000000;stroke-width:9.66899014;stroke-linecap:butt;stroke-linejoin:round;stroke-miterlimit:10;stroke-opacity:1;stroke-dasharray:none"
           d="m 4628.19,387.961 0,-58.691"
           inkscape:connector-curvature="0" />
        <path
           id="path5780"
           style="fill:#000000;fill-opacity:1;fill-rule:nonzero;stroke:none"
           d="m 4603.49,250.789 c 5.75,7.852 13.05,11.785 21.91,11.785 7.95,0 14.45,-2.648 19.49,-7.937 5.03,-5.282 7.55,-12.157 7.55,-20.614 0,-9.07 -2.87,-16.671 -8.61,-22.82 -5.74,-6.141 -12.79,-9.215 -21.15,-9.215 -10.27,0 -18.18,4.004 -23.72,12.008 -5.54,8.008 -8.31,19.418 -8.31,34.219 0,15.617 3.2,27.73 9.6,36.336 6.39,8.617 15.43,12.918 27.12,12.918 7.55,0 14.19,-1.364 19.93,-4.078 l 0,-14.504 -6.04,0 -0.15,1.207 -0.31,4.383 c -0.2,2.726 -1.66,4.937 -4.37,6.648 -2.72,1.715 -6.14,2.563 -10.27,2.563 -7.16,0 -12.72,-3.75 -16.7,-11.254 -3.98,-7.504 -5.97,-18.051 -5.97,-31.645 z m 0.46,-12.996 c 0,-9.371 1.88,-17.016 5.66,-22.965 3.77,-5.937 8.64,-8.914 14.59,-8.914 10.67,0 16.01,8.816 16.01,26.445 0,17.317 -5.55,25.981 -16.62,25.981 -6.05,0 -10.84,-1.867 -14.35,-5.59 -3.53,-3.723 -5.29,-8.711 -5.29,-14.957"
           inkscape:connector-curvature="0" />
        <path
           id="path5782"
           style="fill:none;stroke:#000000;stroke-width:9.66899014;stroke-linecap:butt;stroke-linejoin:round;stroke-miterlimit:10;stroke-opacity:1;stroke-dasharray:none"
           d="m 5462.94,387.961 0,-58.691"
           inkscape:connector-curvature="0" />
        <path
           id="path5784"
           style="fill:#000000;fill-opacity:1;fill-rule:nonzero;stroke:none"
           d="m 5431.86,204.25 c 1.8,9.875 4.72,18.461 8.75,25.77 4.04,7.3 13.6,21.117 28.71,41.468 l 9.22,12.231 -51.22,0 0,11.332 58.31,0 0,-7.848 c -24.88,-33.445 -38.02,-61.09 -39.43,-82.953 l -14.34,0"
           inkscape:connector-curvature="0" />
        <path
           id="path5786"
           style="fill:none;stroke:#000000;stroke-width:9.66899014;stroke-linecap:butt;stroke-linejoin:round;stroke-miterlimit:10;stroke-opacity:1;stroke-dasharray:none"
           d="m 425.434,3410.41 -25.137,0"
           inkscape:connector-curvature="0" />
        <path
           id="path5788"
           style="fill:none;stroke:#000000;stroke-width:9.66899014;stroke-linecap:butt;stroke-linejoin:round;stroke-miterlimit:10;stroke-opacity:1;stroke-dasharray:none"
           d="m 425.434,2745.2 -25.137,0"
           inkscape:connector-curvature="0" />
        <path
           id="path5790"
           style="fill:none;stroke:#000000;stroke-width:9.66899014;stroke-linecap:butt;stroke-linejoin:round;stroke-miterlimit:10;stroke-opacity:1;stroke-dasharray:none"
           d="m 425.434,2080 -25.137,0"
           inkscape:connector-curvature="0" />
        <path
           id="path5792"
           style="fill:none;stroke:#000000;stroke-width:9.66899014;stroke-linecap:butt;stroke-linejoin:round;stroke-miterlimit:10;stroke-opacity:1;stroke-dasharray:none"
           d="m 425.434,1414.79 -25.137,0"
           inkscape:connector-curvature="0" />
        <path
           id="path5794"
           style="fill:none;stroke:#000000;stroke-width:9.66899014;stroke-linecap:butt;stroke-linejoin:round;stroke-miterlimit:10;stroke-opacity:1;stroke-dasharray:none"
           d="m 425.434,749.582 -25.137,0"
           inkscape:connector-curvature="0" />
        <path
           id="path5796"
           style="fill:none;stroke:#000000;stroke-width:9.66899014;stroke-linecap:butt;stroke-linejoin:round;stroke-miterlimit:10;stroke-opacity:1;stroke-dasharray:none"
           d="m 425.434,387.961 0,3355.059"
           inkscape:connector-curvature="0" />
        <path
           id="path5798"
           style="fill:none;stroke:#000000;stroke-width:9.66899014;stroke-linecap:butt;stroke-linejoin:round;stroke-miterlimit:10;stroke-opacity:1;stroke-dasharray:none"
           d="m 425.434,416.969 -58.688,0"
           inkscape:connector-curvature="0" />
        <path
           id="path5800"
           style="fill:#000000;fill-opacity:1;fill-rule:nonzero;stroke:none"
           d="m 211.812,356.691 c -9.367,0 -16.921,4.364 -22.664,13.075 -5.742,8.711 -8.609,20.168 -8.609,34.363 0,14.609 2.867,26.242 8.609,34.906 5.743,8.66 13.446,12.985 23.118,12.985 9.668,0 17.398,-4.325 23.187,-12.985 5.793,-8.664 8.688,-20.25 8.688,-34.754 0,-14.597 -2.895,-26.183 -8.688,-34.75 -5.789,-8.554 -13.672,-12.84 -23.641,-12.84 z m 0.149,3.782 c 12.894,-0.61 19.34,14.254 19.34,44.566 0,28.91 -6.348,43.356 -19.035,43.356 -12.59,0 -18.887,-14.649 -18.887,-43.957 0,-28.708 6.195,-43.364 18.582,-43.965 z m 47.617,-1.52 0,15.113 15.11,0 0,-15.113 -15.11,0 z m 38.617,-0.144 0,15.257 6.043,0 0.149,-1.363 0.152,-4.68 c 0.203,-5.035 4.129,-7.55 11.785,-7.55 5.641,0 10.121,2.215 13.446,6.644 3.324,4.438 4.984,10.422 4.984,17.985 0,8.652 -2.566,14.851 -7.703,18.574 -5.137,3.73 -13.547,5.597 -25.231,5.597 l -2.117,0 0,40.485 45.777,0 0,-10.578 -41.996,0 0,-25.383 5.586,0 c 25.586,0 38.375,-9.719 38.375,-29.152 0,-8.77 -2.945,-15.614 -8.836,-20.547 -5.894,-4.942 -14.027,-7.407 -24.402,-7.407 -5.137,0 -10.473,0.707 -16.012,2.118"
           inkscape:connector-curvature="0" />
        <path
           id="path5802"
           style="fill:none;stroke:#000000;stroke-width:9.66899014;stroke-linecap:butt;stroke-linejoin:round;stroke-miterlimit:10;stroke-opacity:1;stroke-dasharray:none"
           d="m 425.434,1082.19 -58.688,0"
           inkscape:connector-curvature="0" />
        <path
           id="path5804"
           style="fill:#000000;fill-opacity:1;fill-rule:nonzero;stroke:none"
           d="m 211.812,1023.85 c -9.367,0 -16.921,4.36 -22.664,13.08 -5.742,8.71 -8.609,20.16 -8.609,34.36 0,14.61 2.867,26.24 8.609,34.91 5.743,8.66 13.446,12.98 23.118,12.98 9.668,0 17.398,-4.32 23.187,-12.98 5.793,-8.67 8.688,-20.25 8.688,-34.76 0,-14.6 -2.895,-26.18 -8.688,-34.75 -5.789,-8.55 -13.672,-12.84 -23.641,-12.84 z m 0.149,3.78 c 12.894,-0.61 19.34,14.26 19.34,44.57 0,28.91 -6.348,43.35 -19.035,43.35 -12.59,0 -18.887,-14.64 -18.887,-43.95 0,-28.71 6.195,-43.37 18.582,-43.97 z m 47.617,-1.52 0,15.12 15.11,0 0,-15.12 -15.11,0 z m 44.66,46.54 c 5.739,7.85 13.043,11.79 21.907,11.79 7.957,0 14.453,-2.65 19.488,-7.94 5.035,-5.28 7.555,-12.15 7.555,-20.61 0,-9.07 -2.872,-16.68 -8.614,-22.82 -5.738,-6.14 -12.789,-9.22 -21.148,-9.22 -10.274,0 -18.18,4.01 -23.723,12.01 -5.539,8.01 -8.308,19.42 -8.308,34.22 0,15.62 3.199,27.73 9.593,36.34 6.399,8.61 15.438,12.91 27.121,12.91 7.551,0 14.2,-1.36 19.942,-4.08 l 0,-14.5 -6.043,0 -0.153,1.21 -0.3,4.38 c -0.203,2.73 -1.664,4.94 -4.383,6.65 -2.719,1.71 -6.145,2.56 -10.274,2.56 -7.148,0 -12.714,-3.75 -16.691,-11.25 -3.98,-7.5 -5.969,-18.05 -5.969,-31.65 z m 0.453,-12.99 c 0,-9.37 1.887,-17.02 5.664,-22.97 3.778,-5.93 8.637,-8.91 14.579,-8.91 10.679,0 16.015,8.82 16.015,26.44 0,17.32 -5.539,25.98 -16.617,25.98 -6.043,0 -10.828,-1.86 -14.355,-5.59 -3.524,-3.72 -5.286,-8.71 -5.286,-14.95"
           inkscape:connector-curvature="0" />
        <path
           id="path5806"
           style="fill:none;stroke:#000000;stroke-width:9.66899014;stroke-linecap:butt;stroke-linejoin:round;stroke-miterlimit:10;stroke-opacity:1;stroke-dasharray:none"
           d="m 425.434,1747.39 -58.688,0"
           inkscape:connector-curvature="0" />
        <path
           id="path5808"
           style="fill:#000000;fill-opacity:1;fill-rule:nonzero;stroke:none"
           d="m 211.812,1691.01 c -9.367,0 -16.921,4.37 -22.664,13.08 -5.742,8.71 -8.609,20.16 -8.609,34.36 0,14.61 2.867,26.24 8.609,34.91 5.743,8.66 13.446,12.98 23.118,12.98 9.668,0 17.398,-4.32 23.187,-12.98 5.793,-8.67 8.688,-20.25 8.688,-34.75 0,-14.61 -2.895,-26.19 -8.688,-34.76 -5.789,-8.55 -13.672,-12.84 -23.641,-12.84 z m 0.149,3.78 c 12.894,-0.61 19.34,14.26 19.34,44.57 0,28.91 -6.348,43.35 -19.035,43.35 -12.59,0 -18.887,-14.64 -18.887,-43.95 0,-28.71 6.195,-43.37 18.582,-43.97 z m 47.617,-1.51 0,15.11 15.11,0 0,-15.11 -15.11,0 z m 41.488,0 c 1.813,9.87 4.731,18.45 8.762,25.76 4.027,7.3 13.598,21.12 28.703,41.47 l 9.219,12.24 -51.219,0 0,11.33 58.317,0 0,-7.85 c -24.875,-33.45 -38.02,-61.09 -39.43,-82.95 l -14.352,0"
           inkscape:connector-curvature="0" />
        <path
           id="path5810"
           style="fill:none;stroke:#000000;stroke-width:9.66899014;stroke-linecap:butt;stroke-linejoin:round;stroke-miterlimit:10;stroke-opacity:1;stroke-dasharray:none"
           d="m 425.434,2412.6 -58.688,0"
           inkscape:connector-curvature="0" />
        <path
           id="path5812"
           style="fill:#000000;fill-opacity:1;fill-rule:nonzero;stroke:none"
           d="m 211.812,2358.17 c -9.367,0 -16.921,4.37 -22.664,13.08 -5.742,8.71 -8.609,20.16 -8.609,34.36 0,14.61 2.867,26.24 8.609,34.91 5.743,8.66 13.446,12.98 23.118,12.98 9.668,0 17.398,-4.32 23.187,-12.98 5.793,-8.67 8.688,-20.25 8.688,-34.75 0,-14.61 -2.895,-26.19 -8.688,-34.76 -5.789,-8.55 -13.672,-12.84 -23.641,-12.84 z m 0.149,3.78 c 12.894,-0.61 19.34,14.26 19.34,44.57 0,28.91 -6.348,43.36 -19.035,43.36 -12.59,0 -18.887,-14.65 -18.887,-43.96 0,-28.71 6.195,-43.37 18.582,-43.97 z m 47.617,-1.51 0,15.11 15.11,0 0,-15.11 -15.11,0 z m 50.551,48.95 c -9.367,6.45 -14.051,13.5 -14.051,21.15 0,6.85 2.492,12.41 7.481,16.69 4.984,4.29 11.507,6.43 19.562,6.43 7.656,0 13.774,-1.81 18.356,-5.44 4.585,-3.63 6.875,-8.46 6.875,-14.5 0,-9.37 -5.993,-17.08 -17.977,-23.12 14.504,-6.14 21.754,-15.01 21.754,-26.59 0,-7.66 -2.871,-13.88 -8.609,-18.66 -5.743,-4.79 -13.145,-7.18 -22.211,-7.18 -8.864,0 -16.039,2.25 -21.528,6.72 -5.488,4.49 -8.234,10.36 -8.234,17.61 0,12.18 6.195,21.14 18.582,26.89 z m 16.922,3.17 c 7.148,5.24 10.726,12.19 10.726,20.85 0,4.94 -1.461,8.91 -4.382,11.94 -2.922,3.02 -6.747,4.53 -11.481,4.53 -4.23,0 -7.832,-1.49 -10.801,-4.45 -2.972,-2.98 -4.457,-6.63 -4.457,-10.96 0,-4.24 1.36,-7.78 4.078,-10.65 2.719,-2.87 8.157,-6.63 16.317,-11.26 z m -14.203,-5.89 c -6.141,-5.64 -9.215,-13.19 -9.215,-22.66 0,-6.75 1.664,-12.12 4.984,-16.09 3.324,-3.98 7.758,-5.97 13.297,-5.97 5.238,0 9.566,1.76 12.992,5.29 3.426,3.52 5.137,7.95 5.137,13.3 0,4.42 -1.309,8.13 -3.926,11.1 -2.621,2.97 -7.508,6.42 -14.656,10.34 l -8.613,4.69"
           inkscape:connector-curvature="0" />
        <path
           id="path5814"
           style="fill:none;stroke:#000000;stroke-width:9.66899014;stroke-linecap:butt;stroke-linejoin:round;stroke-miterlimit:10;stroke-opacity:1;stroke-dasharray:none"
           d="m 425.434,3077.81 -58.688,0"
           inkscape:connector-curvature="0" />
        <path
           id="path5816"
           style="fill:#000000;fill-opacity:1;fill-rule:nonzero;stroke:none"
           d="m 211.812,3025.33 c -9.367,0 -16.921,4.36 -22.664,13.07 -5.742,8.71 -8.609,20.17 -8.609,34.37 0,14.6 2.867,26.24 8.609,34.9 5.743,8.66 13.446,12.99 23.118,12.99 9.668,0 17.398,-4.33 23.187,-12.99 5.793,-8.66 8.688,-20.25 8.688,-34.75 0,-14.6 -2.895,-26.19 -8.688,-34.75 -5.789,-8.56 -13.672,-12.84 -23.641,-12.84 z m 0.149,3.78 c 12.894,-0.61 19.34,14.25 19.34,44.57 0,28.9 -6.348,43.36 -19.035,43.36 -12.59,0 -18.887,-14.66 -18.887,-43.97 0,-28.7 6.195,-43.36 18.582,-43.96 z m 47.617,-1.51 0,15.1 15.11,0 0,-15.1 -15.11,0 z m 80.313,44.41 c -5.739,-7.95 -13.043,-11.93 -21.907,-11.93 -7.957,0 -14.425,2.67 -19.414,8.01 -4.984,5.33 -7.476,12.18 -7.476,20.54 0,9.07 2.82,16.69 8.461,22.89 5.64,6.19 12.691,9.29 21.148,9.29 10.274,0 18.18,-4.03 23.723,-12.08 5.539,-8.06 8.308,-19.5 8.308,-34.3 0,-15.61 -3.199,-27.7 -9.593,-36.26 -6.395,-8.56 -15.387,-12.84 -26.969,-12.84 -7.555,0 -14.25,1.36 -20.094,4.08 l 0,14.5 6.043,0 0.152,-1.36 0.301,-4.38 c 0.203,-2.72 1.664,-4.91 4.383,-6.57 2.719,-1.66 6.145,-2.49 10.273,-2.49 7.153,0 12.715,3.75 16.696,11.25 3.976,7.51 5.965,18.05 5.965,31.65 z m -0.453,12.99 c 0,9.37 -1.887,17.03 -5.665,22.97 -3.777,5.94 -8.636,8.91 -14.578,8.91 -10.675,0 -16.015,-8.86 -16.015,-26.59 0,-17.22 5.539,-25.83 16.621,-25.83 6.043,0 10.824,1.86 14.351,5.59 3.524,3.73 5.286,8.71 5.286,14.95"
           inkscape:connector-curvature="0" />
        <path
           id="path5818"
           style="fill:none;stroke:#000000;stroke-width:9.66899014;stroke-linecap:butt;stroke-linejoin:round;stroke-miterlimit:10;stroke-opacity:1;stroke-dasharray:none"
           d="m 425.434,3743.02 -58.688,0"
           inkscape:connector-curvature="0" />
        <path
           id="path5820"
           style="fill:#000000;fill-opacity:1;fill-rule:nonzero;stroke:none"
           d="m 218.309,3776.79 0,-75.84 0.453,-6.04 c 0.101,-2.42 0.781,-4.01 2.039,-4.76 1.258,-0.76 3.851,-1.13 7.781,-1.13 l 7.25,-0.16 0,-3.77 -46.984,0 0,3.77 7.101,0.16 c 3.926,0 6.52,0.37 7.778,1.13 1.261,0.75 1.992,2.34 2.191,4.76 l 0.305,6.04 0,56.35 -0.305,6.2 c 0,2.92 -0.856,4.38 -2.566,4.38 -1.211,0 -4.032,-0.4 -8.461,-1.21 l -6.043,-1.06 0,3.78 29.461,7.4 z m 41.269,-91.7 0,15.11 15.11,0 0,-15.11 -15.11,0 z m 62.035,-2.27 c -9.367,0 -16.922,4.36 -22.664,13.07 -5.738,8.71 -8.609,20.17 -8.609,34.37 0,14.6 2.871,26.24 8.609,34.9 5.742,8.66 13.446,12.99 23.113,12.99 9.672,0 17.403,-4.33 23.192,-12.99 5.793,-8.66 8.687,-20.25 8.687,-34.75 0,-14.61 -2.894,-26.19 -8.687,-34.75 -5.789,-8.56 -13.672,-12.84 -23.641,-12.84 z m 0.149,3.78 c 12.894,-0.61 19.34,14.25 19.34,44.57 0,28.9 -6.348,43.35 -19.04,43.35 -12.585,0 -18.882,-14.65 -18.882,-43.96 0,-28.7 6.195,-43.36 18.582,-43.96"
           inkscape:connector-curvature="0" />
      </g>
    </g>
    <g
       style="font-style:normal;font-variant:normal;font-weight:normal;font-stretch:normal;letter-spacing:normal;word-spacing:normal;text-anchor:start;fill:#0000ff;stroke:#000000;stroke-linecap:butt;stroke-linejoin:miter;stroke-miterlimit:10.43299960999999954;stroke-opacity:1;stroke-dasharray:none;stroke-dashoffset:0;fill-opacity:1"
       id="content"
       transform="matrix(2.2978153,0,0,-2.2978153,-1199.0489,1680.3916)"
       xml:space="preserve"
       stroke-miterlimit="10.433"
       font-style="normal"
       font-variant="normal"
       font-weight="normal"
       font-stretch="normal"
       font-size-adjust="none"
       letter-spacing="normal"
       word-spacing="normal"
       ns0:text="$\\beta(k) = 1- \\left( 1- \\frac{1}{k}\\right)^k$"
       ns0:preamble="">
<path
   style="fill:#0000ff;stroke-width:0;fill-opacity:1"
   inkscape:connector-curvature="0"
   d="m 229.15,711.89 0,0.07 0,0.07 -0.01,0.07 -0.01,0.06 -0.02,0.07 -0.01,0.06 -0.02,0.07 -0.03,0.06 -0.02,0.06 -0.03,0.06 -0.03,0.05 -0.03,0.06 -0.04,0.05 -0.04,0.05 -0.04,0.05 -0.04,0.05 -0.05,0.05 -0.04,0.04 -0.06,0.04 -0.05,0.04 -0.05,0.03 -0.06,0.04 -0.06,0.03 -0.06,0.03 -0.06,0.02 -0.07,0.02 -0.06,0.02 -0.07,0.02 -0.07,0.01 -0.07,0.01 -0.08,0 -0.07,0 c -0.58,0 -0.86,-0.16 -1.2,-0.41 -0.55,-0.4 -1.1,-1.37 -1.29,-2.12 l -1.58,-6.31 c -0.01,-0.04 0.04,-0.1 0.12,-0.1 0.08,0 0.11,0.02 0.12,0.05 l 0.7,2.74 c 0.18,-0.59 0.62,-0.96 1.35,-0.96 l -0.03,0.22 c -0.76,0 -1.14,0.57 -1.14,1.28 0,0.1 0,0.25 0.05,0.44 l 0.64,2.51 c 0.22,0.86 0.94,2.44 2.13,2.44 0.58,0 0.93,-0.31 0.93,-0.91 h 0 c 0,-0.7 -0.38,-1.41 -0.9,-1.72 -0.27,0.1 -0.47,0.12 -0.77,0.12 -0.2,0 -0.76,0.01 -0.76,-0.32 -0.01,-0.28 0.51,-0.24 0.68,-0.24 l 0.03,0.21 c -0.14,0 -0.33,-0.01 -0.43,0.04 0.02,0.1 0.37,0.08 0.48,0.08 0.21,0 0.3,0 0.43,-0.05 h 0 c -0.13,-0.05 -0.24,-0.07 -0.48,-0.07 l -0.03,-0.21 c 0.37,0 0.52,0.01 0.82,0.12 0.38,-0.35 0.43,-0.66 0.44,-1.12 0.02,-0.57 -0.22,-1.32 -0.5,-1.71 -0.39,-0.53 -1.05,-0.89 -1.62,-0.89 l 0.03,-0.22 c 0.72,0 1.47,0.35 1.92,0.78 0.48,0.46 0.8,1.1 0.8,1.83 0,0.72 -0.37,1.23 -0.73,1.48 0.58,0.33 1.14,0.95 1.14,1.66 z"
   id="path6071" />
<path
   style="fill:#0000ff;stroke-width:0;fill-opacity:1"
   inkscape:connector-curvature="0"
   d="m 232.89,703.86 0,0 0,0.01 0,0 -0.01,0 0,0.01 0,0 0,0 0,0.01 0,0 0,0 -0.01,0.01 0,0 0,0.01 -0.01,0 0,0.01 0,0.01 -0.01,0 -0.01,0.01 0,0 0,0.01 -0.01,0 0,0.01 0,0 -0.01,0 0,0.01 -0.01,0 0,0.01 0,0 -0.01,0.01 0,0 -0.01,0.01 -0.01,0.01 0,0 -0.01,0.01 0,0 -0.01,0.01 -0.01,0.01 0,0 -0.01,0.01 -0.01,0.01 -0.01,0.01 0,0 c -1.25,1.26 -1.57,3.13 -1.57,4.65 0,1.73 0.38,3.46 1.61,4.7 0.13,0.12 0.13,0.14 0.13,0.17 0,0.07 -0.04,0.1 -0.1,0.1 -0.1,0 -1,-0.67 -1.58,-1.94 -0.51,-1.09 -0.63,-2.19 -0.63,-3.03 0,-0.77 0.11,-1.97 0.66,-3.1 0.59,-1.22 1.45,-1.86 1.55,-1.86 0.06,0 0.1,0.03 0.1,0.1 z"
   id="path6073" />
<path
   style="fill:#0000ff;stroke-width:0;fill-opacity:1"
   inkscape:connector-curvature="0"
   d="m 236.32,713.03 0,0 0,0 0,0 0,0 0,0 0,0.01 0,0 0,0 0,0.01 0,0 0,0 0,0.01 0,0 -0.01,0.01 0,0 0,0.01 0,0 -0.01,0.01 0,0 0,0.01 -0.01,0 0,0 0,0.01 -0.01,0 0,0 0,0 -0.01,0 0,0.01 0,0 -0.01,0 0,0 0,0 -0.01,0 0,0.01 -0.01,0 0,0 0,0 -0.01,0 0,0 -0.01,0 0,0 -0.01,0 -0.01,0 0,0 -0.01,0 c -0.23,0 -0.95,-0.08 -1.21,-0.1 -0.08,0 -0.19,-0.01 -0.19,-0.19 0,-0.12 0.09,-0.12 0.24,-0.12 0.48,0 0.5,-0.07 0.5,-0.17 l -0.03,-0.2 -1.45,-5.72 c -0.04,-0.14 -0.04,-0.16 -0.04,-0.22 0,-0.23 0.2,-0.28 0.29,-0.28 0.13,0 0.28,0.09 0.34,0.21 0.05,0.09 0.5,1.93 0.56,2.18 0.34,-0.04 1.15,-0.19 1.15,-0.85 0,-0.07 0,-0.11 -0.03,-0.21 -0.02,-0.12 -0.04,-0.24 -0.04,-0.35 0,-0.58 0.4,-0.98 0.92,-0.98 0.3,0 0.56,0.16 0.78,0.53 0.25,0.43 0.36,0.98 0.36,1 0,0.1 -0.09,0.1 -0.12,0.1 -0.1,0 -0.11,-0.04 -0.14,-0.18 -0.2,-0.72 -0.42,-1.23 -0.86,-1.23 -0.19,0 -0.32,0.11 -0.32,0.47 0,0.16 0.04,0.39 0.08,0.55 0.04,0.17 0.04,0.21 0.04,0.31 0,0.65 -0.63,0.93 -1.47,1.04 0.3,0.18 0.62,0.5 0.85,0.74 0.48,0.52 0.94,0.95 1.42,0.95 0.06,0 0.07,0 0.09,-0.01 0.12,-0.02 0.13,-0.02 0.21,-0.08 0.02,-0.01 0.02,-0.02 0.04,-0.04 -0.47,-0.03 -0.56,-0.41 -0.56,-0.53 0,-0.16 0.11,-0.35 0.37,-0.35 0.26,0 0.55,0.22 0.55,0.61 0,0.29 -0.23,0.62 -0.67,0.62 -0.28,0 -0.74,-0.08 -1.46,-0.87 -0.34,-0.38 -0.72,-0.78 -1.1,-0.93 z"
   id="path6075" />
<path
   style="fill:#0000ff;stroke-width:0;fill-opacity:1"
   inkscape:connector-curvature="0"
   d="m 241.84,708.72 0,0.08 0,0.07 0,0.08 0,0.08 -0.01,0.17 -0.01,0.18 -0.02,0.18 -0.02,0.19 -0.03,0.19 -0.03,0.2 -0.04,0.21 -0.05,0.2 -0.05,0.21 -0.06,0.21 -0.07,0.22 -0.08,0.21 -0.04,0.11 -0.05,0.1 -0.04,0.11 -0.05,0.1 c -0.6,1.22 -1.46,1.87 -1.56,1.87 -0.06,0 -0.09,-0.04 -0.09,-0.1 0,-0.03 0,-0.05 0.18,-0.23 0.98,-0.98 1.55,-2.56 1.55,-4.64 0,-1.69 -0.37,-3.44 -1.61,-4.69 -0.12,-0.12 -0.12,-0.14 -0.12,-0.17 0,-0.06 0.03,-0.1 0.09,-0.1 0.1,0 1,0.67 1.59,1.93 0.5,1.1 0.62,2.2 0.62,3.03 z"
   id="path6077" />
<path
   style="fill:#0000ff;stroke-width:0;fill-opacity:1"
   inkscape:connector-curvature="0"
   d="m 252.45,709.49 0.03,0 0.02,0 0.03,0 0.02,0 0.01,0 0.02,0 0.01,0 0.02,0.01 0.01,0 0.01,0 0.02,0 0.01,0.01 0.01,0 0.01,0.01 0.02,0 0.01,0.01 0.01,0.01 0.01,0 0.01,0.01 0.01,0.01 0,0.01 0.01,0.01 0,0 0,0.01 0.01,0 0,0.01 0,0.01 0,0 0.01,0.01 0,0.01 0,0.01 0,0 0,0.01 0,0.01 0,0.01 0,0.01 0.01,0.01 c 0,0.2 -0.19,0.2 -0.33,0.2 h -5.96 c -0.14,0 -0.33,0 -0.33,-0.2 0,-0.2 0.19,-0.2 0.34,-0.2 z"
   id="path6079" />
<path
   style="fill:#0000ff;stroke-width:0;fill-opacity:1"
   inkscape:connector-curvature="0"
   d="m 252.46,707.56 0.01,0 0.01,0 0.03,0 0.03,0 0.01,0 0.02,0 0.01,0.01 0.01,0 0.02,0 0.01,0 0.02,0 0.01,0.01 0.01,0 0.01,0.01 0.02,0 0.01,0.01 0.01,0 0.01,0.01 0.01,0.01 0.01,0.01 0.01,0 0,0.01 0,0 0.01,0.01 0,0.01 0,0 0.01,0.01 0,0 0,0.01 0,0.01 0.01,0 0,0.01 0,0.01 0,0.01 0,0 0,0.01 0,0.01 0,0.01 0.01,0.01 c 0,0.2 -0.19,0.2 -0.34,0.2 h -5.94 c -0.15,0 -0.34,0 -0.34,-0.2 0,-0.2 0.19,-0.2 0.33,-0.2 z"
   id="path6081" />
<path
   style="fill:#0000ff;stroke-width:0;fill-opacity:1"
   inkscape:connector-curvature="0"
   d="m 259.05,712.6 0,0.01 0,0.01 0,0.01 0,0.01 0,0.01 0,0.01 0,0.01 0,0.01 0,0.01 0,0 -0.01,0.01 0,0.01 0,0.01 0,0 0,0.01 0,0.01 0,0.01 0,0 0,0.01 0,0.01 -0.01,0.01 0,0.01 0,0.01 -0.01,0.01 0,0.01 -0.01,0 0,0.01 -0.01,0 -0.01,0.01 -0.01,0 0,0 -0.01,0 0,0.01 -0.01,0 0,0 -0.01,0 -0.01,0 0,0 -0.01,0 -0.01,0 0,0 -0.01,0 -0.01,0 -0.01,0 -0.01,0.01 0,0 -0.01,0 -0.01,0 -0.01,0 -0.01,0 -0.01,0 -0.01,0 c -0.62,-0.64 -1.5,-0.64 -1.81,-0.64 v -0.31 c 0.19,0 0.78,0 1.3,0.26 v -5.14 c 0,-0.36 -0.03,-0.48 -0.93,-0.48 h -0.31 v -0.31 c 0.34,0.03 1.21,0.03 1.61,0.03 0.4,0 1.26,0 1.61,-0.03 v 0.31 h -0.32 c -0.89,0 -0.92,0.11 -0.92,0.48 z"
   id="path6083" />
<path
   style="fill:#0000ff;stroke-width:0;fill-opacity:1"
   inkscape:connector-curvature="0"
   d="m 269.88,708.53 0.03,0 0.03,0 0.03,0 0.02,0 0.01,0 0.02,0 0.01,0 0.02,0 0.01,0.01 0.02,0 0.01,0 0.01,0.01 0.02,0 0.01,0 0.01,0.01 0.01,0.01 0.01,0 0.01,0.01 0.01,0.01 0.01,0.01 0.01,0.01 0,0 0,0.01 0.01,0.01 0,0 0,0.01 0,0 0.01,0.01 0,0.01 0,0 0,0.01 0,0.01 0,0.01 0,0.01 0.01,0.01 0,0 0,0.01 c 0,0.2 -0.18,0.2 -0.35,0.2 h -5.39 c -0.16,0 -0.34,0 -0.34,-0.2 0,-0.19 0.18,-0.19 0.34,-0.19 z"
   id="path6085" />
<path
   style="fill:#0000ff;stroke-width:0;fill-opacity:1"
   inkscape:connector-curvature="0"
   d="m 277.39,702.9 0,0 0,0 0,0.01 0,0 0,0 0,0.01 0,0 0,0 0,0 0,0.01 0,0 -0.01,0 0,0.01 0,0 0,0 0,0 0,0.01 -0.01,0 0,0.01 0,0 -0.01,0.01 0,0 0,0.01 -0.01,0 c -0.46,0.49 -1.13,1.3 -1.55,2.92 -0.23,0.9 -0.32,1.92 -0.32,2.85 0,2.61 0.63,4.44 1.82,5.73 0.09,0.09 0.09,0.11 0.09,0.13 0,0.1 -0.08,0.1 -0.12,0.1 -0.15,0 -0.68,-0.6 -0.81,-0.75 -1.02,-1.2 -1.66,-2.99 -1.66,-5.2 0,-1.42 0.24,-3.41 1.55,-5.09 0.1,-0.12 0.74,-0.87 0.92,-0.87 0.04,0 0.12,0 0.12,0.1 z"
   id="path6087" />
<path
   style="fill:#0000ff;stroke-width:0;fill-opacity:1"
   inkscape:connector-curvature="0"
   d="m 280.77,712.6 0,0.01 0,0.01 0,0.01 0,0.01 0,0.01 0,0.01 0,0.01 0,0.01 0,0.01 0,0 0,0.01 0,0.01 0,0.01 0,0 0,0.01 0,0.01 0,0 0,0.01 0,0.01 -0.01,0.01 0,0.01 0,0.01 -0.01,0.01 0,0.01 0,0.01 -0.01,0 -0.01,0.01 0,0 -0.01,0.01 -0.01,0 -0.01,0 0,0 -0.01,0 0,0.01 -0.01,0 0,0 -0.01,0 -0.01,0 0,0 -0.01,0 -0.01,0 0,0 -0.01,0 -0.01,0 -0.01,0 -0.01,0 -0.01,0 0,0 -0.01,0 -0.01,0 -0.01,0 -0.01,0 c -0.62,-0.63 -1.5,-0.63 -1.82,-0.63 v -0.31 c 0.2,0 0.79,0 1.31,0.26 v -5.15 c 0,-0.35 -0.03,-0.47 -0.93,-0.47 h -0.32 v -0.31 c 0.35,0.03 1.22,0.03 1.62,0.03 0.39,0 1.26,0 1.61,-0.03 v 0.31 h -0.32 c -0.9,0 -0.93,0.11 -0.93,0.47 z"
   id="path6089" />
<path
   style="fill:#0000ff;stroke-width:0;fill-opacity:1"
   inkscape:connector-curvature="0"
   d="m 291.6,708.52 0.03,0 0.04,0 0.03,0.01 0.01,0 0.02,0 0.01,0 0.02,0 0.01,0 0.02,0 0.01,0.01 0.01,0 0.02,0 0.01,0.01 0.01,0 0.01,0.01 0.01,0.01 0.01,0 0.01,0.01 0.01,0.01 0.01,0.01 0.01,0.01 0,0 0.01,0.01 0,0 0,0.01 0.01,0.01 0,0 0,0.01 0,0.01 0,0 0.01,0.01 0,0.01 0,0.01 0,0.01 0,0 0,0.01 0,0.01 c 0,0.2 -0.18,0.2 -0.35,0.2 h -5.38 c -0.17,0 -0.35,0 -0.35,-0.2 0,-0.2 0.18,-0.2 0.35,-0.2 z"
   id="path6091" />
<path
   style="fill:#0000ff;stroke-width:0;fill-opacity:1"
   inkscape:connector-curvature="0"
   d="m 298.75,714.58 0,0.01 0,0.01 0,0.01 0,0.01 0,0 0,0.01 0,0.01 0,0.01 0,0 0,0.01 0,0.01 0,0 0,0.01 0,0 0,0.01 0,0 0,0.01 -0.01,0 0,0.01 0,0.01 0,0.01 -0.01,0.01 0,0 0,0.01 -0.01,0 0,0.01 -0.01,0 -0.01,0 -0.01,0.01 0,0 -0.01,0 -0.01,0 -0.01,0 0,0 -0.01,0.01 0,0 -0.01,0 -0.01,0 0,0 -0.01,0 -0.01,0 0,0 -0.01,0 -0.01,0 0,0 -0.01,0 -0.01,0 -0.01,0 -0.01,0 -0.01,0 c -0.44,-0.44 -1.08,-0.45 -1.36,-0.45 v -0.25 c 0.17,0 0.62,0 1.01,0.2 v -3.55 c 0,-0.23 0,-0.32 -0.7,-0.32 h -0.26 v -0.25 c 0.12,0.01 0.98,0.03 1.24,0.03 0.21,0 1.09,-0.02 1.24,-0.03 v 0.25 h -0.26 c -0.7,0 -0.7,0.09 -0.7,0.32 z"
   id="path6093" />
<line
   style="stroke-width:0.39800000000000002;fill:#0000ff;fill-opacity:1"
   x1="296.20001"
   y1="708.72998"
   x2="300.60999"
   y2="708.72998"
   id="line6095" />
<path
   style="fill:#0000ff;stroke-width:0;fill-opacity:1"
   inkscape:connector-curvature="0"
   d="m 298.38,707.42 0,0 0,0 0,0 0,0 0,0.01 0.01,0 0,0 0,0 0,0 0,0.01 0,0 0,0 0,0.01 0,0 0,0.01 0,0 0.01,0.01 0,0 0,0.01 0,0.01 0,0 0,0.01 0,0 0.01,0.01 0,0 0,0 0,0.01 0,0 0,0 0,0 0,0.01 0,0 0,0 0,0 0,0 0,0 0,0 0,0 0,0 0,0 c 0,0.04 -0.03,0.1 -0.11,0.1 -0.14,0 -0.72,-0.06 -0.89,-0.07 -0.06,-0.01 -0.15,-0.01 -0.15,-0.16 0,-0.1 0.09,-0.1 0.18,-0.1 0.33,0 0.33,-0.05 0.33,-0.1 0,-0.05 -0.01,-0.09 -0.03,-0.15 l -0.98,-3.94 c -0.03,-0.13 -0.03,-0.14 -0.03,-0.15 0,-0.11 0.08,-0.23 0.23,-0.23 0.19,0 0.28,0.14 0.32,0.3 0.02,0.02 0.32,1.25 0.34,1.35 0.5,-0.05 0.9,-0.21 0.9,-0.58 0,-0.03 0,-0.06 -0.02,-0.13 -0.03,-0.11 -0.03,-0.14 -0.03,-0.22 0,-0.49 0.41,-0.72 0.74,-0.72 0.68,0 0.89,1.06 0.89,1.07 0,0.09 -0.09,0.09 -0.12,0.09 -0.09,0 -0.1,-0.04 -0.13,-0.17 -0.09,-0.3 -0.28,-0.79 -0.62,-0.79 -0.19,0 -0.24,0.17 -0.24,0.36 0,0.12 0,0.13 0.04,0.31 0.01,0.02 0.04,0.14 0.04,0.22 0,0.62 -0.84,0.71 -1.13,0.74 0.2,0.12 0.46,0.35 0.58,0.46 0.35,0.33 0.7,0.66 1.09,0.66 0.08,0 0.17,-0.02 0.23,-0.09 -0.3,-0.05 -0.36,-0.29 -0.36,-0.39 0,-0.16 0.12,-0.26 0.28,-0.26 0.18,0 0.39,0.15 0.39,0.44 0,0.23 -0.17,0.49 -0.53,0.49 -0.4,0 -0.76,-0.28 -1.12,-0.61 -0.29,-0.28 -0.52,-0.49 -0.81,-0.61 z"
   id="path6097" />
<path
   style="fill:#0000ff;stroke-width:0;fill-opacity:1"
   inkscape:connector-curvature="0"
   d="m 304.84,708.75 -0.01,0.27 -0.01,0.28 -0.02,0.3 -0.02,0.3 -0.04,0.31 -0.05,0.32 -0.06,0.33 -0.08,0.33 -0.05,0.16 -0.04,0.17 -0.06,0.17 -0.05,0.17 -0.06,0.16 -0.07,0.17 -0.07,0.17 -0.07,0.17 -0.08,0.16 -0.09,0.17 -0.09,0.17 -0.09,0.16 -0.11,0.16 -0.1,0.16 -0.12,0.16 -0.12,0.16 c -0.1,0.12 -0.74,0.88 -0.92,0.88 -0.05,0 -0.12,-0.02 -0.12,-0.1 0,-0.04 0.02,-0.07 0.06,-0.1 0.48,-0.52 1.12,-1.32 1.53,-2.9 0.23,-0.91 0.32,-1.93 0.32,-2.85 0,-1.01 -0.09,-2.02 -0.35,-2.99 -0.38,-1.39 -0.96,-2.19 -1.47,-2.75 -0.09,-0.09 -0.09,-0.11 -0.09,-0.12 0,-0.08 0.07,-0.1 0.12,-0.1 0.15,0 0.7,0.6 0.81,0.74 1.02,1.2 1.67,2.99 1.67,5.21 z"
   id="path6099" />
<path
   style="fill:#0000ff;stroke-width:0;fill-opacity:1"
   inkscape:connector-curvature="0"
   d="m 308.55,716.86 0,0 0,0 0,0 0,0.01 0,0 0,0 0,0 0,0 0,0 0,0.01 0,0 0.01,0 0,0.01 0,0 0,0.01 0,0 0,0.01 0,0 0,0.01 0.01,0.01 0,0 0,0.01 0,0 0,0.01 0,0 0,0.01 0,0 0,0 0,0 0,0.01 0,0 0.01,0 0,0 0,0 0,0 0,0 0,0 0,0 0,0 0,0 c 0,0.04 -0.03,0.1 -0.12,0.1 -0.13,0 -0.71,-0.05 -0.89,-0.07 -0.05,-0.01 -0.15,-0.01 -0.15,-0.16 0,-0.1 0.1,-0.1 0.18,-0.1 0.33,0 0.33,-0.04 0.33,-0.1 0,-0.05 -0.01,-0.09 -0.02,-0.15 l -0.99,-3.94 c -0.03,-0.12 -0.03,-0.14 -0.03,-0.15 0,-0.11 0.08,-0.23 0.24,-0.23 0.19,0 0.28,0.15 0.32,0.3 0.01,0.02 0.31,1.25 0.34,1.35 0.49,-0.05 0.89,-0.21 0.89,-0.57 0,-0.04 0,-0.07 -0.01,-0.14 -0.03,-0.11 -0.03,-0.14 -0.03,-0.22 0,-0.49 0.4,-0.72 0.74,-0.72 0.67,0 0.88,1.06 0.88,1.07 0,0.09 -0.09,0.09 -0.11,0.09 -0.1,0 -0.1,-0.04 -0.14,-0.17 -0.08,-0.3 -0.27,-0.79 -0.61,-0.79 -0.19,0 -0.25,0.17 -0.25,0.36 0,0.12 0,0.13 0.05,0.31 0,0.03 0.03,0.14 0.03,0.22 0,0.62 -0.84,0.72 -1.13,0.74 0.2,0.12 0.46,0.35 0.58,0.46 0.36,0.33 0.7,0.66 1.09,0.66 0.09,0 0.18,-0.02 0.23,-0.09 -0.3,-0.05 -0.36,-0.29 -0.36,-0.39 0,-0.16 0.12,-0.26 0.28,-0.26 0.19,0 0.4,0.15 0.4,0.45 0,0.22 -0.17,0.48 -0.54,0.48 -0.4,0 -0.76,-0.28 -1.11,-0.61 -0.3,-0.28 -0.53,-0.49 -0.81,-0.61 z"
   id="path6101" />
</g>    <g
       id="g6978"
       transform="matrix(2.2978153,0,0,-2.2978153,-1152.5819,1334.9194)"
       xml:space="preserve"
       stroke-miterlimit="10.433"
       font-style="normal"
       font-variant="normal"
       font-weight="normal"
       font-stretch="normal"
       font-size-adjust="none"
       letter-spacing="normal"
       word-spacing="normal"
       ns0:text="$\\alpha(k) = 1-\\frac{1}{2^k}$"
       ns0:preamble=""
       style="font-style:normal;font-variant:normal;font-weight:normal;font-stretch:normal;letter-spacing:normal;word-spacing:normal;text-anchor:start;fill:#ff0000;fill-opacity:1;fill-rule:evenodd;stroke:#000000;stroke-linecap:butt;stroke-linejoin:miter;stroke-miterlimit:10.43299961;stroke-opacity:1;stroke-dasharray:none;stroke-dashoffset:0">
<path
   inkscape:connector-curvature="0"
   style="fill:#ff0000;fill-opacity:1;stroke-width:0"
   d="m 228.18,709.47 0,0.07 0,0.07 -0.01,0.07 0,0.07 -0.02,0.13 -0.01,0.12 -0.03,0.12 -0.02,0.12 -0.03,0.1 -0.04,0.11 -0.04,0.09 -0.04,0.1 -0.04,0.08 -0.05,0.08 -0.06,0.08 -0.05,0.07 -0.06,0.07 -0.06,0.06 -0.06,0.05 -0.06,0.06 -0.07,0.05 -0.06,0.04 -0.07,0.04 -0.07,0.04 -0.07,0.03 -0.07,0.03 -0.08,0.02 -0.07,0.02 -0.07,0.02 -0.07,0.01 -0.07,0.01 -0.07,0.01 -0.07,0 -0.07,0.01 c -1.37,0 -2.68,-1.43 -2.68,-2.83 0,-0.92 0.6,-1.67 1.61,-1.67 l 0.02,0.21 c -0.59,0 -0.89,0.45 -0.89,1.09 0,0.48 0.26,1.56 0.57,2.06 0.47,0.73 1.01,0.92 1.36,0.92 0.98,0 0.98,-1.3 0.98,-2.08 0,-0.37 0,-0.94 0.02,-1.11 h 0 c -0.87,-0.77 -1.64,-0.88 -2.04,-0.88 l -0.02,-0.21 c 0.63,0 1.34,0.22 2.1,0.83 0.13,-0.53 0.46,-0.83 0.91,-0.83 0.52,0 0.83,0.54 0.83,0.7 0,0.07 -0.06,0.1 -0.12,0.1 -0.07,0 -0.1,-0.03 -0.13,-0.1 -0.18,-0.49 -0.53,-0.49 -0.55,-0.49 -0.31,0 -0.31,0.78 -0.31,1.02 0,0.21 0,0.23 0.1,0.34 0.93,1.18 1.14,2.33 1.14,2.34 0,0.02 -0.01,0.1 -0.12,0.1 -0.1,0 -0.1,-0.03 -0.15,-0.21 -0.18,-0.62 -0.5,-1.38 -0.97,-1.97 z"
   id="path6980" />
<path
   inkscape:connector-curvature="0"
   style="fill:#ff0000;fill-opacity:1;stroke-width:0"
   d="m 233.13,704.74 0,0.01 0,0 0,0 0,0.01 0,0 0,0 0,0.01 0,0 0,0 0,0.01 -0.01,0 0,0.01 0,0 -0.01,0.01 0,0 -0.01,0.01 0,0.01 -0.01,0 0,0.01 0,0 -0.01,0.01 0,0 0,0 -0.01,0.01 0,0 -0.01,0.01 0,0 -0.01,0.01 0,0 -0.01,0.01 0,0 -0.01,0.01 0,0.01 -0.01,0 0,0.01 -0.01,0.01 -0.01,0 0,0.01 -0.01,0.01 -0.01,0 -0.01,0.01 0,0.01 c -1.25,1.25 -1.57,3.13 -1.57,4.65 0,1.73 0.38,3.46 1.61,4.7 0.12,0.12 0.12,0.14 0.12,0.17 0,0.07 -0.03,0.1 -0.09,0.1 -0.1,0 -1,-0.68 -1.59,-1.94 -0.5,-1.09 -0.62,-2.2 -0.62,-3.03 0,-0.78 0.11,-1.98 0.65,-3.1 0.6,-1.22 1.46,-1.87 1.56,-1.87 0.06,0 0.09,0.03 0.09,0.1 z"
   id="path6982" />
<path
   inkscape:connector-curvature="0"
   style="fill:#ff0000;fill-opacity:1;stroke-width:0"
   d="m 236.57,713.91 0,0 0,0 0,0 0,0 0,0.01 0,0 0,0 0,0.01 0,0 0,0.01 0,0 0,0 -0.01,0.01 0,0 0,0.01 0,0 -0.01,0.01 0,0 0,0.01 -0.01,0 0,0.01 0,0 -0.01,0 0,0 0,0.01 0,0 -0.01,0 0,0 0,0 -0.01,0.01 0,0 0,0 -0.01,0 0,0 -0.01,0 0,0 -0.01,0 0,0.01 -0.01,0 0,0 -0.01,0 0,0 -0.01,0 0,0 -0.01,0 c -0.23,0 -0.95,-0.08 -1.21,-0.1 -0.08,-0.01 -0.19,-0.02 -0.19,-0.2 0,-0.12 0.09,-0.12 0.24,-0.12 0.48,0 0.49,-0.07 0.49,-0.17 l -0.02,-0.2 -1.45,-5.72 c -0.04,-0.14 -0.04,-0.16 -0.04,-0.22 0,-0.22 0.2,-0.27 0.29,-0.27 0.13,0 0.28,0.08 0.34,0.2 0.05,0.09 0.5,1.93 0.56,2.18 0.34,-0.03 1.15,-0.19 1.15,-0.85 0,-0.06 0,-0.1 -0.03,-0.2 -0.02,-0.12 -0.04,-0.24 -0.04,-0.35 0,-0.59 0.4,-0.98 0.92,-0.98 0.29,0 0.56,0.15 0.78,0.52 0.25,0.44 0.36,0.99 0.36,1.01 0,0.1 -0.09,0.1 -0.12,0.1 -0.1,0 -0.11,-0.05 -0.14,-0.18 -0.2,-0.73 -0.43,-1.24 -0.86,-1.24 -0.19,0 -0.32,0.11 -0.32,0.47 0,0.17 0.04,0.4 0.08,0.56 0.04,0.17 0.04,0.21 0.04,0.31 0,0.64 -0.63,0.93 -1.48,1.04 0.31,0.18 0.63,0.49 0.86,0.73 0.48,0.53 0.94,0.96 1.42,0.96 0.06,0 0.07,0 0.09,-0.01 0.12,-0.02 0.13,-0.02 0.21,-0.08 0.02,-0.01 0.02,-0.02 0.04,-0.04 -0.48,-0.03 -0.56,-0.42 -0.56,-0.54 0,-0.16 0.1,-0.35 0.37,-0.35 0.26,0 0.55,0.22 0.55,0.61 0,0.3 -0.23,0.63 -0.68,0.63 -0.27,0 -0.73,-0.08 -1.45,-0.88 -0.34,-0.38 -0.73,-0.77 -1.1,-0.92 z"
   id="path6984" />
<path
   inkscape:connector-curvature="0"
   style="fill:#ff0000;fill-opacity:1;stroke-width:0"
   d="m 242.09,709.61 0,0.07 0,0.08 0,0.08 0,0.08 -0.01,0.17 -0.01,0.17 -0.02,0.18 -0.02,0.19 -0.03,0.2 -0.03,0.2 -0.04,0.2 -0.05,0.21 -0.05,0.21 -0.06,0.21 -0.07,0.21 -0.08,0.21 -0.04,0.11 -0.05,0.11 -0.04,0.1 -0.05,0.11 c -0.6,1.22 -1.46,1.87 -1.56,1.87 -0.06,0 -0.1,-0.04 -0.1,-0.1 0,-0.03 0,-0.05 0.19,-0.23 0.98,-0.99 1.54,-2.57 1.54,-4.64 0,-1.7 -0.36,-3.45 -1.6,-4.7 -0.13,-0.12 -0.13,-0.14 -0.13,-0.17 0,-0.06 0.04,-0.1 0.1,-0.1 0.1,0 1,0.68 1.58,1.94 0.51,1.09 0.63,2.19 0.63,3.03 z"
   id="path6986" />
<path
   inkscape:connector-curvature="0"
   style="fill:#ff0000;fill-opacity:1;stroke-width:0"
   d="m 252.7,710.37 0.02,0 0.03,0 0.03,0 0.02,0.01 0.01,0 0.02,0 0.01,0 0.01,0 0.02,0 0.01,0.01 0.02,0 0.01,0 0.01,0.01 0.01,0 0.01,0.01 0.02,0 0.01,0.01 0.01,0.01 0.01,0.01 0,0.01 0.01,0.01 0.01,0 0,0.01 0,0 0.01,0.01 0,0.01 0,0 0,0.01 0.01,0.01 0,0 0,0.01 0,0.01 0,0.01 0,0.01 0,0 0,0.01 0,0.01 c 0,0.2 -0.18,0.2 -0.32,0.2 h -5.96 c -0.14,0 -0.33,0 -0.33,-0.2 0,-0.2 0.19,-0.2 0.34,-0.2 z"
   id="path6988" />
<path
   inkscape:connector-curvature="0"
   style="fill:#ff0000;fill-opacity:1;stroke-width:0"
   d="m 252.71,708.45 0.01,0 0.01,0 0.03,0 0.03,0 0.01,0 0.02,0 0.01,0 0.01,0 0.02,0 0.01,0.01 0.01,0 0.02,0 0.01,0.01 0.01,0 0.01,0.01 0.02,0 0.01,0.01 0.01,0 0.01,0.01 0.01,0.01 0,0.01 0.01,0 0,0.01 0.01,0.01 0,0 0,0.01 0.01,0 0,0.01 0,0.01 0,0 0.01,0.01 0,0.01 0,0 0,0.01 0,0.01 0,0.01 0,0.01 0,0.01 0,0.01 c 0,0.19 -0.18,0.19 -0.33,0.19 h -5.94 c -0.15,0 -0.34,0 -0.34,-0.19 0,-0.2 0.19,-0.2 0.33,-0.2 z"
   id="path6990" />
<path
   inkscape:connector-curvature="0"
   style="fill:#ff0000;fill-opacity:1;stroke-width:0"
   d="m 259.3,713.48 0,0.01 0,0.01 -0.01,0.02 0,0.01 0,0 0,0.01 0,0.01 0,0.01 0,0.01 0,0.01 0,0.01 0,0.01 0,0 0,0.01 0,0.01 0,0 0,0.01 0,0.01 0,0.01 0,0.01 -0.01,0.01 0,0.01 0,0.01 -0.01,0 0,0.01 -0.01,0.01 -0.01,0 0,0.01 -0.01,0 -0.01,0.01 0,0 -0.01,0 0,0 -0.01,0 -0.01,0 0,0 -0.01,0.01 0,0 -0.01,0 -0.01,0 -0.01,0 0,0 -0.01,0 -0.01,0 -0.01,0 -0.01,0 0,0 -0.01,0 -0.01,0 -0.01,0 -0.01,0 -0.01,0 c -0.62,-0.64 -1.5,-0.64 -1.81,-0.64 v -0.3 c 0.19,0 0.78,0 1.3,0.25 v -5.14 c 0,-0.36 -0.03,-0.48 -0.93,-0.48 h -0.31 v -0.31 c 0.34,0.04 1.21,0.04 1.61,0.04 0.39,0 1.26,0 1.61,-0.04 v 0.31 h -0.32 c -0.9,0 -0.92,0.11 -0.92,0.48 z"
   id="path6992" />
<path
   inkscape:connector-curvature="0"
   style="fill:#ff0000;fill-opacity:1;stroke-width:0"
   d="m 270.13,709.41 0.03,0 0.03,0 0.03,0 0.02,0 0.01,0 0.02,0 0.01,0.01 0.02,0 0.01,0 0.02,0 0.01,0.01 0.01,0 0.01,0 0.02,0.01 0.01,0.01 0.01,0 0.01,0.01 0.01,0.01 0.01,0 0.01,0.01 0,0.01 0.01,0.01 0,0 0,0.01 0.01,0.01 0,0 0,0.01 0,0.01 0.01,0 0,0.01 0,0.01 0,0.01 0,0 0,0.01 0,0.01 0,0.01 0.01,0.01 c 0,0.2 -0.18,0.2 -0.35,0.2 h -5.39 c -0.16,0 -0.34,0 -0.34,-0.2 0,-0.2 0.18,-0.2 0.34,-0.2 z"
   id="path6994" />
<path
   inkscape:connector-curvature="0"
   style="fill:#ff0000;fill-opacity:1;stroke-width:0"
   d="m 279.24,715.47 0,0.01 0,0.01 0,0.01 0,0 0,0.01 0,0.01 0,0.01 0,0 0,0.01 0,0.01 0,0 0,0.01 -0.01,0 0,0.01 0,0.01 0,0 0,0.01 0,0 0,0.01 0,0.01 -0.01,0 0,0.01 0,0.01 -0.01,0 0,0.01 -0.01,0 -0.01,0.01 0,0 -0.01,0 -0.01,0.01 -0.01,0 -0.01,0 0,0 -0.01,0 0,0 -0.01,0 0,0 -0.01,0 -0.01,0 0,0 -0.01,0 -0.01,0 0,0 -0.01,0 -0.01,0 -0.01,0 0,0 -0.01,0 -0.01,0 -0.01,0 c -0.45,-0.43 -1.08,-0.44 -1.37,-0.44 v -0.25 c 0.17,0 0.63,0 1.01,0.19 v -3.54 c 0,-0.23 0,-0.32 -0.69,-0.32 h -0.27 v -0.25 c 0.13,0 0.99,0.03 1.24,0.03 0.22,0 1.1,-0.03 1.25,-0.03 v 0.25 h -0.27 c -0.69,0 -0.69,0.09 -0.69,0.32 z"
   id="path6996" />
<line
   style="fill:#ff0000;fill-opacity:1;stroke-width:0.398"
   x1="274.73001"
   y1="709.62"
   x2="283.04999"
   y2="709.62"
   id="line6998" />
<path
   inkscape:connector-curvature="0"
   style="fill:#ff0000;fill-opacity:1;stroke-width:0"
   d="m 278.24,704.83 h -0.23 c -0.02,-0.15 -0.09,-0.56 -0.18,-0.63 -0.06,-0.04 -0.6,-0.04 -0.69,-0.04 h -1.28 c 0.73,0.64 0.97,0.84 1.39,1.17 0.51,0.41 0.99,0.84 0.99,1.5 0,0.84 -0.73,1.35 -1.63,1.35 -0.86,0 -1.44,-0.6 -1.44,-1.24 0,-0.36 0.3,-0.39 0.37,-0.39 0.16,0 0.36,0.12 0.36,0.37 0,0.12 -0.04,0.37 -0.41,0.37 0.22,0.49 0.69,0.64 1.02,0.64 0.7,0 1.06,-0.54 1.06,-1.1 0,-0.61 -0.43,-1.09 -0.65,-1.34 l -1.68,-1.65 c -0.07,-0.06 -0.07,-0.08 -0.07,-0.27 h 2.87 z"
   id="path7000" />
<path
   inkscape:connector-curvature="0"
   style="fill:#ff0000;fill-opacity:1;stroke-width:0"
   d="m 280.53,708.82 0,0 0,0 0,0.01 0,0 0,0 0.01,0.01 0,0 0,0 0,0.01 0,0 0,0.01 0,0 0,0 0,0.01 0,0 0.01,0 0,0.01 0,0 0,0 0,0.01 0,0 0,0 0,0 0,0.01 0,0 0,0 0,0 0,0.01 0,0 0,0.01 0,0 0,0 c 0,0.09 -0.07,0.09 -0.16,0.08 l -0.61,-0.04 c -0.08,-0.01 -0.09,-0.01 -0.12,-0.03 -0.02,-0.03 -0.03,-0.09 -0.03,-0.12 0,-0.08 0.08,-0.08 0.15,-0.08 0,0 0.09,0 0.17,-0.01 0.09,-0.01 0.1,-0.03 0.1,-0.07 0,-0.01 0,-0.02 -0.03,-0.11 l -0.68,-2.74 c -0.02,-0.08 -0.02,-0.09 -0.02,-0.12 0,-0.11 0.08,-0.18 0.19,-0.18 0.19,0 0.23,0.19 0.25,0.26 l 0.23,0.91 c 0.13,0 0.75,-0.04 0.75,-0.39 0,-0.04 0,-0.06 -0.02,-0.12 -0.01,-0.07 -0.01,-0.09 -0.01,-0.12 0,-0.36 0.32,-0.54 0.61,-0.54 0.5,0 0.7,0.72 0.7,0.77 0,0.07 -0.08,0.07 -0.1,0.07 -0.09,0 -0.1,-0.02 -0.12,-0.11 -0.05,-0.17 -0.2,-0.56 -0.46,-0.56 -0.19,0 -0.21,0.19 -0.21,0.3 0,0 0,0.07 0.02,0.15 0.02,0.09 0.02,0.13 0.02,0.17 0,0.44 -0.55,0.52 -0.87,0.54 0.13,0.08 0.34,0.25 0.42,0.32 0.29,0.22 0.56,0.44 0.84,0.44 0.12,0 0.15,-0.03 0.18,-0.06 -0.01,0 -0.03,-0.02 -0.04,-0.02 -0.23,-0.08 -0.23,-0.28 -0.23,-0.3 0,-0.08 0.06,-0.2 0.22,-0.2 0.1,0 0.31,0.08 0.31,0.35 0,0.24 -0.19,0.39 -0.43,0.39 -0.33,0 -0.62,-0.22 -0.99,-0.52 -0.17,-0.14 -0.33,-0.26 -0.53,-0.34 z"
   id="path7002" />
</g>    <g
       style="font-style:normal;font-variant:normal;font-weight:normal;font-stretch:normal;letter-spacing:normal;word-spacing:normal;text-anchor:start;fill:#ff0000;fill-opacity:1;fill-rule:evenodd;stroke:#000000;stroke-linecap:butt;stroke-linejoin:miter;stroke-miterlimit:10.43299961;stroke-opacity:1;stroke-dasharray:none;stroke-dashoffset:0"
       ns0:preamble=""
       ns0:text="$\\frac{1}{2}(\\alpha(k)+\\beta(k))$"
       text-anchor="start"
       word-spacing="normal"
       letter-spacing="normal"
       font-size-adjust="none"
       font-stretch="normal"
       font-weight="normal"
       font-variant="normal"
       font-style="normal"
       fill-opacity="1"
       fill-rule="evenodd"
       fill="none"
       stroke-opacity="1"
       stroke-dashoffset="0"
       stroke-dasharray="none"
       stroke-miterlimit="10.433"
       stroke-linejoin="miter"
       stroke-linecap="butt"
       stroke="black"
       xml:space="preserve"
       transform="matrix(2.2978153,0,0,-2.2978153,-1154.6022,1471.29)"
       id="g7212">
<path
   id="path7214"
   fill="black"
   stroke-width="0"
   d="M226.96,715.47 L226.96,715.48 L226.96,715.49 L226.96,715.5 L226.96,715.5 L226.96,715.51 L226.96,715.52 L226.96,715.53 L226.96,715.53 L226.96,715.54 L226.96,715.55 L226.96,715.55 L226.96,715.56 L226.96,715.56 L226.96,715.57 L226.96,715.58 L226.96,715.58 L226.95,715.59 L226.95,715.59 L226.95,715.6 L226.95,715.61 L226.95,715.61 L226.94,715.62 L226.94,715.63 L226.93,715.63 L226.93,715.64 L226.92,715.64 L226.92,715.65 L226.91,715.65 L226.9,715.65 L226.9,715.66 L226.89,715.66 L226.88,715.66 L226.87,715.66 L226.87,715.66 L226.86,715.66 L226.86,715.66 L226.85,715.66 L226.84,715.66 L226.84,715.66 L226.83,715.66 L226.82,715.66 L226.82,715.66 L226.81,715.66 L226.8,715.66 L226.79,715.66 L226.79,715.66 L226.78,715.66 L226.77,715.66 L226.76,715.66 L226.75,715.66 C226.31,715.23,225.67,715.22,225.39,715.22 V714.97 C225.55,714.97,226.01,714.97,226.4,715.16 V711.62 C226.4,711.39,226.4,711.3,225.7,711.3 H225.44 V711.05 C225.56,711.05,226.42,711.08,226.68,711.08 C226.89,711.08,227.77,711.05,227.92,711.05 V711.3 H227.66 C226.96,711.3,226.96,711.39,226.96,711.62 Z " />
<line
   id="line7216"
   stroke-width="0.398"
   y2="709.62"
   x2="228.6"
   y1="709.62"
   x1="224.63" />
<path
   id="path7218"
   fill="black"
   stroke-width="0"
   d="M228.15,704.96 H227.91 C227.89,704.8,227.82,704.39,227.73,704.32 C227.67,704.28,227.13,704.28,227.04,704.28 H225.76 C226.49,704.93,226.73,705.12,227.15,705.45 C227.66,705.86,228.15,706.29,228.15,706.95 C228.15,707.79,227.41,708.31,226.51,708.31 C225.65,708.31,225.07,707.7,225.07,707.06 C225.07,706.71,225.37,706.67,225.44,706.67 C225.6,706.67,225.8,706.79,225.8,707.04 C225.8,707.17,225.76,707.41,225.39,707.41 C225.61,707.9,226.08,708.06,226.41,708.06 C227.11,708.06,227.47,707.52,227.47,706.95 C227.47,706.35,227.04,705.87,226.82,705.62 L225.14,703.96 C225.07,703.9,225.07,703.89,225.07,703.69 H227.94 Z " />
<path
   id="path7220"
   fill="black"
   stroke-width="0"
   d="M233.09,704.74 L233.09,704.75 L233.09,704.75 L233.09,704.75 L233.09,704.76 L233.09,704.76 L233.08,704.76 L233.08,704.77 L233.08,704.77 L233.08,704.77 L233.08,704.78 L233.08,704.78 L233.07,704.79 L233.07,704.79 L233.07,704.8 L233.06,704.8 L233.06,704.81 L233.05,704.82 L233.05,704.82 L233.04,704.83 L233.04,704.83 L233.04,704.84 L233.03,704.84 L233.03,704.84 L233.02,704.85 L233.02,704.85 L233.02,704.86 L233.01,704.86 L233.01,704.87 L233,704.87 L233,704.88 L232.99,704.88 L232.99,704.89 L232.98,704.9 L232.97,704.9 L232.97,704.91 L232.96,704.92 L232.95,704.92 L232.95,704.93 L232.94,704.94 L232.93,704.94 L232.93,704.95 L232.92,704.96 C231.67,706.21,231.36,708.09,231.36,709.61 C231.36,711.34,231.73,713.07,232.96,714.31 C233.09,714.43,233.09,714.45,233.09,714.48 C233.09,714.55,233.05,714.58,232.99,714.58 C232.89,714.58,231.99,713.9,231.41,712.64 C230.9,711.55,230.78,710.44,230.78,709.61 C230.78,708.83,230.89,707.63,231.44,706.51 C232.03,705.29,232.89,704.64,232.99,704.64 C233.05,704.64,233.09,704.67,233.09,704.74 Z " />
<path
   id="path7222"
   fill="black"
   stroke-width="0"
   d="M238.41,709.47 L238.41,709.54 L238.41,709.61 L238.41,709.68 L238.4,709.75 L238.39,709.88 L238.37,710 L238.35,710.12 L238.32,710.24 L238.29,710.34 L238.26,710.45 L238.22,710.54 L238.18,710.64 L238.13,710.72 L238.08,710.8 L238.03,710.88 L237.98,710.95 L237.92,711.02 L237.86,711.08 L237.8,711.13 L237.74,711.19 L237.67,711.24 L237.6,711.28 L237.53,711.32 L237.47,711.36 L237.39,711.39 L237.32,711.42 L237.25,711.44 L237.18,711.46 L237.11,711.48 L237.04,711.49 L236.96,711.5 L236.89,711.51 L236.82,711.51 L236.75,711.52 C235.39,711.52,234.08,710.09,234.08,708.69 C234.08,707.77,234.67,707.02,235.69,707.02 L235.71,707.23 C235.11,707.23,234.81,707.68,234.81,708.32 C234.81,708.8,235.07,709.88,235.39,710.38 C235.86,711.11,236.4,711.3,236.74,711.3 C237.73,711.3,237.73,710,237.73,709.22 C237.73,708.85,237.73,708.28,237.75,708.11 H237.75 C236.87,707.34,236.11,707.23,235.71,707.23 L235.69,707.02 C236.32,707.02,237.03,707.24,237.79,707.85 C237.92,707.32,238.25,707.02,238.69,707.02 C239.22,707.02,239.53,707.56,239.53,707.72 C239.53,707.79,239.47,707.82,239.41,707.82 C239.34,707.82,239.31,707.79,239.28,707.72 C239.1,707.23,238.74,707.23,238.72,707.23 C238.41,707.23,238.41,708.01,238.41,708.25 C238.41,708.46,238.41,708.48,238.51,708.59 C239.45,709.77,239.66,710.92,239.66,710.93 C239.66,710.95,239.65,711.03,239.54,711.03 C239.44,711.03,239.44,711,239.39,710.82 C239.21,710.2,238.88,709.44,238.41,708.85 Z " />
<path
   id="path7224"
   fill="black"
   stroke-width="0"
   d="M243.37,704.74 L243.37,704.75 L243.37,704.75 L243.37,704.75 L243.37,704.76 L243.37,704.76 L243.37,704.76 L243.37,704.77 L243.37,704.77 L243.37,704.77 L243.36,704.78 L243.36,704.78 L243.36,704.79 L243.35,704.79 L243.35,704.8 L243.35,704.8 L243.34,704.81 L243.34,704.82 L243.33,704.82 L243.33,704.83 L243.32,704.83 L243.32,704.84 L243.32,704.84 L243.31,704.84 L243.31,704.85 L243.31,704.85 L243.3,704.86 L243.3,704.86 L243.29,704.87 L243.29,704.87 L243.28,704.88 L243.28,704.88 L243.27,704.89 L243.26,704.9 L243.26,704.9 L243.25,704.91 L243.25,704.92 L243.24,704.92 L243.23,704.93 L243.23,704.94 L243.22,704.94 L243.21,704.95 L243.2,704.96 C241.96,706.21,241.64,708.09,241.64,709.61 C241.64,711.34,242.02,713.07,243.24,714.31 C243.37,714.43,243.37,714.45,243.37,714.48 C243.37,714.55,243.33,714.58,243.27,714.58 C243.17,714.58,242.28,713.9,241.69,712.64 C241.18,711.55,241.06,710.44,241.06,709.61 C241.06,708.83,241.17,707.63,241.72,706.51 C242.32,705.29,243.17,704.64,243.27,704.64 C243.33,704.64,243.37,704.67,243.37,704.74 Z " />
<path
   id="path7226"
   fill="black"
   stroke-width="0"
   d="M246.81,713.91 L246.81,713.91 L246.81,713.91 L246.81,713.91 L246.81,713.91 L246.81,713.92 L246.81,713.92 L246.81,713.92 L246.81,713.93 L246.81,713.93 L246.81,713.94 L246.8,713.94 L246.8,713.94 L246.8,713.95 L246.8,713.95 L246.8,713.96 L246.79,713.96 L246.79,713.97 L246.79,713.97 L246.79,713.98 L246.78,713.98 L246.78,713.99 L246.77,713.99 L246.77,713.99 L246.77,713.99 L246.77,714 L246.76,714 L246.76,714 L246.76,714 L246.75,714 L246.75,714.01 L246.75,714.01 L246.74,714.01 L246.74,714.01 L246.73,714.01 L246.73,714.01 L246.73,714.01 L246.72,714.01 L246.72,714.02 L246.71,714.02 L246.71,714.02 L246.7,714.02 L246.7,714.02 L246.69,714.02 L246.68,714.02 L246.68,714.02 C246.45,714.02,245.72,713.94,245.46,713.92 C245.39,713.91,245.28,713.9,245.28,713.72 C245.28,713.6,245.37,713.6,245.51,713.6 C245.99,713.6,246.01,713.53,246.01,713.43 L245.98,713.23 L244.54,707.51 C244.5,707.37,244.5,707.35,244.5,707.29 C244.5,707.07,244.7,707.02,244.79,707.02 C244.92,707.02,245.07,707.1,245.13,707.22 C245.18,707.31,245.62,709.15,245.68,709.4 C246.02,709.37,246.84,709.21,246.84,708.55 C246.84,708.49,246.84,708.45,246.81,708.35 C246.79,708.23,246.77,708.11,246.77,708 C246.77,707.41,247.17,707.02,247.68,707.02 C247.98,707.02,248.25,707.17,248.47,707.54 C248.72,707.98,248.83,708.53,248.83,708.55 C248.83,708.65,248.74,708.65,248.71,708.65 C248.61,708.65,248.6,708.6,248.57,708.47 C248.37,707.74,248.14,707.23,247.7,707.23 C247.51,707.23,247.38,707.34,247.38,707.7 C247.38,707.87,247.43,708.1,247.46,708.26 C247.51,708.43,247.51,708.47,247.51,708.57 C247.51,709.21,246.88,709.5,246.03,709.61 C246.34,709.79,246.66,710.1,246.89,710.34 C247.37,710.87,247.82,711.3,248.31,711.3 C248.37,711.3,248.38,711.3,248.4,711.29 C248.52,711.27,248.53,711.27,248.61,711.21 C248.63,711.2,248.63,711.19,248.65,711.17 C248.17,711.14,248.08,710.75,248.08,710.63 C248.08,710.47,248.19,710.28,248.46,710.28 C248.72,710.28,249.01,710.5,249.01,710.89 C249.01,711.19,248.78,711.52,248.33,711.52 C248.05,711.52,247.59,711.44,246.88,710.64 C246.54,710.26,246.15,709.87,245.77,709.72 Z " />
<path
   id="path7228"
   fill="black"
   stroke-width="0"
   d="M252.33,709.61 L252.33,709.68 L252.33,709.76 L252.32,709.84 L252.32,709.92 L252.31,710.09 L252.3,710.26 L252.29,710.44 L252.26,710.63 L252.24,710.83 L252.21,711.03 L252.17,711.23 L252.12,711.44 L252.07,711.65 L252.01,711.86 L251.94,712.07 L251.86,712.28 L251.81,712.39 L251.77,712.5 L251.72,712.6 L251.67,712.71 C251.07,713.93,250.22,714.58,250.12,714.58 C250.06,714.58,250.02,714.54,250.02,714.48 C250.02,714.45,250.02,714.43,250.21,714.25 C251.18,713.26,251.75,711.68,251.75,709.61 C251.75,707.91,251.38,706.16,250.15,704.91 C250.02,704.79,250.02,704.77,250.02,704.74 C250.02,704.68,250.06,704.64,250.12,704.64 C250.22,704.64,251.11,705.32,251.7,706.58 C252.21,707.67,252.33,708.77,252.33,709.61 Z " />
<path
   id="path7230"
   fill="black"
   stroke-width="0"
   d="M259.61,709.41 H262.38 C262.52,709.41,262.71,709.41,262.71,709.61 C262.71,709.81,262.52,709.81,262.38,709.81 H259.61 V712.59 C259.61,712.73,259.61,712.92,259.41,712.92 C259.21,712.92,259.21,712.73,259.21,712.59 V709.81 H256.42 C256.29,709.81,256.1,709.81,256.1,709.61 C256.1,709.41,256.29,709.41,256.42,709.41 H259.21 V706.63 C259.21,706.49,259.21,706.3,259.41,706.3 C259.61,706.3,259.61,706.49,259.61,706.63 Z " />
<path
   id="path7232"
   fill="black"
   stroke-width="0"
   d="M271.23,712.78 L271.22,712.85 L271.22,712.92 L271.21,712.98 L271.2,713.05 L271.19,713.11 L271.17,713.18 L271.15,713.24 L271.13,713.3 L271.1,713.36 L271.07,713.42 L271.04,713.48 L271.01,713.54 L270.97,713.59 L270.94,713.64 L270.89,713.69 L270.85,713.74 L270.81,713.78 L270.76,713.83 L270.71,713.87 L270.65,713.9 L270.6,713.94 L270.54,713.97 L270.48,714 L270.42,714.03 L270.36,714.05 L270.3,714.08 L270.23,714.09 L270.16,714.11 L270.09,714.12 L270.02,714.13 L269.95,714.14 L269.87,714.14 C269.3,714.14,269.02,713.98,268.67,713.72 C268.12,713.32,267.57,712.36,267.38,711.6 L265.8,705.3 C265.79,705.26,265.84,705.2,265.92,705.2 C266,705.2,266.03,705.22,266.04,705.25 L266.74,707.99 C266.93,707.39,267.36,707.03,268.09,707.03 L268.06,707.24 C267.3,707.24,266.93,707.82,266.93,708.53 C266.93,708.62,266.93,708.77,266.98,708.96 L267.61,711.48 C267.83,712.33,268.55,713.91,269.74,713.91 C270.32,713.91,270.67,713.6,270.67,713.01 H270.67 C270.67,712.31,270.29,711.59,269.77,711.29 C269.5,711.39,269.3,711.41,269.01,711.41 C268.8,711.41,268.24,711.42,268.24,711.09 C268.23,710.81,268.75,710.84,268.93,710.84 L268.96,711.06 C268.82,711.06,268.62,711.05,268.52,711.1 C268.54,711.2,268.9,711.18,269.01,711.18 C269.21,711.18,269.3,711.18,269.43,711.13 H269.43 C269.3,711.08,269.2,711.06,268.96,711.06 L268.93,710.84 C269.3,710.84,269.44,710.85,269.74,710.97 C270.12,710.61,270.17,710.3,270.18,709.85 C270.2,709.27,269.96,708.53,269.68,708.14 C269.3,707.6,268.63,707.24,268.06,707.24 L268.09,707.03 C268.82,707.03,269.56,707.37,270.01,707.81 C270.49,708.27,270.81,708.9,270.81,709.64 C270.81,710.35,270.44,710.87,270.08,711.12 C270.66,711.45,271.23,712.06,271.23,712.78 Z " />
<path
   id="path7234"
   fill="black"
   stroke-width="0"
   d="M274.96,704.74 L274.96,704.75 L274.96,704.75 L274.96,704.75 L274.96,704.76 L274.96,704.76 L274.96,704.76 L274.95,704.77 L274.95,704.77 L274.95,704.77 L274.95,704.78 L274.95,704.78 L274.94,704.79 L274.94,704.79 L274.94,704.8 L274.93,704.8 L274.93,704.81 L274.92,704.82 L274.92,704.82 L274.91,704.83 L274.91,704.83 L274.91,704.84 L274.9,704.84 L274.9,704.84 L274.9,704.85 L274.89,704.85 L274.89,704.86 L274.88,704.86 L274.88,704.87 L274.87,704.87 L274.87,704.88 L274.86,704.88 L274.86,704.89 L274.85,704.9 L274.84,704.9 L274.84,704.91 L274.83,704.92 L274.83,704.92 L274.82,704.93 L274.81,704.94 L274.8,704.94 L274.8,704.95 L274.79,704.96 C273.55,706.21,273.23,708.09,273.23,709.61 C273.23,711.34,273.61,713.07,274.83,714.31 C274.96,714.43,274.96,714.45,274.96,714.48 C274.96,714.55,274.92,714.58,274.86,714.58 C274.76,714.58,273.86,713.9,273.28,712.64 C272.77,711.55,272.65,710.44,272.65,709.61 C272.65,708.83,272.76,707.63,273.31,706.51 C273.9,705.29,274.76,704.64,274.86,704.64 C274.92,704.64,274.96,704.67,274.96,704.74 Z " />
<path
   id="path7236"
   fill="black"
   stroke-width="0"
   d="M278.39,713.91 L278.39,713.91 L278.39,713.91 L278.39,713.91 L278.39,713.91 L278.39,713.92 L278.39,713.92 L278.39,713.92 L278.39,713.93 L278.39,713.93 L278.39,713.94 L278.39,713.94 L278.39,713.94 L278.39,713.95 L278.39,713.95 L278.38,713.96 L278.38,713.96 L278.38,713.97 L278.37,713.97 L278.37,713.98 L278.37,713.98 L278.36,713.99 L278.36,713.99 L278.36,713.99 L278.35,713.99 L278.35,714 L278.35,714 L278.35,714 L278.34,714 L278.34,714 L278.34,714.01 L278.33,714.01 L278.33,714.01 L278.32,714.01 L278.32,714.01 L278.32,714.01 L278.31,714.01 L278.31,714.01 L278.3,714.02 L278.3,714.02 L278.29,714.02 L278.29,714.02 L278.28,714.02 L278.28,714.02 L278.27,714.02 L278.27,714.02 C278.04,714.02,277.31,713.94,277.05,713.92 C276.97,713.91,276.86,713.9,276.86,713.72 C276.86,713.6,276.95,713.6,277.1,713.6 C277.58,713.6,277.6,713.53,277.6,713.43 L277.57,713.23 L276.13,707.51 C276.09,707.37,276.09,707.35,276.09,707.29 C276.09,707.07,276.29,707.02,276.38,707.02 C276.5,707.02,276.65,707.1,276.71,707.22 C276.76,707.31,277.21,709.15,277.27,709.4 C277.61,709.37,278.42,709.21,278.42,708.55 C278.42,708.49,278.42,708.45,278.39,708.35 C278.37,708.23,278.36,708.11,278.36,708 C278.36,707.41,278.75,707.02,279.27,707.02 C279.57,707.02,279.84,707.17,280.06,707.54 C280.3,707.98,280.41,708.53,280.41,708.55 C280.41,708.65,280.33,708.65,280.3,708.65 C280.2,708.65,280.18,708.6,280.15,708.47 C279.96,707.74,279.73,707.23,279.29,707.23 C279.1,707.23,278.97,707.34,278.97,707.7 C278.97,707.87,279.01,708.1,279.05,708.26 C279.09,708.43,279.09,708.47,279.09,708.57 C279.09,709.21,278.46,709.5,277.62,709.61 C277.93,709.79,278.24,710.1,278.47,710.34 C278.95,710.87,279.41,711.3,279.9,711.3 C279.96,711.3,279.97,711.3,279.99,711.29 C280.11,711.27,280.12,711.27,280.2,711.21 C280.21,711.2,280.21,711.19,280.23,711.17 C279.76,711.14,279.67,710.75,279.67,710.63 C279.67,710.47,279.78,710.28,280.05,710.28 C280.3,710.28,280.59,710.5,280.59,710.89 C280.59,711.19,280.36,711.52,279.92,711.52 C279.64,711.52,279.18,711.44,278.46,710.64 C278.13,710.26,277.74,709.87,277.36,709.72 Z " />
<path
   id="path7238"
   fill="black"
   stroke-width="0"
   d="M283.92,709.61 L283.91,709.68 L283.91,709.76 L283.91,709.84 L283.91,709.92 L283.9,710.09 L283.89,710.26 L283.87,710.44 L283.85,710.63 L283.82,710.83 L283.79,711.03 L283.75,711.23 L283.71,711.44 L283.65,711.65 L283.59,711.86 L283.52,712.07 L283.44,712.28 L283.4,712.39 L283.36,712.5 L283.31,712.6 L283.26,712.71 C282.66,713.93,281.81,714.58,281.71,714.58 C281.65,714.58,281.61,714.54,281.61,714.48 C281.61,714.45,281.61,714.43,281.8,714.25 C282.77,713.26,283.34,711.68,283.34,709.61 C283.34,707.91,282.97,706.16,281.74,704.91 C281.61,704.79,281.61,704.77,281.61,704.74 C281.61,704.68,281.65,704.64,281.71,704.64 C281.81,704.64,282.7,705.32,283.29,706.58 C283.8,707.67,283.92,708.77,283.92,709.61 Z " />
<path
   id="path7240"
   fill="black"
   stroke-width="0"
   d="M287.79,709.61 L287.79,709.68 L287.79,709.76 L287.79,709.84 L287.78,709.92 L287.78,710.09 L287.76,710.26 L287.75,710.44 L287.73,710.63 L287.7,710.83 L287.67,711.03 L287.63,711.23 L287.58,711.44 L287.53,711.65 L287.47,711.86 L287.4,712.07 L287.32,712.28 L287.28,712.39 L287.23,712.5 L287.18,712.6 L287.13,712.71 C286.54,713.93,285.68,714.58,285.58,714.58 C285.52,714.58,285.48,714.54,285.48,714.48 C285.48,714.45,285.48,714.43,285.67,714.25 C286.65,713.26,287.21,711.68,287.21,709.61 C287.21,707.91,286.85,706.16,285.61,704.91 C285.48,704.79,285.48,704.77,285.48,704.74 C285.48,704.68,285.52,704.64,285.58,704.64 C285.68,704.64,286.58,705.32,287.16,706.58 C287.67,707.67,287.79,708.77,287.79,709.61 Z " />
</g>    <path
       style="fill:none;fill-opacity:1;stroke:#000000;stroke-width:0.70899999000000002;stroke-linecap:butt;stroke-linejoin:round;stroke-miterlimit:4;stroke-opacity:1;stroke-dasharray:5.67199993000000013, 5.67199993000000013;stroke-dashoffset:0"
       d="m -1025.7263,148.59897 0,-211.496126 -107.9695,0"
       id="path7347"
       inkscape:connector-curvature="0" />
  </g>
</svg>
