<?xml version="1.0" encoding="UTF-8" standalone="no"?>
<!-- Created with Inkscape (http://www.inkscape.org/) -->

<svg
   xmlns:ns0="http://www.iki.fi/pav/software/textext/"
   xmlns:dc="http://purl.org/dc/elements/1.1/"
   xmlns:cc="http://creativecommons.org/ns#"
   xmlns:rdf="http://www.w3.org/1999/02/22-rdf-syntax-ns#"
   xmlns:svg="http://www.w3.org/2000/svg"
   xmlns="http://www.w3.org/2000/svg"
   xmlns:sodipodi="http://sodipodi.sourceforge.net/DTD/sodipodi-0.dtd"
   xmlns:inkscape="http://www.inkscape.org/namespaces/inkscape"
   width="744.09448819"
   height="1052.3622047"
   id="svg5219"
   version="1.1"
   inkscape:version="0.48.4 r9939"
   sodipodi:docname="multiway3.svg">
  <sodipodi:namedview
     id="base"
     pagecolor="#ffffff"
     bordercolor="#666666"
     borderopacity="1.0"
     inkscape:pageopacity="0.0"
     inkscape:pageshadow="2"
     inkscape:zoom="1"
     inkscape:cx="1331.9881"
     inkscape:cy="-186.59199"
     inkscape:document-units="px"
     inkscape:current-layer="layer2"
     showgrid="true"
     inkscape:window-width="1918"
     inkscape:window-height="1062"
     inkscape:window-x="0"
     inkscape:window-y="0"
     inkscape:window-maximized="0"
     inkscape:snap-grids="true"
     inkscape:snap-to-guides="false"
     showborder="false"
     inkscape:showpageshadow="false"
     inkscape:snap-object-midpoints="true"
     inkscape:snap-global="false">
    <inkscape:grid
       type="xygrid"
       id="grid5227"
       empspacing="5"
       visible="true"
       enabled="true"
       snapvisiblegridlinesonly="true"
       units="mm"
       spacingx="1mm"
       spacingy="1mm" />
  </sodipodi:namedview>
  <defs
     id="defs5221" />
  <metadata
     id="metadata5224">
    <rdf:RDF>
      <cc:Work
         rdf:about="">
        <dc:format>image/svg+xml</dc:format>
        <dc:type
           rdf:resource="http://purl.org/dc/dcmitype/StillImage" />
        <dc:title></dc:title>
      </cc:Work>
    </rdf:RDF>
  </metadata>
  <g
     inkscape:label="Layer 1"
     inkscape:groupmode="layer"
     id="layer1"
     style="display:inline">
    <text
       xml:space="preserve"
       style="font-size:40px;font-style:normal;font-weight:normal;line-height:125%;letter-spacing:0px;word-spacing:0px;fill:#000000;fill-opacity:1;stroke:none;font-family:Sans"
       x="589.28571"
       y="283.07648"
       id="text6044"
       sodipodi:linespacing="125%"><tspan
         sodipodi:role="line"
         id="tspan6046"
         x="589.28571"
         y="283.07648" /></text>
    <g
       style="font-style:normal;font-variant:normal;font-weight:normal;font-stretch:normal;letter-spacing:normal;word-spacing:normal;text-anchor:start;fill:none;stroke:#000000;stroke-linecap:butt;stroke-linejoin:miter;stroke-miterlimit:10.43299961;stroke-opacity:1;stroke-dasharray:none;stroke-dashoffset:0"
       id="g6123"
       transform="matrix(3.9282577,0,0,-3.9282577,-663.5751,3311.6097)"
       xml:space="preserve"
       stroke-miterlimit="10.433"
       font-style="normal"
       font-variant="normal"
       font-weight="normal"
       font-stretch="normal"
       font-size-adjust="none"
       letter-spacing="normal"
       word-spacing="normal"
       ns0:text="$5$"
       ns0:preamble="" />  </g>
  <g
     style="display:inline"
     inkscape:label="Layer"
     id="layer2"
     inkscape:groupmode="layer">
    <rect
       ry="52.435463"
       y="893.8606"
       x="1665.984"
       height="104.87093"
       width="107.39922"
       id="rect5722"
       style="fill:#ffef56;fill-opacity:1;stroke:none;display:inline" />
    <rect
       style="fill:#ffef56;fill-opacity:1;stroke:none;display:inline"
       id="rect5720"
       width="107.39922"
       height="104.87093"
       x="1583.9597"
       y="1357.7227"
       ry="52.435463" />
    <rect
       ry="52.435463"
       y="1386.007"
       x="1429.8104"
       height="104.87093"
       width="107.39922"
       id="rect5700-2"
       style="fill:#ffef56;fill-opacity:1;stroke:none;display:inline" />
    <rect
       ry="52.435463"
       y="1378.5637"
       x="1248.9801"
       height="104.87093"
       width="107.39922"
       id="rect5700"
       style="fill:#ffef56;fill-opacity:1;stroke:none" />
    <path
       sodipodi:nodetypes="cc"
       inkscape:connector-curvature="0"
       id="path4387"
       d="m 1016.9802,1098.1907 c 104.5373,23.7193 98.4341,148.0877 33.3065,199.6613"
       style="fill:none;stroke:#101bff;stroke-width:7.08661413;stroke-linecap:round;stroke-linejoin:round;stroke-miterlimit:4;stroke-opacity:1;stroke-dasharray:21.25984252, 21.25984252;stroke-dashoffset:0;display:inline" />
    <rect
       style="fill:#ffef56;fill-opacity:1;stroke:none"
       id="rect4643"
       width="107.39922"
       height="104.87093"
       x="951.99524"
       y="1126.8337"
       ry="52.435463" />
    <rect
       transform="matrix(0.51425353,-0.85763821,0.85763821,0.51425353,0,0)"
       ry="48.192841"
       y="1655.7258"
       x="-685.86798"
       height="96.385681"
       width="245.99207"
       id="rect4641"
       style="fill:#ffef56;fill-opacity:1;stroke:none"
       inkscape:transform-center-x="16.868965"
       inkscape:transform-center-y="1.8542863" />
    <path
       style="fill:none;stroke:#000000;stroke-width:3.54330707;stroke-linecap:round;stroke-linejoin:round;stroke-miterlimit:4;stroke-opacity:1;stroke-dasharray:none;stroke-dashoffset:0"
       d="M 1559.0551,1034.6456 1700.7874,928.34644"
       id="path4629"
       inkscape:connector-curvature="0" />
    <path
       inkscape:connector-curvature="0"
       id="path4623"
       d="m 1488.189,1406.6929 70.8661,-106.2992 70.8662,106.2992"
       style="fill:none;stroke:#000000;stroke-width:3.54330707;stroke-linecap:round;stroke-linejoin:round;stroke-miterlimit:4;stroke-opacity:1;stroke-dasharray:none;stroke-dashoffset:0" />
    <path
       style="fill:none;stroke:#000000;stroke-width:3.54330707;stroke-linecap:round;stroke-linejoin:round;stroke-miterlimit:4;stroke-opacity:1;stroke-dasharray:none;stroke-dashoffset:0"
       d="m 1151.5748,1406.6929 70.8661,-106.2992 70.8662,106.2992"
       id="path4617"
       inkscape:connector-curvature="0" />
    <g
       id="g12326"
       transform="matrix(3.5994817,0,0,-3.5994817,161.71847,3729.3823)"
       xml:space="preserve"
       stroke-miterlimit="10.433"
       font-style="normal"
       font-variant="normal"
       font-weight="normal"
       font-stretch="normal"
       font-size-adjust="none"
       letter-spacing="normal"
       word-spacing="normal"
       ns0:text="$s_1$"
       ns0:preamble=""
       style="font-style:normal;font-variant:normal;font-weight:normal;font-stretch:normal;letter-spacing:normal;word-spacing:normal;text-anchor:start;fill:none;stroke:#000000;stroke-linecap:butt;stroke-linejoin:miter;stroke-miterlimit:10.43299961;stroke-opacity:1;stroke-dasharray:none;stroke-dashoffset:0"><path
         d="m 227.32,710.84 -0.02,0 -0.03,0 -0.02,-0.01 -0.03,0 -0.02,-0.01 -0.03,-0.01 -0.02,0 -0.02,-0.01 -0.02,-0.01 -0.02,-0.01 -0.02,-0.02 -0.02,-0.01 -0.02,-0.01 -0.02,-0.02 -0.01,-0.01 -0.02,-0.02 -0.02,-0.01 -0.01,-0.02 -0.01,-0.01 -0.02,-0.02 -0.01,-0.02 -0.01,-0.02 -0.01,-0.02 -0.01,-0.02 -0.01,-0.02 0,-0.02 -0.01,-0.02 -0.01,-0.02 0,-0.02 0,-0.02 0,-0.02 0,-0.02 c 0,-0.14 0.08,-0.29 0.3,-0.29 0.22,0 0.46,0.17 0.46,0.56 0,0.45 -0.43,0.86 -1.18,0.86 -1.32,0 -1.69,-1.02 -1.69,-1.45 0,-0.78 0.74,-0.93 1.03,-0.99 0.52,-0.1 1.03,-0.21 1.03,-0.75 0,-0.26 -0.22,-1.1 -1.42,-1.1 -0.14,0 -0.9,0 -1.13,0.53 0.38,-0.05 0.63,0.25 0.63,0.53 0,0.23 -0.17,0.35 -0.37,0.35 -0.26,0 -0.56,-0.21 -0.56,-0.66 0,-0.57 0.57,-0.96 1.42,-0.96 1.61,0 2,1.2 2,1.64 0,0.36 -0.19,0.61 -0.31,0.73 -0.27,0.28 -0.55,0.33 -0.99,0.42 -0.36,0.08 -0.76,0.15 -0.76,0.59 0,0.29 0.24,0.9 1.12,0.9 0.25,0 0.74,-0.07 0.89,-0.46 z"
         id="path12328"
         inkscape:connector-curvature="0"
         style="fill:#000000;stroke-width:0" /><path
         d="m 230.43,710.05 0,0.01 0,0.01 0,0.01 0,0.01 0,0 0,0.01 0,0.01 0,0.01 0,0 0,0.01 0,0.01 0,0 0,0.01 0,0 0,0.01 0,0 0,0.01 0,0 0,0.01 -0.01,0.01 0,0.01 0,0 -0.01,0.01 0,0.01 -0.01,0 0,0.01 -0.01,0 0,0 -0.01,0.01 -0.01,0 -0.01,0 -0.01,0 0,0 -0.01,0 0,0 -0.01,0.01 -0.01,0 0,0 -0.01,0 -0.01,0 0,0 -0.01,0 -0.01,0 0,0 -0.01,0 -0.01,0 -0.01,0 -0.01,0 0,0 -0.01,0 c -0.45,-0.44 -1.08,-0.45 -1.37,-0.45 v -0.25 c 0.17,0 0.63,0 1.01,0.2 v -3.55 c 0,-0.23 0,-0.32 -0.69,-0.32 h -0.27 v -0.25 c 0.13,0.01 0.98,0.03 1.24,0.03 0.22,0 1.09,-0.02 1.25,-0.03 v 0.25 h -0.27 c -0.7,0 -0.7,0.09 -0.7,0.32 z"
         id="path12330"
         inkscape:connector-curvature="0"
         style="fill:#000000;stroke-width:0" /></g>    <g
       style="font-style:normal;font-variant:normal;font-weight:normal;font-stretch:normal;letter-spacing:normal;word-spacing:normal;text-anchor:start;fill:none;stroke:#000000;stroke-linecap:butt;stroke-linejoin:miter;stroke-miterlimit:10.43299961;stroke-opacity:1;stroke-dasharray:none;stroke-dashoffset:0"
       ns0:preamble=""
       ns0:text="$s_3$"
       word-spacing="normal"
       letter-spacing="normal"
       font-size-adjust="none"
       font-stretch="normal"
       font-weight="normal"
       font-variant="normal"
       font-style="normal"
       stroke-miterlimit="10.433"
       xml:space="preserve"
       transform="matrix(3.5994817,0,0,-3.5994817,479.89293,3991.9012)"
       id="g12502"><path
         id="path12504"
         d="m 227.32,710.84 -0.02,0 -0.03,0 -0.02,-0.01 -0.03,0 -0.02,-0.01 -0.03,-0.01 -0.02,0 -0.02,-0.01 -0.02,-0.01 -0.02,-0.01 -0.02,-0.02 -0.02,-0.01 -0.02,-0.01 -0.02,-0.02 -0.01,-0.01 -0.02,-0.02 -0.02,-0.01 -0.01,-0.02 -0.01,-0.01 -0.02,-0.02 -0.01,-0.02 -0.01,-0.02 -0.01,-0.02 -0.01,-0.02 -0.01,-0.02 0,-0.02 -0.01,-0.02 -0.01,-0.02 0,-0.02 0,-0.02 0,-0.02 0,-0.02 c 0,-0.14 0.08,-0.29 0.3,-0.29 0.22,0 0.46,0.17 0.46,0.56 0,0.45 -0.43,0.86 -1.18,0.86 -1.32,0 -1.69,-1.02 -1.69,-1.45 0,-0.78 0.74,-0.93 1.03,-0.99 0.52,-0.1 1.03,-0.21 1.03,-0.75 0,-0.26 -0.22,-1.1 -1.42,-1.1 -0.14,0 -0.9,0 -1.13,0.53 0.38,-0.05 0.63,0.25 0.63,0.53 0,0.23 -0.17,0.35 -0.37,0.35 -0.26,0 -0.56,-0.21 -0.56,-0.66 0,-0.57 0.57,-0.96 1.42,-0.96 1.61,0 2,1.2 2,1.64 0,0.36 -0.19,0.61 -0.31,0.73 -0.27,0.28 -0.55,0.33 -0.99,0.42 -0.36,0.08 -0.76,0.15 -0.76,0.59 0,0.29 0.24,0.9 1.12,0.9 0.25,0 0.74,-0.07 0.89,-0.46 z"
         inkscape:connector-curvature="0"
         style="fill:#000000;stroke-width:0" /><path
         id="path12506"
         d="m 230,707.95 0.05,0 0.05,0 0.05,-0.01 0.05,0 0.05,-0.01 0.04,-0.02 0.05,-0.01 0.04,-0.02 0.04,-0.02 0.04,-0.02 0.04,-0.02 0.04,-0.02 0.03,-0.03 0.04,-0.03 0.03,-0.03 0.03,-0.04 0.03,-0.03 0.03,-0.04 0.03,-0.04 0.02,-0.04 0.03,-0.05 0.02,-0.05 0.02,-0.05 0.02,-0.05 0.01,-0.05 0.02,-0.06 0.01,-0.05 0.01,-0.06 0.01,-0.07 0,-0.06 0.01,-0.07 0,-0.07 c 0,-0.86 -0.51,-1.12 -0.91,-1.12 -0.28,0 -0.89,0.08 -1.18,0.49 0.33,0.02 0.4,0.25 0.4,0.39 0,0.22 -0.17,0.38 -0.38,0.38 -0.2,0 -0.39,-0.12 -0.39,-0.4 0,-0.65 0.72,-1.08 1.56,-1.08 0.97,0 1.64,0.65 1.64,1.34 0,0.55 -0.44,1.09 -1.21,1.25 0.73,0.26 1,0.78 1,1.21 0,0.55 -0.64,0.96 -1.41,0.96 -0.77,0 -1.37,-0.38 -1.37,-0.93 0,-0.24 0.16,-0.37 0.37,-0.37 0.21,0 0.35,0.16 0.35,0.35 0,0.2 -0.14,0.35 -0.35,0.36 0.24,0.31 0.72,0.39 0.98,0.39 0.31,0 0.75,-0.16 0.75,-0.76 0,-0.29 -0.1,-0.61 -0.28,-0.83 -0.23,-0.26 -0.42,-0.28 -0.77,-0.3 -0.17,-0.01 -0.19,-0.01 -0.22,-0.02 -0.02,0 -0.07,-0.01 -0.07,-0.09 0,-0.1 0.06,-0.1 0.18,-0.1 z"
         inkscape:connector-curvature="0"
         style="fill:#000000;stroke-width:0" /></g>    <g
       id="g12654"
       transform="matrix(3.5994817,0,0,-3.5994817,325.33959,3992.1532)"
       xml:space="preserve"
       stroke-miterlimit="10.433"
       font-style="normal"
       font-variant="normal"
       font-weight="normal"
       font-stretch="normal"
       font-size-adjust="none"
       letter-spacing="normal"
       word-spacing="normal"
       ns0:text="$s_2$"
       ns0:preamble=""
       style="font-style:normal;font-variant:normal;font-weight:normal;font-stretch:normal;letter-spacing:normal;word-spacing:normal;text-anchor:start;fill:none;stroke:#000000;stroke-linecap:butt;stroke-linejoin:miter;stroke-miterlimit:10.43299961;stroke-opacity:1;stroke-dasharray:none;stroke-dashoffset:0"><path
         style="fill:#000000;stroke-width:0"
         inkscape:connector-curvature="0"
         d="m 227.32,710.84 -0.02,0 -0.03,0 -0.02,-0.01 -0.03,0 -0.02,-0.01 -0.03,-0.01 -0.02,0 -0.02,-0.01 -0.02,-0.01 -0.02,-0.01 -0.02,-0.02 -0.02,-0.01 -0.02,-0.01 -0.02,-0.02 -0.01,-0.01 -0.02,-0.02 -0.02,-0.01 -0.01,-0.02 -0.01,-0.01 -0.02,-0.02 -0.01,-0.02 -0.01,-0.02 -0.01,-0.02 -0.01,-0.02 -0.01,-0.02 0,-0.02 -0.01,-0.02 -0.01,-0.02 0,-0.02 0,-0.02 0,-0.02 0,-0.02 c 0,-0.14 0.08,-0.29 0.3,-0.29 0.22,0 0.46,0.17 0.46,0.56 0,0.45 -0.43,0.86 -1.18,0.86 -1.32,0 -1.69,-1.02 -1.69,-1.45 0,-0.78 0.74,-0.93 1.03,-0.99 0.52,-0.1 1.03,-0.21 1.03,-0.75 0,-0.26 -0.22,-1.1 -1.42,-1.1 -0.14,0 -0.9,0 -1.13,0.53 0.38,-0.05 0.63,0.25 0.63,0.53 0,0.23 -0.17,0.35 -0.37,0.35 -0.26,0 -0.56,-0.21 -0.56,-0.66 0,-0.57 0.57,-0.96 1.42,-0.96 1.61,0 2,1.2 2,1.64 0,0.36 -0.19,0.61 -0.31,0.73 -0.27,0.28 -0.55,0.33 -0.99,0.42 -0.36,0.08 -0.76,0.15 -0.76,0.59 0,0.29 0.24,0.9 1.12,0.9 0.25,0 0.74,-0.07 0.89,-0.46 z"
         id="path12656" /><path
         style="fill:#000000;stroke-width:0"
         inkscape:connector-curvature="0"
         d="m 231.62,706.9 h -0.24 c -0.02,-0.16 -0.09,-0.57 -0.18,-0.64 -0.05,-0.04 -0.59,-0.04 -0.69,-0.04 h -1.28 c 0.73,0.65 0.98,0.84 1.39,1.17 0.52,0.41 1,0.84 1,1.5 0,0.84 -0.74,1.36 -1.63,1.36 -0.86,0 -1.45,-0.61 -1.45,-1.25 0,-0.35 0.3,-0.39 0.37,-0.39 0.17,0 0.37,0.12 0.37,0.37 0,0.13 -0.05,0.37 -0.41,0.37 0.21,0.49 0.69,0.65 1.01,0.65 0.7,0 1.06,-0.54 1.06,-1.11 0,-0.6 -0.43,-1.08 -0.65,-1.33 l -1.68,-1.66 c -0.07,-0.06 -0.07,-0.07 -0.07,-0.27 h 2.87 z"
         id="path12658" /></g>    <path
       style="fill:#ffe28e;fill-opacity:1;stroke:#000000;stroke-width:3.54330707;stroke-miterlimit:4;stroke-opacity:1;stroke-dasharray:none"
       d="m 1027.5591,1176.3779 194.8818,-141.7323"
       id="path4601"
       inkscape:connector-curvature="0"
       sodipodi:nodetypes="cc" />
    <path
       sodipodi:nodetypes="cc"
       inkscape:connector-curvature="0"
       id="path4603"
       d="m 1027.5591,1176.3779 194.8818,124.0158"
       style="fill:#ffe28e;fill-opacity:1;stroke:#000000;stroke-width:3.54330707;stroke-miterlimit:4;stroke-opacity:1;stroke-dasharray:none" />
    <path
       transform="translate(832.67716,903.54331)"
       sodipodi:type="arc"
       style="fill:#b3ff9c;fill-opacity:1;stroke:#000000;stroke-width:1.77165353;stroke-linecap:butt;stroke-linejoin:round;stroke-miterlimit:4;stroke-opacity:1;stroke-dasharray:none;stroke-dashoffset:0"
       id="path6020"
       sodipodi:cx="194.8819"
       sodipodi:cy="272.83463"
       sodipodi:rx="17.716536"
       sodipodi:ry="17.716536"
       d="m 212.59843,272.83463 a 17.716536,17.716536 0 1 1 -35.43307,0 17.716536,17.716536 0 1 1 35.43307,0 z" />
    <rect
       style="fill:none;stroke:#000000;stroke-width:3.54330707;stroke-linecap:round;stroke-linejoin:round;stroke-miterlimit:4;stroke-opacity:1;stroke-dasharray:none;stroke-dashoffset:0"
       id="rect4605"
       width="336.6142"
       height="265.74805"
       x="1222.4409"
       y="1034.6456"
       ry="1.634012e-05" />
    <path
       transform="translate(1027.559,761.81102)"
       sodipodi:type="arc"
       style="fill:#ffffff;fill-opacity:1;stroke:#000000;stroke-width:1.77165353;stroke-linecap:butt;stroke-linejoin:round;stroke-miterlimit:4;stroke-opacity:1;stroke-dasharray:none;stroke-dashoffset:0"
       id="path4609"
       sodipodi:cx="194.8819"
       sodipodi:cy="272.83463"
       sodipodi:rx="17.716536"
       sodipodi:ry="17.716536"
       d="m 212.59843,272.83463 a 17.716536,17.716536 0 1 1 -35.43307,0 17.716536,17.716536 0 1 1 35.43307,0 z" />
    <path
       d="m 212.59843,272.83463 a 17.716536,17.716536 0 1 1 -35.43307,0 17.716536,17.716536 0 1 1 35.43307,0 z"
       sodipodi:ry="17.716536"
       sodipodi:rx="17.716536"
       sodipodi:cy="272.83463"
       sodipodi:cx="194.8819"
       id="path4611"
       style="fill:#ffffff;fill-opacity:1;stroke:#000000;stroke-width:1.77165353000000003;stroke-linecap:butt;stroke-linejoin:round;stroke-miterlimit:4;stroke-opacity:1;stroke-dasharray:none;stroke-dashoffset:0"
       sodipodi:type="arc"
       transform="translate(1027.559,1027.5591)" />
    <path
       transform="translate(1364.1732,1027.5591)"
       sodipodi:type="arc"
       style="fill:#ffffff;fill-opacity:1;stroke:#000000;stroke-width:1.77165353;stroke-linecap:butt;stroke-linejoin:round;stroke-miterlimit:4;stroke-opacity:1;stroke-dasharray:none;stroke-dashoffset:0"
       id="path4613"
       sodipodi:cx="194.8819"
       sodipodi:cy="272.83463"
       sodipodi:rx="17.716536"
       sodipodi:ry="17.716536"
       d="m 212.59843,272.83463 a 17.716536,17.716536 0 1 1 -35.43307,0 17.716536,17.716536 0 1 1 35.43307,0 z" />
    <path
       d="m 212.59843,272.83463 a 17.716536,17.716536 0 1 1 -35.43307,0 17.716536,17.716536 0 1 1 35.43307,0 z"
       sodipodi:ry="17.716536"
       sodipodi:rx="17.716536"
       sodipodi:cy="272.83463"
       sodipodi:cx="194.8819"
       id="path4615"
       style="fill:#ffffff;fill-opacity:1;stroke:#000000;stroke-width:1.77165353;stroke-linecap:butt;stroke-linejoin:round;stroke-miterlimit:4;stroke-opacity:1;stroke-dasharray:none;stroke-dashoffset:0"
       sodipodi:type="arc"
       transform="translate(1364.1732,761.81102)" />
    <path
       d="m 212.59843,272.83463 a 17.716536,17.716536 0 1 1 -35.43307,0 17.716536,17.716536 0 1 1 35.43307,0 z"
       sodipodi:ry="17.716536"
       sodipodi:rx="17.716536"
       sodipodi:cy="272.83463"
       sodipodi:cx="194.8819"
       id="path4619"
       style="fill:#b3ff9c;fill-opacity:1;stroke:#000000;stroke-width:1.77165353;stroke-linecap:butt;stroke-linejoin:round;stroke-miterlimit:4;stroke-opacity:1;stroke-dasharray:none;stroke-dashoffset:0"
       sodipodi:type="arc"
       transform="translate(956.69291,1133.8583)" />
    <path
       transform="translate(1098.4252,1133.8583)"
       sodipodi:type="arc"
       style="fill:#b3ff9c;fill-opacity:1;stroke:#000000;stroke-width:1.77165353;stroke-linecap:butt;stroke-linejoin:round;stroke-miterlimit:4;stroke-opacity:1;stroke-dasharray:none;stroke-dashoffset:0"
       id="path4621"
       sodipodi:cx="194.8819"
       sodipodi:cy="272.83463"
       sodipodi:rx="17.716536"
       sodipodi:ry="17.716536"
       d="m 212.59843,272.83463 a 17.716536,17.716536 0 1 1 -35.43307,0 17.716536,17.716536 0 1 1 35.43307,0 z" />
    <path
       transform="translate(1293.3071,1133.8583)"
       sodipodi:type="arc"
       style="fill:#b3ff9c;fill-opacity:1;stroke:#000000;stroke-width:1.77165353;stroke-linecap:butt;stroke-linejoin:round;stroke-miterlimit:4;stroke-opacity:1;stroke-dasharray:none;stroke-dashoffset:0"
       id="path4625"
       sodipodi:cx="194.8819"
       sodipodi:cy="272.83463"
       sodipodi:rx="17.716536"
       sodipodi:ry="17.716536"
       d="m 212.59843,272.83463 a 17.716536,17.716536 0 1 1 -35.43307,0 17.716536,17.716536 0 1 1 35.43307,0 z" />
    <path
       d="m 212.59843,272.83463 a 17.716536,17.716536 0 1 1 -35.43307,0 17.716536,17.716536 0 1 1 35.43307,0 z"
       sodipodi:ry="17.716536"
       sodipodi:rx="17.716536"
       sodipodi:cy="272.83463"
       sodipodi:cx="194.8819"
       id="path4627"
       style="fill:#b3ff9c;fill-opacity:1;stroke:#000000;stroke-width:1.77165353;stroke-linecap:butt;stroke-linejoin:round;stroke-miterlimit:4;stroke-opacity:1;stroke-dasharray:none;stroke-dashoffset:0"
       sodipodi:type="arc"
       transform="translate(1435.0394,1133.8583)" />
    <path
       d="m 212.59843,272.83463 a 17.716536,17.716536 0 1 1 -35.43307,0 17.716536,17.716536 0 1 1 35.43307,0 z"
       sodipodi:ry="17.716536"
       sodipodi:rx="17.716536"
       sodipodi:cy="272.83463"
       sodipodi:cx="194.8819"
       id="path4631"
       style="fill:#b3ff9c;fill-opacity:1;stroke:#000000;stroke-width:1.77165353;stroke-linecap:butt;stroke-linejoin:round;stroke-miterlimit:4;stroke-opacity:1;stroke-dasharray:none;stroke-dashoffset:0"
       sodipodi:type="arc"
       transform="translate(1505.9055,655.51181)" />
    <g
       id="g4756"
       transform="matrix(3.5994817,0,0,-3.5994817,264.82233,3644.7023)"
       xml:space="preserve"
       stroke="black"
       stroke-linecap="butt"
       stroke-linejoin="miter"
       stroke-miterlimit="10.433"
       stroke-dasharray="none"
       stroke-dashoffset="0"
       stroke-opacity="1"
       fill="none"
       fill-rule="evenodd"
       fill-opacity="1"
       font-style="normal"
       font-variant="normal"
       font-weight="normal"
       font-stretch="normal"
       font-size-adjust="none"
       letter-spacing="normal"
       word-spacing="normal"
       text-anchor="start"
       ns0:text="$19$"
       ns0:preamble=""
       style="font-style:normal;font-variant:normal;font-weight:normal;font-stretch:normal;letter-spacing:normal;word-spacing:normal;text-anchor:start;fill:#ff1010;stroke:#000000;stroke-linecap:butt;stroke-linejoin:miter;stroke-miterlimit:10.43299960999999954;stroke-opacity:1;stroke-dasharray:none;stroke-dashoffset:0;fill-opacity:1"><path
         d="M226.36,713.48 L226.36,713.49 L226.36,713.5 L226.36,713.52 L226.36,713.53 L226.36,713.53 L226.36,713.54 L226.36,713.55 L226.36,713.56 L226.36,713.57 L226.36,713.58 L226.36,713.59 L226.36,713.6 L226.36,713.6 L226.35,713.61 L226.35,713.62 L226.35,713.62 L226.35,713.63 L226.35,713.64 L226.35,713.65 L226.35,713.66 L226.34,713.67 L226.34,713.68 L226.34,713.69 L226.33,713.69 L226.33,713.7 L226.32,713.71 L226.32,713.71 L226.31,713.72 L226.3,713.72 L226.29,713.73 L226.29,713.73 L226.28,713.73 L226.28,713.73 L226.27,713.73 L226.27,713.73 L226.26,713.73 L226.25,713.74 L226.25,713.74 L226.24,713.74 L226.23,713.74 L226.23,713.74 L226.22,713.74 L226.21,713.74 L226.2,713.74 L226.2,713.74 L226.19,713.74 L226.18,713.74 L226.17,713.74 L226.16,713.74 L226.15,713.74 L226.14,713.74 L226.13,713.74 C225.51,713.1,224.64,713.1,224.32,713.1 V712.8 C224.52,712.8,225.1,712.8,225.62,713.05 V707.91 C225.62,707.55,225.59,707.43,224.7,707.43 H224.38 V707.12 C224.73,707.16,225.59,707.16,225.99,707.16 C226.39,707.16,227.25,707.16,227.6,707.12 V707.43 H227.28 C226.39,707.43,226.36,707.54,226.36,707.91 Z "
         stroke-width="0"
         fill="black"
         id="path4758"
         style="fill:#ff1010;fill-opacity:1" /><path
         d="M232.07,710.28 V709.97 C232.07,707.64,231.03,707.18,230.45,707.18 C230.28,707.18,229.75,707.2,229.48,707.54 C229.92,707.54,229.99,707.83,229.99,708 C229.99,708.31,229.76,708.46,229.54,708.46 C229.38,708.46,229.08,708.37,229.08,707.98 C229.08,707.31,229.62,706.91,230.46,706.91 C231.75,706.91,232.96,708.26,232.96,710.39 C232.96,713.07,231.82,713.74,230.93,713.74 C230.38,713.74,229.9,713.56,229.47,713.11 C229.06,712.67,228.83,712.25,228.83,711.51 C228.83,710.26,229.71,709.29,230.82,709.29 L230.83,709.52 C230.67,709.52,230.21,709.52,229.91,710.15 C229.73,710.51,229.73,711.01,229.73,711.5 C229.73,712.03,229.73,712.5,229.94,712.87 C230.2,713.36,230.58,713.49,230.93,713.49 C231.39,713.49,231.72,713.16,231.89,712.71 C232.01,712.39,232.04,711.76,232.04,711.31 C232.04,710.48,231.71,709.52,230.83,709.52 H230.83 L230.82,709.29 C231.43,709.29,231.84,709.71,232.07,710.28 Z "
         stroke-width="0"
         fill="black"
         id="path4760"
         style="fill:#ff1010;fill-opacity:1" /></g>    <g
       style="font-style:normal;font-variant:normal;font-weight:normal;font-stretch:normal;letter-spacing:normal;word-spacing:normal;text-anchor:start;fill:#ff1010;stroke:#000000;stroke-linecap:butt;stroke-linejoin:miter;stroke-miterlimit:10.43299960999999954;stroke-opacity:1;stroke-dasharray:none;stroke-dashoffset:0;fill-opacity:1"
       ns0:preamble=""
       ns0:text="$19$"
       word-spacing="normal"
       letter-spacing="normal"
       font-size-adjust="none"
       font-stretch="normal"
       font-weight="normal"
       font-variant="normal"
       font-style="normal"
       stroke-miterlimit="10.433"
       xml:space="preserve"
       transform="matrix(3.5994817,0,0,-3.5994817,756.26155,3534.3936)"
       id="g4874"><path
         style="fill:#ff1010;stroke-width:0;fill-opacity:1"
         inkscape:connector-curvature="0"
         id="path4876"
         d="m 226.36,713.48 0,0.01 0,0.01 0,0.02 0,0.01 0,0 0,0.01 0,0.01 0,0.01 0,0.01 0,0.01 0,0.01 0,0.01 0,0 -0.01,0.01 0,0.01 0,0 0,0.01 0,0.01 0,0.01 0,0.01 -0.01,0.01 0,0.01 0,0.01 -0.01,0 0,0.01 -0.01,0.01 0,0 -0.01,0.01 -0.01,0 -0.01,0.01 0,0 -0.01,0 0,0 -0.01,0 0,0 -0.01,0 -0.01,0.01 0,0 -0.01,0 -0.01,0 0,0 -0.01,0 -0.01,0 -0.01,0 0,0 -0.01,0 -0.01,0 -0.01,0 -0.01,0 -0.01,0 -0.01,0 -0.01,0 c -0.62,-0.64 -1.49,-0.64 -1.81,-0.64 v -0.3 c 0.2,0 0.78,0 1.3,0.25 v -5.14 c 0,-0.36 -0.03,-0.48 -0.92,-0.48 h -0.32 v -0.31 c 0.35,0.04 1.21,0.04 1.61,0.04 0.4,0 1.26,0 1.61,-0.04 v 0.31 h -0.32 c -0.89,0 -0.92,0.11 -0.92,0.48 z" /><path
         style="fill:#ff1010;stroke-width:0;fill-opacity:1"
         inkscape:connector-curvature="0"
         id="path4878"
         d="m 232.07,710.28 v -0.31 c 0,-2.33 -1.04,-2.79 -1.62,-2.79 -0.17,0 -0.7,0.02 -0.97,0.36 0.44,0 0.51,0.29 0.51,0.46 0,0.31 -0.23,0.46 -0.45,0.46 -0.16,0 -0.46,-0.09 -0.46,-0.48 0,-0.67 0.54,-1.07 1.38,-1.07 1.29,0 2.5,1.35 2.5,3.48 0,2.68 -1.14,3.35 -2.03,3.35 -0.55,0 -1.03,-0.18 -1.46,-0.63 -0.41,-0.44 -0.64,-0.86 -0.64,-1.6 0,-1.25 0.88,-2.22 1.99,-2.22 l 0.01,0.23 c -0.16,0 -0.62,0 -0.92,0.63 -0.18,0.36 -0.18,0.86 -0.18,1.35 0,0.53 0,1 0.21,1.37 0.26,0.49 0.64,0.62 0.99,0.62 0.46,0 0.79,-0.33 0.96,-0.78 0.12,-0.32 0.15,-0.95 0.15,-1.4 0,-0.83 -0.33,-1.79 -1.21,-1.79 h 0 l -0.01,-0.23 c 0.61,0 1.02,0.42 1.25,0.99 z" /></g>    <g
       id="g4880"
       transform="matrix(3.5994817,0,0,-3.5994817,657.26659,3888.2764)"
       xml:space="preserve"
       stroke-miterlimit="10.433"
       font-style="normal"
       font-variant="normal"
       font-weight="normal"
       font-stretch="normal"
       font-size-adjust="none"
       letter-spacing="normal"
       word-spacing="normal"
       ns0:text="$19$"
       ns0:preamble=""
       style="font-style:normal;font-variant:normal;font-weight:normal;font-stretch:normal;letter-spacing:normal;word-spacing:normal;text-anchor:start;fill:#ff1010;stroke:#000000;stroke-linecap:butt;stroke-linejoin:miter;stroke-miterlimit:10.43299960999999954;stroke-opacity:1;stroke-dasharray:none;stroke-dashoffset:0;fill-opacity:1"><path
         d="m 226.36,713.48 0,0.01 0,0.01 0,0.02 0,0.01 0,0 0,0.01 0,0.01 0,0.01 0,0.01 0,0.01 0,0.01 0,0.01 0,0 -0.01,0.01 0,0.01 0,0 0,0.01 0,0.01 0,0.01 0,0.01 -0.01,0.01 0,0.01 0,0.01 -0.01,0 0,0.01 -0.01,0.01 0,0 -0.01,0.01 -0.01,0 -0.01,0.01 0,0 -0.01,0 0,0 -0.01,0 0,0 -0.01,0 -0.01,0.01 0,0 -0.01,0 -0.01,0 0,0 -0.01,0 -0.01,0 -0.01,0 0,0 -0.01,0 -0.01,0 -0.01,0 -0.01,0 -0.01,0 -0.01,0 -0.01,0 c -0.62,-0.64 -1.49,-0.64 -1.81,-0.64 v -0.3 c 0.2,0 0.78,0 1.3,0.25 v -5.14 c 0,-0.36 -0.03,-0.48 -0.92,-0.48 h -0.32 v -0.31 c 0.35,0.04 1.21,0.04 1.61,0.04 0.4,0 1.26,0 1.61,-0.04 v 0.31 h -0.32 c -0.89,0 -0.92,0.11 -0.92,0.48 z"
         id="path4882"
         inkscape:connector-curvature="0"
         style="fill:#ff1010;stroke-width:0;fill-opacity:1" /><path
         d="m 232.07,710.28 v -0.31 c 0,-2.33 -1.04,-2.79 -1.62,-2.79 -0.17,0 -0.7,0.02 -0.97,0.36 0.44,0 0.51,0.29 0.51,0.46 0,0.31 -0.23,0.46 -0.45,0.46 -0.16,0 -0.46,-0.09 -0.46,-0.48 0,-0.67 0.54,-1.07 1.38,-1.07 1.29,0 2.5,1.35 2.5,3.48 0,2.68 -1.14,3.35 -2.03,3.35 -0.55,0 -1.03,-0.18 -1.46,-0.63 -0.41,-0.44 -0.64,-0.86 -0.64,-1.6 0,-1.25 0.88,-2.22 1.99,-2.22 l 0.01,0.23 c -0.16,0 -0.62,0 -0.92,0.63 -0.18,0.36 -0.18,0.86 -0.18,1.35 0,0.53 0,1 0.21,1.37 0.26,0.49 0.64,0.62 0.99,0.62 0.46,0 0.79,-0.33 0.96,-0.78 0.12,-0.32 0.15,-0.95 0.15,-1.4 0,-0.83 -0.33,-1.79 -1.21,-1.79 h 0 l -0.01,-0.23 c 0.61,0 1.02,0.42 1.25,0.99 z"
         id="path4884"
         inkscape:connector-curvature="0"
         style="fill:#ff1010;stroke-width:0;fill-opacity:1" /></g>    <g
       id="g5304"
       transform="matrix(3.5994817,0,0,-3.5994817,643.9417,3992.1532)"
       xml:space="preserve"
       stroke-miterlimit="10.433"
       font-style="normal"
       font-variant="normal"
       font-weight="normal"
       font-stretch="normal"
       font-size-adjust="none"
       letter-spacing="normal"
       word-spacing="normal"
       ns0:text="$s_4$"
       ns0:preamble=""
       style="font-style:normal;font-variant:normal;font-weight:normal;font-stretch:normal;letter-spacing:normal;word-spacing:normal;text-anchor:start;fill:none;stroke:#000000;stroke-linecap:butt;stroke-linejoin:miter;stroke-miterlimit:10.43299961;stroke-opacity:1;stroke-dasharray:none;stroke-dashoffset:0"><path
         style="fill:#000000;stroke-width:0"
         inkscape:connector-curvature="0"
         d="m 227.32,710.84 -0.02,0 -0.03,0 -0.02,-0.01 -0.03,0 -0.02,-0.01 -0.03,-0.01 -0.02,0 -0.02,-0.01 -0.02,-0.01 -0.02,-0.01 -0.02,-0.02 -0.02,-0.01 -0.02,-0.01 -0.02,-0.02 -0.01,-0.01 -0.02,-0.02 -0.02,-0.01 -0.01,-0.02 -0.01,-0.01 -0.02,-0.02 -0.01,-0.02 -0.01,-0.02 -0.01,-0.02 -0.01,-0.02 -0.01,-0.02 0,-0.02 -0.01,-0.02 -0.01,-0.02 0,-0.02 0,-0.02 0,-0.02 0,-0.02 c 0,-0.14 0.08,-0.29 0.3,-0.29 0.22,0 0.46,0.17 0.46,0.56 0,0.45 -0.43,0.86 -1.18,0.86 -1.32,0 -1.69,-1.02 -1.69,-1.45 0,-0.78 0.74,-0.93 1.03,-0.99 0.52,-0.1 1.03,-0.21 1.03,-0.75 0,-0.26 -0.22,-1.1 -1.42,-1.1 -0.14,0 -0.9,0 -1.13,0.53 0.38,-0.05 0.63,0.25 0.63,0.53 0,0.23 -0.17,0.35 -0.37,0.35 -0.26,0 -0.56,-0.21 -0.56,-0.66 0,-0.57 0.57,-0.96 1.42,-0.96 1.61,0 2,1.2 2,1.64 0,0.36 -0.19,0.61 -0.31,0.73 -0.27,0.28 -0.55,0.33 -0.99,0.42 -0.36,0.08 -0.76,0.15 -0.76,0.59 0,0.29 0.24,0.9 1.12,0.9 0.25,0 0.74,-0.07 0.89,-0.46 z"
         id="path5306" /><path
         style="fill:#000000;stroke-width:0"
         inkscape:connector-curvature="0"
         d="m 231.79,706.77 v 0.25 h -0.78 v 3.1 c 0,0.15 0,0.2 -0.15,0.2 -0.08,0 -0.11,0 -0.18,-0.1 l -2.31,-3.2 v -0.25 h 2.05 l 0.05,0.25 h -1.84 l 1.84,2.55 v -2.55 l -0.05,-0.25 v -0.57 c 0,-0.23 0,-0.32 -0.56,-0.32 h -0.19 v -0.25 c 0.35,0.02 0.79,0.03 1.04,0.03 0.26,0 0.71,-0.01 1.05,-0.03 v 0.25 h -0.18 c -0.57,0 -0.57,0.09 -0.57,0.32 v 0.57 z"
         id="path5308" /></g>    <g
       style="font-style:normal;font-variant:normal;font-weight:normal;font-stretch:normal;letter-spacing:normal;word-spacing:normal;text-anchor:start;fill:none;stroke:#000000;stroke-linecap:butt;stroke-linejoin:miter;stroke-miterlimit:10.43299961;stroke-opacity:1;stroke-dasharray:none;stroke-dashoffset:0"
       ns0:preamble=""
       ns0:text="$s_5$"
       text-anchor="start"
       word-spacing="normal"
       letter-spacing="normal"
       font-size-adjust="none"
       font-stretch="normal"
       font-weight="normal"
       font-variant="normal"
       font-style="normal"
       fill-opacity="1"
       fill-rule="evenodd"
       fill="none"
       stroke-opacity="1"
       stroke-dashoffset="0"
       stroke-dasharray="none"
       stroke-miterlimit="10.433"
       stroke-linejoin="miter"
       stroke-linecap="butt"
       stroke="black"
       xml:space="preserve"
       transform="matrix(3.5994817,0,0,-3.5994817,827.78946,3991.9012)"
       id="g5569"><path
         id="path5571"
         fill="black"
         stroke-width="0"
         d="M227.32,710.84 L227.3,710.84 L227.27,710.84 L227.25,710.83 L227.22,710.83 L227.2,710.82 L227.17,710.81 L227.15,710.81 L227.13,710.8 L227.11,710.79 L227.09,710.78 L227.07,710.76 L227.05,710.75 L227.03,710.74 L227.01,710.72 L227,710.71 L226.98,710.69 L226.96,710.68 L226.95,710.66 L226.94,710.65 L226.92,710.63 L226.91,710.61 L226.9,710.59 L226.89,710.57 L226.88,710.55 L226.87,710.53 L226.87,710.51 L226.86,710.49 L226.85,710.47 L226.85,710.45 L226.85,710.43 L226.85,710.41 L226.85,710.39 C226.85,710.25,226.93,710.1,227.15,710.1 C227.37,710.1,227.61,710.27,227.61,710.66 C227.61,711.11,227.18,711.52,226.43,711.52 C225.11,711.52,224.74,710.5,224.74,710.07 C224.74,709.29,225.48,709.14,225.77,709.08 C226.29,708.98,226.8,708.87,226.8,708.33 C226.8,708.07,226.58,707.23,225.38,707.23 C225.24,707.23,224.48,707.23,224.25,707.76 C224.63,707.71,224.88,708.01,224.88,708.29 C224.88,708.52,224.71,708.64,224.51,708.64 C224.25,708.64,223.95,708.43,223.95,707.98 C223.95,707.41,224.52,707.02,225.37,707.02 C226.98,707.02,227.37,708.22,227.37,708.66 C227.37,709.02,227.18,709.27,227.06,709.39 C226.79,709.67,226.51,709.72,226.07,709.81 C225.71,709.89,225.31,709.96,225.31,710.4 C225.31,710.69,225.55,711.3,226.43,711.3 C226.68,711.3,227.17,711.23,227.32,710.84 Z " /><path
         id="path5573"
         fill="black"
         stroke-width="0"
         d="M229.18,709.51 L229.21,709.5 L229.25,709.5 L229.28,709.49 L229.31,709.48 L229.34,709.48 L229.37,709.47 L229.39,709.46 L229.42,709.46 L229.45,709.45 L229.47,709.45 L229.5,709.45 L229.52,709.44 L229.55,709.44 L229.57,709.44 L229.59,709.43 L229.61,709.43 L229.63,709.43 L229.65,709.43 L229.67,709.43 L229.69,709.43 L229.71,709.42 L229.72,709.42 L229.74,709.42 L229.75,709.42 L229.77,709.42 L229.78,709.42 L229.8,709.42 L229.81,709.42 L229.82,709.42 L229.84,709.42 L229.85,709.42 L229.86,709.42 C230.78,709.42,231.32,710.05,231.32,710.15 C231.32,710.23,231.27,710.25,231.24,710.25 C231.22,710.25,231.21,710.25,231.18,710.23 C231.01,710.16,230.64,710.03,230.13,710.03 C229.93,710.03,229.57,710.04,229.11,710.21 C229.04,710.25,229.03,710.25,229.02,710.25 C228.93,710.25,228.93,710.17,228.93,710.06 V708.01 C228.93,707.89,228.93,707.81,229.04,707.81 C229.1,707.81,229.11,707.82,229.18,707.91 C229.48,708.29,229.91,708.34,230.15,708.34 C230.57,708.34,230.76,708.01,230.79,707.95 C230.92,707.72,230.96,707.46,230.96,707.06 C230.96,706.85,230.96,706.44,230.75,706.13 C230.57,705.88,230.27,705.71,229.93,705.71 C229.48,705.71,229.01,705.97,228.84,706.42 C229.1,706.4,229.24,706.58,229.24,706.76 C229.24,707.06,228.98,707.12,228.89,707.12 C228.88,707.12,228.54,707.12,228.54,706.74 C228.54,706.12,229.11,705.49,229.95,705.49 C230.84,705.49,231.62,706.15,231.62,707.03 C231.62,707.81,231.02,708.54,230.16,708.54 C229.85,708.54,229.49,708.46,229.18,708.2 Z " /></g>    <g
       id="g5834"
       transform="matrix(3.5994817,0,0,-3.5994817,898.50014,3516.7254)"
       xml:space="preserve"
       stroke-miterlimit="10.433"
       font-style="normal"
       font-variant="normal"
       font-weight="normal"
       font-stretch="normal"
       font-size-adjust="none"
       letter-spacing="normal"
       word-spacing="normal"
       ns0:text="$s_6$"
       ns0:preamble=""
       style="font-style:normal;font-variant:normal;font-weight:normal;font-stretch:normal;letter-spacing:normal;word-spacing:normal;text-anchor:start;fill:none;stroke:#000000;stroke-linecap:butt;stroke-linejoin:miter;stroke-miterlimit:10.43299961;stroke-opacity:1;stroke-dasharray:none;stroke-dashoffset:0"><path
         style="fill:#000000;stroke-width:0"
         inkscape:connector-curvature="0"
         d="m 227.32,710.84 -0.02,0 -0.03,0 -0.02,-0.01 -0.03,0 -0.02,-0.01 -0.03,-0.01 -0.02,0 -0.02,-0.01 -0.02,-0.01 -0.02,-0.01 -0.02,-0.02 -0.02,-0.01 -0.02,-0.01 -0.02,-0.02 -0.01,-0.01 -0.02,-0.02 -0.02,-0.01 -0.01,-0.02 -0.01,-0.01 -0.02,-0.02 -0.01,-0.02 -0.01,-0.02 -0.01,-0.02 -0.01,-0.02 -0.01,-0.02 0,-0.02 -0.01,-0.02 -0.01,-0.02 0,-0.02 0,-0.02 0,-0.02 0,-0.02 c 0,-0.14 0.08,-0.29 0.3,-0.29 0.22,0 0.46,0.17 0.46,0.56 0,0.45 -0.43,0.86 -1.18,0.86 -1.32,0 -1.69,-1.02 -1.69,-1.45 0,-0.78 0.74,-0.93 1.03,-0.99 0.52,-0.1 1.03,-0.21 1.03,-0.75 0,-0.26 -0.22,-1.1 -1.42,-1.1 -0.14,0 -0.9,0 -1.13,0.53 0.38,-0.05 0.63,0.25 0.63,0.53 0,0.23 -0.17,0.35 -0.37,0.35 -0.26,0 -0.56,-0.21 -0.56,-0.66 0,-0.57 0.57,-0.96 1.42,-0.96 1.61,0 2,1.2 2,1.64 0,0.36 -0.19,0.61 -0.31,0.73 -0.27,0.28 -0.55,0.33 -0.99,0.42 -0.36,0.08 -0.76,0.15 -0.76,0.59 0,0.29 0.24,0.9 1.12,0.9 0.25,0 0.74,-0.07 0.89,-0.46 z"
         id="path5836" /><path
         style="fill:#000000;stroke-width:0"
         inkscape:connector-curvature="0"
         d="m 229.15,707.91 0,0.1 0,0.11 0,0.1 0.01,0.1 0.01,0.1 0.01,0.1 0.01,0.1 0.01,0.09 0.02,0.1 0.02,0.09 0.03,0.09 0.03,0.09 0.02,0.04 0.01,0.05 0.02,0.04 0.02,0.04 0.02,0.04 0.02,0.04 0.03,0.04 0.02,0.04 c 0.24,0.38 0.61,0.64 1.06,0.64 0.21,0 0.49,-0.06 0.63,-0.25 -0.18,-0.01 -0.33,-0.13 -0.33,-0.33 0,-0.17 0.12,-0.33 0.33,-0.33 0.21,0 0.34,0.14 0.34,0.34 0,0.41 -0.3,0.77 -0.98,0.77 -1.01,0 -2.03,-0.92 -2.03,-2.41 0,-1.81 0.85,-2.35 1.61,-2.35 0.85,0 1.59,0.65 1.59,1.56 0,0.88 -0.7,1.54 -1.52,1.54 l -0.03,-0.2 c 0.32,0 0.53,-0.12 0.71,-0.38 0.17,-0.27 0.17,-0.56 0.17,-0.96 0,-0.4 0,-0.69 -0.19,-0.96 -0.16,-0.24 -0.39,-0.38 -0.73,-0.38 h 0 c -0.34,0 -0.62,0.21 -0.76,0.51 -0.11,0.21 -0.16,0.56 -0.16,0.98 0,0.67 0.4,1.19 0.96,1.19 l 0.03,0.2 c -0.55,0 -0.86,-0.37 -1.01,-0.68 z"
         id="path5838" /></g>    <g
       style="font-style:normal;font-variant:normal;font-weight:normal;font-stretch:normal;letter-spacing:normal;word-spacing:normal;text-anchor:start;fill:none;stroke:#000000;stroke-linecap:butt;stroke-linejoin:miter;stroke-miterlimit:10.43299961;stroke-opacity:1;stroke-dasharray:none;stroke-dashoffset:0"
       ns0:preamble=""
       ns0:text="$10$"
       text-anchor="start"
       word-spacing="normal"
       letter-spacing="normal"
       font-size-adjust="none"
       font-stretch="normal"
       font-weight="normal"
       font-variant="normal"
       font-style="normal"
       fill-opacity="1"
       fill-rule="evenodd"
       fill="none"
       stroke-opacity="1"
       stroke-dashoffset="0"
       stroke-dasharray="none"
       stroke-miterlimit="10.433"
       stroke-linejoin="miter"
       stroke-linecap="butt"
       stroke="black"
       xml:space="preserve"
       transform="matrix(3.5994817,0,0,-3.5994817,554.73611,3566.9206)"
       id="g6108"><path
         id="path6110"
         fill="black"
         stroke-width="0"
         d="M226.36,713.48 L226.36,713.49 L226.36,713.5 L226.36,713.52 L226.36,713.53 L226.36,713.53 L226.36,713.54 L226.36,713.55 L226.36,713.56 L226.36,713.57 L226.36,713.58 L226.36,713.59 L226.36,713.6 L226.36,713.6 L226.35,713.61 L226.35,713.62 L226.35,713.62 L226.35,713.63 L226.35,713.64 L226.35,713.65 L226.35,713.66 L226.34,713.67 L226.34,713.68 L226.34,713.69 L226.33,713.69 L226.33,713.7 L226.32,713.71 L226.32,713.71 L226.31,713.72 L226.3,713.72 L226.29,713.73 L226.29,713.73 L226.28,713.73 L226.28,713.73 L226.27,713.73 L226.27,713.73 L226.26,713.73 L226.25,713.74 L226.25,713.74 L226.24,713.74 L226.23,713.74 L226.23,713.74 L226.22,713.74 L226.21,713.74 L226.2,713.74 L226.2,713.74 L226.19,713.74 L226.18,713.74 L226.17,713.74 L226.16,713.74 L226.15,713.74 L226.14,713.74 L226.13,713.74 C225.51,713.1,224.64,713.1,224.32,713.1 V712.8 C224.52,712.8,225.1,712.8,225.62,713.05 V707.91 C225.62,707.55,225.59,707.43,224.7,707.43 H224.38 V707.12 C224.73,707.16,225.59,707.16,225.99,707.16 C226.39,707.16,227.25,707.16,227.6,707.12 V707.43 H227.28 C226.39,707.43,226.36,707.54,226.36,707.91 Z " /><path
         id="path6112"
         fill="black"
         stroke-width="0"
         d="M232.99,710.3 L232.99,710.45 L232.99,710.6 L232.98,710.75 L232.98,710.9 L232.97,711.05 L232.96,711.19 L232.94,711.34 L232.92,711.49 L232.9,711.63 L232.87,711.78 L232.84,711.92 L232.8,712.07 L232.76,712.21 L232.71,712.35 L232.65,712.49 L232.62,712.56 L232.59,712.63 C232.13,713.58,231.32,713.74,230.9,713.74 C230.3,713.74,229.58,713.48,229.17,712.56 C228.85,711.87,228.8,711.1,228.8,710.3 C228.8,709.56,228.84,708.66,229.25,707.91 C229.68,707.1,230.4,706.91,230.89,706.91 V707.12 C230.5,707.12,229.92,707.37,229.74,708.33 C229.63,708.92,229.63,709.84,229.63,710.42 C229.63,711.06,229.63,711.71,229.71,712.25 C229.9,713.43,230.64,713.52,230.89,713.52 C231.22,713.52,231.88,713.34,232.07,712.36 C232.16,711.8,232.16,711.05,232.16,710.42 C232.16,709.68,232.16,709,232.05,708.37 C231.9,707.42,231.34,707.12,230.89,707.12 H230.89 V706.91 C231.43,706.91,232.18,707.11,232.62,708.06 C232.94,708.74,232.99,709.52,232.99,710.3 Z " /></g>    <g
       id="g6247"
       transform="matrix(3.5994817,0,0,-3.5994817,528.57316,3820.7719)"
       xml:space="preserve"
       stroke-miterlimit="10.433"
       font-style="normal"
       font-variant="normal"
       font-weight="normal"
       font-stretch="normal"
       font-size-adjust="none"
       letter-spacing="normal"
       word-spacing="normal"
       ns0:text="$10$"
       ns0:preamble=""
       style="font-style:normal;font-variant:normal;font-weight:normal;font-stretch:normal;letter-spacing:normal;word-spacing:normal;text-anchor:start;fill:#ff1010;stroke:#000000;stroke-linecap:butt;stroke-linejoin:miter;stroke-miterlimit:10.43299960999999954;stroke-opacity:1;stroke-dasharray:none;stroke-dashoffset:0;fill-opacity:1"><path
         d="m 226.36,713.48 0,0.01 0,0.01 0,0.02 0,0.01 0,0 0,0.01 0,0.01 0,0.01 0,0.01 0,0.01 0,0.01 0,0.01 0,0 -0.01,0.01 0,0.01 0,0 0,0.01 0,0.01 0,0.01 0,0.01 -0.01,0.01 0,0.01 0,0.01 -0.01,0 0,0.01 -0.01,0.01 0,0 -0.01,0.01 -0.01,0 -0.01,0.01 0,0 -0.01,0 0,0 -0.01,0 0,0 -0.01,0 -0.01,0.01 0,0 -0.01,0 -0.01,0 0,0 -0.01,0 -0.01,0 -0.01,0 0,0 -0.01,0 -0.01,0 -0.01,0 -0.01,0 -0.01,0 -0.01,0 -0.01,0 c -0.62,-0.64 -1.49,-0.64 -1.81,-0.64 v -0.3 c 0.2,0 0.78,0 1.3,0.25 v -5.14 c 0,-0.36 -0.03,-0.48 -0.92,-0.48 h -0.32 v -0.31 c 0.35,0.04 1.21,0.04 1.61,0.04 0.4,0 1.26,0 1.61,-0.04 v 0.31 h -0.32 c -0.89,0 -0.92,0.11 -0.92,0.48 z"
         id="path6249"
         inkscape:connector-curvature="0"
         style="fill:#ff1010;stroke-width:0;fill-opacity:1" /><path
         d="m 232.99,710.3 0,0.15 0,0.15 -0.01,0.15 0,0.15 -0.01,0.15 -0.01,0.14 -0.02,0.15 -0.02,0.15 -0.02,0.14 -0.03,0.15 -0.03,0.14 -0.04,0.15 -0.04,0.14 -0.05,0.14 -0.06,0.14 -0.03,0.07 -0.03,0.07 c -0.46,0.95 -1.27,1.11 -1.69,1.11 -0.6,0 -1.32,-0.26 -1.73,-1.18 -0.32,-0.69 -0.37,-1.46 -0.37,-2.26 0,-0.74 0.04,-1.64 0.45,-2.39 0.43,-0.81 1.15,-1 1.64,-1 v 0.21 c -0.39,0 -0.97,0.25 -1.15,1.21 -0.11,0.59 -0.11,1.51 -0.11,2.09 0,0.64 0,1.29 0.08,1.83 0.19,1.18 0.93,1.27 1.18,1.27 0.33,0 0.99,-0.18 1.18,-1.16 0.09,-0.56 0.09,-1.31 0.09,-1.94 0,-0.74 0,-1.42 -0.11,-2.05 -0.15,-0.95 -0.71,-1.25 -1.16,-1.25 h 0 v -0.21 c 0.54,0 1.29,0.2 1.73,1.15 0.32,0.68 0.37,1.46 0.37,2.24 z"
         id="path6251"
         inkscape:connector-curvature="0"
         style="fill:#ff1010;stroke-width:0;fill-opacity:1" /></g>    <g
       style="font-style:normal;font-variant:normal;font-weight:normal;font-stretch:normal;letter-spacing:normal;word-spacing:normal;text-anchor:start;fill:none;stroke:#000000;stroke-linecap:butt;stroke-linejoin:miter;stroke-miterlimit:10.43299961;stroke-opacity:1;stroke-dasharray:none;stroke-dashoffset:0"
       ns0:preamble=""
       ns0:text="$10$"
       word-spacing="normal"
       letter-spacing="normal"
       font-size-adjust="none"
       font-stretch="normal"
       font-weight="normal"
       font-variant="normal"
       font-style="normal"
       stroke-miterlimit="10.433"
       xml:space="preserve"
       transform="matrix(3.5994817,0,0,-3.5994817,766.86814,3739.4547)"
       id="g6253"><path
         style="fill:#000000;stroke-width:0"
         inkscape:connector-curvature="0"
         id="path6255"
         d="m 226.36,713.48 0,0.01 0,0.01 0,0.02 0,0.01 0,0 0,0.01 0,0.01 0,0.01 0,0.01 0,0.01 0,0.01 0,0.01 0,0 -0.01,0.01 0,0.01 0,0 0,0.01 0,0.01 0,0.01 0,0.01 -0.01,0.01 0,0.01 0,0.01 -0.01,0 0,0.01 -0.01,0.01 0,0 -0.01,0.01 -0.01,0 -0.01,0.01 0,0 -0.01,0 0,0 -0.01,0 0,0 -0.01,0 -0.01,0.01 0,0 -0.01,0 -0.01,0 0,0 -0.01,0 -0.01,0 -0.01,0 0,0 -0.01,0 -0.01,0 -0.01,0 -0.01,0 -0.01,0 -0.01,0 -0.01,0 c -0.62,-0.64 -1.49,-0.64 -1.81,-0.64 v -0.3 c 0.2,0 0.78,0 1.3,0.25 v -5.14 c 0,-0.36 -0.03,-0.48 -0.92,-0.48 h -0.32 v -0.31 c 0.35,0.04 1.21,0.04 1.61,0.04 0.4,0 1.26,0 1.61,-0.04 v 0.31 h -0.32 c -0.89,0 -0.92,0.11 -0.92,0.48 z" /><path
         style="fill:#000000;stroke-width:0"
         inkscape:connector-curvature="0"
         id="path6257"
         d="m 232.99,710.3 0,0.15 0,0.15 -0.01,0.15 0,0.15 -0.01,0.15 -0.01,0.14 -0.02,0.15 -0.02,0.15 -0.02,0.14 -0.03,0.15 -0.03,0.14 -0.04,0.15 -0.04,0.14 -0.05,0.14 -0.06,0.14 -0.03,0.07 -0.03,0.07 c -0.46,0.95 -1.27,1.11 -1.69,1.11 -0.6,0 -1.32,-0.26 -1.73,-1.18 -0.32,-0.69 -0.37,-1.46 -0.37,-2.26 0,-0.74 0.04,-1.64 0.45,-2.39 0.43,-0.81 1.15,-1 1.64,-1 v 0.21 c -0.39,0 -0.97,0.25 -1.15,1.21 -0.11,0.59 -0.11,1.51 -0.11,2.09 0,0.64 0,1.29 0.08,1.83 0.19,1.18 0.93,1.27 1.18,1.27 0.33,0 0.99,-0.18 1.18,-1.16 0.09,-0.56 0.09,-1.31 0.09,-1.94 0,-0.74 0,-1.42 -0.11,-2.05 -0.15,-0.95 -0.71,-1.25 -1.16,-1.25 h 0 v -0.21 c 0.54,0 1.29,0.2 1.73,1.15 0.32,0.68 0.37,1.46 0.37,2.24 z" /></g>    <g
       id="g6259"
       transform="matrix(3.5994817,0,0,-3.5994817,361.69595,3735.212)"
       xml:space="preserve"
       stroke-miterlimit="10.433"
       font-style="normal"
       font-variant="normal"
       font-weight="normal"
       font-stretch="normal"
       font-size-adjust="none"
       letter-spacing="normal"
       word-spacing="normal"
       ns0:text="$10$"
       ns0:preamble=""
       style="font-style:normal;font-variant:normal;font-weight:normal;font-stretch:normal;letter-spacing:normal;word-spacing:normal;text-anchor:start;fill:#ff1010;stroke:#000000;stroke-linecap:butt;stroke-linejoin:miter;stroke-miterlimit:10.43299960999999954;stroke-opacity:1;stroke-dasharray:none;stroke-dashoffset:0;fill-opacity:1"><path
         d="m 226.36,713.48 0,0.01 0,0.01 0,0.02 0,0.01 0,0 0,0.01 0,0.01 0,0.01 0,0.01 0,0.01 0,0.01 0,0.01 0,0 -0.01,0.01 0,0.01 0,0 0,0.01 0,0.01 0,0.01 0,0.01 -0.01,0.01 0,0.01 0,0.01 -0.01,0 0,0.01 -0.01,0.01 0,0 -0.01,0.01 -0.01,0 -0.01,0.01 0,0 -0.01,0 0,0 -0.01,0 0,0 -0.01,0 -0.01,0.01 0,0 -0.01,0 -0.01,0 0,0 -0.01,0 -0.01,0 -0.01,0 0,0 -0.01,0 -0.01,0 -0.01,0 -0.01,0 -0.01,0 -0.01,0 -0.01,0 c -0.62,-0.64 -1.49,-0.64 -1.81,-0.64 v -0.3 c 0.2,0 0.78,0 1.3,0.25 v -5.14 c 0,-0.36 -0.03,-0.48 -0.92,-0.48 h -0.32 v -0.31 c 0.35,0.04 1.21,0.04 1.61,0.04 0.4,0 1.26,0 1.61,-0.04 v 0.31 h -0.32 c -0.89,0 -0.92,0.11 -0.92,0.48 z"
         id="path6261"
         inkscape:connector-curvature="0"
         style="fill:#ff1010;stroke-width:0;fill-opacity:1" /><path
         d="m 232.99,710.3 0,0.15 0,0.15 -0.01,0.15 0,0.15 -0.01,0.15 -0.01,0.14 -0.02,0.15 -0.02,0.15 -0.02,0.14 -0.03,0.15 -0.03,0.14 -0.04,0.15 -0.04,0.14 -0.05,0.14 -0.06,0.14 -0.03,0.07 -0.03,0.07 c -0.46,0.95 -1.27,1.11 -1.69,1.11 -0.6,0 -1.32,-0.26 -1.73,-1.18 -0.32,-0.69 -0.37,-1.46 -0.37,-2.26 0,-0.74 0.04,-1.64 0.45,-2.39 0.43,-0.81 1.15,-1 1.64,-1 v 0.21 c -0.39,0 -0.97,0.25 -1.15,1.21 -0.11,0.59 -0.11,1.51 -0.11,2.09 0,0.64 0,1.29 0.08,1.83 0.19,1.18 0.93,1.27 1.18,1.27 0.33,0 0.99,-0.18 1.18,-1.16 0.09,-0.56 0.09,-1.31 0.09,-1.94 0,-0.74 0,-1.42 -0.11,-2.05 -0.15,-0.95 -0.71,-1.25 -1.16,-1.25 h 0 v -0.21 c 0.54,0 1.29,0.2 1.73,1.15 0.32,0.68 0.37,1.46 0.37,2.24 z"
         id="path6263"
         inkscape:connector-curvature="0"
         style="fill:#ff1010;stroke-width:0;fill-opacity:1" /></g>    <g
       id="g6415"
       transform="matrix(3.5994817,0,0,-3.5994817,487.41273,3906.2192)"
       xml:space="preserve"
       stroke-miterlimit="10.433"
       font-style="normal"
       font-variant="normal"
       font-weight="normal"
       font-stretch="normal"
       font-size-adjust="none"
       letter-spacing="normal"
       word-spacing="normal"
       ns0:text="$1$"
       ns0:preamble=""
       style="font-style:normal;font-variant:normal;font-weight:normal;font-stretch:normal;letter-spacing:normal;word-spacing:normal;text-anchor:start;fill:#ff1010;stroke:#000000;stroke-linecap:butt;stroke-linejoin:miter;stroke-miterlimit:10.43299960999999954;stroke-opacity:1;stroke-dasharray:none;stroke-dashoffset:0;fill-opacity:1"><path
         style="fill:#ff1010;stroke-width:0;fill-opacity:1"
         inkscape:connector-curvature="0"
         d="m 226.36,713.48 0,0.01 0,0.01 0,0.02 0,0.01 0,0 0,0.01 0,0.01 0,0.01 0,0.01 0,0.01 0,0.01 0,0.01 0,0 -0.01,0.01 0,0.01 0,0 0,0.01 0,0.01 0,0.01 0,0.01 -0.01,0.01 0,0.01 0,0.01 -0.01,0 0,0.01 -0.01,0.01 0,0 -0.01,0.01 -0.01,0 -0.01,0.01 0,0 -0.01,0 0,0 -0.01,0 0,0 -0.01,0 -0.01,0.01 0,0 -0.01,0 -0.01,0 0,0 -0.01,0 -0.01,0 -0.01,0 0,0 -0.01,0 -0.01,0 -0.01,0 -0.01,0 -0.01,0 -0.01,0 -0.01,0 c -0.62,-0.64 -1.49,-0.64 -1.81,-0.64 v -0.3 c 0.2,0 0.78,0 1.3,0.25 v -5.14 c 0,-0.36 -0.03,-0.48 -0.92,-0.48 h -0.32 v -0.31 c 0.35,0.04 1.21,0.04 1.61,0.04 0.4,0 1.26,0 1.61,-0.04 v 0.31 h -0.32 c -0.89,0 -0.92,0.11 -0.92,0.48 z"
         id="path6417" /></g>    <g
       style="font-style:normal;font-variant:normal;font-weight:normal;font-stretch:normal;letter-spacing:normal;word-spacing:normal;text-anchor:start;fill:#ff1010;stroke:#000000;stroke-linecap:butt;stroke-linejoin:miter;stroke-miterlimit:10.43299960999999954;stroke-opacity:1;stroke-dasharray:none;stroke-dashoffset:0;fill-opacity:1"
       ns0:preamble=""
       ns0:text="$1$"
       word-spacing="normal"
       letter-spacing="normal"
       font-size-adjust="none"
       font-stretch="normal"
       font-weight="normal"
       font-variant="normal"
       font-style="normal"
       stroke-miterlimit="10.433"
       xml:space="preserve"
       transform="matrix(3.5994817,0,0,-3.5994817,810.70877,3866.734)"
       id="g6563"><path
         id="path6565"
         d="m 226.36,713.48 0,0.01 0,0.01 0,0.02 0,0.01 0,0 0,0.01 0,0.01 0,0.01 0,0.01 0,0.01 0,0.01 0,0.01 0,0 -0.01,0.01 0,0.01 0,0 0,0.01 0,0.01 0,0.01 0,0.01 -0.01,0.01 0,0.01 0,0.01 -0.01,0 0,0.01 -0.01,0.01 0,0 -0.01,0.01 -0.01,0 -0.01,0.01 0,0 -0.01,0 0,0 -0.01,0 0,0 -0.01,0 -0.01,0.01 0,0 -0.01,0 -0.01,0 0,0 -0.01,0 -0.01,0 -0.01,0 0,0 -0.01,0 -0.01,0 -0.01,0 -0.01,0 -0.01,0 -0.01,0 -0.01,0 c -0.62,-0.64 -1.49,-0.64 -1.81,-0.64 v -0.3 c 0.2,0 0.78,0 1.3,0.25 v -5.14 c 0,-0.36 -0.03,-0.48 -0.92,-0.48 h -0.32 v -0.31 c 0.35,0.04 1.21,0.04 1.61,0.04 0.4,0 1.26,0 1.61,-0.04 v 0.31 h -0.32 c -0.89,0 -0.92,0.11 -0.92,0.48 z"
         inkscape:connector-curvature="0"
         style="fill:#ff1010;stroke-width:0;fill-opacity:1" /></g>    <g
       style="font-style:normal;font-variant:normal;font-weight:normal;font-stretch:normal;letter-spacing:normal;word-spacing:normal;text-anchor:start;fill:#ff1010;stroke:#000000;stroke-linecap:butt;stroke-linejoin:miter;stroke-miterlimit:10.43299960999999954;stroke-opacity:1;stroke-dasharray:none;stroke-dashoffset:0;fill-opacity:1"
       ns0:preamble=""
       ns0:text="$1$"
       word-spacing="normal"
       letter-spacing="normal"
       font-size-adjust="none"
       font-stretch="normal"
       font-weight="normal"
       font-variant="normal"
       font-style="normal"
       stroke-miterlimit="10.433"
       xml:space="preserve"
       transform="matrix(3.5994817,0,0,-3.5994817,288.17766,3831.6507)"
       id="g6567"><path
         id="path6569"
         d="m 226.36,713.48 0,0.01 0,0.01 0,0.02 0,0.01 0,0 0,0.01 0,0.01 0,0.01 0,0.01 0,0.01 0,0.01 0,0.01 0,0 -0.01,0.01 0,0.01 0,0 0,0.01 0,0.01 0,0.01 0,0.01 -0.01,0.01 0,0.01 0,0.01 -0.01,0 0,0.01 -0.01,0.01 0,0 -0.01,0.01 -0.01,0 -0.01,0.01 0,0 -0.01,0 0,0 -0.01,0 0,0 -0.01,0 -0.01,0.01 0,0 -0.01,0 -0.01,0 0,0 -0.01,0 -0.01,0 -0.01,0 0,0 -0.01,0 -0.01,0 -0.01,0 -0.01,0 -0.01,0 -0.01,0 -0.01,0 c -0.62,-0.64 -1.49,-0.64 -1.81,-0.64 v -0.3 c 0.2,0 0.78,0 1.3,0.25 v -5.14 c 0,-0.36 -0.03,-0.48 -0.92,-0.48 h -0.32 v -0.31 c 0.35,0.04 1.21,0.04 1.61,0.04 0.4,0 1.26,0 1.61,-0.04 v 0.31 h -0.32 c -0.89,0 -0.92,0.11 -0.92,0.48 z"
         inkscape:connector-curvature="0"
         style="fill:#ff1010;stroke-width:0;fill-opacity:1" /></g>    <g
       transform="matrix(0.44361265,-0.50970174,0.50342948,0.43815367,414.59663,1125.472)"
       id="g6575">
      <path
         style="fill:none;stroke:#ff1010;stroke-width:3.54330707;stroke-linecap:round;stroke-linejoin:round;stroke-miterlimit:4;stroke-opacity:1;stroke-dasharray:none;stroke-dashoffset:0"
         d="m 531.49606,910.6299 53.14961,0"
         id="path6571"
         inkscape:connector-curvature="0" />
      <path
         style="fill:none;stroke:#ff1010;stroke-width:3.54330707;stroke-linecap:round;stroke-linejoin:round;stroke-miterlimit:4;stroke-opacity:1;stroke-dasharray:none;stroke-dashoffset:0"
         d="m 531.49606,928.34643 53.14961,0"
         id="path6573"
         inkscape:connector-curvature="0" />
    </g>
    <g
       id="g6579"
       transform="matrix(0.67501427,-0.03072106,0.03034301,0.66670772,812.43829,605.85119)">
      <path
         inkscape:connector-curvature="0"
         id="path6581"
         d="m 531.49606,910.6299 53.14961,0"
         style="fill:none;stroke:#ff1010;stroke-width:3.54330707;stroke-linecap:round;stroke-linejoin:round;stroke-miterlimit:4;stroke-opacity:1;stroke-dasharray:none;stroke-dashoffset:0" />
      <path
         inkscape:connector-curvature="0"
         id="path6583"
         d="m 531.49606,928.34643 53.14961,0"
         style="fill:none;stroke:#ff1010;stroke-width:3.54330707;stroke-linecap:round;stroke-linejoin:round;stroke-miterlimit:4;stroke-opacity:1;stroke-dasharray:none;stroke-dashoffset:0" />
    </g>
    <g
       transform="matrix(-0.40422568,-0.54146989,0.53480672,-0.39925138,951.38767,1661.5413)"
       id="g6585">
      <g
         id="g5067"
         transform="translate(-53.780899,-187.41065)">
        <path
           inkscape:connector-curvature="0"
           id="path6587"
           d="m 531.49606,910.6299 53.14961,0"
           style="fill:none;stroke:#ff1010;stroke-width:3.54330707;stroke-linecap:round;stroke-linejoin:round;stroke-miterlimit:4;stroke-opacity:1;stroke-dasharray:none;stroke-dashoffset:0" />
        <path
           inkscape:connector-curvature="0"
           id="path6589"
           d="m 531.49606,928.34643 53.14961,0"
           style="fill:none;stroke:#ff1010;stroke-width:3.54330707;stroke-linecap:round;stroke-linejoin:round;stroke-miterlimit:4;stroke-opacity:1;stroke-dasharray:none;stroke-dashoffset:0" />
      </g>
    </g>
    <g
       transform="matrix(0.56293789,0.37374989,-0.36915063,0.55601052,1553.4918,633.12066)"
       id="g6591">
      <path
         style="fill:none;stroke:#ff1010;stroke-width:3.54330707;stroke-linecap:round;stroke-linejoin:round;stroke-miterlimit:4;stroke-opacity:1;stroke-dasharray:none;stroke-dashoffset:0"
         d="m 531.49606,910.6299 53.14961,0"
         id="path6593"
         inkscape:connector-curvature="0" />
      <path
         style="fill:none;stroke:#ff1010;stroke-width:3.54330707;stroke-linecap:round;stroke-linejoin:round;stroke-miterlimit:4;stroke-opacity:1;stroke-dasharray:none;stroke-dashoffset:0"
         d="m 531.49606,928.34643 53.14961,0"
         id="path6595"
         inkscape:connector-curvature="0" />
    </g>
    <path
       style="fill:none;stroke:#ff1010;stroke-width:2.37948155;stroke-linecap:round;stroke-linejoin:round;stroke-miterlimit:4;stroke-opacity:1;stroke-dasharray:none;stroke-dashoffset:0"
       d="m 1313.6597,1311.4045 -0.784,-35.9054"
       id="path6599"
       inkscape:connector-curvature="0" />
    <path
       style="fill:none;stroke:#ff1010;stroke-width:2.37948155;stroke-linecap:round;stroke-linejoin:round;stroke-miterlimit:4;stroke-opacity:1;stroke-dasharray:none;stroke-dashoffset:0"
       d="m 1325.4809,1311.1464 -0.784,-35.9054"
       id="path6601"
       inkscape:connector-curvature="0" />
    <g
       id="g6603"
       transform="matrix(0.5462552,-0.39773521,0.39284078,0.53953313,603.35871,1088.0071)">
      <path
         inkscape:connector-curvature="0"
         id="path6605"
         d="m 531.49606,910.6299 53.14961,0"
         style="fill:none;stroke:#ff1010;stroke-width:3.54330707;stroke-linecap:round;stroke-linejoin:round;stroke-miterlimit:4;stroke-opacity:1;stroke-dasharray:none;stroke-dashoffset:0" />
      <path
         inkscape:connector-curvature="0"
         id="path6607"
         d="m 531.49606,928.34643 53.14961,0"
         style="fill:none;stroke:#ff1010;stroke-width:3.54330707;stroke-linecap:round;stroke-linejoin:round;stroke-miterlimit:4;stroke-opacity:1;stroke-dasharray:none;stroke-dashoffset:0" />
    </g>
    <g
       transform="matrix(0.55227383,-0.3893349,0.38454384,0.54547769,933.60506,1058.7613)"
       id="g6609">
      <path
         style="fill:none;stroke:#ff1010;stroke-width:3.54330707;stroke-linecap:round;stroke-linejoin:round;stroke-miterlimit:4;stroke-opacity:1;stroke-dasharray:none;stroke-dashoffset:0"
         d="m 531.49606,910.6299 53.14961,0"
         id="path6611"
         inkscape:connector-curvature="0" />
      <path
         style="fill:none;stroke:#ff1010;stroke-width:3.54330707;stroke-linecap:round;stroke-linejoin:round;stroke-miterlimit:4;stroke-opacity:1;stroke-dasharray:none;stroke-dashoffset:0"
         d="m 531.49606,928.34643 53.14961,0"
         id="path6613"
         inkscape:connector-curvature="0" />
    </g>
    <g
       style="font-style:normal;font-variant:normal;font-weight:normal;font-stretch:normal;letter-spacing:normal;word-spacing:normal;text-anchor:start;fill:none;stroke:#000000;stroke-linecap:butt;stroke-linejoin:miter;stroke-miterlimit:10.43299961;stroke-opacity:1;stroke-dasharray:none;stroke-dashoffset:0"
       ns0:preamble=""
       ns0:text="$50$"
       text-anchor="start"
       word-spacing="normal"
       letter-spacing="normal"
       font-size-adjust="none"
       font-stretch="normal"
       font-weight="normal"
       font-variant="normal"
       font-style="normal"
       fill-opacity="1"
       fill-rule="evenodd"
       fill="none"
       stroke-opacity="1"
       stroke-dashoffset="0"
       stroke-dasharray="none"
       stroke-miterlimit="10.433"
       stroke-linejoin="miter"
       stroke-linecap="butt"
       stroke="black"
       xml:space="preserve"
       transform="matrix(3.5994817,0,0,-3.5994817,341.18987,3901.7114)"
       id="content"><path
         id="path3185"
         fill="black"
         stroke-width="0"
         d="M227.9,709.12 L227.9,709.23 L227.89,709.34 L227.88,709.45 L227.86,709.55 L227.84,709.66 L227.82,709.76 L227.79,709.86 L227.75,709.96 L227.72,710.06 L227.68,710.15 L227.63,710.24 L227.58,710.33 L227.53,710.42 L227.48,710.5 L227.42,710.58 L227.36,710.65 L227.29,710.73 L227.22,710.79 L227.15,710.86 L227.08,710.92 L227,710.98 L226.92,711.03 L226.84,711.08 L226.76,711.12 L226.67,711.16 L226.58,711.2 L226.49,711.23 L226.4,711.25 L226.3,711.27 L226.21,711.29 L226.11,711.29 L226.01,711.3 C225.53,711.3,225.1,711.14,224.74,710.79 V712.73 C224.94,712.67,225.27,712.6,225.59,712.6 C226.82,712.6,227.51,713.5,227.51,713.63 C227.51,713.69,227.48,713.74,227.41,713.74 C227.4,713.74,227.38,713.74,227.33,713.71 C227.13,713.62,226.65,713.42,225.98,713.42 C225.58,713.42,225.12,713.49,224.66,713.7 C224.58,713.73,224.56,713.73,224.54,713.73 C224.44,713.73,224.44,713.65,224.44,713.49 V710.55 C224.44,710.37,224.44,710.29,224.58,710.29 C224.65,710.29,224.67,710.32,224.71,710.38 C224.82,710.54,225.18,711.08,225.99,711.08 C226.51,711.08,226.76,710.62,226.84,710.44 C226.99,710.08,227.01,709.69,227.01,709.19 C227.01,708.84,227.01,708.25,226.77,707.83 C226.54,707.44,226.17,707.18,225.71,707.18 C224.98,707.18,224.42,707.71,224.25,708.3 C224.28,708.29,224.31,708.28,224.42,708.28 C224.74,708.28,224.91,708.53,224.91,708.76 C224.91,709,224.74,709.25,224.42,709.25 C224.28,709.25,223.93,709.18,223.93,708.72 C223.93,707.87,224.62,706.91,225.73,706.91 C226.88,706.91,227.9,707.86,227.9,709.12 Z " /><path
         id="path3187"
         fill="black"
         stroke-width="0"
         d="M232.99,710.3 L232.99,710.45 L232.99,710.6 L232.98,710.75 L232.98,710.9 L232.97,711.05 L232.96,711.19 L232.94,711.34 L232.92,711.49 L232.9,711.63 L232.87,711.78 L232.84,711.92 L232.8,712.07 L232.76,712.21 L232.71,712.35 L232.65,712.49 L232.62,712.56 L232.59,712.63 C232.13,713.58,231.32,713.74,230.9,713.74 C230.3,713.74,229.58,713.48,229.17,712.56 C228.85,711.87,228.8,711.1,228.8,710.3 C228.8,709.56,228.84,708.66,229.25,707.91 C229.68,707.1,230.4,706.91,230.89,706.91 V707.12 C230.5,707.12,229.92,707.37,229.74,708.33 C229.63,708.92,229.63,709.84,229.63,710.42 C229.63,711.06,229.63,711.71,229.71,712.25 C229.9,713.43,230.64,713.52,230.89,713.52 C231.22,713.52,231.88,713.34,232.07,712.36 C232.16,711.8,232.16,711.05,232.16,710.42 C232.16,709.68,232.16,709,232.05,708.37 C231.9,707.42,231.34,707.12,230.89,707.12 H230.89 V706.91 C231.43,706.91,232.18,707.11,232.62,708.06 C232.94,708.74,232.99,709.52,232.99,710.3 Z " /></g>    <path
       sodipodi:nodetypes="csc"
       inkscape:connector-curvature="0"
       id="path4387-9"
       d="m 1087.3267,1334.4518 c 82.4495,-26.6403 65.6531,-139.8525 174.8666,-82.66 61.4141,32.1611 -62.1679,141.6142 -80.7317,211.901"
       style="fill:none;stroke:#101bff;stroke-width:7.08661413;stroke-linecap:round;stroke-linejoin:round;stroke-miterlimit:4;stroke-opacity:1;stroke-dasharray:21.25984252, 21.25984252;stroke-dashoffset:0;display:inline" />
    <path
       style="fill:none;stroke:#101bff;stroke-width:7.08661413;stroke-linecap:round;stroke-linejoin:round;stroke-miterlimit:4;stroke-opacity:1;stroke-dasharray:21.25984252, 21.25984252;stroke-dashoffset:0;display:inline"
       d="m 1240.4259,1457.401 c -12.1353,-114.1665 130.9611,-93.7428 120.2807,-20.2489"
       id="path5743"
       inkscape:connector-curvature="0"
       sodipodi:nodetypes="cc" />
    <path
       sodipodi:nodetypes="cc"
       inkscape:connector-curvature="0"
       id="path5745"
       d="m 1421.4452,1460.2294 c -12.1353,-114.1665 130.9611,-93.7428 120.2807,-20.2489"
       style="fill:none;stroke:#101bff;stroke-width:7.08661413;stroke-linecap:round;stroke-linejoin:round;stroke-miterlimit:4;stroke-opacity:1;stroke-dasharray:21.25984252, 21.25984252;stroke-dashoffset:0;display:inline" />
    <path
       style="fill:none;stroke:#101bff;stroke-width:7.08661413;stroke-linecap:round;stroke-linejoin:round;stroke-miterlimit:4;stroke-opacity:1;stroke-dasharray:21.25984252, 21.25984252;stroke-dashoffset:0;display:inline"
       d="m 1578.4229,1434.7736 c -12.1353,-114.1665 130.9611,-93.7428 120.2807,-20.2489"
       id="path5747"
       inkscape:connector-curvature="0"
       sodipodi:nodetypes="cc" />
    <path
       sodipodi:nodetypes="cc"
       inkscape:connector-curvature="0"
       id="path5749"
       d="M 1721.2584,1016.8735 C 1574.7729,971.29634 1686.7566,836.86366 1760.929,890.55857"
       style="fill:none;stroke:#101bff;stroke-width:7.08661413;stroke-linecap:round;stroke-linejoin:round;stroke-miterlimit:4;stroke-opacity:1;stroke-dasharray:21.25984252, 21.25984252;stroke-dashoffset:0;display:inline" />
    <g
       id="g5751"
       transform="matrix(0.67501427,-0.03072106,0.03034301,0.66670772,1195.7405,403.50596)">
      <path
         inkscape:connector-curvature="0"
         id="path5753"
         d="m 583.14981,873.1545 32.49621,42.58203"
         style="fill:none;stroke:#ff1010;stroke-width:3.54330707;stroke-linecap:round;stroke-linejoin:round;stroke-miterlimit:4;stroke-opacity:1;stroke-dasharray:none;stroke-dashoffset:0" />
      <path
         inkscape:connector-curvature="0"
         id="path5755"
         d="m 569.30299,883.98656 32.49621,42.58203"
         style="fill:none;stroke:#ff1010;stroke-width:3.54330707;stroke-linecap:round;stroke-linejoin:round;stroke-miterlimit:4;stroke-opacity:1;stroke-dasharray:none;stroke-dashoffset:0" />
    </g>
  </g>
</svg>
