<?xml version="1.0" encoding="UTF-8" standalone="no"?>
<!-- Created with Inkscape (http://www.inkscape.org/) -->

<svg
   xmlns:ns0="http://www.iki.fi/pav/software/textext/"
   xmlns:dc="http://purl.org/dc/elements/1.1/"
   xmlns:cc="http://creativecommons.org/ns#"
   xmlns:rdf="http://www.w3.org/1999/02/22-rdf-syntax-ns#"
   xmlns:svg="http://www.w3.org/2000/svg"
   xmlns="http://www.w3.org/2000/svg"
   xmlns:sodipodi="http://sodipodi.sourceforge.net/DTD/sodipodi-0.dtd"
   xmlns:inkscape="http://www.inkscape.org/namespaces/inkscape"
   sodipodi:docname="multiway2.svg"
   inkscape:version="0.48.4 r9939"
   version="1.1"
   id="svg5219"
   height="1052.3622047"
   width="744.09448819">
  <sodipodi:namedview
     id="base"
     pagecolor="#ffffff"
     bordercolor="#666666"
     borderopacity="1.0"
     inkscape:pageopacity="0.0"
     inkscape:pageshadow="2"
     inkscape:zoom="0.5"
     inkscape:cx="1687.0387"
     inkscape:cy="-355.75983"
     inkscape:document-units="px"
     inkscape:current-layer="layer2"
     showgrid="true"
     inkscape:window-width="1246"
     inkscape:window-height="1062"
     inkscape:window-x="0"
     inkscape:window-y="0"
     inkscape:window-maximized="0"
     inkscape:snap-grids="true"
     inkscape:snap-to-guides="false"
     showborder="false"
     inkscape:showpageshadow="false"
     inkscape:snap-object-midpoints="true"
     inkscape:snap-global="false">
    <inkscape:grid
       type="xygrid"
       id="grid5227"
       empspacing="5"
       visible="true"
       enabled="true"
       snapvisiblegridlinesonly="true"
       units="mm"
       spacingx="1mm"
       spacingy="1mm" />
  </sodipodi:namedview>
  <defs
     id="defs5221" />
  <metadata
     id="metadata5224">
    <rdf:RDF>
      <cc:Work
         rdf:about="">
        <dc:format>image/svg+xml</dc:format>
        <dc:type
           rdf:resource="http://purl.org/dc/dcmitype/StillImage" />
        <dc:title />
      </cc:Work>
    </rdf:RDF>
  </metadata>
  <g
     inkscape:label="Layer 1"
     inkscape:groupmode="layer"
     id="layer1">
    <text
       xml:space="preserve"
       style="font-size:40px;font-style:normal;font-weight:normal;line-height:125%;letter-spacing:0px;word-spacing:0px;fill:#000000;fill-opacity:1;stroke:none;font-family:Sans"
       x="589.28571"
       y="283.07648"
       id="text6044"
       sodipodi:linespacing="125%"><tspan
         sodipodi:role="line"
         id="tspan6046"
         x="589.28571"
         y="283.07648" /></text>
    <g
       style="font-style:normal;font-variant:normal;font-weight:normal;font-stretch:normal;letter-spacing:normal;word-spacing:normal;text-anchor:start;fill:none;stroke:#000000;stroke-linecap:butt;stroke-linejoin:miter;stroke-miterlimit:10.43299961;stroke-opacity:1;stroke-dasharray:none;stroke-dashoffset:0"
       id="g6123"
       transform="matrix(3.9282577,0,0,-3.9282577,-663.5751,3311.6097)"
       xml:space="preserve"
       stroke-miterlimit="10.433"
       font-style="normal"
       font-variant="normal"
       font-weight="normal"
       font-stretch="normal"
       font-size-adjust="none"
       letter-spacing="normal"
       word-spacing="normal"
       ns0:text="$5$"
       ns0:preamble="" />  </g>
  <g
     style="display:inline"
     inkscape:label="Layer"
     id="layer2"
     inkscape:groupmode="layer">
    <path
       sodipodi:nodetypes="cc"
       style="fill:none;stroke:#000000;stroke-width:3.54330707;stroke-linecap:round;stroke-linejoin:round;stroke-miterlimit:4;stroke-opacity:1;stroke-dasharray:none;stroke-dashoffset:0"
       d="m 1559.0551,1034.6456 c 103.6127,-4.5203 199.7093,7.4235 248.0315,124.0158"
       id="path4629"
       inkscape:connector-curvature="0" />
    <path
       sodipodi:nodetypes="ccc"
       inkscape:connector-curvature="0"
       id="path4623"
       d="m 1807.0866,1158.6614 c -112.8756,76.5428 -120.4281,80.1846 -248.0315,141.7323 23.7198,-53.3233 72.5982,-177.9673 248.0315,-141.7323"
       style="fill:none;stroke:#000000;stroke-width:3.54330707;stroke-linecap:round;stroke-linejoin:round;stroke-miterlimit:4;stroke-opacity:1;stroke-dasharray:none;stroke-dashoffset:0" />
    <path
       sodipodi:nodetypes="ccc"
       style="fill:none;stroke:#000000;stroke-width:3.54330707;stroke-linecap:round;stroke-linejoin:round;stroke-miterlimit:4;stroke-opacity:1;stroke-dasharray:none;stroke-dashoffset:0"
       d="m 1151.5748,1406.6929 70.8661,-106.2992 c 304.0237,199.4972 479.6163,12.4774 584.6457,-141.7323"
       id="path4617"
       inkscape:connector-curvature="0" />
    <path
       style="fill:none;stroke:#000000;stroke-width:3.54330707;stroke-miterlimit:4;stroke-opacity:1;stroke-dasharray:none"
       d="M 1807.0866,1158.6614 C 1789.3701,1016.9291 1599.0104,777.07887 1222.4409,1034.6456"
       id="path4601"
       inkscape:connector-curvature="0"
       sodipodi:nodetypes="cc" />
    <path
       sodipodi:nodetypes="cc"
       inkscape:connector-curvature="0"
       id="path4603"
       d="m 1807.0866,1158.6614 c -70.8661,230.315 -212.5984,442.9134 -584.6457,141.7323"
       style="fill:none;stroke:#000000;stroke-width:3.54330707;stroke-miterlimit:4;stroke-opacity:1;stroke-dasharray:none" />
    <path
       transform="translate(956.69291,1133.8583)"
       sodipodi:type="arc"
       style="fill:#b3ff9c;fill-opacity:1;stroke:#000000;stroke-width:1.77165353;stroke-linecap:butt;stroke-linejoin:round;stroke-miterlimit:4;stroke-opacity:1;stroke-dasharray:none;stroke-dashoffset:0"
       id="path6020"
       sodipodi:cx="194.8819"
       sodipodi:cy="272.83463"
       sodipodi:rx="17.716536"
       sodipodi:ry="17.716536"
       d="m 212.59843,272.83463 a 17.716536,17.716536 0 1 1 -35.43307,0 17.716536,17.716536 0 1 1 35.43307,0 z" />
    <rect
       style="fill:none;stroke:#000000;stroke-width:3.54330707;stroke-linecap:round;stroke-linejoin:round;stroke-miterlimit:4;stroke-opacity:1;stroke-dasharray:none;stroke-dashoffset:0"
       id="rect4605"
       width="336.6142"
       height="265.74805"
       x="1222.4409"
       y="1034.6456"
       ry="1.634012e-05" />
    <path
       transform="translate(1027.559,761.81102)"
       sodipodi:type="arc"
       style="fill:#ffffff;fill-opacity:1;stroke:#000000;stroke-width:1.77165353;stroke-linecap:butt;stroke-linejoin:round;stroke-miterlimit:4;stroke-opacity:1;stroke-dasharray:none;stroke-dashoffset:0"
       id="path4609"
       sodipodi:cx="194.8819"
       sodipodi:cy="272.83463"
       sodipodi:rx="17.716536"
       sodipodi:ry="17.716536"
       d="m 212.59843,272.83463 a 17.716536,17.716536 0 1 1 -35.43307,0 17.716536,17.716536 0 1 1 35.43307,0 z" />
    <path
       d="m 212.59843,272.83463 a 17.716536,17.716536 0 1 1 -35.43307,0 17.716536,17.716536 0 1 1 35.43307,0 z"
       sodipodi:ry="17.716536"
       sodipodi:rx="17.716536"
       sodipodi:cy="272.83463"
       sodipodi:cx="194.8819"
       id="path4611"
       style="fill:#ffffff;fill-opacity:1;stroke:#000000;stroke-width:1.77165353000000003;stroke-linecap:butt;stroke-linejoin:round;stroke-miterlimit:4;stroke-opacity:1;stroke-dasharray:none;stroke-dashoffset:0"
       sodipodi:type="arc"
       transform="translate(1027.559,1027.5591)" />
    <path
       transform="translate(1364.1732,1027.5591)"
       sodipodi:type="arc"
       style="fill:#ffffff;fill-opacity:1;stroke:#000000;stroke-width:1.77165353;stroke-linecap:butt;stroke-linejoin:round;stroke-miterlimit:4;stroke-opacity:1;stroke-dasharray:none;stroke-dashoffset:0"
       id="path4613"
       sodipodi:cx="194.8819"
       sodipodi:cy="272.83463"
       sodipodi:rx="17.716536"
       sodipodi:ry="17.716536"
       d="m 212.59843,272.83463 a 17.716536,17.716536 0 1 1 -35.43307,0 17.716536,17.716536 0 1 1 35.43307,0 z" />
    <path
       d="m 212.59843,272.83463 a 17.716536,17.716536 0 1 1 -35.43307,0 17.716536,17.716536 0 1 1 35.43307,0 z"
       sodipodi:ry="17.716536"
       sodipodi:rx="17.716536"
       sodipodi:cy="272.83463"
       sodipodi:cx="194.8819"
       id="path4615"
       style="fill:#ffffff;fill-opacity:1;stroke:#000000;stroke-width:1.77165353;stroke-linecap:butt;stroke-linejoin:round;stroke-miterlimit:4;stroke-opacity:1;stroke-dasharray:none;stroke-dashoffset:0"
       sodipodi:type="arc"
       transform="translate(1364.1732,761.81102)" />
    <path
       d="m 212.59843,272.83463 a 17.716536,17.716536 0 1 1 -35.43307,0 17.716536,17.716536 0 1 1 35.43307,0 z"
       sodipodi:ry="17.716536"
       sodipodi:rx="17.716536"
       sodipodi:cy="272.83463"
       sodipodi:cx="194.8819"
       id="path4631"
       style="fill:#b3ff9c;fill-opacity:1;stroke:#000000;stroke-width:1.77165353;stroke-linecap:butt;stroke-linejoin:round;stroke-miterlimit:4;stroke-opacity:1;stroke-dasharray:none;stroke-dashoffset:0"
       sodipodi:type="arc"
       transform="translate(1612.2047,885.82677)" />
    <g
       id="g4756"
       transform="matrix(3.5994817,0,0,-3.5994817,744.82233,3444.7023)"
       xml:space="preserve"
       stroke-miterlimit="10.433"
       font-style="normal"
       font-variant="normal"
       font-weight="normal"
       font-stretch="normal"
       font-size-adjust="none"
       letter-spacing="normal"
       word-spacing="normal"
       ns0:text="$19$"
       ns0:preamble=""
       style="font-style:normal;font-variant:normal;font-weight:normal;font-stretch:normal;letter-spacing:normal;word-spacing:normal;text-anchor:start;fill:none;stroke:#000000;stroke-linecap:butt;stroke-linejoin:miter;stroke-miterlimit:10.43299961;stroke-opacity:1;stroke-dasharray:none;stroke-dashoffset:0"><path
         style="fill:#000000;stroke-width:0"
         inkscape:connector-curvature="0"
         d="m 226.36,713.48 0,0.01 0,0.01 0,0.02 0,0.01 0,0 0,0.01 0,0.01 0,0.01 0,0.01 0,0.01 0,0.01 0,0.01 0,0 -0.01,0.01 0,0.01 0,0 0,0.01 0,0.01 0,0.01 0,0.01 -0.01,0.01 0,0.01 0,0.01 -0.01,0 0,0.01 -0.01,0.01 0,0 -0.01,0.01 -0.01,0 -0.01,0.01 0,0 -0.01,0 0,0 -0.01,0 0,0 -0.01,0 -0.01,0.01 0,0 -0.01,0 -0.01,0 0,0 -0.01,0 -0.01,0 -0.01,0 0,0 -0.01,0 -0.01,0 -0.01,0 -0.01,0 -0.01,0 -0.01,0 -0.01,0 c -0.62,-0.64 -1.49,-0.64 -1.81,-0.64 v -0.3 c 0.2,0 0.78,0 1.3,0.25 v -5.14 c 0,-0.36 -0.03,-0.48 -0.92,-0.48 h -0.32 v -0.31 c 0.35,0.04 1.21,0.04 1.61,0.04 0.4,0 1.26,0 1.61,-0.04 v 0.31 h -0.32 c -0.89,0 -0.92,0.11 -0.92,0.48 z"
         id="path4758" /><path
         style="fill:#000000;stroke-width:0"
         inkscape:connector-curvature="0"
         d="m 232.07,710.28 v -0.31 c 0,-2.33 -1.04,-2.79 -1.62,-2.79 -0.17,0 -0.7,0.02 -0.97,0.36 0.44,0 0.51,0.29 0.51,0.46 0,0.31 -0.23,0.46 -0.45,0.46 -0.16,0 -0.46,-0.09 -0.46,-0.48 0,-0.67 0.54,-1.07 1.38,-1.07 1.29,0 2.5,1.35 2.5,3.48 0,2.68 -1.14,3.35 -2.03,3.35 -0.55,0 -1.03,-0.18 -1.46,-0.63 -0.41,-0.44 -0.64,-0.86 -0.64,-1.6 0,-1.25 0.88,-2.22 1.99,-2.22 l 0.01,0.23 c -0.16,0 -0.62,0 -0.92,0.63 -0.18,0.36 -0.18,0.86 -0.18,1.35 0,0.53 0,1 0.21,1.37 0.26,0.49 0.64,0.62 0.99,0.62 0.46,0 0.79,-0.33 0.96,-0.78 0.12,-0.32 0.15,-0.95 0.15,-1.4 0,-0.83 -0.33,-1.79 -1.21,-1.79 h 0 l -0.01,-0.23 c 0.61,0 1.02,0.42 1.25,0.99 z"
         id="path4760" /></g>    <g
       style="font-style:normal;font-variant:normal;font-weight:normal;font-stretch:normal;letter-spacing:normal;word-spacing:normal;text-anchor:start;fill:none;stroke:#000000;stroke-linecap:butt;stroke-linejoin:miter;stroke-miterlimit:10.43299961;stroke-opacity:1;stroke-dasharray:none;stroke-dashoffset:0"
       ns0:preamble=""
       ns0:text="$19$"
       word-spacing="normal"
       letter-spacing="normal"
       font-size-adjust="none"
       font-stretch="normal"
       font-weight="normal"
       font-variant="normal"
       font-style="normal"
       stroke-miterlimit="10.433"
       xml:space="preserve"
       transform="matrix(3.5994817,0,0,-3.5994817,868.59607,3634.6657)"
       id="g4874"><path
         style="fill:#000000;stroke-width:0"
         inkscape:connector-curvature="0"
         id="path4876"
         d="m 226.36,713.48 0,0.01 0,0.01 0,0.02 0,0.01 0,0 0,0.01 0,0.01 0,0.01 0,0.01 0,0.01 0,0.01 0,0.01 0,0 -0.01,0.01 0,0.01 0,0 0,0.01 0,0.01 0,0.01 0,0.01 -0.01,0.01 0,0.01 0,0.01 -0.01,0 0,0.01 -0.01,0.01 0,0 -0.01,0.01 -0.01,0 -0.01,0.01 0,0 -0.01,0 0,0 -0.01,0 0,0 -0.01,0 -0.01,0.01 0,0 -0.01,0 -0.01,0 0,0 -0.01,0 -0.01,0 -0.01,0 0,0 -0.01,0 -0.01,0 -0.01,0 -0.01,0 -0.01,0 -0.01,0 -0.01,0 c -0.62,-0.64 -1.49,-0.64 -1.81,-0.64 v -0.3 c 0.2,0 0.78,0 1.3,0.25 v -5.14 c 0,-0.36 -0.03,-0.48 -0.92,-0.48 h -0.32 v -0.31 c 0.35,0.04 1.21,0.04 1.61,0.04 0.4,0 1.26,0 1.61,-0.04 v 0.31 h -0.32 c -0.89,0 -0.92,0.11 -0.92,0.48 z" /><path
         style="fill:#000000;stroke-width:0"
         inkscape:connector-curvature="0"
         id="path4878"
         d="m 232.07,710.28 v -0.31 c 0,-2.33 -1.04,-2.79 -1.62,-2.79 -0.17,0 -0.7,0.02 -0.97,0.36 0.44,0 0.51,0.29 0.51,0.46 0,0.31 -0.23,0.46 -0.45,0.46 -0.16,0 -0.46,-0.09 -0.46,-0.48 0,-0.67 0.54,-1.07 1.38,-1.07 1.29,0 2.5,1.35 2.5,3.48 0,2.68 -1.14,3.35 -2.03,3.35 -0.55,0 -1.03,-0.18 -1.46,-0.63 -0.41,-0.44 -0.64,-0.86 -0.64,-1.6 0,-1.25 0.88,-2.22 1.99,-2.22 l 0.01,0.23 c -0.16,0 -0.62,0 -0.92,0.63 -0.18,0.36 -0.18,0.86 -0.18,1.35 0,0.53 0,1 0.21,1.37 0.26,0.49 0.64,0.62 0.99,0.62 0.46,0 0.79,-0.33 0.96,-0.78 0.12,-0.32 0.15,-0.95 0.15,-1.4 0,-0.83 -0.33,-1.79 -1.21,-1.79 h 0 l -0.01,-0.23 c 0.61,0 1.02,0.42 1.25,0.99 z" /></g>    <g
       id="g4880"
       transform="matrix(3.5994817,0,0,-3.5994817,849.77269,3775.7114)"
       xml:space="preserve"
       stroke-miterlimit="10.433"
       font-style="normal"
       font-variant="normal"
       font-weight="normal"
       font-stretch="normal"
       font-size-adjust="none"
       letter-spacing="normal"
       word-spacing="normal"
       ns0:text="$19$"
       ns0:preamble=""
       style="font-style:normal;font-variant:normal;font-weight:normal;font-stretch:normal;letter-spacing:normal;word-spacing:normal;text-anchor:start;fill:none;stroke:#000000;stroke-linecap:butt;stroke-linejoin:miter;stroke-miterlimit:10.43299961;stroke-opacity:1;stroke-dasharray:none;stroke-dashoffset:0"><path
         d="m 226.36,713.48 0,0.01 0,0.01 0,0.02 0,0.01 0,0 0,0.01 0,0.01 0,0.01 0,0.01 0,0.01 0,0.01 0,0.01 0,0 -0.01,0.01 0,0.01 0,0 0,0.01 0,0.01 0,0.01 0,0.01 -0.01,0.01 0,0.01 0,0.01 -0.01,0 0,0.01 -0.01,0.01 0,0 -0.01,0.01 -0.01,0 -0.01,0.01 0,0 -0.01,0 0,0 -0.01,0 0,0 -0.01,0 -0.01,0.01 0,0 -0.01,0 -0.01,0 0,0 -0.01,0 -0.01,0 -0.01,0 0,0 -0.01,0 -0.01,0 -0.01,0 -0.01,0 -0.01,0 -0.01,0 -0.01,0 c -0.62,-0.64 -1.49,-0.64 -1.81,-0.64 v -0.3 c 0.2,0 0.78,0 1.3,0.25 v -5.14 c 0,-0.36 -0.03,-0.48 -0.92,-0.48 h -0.32 v -0.31 c 0.35,0.04 1.21,0.04 1.61,0.04 0.4,0 1.26,0 1.61,-0.04 v 0.31 h -0.32 c -0.89,0 -0.92,0.11 -0.92,0.48 z"
         id="path4882"
         inkscape:connector-curvature="0"
         style="fill:#000000;stroke-width:0" /><path
         d="m 232.07,710.28 v -0.31 c 0,-2.33 -1.04,-2.79 -1.62,-2.79 -0.17,0 -0.7,0.02 -0.97,0.36 0.44,0 0.51,0.29 0.51,0.46 0,0.31 -0.23,0.46 -0.45,0.46 -0.16,0 -0.46,-0.09 -0.46,-0.48 0,-0.67 0.54,-1.07 1.38,-1.07 1.29,0 2.5,1.35 2.5,3.48 0,2.68 -1.14,3.35 -2.03,3.35 -0.55,0 -1.03,-0.18 -1.46,-0.63 -0.41,-0.44 -0.64,-0.86 -0.64,-1.6 0,-1.25 0.88,-2.22 1.99,-2.22 l 0.01,0.23 c -0.16,0 -0.62,0 -0.92,0.63 -0.18,0.36 -0.18,0.86 -0.18,1.35 0,0.53 0,1 0.21,1.37 0.26,0.49 0.64,0.62 0.99,0.62 0.46,0 0.79,-0.33 0.96,-0.78 0.12,-0.32 0.15,-0.95 0.15,-1.4 0,-0.83 -0.33,-1.79 -1.21,-1.79 h 0 l -0.01,-0.23 c 0.61,0 1.02,0.42 1.25,0.99 z"
         id="path4884"
         inkscape:connector-curvature="0"
         style="fill:#000000;stroke-width:0" /></g>    <g
       style="font-style:normal;font-variant:normal;font-weight:normal;font-stretch:normal;letter-spacing:normal;word-spacing:normal;text-anchor:start;fill:none;stroke:#000000;stroke-linecap:butt;stroke-linejoin:miter;stroke-miterlimit:10.43299961;stroke-opacity:1;stroke-dasharray:none;stroke-dashoffset:0"
       ns0:preamble=""
       ns0:text="$10$"
       text-anchor="start"
       word-spacing="normal"
       letter-spacing="normal"
       font-size-adjust="none"
       font-stretch="normal"
       font-weight="normal"
       font-variant="normal"
       font-style="normal"
       fill-opacity="1"
       fill-rule="evenodd"
       fill="none"
       stroke-opacity="1"
       stroke-dashoffset="0"
       stroke-dasharray="none"
       stroke-miterlimit="10.433"
       stroke-linejoin="miter"
       stroke-linecap="butt"
       stroke="black"
       xml:space="preserve"
       transform="matrix(3.5994817,0,0,-3.5994817,554.73611,3566.9206)"
       id="g6108"><path
         id="path6110"
         fill="black"
         stroke-width="0"
         d="M226.36,713.48 L226.36,713.49 L226.36,713.5 L226.36,713.52 L226.36,713.53 L226.36,713.53 L226.36,713.54 L226.36,713.55 L226.36,713.56 L226.36,713.57 L226.36,713.58 L226.36,713.59 L226.36,713.6 L226.36,713.6 L226.35,713.61 L226.35,713.62 L226.35,713.62 L226.35,713.63 L226.35,713.64 L226.35,713.65 L226.35,713.66 L226.34,713.67 L226.34,713.68 L226.34,713.69 L226.33,713.69 L226.33,713.7 L226.32,713.71 L226.32,713.71 L226.31,713.72 L226.3,713.72 L226.29,713.73 L226.29,713.73 L226.28,713.73 L226.28,713.73 L226.27,713.73 L226.27,713.73 L226.26,713.73 L226.25,713.74 L226.25,713.74 L226.24,713.74 L226.23,713.74 L226.23,713.74 L226.22,713.74 L226.21,713.74 L226.2,713.74 L226.2,713.74 L226.19,713.74 L226.18,713.74 L226.17,713.74 L226.16,713.74 L226.15,713.74 L226.14,713.74 L226.13,713.74 C225.51,713.1,224.64,713.1,224.32,713.1 V712.8 C224.52,712.8,225.1,712.8,225.62,713.05 V707.91 C225.62,707.55,225.59,707.43,224.7,707.43 H224.38 V707.12 C224.73,707.16,225.59,707.16,225.99,707.16 C226.39,707.16,227.25,707.16,227.6,707.12 V707.43 H227.28 C226.39,707.43,226.36,707.54,226.36,707.91 Z " /><path
         id="path6112"
         fill="black"
         stroke-width="0"
         d="M232.99,710.3 L232.99,710.45 L232.99,710.6 L232.98,710.75 L232.98,710.9 L232.97,711.05 L232.96,711.19 L232.94,711.34 L232.92,711.49 L232.9,711.63 L232.87,711.78 L232.84,711.92 L232.8,712.07 L232.76,712.21 L232.71,712.35 L232.65,712.49 L232.62,712.56 L232.59,712.63 C232.13,713.58,231.32,713.74,230.9,713.74 C230.3,713.74,229.58,713.48,229.17,712.56 C228.85,711.87,228.8,711.1,228.8,710.3 C228.8,709.56,228.84,708.66,229.25,707.91 C229.68,707.1,230.4,706.91,230.89,706.91 V707.12 C230.5,707.12,229.92,707.37,229.74,708.33 C229.63,708.92,229.63,709.84,229.63,710.42 C229.63,711.06,229.63,711.71,229.71,712.25 C229.9,713.43,230.64,713.52,230.89,713.52 C231.22,713.52,231.88,713.34,232.07,712.36 C232.16,711.8,232.16,711.05,232.16,710.42 C232.16,709.68,232.16,709,232.05,708.37 C231.9,707.42,231.34,707.12,230.89,707.12 H230.89 V706.91 C231.43,706.91,232.18,707.11,232.62,708.06 C232.94,708.74,232.99,709.52,232.99,710.3 Z " /></g>    <g
       id="g6247"
       transform="matrix(3.5994817,0,0,-3.5994817,563.22139,3838.4496)"
       xml:space="preserve"
       stroke-miterlimit="10.433"
       font-style="normal"
       font-variant="normal"
       font-weight="normal"
       font-stretch="normal"
       font-size-adjust="none"
       letter-spacing="normal"
       word-spacing="normal"
       ns0:text="$10$"
       ns0:preamble=""
       style="font-style:normal;font-variant:normal;font-weight:normal;font-stretch:normal;letter-spacing:normal;word-spacing:normal;text-anchor:start;fill:none;stroke:#000000;stroke-linecap:butt;stroke-linejoin:miter;stroke-miterlimit:10.43299961;stroke-opacity:1;stroke-dasharray:none;stroke-dashoffset:0"><path
         d="m 226.36,713.48 0,0.01 0,0.01 0,0.02 0,0.01 0,0 0,0.01 0,0.01 0,0.01 0,0.01 0,0.01 0,0.01 0,0.01 0,0 -0.01,0.01 0,0.01 0,0 0,0.01 0,0.01 0,0.01 0,0.01 -0.01,0.01 0,0.01 0,0.01 -0.01,0 0,0.01 -0.01,0.01 0,0 -0.01,0.01 -0.01,0 -0.01,0.01 0,0 -0.01,0 0,0 -0.01,0 0,0 -0.01,0 -0.01,0.01 0,0 -0.01,0 -0.01,0 0,0 -0.01,0 -0.01,0 -0.01,0 0,0 -0.01,0 -0.01,0 -0.01,0 -0.01,0 -0.01,0 -0.01,0 -0.01,0 c -0.62,-0.64 -1.49,-0.64 -1.81,-0.64 v -0.3 c 0.2,0 0.78,0 1.3,0.25 v -5.14 c 0,-0.36 -0.03,-0.48 -0.92,-0.48 h -0.32 v -0.31 c 0.35,0.04 1.21,0.04 1.61,0.04 0.4,0 1.26,0 1.61,-0.04 v 0.31 h -0.32 c -0.89,0 -0.92,0.11 -0.92,0.48 z"
         id="path6249"
         inkscape:connector-curvature="0"
         style="fill:#000000;stroke-width:0" /><path
         d="m 232.99,710.3 0,0.15 0,0.15 -0.01,0.15 0,0.15 -0.01,0.15 -0.01,0.14 -0.02,0.15 -0.02,0.15 -0.02,0.14 -0.03,0.15 -0.03,0.14 -0.04,0.15 -0.04,0.14 -0.05,0.14 -0.06,0.14 -0.03,0.07 -0.03,0.07 c -0.46,0.95 -1.27,1.11 -1.69,1.11 -0.6,0 -1.32,-0.26 -1.73,-1.18 -0.32,-0.69 -0.37,-1.46 -0.37,-2.26 0,-0.74 0.04,-1.64 0.45,-2.39 0.43,-0.81 1.15,-1 1.64,-1 v 0.21 c -0.39,0 -0.97,0.25 -1.15,1.21 -0.11,0.59 -0.11,1.51 -0.11,2.09 0,0.64 0,1.29 0.08,1.83 0.19,1.18 0.93,1.27 1.18,1.27 0.33,0 0.99,-0.18 1.18,-1.16 0.09,-0.56 0.09,-1.31 0.09,-1.94 0,-0.74 0,-1.42 -0.11,-2.05 -0.15,-0.95 -0.71,-1.25 -1.16,-1.25 h 0 v -0.21 c 0.54,0 1.29,0.2 1.73,1.15 0.32,0.68 0.37,1.46 0.37,2.24 z"
         id="path6251"
         inkscape:connector-curvature="0"
         style="fill:#000000;stroke-width:0" /></g>    <g
       style="font-style:normal;font-variant:normal;font-weight:normal;font-stretch:normal;letter-spacing:normal;word-spacing:normal;text-anchor:start;fill:none;stroke:#000000;stroke-linecap:butt;stroke-linejoin:miter;stroke-miterlimit:10.43299961;stroke-opacity:1;stroke-dasharray:none;stroke-dashoffset:0"
       ns0:preamble=""
       ns0:text="$10$"
       word-spacing="normal"
       letter-spacing="normal"
       font-size-adjust="none"
       font-stretch="normal"
       font-weight="normal"
       font-variant="normal"
       font-style="normal"
       stroke-miterlimit="10.433"
       xml:space="preserve"
       transform="matrix(3.5994817,0,0,-3.5994817,704.28316,3697.1246)"
       id="g6253"><path
         style="fill:#000000;stroke-width:0"
         inkscape:connector-curvature="0"
         id="path6255"
         d="m 226.36,713.48 0,0.01 0,0.01 0,0.02 0,0.01 0,0 0,0.01 0,0.01 0,0.01 0,0.01 0,0.01 0,0.01 0,0.01 0,0 -0.01,0.01 0,0.01 0,0 0,0.01 0,0.01 0,0.01 0,0.01 -0.01,0.01 0,0.01 0,0.01 -0.01,0 0,0.01 -0.01,0.01 0,0 -0.01,0.01 -0.01,0 -0.01,0.01 0,0 -0.01,0 0,0 -0.01,0 0,0 -0.01,0 -0.01,0.01 0,0 -0.01,0 -0.01,0 0,0 -0.01,0 -0.01,0 -0.01,0 0,0 -0.01,0 -0.01,0 -0.01,0 -0.01,0 -0.01,0 -0.01,0 -0.01,0 c -0.62,-0.64 -1.49,-0.64 -1.81,-0.64 v -0.3 c 0.2,0 0.78,0 1.3,0.25 v -5.14 c 0,-0.36 -0.03,-0.48 -0.92,-0.48 h -0.32 v -0.31 c 0.35,0.04 1.21,0.04 1.61,0.04 0.4,0 1.26,0 1.61,-0.04 v 0.31 h -0.32 c -0.89,0 -0.92,0.11 -0.92,0.48 z" /><path
         style="fill:#000000;stroke-width:0"
         inkscape:connector-curvature="0"
         id="path6257"
         d="m 232.99,710.3 0,0.15 0,0.15 -0.01,0.15 0,0.15 -0.01,0.15 -0.01,0.14 -0.02,0.15 -0.02,0.15 -0.02,0.14 -0.03,0.15 -0.03,0.14 -0.04,0.15 -0.04,0.14 -0.05,0.14 -0.06,0.14 -0.03,0.07 -0.03,0.07 c -0.46,0.95 -1.27,1.11 -1.69,1.11 -0.6,0 -1.32,-0.26 -1.73,-1.18 -0.32,-0.69 -0.37,-1.46 -0.37,-2.26 0,-0.74 0.04,-1.64 0.45,-2.39 0.43,-0.81 1.15,-1 1.64,-1 v 0.21 c -0.39,0 -0.97,0.25 -1.15,1.21 -0.11,0.59 -0.11,1.51 -0.11,2.09 0,0.64 0,1.29 0.08,1.83 0.19,1.18 0.93,1.27 1.18,1.27 0.33,0 0.99,-0.18 1.18,-1.16 0.09,-0.56 0.09,-1.31 0.09,-1.94 0,-0.74 0,-1.42 -0.11,-2.05 -0.15,-0.95 -0.71,-1.25 -1.16,-1.25 h 0 v -0.21 c 0.54,0 1.29,0.2 1.73,1.15 0.32,0.68 0.37,1.46 0.37,2.24 z" /></g>    <g
       id="g6259"
       transform="matrix(3.5994817,0,0,-3.5994817,366.6457,3730.9694)"
       xml:space="preserve"
       stroke-miterlimit="10.433"
       font-style="normal"
       font-variant="normal"
       font-weight="normal"
       font-stretch="normal"
       font-size-adjust="none"
       letter-spacing="normal"
       word-spacing="normal"
       ns0:text="$10$"
       ns0:preamble=""
       style="font-style:normal;font-variant:normal;font-weight:normal;font-stretch:normal;letter-spacing:normal;word-spacing:normal;text-anchor:start;fill:none;stroke:#000000;stroke-linecap:butt;stroke-linejoin:miter;stroke-miterlimit:10.43299961;stroke-opacity:1;stroke-dasharray:none;stroke-dashoffset:0"><path
         d="m 226.36,713.48 0,0.01 0,0.01 0,0.02 0,0.01 0,0 0,0.01 0,0.01 0,0.01 0,0.01 0,0.01 0,0.01 0,0.01 0,0 -0.01,0.01 0,0.01 0,0 0,0.01 0,0.01 0,0.01 0,0.01 -0.01,0.01 0,0.01 0,0.01 -0.01,0 0,0.01 -0.01,0.01 0,0 -0.01,0.01 -0.01,0 -0.01,0.01 0,0 -0.01,0 0,0 -0.01,0 0,0 -0.01,0 -0.01,0.01 0,0 -0.01,0 -0.01,0 0,0 -0.01,0 -0.01,0 -0.01,0 0,0 -0.01,0 -0.01,0 -0.01,0 -0.01,0 -0.01,0 -0.01,0 -0.01,0 c -0.62,-0.64 -1.49,-0.64 -1.81,-0.64 v -0.3 c 0.2,0 0.78,0 1.3,0.25 v -5.14 c 0,-0.36 -0.03,-0.48 -0.92,-0.48 h -0.32 v -0.31 c 0.35,0.04 1.21,0.04 1.61,0.04 0.4,0 1.26,0 1.61,-0.04 v 0.31 h -0.32 c -0.89,0 -0.92,0.11 -0.92,0.48 z"
         id="path6261"
         inkscape:connector-curvature="0"
         style="fill:#000000;stroke-width:0" /><path
         d="m 232.99,710.3 0,0.15 0,0.15 -0.01,0.15 0,0.15 -0.01,0.15 -0.01,0.14 -0.02,0.15 -0.02,0.15 -0.02,0.14 -0.03,0.15 -0.03,0.14 -0.04,0.15 -0.04,0.14 -0.05,0.14 -0.06,0.14 -0.03,0.07 -0.03,0.07 c -0.46,0.95 -1.27,1.11 -1.69,1.11 -0.6,0 -1.32,-0.26 -1.73,-1.18 -0.32,-0.69 -0.37,-1.46 -0.37,-2.26 0,-0.74 0.04,-1.64 0.45,-2.39 0.43,-0.81 1.15,-1 1.64,-1 v 0.21 c -0.39,0 -0.97,0.25 -1.15,1.21 -0.11,0.59 -0.11,1.51 -0.11,2.09 0,0.64 0,1.29 0.08,1.83 0.19,1.18 0.93,1.27 1.18,1.27 0.33,0 0.99,-0.18 1.18,-1.16 0.09,-0.56 0.09,-1.31 0.09,-1.94 0,-0.74 0,-1.42 -0.11,-2.05 -0.15,-0.95 -0.71,-1.25 -1.16,-1.25 h 0 v -0.21 c 0.54,0 1.29,0.2 1.73,1.15 0.32,0.68 0.37,1.46 0.37,2.24 z"
         id="path6263"
         inkscape:connector-curvature="0"
         style="fill:#000000;stroke-width:0" /></g>    <g
       id="g6415"
       transform="matrix(3.5994817,0,0,-3.5994817,703.40127,3920.0065)"
       xml:space="preserve"
       stroke-miterlimit="10.433"
       font-style="normal"
       font-variant="normal"
       font-weight="normal"
       font-stretch="normal"
       font-size-adjust="none"
       letter-spacing="normal"
       word-spacing="normal"
       ns0:text="$1$"
       ns0:preamble=""
       style="font-style:normal;font-variant:normal;font-weight:normal;font-stretch:normal;letter-spacing:normal;word-spacing:normal;text-anchor:start;fill:none;stroke:#000000;stroke-linecap:butt;stroke-linejoin:miter;stroke-miterlimit:10.43299961;stroke-opacity:1;stroke-dasharray:none;stroke-dashoffset:0"><path
         style="fill:#000000;stroke-width:0"
         inkscape:connector-curvature="0"
         d="m 226.36,713.48 0,0.01 0,0.01 0,0.02 0,0.01 0,0 0,0.01 0,0.01 0,0.01 0,0.01 0,0.01 0,0.01 0,0.01 0,0 -0.01,0.01 0,0.01 0,0 0,0.01 0,0.01 0,0.01 0,0.01 -0.01,0.01 0,0.01 0,0.01 -0.01,0 0,0.01 -0.01,0.01 0,0 -0.01,0.01 -0.01,0 -0.01,0.01 0,0 -0.01,0 0,0 -0.01,0 0,0 -0.01,0 -0.01,0.01 0,0 -0.01,0 -0.01,0 0,0 -0.01,0 -0.01,0 -0.01,0 0,0 -0.01,0 -0.01,0 -0.01,0 -0.01,0 -0.01,0 -0.01,0 -0.01,0 c -0.62,-0.64 -1.49,-0.64 -1.81,-0.64 v -0.3 c 0.2,0 0.78,0 1.3,0.25 v -5.14 c 0,-0.36 -0.03,-0.48 -0.92,-0.48 h -0.32 v -0.31 c 0.35,0.04 1.21,0.04 1.61,0.04 0.4,0 1.26,0 1.61,-0.04 v 0.31 h -0.32 c -0.89,0 -0.92,0.11 -0.92,0.48 z"
         id="path6417" /></g>    <g
       style="font-style:normal;font-variant:normal;font-weight:normal;font-stretch:normal;letter-spacing:normal;word-spacing:normal;text-anchor:start;fill:none;stroke:#000000;stroke-linecap:butt;stroke-linejoin:miter;stroke-miterlimit:10.43299961;stroke-opacity:1;stroke-dasharray:none;stroke-dashoffset:0"
       ns0:preamble=""
       ns0:text="$1$"
       word-spacing="normal"
       letter-spacing="normal"
       font-size-adjust="none"
       font-stretch="normal"
       font-weight="normal"
       font-variant="normal"
       font-style="normal"
       stroke-miterlimit="10.433"
       xml:space="preserve"
       transform="matrix(3.5994817,0,0,-3.5994817,817.83871,3707.2903)"
       id="g6563"><path
         id="path6565"
         d="m 226.36,713.48 0,0.01 0,0.01 0,0.02 0,0.01 0,0 0,0.01 0,0.01 0,0.01 0,0.01 0,0.01 0,0.01 0,0.01 0,0 -0.01,0.01 0,0.01 0,0 0,0.01 0,0.01 0,0.01 0,0.01 -0.01,0.01 0,0.01 0,0.01 -0.01,0 0,0.01 -0.01,0.01 0,0 -0.01,0.01 -0.01,0 -0.01,0.01 0,0 -0.01,0 0,0 -0.01,0 0,0 -0.01,0 -0.01,0.01 0,0 -0.01,0 -0.01,0 0,0 -0.01,0 -0.01,0 -0.01,0 0,0 -0.01,0 -0.01,0 -0.01,0 -0.01,0 -0.01,0 -0.01,0 -0.01,0 c -0.62,-0.64 -1.49,-0.64 -1.81,-0.64 v -0.3 c 0.2,0 0.78,0 1.3,0.25 v -5.14 c 0,-0.36 -0.03,-0.48 -0.92,-0.48 h -0.32 v -0.31 c 0.35,0.04 1.21,0.04 1.61,0.04 0.4,0 1.26,0 1.61,-0.04 v 0.31 h -0.32 c -0.89,0 -0.92,0.11 -0.92,0.48 z"
         inkscape:connector-curvature="0"
         style="fill:#000000;stroke-width:0" /></g>    <path
       sodipodi:nodetypes="cc"
       inkscape:connector-curvature="0"
       id="path4387"
       d="m 1146.9593,1132.6062 c 198.5826,-18 224.2992,223.7481 162,317.7481"
       style="fill:none;stroke:#101bff;stroke-width:7.08661413;stroke-linecap:round;stroke-linejoin:round;stroke-miterlimit:4;stroke-opacity:1;stroke-dasharray:21.25984252, 21.25984252;stroke-dashoffset:0" />
    <g
       style="font-style:normal;font-variant:normal;font-weight:normal;font-stretch:normal;letter-spacing:normal;word-spacing:normal;text-anchor:start;fill:none;stroke:#000000;stroke-linecap:butt;stroke-linejoin:miter;stroke-miterlimit:10.43299961;stroke-opacity:1;stroke-dasharray:none;stroke-dashoffset:0"
       ns0:preamble=""
       ns0:text="$50$"
       text-anchor="start"
       word-spacing="normal"
       letter-spacing="normal"
       font-size-adjust="none"
       font-stretch="normal"
       font-weight="normal"
       font-variant="normal"
       font-style="normal"
       fill-opacity="1"
       fill-rule="evenodd"
       fill="none"
       stroke-opacity="1"
       stroke-dashoffset="0"
       stroke-dasharray="none"
       stroke-miterlimit="10.433"
       stroke-linejoin="miter"
       stroke-linecap="butt"
       stroke="black"
       xml:space="preserve"
       transform="matrix(3.5994817,0,0,-3.5994817,332.17766,3900.6507)"
       id="g4188"><path
         id="path4190"
         fill="black"
         stroke-width="0"
         d="M227.9,709.12 L227.9,709.23 L227.89,709.34 L227.88,709.45 L227.86,709.55 L227.84,709.66 L227.82,709.76 L227.79,709.86 L227.75,709.96 L227.72,710.06 L227.68,710.15 L227.63,710.24 L227.58,710.33 L227.53,710.42 L227.48,710.5 L227.42,710.58 L227.36,710.65 L227.29,710.73 L227.22,710.79 L227.15,710.86 L227.08,710.92 L227,710.98 L226.92,711.03 L226.84,711.08 L226.76,711.12 L226.67,711.16 L226.58,711.2 L226.49,711.23 L226.4,711.25 L226.3,711.27 L226.21,711.29 L226.11,711.29 L226.01,711.3 C225.53,711.3,225.1,711.14,224.74,710.79 V712.73 C224.94,712.67,225.27,712.6,225.59,712.6 C226.82,712.6,227.51,713.5,227.51,713.63 C227.51,713.69,227.48,713.74,227.41,713.74 C227.4,713.74,227.38,713.74,227.33,713.71 C227.13,713.62,226.65,713.42,225.98,713.42 C225.58,713.42,225.12,713.49,224.66,713.7 C224.58,713.73,224.56,713.73,224.54,713.73 C224.44,713.73,224.44,713.65,224.44,713.49 V710.55 C224.44,710.37,224.44,710.29,224.58,710.29 C224.65,710.29,224.67,710.32,224.71,710.38 C224.82,710.54,225.18,711.08,225.99,711.08 C226.51,711.08,226.76,710.62,226.84,710.44 C226.99,710.08,227.01,709.69,227.01,709.19 C227.01,708.84,227.01,708.25,226.77,707.83 C226.54,707.44,226.17,707.18,225.71,707.18 C224.98,707.18,224.42,707.71,224.25,708.3 C224.28,708.29,224.31,708.28,224.42,708.28 C224.74,708.28,224.91,708.53,224.91,708.76 C224.91,709,224.74,709.25,224.42,709.25 C224.28,709.25,223.93,709.18,223.93,708.72 C223.93,707.87,224.62,706.91,225.73,706.91 C226.88,706.91,227.9,707.86,227.9,709.12 Z " /><path
         id="path4192"
         fill="black"
         stroke-width="0"
         d="M232.99,710.3 L232.99,710.45 L232.99,710.6 L232.98,710.75 L232.98,710.9 L232.97,711.05 L232.96,711.19 L232.94,711.34 L232.92,711.49 L232.9,711.63 L232.87,711.78 L232.84,711.92 L232.8,712.07 L232.76,712.21 L232.71,712.35 L232.65,712.49 L232.62,712.56 L232.59,712.63 C232.13,713.58,231.32,713.74,230.9,713.74 C230.3,713.74,229.58,713.48,229.17,712.56 C228.85,711.87,228.8,711.1,228.8,710.3 C228.8,709.56,228.84,708.66,229.25,707.91 C229.68,707.1,230.4,706.91,230.89,706.91 V707.12 C230.5,707.12,229.92,707.37,229.74,708.33 C229.63,708.92,229.63,709.84,229.63,710.42 C229.63,711.06,229.63,711.71,229.71,712.25 C229.9,713.43,230.64,713.52,230.89,713.52 C231.22,713.52,231.88,713.34,232.07,712.36 C232.16,711.8,232.16,711.05,232.16,710.42 C232.16,709.68,232.16,709,232.05,708.37 C231.9,707.42,231.34,707.12,230.89,707.12 H230.89 V706.91 C231.43,706.91,232.18,707.11,232.62,708.06 C232.94,708.74,232.99,709.52,232.99,710.3 Z " /></g>    <g
       style="font-style:normal;font-variant:normal;font-weight:normal;font-stretch:normal;letter-spacing:normal;word-spacing:normal;text-anchor:start;fill:none;stroke:#000000;stroke-linecap:butt;stroke-linejoin:miter;stroke-miterlimit:10.43299961;stroke-opacity:1;stroke-dasharray:none;stroke-dashoffset:0"
       ns0:preamble=""
       ns0:text="$1$"
       word-spacing="normal"
       letter-spacing="normal"
       font-size-adjust="none"
       font-stretch="normal"
       font-weight="normal"
       font-variant="normal"
       font-style="normal"
       stroke-miterlimit="10.433"
       xml:space="preserve"
       transform="matrix(3.5994817,0,0,-3.5994817,767.40127,3980.0065)"
       id="g4260"><path
         id="path4262"
         d="m 226.36,713.48 0,0.01 0,0.01 0,0.02 0,0.01 0,0 0,0.01 0,0.01 0,0.01 0,0.01 0,0.01 0,0.01 0,0.01 0,0 -0.01,0.01 0,0.01 0,0 0,0.01 0,0.01 0,0.01 0,0.01 -0.01,0.01 0,0.01 0,0.01 -0.01,0 0,0.01 -0.01,0.01 0,0 -0.01,0.01 -0.01,0 -0.01,0.01 0,0 -0.01,0 0,0 -0.01,0 0,0 -0.01,0 -0.01,0.01 0,0 -0.01,0 -0.01,0 0,0 -0.01,0 -0.01,0 -0.01,0 0,0 -0.01,0 -0.01,0 -0.01,0 -0.01,0 -0.01,0 -0.01,0 -0.01,0 c -0.62,-0.64 -1.49,-0.64 -1.81,-0.64 v -0.3 c 0.2,0 0.78,0 1.3,0.25 v -5.14 c 0,-0.36 -0.03,-0.48 -0.92,-0.48 h -0.32 v -0.31 c 0.35,0.04 1.21,0.04 1.61,0.04 0.4,0 1.26,0 1.61,-0.04 v 0.31 h -0.32 c -0.89,0 -0.92,0.11 -0.92,0.48 z"
         inkscape:connector-curvature="0"
         style="fill:#000000;stroke-width:0" /></g>    <g
       id="g4328"
       transform="matrix(3.5994817,0,0,-3.5994817,285.73422,3959.6973)"
       xml:space="preserve"
       stroke="black"
       stroke-linecap="butt"
       stroke-linejoin="miter"
       stroke-miterlimit="10.433"
       stroke-dasharray="none"
       stroke-dashoffset="0"
       stroke-opacity="1"
       fill="none"
       fill-rule="evenodd"
       fill-opacity="1"
       font-style="normal"
       font-variant="normal"
       font-weight="normal"
       font-stretch="normal"
       font-size-adjust="none"
       letter-spacing="normal"
       word-spacing="normal"
       text-anchor="start"
       ns0:text="$s_2$"
       ns0:preamble=""
       style="font-style:normal;font-variant:normal;font-weight:normal;font-stretch:normal;letter-spacing:normal;word-spacing:normal;text-anchor:start;fill:none;stroke:#000000;stroke-linecap:butt;stroke-linejoin:miter;stroke-miterlimit:10.43299961;stroke-opacity:1;stroke-dasharray:none;stroke-dashoffset:0"><path
         d="M227.32,710.84 L227.3,710.84 L227.27,710.84 L227.25,710.83 L227.22,710.83 L227.2,710.82 L227.17,710.81 L227.15,710.81 L227.13,710.8 L227.11,710.79 L227.09,710.78 L227.07,710.76 L227.05,710.75 L227.03,710.74 L227.01,710.72 L227,710.71 L226.98,710.69 L226.96,710.68 L226.95,710.66 L226.94,710.65 L226.92,710.63 L226.91,710.61 L226.9,710.59 L226.89,710.57 L226.88,710.55 L226.87,710.53 L226.87,710.51 L226.86,710.49 L226.85,710.47 L226.85,710.45 L226.85,710.43 L226.85,710.41 L226.85,710.39 C226.85,710.25,226.93,710.1,227.15,710.1 C227.37,710.1,227.61,710.27,227.61,710.66 C227.61,711.11,227.18,711.52,226.43,711.52 C225.11,711.52,224.74,710.5,224.74,710.07 C224.74,709.29,225.48,709.14,225.77,709.08 C226.29,708.98,226.8,708.87,226.8,708.33 C226.8,708.07,226.58,707.23,225.38,707.23 C225.24,707.23,224.48,707.23,224.25,707.76 C224.63,707.71,224.88,708.01,224.88,708.29 C224.88,708.52,224.71,708.64,224.51,708.64 C224.25,708.64,223.95,708.43,223.95,707.98 C223.95,707.41,224.52,707.02,225.37,707.02 C226.98,707.02,227.37,708.22,227.37,708.66 C227.37,709.02,227.18,709.27,227.06,709.39 C226.79,709.67,226.51,709.72,226.07,709.81 C225.71,709.89,225.31,709.96,225.31,710.4 C225.31,710.69,225.55,711.3,226.43,711.3 C226.68,711.3,227.17,711.23,227.32,710.84 Z "
         stroke-width="0"
         fill="black"
         id="path4330" /><path
         d="M231.62,706.9 H231.38 C231.36,706.74,231.29,706.33,231.2,706.26 C231.15,706.22,230.61,706.22,230.51,706.22 H229.23 C229.96,706.87,230.21,707.06,230.62,707.39 C231.14,707.8,231.62,708.23,231.62,708.89 C231.62,709.73,230.88,710.25,229.99,710.25 C229.13,710.25,228.54,709.64,228.54,709 C228.54,708.65,228.84,708.61,228.91,708.61 C229.08,708.61,229.28,708.73,229.28,708.98 C229.28,709.11,229.23,709.35,228.87,709.35 C229.08,709.84,229.56,710,229.88,710 C230.58,710,230.94,709.46,230.94,708.89 C230.94,708.29,230.51,707.81,230.29,707.56 L228.61,705.9 C228.54,705.84,228.54,705.83,228.54,705.63 H231.41 Z "
         stroke-width="0"
         fill="black"
         id="path4332" /></g>    <g
       style="font-style:normal;font-variant:normal;font-weight:normal;font-stretch:normal;letter-spacing:normal;word-spacing:normal;text-anchor:start;fill:none;stroke:#000000;stroke-linecap:butt;stroke-linejoin:miter;stroke-miterlimit:10.43299961;stroke-opacity:1;stroke-dasharray:none;stroke-dashoffset:0"
       ns0:preamble=""
       ns0:text="$s_{1,3,4,5,6}$"
       text-anchor="start"
       word-spacing="normal"
       letter-spacing="normal"
       font-size-adjust="none"
       font-stretch="normal"
       font-weight="normal"
       font-variant="normal"
       font-style="normal"
       fill-opacity="1"
       fill-rule="evenodd"
       fill="none"
       stroke-opacity="1"
       stroke-dashoffset="0"
       stroke-dasharray="none"
       stroke-miterlimit="10.433"
       stroke-linejoin="miter"
       stroke-linecap="butt"
       stroke="black"
       xml:space="preserve"
       transform="matrix(3.5994817,0,0,-3.5994817,1028.5001,3698.7254)"
       id="content"><path
         id="path4456"
         fill="black"
         stroke-width="0"
         d="M227.32,710.84 L227.3,710.84 L227.27,710.84 L227.25,710.83 L227.22,710.83 L227.2,710.82 L227.17,710.81 L227.15,710.81 L227.13,710.8 L227.11,710.79 L227.09,710.78 L227.07,710.76 L227.05,710.75 L227.03,710.74 L227.01,710.72 L227,710.71 L226.98,710.69 L226.96,710.68 L226.95,710.66 L226.94,710.65 L226.92,710.63 L226.91,710.61 L226.9,710.59 L226.89,710.57 L226.88,710.55 L226.87,710.53 L226.87,710.51 L226.86,710.49 L226.85,710.47 L226.85,710.45 L226.85,710.43 L226.85,710.41 L226.85,710.39 C226.85,710.25,226.93,710.1,227.15,710.1 C227.37,710.1,227.61,710.27,227.61,710.66 C227.61,711.11,227.18,711.52,226.43,711.52 C225.11,711.52,224.74,710.5,224.74,710.07 C224.74,709.29,225.48,709.14,225.77,709.08 C226.29,708.98,226.8,708.87,226.8,708.33 C226.8,708.07,226.58,707.23,225.38,707.23 C225.24,707.23,224.48,707.23,224.25,707.76 C224.63,707.71,224.88,708.01,224.88,708.29 C224.88,708.52,224.71,708.64,224.51,708.64 C224.25,708.64,223.95,708.43,223.95,707.98 C223.95,707.41,224.52,707.02,225.37,707.02 C226.98,707.02,227.37,708.22,227.37,708.66 C227.37,709.02,227.18,709.27,227.06,709.39 C226.79,709.67,226.51,709.72,226.07,709.81 C225.71,709.89,225.31,709.96,225.31,710.4 C225.31,710.69,225.55,711.3,226.43,711.3 C226.68,711.3,227.17,711.23,227.32,710.84 Z " /><path
         id="path4458"
         fill="black"
         stroke-width="0"
         d="M230.43,710.05 L230.43,710.06 L230.43,710.07 L230.43,710.08 L230.43,710.09 L230.43,710.09 L230.43,710.1 L230.43,710.11 L230.43,710.12 L230.43,710.12 L230.43,710.13 L230.43,710.14 L230.43,710.14 L230.43,710.15 L230.43,710.15 L230.43,710.16 L230.43,710.16 L230.43,710.17 L230.43,710.17 L230.43,710.18 L230.42,710.19 L230.42,710.2 L230.42,710.2 L230.41,710.21 L230.41,710.22 L230.4,710.22 L230.4,710.23 L230.39,710.23 L230.39,710.23 L230.38,710.24 L230.37,710.24 L230.36,710.24 L230.35,710.24 L230.35,710.24 L230.34,710.24 L230.34,710.24 L230.33,710.25 L230.32,710.25 L230.32,710.25 L230.31,710.25 L230.3,710.25 L230.3,710.25 L230.29,710.25 L230.28,710.25 L230.28,710.25 L230.27,710.25 L230.26,710.25 L230.25,710.25 L230.24,710.25 L230.24,710.25 L230.23,710.25 C229.78,709.81,229.15,709.8,228.86,709.8 V709.55 C229.03,709.55,229.49,709.55,229.87,709.75 V706.2 C229.87,705.97,229.87,705.88,229.18,705.88 H228.91 V705.63 C229.04,705.64,229.89,705.66,230.15,705.66 C230.37,705.66,231.24,705.64,231.4,705.63 V705.88 H231.13 C230.43,705.88,230.43,705.97,230.43,706.2 Z " /><path
         id="path4460"
         fill="black"
         stroke-width="0"
         d="M233.54,705.74 L233.54,705.67 L233.54,705.6 L233.53,705.52 L233.52,705.44 L233.52,705.41 L233.51,705.37 L233.5,705.33 L233.5,705.29 L233.49,705.25 L233.47,705.21 L233.46,705.17 L233.45,705.13 L233.43,705.09 L233.42,705.05 L233.4,705.01 L233.38,704.97 L233.36,704.93 L233.34,704.89 L233.31,704.84 L233.28,704.8 L233.26,704.76 L233.23,704.72 L233.19,704.68 L233.16,704.64 L233.12,704.6 L233.08,704.55 L233.04,704.51 L233,704.47 C232.97,704.44,232.95,704.42,232.95,704.39 C232.95,704.34,233.01,704.29,233.05,704.29 C233.15,704.29,233.74,704.84,233.74,705.67 C233.74,706.1,233.57,706.43,233.25,706.43 C233.02,706.43,232.85,706.25,232.85,706.03 C232.85,705.81,233.01,705.63,233.26,705.63 C233.42,705.63,233.54,705.74,233.54,705.74 Z " /><path
         id="path4462"
         fill="black"
         stroke-width="0"
         d="M236.34,707.95 L236.39,707.95 L236.44,707.95 L236.49,707.94 L236.54,707.94 L236.58,707.93 L236.63,707.91 L236.67,707.9 L236.72,707.88 L236.76,707.86 L236.8,707.84 L236.84,707.82 L236.87,707.8 L236.91,707.77 L236.95,707.74 L236.98,707.71 L237.01,707.67 L237.04,707.64 L237.07,707.6 L237.1,707.56 L237.12,707.52 L237.15,707.47 L237.17,707.42 L237.19,707.37 L237.2,707.32 L237.22,707.27 L237.23,707.21 L237.25,707.16 L237.26,707.1 L237.26,707.03 L237.27,706.97 L237.27,706.9 L237.27,706.83 C237.27,705.97,236.77,705.71,236.37,705.71 C236.09,705.71,235.48,705.79,235.18,706.2 C235.51,706.22,235.59,706.45,235.59,706.59 C235.59,706.81,235.42,706.97,235.21,706.97 C235.01,706.97,234.82,706.85,234.82,706.57 C234.82,705.92,235.54,705.49,236.38,705.49 C237.35,705.49,238.02,706.14,238.02,706.83 C238.02,707.38,237.57,707.92,236.81,708.08 C237.54,708.34,237.8,708.86,237.8,709.29 C237.8,709.84,237.17,710.25,236.4,710.25 C235.62,710.25,235.03,709.87,235.03,709.32 C235.03,709.08,235.18,708.95,235.39,708.95 C235.61,708.95,235.75,709.11,235.75,709.3 C235.75,709.5,235.61,709.65,235.39,709.66 C235.64,709.97,236.12,710.05,236.38,710.05 C236.69,710.05,237.13,709.89,237.13,709.29 C237.13,709,237.03,708.68,236.85,708.46 C236.62,708.2,236.42,708.18,236.08,708.16 C235.9,708.15,235.89,708.15,235.85,708.14 C235.84,708.14,235.78,708.13,235.78,708.05 C235.78,707.95,235.85,707.95,235.96,707.95 Z " /><path
         id="path4464"
         fill="black"
         stroke-width="0"
         d="M239.88,705.74 L239.88,705.67 L239.88,705.6 L239.87,705.52 L239.86,705.44 L239.86,705.41 L239.85,705.37 L239.84,705.33 L239.83,705.29 L239.82,705.25 L239.81,705.21 L239.8,705.17 L239.79,705.13 L239.77,705.09 L239.76,705.05 L239.74,705.01 L239.72,704.97 L239.7,704.93 L239.67,704.89 L239.65,704.84 L239.62,704.8 L239.59,704.76 L239.56,704.72 L239.53,704.68 L239.5,704.64 L239.46,704.6 L239.42,704.55 L239.38,704.51 L239.34,704.47 C239.31,704.44,239.29,704.42,239.29,704.39 C239.29,704.34,239.34,704.29,239.39,704.29 C239.48,704.29,240.08,704.84,240.08,705.67 C240.08,706.1,239.91,706.43,239.59,706.43 C239.36,706.43,239.19,706.25,239.19,706.03 C239.19,705.81,239.35,705.63,239.6,705.63 C239.76,705.63,239.87,705.74,239.88,705.74 Z " /><path
         id="path4466"
         fill="black"
         stroke-width="0"
         d="M244.46,706.77 V707.02 H243.69 V710.12 C243.69,710.27,243.69,710.32,243.54,710.32 C243.45,710.32,243.42,710.32,243.35,710.22 L241.05,707.02 V706.77 H243.1 L243.15,707.02 H241.31 L243.15,709.57 V707.02 L243.1,706.77 V706.2 C243.1,705.97,243.1,705.88,242.53,705.88 H242.34 V705.63 C242.69,705.65,243.14,705.66,243.39,705.66 C243.65,705.66,244.09,705.65,244.44,705.63 V705.88 H244.25 C243.69,705.88,243.69,705.97,243.69,706.2 V706.77 Z " /><path
         id="path4468"
         fill="black"
         stroke-width="0"
         d="M246.22,705.74 L246.22,705.67 L246.21,705.6 L246.21,705.52 L246.2,705.44 L246.19,705.41 L246.19,705.37 L246.18,705.33 L246.17,705.29 L246.16,705.25 L246.15,705.21 L246.14,705.17 L246.12,705.13 L246.11,705.09 L246.09,705.05 L246.07,705.01 L246.05,704.97 L246.03,704.93 L246.01,704.89 L245.99,704.84 L245.96,704.8 L245.93,704.76 L245.9,704.72 L245.87,704.68 L245.83,704.64 L245.8,704.6 L245.76,704.55 L245.72,704.51 L245.67,704.47 C245.65,704.44,245.63,704.42,245.63,704.39 C245.63,704.34,245.68,704.29,245.72,704.29 C245.82,704.29,246.41,704.84,246.41,705.67 C246.41,706.1,246.24,706.43,245.93,706.43 C245.7,706.43,245.53,706.25,245.53,706.03 C245.53,705.81,245.69,705.63,245.93,705.63 C246.1,705.63,246.21,705.74,246.22,705.74 Z " /><path
         id="path4470"
         fill="black"
         stroke-width="0"
         d="M248.19,709.51 L248.23,709.5 L248.26,709.5 L248.29,709.49 L248.32,709.48 L248.35,709.48 L248.38,709.47 L248.41,709.46 L248.43,709.46 L248.46,709.45 L248.49,709.45 L248.51,709.45 L248.53,709.44 L248.56,709.44 L248.58,709.44 L248.6,709.43 L248.62,709.43 L248.64,709.43 L248.66,709.43 L248.68,709.43 L248.7,709.43 L248.72,709.42 L248.73,709.42 L248.75,709.42 L248.77,709.42 L248.78,709.42 L248.8,709.42 L248.81,709.42 L248.82,709.42 L248.84,709.42 L248.85,709.42 L248.86,709.42 L248.87,709.42 C249.79,709.42,250.33,710.05,250.33,710.15 C250.33,710.23,250.28,710.25,250.25,710.25 C250.23,710.25,250.22,710.25,250.19,710.23 C250.02,710.16,249.66,710.03,249.14,710.03 C248.95,710.03,248.58,710.04,248.12,710.21 C248.05,710.25,248.04,710.25,248.03,710.25 C247.94,710.25,247.94,710.17,247.94,710.06 V708.01 C247.94,707.89,247.94,707.81,248.05,707.81 C248.12,707.81,248.12,707.82,248.19,707.91 C248.49,708.29,248.92,708.34,249.16,708.34 C249.58,708.34,249.77,708.01,249.8,707.95 C249.93,707.72,249.97,707.46,249.97,707.06 C249.97,706.85,249.97,706.44,249.76,706.13 C249.59,705.88,249.29,705.71,248.95,705.71 C248.49,705.71,248.03,705.97,247.85,706.42 C248.12,706.4,248.25,706.58,248.25,706.76 C248.25,707.06,247.99,707.12,247.9,707.12 C247.89,707.12,247.55,707.12,247.55,706.74 C247.55,706.12,248.12,705.49,248.96,705.49 C249.85,705.49,250.63,706.15,250.63,707.03 C250.63,707.81,250.03,708.54,249.17,708.54 C248.86,708.54,248.5,708.46,248.19,708.2 Z " /><path
         id="path4472"
         fill="black"
         stroke-width="0"
         d="M252.55,705.74 L252.55,705.67 L252.55,705.6 L252.55,705.52 L252.54,705.44 L252.53,705.41 L252.52,705.37 L252.52,705.33 L252.51,705.29 L252.5,705.25 L252.49,705.21 L252.47,705.17 L252.46,705.13 L252.45,705.09 L252.43,705.05 L252.41,705.01 L252.39,704.97 L252.37,704.93 L252.35,704.89 L252.32,704.84 L252.3,704.8 L252.27,704.76 L252.24,704.72 L252.2,704.68 L252.17,704.64 L252.13,704.6 L252.1,704.55 L252.05,704.51 L252.01,704.47 C251.98,704.44,251.96,704.42,251.96,704.39 C251.96,704.34,252.02,704.29,252.06,704.29 C252.16,704.29,252.75,704.84,252.75,705.67 C252.75,706.1,252.58,706.43,252.26,706.43 C252.03,706.43,251.87,706.25,251.87,706.03 C251.87,705.81,252.02,705.63,252.27,705.63 C252.44,705.63,252.55,705.74,252.55,705.74 Z " /><path
         id="path4474"
         fill="black"
         stroke-width="0"
         d="M254.5,707.91 L254.5,708.01 L254.5,708.12 L254.5,708.22 L254.51,708.32 L254.52,708.42 L254.53,708.52 L254.54,708.62 L254.55,708.71 L254.57,708.81 L254.59,708.9 L254.62,708.99 L254.65,709.08 L254.67,709.12 L254.68,709.17 L254.7,709.21 L254.72,709.25 L254.74,709.29 L254.76,709.33 L254.79,709.37 L254.81,709.41 C255.05,709.79,255.42,710.05,255.87,710.05 C256.08,710.05,256.36,709.99,256.49,709.8 C256.32,709.79,256.17,709.67,256.17,709.47 C256.17,709.3,256.29,709.14,256.5,709.14 C256.71,709.14,256.84,709.28,256.84,709.48 C256.84,709.89,256.54,710.25,255.85,710.25 C254.85,710.25,253.83,709.33,253.83,707.84 C253.83,706.03,254.68,705.49,255.44,705.49 C256.29,705.49,257.03,706.14,257.03,707.05 C257.03,707.93,256.33,708.59,255.51,708.59 L255.48,708.39 C255.8,708.39,256.02,708.27,256.19,708.01 C256.36,707.74,256.36,707.45,256.36,707.05 C256.36,706.65,256.36,706.36,256.17,706.09 C256.01,705.85,255.79,705.71,255.44,705.71 H255.44 C255.1,705.71,254.82,705.92,254.68,706.22 C254.57,706.43,254.52,706.78,254.52,707.2 C254.52,707.87,254.92,708.39,255.48,708.39 L255.51,708.59 C254.96,708.59,254.65,708.22,254.5,707.91 Z " /></g>  </g>
</svg>
