<?xml version="1.0" encoding="UTF-8" standalone="no"?>
<!-- Created with Inkscape (http://www.inkscape.org/) -->

<svg
   xmlns:ns0="http://www.iki.fi/pav/software/textext/"
   xmlns:dc="http://purl.org/dc/elements/1.1/"
   xmlns:cc="http://creativecommons.org/ns#"
   xmlns:rdf="http://www.w3.org/1999/02/22-rdf-syntax-ns#"
   xmlns:svg="http://www.w3.org/2000/svg"
   xmlns="http://www.w3.org/2000/svg"
   xmlns:xlink="http://www.w3.org/1999/xlink"
   xmlns:sodipodi="http://sodipodi.sourceforge.net/DTD/sodipodi-0.dtd"
   xmlns:inkscape="http://www.inkscape.org/namespaces/inkscape"
   sodipodi:docname="nonlinear-a.svg"
   inkscape:version="0.48.3.1 r9886"
   version="1.1"
   id="svg2"
   height="1052.3622047"
   width="744.09448819">
  <sodipodi:namedview
     id="base"
     pagecolor="#ffffff"
     bordercolor="#666666"
     borderopacity="1.0"
     inkscape:pageopacity="0.0"
     inkscape:pageshadow="2"
     inkscape:zoom="3.959798"
     inkscape:cx="448.3313"
     inkscape:cy="606.72611"
     inkscape:document-units="px"
     inkscape:current-layer="layer1"
     showgrid="true"
     inkscape:snap-grids="true"
     inkscape:window-width="1918"
     inkscape:window-height="1182"
     inkscape:window-x="0"
     inkscape:window-y="1080"
     inkscape:window-maximized="0"
     inkscape:snap-bbox="false"
     inkscape:snap-nodes="true"
     inkscape:snap-bbox-midpoints="false"
     inkscape:snap-object-midpoints="true"
     inkscape:object-paths="true"
     inkscape:snap-intersection-paths="true"
     inkscape:bbox-nodes="false"
     inkscape:snap-global="false">
    <inkscape:grid
       type="xygrid"
       id="grid2985"
       empspacing="10"
       visible="true"
       enabled="true"
       snapvisiblegridlinesonly="true"
       units="mm"
       spacingx="0.5mm"
       spacingy="0.5mm" />
  </sodipodi:namedview>
  <defs
     id="defs4" />
  <metadata
     id="metadata7">
    <rdf:RDF>
      <cc:Work
         rdf:about="">
        <dc:format>image/svg+xml</dc:format>
        <dc:type
           rdf:resource="http://purl.org/dc/dcmitype/StillImage" />
        <dc:title />
      </cc:Work>
    </rdf:RDF>
  </metadata>
  <g
     inkscape:label="Layer 1"
     inkscape:groupmode="layer"
     id="layer1">
    <path
       style="fill:none;stroke:#000000;stroke-width:0.2;stroke-linecap:butt;stroke-linejoin:round;stroke-miterlimit:4;stroke-opacity:1;stroke-dasharray:none;stroke-dashoffset:0"
       d="m 258.66142,485.43305 155.90551,0"
       id="path2987"
       inkscape:connector-curvature="0"
       sodipodi:nodetypes="cc" />
    <path
       style="fill:none;stroke:#000000;stroke-width:0.2;stroke-linecap:butt;stroke-linejoin:round;stroke-miterlimit:4;stroke-opacity:1;stroke-dasharray:none;stroke-dashoffset:0"
       d="m 265.74803,488.97636 0,-116.92914"
       id="path3757"
       inkscape:connector-curvature="0"
       sodipodi:nodetypes="cc" />
    <path
       style="fill:none;stroke:#000000;stroke-width:0.80000001;stroke-miterlimit:4;stroke-opacity:1;stroke-dasharray:none"
       d="m 265.74803,467.71651 35.43307,-17.71653 17.71654,-70.86614 35.43307,70.86613 53.1496,26.57481"
       id="path3894"
       inkscape:connector-curvature="0"
       sodipodi:nodetypes="ccccc" />
    <path
       sodipodi:nodetypes="cc"
       inkscape:connector-curvature="0"
       id="path3896"
       d="m 301.1811,488.97636 0,-116.92914"
       style="fill:none;stroke:#000000;stroke-width:0.2;stroke-linecap:butt;stroke-linejoin:round;stroke-miterlimit:4;stroke-opacity:1;stroke-dasharray:none;stroke-dashoffset:0" />
    <path
       style="fill:none;stroke:#000000;stroke-width:0.2;stroke-linecap:butt;stroke-linejoin:round;stroke-miterlimit:4;stroke-opacity:1;stroke-dasharray:none;stroke-dashoffset:0"
       d="m 318.89764,488.97636 0,-116.92914"
       id="path3898"
       inkscape:connector-curvature="0"
       sodipodi:nodetypes="cc" />
    <path
       sodipodi:nodetypes="cc"
       inkscape:connector-curvature="0"
       id="path3900"
       d="m 354.33071,488.97636 0,-116.92914"
       style="fill:none;stroke:#000000;stroke-width:0.2;stroke-linecap:butt;stroke-linejoin:round;stroke-miterlimit:4;stroke-opacity:1;stroke-dasharray:none;stroke-dashoffset:0" />
    <path
       style="fill:none;stroke:#000000;stroke-width:0.2;stroke-linecap:butt;stroke-linejoin:round;stroke-miterlimit:4;stroke-opacity:1;stroke-dasharray:none;stroke-dashoffset:0"
       d="m 407.48031,488.97636 0,-116.92914"
       id="path3902"
       inkscape:connector-curvature="0"
       sodipodi:nodetypes="cc" />
    <path
       style="fill:#d1d1d1;fill-opacity:1;stroke:#000000;stroke-width:0.2;stroke-linecap:butt;stroke-linejoin:round;stroke-miterlimit:4;stroke-opacity:1;stroke-dasharray:none;stroke-dashoffset:0"
       d="m 283.46457,481.88974 0,7.08662"
       id="path3973"
       inkscape:connector-curvature="0" />
    <path
       style="fill:#d1d1d1;fill-opacity:1;stroke:#000000;stroke-width:0.2;stroke-linecap:butt;stroke-linejoin:round;stroke-miterlimit:4;stroke-opacity:1;stroke-dasharray:none;stroke-dashoffset:0"
       d="m 336.61417,481.88974 0,7.08662"
       id="path3975"
       inkscape:connector-curvature="0" />
    <path
       style="fill:#d1d1d1;fill-opacity:1;stroke:#000000;stroke-width:0.2;stroke-linecap:butt;stroke-linejoin:round;stroke-miterlimit:4;stroke-opacity:1;stroke-dasharray:none;stroke-dashoffset:0"
       d="m 372.04724,481.88974 0,7.08662"
       id="path3977"
       inkscape:connector-curvature="0" />
    <path
       style="fill:#d1d1d1;fill-opacity:1;stroke:#000000;stroke-width:0.2;stroke-linecap:butt;stroke-linejoin:round;stroke-miterlimit:4;stroke-opacity:1;stroke-dasharray:none;stroke-dashoffset:0"
       d="m 389.76378,481.88974 0,7.08662"
       id="path3979"
       inkscape:connector-curvature="0" />
    <path
       style="fill:#d1d1d1;fill-opacity:1;stroke:#000000;stroke-width:0.2;stroke-linecap:butt;stroke-linejoin:round;stroke-miterlimit:4;stroke-opacity:1;stroke-dasharray:none;stroke-dashoffset:0"
       d="m 262.20472,467.71651 7.08662,0"
       id="path3981"
       inkscape:connector-curvature="0" />
    <path
       style="fill:#d1d1d1;fill-opacity:1;stroke:#000000;stroke-width:0.2;stroke-linecap:butt;stroke-linejoin:round;stroke-miterlimit:4;stroke-opacity:1;stroke-dasharray:none;stroke-dashoffset:0"
       d="m 262.20472,449.99998 7.08662,0"
       id="path3983"
       inkscape:connector-curvature="0" />
    <path
       style="fill:#d1d1d1;fill-opacity:1;stroke:#000000;stroke-width:0.2;stroke-linecap:butt;stroke-linejoin:round;stroke-miterlimit:4;stroke-opacity:1;stroke-dasharray:none;stroke-dashoffset:0"
       d="m 262.20472,432.28344 7.08662,0"
       id="path3985"
       inkscape:connector-curvature="0" />
    <path
       style="fill:#d1d1d1;fill-opacity:1;stroke:#000000;stroke-width:0.2;stroke-linecap:butt;stroke-linejoin:round;stroke-miterlimit:4;stroke-opacity:1;stroke-dasharray:none;stroke-dashoffset:0"
       d="m 262.20472,414.56691 7.08662,0"
       id="path3987"
       inkscape:connector-curvature="0" />
    <path
       style="fill:#d1d1d1;fill-opacity:1;stroke:#000000;stroke-width:0.2;stroke-linecap:butt;stroke-linejoin:round;stroke-miterlimit:4;stroke-opacity:1;stroke-dasharray:none;stroke-dashoffset:0"
       d="m 262.20472,396.85037 7.08662,0"
       id="path3989"
       inkscape:connector-curvature="0" />
    <path
       style="fill:#d1d1d1;fill-opacity:1;stroke:#000000;stroke-width:0.2;stroke-linecap:butt;stroke-linejoin:round;stroke-miterlimit:4;stroke-opacity:1;stroke-dasharray:none;stroke-dashoffset:0"
       d="m 262.20472,379.13384 7.08662,0"
       id="path3991"
       inkscape:connector-curvature="0" />
    <g
       style="font-style:normal;font-variant:normal;font-weight:normal;font-stretch:normal;letter-spacing:normal;word-spacing:normal;text-anchor:start;fill:none;stroke:#000000;stroke-linecap:butt;stroke-linejoin:miter;stroke-miterlimit:10.43299961;stroke-opacity:1;stroke-dasharray:none;stroke-dashoffset:0"
       id="content"
       transform="matrix(0.61363578,0,0,-0.61363578,127.13153,787.40444)"
       xml:space="preserve"
       stroke-miterlimit="10.433"
       font-style="normal"
       font-variant="normal"
       font-weight="normal"
       font-stretch="normal"
       font-size-adjust="none"
       letter-spacing="normal"
       word-spacing="normal"
       ns0:text="$0$"
       ns0:preamble="/home/kralovic/Research-Zurich/OnlineAlgorithms/HighProbability/fig/header.tex">
<path
   style="fill:#000000;stroke-width:0"
   inkscape:connector-curvature="0"
   d="m 228.01,480.41 0,0.15 0,0.15 -0.01,0.15 0,0.15 -0.01,0.15 -0.02,0.14 -0.01,0.15 -0.02,0.15 -0.02,0.14 -0.03,0.15 -0.03,0.14 -0.04,0.15 -0.04,0.14 -0.05,0.14 -0.06,0.14 -0.03,0.07 -0.03,0.07 c -0.46,0.95 -1.27,1.11 -1.69,1.11 -0.6,0 -1.32,-0.26 -1.73,-1.18 -0.32,-0.69 -0.37,-1.46 -0.37,-2.26 0,-0.74 0.04,-1.64 0.45,-2.39 0.43,-0.81 1.15,-1 1.64,-1 v 0.21 c -0.39,0 -0.98,0.25 -1.15,1.21 -0.11,0.59 -0.11,1.51 -0.11,2.09 0,0.64 0,1.29 0.08,1.83 0.18,1.18 0.93,1.27 1.18,1.27 0.33,0 0.98,-0.18 1.17,-1.16 0.1,-0.56 0.1,-1.31 0.1,-1.94 0,-0.74 0,-1.42 -0.11,-2.05 -0.15,-0.95 -0.71,-1.25 -1.16,-1.25 h 0 v -0.21 c 0.54,0 1.29,0.21 1.73,1.15 0.32,0.68 0.37,1.46 0.37,2.24 z"
   id="path4064" />
</g>    <g
       ns0:preamble="/home/kralovic/Research-Zurich/OnlineAlgorithms/HighProbability/fig/header.tex"
       ns0:text="$0$"
       word-spacing="normal"
       letter-spacing="normal"
       font-size-adjust="none"
       font-stretch="normal"
       font-weight="normal"
       font-variant="normal"
       font-style="normal"
       stroke-miterlimit="10.433"
       xml:space="preserve"
       transform="matrix(0.61363578,0,0,-0.61363578,117.47325,779.75673)"
       id="g4164"
       style="font-style:normal;font-variant:normal;font-weight:normal;font-stretch:normal;letter-spacing:normal;word-spacing:normal;text-anchor:start;fill:none;stroke:#000000;stroke-linecap:butt;stroke-linejoin:miter;stroke-miterlimit:10.43299961;stroke-opacity:1;stroke-dasharray:none;stroke-dashoffset:0">
<path
   id="path4166"
   d="m 228.01,480.41 0,0.15 0,0.15 -0.01,0.15 0,0.15 -0.01,0.15 -0.02,0.14 -0.01,0.15 -0.02,0.15 -0.02,0.14 -0.03,0.15 -0.03,0.14 -0.04,0.15 -0.04,0.14 -0.05,0.14 -0.06,0.14 -0.03,0.07 -0.03,0.07 c -0.46,0.95 -1.27,1.11 -1.69,1.11 -0.6,0 -1.32,-0.26 -1.73,-1.18 -0.32,-0.69 -0.37,-1.46 -0.37,-2.26 0,-0.74 0.04,-1.64 0.45,-2.39 0.43,-0.81 1.15,-1 1.64,-1 v 0.21 c -0.39,0 -0.98,0.25 -1.15,1.21 -0.11,0.59 -0.11,1.51 -0.11,2.09 0,0.64 0,1.29 0.08,1.83 0.18,1.18 0.93,1.27 1.18,1.27 0.33,0 0.98,-0.18 1.17,-1.16 0.1,-0.56 0.1,-1.31 0.1,-1.94 0,-0.74 0,-1.42 -0.11,-2.05 -0.15,-0.95 -0.71,-1.25 -1.16,-1.25 h 0 v -0.21 c 0.54,0 1.29,0.21 1.73,1.15 0.32,0.68 0.37,1.46 0.37,2.24 z"
   inkscape:connector-curvature="0"
   style="fill:#000000;stroke-width:0" />
</g>    <path
       transform="matrix(0.05000019,0,0,0.05000019,278.14952,429.27156)"
       d="m 478.34645,414.56689 a 17.716536,17.716536 0 1 1 -35.43307,0 17.716536,17.716536 0 1 1 35.43307,0 z"
       sodipodi:ry="17.716536"
       sodipodi:rx="17.716536"
       sodipodi:cy="414.56689"
       sodipodi:cx="460.62991"
       id="path4194"
       style="fill:#000000;fill-opacity:1;stroke:none"
       sodipodi:type="arc" />
    <use
       height="1052.3622"
       width="744.09448"
       transform="translate(-35.433073,17.716527)"
       id="use4196"
       xlink:href="#path4194"
       y="0"
       x="0" />
    <use
       height="1052.3622"
       width="744.09448"
       transform="translate(53.14961,-88.58267)"
       id="use4198"
       xlink:href="#use4196"
       y="0"
       x="0" />
    <use
       id="use4200"
       xlink:href="#use4198"
       y="0"
       x="0" />
    <path
       sodipodi:type="arc"
       style="fill:#000000;fill-opacity:1;stroke:none"
       id="use4204"
       sodipodi:cx="460.62991"
       sodipodi:cy="414.56689"
       sodipodi:rx="17.716536"
       sodipodi:ry="17.716536"
       d="m 478.34645,414.56689 a 17.716536,17.716536 0 1 1 -35.43307,0 17.716536,17.716536 0 1 1 35.43307,0 z"
       transform="matrix(0.05000019,0,0,0.05000019,331.43112,429.31555)" />
    <use
       height="1052.3622"
       width="744.09448"
       transform="translate(53.017611,26.530812)"
       id="use4206"
       xlink:href="#use4204"
       y="0"
       x="0" />
    <g
       id="g4504"
       transform="matrix(0.61363578,0,0,-0.61363578,117.47325,762.04019)"
       xml:space="preserve"
       stroke-miterlimit="10.433"
       font-style="normal"
       font-variant="normal"
       font-weight="normal"
       font-stretch="normal"
       font-size-adjust="none"
       letter-spacing="normal"
       word-spacing="normal"
       ns0:text="$1$"
       ns0:preamble="/home/kralovic/Research-Zurich/OnlineAlgorithms/HighProbability/fig/header.tex"
       style="font-style:normal;font-variant:normal;font-weight:normal;font-stretch:normal;letter-spacing:normal;word-spacing:normal;text-anchor:start;fill:none;stroke:#000000;stroke-linecap:butt;stroke-linejoin:miter;stroke-miterlimit:10.43299961;stroke-opacity:1;stroke-dasharray:none;stroke-dashoffset:0">
<path
   d="m 226.36,483.59 0,0.01 0,0.01 0,0.02 0,0.01 0,0 0,0.01 0,0.01 0,0.01 0,0.01 0,0.01 0,0.01 0,0.01 0,0 -0.01,0.01 0,0.01 0,0 0,0.01 0,0.01 0,0.01 0,0.01 -0.01,0.01 0,0.01 0,0.01 -0.01,0 0,0.01 -0.01,0.01 0,0 -0.01,0.01 -0.01,0 -0.01,0.01 0,0 -0.01,0 0,0 -0.01,0 0,0 -0.01,0 -0.01,0.01 0,0 -0.01,0 -0.01,0 0,0 -0.01,0 -0.01,0 -0.01,0 0,0 -0.01,0 -0.01,0 -0.01,0 -0.01,0 -0.01,0 -0.01,0 -0.01,0 c -0.62,-0.64 -1.49,-0.64 -1.81,-0.64 v -0.3 c 0.2,0 0.78,0 1.3,0.26 v -5.15 c 0,-0.36 -0.03,-0.48 -0.92,-0.48 h -0.32 v -0.31 c 0.35,0.04 1.21,0.04 1.61,0.04 0.4,0 1.26,0 1.61,-0.04 v 0.31 h -0.32 c -0.89,0 -0.92,0.11 -0.92,0.48 z"
   id="path4506"
   inkscape:connector-curvature="0"
   style="fill:#000000;stroke-width:0" />
</g>    <g
       style="font-style:normal;font-variant:normal;font-weight:normal;font-stretch:normal;letter-spacing:normal;word-spacing:normal;text-anchor:start;fill:none;stroke:#000000;stroke-linecap:butt;stroke-linejoin:miter;stroke-miterlimit:10.43299961;stroke-opacity:1;stroke-dasharray:none;stroke-dashoffset:0"
       ns0:preamble="/home/kralovic/Research-Zurich/OnlineAlgorithms/HighProbability/fig/header.tex"
       ns0:text="$2$"
       word-spacing="normal"
       letter-spacing="normal"
       font-size-adjust="none"
       font-stretch="normal"
       font-weight="normal"
       font-variant="normal"
       font-style="normal"
       stroke-miterlimit="10.433"
       xml:space="preserve"
       transform="matrix(0.61363578,0,0,-0.61363578,117.47325,744.32366)"
       id="g4686">
<path
   id="path4688"
   d="m 224.7,478 1.05,1.02 c 1.55,1.37 2.15,1.91 2.15,2.9 0,1.14 -0.9,1.93 -2.11,1.93 -1.12,0 -1.86,-0.91 -1.86,-1.8 0,-0.55 0.5,-0.55 0.53,-0.55 0.17,0 0.51,0.12 0.51,0.52 0,0.26 -0.18,0.52 -0.52,0.52 -0.08,0 -0.1,0 -0.13,-0.01 0.23,0.64 0.76,1.01 1.34,1.01 0.91,0 1.33,-0.8 1.33,-1.62 0,-0.79 -0.49,-1.58 -1.04,-2.19 l -1.91,-2.13 c -0.11,-0.11 -0.11,-0.13 -0.11,-0.37 h 3.69 l 0.28,1.73 h -0.25 c -0.05,-0.29 -0.12,-0.73 -0.22,-0.88 C 227.36,478 226.71,478 226.49,478 z"
   inkscape:connector-curvature="0"
   style="fill:#000000;stroke-width:0" />
</g>    <g
       id="g4868"
       transform="matrix(0.61363578,0,0,-0.61363578,117.47325,726.60712)"
       xml:space="preserve"
       stroke-miterlimit="10.433"
       font-style="normal"
       font-variant="normal"
       font-weight="normal"
       font-stretch="normal"
       font-size-adjust="none"
       letter-spacing="normal"
       word-spacing="normal"
       ns0:text="$3$"
       ns0:preamble="/home/kralovic/Research-Zurich/OnlineAlgorithms/HighProbability/fig/header.tex"
       style="font-style:normal;font-variant:normal;font-weight:normal;font-stretch:normal;letter-spacing:normal;word-spacing:normal;text-anchor:start;fill:none;stroke:#000000;stroke-linecap:butt;stroke-linejoin:miter;stroke-miterlimit:10.43299961;stroke-opacity:1;stroke-dasharray:none;stroke-dashoffset:0">
<path
   d="m 226.32,480.73 0.07,0.03 0.08,0.03 0.07,0.03 0.07,0.03 0.07,0.04 0.07,0.04 0.06,0.04 0.07,0.04 0.06,0.04 0.06,0.05 0.06,0.05 0.06,0.05 0.05,0.05 0.05,0.05 0.05,0.06 0.05,0.05 0.04,0.06 0.05,0.06 0.04,0.06 0.03,0.06 0.04,0.07 0.03,0.06 0.03,0.07 0.03,0.06 0.02,0.07 0.02,0.07 0.02,0.07 0.01,0.07 0.02,0.07 0,0.07 0.01,0.08 0,0.07 c 0,0.82 -0.87,1.37 -1.83,1.37 -1,0 -1.76,-0.59 -1.76,-1.35 0,-0.33 0.22,-0.52 0.51,-0.52 0.3,0 0.5,0.22 0.5,0.51 0,0.5 -0.46,0.5 -0.61,0.5 0.3,0.48 0.96,0.61 1.32,0.61 0.41,0 0.95,-0.22 0.95,-1.11 0,-0.12 -0.02,-0.69 -0.27,-1.13 -0.3,-0.48 -0.64,-0.51 -0.89,-0.52 -0.08,-0.01 -0.32,-0.03 -0.39,-0.03 -0.08,-0.01 -0.15,-0.02 -0.15,-0.12 0,-0.11 0.07,-0.11 0.24,-0.11 h 0.44 c 0.82,0 1.18,-0.67 1.18,-1.65 0,-1.35 -0.68,-1.63 -1.12,-1.63 -0.43,0 -1.17,0.16 -1.52,0.75 0.35,-0.05 0.65,0.17 0.65,0.55 0,0.35 -0.26,0.55 -0.55,0.55 -0.24,0 -0.56,-0.14 -0.56,-0.57 0,-0.91 0.92,-1.56 2.01,-1.56 1.21,0 2.12,0.9 2.12,1.91 0,0.82 -0.63,1.59 -1.66,1.8 z"
   id="path4870"
   inkscape:connector-curvature="0"
   style="fill:#000000;stroke-width:0" />
</g>    <g
       style="font-style:normal;font-variant:normal;font-weight:normal;font-stretch:normal;letter-spacing:normal;word-spacing:normal;text-anchor:start;fill:none;stroke:#000000;stroke-linecap:butt;stroke-linejoin:miter;stroke-miterlimit:10.43299961;stroke-opacity:1;stroke-dasharray:none;stroke-dashoffset:0"
       ns0:preamble="/home/kralovic/Research-Zurich/OnlineAlgorithms/HighProbability/fig/header.tex"
       ns0:text="$4$"
       word-spacing="normal"
       letter-spacing="normal"
       font-size-adjust="none"
       font-stretch="normal"
       font-weight="normal"
       font-variant="normal"
       font-style="normal"
       stroke-miterlimit="10.433"
       xml:space="preserve"
       transform="matrix(0.61363578,0,0,-0.61363578,117.47325,708.89059)"
       id="g5050">
<path
   id="path5052"
   d="m 226.36,478.87 v -0.86 c 0,-0.36 -0.02,-0.47 -0.76,-0.47 h -0.21 v -0.31 c 0.41,0.04 0.93,0.04 1.35,0.04 0.41,0 0.94,0 1.35,-0.04 v 0.31 h -0.21 c -0.74,0 -0.76,0.11 -0.76,0.47 v 0.86 h 1 v 0.31 h -1 v 4.52 c 0,0.2 0,0.26 -0.16,0.26 -0.09,0 -0.11,0 -0.2,-0.12 l -3.05,-4.66 h 0.28 l 2.43,3.71 v -3.71 h -2.43 -0.28 v -0.31 z"
   inkscape:connector-curvature="0"
   style="fill:#000000;stroke-width:0" />
</g>    <g
       id="g5232"
       transform="matrix(0.61363578,0,0,-0.61363578,117.47325,691.17405)"
       xml:space="preserve"
       stroke-miterlimit="10.433"
       font-style="normal"
       font-variant="normal"
       font-weight="normal"
       font-stretch="normal"
       font-size-adjust="none"
       letter-spacing="normal"
       word-spacing="normal"
       ns0:text="$5$"
       ns0:preamble="/home/kralovic/Research-Zurich/OnlineAlgorithms/HighProbability/fig/header.tex"
       style="font-style:normal;font-variant:normal;font-weight:normal;font-stretch:normal;letter-spacing:normal;word-spacing:normal;text-anchor:start;fill:none;stroke:#000000;stroke-linecap:butt;stroke-linejoin:miter;stroke-miterlimit:10.43299961;stroke-opacity:1;stroke-dasharray:none;stroke-dashoffset:0">
<path
   d="m 227.9,479.23 0,0.11 -0.01,0.11 -0.01,0.11 -0.02,0.1 -0.02,0.11 -0.02,0.1 -0.03,0.1 -0.04,0.1 -0.03,0.1 -0.04,0.09 -0.05,0.09 -0.05,0.09 -0.05,0.09 -0.05,0.08 -0.06,0.08 -0.06,0.07 -0.07,0.08 -0.07,0.06 -0.07,0.07 -0.07,0.06 -0.08,0.06 -0.08,0.05 -0.08,0.05 -0.08,0.04 -0.09,0.04 -0.09,0.04 -0.09,0.03 -0.09,0.02 -0.1,0.02 -0.09,0.02 -0.1,0 -0.1,0.01 c -0.48,0 -0.91,-0.16 -1.27,-0.51 v 1.94 c 0.2,-0.06 0.53,-0.13 0.85,-0.13 1.23,0 1.92,0.9 1.92,1.03 0,0.06 -0.03,0.11 -0.1,0.11 -0.01,0 -0.03,0 -0.08,-0.03 -0.2,-0.09 -0.68,-0.29 -1.35,-0.29 -0.4,0 -0.86,0.07 -1.32,0.28 -0.08,0.03 -0.1,0.03 -0.12,0.03 -0.1,0 -0.1,-0.08 -0.1,-0.24 v -2.94 c 0,-0.18 0,-0.26 0.14,-0.26 0.07,0 0.09,0.03 0.13,0.09 0.11,0.16 0.47,0.7 1.28,0.7 0.52,0 0.77,-0.46 0.85,-0.64 0.15,-0.37 0.17,-0.75 0.17,-1.25 0,-0.35 0,-0.94 -0.24,-1.36 -0.23,-0.39 -0.6,-0.64 -1.06,-0.64 -0.73,0 -1.29,0.52 -1.46,1.11 0.03,-0.01 0.06,-0.02 0.17,-0.02 0.32,0 0.49,0.25 0.49,0.48 0,0.24 -0.17,0.49 -0.49,0.49 -0.14,0 -0.49,-0.07 -0.49,-0.53 0,-0.85 0.69,-1.81 1.8,-1.81 1.15,0 2.17,0.95 2.17,2.21 z"
   id="path5234"
   inkscape:connector-curvature="0"
   style="fill:#000000;stroke-width:0" />
</g>    <g
       style="font-style:normal;font-variant:normal;font-weight:normal;font-stretch:normal;letter-spacing:normal;word-spacing:normal;text-anchor:start;fill:none;stroke:#000000;stroke-linecap:butt;stroke-linejoin:miter;stroke-miterlimit:10.43299961;stroke-opacity:1;stroke-dasharray:none;stroke-dashoffset:0"
       ns0:preamble="/home/kralovic/Research-Zurich/OnlineAlgorithms/HighProbability/fig/header.tex"
       ns0:text="$6$"
       word-spacing="normal"
       letter-spacing="normal"
       font-size-adjust="none"
       font-stretch="normal"
       font-weight="normal"
       font-variant="normal"
       font-style="normal"
       stroke-miterlimit="10.433"
       xml:space="preserve"
       transform="matrix(0.61363578,0,0,-0.61363578,117.47325,673.45752)"
       id="g5414">
<path
   id="path5416"
   d="m 224.74,480.49 v 0.24 c 0,2.51 1.24,2.87 1.75,2.87 0.24,0 0.65,-0.06 0.87,-0.4 -0.15,0 -0.54,0 -0.54,-0.44 0,-0.31 0.23,-0.46 0.45,-0.46 0.16,0 0.46,0.09 0.46,0.48 0,0.59 -0.44,1.07 -1.26,1.07 -1.28,0 -2.62,-1.28 -2.62,-3.48 0,-2.65 1.15,-3.35 2.08,-3.35 1.1,0 2.05,0.93 2.05,2.24 0,1.26 -0.89,2.22 -1.99,2.22 l -0.01,-0.23 c 0.16,0 0.62,0 0.92,-0.62 0.18,-0.36 0.18,-0.87 0.18,-1.36 0,-0.47 0,-0.97 -0.17,-1.33 -0.29,-0.6 -0.75,-0.64 -0.98,-0.64 h 0 c -0.63,0 -0.93,0.59 -0.99,0.74 -0.18,0.47 -0.18,1.26 -0.18,1.44 0,0.78 0.32,1.77 1.22,1.77 l 0.01,0.23 c -0.68,0 -1.05,-0.51 -1.25,-0.99 z"
   inkscape:connector-curvature="0"
   style="fill:#000000;stroke-width:0" />
</g>    <g
       id="g5596"
       transform="matrix(0.61363578,0,0,-0.61363578,144.84806,787.40444)"
       xml:space="preserve"
       stroke-miterlimit="10.433"
       font-style="normal"
       font-variant="normal"
       font-weight="normal"
       font-stretch="normal"
       font-size-adjust="none"
       letter-spacing="normal"
       word-spacing="normal"
       ns0:text="$1$"
       ns0:preamble="/home/kralovic/Research-Zurich/OnlineAlgorithms/HighProbability/fig/header.tex"
       style="font-style:normal;font-variant:normal;font-weight:normal;font-stretch:normal;letter-spacing:normal;word-spacing:normal;text-anchor:start;fill:none;stroke:#000000;stroke-linecap:butt;stroke-linejoin:miter;stroke-miterlimit:10.43299961;stroke-opacity:1;stroke-dasharray:none;stroke-dashoffset:0">
<path
   d="m 226.36,483.59 0,0.01 0,0.01 0,0.02 0,0.01 0,0 0,0.01 0,0.01 0,0.01 0,0.01 0,0.01 0,0.01 0,0.01 0,0 -0.01,0.01 0,0.01 0,0 0,0.01 0,0.01 0,0.01 0,0.01 -0.01,0.01 0,0.01 0,0.01 -0.01,0 0,0.01 -0.01,0.01 0,0 -0.01,0.01 -0.01,0 -0.01,0.01 0,0 -0.01,0 0,0 -0.01,0 0,0 -0.01,0 -0.01,0.01 0,0 -0.01,0 -0.01,0 0,0 -0.01,0 -0.01,0 -0.01,0 0,0 -0.01,0 -0.01,0 -0.01,0 -0.01,0 -0.01,0 -0.01,0 -0.01,0 c -0.62,-0.64 -1.49,-0.64 -1.81,-0.64 v -0.3 c 0.2,0 0.78,0 1.3,0.26 v -5.15 c 0,-0.36 -0.03,-0.48 -0.92,-0.48 h -0.32 v -0.31 c 0.35,0.04 1.21,0.04 1.61,0.04 0.4,0 1.26,0 1.61,-0.04 v 0.31 h -0.32 c -0.89,0 -0.92,0.11 -0.92,0.48 z"
   id="path5598"
   inkscape:connector-curvature="0"
   style="fill:#000000;stroke-width:0" />
</g>    <g
       style="font-style:normal;font-variant:normal;font-weight:normal;font-stretch:normal;letter-spacing:normal;word-spacing:normal;text-anchor:start;fill:none;stroke:#000000;stroke-linecap:butt;stroke-linejoin:miter;stroke-miterlimit:10.43299961;stroke-opacity:1;stroke-dasharray:none;stroke-dashoffset:0"
       ns0:preamble="/home/kralovic/Research-Zurich/OnlineAlgorithms/HighProbability/fig/header.tex"
       ns0:text="$2$"
       word-spacing="normal"
       letter-spacing="normal"
       font-size-adjust="none"
       font-stretch="normal"
       font-weight="normal"
       font-variant="normal"
       font-style="normal"
       stroke-miterlimit="10.433"
       xml:space="preserve"
       transform="matrix(0.61363578,0,0,-0.61363578,162.5646,787.40444)"
       id="g5778">
<path
   id="path5780"
   d="m 224.7,478 1.05,1.02 c 1.55,1.37 2.15,1.91 2.15,2.9 0,1.14 -0.9,1.93 -2.11,1.93 -1.12,0 -1.86,-0.91 -1.86,-1.8 0,-0.55 0.5,-0.55 0.53,-0.55 0.17,0 0.51,0.12 0.51,0.52 0,0.26 -0.18,0.52 -0.52,0.52 -0.08,0 -0.1,0 -0.13,-0.01 0.23,0.64 0.76,1.01 1.34,1.01 0.91,0 1.33,-0.8 1.33,-1.62 0,-0.79 -0.49,-1.58 -1.04,-2.19 l -1.91,-2.13 c -0.11,-0.11 -0.11,-0.13 -0.11,-0.37 h 3.69 l 0.28,1.73 h -0.25 c -0.05,-0.29 -0.12,-0.73 -0.22,-0.88 C 227.36,478 226.71,478 226.49,478 z"
   inkscape:connector-curvature="0"
   style="fill:#000000;stroke-width:0" />
</g>    <g
       id="g5960"
       transform="matrix(0.61363578,0,0,-0.61363578,180.28113,787.40444)"
       xml:space="preserve"
       stroke-miterlimit="10.433"
       font-style="normal"
       font-variant="normal"
       font-weight="normal"
       font-stretch="normal"
       font-size-adjust="none"
       letter-spacing="normal"
       word-spacing="normal"
       ns0:text="$3$"
       ns0:preamble="/home/kralovic/Research-Zurich/OnlineAlgorithms/HighProbability/fig/header.tex"
       style="font-style:normal;font-variant:normal;font-weight:normal;font-stretch:normal;letter-spacing:normal;word-spacing:normal;text-anchor:start;fill:none;stroke:#000000;stroke-linecap:butt;stroke-linejoin:miter;stroke-miterlimit:10.43299961;stroke-opacity:1;stroke-dasharray:none;stroke-dashoffset:0">
<path
   d="m 226.32,480.73 0.07,0.03 0.08,0.03 0.07,0.03 0.07,0.03 0.07,0.04 0.07,0.04 0.06,0.04 0.07,0.04 0.06,0.04 0.06,0.05 0.06,0.05 0.06,0.05 0.05,0.05 0.05,0.05 0.05,0.06 0.05,0.05 0.04,0.06 0.05,0.06 0.04,0.06 0.03,0.06 0.04,0.07 0.03,0.06 0.03,0.07 0.03,0.06 0.02,0.07 0.02,0.07 0.02,0.07 0.01,0.07 0.02,0.07 0,0.07 0.01,0.08 0,0.07 c 0,0.82 -0.87,1.37 -1.83,1.37 -1,0 -1.76,-0.59 -1.76,-1.35 0,-0.33 0.22,-0.52 0.51,-0.52 0.3,0 0.5,0.22 0.5,0.51 0,0.5 -0.46,0.5 -0.61,0.5 0.3,0.48 0.96,0.61 1.32,0.61 0.41,0 0.95,-0.22 0.95,-1.11 0,-0.12 -0.02,-0.69 -0.27,-1.13 -0.3,-0.48 -0.64,-0.51 -0.89,-0.52 -0.08,-0.01 -0.32,-0.03 -0.39,-0.03 -0.08,-0.01 -0.15,-0.02 -0.15,-0.12 0,-0.11 0.07,-0.11 0.24,-0.11 h 0.44 c 0.82,0 1.18,-0.67 1.18,-1.65 0,-1.35 -0.68,-1.63 -1.12,-1.63 -0.43,0 -1.17,0.16 -1.52,0.75 0.35,-0.05 0.65,0.17 0.65,0.55 0,0.35 -0.26,0.55 -0.55,0.55 -0.24,0 -0.56,-0.14 -0.56,-0.57 0,-0.91 0.92,-1.56 2.01,-1.56 1.21,0 2.12,0.9 2.12,1.91 0,0.82 -0.63,1.59 -1.66,1.8 z"
   id="path5962"
   inkscape:connector-curvature="0"
   style="fill:#000000;stroke-width:0" />
</g>    <g
       style="font-style:normal;font-variant:normal;font-weight:normal;font-stretch:normal;letter-spacing:normal;word-spacing:normal;text-anchor:start;fill:none;stroke:#000000;stroke-linecap:butt;stroke-linejoin:miter;stroke-miterlimit:10.43299961;stroke-opacity:1;stroke-dasharray:none;stroke-dashoffset:0"
       ns0:preamble="/home/kralovic/Research-Zurich/OnlineAlgorithms/HighProbability/fig/header.tex"
       ns0:text="$4$"
       word-spacing="normal"
       letter-spacing="normal"
       font-size-adjust="none"
       font-stretch="normal"
       font-weight="normal"
       font-variant="normal"
       font-style="normal"
       stroke-miterlimit="10.433"
       xml:space="preserve"
       transform="matrix(0.61363578,0,0,-0.61363578,197.99767,787.40444)"
       id="g6142">
<path
   id="path6144"
   d="m 226.36,478.87 v -0.86 c 0,-0.36 -0.02,-0.47 -0.76,-0.47 h -0.21 v -0.31 c 0.41,0.04 0.93,0.04 1.35,0.04 0.41,0 0.94,0 1.35,-0.04 v 0.31 h -0.21 c -0.74,0 -0.76,0.11 -0.76,0.47 v 0.86 h 1 v 0.31 h -1 v 4.52 c 0,0.2 0,0.26 -0.16,0.26 -0.09,0 -0.11,0 -0.2,-0.12 l -3.05,-4.66 h 0.28 l 2.43,3.71 v -3.71 h -2.43 -0.28 v -0.31 z"
   inkscape:connector-curvature="0"
   style="fill:#000000;stroke-width:0" />
</g>    <g
       id="g6324"
       transform="matrix(0.61363578,0,0,-0.61363578,215.7142,787.40444)"
       xml:space="preserve"
       stroke-miterlimit="10.433"
       font-style="normal"
       font-variant="normal"
       font-weight="normal"
       font-stretch="normal"
       font-size-adjust="none"
       letter-spacing="normal"
       word-spacing="normal"
       ns0:text="$5$"
       ns0:preamble="/home/kralovic/Research-Zurich/OnlineAlgorithms/HighProbability/fig/header.tex"
       style="font-style:normal;font-variant:normal;font-weight:normal;font-stretch:normal;letter-spacing:normal;word-spacing:normal;text-anchor:start;fill:none;stroke:#000000;stroke-linecap:butt;stroke-linejoin:miter;stroke-miterlimit:10.43299961;stroke-opacity:1;stroke-dasharray:none;stroke-dashoffset:0">
<path
   d="m 227.9,479.23 0,0.11 -0.01,0.11 -0.01,0.11 -0.02,0.1 -0.02,0.11 -0.02,0.1 -0.03,0.1 -0.04,0.1 -0.03,0.1 -0.04,0.09 -0.05,0.09 -0.05,0.09 -0.05,0.09 -0.05,0.08 -0.06,0.08 -0.06,0.07 -0.07,0.08 -0.07,0.06 -0.07,0.07 -0.07,0.06 -0.08,0.06 -0.08,0.05 -0.08,0.05 -0.08,0.04 -0.09,0.04 -0.09,0.04 -0.09,0.03 -0.09,0.02 -0.1,0.02 -0.09,0.02 -0.1,0 -0.1,0.01 c -0.48,0 -0.91,-0.16 -1.27,-0.51 v 1.94 c 0.2,-0.06 0.53,-0.13 0.85,-0.13 1.23,0 1.92,0.9 1.92,1.03 0,0.06 -0.03,0.11 -0.1,0.11 -0.01,0 -0.03,0 -0.08,-0.03 -0.2,-0.09 -0.68,-0.29 -1.35,-0.29 -0.4,0 -0.86,0.07 -1.32,0.28 -0.08,0.03 -0.1,0.03 -0.12,0.03 -0.1,0 -0.1,-0.08 -0.1,-0.24 v -2.94 c 0,-0.18 0,-0.26 0.14,-0.26 0.07,0 0.09,0.03 0.13,0.09 0.11,0.16 0.47,0.7 1.28,0.7 0.52,0 0.77,-0.46 0.85,-0.64 0.15,-0.37 0.17,-0.75 0.17,-1.25 0,-0.35 0,-0.94 -0.24,-1.36 -0.23,-0.39 -0.6,-0.64 -1.06,-0.64 -0.73,0 -1.29,0.52 -1.46,1.11 0.03,-0.01 0.06,-0.02 0.17,-0.02 0.32,0 0.49,0.25 0.49,0.48 0,0.24 -0.17,0.49 -0.49,0.49 -0.14,0 -0.49,-0.07 -0.49,-0.53 0,-0.85 0.69,-1.81 1.8,-1.81 1.15,0 2.17,0.95 2.17,2.21 z"
   id="path6326"
   inkscape:connector-curvature="0"
   style="fill:#000000;stroke-width:0" />
</g>    <g
       style="font-style:normal;font-variant:normal;font-weight:normal;font-stretch:normal;letter-spacing:normal;word-spacing:normal;text-anchor:start;fill:none;stroke:#000000;stroke-linecap:butt;stroke-linejoin:miter;stroke-miterlimit:10.43299961;stroke-opacity:1;stroke-dasharray:none;stroke-dashoffset:0"
       ns0:preamble="/home/kralovic/Research-Zurich/OnlineAlgorithms/HighProbability/fig/header.tex"
       ns0:text="$6$"
       word-spacing="normal"
       letter-spacing="normal"
       font-size-adjust="none"
       font-stretch="normal"
       font-weight="normal"
       font-variant="normal"
       font-style="normal"
       stroke-miterlimit="10.433"
       xml:space="preserve"
       transform="matrix(0.61363578,0,0,-0.61363578,233.43074,787.40444)"
       id="g6506">
<path
   id="path6508"
   d="m 224.74,480.49 v 0.24 c 0,2.51 1.24,2.87 1.75,2.87 0.24,0 0.65,-0.06 0.87,-0.4 -0.15,0 -0.54,0 -0.54,-0.44 0,-0.31 0.23,-0.46 0.45,-0.46 0.16,0 0.46,0.09 0.46,0.48 0,0.59 -0.44,1.07 -1.26,1.07 -1.28,0 -2.62,-1.28 -2.62,-3.48 0,-2.65 1.15,-3.35 2.08,-3.35 1.1,0 2.05,0.93 2.05,2.24 0,1.26 -0.89,2.22 -1.99,2.22 l -0.01,-0.23 c 0.16,0 0.62,0 0.92,-0.62 0.18,-0.36 0.18,-0.87 0.18,-1.36 0,-0.47 0,-0.97 -0.17,-1.33 -0.29,-0.6 -0.75,-0.64 -0.98,-0.64 h 0 c -0.63,0 -0.93,0.59 -0.99,0.74 -0.18,0.47 -0.18,1.26 -0.18,1.44 0,0.78 0.32,1.77 1.22,1.77 l 0.01,0.23 c -0.68,0 -1.05,-0.51 -1.25,-0.99 z"
   inkscape:connector-curvature="0"
   style="fill:#000000;stroke-width:0" />
</g>    <g
       id="g6688"
       transform="matrix(0.61363578,0,0,-0.61363578,251.14728,787.40444)"
       xml:space="preserve"
       stroke-miterlimit="10.433"
       font-style="normal"
       font-variant="normal"
       font-weight="normal"
       font-stretch="normal"
       font-size-adjust="none"
       letter-spacing="normal"
       word-spacing="normal"
       ns0:text="$7$"
       ns0:preamble="/home/kralovic/Research-Zurich/OnlineAlgorithms/HighProbability/fig/header.tex"
       style="font-style:normal;font-variant:normal;font-weight:normal;font-stretch:normal;letter-spacing:normal;word-spacing:normal;text-anchor:start;fill:none;stroke:#000000;stroke-linecap:butt;stroke-linejoin:miter;stroke-miterlimit:10.43299961;stroke-opacity:1;stroke-dasharray:none;stroke-dashoffset:0">
<path
   d="m 228.17,483.29 0.01,0.01 0,0.01 0.01,0.01 0.01,0.01 0,0 0.01,0.01 0,0.01 0.01,0.01 0,0.01 0.01,0.01 0,0 0.01,0.01 0,0.01 0,0.01 0,0.01 0.01,0.01 0,0 0,0.01 0,0.01 0,0.01 0,0.01 0,0.01 0.01,0.01 0,0.02 0,0.01 0,0.01 0,0.02 0,0.01 0,0.02 0,0.02 0,0.01 0,0.01 0,0.01 h -2.42 c -1.21,0 -1.23,0.13 -1.27,0.32 h -0.25 l -0.33,-2.05 h 0.25 c 0.03,0.16 0.12,0.79 0.25,0.91 0.07,0.06 0.84,0.06 0.97,0.06 h 2.06 c -0.11,-0.16 -0.89,-1.24 -1.11,-1.57 -0.9,-1.34 -1.23,-2.72 -1.23,-3.74 0,-0.1 0,-0.54 0.46,-0.54 0.46,0 0.46,0.44 0.46,0.54 v 0.51 c 0,0.55 0.03,1.09 0.11,1.63 0.04,0.23 0.18,1.08 0.61,1.7 z"
   id="path6690"
   inkscape:connector-curvature="0"
   style="fill:#000000;stroke-width:0" />
</g>    <g
       style="font-style:normal;font-variant:normal;font-weight:normal;font-stretch:normal;letter-spacing:normal;word-spacing:normal;text-anchor:start;fill:none;stroke:#000000;stroke-linecap:butt;stroke-linejoin:miter;stroke-miterlimit:10.43299961;stroke-opacity:1;stroke-dasharray:none;stroke-dashoffset:0"
       ns0:preamble="/home/kralovic/Research-Zurich/OnlineAlgorithms/HighProbability/fig/header.tex"
       ns0:text="$8$"
       word-spacing="normal"
       letter-spacing="normal"
       font-size-adjust="none"
       font-stretch="normal"
       font-weight="normal"
       font-variant="normal"
       font-style="normal"
       stroke-miterlimit="10.433"
       xml:space="preserve"
       transform="matrix(0.61363578,0,0,-0.61363578,268.86381,787.40444)"
       id="g6870">
<path
   id="path6872"
   d="m 226.51,480.83 0.06,0.04 0.07,0.03 0.06,0.04 0.06,0.04 0.06,0.03 0.06,0.04 0.06,0.04 0.06,0.04 0.05,0.05 0.05,0.04 0.05,0.04 0.05,0.05 0.05,0.04 0.04,0.05 0.05,0.05 0.04,0.04 0.04,0.05 0.03,0.05 0.04,0.05 0.03,0.05 0.03,0.05 0.03,0.06 0.02,0.05 0.02,0.06 0.02,0.05 0.02,0.06 0.02,0.05 0.01,0.06 0.01,0.06 0,0.06 0.01,0.06 0,0.06 c 0,0.92 -0.89,1.48 -1.79,1.48 l -0.01,-0.25 c 0.73,0 1.36,-0.51 1.36,-1.23 0,-0.57 -0.39,-1.04 -0.98,-1.39 l -1.24,0.79 c -0.45,0.3 -0.49,0.64 -0.49,0.81 0,0.6 0.64,1.02 1.35,1.02 l 0.01,0.25 c -1,0 -1.8,-0.73 -1.8,-1.66 0,-0.18 0.02,-0.62 0.44,-1.09 0.11,-0.12 0.47,-0.37 0.72,-0.54 l 0.23,-0.15 1.23,-0.77 c 0.27,-0.19 0.74,-0.49 0.74,-1.09 0,-0.74 -0.74,-1.25 -1.56,-1.25 -0.86,0 -1.57,0.61 -1.57,1.43 0,0.58 0.32,1.22 1.16,1.68 h 0 l -0.23,0.15 c -0.57,-0.29 -1.43,-0.84 -1.43,-1.83 0,-1.05 1.02,-1.71 2.06,-1.71 1.12,0 2.07,0.82 2.07,1.88 0,0.36 -0.11,0.81 -0.49,1.23 -0.19,0.2 -0.35,0.3 -0.98,0.7 z"
   inkscape:connector-curvature="0"
   style="fill:#000000;stroke-width:0" />
</g>    <g
       id="g8919"
       transform="matrix(0.54174149,-0.28821005,-0.28821005,-0.54174149,293.9572,779.3015)"
       xml:space="preserve"
       stroke-miterlimit="10.433"
       font-style="normal"
       font-variant="normal"
       font-weight="normal"
       font-stretch="normal"
       font-size-adjust="none"
       letter-spacing="normal"
       word-spacing="normal"
       ns0:text="$1+\\frac{x}{2}$"
       ns0:preamble="/home/kralovic/Research-Zurich/OnlineAlgorithms/HighProbability/fig/header.tex"
       style="font-style:normal;font-variant:normal;font-weight:normal;font-stretch:normal;letter-spacing:normal;word-spacing:normal;text-anchor:start;fill:none;stroke:#000000;stroke-linecap:butt;stroke-linejoin:miter;stroke-miterlimit:10.43299961;stroke-opacity:1;stroke-dasharray:none;stroke-dashoffset:0">
<path
   style="fill:#000000;stroke-width:0"
   inkscape:connector-curvature="0"
   d="m 226.36,483.59 0,0.01 0,0.01 0,0.02 0,0.01 0,0 0,0.01 0,0.01 0,0.01 0,0.01 0,0.01 0,0.01 0,0.01 0,0 -0.01,0.01 0,0.01 0,0 0,0.01 0,0.01 0,0.01 0,0.01 -0.01,0.01 0,0.01 0,0.01 -0.01,0 0,0.01 -0.01,0.01 0,0 -0.01,0.01 -0.01,0 -0.01,0.01 0,0 -0.01,0 0,0 -0.01,0 0,0 -0.01,0 -0.01,0.01 0,0 -0.01,0 -0.01,0 0,0 -0.01,0 -0.01,0 -0.01,0 0,0 -0.01,0 -0.01,0 -0.01,0 -0.01,0 -0.01,0 -0.01,0 -0.01,0 c -0.62,-0.64 -1.49,-0.64 -1.81,-0.64 v -0.3 c 0.2,0 0.78,0 1.3,0.26 v -5.15 c 0,-0.36 -0.03,-0.48 -0.92,-0.48 h -0.32 v -0.31 c 0.35,0.04 1.21,0.04 1.61,0.04 0.4,0 1.26,0 1.61,-0.04 v 0.31 h -0.32 c -0.89,0 -0.92,0.11 -0.92,0.48 z"
   id="path8921" />
<path
   style="fill:#000000;stroke-width:0"
   inkscape:connector-curvature="0"
   d="m 234.69,479.52 h 2.78 c 0.14,0 0.33,0 0.33,0.2 0,0.2 -0.19,0.2 -0.33,0.2 h -2.78 v 2.78 c 0,0.14 0,0.33 -0.2,0.33 -0.19,0 -0.19,-0.19 -0.19,-0.33 v -2.78 h -2.79 c -0.14,0 -0.33,0 -0.33,-0.2 0,-0.2 0.19,-0.2 0.33,-0.2 h 2.79 v -2.78 c 0,-0.14 0,-0.33 0.19,-0.33 0.2,0 0.2,0.19 0.2,0.33 z"
   id="path8923" />
<path
   style="fill:#000000;stroke-width:0"
   inkscape:connector-curvature="0"
   d="m 243.52,481.89 -0.01,-0.02 -0.01,-0.02 0,-0.02 -0.01,-0.03 -0.02,-0.02 -0.01,-0.03 -0.01,-0.02 -0.01,-0.03 -0.02,-0.03 -0.01,-0.02 -0.02,-0.03 -0.01,-0.02 -0.02,-0.03 -0.02,-0.02 -0.02,-0.03 -0.02,-0.02 -0.02,-0.02 -0.02,-0.02 -0.03,-0.03 -0.02,-0.02 -0.02,-0.01 -0.03,-0.02 -0.03,-0.02 -0.02,-0.01 -0.03,-0.02 -0.03,-0.01 -0.03,-0.01 -0.03,-0.01 -0.03,-0.01 -0.03,0 -0.03,-0.01 -0.03,0 c -0.03,0 -0.24,0 -0.38,0.1 0.28,0.09 0.3,0.34 0.3,0.38 0,0.16 -0.11,0.26 -0.27,0.26 -0.2,0 -0.4,-0.17 -0.4,-0.42 0,-0.35 0.39,-0.51 0.73,-0.51 0.32,0 0.61,0.2 0.78,0.49 0.17,-0.37 0.55,-0.49 0.83,-0.49 0.8,0 1.22,0.87 1.22,1.06 0,0.09 -0.08,0.09 -0.11,0.09 -0.09,0 -0.1,-0.03 -0.13,-0.12 -0.15,-0.48 -0.56,-0.84 -0.95,-0.84 -0.28,0 -0.43,0.19 -0.43,0.45 0,0.19 0.17,0.82 0.37,1.59 0.13,0.54 0.45,0.71 0.68,0.71 0.01,0 0.23,0 0.37,-0.1 -0.22,-0.06 -0.3,-0.26 -0.3,-0.38 0,-0.15 0.11,-0.26 0.28,-0.26 0.16,0 0.39,0.13 0.39,0.43 0,0.39 -0.45,0.51 -0.73,0.51 -0.35,0 -0.63,-0.24 -0.78,-0.5 -0.12,0.29 -0.44,0.5 -0.83,0.5 -0.78,0 -1.23,-0.86 -1.23,-1.07 0,-0.09 0.1,-0.09 0.12,-0.09 0.09,0 0.09,0.03 0.13,0.12 0.17,0.54 0.61,0.84 0.95,0.84 0.23,0 0.42,-0.13 0.42,-0.46 0,-0.14 -0.08,-0.49 -0.14,-0.72 z"
   id="path8925" />
<line
   style="stroke-width:0.398"
   x1="241.78999"
   y1="479.73001"
   x2="246.3"
   y2="479.73001"
   id="line8927" />
<path
   style="fill:#000000;stroke-width:0"
   inkscape:connector-curvature="0"
   d="m 245.58,475.07 h -0.24 c -0.02,-0.16 -0.09,-0.57 -0.18,-0.64 -0.06,-0.04 -0.59,-0.04 -0.69,-0.04 h -1.28 c 0.73,0.65 0.97,0.84 1.39,1.17 0.52,0.41 1,0.84 1,1.5 0,0.84 -0.74,1.36 -1.63,1.36 -0.87,0 -1.45,-0.61 -1.45,-1.25 0,-0.35 0.3,-0.39 0.37,-0.39 0.16,0 0.37,0.12 0.37,0.37 0,0.13 -0.05,0.37 -0.42,0.37 0.22,0.49 0.69,0.65 1.02,0.65 0.7,0 1.06,-0.55 1.06,-1.11 0,-0.6 -0.43,-1.08 -0.65,-1.33 l -1.68,-1.66 c -0.07,-0.06 -0.07,-0.08 -0.07,-0.27 h 2.87 z"
   id="path8929" />
</g>    <g
       style="font-style:normal;font-variant:normal;font-weight:normal;font-stretch:normal;letter-spacing:normal;word-spacing:normal;text-anchor:start;fill:none;stroke:#000000;stroke-linecap:butt;stroke-linejoin:miter;stroke-miterlimit:10.43299961;stroke-opacity:1;stroke-dasharray:none;stroke-dashoffset:0"
       ns0:preamble="/home/kralovic/Research-Zurich/OnlineAlgorithms/HighProbability/fig/header.tex"
       ns0:text="$4x-6$"
       word-spacing="normal"
       letter-spacing="normal"
       font-size-adjust="none"
       font-stretch="normal"
       font-weight="normal"
       font-variant="normal"
       font-style="normal"
       stroke-miterlimit="10.433"
       xml:space="preserve"
       transform="matrix(0.18260131,-0.58583755,-0.58583755,-0.18260131,547.2795,625.22286)"
       id="g9075">
<path
   id="path9077"
   d="m 226.36,478.87 v -0.86 c 0,-0.36 -0.02,-0.47 -0.76,-0.47 h -0.21 v -0.31 c 0.41,0.04 0.93,0.04 1.35,0.04 0.41,0 0.94,0 1.35,-0.04 v 0.31 h -0.21 c -0.74,0 -0.76,0.11 -0.76,0.47 v 0.86 h 1 v 0.31 h -1 v 4.52 c 0,0.2 0,0.26 -0.16,0.26 -0.09,0 -0.11,0 -0.2,-0.12 l -3.05,-4.66 h 0.28 l 2.43,3.71 v -3.71 h -2.43 -0.28 v -0.31 z"
   inkscape:connector-curvature="0"
   style="fill:#000000;stroke-width:0" />
<path
   id="path9079"
   d="m 231.74,480.23 0,0.03 0.01,0.03 0.01,0.03 0.01,0.04 0.01,0.04 0.01,0.04 0.01,0.04 0.02,0.05 0.01,0.04 0.02,0.05 0.02,0.05 0.02,0.05 0.02,0.05 0.03,0.05 0.02,0.05 0.03,0.05 0.03,0.05 0.03,0.04 0.03,0.05 0.04,0.04 0.04,0.05 0.04,0.04 0.04,0.04 0.04,0.03 0.05,0.03 0.05,0.03 0.02,0.01 0.03,0.02 0.02,0.01 0.03,0.01 0.03,0.01 0.03,0 0.03,0.01 0.03,0.01 0.03,0 0.03,0 0.03,0.01 0.03,0 c 0.05,0 0.29,0 0.5,-0.13 -0.28,-0.05 -0.48,-0.3 -0.48,-0.54 0,-0.16 0.11,-0.35 0.38,-0.35 0.22,0 0.54,0.18 0.54,0.58 0,0.52 -0.59,0.66 -0.93,0.66 -0.58,0 -0.92,-0.53 -1.04,-0.76 -0.25,0.66 -0.79,0.76 -1.08,0.76 -1.03,0 -1.6,-1.29 -1.6,-1.53 0,-0.1 0.1,-0.1 0.12,-0.1 0.08,0 0.11,0.02 0.13,0.11 0.34,1.05 0.99,1.3 1.33,1.3 0.19,0 0.54,-0.09 0.54,-0.67 0,-0.31 -0.17,-0.97 -0.54,-2.36 -0.16,-0.62 -0.51,-1.04 -0.94,-1.04 -0.06,0 -0.29,0 -0.5,0.13 0.25,0.05 0.47,0.26 0.47,0.54 0,0.27 -0.22,0.35 -0.37,0.35 -0.3,0 -0.55,-0.26 -0.55,-0.58 0,-0.46 0.5,-0.65 0.94,-0.65 0.65,0 1.01,0.69 1.04,0.75 0.12,-0.37 0.48,-0.75 1.08,-0.75 1.02,0 1.59,1.28 1.59,1.53 0,0.1 -0.09,0.1 -0.12,0.1 -0.09,0 -0.11,-0.05 -0.13,-0.11 -0.33,-1.07 -1.01,-1.31 -1.32,-1.31 -0.39,0 -0.55,0.32 -0.55,0.66 0,0.22 0.06,0.44 0.17,0.87 z"
   inkscape:connector-curvature="0"
   style="fill:#000000;stroke-width:0" />
<path
   id="path9081"
   d="m 242.88,479.52 0.03,0 0.03,0 0.03,0 0.02,0 0.01,0 0.02,0 0.01,0.01 0.02,0 0.01,0 0.02,0 0.01,0.01 0.01,0 0.02,0 0.01,0.01 0.01,0.01 0.01,0 0.01,0.01 0.01,0.01 0.01,0 0.01,0.01 0.01,0.01 0,0.01 0,0 0.01,0.01 0,0.01 0,0 0,0.01 0.01,0.01 0,0 0,0.01 0,0.01 0,0.01 0,0 0,0.01 0.01,0.01 0,0.01 0,0.01 c 0,0.2 -0.18,0.2 -0.35,0.2 h -5.39 c -0.16,0 -0.34,0 -0.34,-0.2 0,-0.2 0.18,-0.2 0.34,-0.2 z"
   inkscape:connector-curvature="0"
   style="fill:#000000;stroke-width:0" />
<path
   id="path9083"
   d="m 247.6,480.49 v 0.24 c 0,2.51 1.23,2.87 1.74,2.87 0.24,0 0.65,-0.06 0.87,-0.4 -0.14,0 -0.54,0 -0.54,-0.44 0,-0.31 0.24,-0.46 0.45,-0.46 0.16,0 0.46,0.09 0.46,0.48 0,0.59 -0.44,1.07 -1.26,1.07 -1.28,0 -2.62,-1.28 -2.62,-3.48 0,-2.65 1.16,-3.35 2.08,-3.35 1.11,0 2.05,0.93 2.05,2.24 0,1.26 -0.88,2.22 -1.99,2.22 l -0.01,-0.23 c 0.16,0 0.62,0 0.93,-0.62 0.17,-0.36 0.17,-0.87 0.17,-1.36 0,-0.47 0,-0.97 -0.16,-1.33 -0.3,-0.6 -0.76,-0.64 -0.99,-0.64 h 0 c -0.63,0 -0.92,0.59 -0.98,0.74 -0.18,0.47 -0.18,1.26 -0.18,1.44 0,0.78 0.32,1.77 1.21,1.77 l 0.01,0.23 c -0.68,0 -1.04,-0.51 -1.24,-0.99 z"
   inkscape:connector-curvature="0"
   style="fill:#000000;stroke-width:0" />
</g>    <g
       style="font-style:normal;font-variant:normal;font-weight:normal;font-stretch:normal;letter-spacing:normal;word-spacing:normal;text-anchor:start;fill:none;stroke:#000000;stroke-linecap:butt;stroke-linejoin:miter;stroke-miterlimit:10.43299961;stroke-opacity:1;stroke-dasharray:none;stroke-dashoffset:0"
       ns0:preamble="/home/kralovic/Research-Zurich/OnlineAlgorithms/HighProbability/fig/header.tex"
       ns0:text="$12-2x$"
       text-anchor="start"
       word-spacing="normal"
       letter-spacing="normal"
       font-size-adjust="none"
       font-stretch="normal"
       font-weight="normal"
       font-variant="normal"
       font-style="normal"
       fill-opacity="1"
       fill-rule="evenodd"
       fill="none"
       stroke-opacity="1"
       stroke-dashoffset="0"
       stroke-dasharray="none"
       stroke-miterlimit="10.433"
       stroke-linejoin="miter"
       stroke-linecap="butt"
       stroke="black"
       xml:space="preserve"
       transform="matrix(0.27209278,0.55001308,0.55001308,-0.27209278,4.6438642,397.21404)"
       id="g9415">
<path
   id="path9417"
   fill="black"
   stroke-width="0"
   d="M226.36,483.59 L226.36,483.6 L226.36,483.61 L226.36,483.63 L226.36,483.64 L226.36,483.64 L226.36,483.65 L226.36,483.66 L226.36,483.67 L226.36,483.68 L226.36,483.69 L226.36,483.7 L226.36,483.71 L226.36,483.71 L226.35,483.72 L226.35,483.73 L226.35,483.73 L226.35,483.74 L226.35,483.75 L226.35,483.76 L226.35,483.77 L226.34,483.78 L226.34,483.79 L226.34,483.8 L226.33,483.8 L226.33,483.81 L226.32,483.82 L226.32,483.82 L226.31,483.83 L226.3,483.83 L226.29,483.84 L226.29,483.84 L226.28,483.84 L226.28,483.84 L226.27,483.84 L226.27,483.84 L226.26,483.84 L226.25,483.85 L226.25,483.85 L226.24,483.85 L226.23,483.85 L226.23,483.85 L226.22,483.85 L226.21,483.85 L226.2,483.85 L226.2,483.85 L226.19,483.85 L226.18,483.85 L226.17,483.85 L226.16,483.85 L226.15,483.85 L226.14,483.85 L226.13,483.85 C225.51,483.21,224.64,483.21,224.32,483.21 V482.91 C224.52,482.91,225.1,482.91,225.62,483.17 V478.02 C225.62,477.66,225.59,477.54,224.7,477.54 H224.38 V477.23 C224.73,477.27,225.59,477.27,225.99,477.27 C226.39,477.27,227.25,477.27,227.6,477.23 V477.54 H227.28 C226.39,477.54,226.36,477.65,226.36,478.02 Z " />
<path
   id="path9419"
   fill="black"
   stroke-width="0"
   d="M229.68,478 L230.73,479.02 C232.28,480.39,232.88,480.93,232.88,481.92 C232.88,483.06,231.99,483.85,230.77,483.85 C229.65,483.85,228.91,482.94,228.91,482.05 C228.91,481.5,229.41,481.5,229.44,481.5 C229.61,481.5,229.96,481.62,229.96,482.02 C229.96,482.28,229.78,482.54,229.43,482.54 C229.35,482.54,229.33,482.54,229.3,482.53 C229.53,483.17,230.07,483.54,230.64,483.54 C231.55,483.54,231.98,482.74,231.98,481.92 C231.98,481.13,231.48,480.34,230.93,479.73 L229.02,477.6 C228.91,477.49,228.91,477.47,228.91,477.23 H232.6 L232.88,478.96 H232.63 C232.58,478.67,232.51,478.23,232.41,478.08 C232.34,478,231.69,478,231.47,478 Z " />
<path
   id="path9421"
   fill="black"
   stroke-width="0"
   d="M242.17,479.52 L242.2,479.52 L242.23,479.52 L242.26,479.52 L242.28,479.52 L242.29,479.52 L242.31,479.52 L242.32,479.53 L242.34,479.53 L242.35,479.53 L242.36,479.53 L242.38,479.54 L242.39,479.54 L242.4,479.54 L242.42,479.55 L242.43,479.56 L242.44,479.56 L242.45,479.57 L242.46,479.58 L242.47,479.58 L242.48,479.59 L242.48,479.6 L242.49,479.61 L242.49,479.61 L242.49,479.62 L242.5,479.63 L242.5,479.63 L242.5,479.64 L242.5,479.65 L242.51,479.65 L242.51,479.66 L242.51,479.67 L242.51,479.68 L242.51,479.68 L242.51,479.69 L242.51,479.7 L242.51,479.71 L242.51,479.72 C242.51,479.92,242.34,479.92,242.17,479.92 H236.78 C236.61,479.92,236.43,479.92,236.43,479.72 C236.43,479.52,236.61,479.52,236.78,479.52 Z " />
<path
   id="path9423"
   fill="black"
   stroke-width="0"
   d="M246.84,478 L247.89,479.02 C249.44,480.39,250.04,480.93,250.04,481.92 C250.04,483.06,249.14,483.85,247.93,483.85 C246.8,483.85,246.07,482.94,246.07,482.05 C246.07,481.5,246.57,481.5,246.6,481.5 C246.76,481.5,247.11,481.62,247.11,482.02 C247.11,482.28,246.93,482.54,246.59,482.54 C246.51,482.54,246.49,482.54,246.46,482.53 C246.68,483.17,247.22,483.54,247.8,483.54 C248.71,483.54,249.13,482.74,249.13,481.92 C249.13,481.13,248.63,480.34,248.09,479.73 L246.18,477.6 C246.07,477.49,246.07,477.47,246.07,477.23 H249.76 L250.04,478.96 H249.79 C249.74,478.67,249.67,478.23,249.57,478.08 C249.5,478,248.84,478,248.62,478 Z " />
<path
   id="path9425"
   fill="black"
   stroke-width="0"
   d="M253.88,480.23 L253.88,480.26 L253.89,480.29 L253.9,480.32 L253.91,480.36 L253.92,480.4 L253.93,480.44 L253.94,480.48 L253.96,480.53 L253.97,480.57 L253.99,480.62 L254.01,480.67 L254.03,480.72 L254.05,480.77 L254.08,480.82 L254.1,480.87 L254.13,480.92 L254.16,480.97 L254.19,481.01 L254.22,481.06 L254.26,481.1 L254.3,481.15 L254.34,481.19 L254.38,481.23 L254.42,481.26 L254.47,481.29 L254.52,481.32 L254.54,481.33 L254.57,481.35 L254.59,481.36 L254.62,481.37 L254.65,481.38 L254.68,481.38 L254.71,481.39 L254.74,481.4 L254.77,481.4 L254.8,481.4 L254.83,481.41 L254.86,481.41 C254.91,481.41,255.15,481.41,255.36,481.28 C255.08,481.23,254.88,480.98,254.88,480.74 C254.88,480.58,254.99,480.39,255.26,480.39 C255.48,480.39,255.8,480.57,255.8,480.97 C255.8,481.49,255.21,481.63,254.87,481.63 C254.29,481.63,253.95,481.1,253.83,480.87 C253.58,481.53,253.04,481.63,252.75,481.63 C251.72,481.63,251.15,480.34,251.15,480.1 C251.15,480,251.25,480,251.27,480 C251.35,480,251.38,480.02,251.4,480.11 C251.74,481.16,252.39,481.41,252.73,481.41 C252.92,481.41,253.27,481.32,253.27,480.74 C253.27,480.43,253.1,479.77,252.73,478.38 C252.57,477.76,252.22,477.34,251.79,477.34 C251.73,477.34,251.5,477.34,251.29,477.47 C251.54,477.52,251.76,477.73,251.76,478.01 C251.76,478.28,251.54,478.36,251.39,478.36 C251.09,478.36,250.84,478.1,250.84,477.78 C250.84,477.32,251.34,477.13,251.78,477.13 C252.43,477.13,252.79,477.82,252.82,477.88 C252.94,477.51,253.3,477.13,253.9,477.13 C254.92,477.13,255.49,478.41,255.49,478.66 C255.49,478.76,255.4,478.76,255.37,478.76 C255.28,478.76,255.26,478.71,255.24,478.65 C254.91,477.58,254.23,477.34,253.92,477.34 C253.53,477.34,253.37,477.66,253.37,478 C253.37,478.22,253.43,478.44,253.54,478.87 Z " />
</g>    <g
       style="font-style:normal;font-variant:normal;font-weight:normal;font-stretch:normal;letter-spacing:normal;word-spacing:normal;text-anchor:start;fill:none;stroke:#000000;stroke-linecap:butt;stroke-linejoin:miter;stroke-miterlimit:10.43299961;stroke-opacity:1;stroke-dasharray:none;stroke-dashoffset:0"
       ns0:preamble="/home/kralovic/Research-Zurich/OnlineAlgorithms/HighProbability/fig/header.tex"
       ns0:text="$\\frac{9}{2}-\\frac{x}{2}$"
       word-spacing="normal"
       letter-spacing="normal"
       font-size-adjust="none"
       font-stretch="normal"
       font-weight="normal"
       font-variant="normal"
       font-style="normal"
       stroke-miterlimit="10.433"
       xml:space="preserve"
       transform="matrix(0.53271828,0.30456544,0.30456544,-0.53271828,108.4323,638.7959)"
       id="g9777">
<path
   id="path9779"
   d="m 227.54,483.23 0,-0.08 0,-0.08 -0.01,-0.07 0,-0.08 -0.01,-0.07 0,-0.07 -0.01,-0.06 -0.01,-0.07 -0.01,-0.06 -0.01,-0.07 -0.01,-0.06 -0.01,-0.05 -0.02,-0.06 -0.01,-0.05 -0.02,-0.06 -0.01,-0.05 -0.02,-0.05 -0.02,-0.04 -0.01,-0.05 -0.02,-0.05 -0.04,-0.08 -0.04,-0.08 -0.05,-0.07 -0.04,-0.06 -0.05,-0.07 -0.05,-0.05 -0.05,-0.05 -0.05,-0.05 -0.06,-0.04 -0.05,-0.03 -0.05,-0.04 -0.05,-0.02 -0.06,-0.03 -0.05,-0.02 -0.05,-0.02 -0.05,-0.01 -0.05,-0.02 -0.05,0 -0.05,-0.01 -0.04,-0.01 -0.04,0 -0.05,0 c -0.15,0 -0.52,0.02 -0.71,0.23 0.29,0.03 0.31,0.26 0.31,0.33 0,0.17 -0.12,0.32 -0.33,0.32 -0.21,0 -0.33,-0.14 -0.33,-0.34 0,-0.47 0.4,-0.76 1.07,-0.76 1,0 1.94,0.94 1.94,2.43 0,1.72 -0.77,2.32 -1.58,2.32 -0.23,0 -0.71,-0.03 -1.11,-0.42 -0.24,-0.23 -0.52,-0.5 -0.52,-1.12 0,-0.89 0.71,-1.54 1.52,-1.54 l 0.04,0.19 c -0.27,0 -0.53,0.09 -0.73,0.41 -0.16,0.26 -0.16,0.55 -0.16,0.94 0,0.4 0,0.68 0.21,0.95 0.16,0.25 0.39,0.39 0.75,0.39 0.36,0 0.57,-0.22 0.68,-0.4 0.19,-0.29 0.21,-0.78 0.21,-1.02 0,-0.91 -0.52,-1.27 -0.96,-1.27 h 0 l -0.04,-0.19 c 0.56,0 0.86,0.37 1.02,0.68 z"
   inkscape:connector-curvature="0"
   style="fill:#000000;stroke-width:0" />
<line
   id="line9781"
   y2="479.73001"
   x2="228.60001"
   y1="479.73001"
   x1="224.63"
   style="stroke-width:0.398" />
<path
   id="path9783"
   d="m 228.15,475.07 h -0.24 c -0.02,-0.16 -0.09,-0.57 -0.18,-0.64 -0.06,-0.04 -0.6,-0.04 -0.69,-0.04 h -1.28 c 0.73,0.65 0.97,0.84 1.39,1.17 0.51,0.41 1,0.84 1,1.5 0,0.84 -0.74,1.36 -1.64,1.36 -0.86,0 -1.44,-0.61 -1.44,-1.25 0,-0.35 0.3,-0.39 0.37,-0.39 0.16,0 0.36,0.12 0.36,0.37 0,0.13 -0.04,0.37 -0.41,0.37 0.22,0.49 0.69,0.65 1.02,0.65 0.7,0 1.06,-0.55 1.06,-1.11 0,-0.6 -0.43,-1.08 -0.65,-1.33 l -1.68,-1.66 c -0.07,-0.06 -0.07,-0.08 -0.07,-0.27 h 2.87 z"
   inkscape:connector-curvature="0"
   style="fill:#000000;stroke-width:0" />
<path
   id="path9785"
   d="m 238.57,479.52 0.03,0 0.03,0 0.03,0 0.02,0 0.01,0 0.02,0 0.01,0.01 0.02,0 0.01,0 0.01,0 0.02,0.01 0.01,0 0.01,0 0.01,0.01 0.02,0.01 0.01,0 0.01,0.01 0.01,0.01 0.01,0 0,0.01 0.01,0.01 0.01,0.01 0,0 0,0.01 0.01,0.01 0,0 0,0.01 0,0.01 0,0 0.01,0.01 0,0.01 0,0.01 0,0 0,0.01 0,0.01 0,0.01 0,0.01 c 0,0.2 -0.18,0.2 -0.34,0.2 h -5.39 c -0.17,0 -0.35,0 -0.35,-0.2 0,-0.2 0.18,-0.2 0.35,-0.2 z"
   inkscape:connector-curvature="0"
   style="fill:#000000;stroke-width:0" />
<path
   id="path9787"
   d="m 244.9,481.89 -0.01,-0.02 0,-0.02 -0.01,-0.02 -0.01,-0.03 -0.01,-0.02 -0.02,-0.03 -0.01,-0.02 -0.01,-0.03 -0.02,-0.03 -0.01,-0.02 -0.02,-0.03 -0.01,-0.02 -0.02,-0.03 -0.02,-0.02 -0.02,-0.03 -0.02,-0.02 -0.02,-0.02 -0.02,-0.02 -0.03,-0.03 -0.02,-0.02 -0.02,-0.01 -0.03,-0.02 -0.02,-0.02 -0.03,-0.01 -0.03,-0.02 -0.03,-0.01 -0.03,-0.01 -0.03,-0.01 -0.03,-0.01 -0.03,0 -0.03,-0.01 -0.03,0 c -0.02,0 -0.23,0 -0.38,0.1 0.28,0.09 0.31,0.34 0.31,0.38 0,0.16 -0.12,0.26 -0.28,0.26 -0.2,0 -0.4,-0.17 -0.4,-0.42 0,-0.35 0.39,-0.51 0.73,-0.51 0.32,0 0.61,0.2 0.78,0.49 0.17,-0.37 0.55,-0.49 0.83,-0.49 0.8,0 1.23,0.87 1.23,1.06 0,0.09 -0.09,0.09 -0.11,0.09 -0.1,0 -0.11,-0.03 -0.14,-0.12 -0.14,-0.48 -0.56,-0.84 -0.95,-0.84 -0.28,0 -0.43,0.19 -0.43,0.45 0,0.19 0.17,0.82 0.37,1.59 0.14,0.54 0.45,0.71 0.68,0.71 0.01,0 0.23,0 0.37,-0.1 -0.22,-0.06 -0.3,-0.26 -0.3,-0.38 0,-0.15 0.12,-0.26 0.28,-0.26 0.16,0 0.39,0.13 0.39,0.43 0,0.39 -0.45,0.51 -0.73,0.51 -0.35,0 -0.62,-0.24 -0.78,-0.5 -0.12,0.29 -0.44,0.5 -0.83,0.5 -0.78,0 -1.23,-0.86 -1.23,-1.07 0,-0.09 0.1,-0.09 0.12,-0.09 0.09,0 0.1,0.03 0.13,0.12 0.18,0.54 0.61,0.84 0.96,0.84 0.23,0 0.41,-0.13 0.41,-0.46 0,-0.14 -0.08,-0.49 -0.14,-0.72 z"
   inkscape:connector-curvature="0"
   style="fill:#000000;stroke-width:0" />
<line
   id="line9789"
   y2="479.73001"
   x2="247.67999"
   y1="479.73001"
   x1="243.17"
   style="stroke-width:0.398" />
<path
   id="path9791"
   d="m 246.96,475.07 h -0.24 c -0.02,-0.16 -0.09,-0.57 -0.18,-0.64 -0.06,-0.04 -0.59,-0.04 -0.69,-0.04 h -1.28 c 0.73,0.65 0.97,0.84 1.39,1.17 0.52,0.41 1,0.84 1,1.5 0,0.84 -0.74,1.36 -1.63,1.36 -0.87,0 -1.45,-0.61 -1.45,-1.25 0,-0.35 0.3,-0.39 0.37,-0.39 0.16,0 0.37,0.12 0.37,0.37 0,0.13 -0.05,0.37 -0.41,0.37 0.21,0.49 0.69,0.65 1.01,0.65 0.7,0 1.06,-0.55 1.06,-1.11 0,-0.6 -0.43,-1.08 -0.65,-1.33 l -1.68,-1.66 c -0.07,-0.06 -0.07,-0.08 -0.07,-0.27 h 2.87 z"
   inkscape:connector-curvature="0"
   style="fill:#000000;stroke-width:0" />
</g>  </g>
</svg>
