<?xml version="1.0" encoding="UTF-8" standalone="no"?>
<!-- Created with Inkscape (http://www.inkscape.org/) -->

<svg
   xmlns:ns0="http://www.iki.fi/pav/software/textext/"
   xmlns:dc="http://purl.org/dc/elements/1.1/"
   xmlns:cc="http://creativecommons.org/ns#"
   xmlns:rdf="http://www.w3.org/1999/02/22-rdf-syntax-ns#"
   xmlns:svg="http://www.w3.org/2000/svg"
   xmlns="http://www.w3.org/2000/svg"
   xmlns:sodipodi="http://sodipodi.sourceforge.net/DTD/sodipodi-0.dtd"
   xmlns:inkscape="http://www.inkscape.org/namespaces/inkscape"
   width="744.09448819"
   height="1052.3622047"
   id="svg6511"
   version="1.1"
   inkscape:version="0.48.4 r9939"
   sodipodi:docname="relaxcut.svg">
  <sodipodi:namedview
     id="base"
     pagecolor="#ffffff"
     bordercolor="#666666"
     borderopacity="1.0"
     inkscape:pageopacity="0.0"
     inkscape:pageshadow="2"
     inkscape:zoom="1.979899"
     inkscape:cx="413.39986"
     inkscape:cy="868.67727"
     inkscape:document-units="px"
     inkscape:current-layer="layer1"
     showgrid="true"
     inkscape:snap-grids="true"
     inkscape:snap-object-midpoints="true"
     inkscape:object-paths="false"
     inkscape:object-nodes="false"
     inkscape:snap-global="true"
     inkscape:window-width="1918"
     inkscape:window-height="1062"
     inkscape:window-x="0"
     inkscape:window-y="0"
     inkscape:window-maximized="0"
     inkscape:snap-nodes="true"
     inkscape:snap-bbox="false"
     inkscape:bbox-paths="false"
     inkscape:snap-to-guides="false">
    <inkscape:grid
       spacingy="1mm"
       spacingx="1mm"
       units="mm"
       snapvisiblegridlinesonly="true"
       enabled="true"
       visible="true"
       empspacing="5"
       id="grid10521"
       type="xygrid" />
  </sodipodi:namedview>
  <defs
     id="defs6513" />
  <metadata
     id="metadata6516">
    <rdf:RDF>
      <cc:Work
         rdf:about="">
        <dc:format>image/svg+xml</dc:format>
        <dc:type
           rdf:resource="http://purl.org/dc/dcmitype/StillImage" />
        <dc:title />
      </cc:Work>
    </rdf:RDF>
  </metadata>
  <g
     id="layer1"
     inkscape:groupmode="layer"
     inkscape:label="Layer 1">
    <path
       sodipodi:nodetypes="czc"
       inkscape:connector-curvature="0"
       id="path11777"
       d="m 389.76378,148.81888 c 0,0 34.25987,-71.388144 81.49606,-70.866146 47.23619,0.521997 77.95276,70.866146 77.95276,70.866146"
       style="fill:none;stroke:#ff4c02;stroke-width:2.83464567;stroke-miterlimit:4;stroke-opacity:1;stroke-dasharray:none;stroke-dashoffset:0" />
    <path
       sodipodi:nodetypes="czc"
       inkscape:connector-curvature="0"
       id="path11775"
       d="m 389.76378,148.81888 c 0,0 13.16916,-35.43308 53.14961,-35.43308 39.98045,0 53.1496,35.43308 53.1496,35.43308"
       style="fill:none;stroke:#ff14e8;stroke-width:0.70866143999999998;stroke-miterlimit:4;stroke-opacity:1;stroke-dasharray:none;stroke-dashoffset:0" />
    <path
       style="fill:none;stroke:#14ffff;stroke-width:0.70866143999999998;stroke-miterlimit:4;stroke-opacity:1;stroke-dasharray:none;stroke-dashoffset:0"
       d="m 496.06299,148.81888 c 0,0 6.56889,-17.71654 28.34646,-17.71654 21.77757,0 24.80315,17.71654 24.80315,17.71654"
       id="path11773"
       inkscape:connector-curvature="0"
       sodipodi:nodetypes="czc" />
    <path
       style="fill:none;stroke:#ffd514;stroke-width:0.70866143999999998;stroke-miterlimit:4;stroke-opacity:1;stroke-dasharray:none;stroke-dashoffset:0"
       d="m 442.91339,148.81888 c 0,0 13.16916,-35.43308 53.14961,-35.43308 39.98045,0 53.1496,35.43308 53.1496,35.43308"
       id="path11781"
       inkscape:connector-curvature="0"
       sodipodi:nodetypes="czc" />
    <path
       sodipodi:nodetypes="czc"
       inkscape:connector-curvature="0"
       id="path11771"
       d="m 389.76378,148.81888 c 0,0 6.56889,-17.71654 28.34646,-17.71654 21.77757,0 24.80315,17.71654 24.80315,17.71654"
       style="fill:none;stroke:#21c000;stroke-width:0.70866143999999998;stroke-miterlimit:4;stroke-opacity:1;stroke-dasharray:none;stroke-dashoffset:0" />
    <path
       style="fill:#ff4c02;fill-opacity:1;stroke:#14ffff;stroke-width:0.70866143999999998;stroke-miterlimit:4;stroke-opacity:1;stroke-dasharray:none;stroke-dashoffset:0"
       d="m 141.73228,201.96848 70.86615,-53.1496"
       id="path11991"
       inkscape:connector-curvature="0" />
    <path
       style="fill:#ff4c02;fill-opacity:1;stroke:#ff14e8;stroke-width:0.70866143999999998;stroke-miterlimit:4;stroke-opacity:1;stroke-dasharray:none;stroke-dashoffset:0"
       d="m 70.866142,148.81888 70.866138,53.1496"
       id="path11989"
       inkscape:connector-curvature="0" />
    <path
       style="fill:#ff4c02;fill-opacity:1;stroke:#ffd514;stroke-width:0.70866143999999998;stroke-miterlimit:4;stroke-opacity:1;stroke-dasharray:none;stroke-dashoffset:0"
       d="m 141.73228,95.669269 70.86615,53.149611"
       id="path11987"
       inkscape:connector-curvature="0" />
    <path
       style="fill:#ff4c02;fill-opacity:1;stroke:#21c000;stroke-width:0.70866141999999999;stroke-miterlimit:4;stroke-opacity:1;stroke-dasharray:none;stroke-dashoffset:0"
       d="M 70.866142,148.81888 141.73228,95.669269"
       id="path11985"
       inkscape:connector-curvature="0" />
    <path
       sodipodi:nodetypes="cc"
       inkscape:connector-curvature="0"
       id="path10517"
       d="m 70.866142,148.81888 141.732288,0"
       style="fill:none;stroke:#ff4c02;stroke-opacity:1;stroke-width:2.83464567000000001;stroke-miterlimit:4;stroke-dasharray:none" />
    <path
       style="fill:none;stroke:#3674ff;stroke-width:5.66929134;stroke-miterlimit:4;stroke-opacity:1;stroke-dasharray:none;stroke-dashoffset:0"
       d="m 549.2126,148.81888 c 0,0 34.25987,-35.95507 81.49606,-35.43308 47.23619,0.522 77.95276,35.43308 77.95276,35.43308"
       id="path11779"
       inkscape:connector-curvature="0"
       sodipodi:nodetypes="czc" />
    <path
       inkscape:connector-curvature="0"
       id="path10527"
       d="m 212.59843,148.81888 70.86614,0"
       style="fill:none;stroke:#3674ff;stroke-width:5.66929134000000001;stroke-miterlimit:4;stroke-opacity:1;stroke-dasharray:none;stroke-dashoffset:0" />
    <path
       sodipodi:type="arc"
       style="fill:#000000;fill-opacity:1;stroke:none;stroke-width:1.00097167;marker-mid:none;display:inline"
       id="path3761"
       sodipodi:cx="120.71429"
       sodipodi:cy="165.93361"
       sodipodi:rx="11.428572"
       sodipodi:ry="11.428572"
       d="m 132.14286,165.93361 a 11.428572,11.428572 0 1 1 -22.85714,0 11.428572,11.428572 0 1 1 22.85714,0 z"
       transform="matrix(0.2597476,0,0,0.2597476,110.37704,52.568413)" />
    <path
       transform="matrix(0.2597476,0,0,0.2597476,39.510895,105.71802)"
       d="m 132.14286,165.93361 a 11.428572,11.428572 0 1 1 -22.85714,0 11.428572,11.428572 0 1 1 22.85714,0 z"
       sodipodi:ry="11.428572"
       sodipodi:rx="11.428572"
       sodipodi:cy="165.93361"
       sodipodi:cx="120.71429"
       id="path2985"
       style="fill:#000000;fill-opacity:1;stroke:#000000;stroke-width:15.39956474;stroke-miterlimit:4;stroke-opacity:1;stroke-dasharray:none;marker-mid:none;display:inline"
       sodipodi:type="arc" />
    <path
       sodipodi:type="arc"
       style="fill:#000000;fill-opacity:1;stroke:none;stroke-width:1.00097167;marker-mid:none;display:inline"
       id="path10511"
       sodipodi:cx="120.71429"
       sodipodi:cy="165.93361"
       sodipodi:rx="11.428572"
       sodipodi:ry="11.428572"
       d="m 132.14286,165.93361 a 11.428572,11.428572 0 1 1 -22.85714,0 11.428572,11.428572 0 1 1 22.85714,0 z"
       transform="matrix(0.2597476,0,0,0.2597476,109.80227,158.86763)" />
    <path
       sodipodi:type="arc"
       style="fill:#000000;fill-opacity:1;stroke:none;stroke-width:1.00097167;marker-mid:none;display:inline"
       id="path10513"
       sodipodi:cx="120.71429"
       sodipodi:cy="165.93361"
       sodipodi:rx="11.428572"
       sodipodi:ry="11.428572"
       d="m 132.14286,165.93361 a 11.428572,11.428572 0 1 1 -22.85714,0 11.428572,11.428572 0 1 1 22.85714,0 z"
       transform="matrix(0.2597476,0,0,0.2597476,181.24318,105.71802)" />
    <path
       sodipodi:type="arc"
       style="fill:#000000;fill-opacity:1;stroke:#000000;stroke-width:15.39956474;stroke-miterlimit:4;stroke-opacity:1;stroke-dasharray:none;marker-mid:none;display:inline"
       id="path10515"
       sodipodi:cx="120.71429"
       sodipodi:cy="165.93361"
       sodipodi:rx="11.428572"
       sodipodi:ry="11.428572"
       d="m 132.14286,165.93361 a 11.428572,11.428572 0 1 1 -22.85714,0 11.428572,11.428572 0 1 1 22.85714,0 z"
       transform="matrix(0.2597476,0,0,0.2597476,252.10932,105.71802)" />
    <text
       sodipodi:linespacing="125%"
       id="text6348"
       y="118.47544"
       x="92.662155"
       style="font-size:17.27999878px;font-style:normal;font-variant:normal;font-weight:normal;font-stretch:normal;text-align:start;line-height:125%;letter-spacing:0px;word-spacing:0px;writing-mode:lr-tb;text-anchor:start;fill:#000000;fill-opacity:1;stroke:none;display:inline;font-family:Latin Modern Math;-inkscape-font-specification:Latin Modern Math"
       xml:space="preserve"><tspan
         y="118.47544"
         x="92.662155"
         id="tspan6350"
         sodipodi:role="line">1</tspan></text>
    <text
       xml:space="preserve"
       style="font-size:17.27999878px;font-style:normal;font-variant:normal;font-weight:normal;font-stretch:normal;text-align:start;line-height:125%;letter-spacing:0px;word-spacing:0px;writing-mode:lr-tb;text-anchor:start;fill:#000000;fill-opacity:1;stroke:none;display:inline;font-family:Latin Modern Math;-inkscape-font-specification:Latin Modern Math"
       x="178.79977"
       y="116.74913"
       id="text10919"
       sodipodi:linespacing="125%"><tspan
         sodipodi:role="line"
         id="tspan10921"
         x="178.79977"
         y="116.74913">1</tspan></text>
    <text
       sodipodi:linespacing="125%"
       id="text10923"
       y="195.10083"
       x="94.860703"
       style="font-size:17.27999878px;font-style:normal;font-variant:normal;font-weight:normal;font-stretch:normal;text-align:start;line-height:125%;letter-spacing:0px;word-spacing:0px;writing-mode:lr-tb;text-anchor:start;fill:#000000;fill-opacity:1;stroke:none;display:inline;font-family:Latin Modern Math;-inkscape-font-specification:Latin Modern Math"
       xml:space="preserve"><tspan
         y="195.10083"
         x="94.860703"
         id="tspan10925"
         sodipodi:role="line">1</tspan></text>
    <text
       xml:space="preserve"
       style="font-size:17.27999878px;font-style:normal;font-variant:normal;font-weight:normal;font-stretch:normal;text-align:start;line-height:125%;letter-spacing:0px;word-spacing:0px;writing-mode:lr-tb;text-anchor:start;fill:#000000;fill-opacity:1;stroke:none;display:inline;font-family:Latin Modern Math;-inkscape-font-specification:Latin Modern Math"
       x="184.18231"
       y="189.545"
       id="text10927"
       sodipodi:linespacing="125%"><tspan
         sodipodi:role="line"
         id="tspan10929"
         x="184.18231"
         y="189.545">1</tspan></text>
    <text
       sodipodi:linespacing="125%"
       id="text10931"
       y="144.9888"
       x="135.22835"
       style="font-size:17.27999877999999967px;font-style:normal;font-variant:normal;font-weight:normal;font-stretch:normal;text-align:start;line-height:125%;letter-spacing:0px;word-spacing:0px;writing-mode:lr-tb;text-anchor:start;fill:#ff4c02;fill-opacity:1;stroke:none;display:inline;font-family:Latin Modern Math;-inkscape-font-specification:Latin Modern Math"
       xml:space="preserve"><tspan
         y="144.9888"
         x="135.22835"
         id="tspan10933"
         sodipodi:role="line">2</tspan></text>
    <text
       xml:space="preserve"
       style="font-size:17.27999877999999967px;font-style:normal;font-variant:normal;font-weight:normal;font-stretch:normal;text-align:start;line-height:125%;letter-spacing:0px;word-spacing:0px;writing-mode:lr-tb;text-anchor:start;fill:#3674ff;fill-opacity:1;stroke:none;display:inline;font-family:Latin Modern Math;-inkscape-font-specification:Latin Modern Math"
       x="243.83568"
       y="141.95834"
       id="text10935"
       sodipodi:linespacing="125%"><tspan
         sodipodi:role="line"
         id="tspan10937"
         x="243.83568"
         y="141.95834">4</tspan></text>
    <path
       inkscape:connector-curvature="0"
       id="path10939"
       d="m 389.76378,148.81888 318.89764,0"
       style="fill:none;stroke:#000000;stroke-width:0.35433072;stroke-miterlimit:4;stroke-opacity:1;stroke-dasharray:2.83464575,2.83464575;stroke-dashoffset:0" />
    <path
       sodipodi:type="arc"
       style="fill:#000000;fill-opacity:1;stroke:#000000;stroke-width:15.39956474;stroke-miterlimit:4;stroke-opacity:1;stroke-dasharray:none;marker-mid:none;display:inline"
       id="path10941"
       sodipodi:cx="120.71429"
       sodipodi:cy="165.93361"
       sodipodi:rx="11.428572"
       sodipodi:ry="11.428572"
       d="m 132.14286,165.93361 a 11.428572,11.428572 0 1 1 -22.85714,0 11.428572,11.428572 0 1 1 22.85714,0 z"
       transform="matrix(0.2597476,0,0,0.2597476,358.40853,105.71802)" />
    <path
       transform="matrix(0.2597476,0,0,0.2597476,677.30617,105.71802)"
       d="m 132.14286,165.93361 a 11.428572,11.428572 0 1 1 -22.85714,0 11.428572,11.428572 0 1 1 22.85714,0 z"
       sodipodi:ry="11.428572"
       sodipodi:rx="11.428572"
       sodipodi:cy="165.93361"
       sodipodi:cx="120.71429"
       id="path10943"
       style="fill:#000000;fill-opacity:1;stroke:#000000;stroke-width:15.39956474;stroke-miterlimit:4;stroke-opacity:1;stroke-dasharray:none;marker-mid:none;display:inline"
       sodipodi:type="arc" />
    <path
       transform="matrix(0.2597476,0,0,0.2597476,411.55814,105.71802)"
       d="m 132.14286,165.93361 a 11.428572,11.428572 0 1 1 -22.85714,0 11.428572,11.428572 0 1 1 22.85714,0 z"
       sodipodi:ry="11.428572"
       sodipodi:rx="11.428572"
       sodipodi:cy="165.93361"
       sodipodi:cx="120.71429"
       id="path10945"
       style="fill:#000000;fill-opacity:1;stroke:none;stroke-width:1.00097167;marker-mid:none;display:inline"
       sodipodi:type="arc" />
    <path
       sodipodi:type="arc"
       style="fill:#000000;fill-opacity:1;stroke:none;stroke-width:1.00097167;marker-mid:none;display:inline"
       id="path10947"
       sodipodi:cx="120.71429"
       sodipodi:cy="165.93361"
       sodipodi:rx="11.428572"
       sodipodi:ry="11.428572"
       d="m 132.14286,165.93361 a 11.428572,11.428572 0 1 1 -22.85714,0 11.428572,11.428572 0 1 1 22.85714,0 z"
       transform="matrix(0.2597476,0,0,0.2597476,517.85735,105.71802)" />
    <path
       transform="matrix(0.2597476,0,0,0.2597476,464.70775,105.71802)"
       d="m 132.14286,165.93361 a 11.428572,11.428572 0 1 1 -22.85714,0 11.428572,11.428572 0 1 1 22.85714,0 z"
       sodipodi:ry="11.428572"
       sodipodi:rx="11.428572"
       sodipodi:cy="165.93361"
       sodipodi:cx="120.71429"
       id="path10949"
       style="fill:#000000;fill-opacity:1;stroke:none;stroke-width:1.00097167;marker-mid:none;display:inline"
       sodipodi:type="arc" />
    <g
       id="g11086"
       transform="matrix(1.2317132,1.9205956,1.9205956,-1.2317132,-1245.7706,604.51693)"
       xml:space="preserve"
       stroke-miterlimit="10.433"
       font-style="normal"
       font-variant="normal"
       font-weight="normal"
       font-stretch="normal"
       font-size-adjust="none"
       letter-spacing="normal"
       word-spacing="normal"
       ns0:text="$y_s=0$"
       ns0:preamble=""
       style="font-style:normal;font-variant:normal;font-weight:normal;font-stretch:normal;letter-spacing:normal;word-spacing:normal;text-anchor:start;fill:none;stroke:#000000;stroke-linecap:butt;stroke-linejoin:miter;stroke-miterlimit:10.43299961;stroke-opacity:1;stroke-dasharray:none;stroke-dashoffset:0;display:inline"><path
         style="fill:#000000;stroke-width:0"
         inkscape:connector-curvature="0"
         d="m 228.27,710.91 0,0.01 0,0 0,0.01 0,0 0.01,0.02 0,0.01 0,0.01 0.01,0.01 0,0.01 0,0 0,0.01 0,0.01 0.01,0.01 0,0.01 0,0 0,0.01 0,0 0,0.01 0,0.01 0,0 0,0.01 0,0 0.01,0.01 0,0.01 0,0.01 0,0.01 0,0.01 0,0.01 0,0 0,0.01 c 0,0.18 -0.14,0.27 -0.29,0.27 -0.1,0 -0.26,-0.06 -0.35,-0.21 -0.02,-0.05 -0.1,-0.36 -0.14,-0.54 -0.07,-0.26 -0.14,-0.52 -0.2,-0.79 l -0.45,-1.79 c -0.03,-0.15 -0.46,-0.85 -1.12,-0.85 -0.51,0 -0.62,0.44 -0.62,0.81 0,0.46 0.17,1.07 0.51,1.95 0.16,0.4 0.2,0.51 0.2,0.71 0,0.45 -0.32,0.82 -0.82,0.82 -0.94,0 -1.31,-1.44 -1.31,-1.53 0,-0.1 0.1,-0.1 0.12,-0.1 0.1,0 0.11,0.02 0.16,0.18 0.27,0.93 0.67,1.23 1,1.23 0.08,0 0.25,0 0.25,-0.32 0,-0.25 -0.1,-0.51 -0.17,-0.7 -0.39,-1.05 -0.57,-1.62 -0.57,-2.08 0,-0.89 0.62,-1.18 1.21,-1.18 0.39,0 0.73,0.16 1.01,0.44 -0.13,-0.51 -0.25,-1 -0.65,-1.53 -0.26,-0.34 -0.64,-0.62 -1.1,-0.62 -0.13,0 -0.58,0.03 -0.75,0.41 0.16,0 0.29,0 0.43,0.12 0.1,0.09 0.19,0.22 0.19,0.41 0,0.31 -0.26,0.35 -0.36,0.35 -0.23,0 -0.56,-0.16 -0.56,-0.65 0,-0.49 0.44,-0.86 1.05,-0.86 1.03,0 2.05,0.9 2.33,2.02 z"
         id="path11088" /><path
         style="fill:#000000;stroke-width:0"
         inkscape:connector-curvature="0"
         d="m 231.32,708.25 -0.02,-0.01 -0.01,0 -0.02,-0.01 -0.02,0 -0.01,-0.01 -0.02,-0.01 -0.01,-0.01 -0.01,0 -0.02,-0.01 -0.01,-0.01 -0.01,-0.01 -0.01,-0.01 -0.01,-0.01 -0.02,-0.01 -0.01,-0.01 -0.01,-0.01 0,-0.01 -0.01,-0.01 -0.01,-0.02 -0.01,-0.01 -0.01,-0.01 0,-0.01 -0.01,-0.01 0,-0.02 -0.01,-0.01 0,-0.01 -0.01,-0.02 0,-0.01 0,-0.01 0,-0.01 0,-0.02 0,-0.01 c 0,-0.16 0.13,-0.22 0.23,-0.22 0.07,0 0.33,0.04 0.33,0.39 0,0.45 -0.5,0.61 -0.93,0.61 -1.08,0 -1.28,-0.8 -1.28,-1.02 0,-0.26 0.15,-0.42 0.25,-0.51 0.18,-0.13 0.3,-0.16 0.78,-0.25 0.15,-0.02 0.6,-0.11 0.6,-0.45 0,-0.12 -0.08,-0.39 -0.37,-0.56 -0.27,-0.15 -0.62,-0.15 -0.7,-0.15 -0.28,0 -0.68,0.06 -0.84,0.29 0.23,0.03 0.39,0.2 0.39,0.4 0,0.17 -0.13,0.25 -0.28,0.25 -0.2,0 -0.4,-0.16 -0.4,-0.46 0,-0.42 0.45,-0.68 1.12,-0.68 1.28,0 1.52,0.88 1.52,1.15 0,0.64 -0.7,0.76 -0.96,0.81 -0.06,0.02 -0.24,0.04 -0.28,0.06 -0.26,0.05 -0.38,0.19 -0.38,0.35 0,0.16 0.12,0.34 0.28,0.44 0.18,0.12 0.43,0.13 0.55,0.13 0.14,0 0.5,-0.02 0.66,-0.25 z"
         id="path11090" /><path
         style="fill:#000000;stroke-width:0"
         inkscape:connector-curvature="0"
         d="m 242.18,710.37 0.03,0 0.02,0 0.03,0 0.02,0.01 0.01,0 0.02,0 0.01,0 0.02,0 0.01,0 0.01,0.01 0.02,0 0.01,0 0.01,0.01 0.01,0 0.02,0.01 0.01,0 0.01,0.01 0.01,0.01 0.01,0.01 0.01,0.01 0,0.01 0.01,0 0,0.01 0,0 0.01,0.01 0,0.01 0,0 0,0.01 0.01,0.01 0,0 0,0.01 0,0.01 0,0.01 0,0.01 0,0 0,0.01 0,0.01 c 0,0.2 -0.18,0.2 -0.32,0.2 h -5.96 c -0.14,0 -0.33,0 -0.33,-0.2 0,-0.2 0.19,-0.2 0.34,-0.2 z"
         id="path11092" /><path
         style="fill:#000000;stroke-width:0"
         inkscape:connector-curvature="0"
         d="m 242.19,708.45 0.01,0 0.01,0 0.03,0 0.03,0 0.01,0 0.02,0 0.01,0 0.01,0 0.02,0 0.01,0.01 0.02,0 0.01,0 0.01,0.01 0.01,0 0.02,0.01 0.01,0 0.01,0.01 0.01,0 0.01,0.01 0.01,0.01 0.01,0.01 0,0 0,0.01 0.01,0.01 0,0 0,0.01 0.01,0 0,0.01 0,0.01 0,0 0.01,0.01 0,0.01 0,0 0,0.01 0,0.01 0,0.01 0,0.01 0,0.01 0,0.01 c 0,0.19 -0.18,0.19 -0.33,0.19 h -5.94 c -0.15,0 -0.34,0 -0.34,-0.19 0,-0.2 0.19,-0.2 0.33,-0.2 z"
         id="path11094" /><path
         style="fill:#000000;stroke-width:0"
         inkscape:connector-curvature="0"
         d="m 250.44,710.3 0,0.15 -0.01,0.15 0,0.15 -0.01,0.15 -0.01,0.15 -0.01,0.14 -0.01,0.15 -0.02,0.15 -0.02,0.14 -0.03,0.15 -0.03,0.14 -0.04,0.15 -0.05,0.14 -0.04,0.14 -0.06,0.14 -0.03,0.07 -0.03,0.07 c -0.46,0.95 -1.27,1.11 -1.69,1.11 -0.6,0 -1.33,-0.26 -1.73,-1.18 -0.32,-0.69 -0.37,-1.46 -0.37,-2.26 0,-0.74 0.04,-1.64 0.45,-2.39 0.42,-0.81 1.15,-1 1.64,-1 v 0.21 c -0.39,0 -0.98,0.25 -1.16,1.21 -0.11,0.59 -0.11,1.51 -0.11,2.09 0,0.64 0,1.29 0.08,1.83 0.19,1.18 0.94,1.27 1.19,1.27 0.33,0 0.98,-0.18 1.17,-1.16 0.1,-0.56 0.1,-1.31 0.1,-1.94 0,-0.74 0,-1.42 -0.11,-2.05 -0.15,-0.95 -0.71,-1.25 -1.16,-1.25 h 0 v -0.21 c 0.54,0 1.29,0.2 1.73,1.15 0.32,0.68 0.37,1.46 0.37,2.24 z"
         id="path11096" /></g>    <g
       style="font-style:normal;font-variant:normal;font-weight:normal;font-stretch:normal;letter-spacing:normal;word-spacing:normal;text-anchor:start;fill:none;stroke:#000000;stroke-linecap:butt;stroke-linejoin:miter;stroke-miterlimit:10.43299961;stroke-opacity:1;stroke-dasharray:none;stroke-dashoffset:0;display:inline"
       ns0:preamble=""
       ns0:text="$y_u=\\frac{1}{6}$"
       word-spacing="normal"
       letter-spacing="normal"
       font-size-adjust="none"
       font-stretch="normal"
       font-weight="normal"
       font-variant="normal"
       font-style="normal"
       stroke-miterlimit="10.433"
       xml:space="preserve"
       transform="matrix(1.2317132,1.9205956,1.9205956,-1.2317132,-1191.2224,604.01185)"
       id="g11206"><path
         id="path11208"
         d="m 228.27,710.91 0,0.01 0,0 0,0.01 0,0 0.01,0.02 0,0.01 0,0.01 0.01,0.01 0,0.01 0,0 0,0.01 0,0.01 0.01,0.01 0,0.01 0,0 0,0.01 0,0 0,0.01 0,0.01 0,0 0,0.01 0,0 0.01,0.01 0,0.01 0,0.01 0,0.01 0,0.01 0,0.01 0,0 0,0.01 c 0,0.18 -0.14,0.27 -0.29,0.27 -0.1,0 -0.26,-0.06 -0.35,-0.21 -0.02,-0.05 -0.1,-0.36 -0.14,-0.54 -0.07,-0.26 -0.14,-0.52 -0.2,-0.79 l -0.45,-1.79 c -0.03,-0.15 -0.46,-0.85 -1.12,-0.85 -0.51,0 -0.62,0.44 -0.62,0.81 0,0.46 0.17,1.07 0.51,1.95 0.16,0.4 0.2,0.51 0.2,0.71 0,0.45 -0.32,0.82 -0.82,0.82 -0.94,0 -1.31,-1.44 -1.31,-1.53 0,-0.1 0.1,-0.1 0.12,-0.1 0.1,0 0.11,0.02 0.16,0.18 0.27,0.93 0.67,1.23 1,1.23 0.08,0 0.25,0 0.25,-0.32 0,-0.25 -0.1,-0.51 -0.17,-0.7 -0.39,-1.05 -0.57,-1.62 -0.57,-2.08 0,-0.89 0.62,-1.18 1.21,-1.18 0.39,0 0.73,0.16 1.01,0.44 -0.13,-0.51 -0.25,-1 -0.65,-1.53 -0.26,-0.34 -0.64,-0.62 -1.1,-0.62 -0.13,0 -0.58,0.03 -0.75,0.41 0.16,0 0.29,0 0.43,0.12 0.1,0.09 0.19,0.22 0.19,0.41 0,0.31 -0.26,0.35 -0.36,0.35 -0.23,0 -0.56,-0.16 -0.56,-0.65 0,-0.49 0.44,-0.86 1.05,-0.86 1.03,0 2.05,0.9 2.33,2.02 z"
         inkscape:connector-curvature="0"
         style="fill:#000000;stroke-width:0" /><path
         id="path11210"
         d="m 231.26,706.76 0,-0.02 0,-0.01 -0.01,-0.01 0,-0.02 -0.01,-0.02 0,-0.01 -0.01,-0.03 -0.01,-0.04 0,-0.03 -0.01,-0.04 -0.01,-0.01 0,-0.02 0,-0.01 -0.01,-0.02 0,-0.01 -0.01,-0.02 0,-0.01 0,-0.01 -0.01,-0.01 0,-0.02 0,-0.01 -0.01,0 0,-0.01 0,-0.01 0,0 0,0 0,-0.01 -0.01,0 0,0 0,0 0,0 0,0 c -0.13,-0.22 -0.41,-0.59 -0.84,-0.59 -0.48,0 -0.48,0.45 -0.48,0.57 0,0.41 0.19,0.91 0.39,1.41 0.05,0.14 0.1,0.25 0.1,0.36 0,0.36 -0.31,0.6 -0.67,0.6 -0.69,0 -1.01,-0.96 -1.01,-1.07 0,-0.09 0.1,-0.09 0.12,-0.09 0.1,0 0.11,0.04 0.13,0.11 0.16,0.57 0.47,0.85 0.74,0.85 0.12,0 0.18,-0.07 0.18,-0.24 0,-0.16 -0.06,-0.31 -0.13,-0.47 -0.37,-0.96 -0.37,-1.16 -0.37,-1.34 0,-0.12 0,-0.44 0.25,-0.67 0.21,-0.16 0.48,-0.22 0.72,-0.22 0.44,0 0.68,0.24 0.91,0.46 0.15,-0.44 0.62,-0.46 0.7,-0.46 0.24,0 0.42,0.14 0.55,0.37 0.15,0.27 0.25,0.67 0.25,0.69 0,0.1 -0.1,0.1 -0.12,0.1 -0.09,0 -0.1,-0.03 -0.15,-0.22 -0.08,-0.33 -0.22,-0.74 -0.51,-0.74 -0.18,0 -0.23,0.16 -0.23,0.34 0,0.12 0.06,0.37 0.11,0.55 0.04,0.18 0.11,0.47 0.15,0.62 l 0.16,0.62 c 0.04,0.18 0.12,0.48 0.12,0.52 0,0.13 -0.11,0.22 -0.23,0.22 -0.26,0 -0.31,-0.2 -0.37,-0.43 z"
         inkscape:connector-curvature="0"
         style="fill:#000000;stroke-width:0" /><path
         id="path11212"
         d="m 243.13,710.37 0.03,0 0.02,0 0.03,0 0.02,0.01 0.01,0 0.02,0 0.01,0 0.02,0 0.01,0 0.01,0.01 0.02,0 0.01,0 0.01,0.01 0.01,0 0.02,0.01 0.01,0 0.01,0.01 0.01,0.01 0.01,0.01 0.01,0.01 0,0.01 0.01,0 0,0.01 0,0 0.01,0.01 0,0.01 0,0 0,0.01 0.01,0.01 0,0 0,0.01 0,0.01 0,0.01 0,0.01 0,0 0,0.01 0,0.01 c 0,0.2 -0.18,0.2 -0.32,0.2 h -5.96 c -0.14,0 -0.33,0 -0.33,-0.2 0,-0.2 0.19,-0.2 0.34,-0.2 z"
         inkscape:connector-curvature="0"
         style="fill:#000000;stroke-width:0" /><path
         id="path11214"
         d="m 243.14,708.45 0.01,0 0.01,0 0.03,0 0.03,0 0.01,0 0.02,0 0.01,0 0.01,0 0.02,0 0.01,0.01 0.02,0 0.01,0 0.01,0.01 0.01,0 0.02,0.01 0.01,0 0.01,0.01 0.01,0 0.01,0.01 0.01,0.01 0.01,0.01 0,0 0,0.01 0.01,0.01 0,0 0,0.01 0.01,0 0,0.01 0,0.01 0,0 0.01,0.01 0,0.01 0,0 0,0.01 0,0.01 0,0.01 0,0.01 0,0.01 0,0.01 c 0,0.19 -0.18,0.19 -0.33,0.19 h -5.94 c -0.15,0 -0.34,0 -0.34,-0.19 0,-0.2 0.19,-0.2 0.33,-0.2 z"
         inkscape:connector-curvature="0"
         style="fill:#000000;stroke-width:0" /><path
         id="path11216"
         d="m 250.34,715.47 0,0.01 0,0.01 0,0.01 0,0 0,0.01 0,0.01 0,0.01 0,0 0,0.01 0,0.01 -0.01,0 0,0.01 0,0 0,0.01 0,0.01 0,0 0,0.01 0,0 0,0.01 0,0.01 -0.01,0 0,0.01 -0.01,0.01 0,0 0,0.01 -0.01,0 -0.01,0.01 0,0 -0.01,0 -0.01,0.01 -0.01,0 -0.01,0 0,0 -0.01,0 0,0 -0.01,0 0,0 -0.01,0 -0.01,0 0,0 -0.01,0 -0.01,0 0,0 -0.01,0 -0.01,0 -0.01,0 -0.01,0 0,0 -0.01,0 -0.01,0 c -0.45,-0.43 -1.08,-0.44 -1.37,-0.44 v -0.25 c 0.17,0 0.63,0 1.01,0.19 v -3.54 c 0,-0.23 0,-0.32 -0.69,-0.32 h -0.27 v -0.25 c 0.13,0 0.98,0.03 1.24,0.03 0.22,0 1.1,-0.03 1.25,-0.03 v 0.25 h -0.27 c -0.69,0 -0.69,0.09 -0.69,0.32 z"
         inkscape:connector-curvature="0"
         style="fill:#000000;stroke-width:0" /><line
         id="line11218"
         y2="709.62"
         x2="251.98"
         y1="709.62"
         x1="248"
         style="stroke-width:0.398" /><path
         id="path11220"
         d="m 249.05,705.96 0,0.11 0,0.11 0.01,0.1 0,0.1 0.01,0.1 0.01,0.1 0.01,0.1 0.02,0.09 0.01,0.1 0.03,0.09 0.02,0.09 0.03,0.09 0.02,0.04 0.01,0.05 0.02,0.04 0.02,0.04 0.02,0.04 0.02,0.04 0.03,0.04 0.02,0.04 c 0.24,0.38 0.62,0.64 1.06,0.64 0.21,0 0.49,-0.06 0.63,-0.25 -0.18,-0.01 -0.32,-0.13 -0.32,-0.33 0,-0.18 0.12,-0.33 0.32,-0.33 0.21,0 0.34,0.14 0.34,0.34 0,0.41 -0.29,0.77 -0.98,0.77 -1.01,0 -2.03,-0.92 -2.03,-2.42 0,-1.8 0.85,-2.34 1.62,-2.34 0.85,0 1.58,0.65 1.58,1.56 0,0.88 -0.7,1.54 -1.51,1.54 l -0.04,-0.2 c 0.32,0 0.54,-0.12 0.71,-0.38 0.17,-0.27 0.17,-0.56 0.17,-0.96 0,-0.4 0,-0.69 -0.18,-0.96 -0.17,-0.24 -0.39,-0.38 -0.73,-0.38 h 0 c -0.35,0 -0.62,0.2 -0.77,0.51 -0.11,0.21 -0.16,0.56 -0.16,0.98 0,0.67 0.4,1.19 0.96,1.19 l 0.04,0.2 c -0.56,0 -0.87,-0.37 -1.02,-0.69 z"
         inkscape:connector-curvature="0"
         style="fill:#000000;stroke-width:0" /></g>    <g
       id="g11350"
       transform="matrix(1.2317132,1.9205956,1.9205956,-1.2317132,-1136.6742,604.01185)"
       xml:space="preserve"
       stroke="black"
       stroke-linecap="butt"
       stroke-linejoin="miter"
       stroke-miterlimit="10.433"
       stroke-dasharray="none"
       stroke-dashoffset="0"
       stroke-opacity="1"
       fill="none"
       fill-rule="evenodd"
       fill-opacity="1"
       font-style="normal"
       font-variant="normal"
       font-weight="normal"
       font-stretch="normal"
       font-size-adjust="none"
       letter-spacing="normal"
       word-spacing="normal"
       text-anchor="start"
       ns0:text="$y_v=\\frac{1}{3}$"
       ns0:preamble=""
       style="font-style:normal;font-variant:normal;font-weight:normal;font-stretch:normal;letter-spacing:normal;word-spacing:normal;text-anchor:start;fill:none;stroke:#000000;stroke-linecap:butt;stroke-linejoin:miter;stroke-miterlimit:10.43299961;stroke-opacity:1;stroke-dasharray:none;stroke-dashoffset:0;display:inline"><path
         d="M228.27,710.91 L228.27,710.92 L228.27,710.92 L228.27,710.93 L228.27,710.93 L228.28,710.95 L228.28,710.96 L228.28,710.97 L228.29,710.98 L228.29,710.99 L228.29,710.99 L228.29,711 L228.29,711.01 L228.3,711.02 L228.3,711.03 L228.3,711.03 L228.3,711.04 L228.3,711.04 L228.3,711.05 L228.3,711.06 L228.3,711.06 L228.3,711.07 L228.3,711.07 L228.31,711.08 L228.31,711.09 L228.31,711.1 L228.31,711.11 L228.31,711.12 L228.31,711.13 L228.31,711.13 L228.31,711.14 C228.31,711.32,228.17,711.41,228.02,711.41 C227.92,711.41,227.76,711.35,227.67,711.2 C227.65,711.15,227.57,710.84,227.53,710.66 C227.46,710.4,227.39,710.14,227.33,709.87 L226.88,708.08 C226.85,707.93,226.42,707.23,225.76,707.23 C225.25,707.23,225.14,707.67,225.14,708.04 C225.14,708.5,225.31,709.11,225.65,709.99 C225.81,710.39,225.85,710.5,225.85,710.7 C225.85,711.15,225.53,711.52,225.03,711.52 C224.09,711.52,223.72,710.08,223.72,709.99 C223.72,709.89,223.82,709.89,223.84,709.89 C223.94,709.89,223.95,709.91,224,710.07 C224.27,711,224.67,711.3,225,711.3 C225.08,711.3,225.25,711.3,225.25,710.98 C225.25,710.73,225.15,710.47,225.08,710.28 C224.69,709.23,224.51,708.66,224.51,708.2 C224.51,707.31,225.13,707.02,225.72,707.02 C226.11,707.02,226.45,707.18,226.73,707.46 C226.6,706.95,226.48,706.46,226.08,705.93 C225.82,705.59,225.44,705.31,224.98,705.31 C224.85,705.31,224.4,705.34,224.23,705.72 C224.39,705.72,224.52,705.72,224.66,705.84 C224.76,705.93,224.85,706.06,224.85,706.25 C224.85,706.56,224.59,706.6,224.49,706.6 C224.26,706.6,223.93,706.44,223.93,705.95 C223.93,705.46,224.37,705.09,224.98,705.09 C226.01,705.09,227.03,705.99,227.31,707.11 Z "
         stroke-width="0"
         fill="black"
         id="path11352" /><path
         d="M232.04,708.16 L232.04,708.18 L232.04,708.2 L232.03,708.23 L232.03,708.25 L232.03,708.27 L232.03,708.29 L232.03,708.31 L232.02,708.33 L232.02,708.35 L232.01,708.37 L232.01,708.39 L232.01,708.41 L232,708.42 L232,708.44 L231.99,708.46 L231.98,708.47 L231.98,708.48 L231.97,708.5 L231.97,708.51 L231.96,708.52 L231.95,708.54 L231.95,708.55 L231.94,708.56 L231.93,708.57 L231.92,708.58 L231.92,708.59 L231.9,708.6 L231.89,708.62 L231.87,708.63 L231.85,708.65 L231.84,708.66 L231.82,708.67 L231.81,708.67 L231.79,708.68 L231.78,708.69 L231.76,708.69 L231.75,708.7 L231.74,708.7 L231.73,708.7 L231.72,708.7 L231.71,708.7 L231.7,708.7 L231.7,708.7 L231.69,708.7 L231.69,708.71 C231.51,708.71,231.31,708.52,231.31,708.34 C231.31,708.22,231.38,708.16,231.43,708.12 C231.55,708.02,231.69,707.84,231.69,707.56 C231.69,707.25,231.23,705.76,230.4,705.76 C229.84,705.76,229.84,706.26,229.84,706.38 C229.84,706.7,229.96,707.08,230.22,707.73 C230.27,707.88,230.32,707.98,230.32,708.1 C230.32,708.46,230.01,708.7,229.65,708.7 C228.96,708.7,228.64,707.74,228.64,707.63 C228.64,707.54,228.74,707.54,228.76,707.54 C228.86,707.54,228.87,707.58,228.89,707.65 C229.05,708.22,229.35,708.5,229.63,708.5 C229.75,708.5,229.81,708.43,229.81,708.26 C229.81,708.1,229.75,707.95,229.68,707.79 C229.38,707.02,229.31,706.72,229.31,706.47 C229.31,705.78,229.85,705.56,230.38,705.56 C231.55,705.56,232.04,707.59,232.04,708.16 Z "
         stroke-width="0"
         fill="black"
         id="path11354" /><path
         d="M242.65,710.37 L242.68,710.37 L242.71,710.37 L242.74,710.37 L242.75,710.38 L242.77,710.38 L242.78,710.38 L242.8,710.38 L242.81,710.38 L242.82,710.38 L242.84,710.39 L242.85,710.39 L242.86,710.39 L242.88,710.4 L242.89,710.4 L242.9,710.41 L242.91,710.41 L242.92,710.42 L242.93,710.43 L242.94,710.44 L242.95,710.45 L242.96,710.46 L242.96,710.46 L242.97,710.47 L242.97,710.47 L242.97,710.48 L242.97,710.49 L242.98,710.49 L242.98,710.5 L242.98,710.51 L242.98,710.51 L242.99,710.52 L242.99,710.53 L242.99,710.54 L242.99,710.55 L242.99,710.55 L242.99,710.56 L242.99,710.57 C242.99,710.77,242.8,710.77,242.66,710.77 H236.7 C236.56,710.77,236.37,710.77,236.37,710.57 C236.37,710.37,236.56,710.37,236.71,710.37 Z "
         stroke-width="0"
         fill="black"
         id="path11356" /><path
         d="M242.66,708.45 L242.68,708.45 L242.69,708.45 L242.72,708.45 L242.74,708.45 L242.76,708.45 L242.77,708.45 L242.79,708.45 L242.8,708.45 L242.81,708.45 L242.83,708.46 L242.84,708.46 L242.85,708.46 L242.87,708.47 L242.88,708.47 L242.89,708.48 L242.9,708.48 L242.91,708.49 L242.92,708.49 L242.93,708.5 L242.94,708.51 L242.95,708.52 L242.95,708.52 L242.96,708.53 L242.96,708.54 L242.97,708.54 L242.97,708.55 L242.97,708.55 L242.97,708.56 L242.98,708.57 L242.98,708.57 L242.98,708.58 L242.98,708.59 L242.99,708.59 L242.99,708.6 L242.99,708.61 L242.99,708.62 L242.99,708.63 L242.99,708.64 L242.99,708.65 C242.99,708.84,242.8,708.84,242.65,708.84 H236.71 C236.56,708.84,236.37,708.84,236.37,708.65 C236.37,708.45,236.56,708.45,236.7,708.45 Z "
         stroke-width="0"
         fill="black"
         id="path11358" /><path
         d="M249.86,715.47 L249.86,715.48 L249.86,715.49 L249.86,715.5 L249.86,715.5 L249.86,715.51 L249.86,715.52 L249.86,715.53 L249.86,715.53 L249.86,715.54 L249.86,715.55 L249.86,715.55 L249.86,715.56 L249.86,715.56 L249.86,715.57 L249.86,715.58 L249.86,715.58 L249.86,715.59 L249.85,715.59 L249.85,715.6 L249.85,715.61 L249.85,715.61 L249.84,715.62 L249.84,715.63 L249.84,715.63 L249.83,715.64 L249.83,715.64 L249.82,715.65 L249.81,715.65 L249.8,715.65 L249.8,715.66 L249.79,715.66 L249.78,715.66 L249.77,715.66 L249.77,715.66 L249.76,715.66 L249.76,715.66 L249.75,715.66 L249.74,715.66 L249.74,715.66 L249.73,715.66 L249.72,715.66 L249.72,715.66 L249.71,715.66 L249.7,715.66 L249.7,715.66 L249.69,715.66 L249.68,715.66 L249.67,715.66 L249.66,715.66 L249.65,715.66 C249.21,715.23,248.57,715.22,248.29,715.22 V714.97 C248.46,714.97,248.91,714.97,249.3,715.16 V711.62 C249.3,711.39,249.3,711.3,248.6,711.3 H248.34 V711.05 C248.46,711.05,249.32,711.08,249.58,711.08 C249.79,711.08,250.67,711.05,250.82,711.05 V711.3 H250.56 C249.86,711.3,249.86,711.39,249.86,711.62 Z "
         stroke-width="0"
         fill="black"
         id="path11360" /><line
         x1="247.53"
         y1="709.62"
         x2="251.5"
         y2="709.62"
         stroke-width="0.398"
         id="line11362" /><path
         d="M249.43,706.01 L249.48,706.01 L249.53,706.01 L249.58,706 L249.63,706 L249.67,705.99 L249.72,705.97 L249.76,705.96 L249.81,705.94 L249.85,705.92 L249.89,705.9 L249.93,705.88 L249.96,705.85 L250,705.83 L250.04,705.8 L250.07,705.77 L250.1,705.73 L250.13,705.7 L250.16,705.66 L250.19,705.62 L250.21,705.57 L250.24,705.53 L250.26,705.48 L250.28,705.43 L250.29,705.38 L250.31,705.33 L250.32,705.27 L250.34,705.21 L250.35,705.15 L250.35,705.09 L250.36,705.03 L250.36,704.96 L250.36,704.89 C250.36,704.03,249.86,703.77,249.46,703.77 C249.18,703.77,248.57,703.85,248.27,704.26 C248.6,704.27,248.68,704.5,248.68,704.65 C248.68,704.87,248.51,705.03,248.29,705.03 C248.1,705.03,247.9,704.91,247.9,704.63 C247.9,703.97,248.63,703.55,249.47,703.55 C250.44,703.55,251.11,704.2,251.11,704.89 C251.11,705.43,250.66,705.98,249.9,706.14 C250.63,706.4,250.89,706.92,250.89,707.35 C250.89,707.9,250.26,708.31,249.49,708.31 C248.71,708.31,248.12,707.93,248.12,707.38 C248.12,707.14,248.27,707.01,248.48,707.01 C248.7,707.01,248.84,707.17,248.84,707.36 C248.84,707.56,248.7,707.71,248.48,707.72 C248.73,708.03,249.21,708.11,249.46,708.11 C249.78,708.11,250.22,707.95,250.22,707.35 C250.22,707.06,250.12,706.74,249.94,706.52 C249.71,706.26,249.51,706.24,249.17,706.22 C248.99,706.21,248.98,706.21,248.94,706.2 C248.93,706.2,248.87,706.19,248.87,706.11 C248.87,706.01,248.94,706.01,249.05,706.01 Z "
         stroke-width="0"
         fill="black"
         id="path11364" /></g>    <g
       style="font-style:normal;font-variant:normal;font-weight:normal;font-stretch:normal;letter-spacing:normal;word-spacing:normal;text-anchor:start;fill:none;stroke:#000000;stroke-linecap:butt;stroke-linejoin:miter;stroke-miterlimit:10.43299961;stroke-opacity:1;stroke-dasharray:none;stroke-dashoffset:0;display:inline"
       ns0:preamble=""
       ns0:text="$y_w=\\frac{1}{2}$"
       text-anchor="start"
       word-spacing="normal"
       letter-spacing="normal"
       font-size-adjust="none"
       font-stretch="normal"
       font-weight="normal"
       font-variant="normal"
       font-style="normal"
       fill-opacity="1"
       fill-rule="evenodd"
       fill="none"
       stroke-opacity="1"
       stroke-dashoffset="0"
       stroke-dasharray="none"
       stroke-miterlimit="10.433"
       stroke-linejoin="miter"
       stroke-linecap="butt"
       stroke="black"
       xml:space="preserve"
       transform="matrix(1.2317132,1.9205956,1.9205956,-1.2317132,-1081.1158,604.01185)"
       id="g11510"><path
         id="path11512"
         fill="black"
         stroke-width="0"
         d="M228.27,710.91 L228.27,710.92 L228.27,710.92 L228.27,710.93 L228.27,710.93 L228.28,710.95 L228.28,710.96 L228.28,710.97 L228.29,710.98 L228.29,710.99 L228.29,710.99 L228.29,711 L228.29,711.01 L228.3,711.02 L228.3,711.03 L228.3,711.03 L228.3,711.04 L228.3,711.04 L228.3,711.05 L228.3,711.06 L228.3,711.06 L228.3,711.07 L228.3,711.07 L228.31,711.08 L228.31,711.09 L228.31,711.1 L228.31,711.11 L228.31,711.12 L228.31,711.13 L228.31,711.13 L228.31,711.14 C228.31,711.32,228.17,711.41,228.02,711.41 C227.92,711.41,227.76,711.35,227.67,711.2 C227.65,711.15,227.57,710.84,227.53,710.66 C227.46,710.4,227.39,710.14,227.33,709.87 L226.88,708.08 C226.85,707.93,226.42,707.23,225.76,707.23 C225.25,707.23,225.14,707.67,225.14,708.04 C225.14,708.5,225.31,709.11,225.65,709.99 C225.81,710.39,225.85,710.5,225.85,710.7 C225.85,711.15,225.53,711.52,225.03,711.52 C224.09,711.52,223.72,710.08,223.72,709.99 C223.72,709.89,223.82,709.89,223.84,709.89 C223.94,709.89,223.95,709.91,224,710.07 C224.27,711,224.67,711.3,225,711.3 C225.08,711.3,225.25,711.3,225.25,710.98 C225.25,710.73,225.15,710.47,225.08,710.28 C224.69,709.23,224.51,708.66,224.51,708.2 C224.51,707.31,225.13,707.02,225.72,707.02 C226.11,707.02,226.45,707.18,226.73,707.46 C226.6,706.95,226.48,706.46,226.08,705.93 C225.82,705.59,225.44,705.31,224.98,705.31 C224.85,705.31,224.4,705.34,224.23,705.72 C224.39,705.72,224.52,705.72,224.66,705.84 C224.76,705.93,224.85,706.06,224.85,706.25 C224.85,706.56,224.59,706.6,224.49,706.6 C224.26,706.6,223.93,706.44,223.93,705.95 C223.93,705.46,224.37,705.09,224.98,705.09 C226.01,705.09,227.03,705.99,227.31,707.11 Z " /><path
         id="path11514"
         fill="black"
         stroke-width="0"
         d="M231.98,707.85 L231.98,707.87 L231.99,707.89 L231.99,707.91 L232,707.93 L232.01,707.95 L232.01,707.97 L232.02,708.01 L232.03,708.05 L232.04,708.1 L232.05,708.14 L232.06,708.16 L232.06,708.18 L232.07,708.21 L232.07,708.23 L232.08,708.25 L232.08,708.26 L232.09,708.28 L232.09,708.3 L232.1,708.32 L232.1,708.33 L232.1,708.34 L232.1,708.36 L232.11,708.37 L232.11,708.38 L232.11,708.39 L232.11,708.4 L232.11,708.4 L232.11,708.4 L232.11,708.4 L232.11,708.41 C232.11,708.54,232,708.63,231.88,708.63 C231.75,708.63,231.62,708.54,231.58,708.43 C231.56,708.37,231.49,708.08,231.44,707.91 C231.35,707.51,231.35,707.49,231.24,707.1 C231.15,706.72,231.14,706.67,231.13,706.47 C231.16,706.33,231.1,706.19,230.94,705.99 C230.85,705.87,230.71,705.76,230.47,705.76 C230.2,705.76,229.84,705.85,229.84,706.4 C229.84,706.75,230.04,707.27,230.18,707.62 C230.29,707.93,230.32,707.99,230.32,708.11 C230.32,708.44,230.04,708.7,229.66,708.7 C228.96,708.7,228.64,707.75,228.64,707.63 C228.64,707.54,228.74,707.54,228.76,707.54 C228.86,707.54,228.87,707.58,228.89,707.65 C229.06,708.23,229.36,708.5,229.64,708.5 C229.76,708.5,229.81,708.43,229.81,708.26 C229.81,708.1,229.75,707.95,229.72,707.86 C229.32,706.84,229.32,706.7,229.32,706.49 C229.32,705.67,230.07,705.56,230.44,705.56 C230.57,705.56,230.91,705.56,231.23,706.03 C231.39,705.71,231.77,705.56,232.2,705.56 C232.82,705.56,233.12,706.1,233.26,706.38 C233.56,706.97,233.75,707.84,233.75,708.16 C233.75,708.68,233.45,708.71,233.4,708.71 C233.22,708.71,233.02,708.52,233.02,708.34 C233.02,708.22,233.1,708.16,233.14,708.12 C233.31,707.98,233.4,707.79,233.4,707.56 C233.4,707.47,233.11,705.76,232.22,705.76 C231.66,705.76,231.66,706.26,231.66,706.38 C231.66,706.56,231.69,706.67,231.79,707.07 Z " /><path
         id="path11516"
         fill="black"
         stroke-width="0"
         d="M244.37,710.37 L244.4,710.37 L244.43,710.37 L244.45,710.37 L244.47,710.38 L244.48,710.38 L244.5,710.38 L244.51,710.38 L244.53,710.38 L244.54,710.38 L244.55,710.39 L244.57,710.39 L244.58,710.39 L244.59,710.4 L244.6,710.4 L244.62,710.41 L244.63,710.41 L244.64,710.42 L244.65,710.43 L244.66,710.44 L244.67,710.45 L244.67,710.46 L244.68,710.46 L244.68,710.47 L244.68,710.47 L244.69,710.48 L244.69,710.49 L244.69,710.49 L244.7,710.5 L244.7,710.51 L244.7,710.51 L244.7,710.52 L244.7,710.53 L244.7,710.54 L244.7,710.55 L244.71,710.55 L244.71,710.56 L244.71,710.57 C244.71,710.77,244.52,710.77,244.38,710.77 H238.42 C238.28,710.77,238.09,710.77,238.09,710.57 C238.09,710.37,238.28,710.37,238.43,710.37 Z " /><path
         id="path11518"
         fill="black"
         stroke-width="0"
         d="M244.38,708.45 L244.39,708.45 L244.4,708.45 L244.43,708.45 L244.46,708.45 L244.47,708.45 L244.49,708.45 L244.5,708.45 L244.52,708.45 L244.53,708.45 L244.54,708.46 L244.56,708.46 L244.57,708.46 L244.58,708.47 L244.59,708.47 L244.61,708.48 L244.62,708.48 L244.63,708.49 L244.64,708.49 L244.65,708.5 L244.66,708.51 L244.67,708.52 L244.67,708.52 L244.67,708.53 L244.68,708.54 L244.68,708.54 L244.68,708.55 L244.69,708.55 L244.69,708.56 L244.69,708.57 L244.7,708.57 L244.7,708.58 L244.7,708.59 L244.7,708.59 L244.7,708.6 L244.7,708.61 L244.7,708.62 L244.71,708.63 L244.71,708.64 L244.71,708.65 C244.71,708.84,244.52,708.84,244.37,708.84 H238.43 C238.28,708.84,238.09,708.84,238.09,708.65 C238.09,708.45,238.28,708.45,238.42,708.45 Z " /><path
         id="path11520"
         fill="black"
         stroke-width="0"
         d="M251.58,715.47 L251.58,715.48 L251.58,715.49 L251.58,715.5 L251.58,715.5 L251.58,715.51 L251.58,715.52 L251.58,715.53 L251.58,715.53 L251.58,715.54 L251.58,715.55 L251.58,715.55 L251.58,715.56 L251.57,715.56 L251.57,715.57 L251.57,715.58 L251.57,715.58 L251.57,715.59 L251.57,715.59 L251.57,715.6 L251.57,715.61 L251.56,715.61 L251.56,715.62 L251.56,715.63 L251.55,715.63 L251.55,715.64 L251.54,715.64 L251.53,715.65 L251.53,715.65 L251.52,715.65 L251.51,715.66 L251.5,715.66 L251.49,715.66 L251.49,715.66 L251.48,715.66 L251.48,715.66 L251.47,715.66 L251.47,715.66 L251.46,715.66 L251.45,715.66 L251.45,715.66 L251.44,715.66 L251.43,715.66 L251.43,715.66 L251.42,715.66 L251.41,715.66 L251.4,715.66 L251.4,715.66 L251.39,715.66 L251.38,715.66 L251.37,715.66 C250.92,715.23,250.29,715.22,250,715.22 V714.97 C250.17,714.97,250.63,714.97,251.01,715.16 V711.62 C251.01,711.39,251.01,711.3,250.32,711.3 H250.05 V711.05 C250.18,711.05,251.04,711.08,251.29,711.08 C251.51,711.08,252.39,711.05,252.54,711.05 V711.3 H252.27 C251.58,711.3,251.58,711.39,251.58,711.62 Z " /><line
         id="line11522"
         stroke-width="0.398"
         y2="709.62"
         x2="253.22"
         y1="709.62"
         x1="249.24" /><path
         id="path11524"
         fill="black"
         stroke-width="0"
         d="M252.76,704.96 H252.52 C252.5,704.8,252.43,704.39,252.34,704.32 C252.29,704.28,251.75,704.28,251.65,704.28 H250.37 C251.1,704.93,251.35,705.12,251.77,705.45 C252.28,705.86,252.76,706.29,252.76,706.95 C252.76,707.79,252.02,708.31,251.13,708.31 C250.27,708.31,249.68,707.7,249.68,707.06 C249.68,706.71,249.98,706.67,250.05,706.67 C250.22,706.67,250.42,706.79,250.42,707.04 C250.42,707.17,250.37,707.41,250.01,707.41 C250.23,707.9,250.7,708.06,251.03,708.06 C251.72,708.06,252.09,707.52,252.09,706.95 C252.09,706.35,251.65,705.87,251.43,705.62 L249.75,703.96 C249.68,703.9,249.68,703.89,249.68,703.69 H252.55 Z " /></g>    <g
       id="g11682"
       transform="matrix(1.2317132,1.9205956,1.9205956,-1.2317132,-921.51163,604.51693)"
       xml:space="preserve"
       stroke="black"
       stroke-linecap="butt"
       stroke-linejoin="miter"
       stroke-miterlimit="10.433"
       stroke-dasharray="none"
       stroke-dashoffset="0"
       stroke-opacity="1"
       fill="none"
       fill-rule="evenodd"
       fill-opacity="1"
       font-style="normal"
       font-variant="normal"
       font-weight="normal"
       font-stretch="normal"
       font-size-adjust="none"
       letter-spacing="normal"
       word-spacing="normal"
       text-anchor="start"
       ns0:text="$y_t=1$"
       ns0:preamble=""
       style="font-style:normal;font-variant:normal;font-weight:normal;font-stretch:normal;letter-spacing:normal;word-spacing:normal;text-anchor:start;fill:none;stroke:#000000;stroke-linecap:butt;stroke-linejoin:miter;stroke-miterlimit:10.43299961;stroke-opacity:1;stroke-dasharray:none;stroke-dashoffset:0;display:inline"><path
         d="M228.27,710.91 L228.27,710.92 L228.27,710.92 L228.27,710.93 L228.27,710.93 L228.28,710.95 L228.28,710.96 L228.28,710.97 L228.29,710.98 L228.29,710.99 L228.29,710.99 L228.29,711 L228.29,711.01 L228.3,711.02 L228.3,711.03 L228.3,711.03 L228.3,711.04 L228.3,711.04 L228.3,711.05 L228.3,711.06 L228.3,711.06 L228.3,711.07 L228.3,711.07 L228.31,711.08 L228.31,711.09 L228.31,711.1 L228.31,711.11 L228.31,711.12 L228.31,711.13 L228.31,711.13 L228.31,711.14 C228.31,711.32,228.17,711.41,228.02,711.41 C227.92,711.41,227.76,711.35,227.67,711.2 C227.65,711.15,227.57,710.84,227.53,710.66 C227.46,710.4,227.39,710.14,227.33,709.87 L226.88,708.08 C226.85,707.93,226.42,707.23,225.76,707.23 C225.25,707.23,225.14,707.67,225.14,708.04 C225.14,708.5,225.31,709.11,225.65,709.99 C225.81,710.39,225.85,710.5,225.85,710.7 C225.85,711.15,225.53,711.52,225.03,711.52 C224.09,711.52,223.72,710.08,223.72,709.99 C223.72,709.89,223.82,709.89,223.84,709.89 C223.94,709.89,223.95,709.91,224,710.07 C224.27,711,224.67,711.3,225,711.3 C225.08,711.3,225.25,711.3,225.25,710.98 C225.25,710.73,225.15,710.47,225.08,710.28 C224.69,709.23,224.51,708.66,224.51,708.2 C224.51,707.31,225.13,707.02,225.72,707.02 C226.11,707.02,226.45,707.18,226.73,707.46 C226.6,706.95,226.48,706.46,226.08,705.93 C225.82,705.59,225.44,705.31,224.98,705.31 C224.85,705.31,224.4,705.34,224.23,705.72 C224.39,705.72,224.52,705.72,224.66,705.84 C224.76,705.93,224.85,706.06,224.85,706.25 C224.85,706.56,224.59,706.6,224.49,706.6 C224.26,706.6,223.93,706.44,223.93,705.95 C223.93,705.46,224.37,705.09,224.98,705.09 C226.01,705.09,227.03,705.99,227.31,707.11 Z "
         stroke-width="0"
         fill="black"
         id="path11684" /><path
         d="M230.03,708.38 H230.74 C230.87,708.38,230.96,708.38,230.96,708.53 C230.96,708.63,230.87,708.63,230.76,708.63 H230.09 L230.35,709.66 C230.36,709.69,230.37,709.73,230.37,709.76 C230.37,709.88,230.27,709.98,230.13,709.98 C229.96,709.98,229.86,709.86,229.81,709.68 C229.76,709.5,229.85,709.84,229.54,708.63 H228.83 C228.7,708.63,228.61,708.63,228.61,708.47 C228.61,708.38,228.69,708.38,228.82,708.38 H229.48 L229.07,706.74 C229.03,706.56,228.96,706.31,228.96,706.22 C228.96,705.81,229.31,705.56,229.71,705.56 C230.48,705.56,230.92,706.53,230.92,706.62 C230.92,706.72,230.83,706.72,230.81,706.72 C230.73,706.72,230.72,706.7,230.66,706.58 C230.47,706.15,230.11,705.76,229.73,705.76 C229.59,705.76,229.49,705.85,229.49,706.1 C229.49,706.17,229.51,706.31,229.53,706.38 Z "
         stroke-width="0"
         fill="black"
         id="path11686" /><path
         d="M241.43,710.37 L241.46,710.37 L241.48,710.37 L241.51,710.37 L241.53,710.38 L241.54,710.38 L241.56,710.38 L241.57,710.38 L241.59,710.38 L241.6,710.38 L241.61,710.39 L241.63,710.39 L241.64,710.39 L241.65,710.4 L241.66,710.4 L241.68,710.41 L241.69,710.41 L241.7,710.42 L241.71,710.43 L241.72,710.44 L241.73,710.45 L241.73,710.46 L241.74,710.46 L241.74,710.47 L241.74,710.47 L241.75,710.48 L241.75,710.49 L241.75,710.49 L241.75,710.5 L241.76,710.51 L241.76,710.51 L241.76,710.52 L241.76,710.53 L241.76,710.54 L241.76,710.55 L241.76,710.55 L241.76,710.56 L241.76,710.57 C241.76,710.77,241.58,710.77,241.44,710.77 H235.48 C235.34,710.77,235.15,710.77,235.15,710.57 C235.15,710.37,235.34,710.37,235.49,710.37 Z "
         stroke-width="0"
         fill="black"
         id="path11688" /><path
         d="M241.44,708.45 L241.45,708.45 L241.46,708.45 L241.49,708.45 L241.52,708.45 L241.53,708.45 L241.55,708.45 L241.56,708.45 L241.57,708.45 L241.59,708.45 L241.6,708.46 L241.62,708.46 L241.63,708.46 L241.64,708.47 L241.65,708.47 L241.67,708.48 L241.68,708.48 L241.69,708.49 L241.7,708.49 L241.71,708.5 L241.72,708.51 L241.73,708.52 L241.73,708.52 L241.73,708.53 L241.74,708.54 L241.74,708.54 L241.74,708.55 L241.75,708.55 L241.75,708.56 L241.75,708.57 L241.75,708.57 L241.76,708.58 L241.76,708.59 L241.76,708.59 L241.76,708.6 L241.76,708.61 L241.76,708.62 L241.76,708.63 L241.76,708.64 L241.76,708.65 C241.76,708.84,241.58,708.84,241.43,708.84 H235.49 C235.34,708.84,235.15,708.84,235.15,708.65 C235.15,708.45,235.34,708.45,235.48,708.45 Z "
         stroke-width="0"
         fill="black"
         id="path11690" /><path
         d="M248.04,713.48 L248.04,713.49 L248.04,713.5 L248.04,713.52 L248.04,713.53 L248.04,713.53 L248.04,713.54 L248.04,713.55 L248.04,713.56 L248.04,713.57 L248.04,713.58 L248.03,713.59 L248.03,713.6 L248.03,713.6 L248.03,713.61 L248.03,713.62 L248.03,713.62 L248.03,713.63 L248.03,713.64 L248.03,713.65 L248.03,713.66 L248.02,713.67 L248.02,713.68 L248.02,713.69 L248.01,713.69 L248.01,713.7 L248,713.71 L248,713.71 L247.99,713.72 L247.98,713.72 L247.97,713.73 L247.97,713.73 L247.96,713.73 L247.96,713.73 L247.95,713.73 L247.95,713.73 L247.94,713.73 L247.93,713.74 L247.93,713.74 L247.92,713.74 L247.91,713.74 L247.91,713.74 L247.9,713.74 L247.89,713.74 L247.88,713.74 L247.87,713.74 L247.87,713.74 L247.86,713.74 L247.85,713.74 L247.84,713.74 L247.83,713.74 L247.82,713.74 L247.81,713.74 C247.19,713.1,246.31,713.1,246,713.1 V712.8 C246.2,712.8,246.78,712.8,247.3,713.05 V707.91 C247.3,707.55,247.27,707.43,246.37,707.43 H246.06 V707.12 C246.4,707.16,247.27,707.16,247.67,707.16 C248.07,707.16,248.93,707.16,249.28,707.12 V707.43 H248.96 C248.07,707.43,248.04,707.54,248.04,707.91 Z "
         stroke-width="0"
         fill="black"
         id="path11692" /></g>    <path
       transform="translate(-66.446984,27.084554)"
       d="m 150.57249,121.73432 a 13.259368,13.259368 0 1 1 -26.51873,0 13.259368,13.259368 0 1 1 26.51873,0 z"
       sodipodi:ry="13.259368"
       sodipodi:rx="13.259368"
       sodipodi:cy="121.73432"
       sodipodi:cx="137.31313"
       id="path13660"
       style="fill:#ffffff;fill-opacity:1;stroke:#000000;stroke-opacity:1;display:inline"
       sodipodi:type="arc" />
    <path
       sodipodi:type="arc"
       style="fill:#ffffff;fill-opacity:1;stroke:#000000;stroke-opacity:1;display:inline"
       id="path15472"
       sodipodi:cx="137.31313"
       sodipodi:cy="121.73432"
       sodipodi:rx="13.259368"
       sodipodi:ry="13.259368"
       d="m 150.57249,121.73432 a 13.259368,13.259368 0 1 1 -26.51873,0 13.259368,13.259368 0 1 1 26.51873,0 z"
       transform="translate(4.4191579,-26.065052)" />
    <path
       transform="translate(4.4191579,80.23416)"
       d="m 150.57249,121.73432 a 13.259368,13.259368 0 1 1 -26.51873,0 13.259368,13.259368 0 1 1 26.51873,0 z"
       sodipodi:ry="13.259368"
       sodipodi:rx="13.259368"
       sodipodi:cy="121.73432"
       sodipodi:cx="137.31313"
       id="path15474"
       style="fill:#ffffff;fill-opacity:1;stroke:#000000;stroke-opacity:1;display:inline"
       sodipodi:type="arc" />
    <path
       sodipodi:type="arc"
       style="fill:#ffffff;fill-opacity:1;stroke:#000000;stroke-opacity:1;display:inline"
       id="path15476"
       sodipodi:cx="137.31313"
       sodipodi:cy="121.73432"
       sodipodi:rx="13.259368"
       sodipodi:ry="13.259368"
       d="m 150.57249,121.73432 a 13.259368,13.259368 0 1 1 -26.51873,0 13.259368,13.259368 0 1 1 26.51873,0 z"
       transform="translate(75.2853,27.084554)" />
    <path
       transform="translate(146.15144,27.084554)"
       d="m 150.57249,121.73432 a 13.259368,13.259368 0 1 1 -26.51873,0 13.259368,13.259368 0 1 1 26.51873,0 z"
       sodipodi:ry="13.259368"
       sodipodi:rx="13.259368"
       sodipodi:cy="121.73432"
       sodipodi:cx="137.31313"
       id="path15478"
       style="fill:#ffffff;fill-opacity:1;stroke:#000000;stroke-opacity:1;display:inline"
       sodipodi:type="arc"
       inkscape:transform-center-y="-17.716535" />
    <g
       style="font-style:normal;font-variant:normal;font-weight:normal;font-stretch:normal;letter-spacing:normal;word-spacing:normal;text-anchor:start;fill:none;stroke:#000000;stroke-linecap:butt;stroke-linejoin:miter;stroke-miterlimit:10.43299961;stroke-opacity:1;stroke-dasharray:none;stroke-dashoffset:0;display:inline"
       ns0:preamble=""
       ns0:text="$t$"
       word-spacing="normal"
       letter-spacing="normal"
       font-size-adjust="none"
       font-stretch="normal"
       font-weight="normal"
       font-variant="normal"
       font-style="normal"
       stroke-miterlimit="10.433"
       xml:space="preserve"
       transform="matrix(2.2816233,0,0,-2.2816233,-230.32278,1769.1821)"
       id="g10721"><path
         id="path10723"
         d="m 225.48,711.1 h 0.94 c 0.2,0 0.29,0 0.29,0.2 0,0.11 -0.09,0.11 -0.27,0.11 h -0.88 c 0.36,1.41 0.41,1.61 0.41,1.67 0,0.16 -0.12,0.26 -0.29,0.26 -0.03,0 -0.31,-0.01 -0.4,-0.35 l -0.38,-1.58 h -0.94 c -0.2,0 -0.3,0 -0.3,-0.19 0,-0.12 0.08,-0.12 0.28,-0.12 h 0.88 c -0.72,-2.82 -0.76,-2.99 -0.76,-3.17 0,-0.54 0.38,-0.91 0.91,-0.91 1.02,0 1.59,1.45 1.59,1.53 0,0.1 -0.08,0.1 -0.12,0.1 -0.09,0 -0.1,-0.04 -0.15,-0.14 -0.43,-1.04 -0.96,-1.28 -1.3,-1.28 -0.2,0 -0.3,0.13 -0.3,0.46 0,0.24 0.02,0.31 0.05,0.48 z"
         inkscape:connector-curvature="0"
         style="fill:#000000;stroke-width:0" /></g>    <g
       id="g10871"
       transform="matrix(2.2816233,0,0,-2.2816233,-305.36429,1767.1058)"
       xml:space="preserve"
       stroke-miterlimit="10.433"
       font-style="normal"
       font-variant="normal"
       font-weight="normal"
       font-stretch="normal"
       font-size-adjust="none"
       letter-spacing="normal"
       word-spacing="normal"
       ns0:text="$w$"
       ns0:preamble=""
       style="font-style:normal;font-variant:normal;font-weight:normal;font-stretch:normal;letter-spacing:normal;word-spacing:normal;text-anchor:start;fill:none;stroke:#000000;stroke-linecap:butt;stroke-linejoin:miter;stroke-miterlimit:10.43299961;stroke-opacity:1;stroke-dasharray:none;stroke-dashoffset:0;display:inline"><path
         d="m 228.03,710.49 0,0.02 0.01,0.03 0,0.02 0.01,0.02 0.01,0.02 0,0.03 0.01,0.05 0.02,0.05 0.01,0.05 0.01,0.05 0.01,0.05 0.01,0.02 0,0.02 0.01,0.02 0,0.03 0.01,0.02 0,0.02 0.01,0.02 0,0.01 0.01,0.02 0,0.02 0,0.01 0,0.01 0.01,0.01 0,0.01 0,0.01 0,0.01 c 0,0.18 -0.14,0.27 -0.29,0.27 -0.12,0 -0.3,-0.08 -0.37,-0.28 -0.03,-0.07 -0.5,-1.97 -0.57,-2.23 -0.07,-0.3 -0.09,-0.47 -0.09,-0.65 0,-0.11 0,-0.13 0.01,-0.18 -0.22,-0.53 -0.52,-0.84 -0.91,-0.84 -0.8,0 -0.8,0.74 -0.8,0.91 0,0.32 0.05,0.7 0.52,1.93 0.11,0.29 0.17,0.43 0.17,0.63 0,0.45 -0.33,0.82 -0.82,0.82 -0.94,0 -1.31,-1.44 -1.31,-1.53 0,-0.1 0.1,-0.1 0.12,-0.1 0.1,0 0.11,0.02 0.16,0.18 0.27,0.92 0.66,1.23 1,1.23 0.09,0 0.25,-0.01 0.25,-0.33 0,-0.25 -0.11,-0.53 -0.18,-0.7 -0.43,-1.17 -0.55,-1.62 -0.55,-2 0,-0.91 0.66,-1.25 1.41,-1.25 0.17,0 0.64,0 1.03,0.69 0.26,-0.63 0.95,-0.69 1.25,-0.69 0.74,0 1.18,0.62 1.44,1.22 0.34,0.77 0.66,2.1 0.66,2.58 0,0.55 -0.27,0.7 -0.44,0.7 -0.25,0 -0.5,-0.26 -0.5,-0.48 0,-0.13 0.06,-0.19 0.15,-0.27 0.11,-0.11 0.36,-0.37 0.36,-0.84 0,-0.34 -0.29,-1.32 -0.55,-1.82 -0.26,-0.53 -0.6,-0.88 -1.09,-0.88 -0.47,0 -0.74,0.3 -0.74,0.87 0,0.28 0.07,0.58 0.11,0.72 z"
         id="path10873"
         inkscape:connector-curvature="0"
         style="fill:#000000;stroke-width:0" /></g>    <g
       id="g10771"
       transform="matrix(2.2816233,0,0,-2.2816233,-374.54203,1713.9562)"
       xml:space="preserve"
       stroke-miterlimit="10.433"
       font-style="normal"
       font-variant="normal"
       font-weight="normal"
       font-stretch="normal"
       font-size-adjust="none"
       letter-spacing="normal"
       word-spacing="normal"
       ns0:text="$u$"
       ns0:preamble=""
       style="font-style:normal;font-variant:normal;font-weight:normal;font-stretch:normal;letter-spacing:normal;word-spacing:normal;text-anchor:start;fill:none;stroke:#000000;stroke-linecap:butt;stroke-linejoin:miter;stroke-miterlimit:10.43299961;stroke-opacity:1;stroke-dasharray:none;stroke-dashoffset:0;display:inline"><path
         d="m 226.91,707.68 0.02,-0.04 0.01,-0.03 0.01,-0.04 0.02,-0.03 0.01,-0.04 0.02,-0.03 0.02,-0.03 0.02,-0.03 0.02,-0.03 0.02,-0.03 0.03,-0.03 0.02,-0.03 0.03,-0.02 0.02,-0.03 0.03,-0.02 0.03,-0.02 0.03,-0.03 0.03,-0.01 0.03,-0.02 0.03,-0.02 0.03,-0.02 0.04,-0.01 0.03,-0.02 0.04,-0.01 0.03,-0.01 0.04,-0.01 0.04,-0.01 0.03,0 0.04,-0.01 0.04,0 0.04,0 0.04,0 c 0.35,0 0.58,0.22 0.74,0.54 0.17,0.36 0.29,0.97 0.29,0.99 0,0.1 -0.09,0.1 -0.12,0.1 -0.09,0 -0.1,-0.05 -0.13,-0.18 -0.14,-0.56 -0.33,-1.24 -0.75,-1.24 -0.21,0 -0.31,0.13 -0.31,0.46 0,0.22 0.12,0.69 0.2,1.03 l 0.28,1.08 c 0.03,0.15 0.13,0.52 0.17,0.67 0.05,0.23 0.15,0.61 0.15,0.67 0,0.18 -0.14,0.27 -0.29,0.27 -0.05,0 -0.31,-0.01 -0.39,-0.35 -0.19,-0.73 -0.63,-2.47 -0.75,-2.99 -0.01,-0.04 -0.4,-0.84 -1.13,-0.84 -0.52,0 -0.62,0.45 -0.62,0.82 0,0.55 0.28,1.34 0.54,2.03 0.12,0.29 0.17,0.43 0.17,0.62 0,0.45 -0.32,0.82 -0.82,0.82 -0.94,0 -1.31,-1.44 -1.31,-1.53 0,-0.1 0.1,-0.1 0.12,-0.1 0.1,0 0.11,0.02 0.16,0.18 0.25,0.86 0.63,1.23 1,1.23 0.09,0 0.25,-0.01 0.25,-0.33 0,-0.24 -0.11,-0.53 -0.17,-0.68 -0.37,-0.98 -0.57,-1.6 -0.57,-2.08 0,-0.95 0.68,-1.19 1.22,-1.19 0.66,0 1.01,0.44 1.18,0.66 z"
         id="path10773"
         inkscape:connector-curvature="0"
         style="fill:#000000;stroke-width:0" /></g>    <g
       ns0:preamble=""
       ns0:text="$s$"
       word-spacing="normal"
       letter-spacing="normal"
       font-size-adjust="none"
       font-stretch="normal"
       font-weight="normal"
       font-variant="normal"
       font-style="normal"
       stroke-miterlimit="10.433"
       xml:space="preserve"
       transform="matrix(2.2816233,0,0,-2.2816233,-444.27877,1767.1058)"
       id="content"
       style="font-style:normal;font-variant:normal;font-weight:normal;font-stretch:normal;letter-spacing:normal;word-spacing:normal;text-anchor:start;fill:none;stroke:#000000;stroke-linecap:butt;stroke-linejoin:miter;stroke-miterlimit:10.43299961;stroke-opacity:1;stroke-dasharray:none;stroke-dashoffset:0;display:inline"><path
         id="path7677"
         d="m 227.32,710.84 -0.02,0 -0.03,0 -0.02,-0.01 -0.03,0 -0.02,-0.01 -0.03,-0.01 -0.02,0 -0.02,-0.01 -0.02,-0.01 -0.02,-0.01 -0.02,-0.02 -0.02,-0.01 -0.02,-0.01 -0.02,-0.02 -0.01,-0.01 -0.02,-0.02 -0.02,-0.01 -0.01,-0.02 -0.01,-0.01 -0.02,-0.02 -0.01,-0.02 -0.01,-0.02 -0.01,-0.02 -0.01,-0.02 -0.01,-0.02 0,-0.02 -0.01,-0.02 -0.01,-0.02 0,-0.02 0,-0.02 0,-0.02 0,-0.02 c 0,-0.14 0.08,-0.29 0.3,-0.29 0.22,0 0.46,0.17 0.46,0.56 0,0.45 -0.43,0.86 -1.18,0.86 -1.32,0 -1.69,-1.02 -1.69,-1.45 0,-0.78 0.74,-0.93 1.03,-0.99 0.52,-0.1 1.03,-0.21 1.03,-0.75 0,-0.26 -0.22,-1.1 -1.42,-1.1 -0.14,0 -0.9,0 -1.13,0.53 0.38,-0.05 0.63,0.25 0.63,0.53 0,0.23 -0.17,0.35 -0.37,0.35 -0.26,0 -0.56,-0.21 -0.56,-0.66 0,-0.57 0.57,-0.96 1.42,-0.96 1.61,0 2,1.2 2,1.64 0,0.36 -0.19,0.61 -0.31,0.73 -0.27,0.28 -0.55,0.33 -0.99,0.42 -0.36,0.08 -0.76,0.15 -0.76,0.59 0,0.29 0.24,0.9 1.12,0.9 0.25,0 0.74,-0.07 0.89,-0.46 z"
         inkscape:connector-curvature="0"
         style="fill:#000000;stroke-width:0" /></g>    <g
       style="font-style:normal;font-variant:normal;font-weight:normal;font-stretch:normal;letter-spacing:normal;word-spacing:normal;text-anchor:start;fill:none;stroke:#000000;stroke-linecap:butt;stroke-linejoin:miter;stroke-miterlimit:10.43299961;stroke-opacity:1;stroke-dasharray:none;stroke-dashoffset:0;display:inline"
       ns0:preamble=""
       ns0:text="$v$"
       word-spacing="normal"
       letter-spacing="normal"
       font-size-adjust="none"
       font-stretch="normal"
       font-weight="normal"
       font-variant="normal"
       font-style="normal"
       stroke-miterlimit="10.433"
       xml:space="preserve"
       transform="matrix(2.2816233,0,0,-2.2816233,-373.69783,1820.2554)"
       id="g10821"><path
         id="path10823"
         d="m 228.09,710.82 0,0.02 0,0.03 0,0.02 0,0.03 -0.01,0.02 0,0.02 0,0.02 0,0.02 -0.01,0.04 -0.01,0.04 -0.01,0.04 -0.01,0.04 -0.01,0.03 -0.01,0.03 -0.01,0.03 -0.01,0.03 -0.02,0.02 -0.01,0.03 -0.02,0.02 -0.01,0.02 -0.02,0.02 -0.02,0.02 -0.01,0.01 -0.02,0.02 -0.02,0.01 -0.02,0.01 -0.02,0.01 -0.02,0.01 -0.01,0.01 -0.02,0.01 -0.02,0 -0.02,0.01 -0.02,0 -0.01,0 -0.02,0.01 -0.02,0 c -0.25,0 -0.49,-0.26 -0.49,-0.48 0,-0.13 0.05,-0.19 0.16,-0.3 0.21,-0.2 0.34,-0.46 0.34,-0.81 0,-0.42 -0.61,-2.7 -1.77,-2.7 -0.51,0 -0.74,0.35 -0.74,0.87 0,0.56 0.27,1.28 0.58,2.1 0.07,0.17 0.12,0.31 0.12,0.5 0,0.45 -0.32,0.82 -0.82,0.82 -0.93,0 -1.31,-1.44 -1.31,-1.53 0,-0.1 0.1,-0.1 0.12,-0.1 0.1,0 0.11,0.02 0.16,0.18 0.29,1 0.71,1.23 1,1.23 0.08,0 0.25,0 0.25,-0.32 0,-0.25 -0.1,-0.52 -0.17,-0.7 -0.43,-1.15 -0.56,-1.61 -0.56,-2.03 0,-1.08 0.87,-1.23 1.33,-1.23 1.67,0 2.24,3.28 2.24,3.8 z"
         inkscape:connector-curvature="0"
         style="fill:#000000;stroke-width:0" /></g>  </g>
</svg>
