<?xml version="1.0" encoding="UTF-8" standalone="no"?>
<!-- Created with Inkscape (http://www.inkscape.org/) -->

<svg
   xmlns:ns0="http://www.iki.fi/pav/software/textext/"
   xmlns:dc="http://purl.org/dc/elements/1.1/"
   xmlns:cc="http://creativecommons.org/ns#"
   xmlns:rdf="http://www.w3.org/1999/02/22-rdf-syntax-ns#"
   xmlns:svg="http://www.w3.org/2000/svg"
   xmlns="http://www.w3.org/2000/svg"
   xmlns:sodipodi="http://sodipodi.sourceforge.net/DTD/sodipodi-0.dtd"
   xmlns:inkscape="http://www.inkscape.org/namespaces/inkscape"
   width="744.09448819"
   height="1052.3622047"
   id="svg2"
   version="1.1"
   inkscape:version="0.48.3.1 r9886"
   sodipodi:docname="SNP.svg">
  <sodipodi:namedview
     id="base"
     pagecolor="#ffffff"
     bordercolor="#666666"
     borderopacity="1.0"
     inkscape:pageopacity="0.0"
     inkscape:pageshadow="2"
     inkscape:zoom="2.8"
     inkscape:cx="322.07323"
     inkscape:cy="526.58253"
     inkscape:document-units="px"
     inkscape:current-layer="layer1"
     showgrid="true"
     inkscape:window-width="1918"
     inkscape:window-height="1062"
     inkscape:window-x="0"
     inkscape:window-y="0"
     inkscape:window-maximized="0"
     inkscape:snap-bbox="false"
     inkscape:bbox-nodes="true"
     inkscape:snap-nodes="true"
     inkscape:snap-global="true"
     inkscape:snap-grids="false">
    <inkscape:grid
       type="xygrid"
       id="grid2985"
       empspacing="5"
       visible="true"
       enabled="true"
       snapvisiblegridlinesonly="true"
       units="mm"
       spacingx="1mm"
       spacingy="1mm" />
  </sodipodi:namedview>
  <defs
     id="defs4" />
  <metadata
     id="metadata7">
    <rdf:RDF>
      <cc:Work
         rdf:about="">
        <dc:format>image/svg+xml</dc:format>
        <dc:type
           rdf:resource="http://purl.org/dc/dcmitype/StillImage" />
        <dc:title />
      </cc:Work>
    </rdf:RDF>
  </metadata>
  <g
     inkscape:label="Layer 1"
     inkscape:groupmode="layer"
     id="layer1">
    <rect
       y="488.97635"
       x="141.73228"
       height="14.181749"
       width="177.16534"
       id="rect4029"
       style="fill:#d1feb8;fill-opacity:1;stroke:#000000;stroke-width:0.42774653;stroke-linecap:butt;stroke-linejoin:round;stroke-miterlimit:4;stroke-opacity:1;stroke-dasharray:none;stroke-dashoffset:0" />
    <rect
       style="fill:#fee1b8;fill-opacity:1;stroke:#000000;stroke-width:0.42774653;stroke-linecap:butt;stroke-linejoin:round;stroke-miterlimit:4;stroke-opacity:1;stroke-dasharray:none;stroke-dashoffset:0"
       id="rect4031"
       width="177.16534"
       height="14.181749"
       x="141.73228"
       y="506.68436" />
    <path
       inkscape:connector-curvature="0"
       id="path5897"
       d="m 232.33509,525.31509 15.65736,-19.95051"
       style="fill:none;stroke:#ef0000;stroke-width:2;stroke-linecap:butt;stroke-linejoin:round;stroke-miterlimit:4;stroke-opacity:1;stroke-dasharray:none;stroke-dashoffset:0" />
    <g
       style="font-style:normal;font-variant:normal;font-weight:normal;font-stretch:normal;letter-spacing:normal;word-spacing:normal;text-anchor:start;fill:none;stroke:#000000;stroke-linecap:butt;stroke-linejoin:miter;stroke-miterlimit:10.43299961;stroke-opacity:1;stroke-dasharray:none;stroke-dashoffset:0"
       id="g4025"
       transform="matrix(1.4713029,0,0,-1.4713029,-113.29585,1203.656)"
       xml:space="preserve"
       stroke-miterlimit="10.433"
       font-style="normal"
       font-variant="normal"
       font-weight="normal"
       font-stretch="normal"
       font-size-adjust="none"
       letter-spacing="normal"
       word-spacing="normal"
       ns0:text="$A$"
       ns0:preamble="/home/kralovic/Research-Zurich/OnlineAlgorithms/HighProbability/fig/header.tex">
<path
   style="fill:#000000;stroke-width:0"
   inkscape:connector-curvature="0"
   d="m 225.21,478.38 -0.03,-0.06 -0.04,-0.06 -0.04,-0.06 -0.04,-0.05 -0.03,-0.05 -0.04,-0.04 -0.04,-0.05 -0.03,-0.04 -0.04,-0.04 -0.04,-0.04 -0.04,-0.03 -0.03,-0.03 -0.04,-0.03 -0.04,-0.03 -0.04,-0.02 -0.03,-0.03 -0.04,-0.02 -0.04,-0.02 -0.04,-0.02 -0.04,-0.02 -0.03,-0.01 -0.04,-0.01 -0.04,-0.02 -0.04,-0.01 -0.04,-0.01 -0.04,-0.01 -0.04,0 -0.04,-0.01 -0.08,-0.01 -0.08,-0.01 c -0.12,-0.01 -0.21,-0.01 -0.21,-0.2 0,-0.05 0.05,-0.11 0.13,-0.11 0.27,0 0.58,0.04 0.85,0.04 0.33,0 0.68,-0.04 1,-0.04 0.06,0 0.19,0 0.19,0.19 0,0.11 -0.09,0.12 -0.16,0.12 -0.23,0.02 -0.47,0.1 -0.47,0.35 0,0.12 0.06,0.23 0.14,0.37 l 0.76,1.27 h 2.49 l -0.03,0.31 h -2.27 l 1.96,3.28 0.31,-3.28 0.03,-0.31 c 0.03,-0.21 0.16,-1.56 0.16,-1.66 0,-0.3 -0.51,-0.33 -0.71,-0.33 -0.14,0 -0.24,0 -0.24,-0.2 0,-0.11 0.12,-0.11 0.14,-0.11 0.41,0 0.83,0.04 1.24,0.04 0.25,0 0.88,-0.04 1.13,-0.04 0.06,0 0.17,0 0.17,0.2 0,0.11 -0.09,0.11 -0.22,0.11 -0.62,0 -0.62,0.07 -0.65,0.36 l -0.61,6.21 c -0.02,0.2 -0.02,0.24 -0.19,0.24 -0.16,0 -0.19,-0.07 -0.25,-0.17 z"
   id="path4027" />
</g>    <rect
       style="fill:#d1feb8;fill-opacity:1;stroke:#000000;stroke-width:0.35796461;stroke-linecap:butt;stroke-linejoin:round;stroke-miterlimit:4;stroke-opacity:1;stroke-dasharray:none;stroke-dashoffset:0"
       id="rect2987"
       width="124.07548"
       height="14.181749"
       x="194.82216"
       y="418.1102" />
    <g
       ns0:preamble="/home/kralovic/Research-Zurich/OnlineAlgorithms/HighProbability/fig/header.tex"
       ns0:text="$A$"
       word-spacing="normal"
       letter-spacing="normal"
       font-size-adjust="none"
       font-stretch="normal"
       font-weight="normal"
       font-variant="normal"
       font-style="normal"
       stroke-miterlimit="10.433"
       xml:space="preserve"
       transform="matrix(1.4713029,0,0,-1.4713029,-113.29585,1132.5888)"
       id="content"
       style="font-style:normal;font-variant:normal;font-weight:normal;font-stretch:normal;letter-spacing:normal;word-spacing:normal;text-anchor:start;fill:none;stroke:#000000;stroke-linecap:butt;stroke-linejoin:miter;stroke-miterlimit:10.43299961;stroke-opacity:1;stroke-dasharray:none;stroke-dashoffset:0">
<path
   id="path3101"
   d="m 225.21,478.38 -0.03,-0.06 -0.04,-0.06 -0.04,-0.06 -0.04,-0.05 -0.03,-0.05 -0.04,-0.04 -0.04,-0.05 -0.03,-0.04 -0.04,-0.04 -0.04,-0.04 -0.04,-0.03 -0.03,-0.03 -0.04,-0.03 -0.04,-0.03 -0.04,-0.02 -0.03,-0.03 -0.04,-0.02 -0.04,-0.02 -0.04,-0.02 -0.04,-0.02 -0.03,-0.01 -0.04,-0.01 -0.04,-0.02 -0.04,-0.01 -0.04,-0.01 -0.04,-0.01 -0.04,0 -0.04,-0.01 -0.08,-0.01 -0.08,-0.01 c -0.12,-0.01 -0.21,-0.01 -0.21,-0.2 0,-0.05 0.05,-0.11 0.13,-0.11 0.27,0 0.58,0.04 0.85,0.04 0.33,0 0.68,-0.04 1,-0.04 0.06,0 0.19,0 0.19,0.19 0,0.11 -0.09,0.12 -0.16,0.12 -0.23,0.02 -0.47,0.1 -0.47,0.35 0,0.12 0.06,0.23 0.14,0.37 l 0.76,1.27 h 2.49 l -0.03,0.31 h -2.27 l 1.96,3.28 0.31,-3.28 0.03,-0.31 c 0.03,-0.21 0.16,-1.56 0.16,-1.66 0,-0.3 -0.51,-0.33 -0.71,-0.33 -0.14,0 -0.24,0 -0.24,-0.2 0,-0.11 0.12,-0.11 0.14,-0.11 0.41,0 0.83,0.04 1.24,0.04 0.25,0 0.88,-0.04 1.13,-0.04 0.06,0 0.17,0 0.17,0.2 0,0.11 -0.09,0.11 -0.22,0.11 -0.62,0 -0.62,0.07 -0.65,0.36 l -0.61,6.21 c -0.02,0.2 -0.02,0.24 -0.19,0.24 -0.16,0 -0.19,-0.07 -0.25,-0.17 z"
   inkscape:connector-curvature="0"
   style="fill:#000000;stroke-width:0" />
</g>    <g
       id="g3123"
       transform="matrix(1.4713029,0,0,-1.4713029,-95.267924,1132.346)"
       xml:space="preserve"
       stroke-miterlimit="10.433"
       font-style="normal"
       font-variant="normal"
       font-weight="normal"
       font-stretch="normal"
       font-size-adjust="none"
       letter-spacing="normal"
       word-spacing="normal"
       ns0:text="$B$"
       ns0:preamble="/home/kralovic/Research-Zurich/OnlineAlgorithms/HighProbability/fig/header.tex"
       style="font-style:normal;font-variant:normal;font-weight:normal;font-stretch:normal;letter-spacing:normal;word-spacing:normal;text-anchor:start;fill:none;stroke:#000000;stroke-linecap:butt;stroke-linejoin:miter;stroke-miterlimit:10.43299961;stroke-opacity:1;stroke-dasharray:none;stroke-dashoffset:0">
<path
   style="fill:#000000;stroke-width:0"
   inkscape:connector-curvature="0"
   d="m 225.02,478.01 -0.01,-0.04 0,-0.03 -0.01,-0.03 -0.01,-0.03 -0.01,-0.03 -0.01,-0.03 -0.01,-0.02 -0.01,-0.03 -0.01,-0.02 -0.01,-0.02 -0.02,-0.02 -0.01,-0.02 -0.01,-0.02 -0.02,-0.01 -0.02,-0.02 -0.02,-0.01 -0.02,-0.01 -0.03,-0.01 -0.03,-0.01 -0.03,-0.01 -0.03,-0.01 -0.02,0 -0.01,-0.01 -0.02,0 -0.02,0 -0.02,-0.01 -0.02,0 -0.02,0 -0.03,0 -0.02,-0.01 -0.03,0 -0.02,0 -0.03,0 -0.02,0 -0.03,0 -0.03,0 -0.03,0 -0.03,-0.01 -0.03,0 -0.04,0 -0.03,0 -0.04,0 -0.03,0 c -0.17,0 -0.27,0 -0.27,-0.2 0,-0.11 0.09,-0.11 0.27,-0.11 h 3.55 c 1.57,0 2.75,1.18 2.75,2.15 0,0.72 -0.58,1.29 -1.55,1.4 1.04,0.19 2.08,0.92 2.08,1.87 0,0.73 -0.65,1.37 -1.85,1.37 l -0.14,-0.31 c 0.88,0 1.09,-0.58 1.09,-1.02 0,-0.87 -0.86,-1.82 -2.07,-1.82 h -1.45 l -0.06,-0.22 h 1.88 c 0.95,0 1.14,-0.73 1.14,-1.16 0,-0.98 -0.88,-1.95 -2.06,-1.95 h -1.35 c -0.14,0 -0.16,0 -0.22,0.01 -0.1,0.01 -0.13,0.02 -0.13,0.1 0,0.03 0,0.05 0.05,0.23 l 0.69,2.77 0.06,0.22 0.61,2.46 c 0.09,0.35 0.11,0.38 0.54,0.38 h 1.28 l 0.14,0.31 h -3.34 c -0.19,0 -0.29,0 -0.29,-0.2 0,-0.11 0.09,-0.11 0.28,-0.11 0.02,0 0.21,0 0.38,-0.02 0.18,-0.02 0.27,-0.03 0.27,-0.16 0,-0.04 -0.01,-0.07 -0.04,-0.19 z"
   id="path3125" />
</g>    <g
       style="font-style:normal;font-variant:normal;font-weight:normal;font-stretch:normal;letter-spacing:normal;word-spacing:normal;text-anchor:start;fill:none;stroke:#000000;stroke-linecap:butt;stroke-linejoin:miter;stroke-miterlimit:10.43299961;stroke-opacity:1;stroke-dasharray:none;stroke-dashoffset:0"
       id="g3136"
       transform="matrix(1.4713029,0,0,-1.4713029,-42.420117,1132.5888)"
       xml:space="preserve"
       stroke-miterlimit="10.433"
       font-style="normal"
       font-variant="normal"
       font-weight="normal"
       font-stretch="normal"
       font-size-adjust="none"
       letter-spacing="normal"
       word-spacing="normal"
       ns0:text="$A$"
       ns0:preamble="/home/kralovic/Research-Zurich/OnlineAlgorithms/HighProbability/fig/header.tex">
<path
   style="fill:#000000;stroke-width:0"
   inkscape:connector-curvature="0"
   d="m 225.21,478.38 -0.03,-0.06 -0.04,-0.06 -0.04,-0.06 -0.04,-0.05 -0.03,-0.05 -0.04,-0.04 -0.04,-0.05 -0.03,-0.04 -0.04,-0.04 -0.04,-0.04 -0.04,-0.03 -0.03,-0.03 -0.04,-0.03 -0.04,-0.03 -0.04,-0.02 -0.03,-0.03 -0.04,-0.02 -0.04,-0.02 -0.04,-0.02 -0.04,-0.02 -0.03,-0.01 -0.04,-0.01 -0.04,-0.02 -0.04,-0.01 -0.04,-0.01 -0.04,-0.01 -0.04,0 -0.04,-0.01 -0.08,-0.01 -0.08,-0.01 c -0.12,-0.01 -0.21,-0.01 -0.21,-0.2 0,-0.05 0.05,-0.11 0.13,-0.11 0.27,0 0.58,0.04 0.85,0.04 0.33,0 0.68,-0.04 1,-0.04 0.06,0 0.19,0 0.19,0.19 0,0.11 -0.09,0.12 -0.16,0.12 -0.23,0.02 -0.47,0.1 -0.47,0.35 0,0.12 0.06,0.23 0.14,0.37 l 0.76,1.27 h 2.49 l -0.03,0.31 h -2.27 l 1.96,3.28 0.31,-3.28 0.03,-0.31 c 0.03,-0.21 0.16,-1.56 0.16,-1.66 0,-0.3 -0.51,-0.33 -0.71,-0.33 -0.14,0 -0.24,0 -0.24,-0.2 0,-0.11 0.12,-0.11 0.14,-0.11 0.41,0 0.83,0.04 1.24,0.04 0.25,0 0.88,-0.04 1.13,-0.04 0.06,0 0.17,0 0.17,0.2 0,0.11 -0.09,0.11 -0.22,0.11 -0.62,0 -0.62,0.07 -0.65,0.36 l -0.61,6.21 c -0.02,0.2 -0.02,0.24 -0.19,0.24 -0.16,0 -0.19,-0.07 -0.25,-0.17 z"
   id="path3138" />
</g>    <rect
       y="435.81821"
       x="194.82216"
       height="14.181749"
       width="124.07548"
       id="rect3919"
       style="fill:#fee1b8;fill-opacity:1;stroke:#000000;stroke-width:0.35796461000000002;stroke-linecap:butt;stroke-linejoin:round;stroke-miterlimit:4;stroke-opacity:1;stroke-dasharray:none;stroke-dashoffset:0" />
    <g
       style="font-style:normal;font-variant:normal;font-weight:normal;font-stretch:normal;letter-spacing:normal;word-spacing:normal;text-anchor:start;fill:none;stroke:#000000;stroke-linecap:butt;stroke-linejoin:miter;stroke-miterlimit:10.43299961;stroke-opacity:1;stroke-dasharray:none;stroke-dashoffset:0"
       ns0:preamble="/home/kralovic/Research-Zurich/OnlineAlgorithms/HighProbability/fig/header.tex"
       ns0:text="$B$"
       word-spacing="normal"
       letter-spacing="normal"
       font-size-adjust="none"
       font-stretch="normal"
       font-weight="normal"
       font-variant="normal"
       font-style="normal"
       stroke-miterlimit="10.433"
       xml:space="preserve"
       transform="matrix(1.4713029,0,0,-1.4713029,-113.60482,1150.054)"
       id="g3921">
<path
   id="path3923"
   d="m 225.02,478.01 -0.01,-0.04 0,-0.03 -0.01,-0.03 -0.01,-0.03 -0.01,-0.03 -0.01,-0.03 -0.01,-0.02 -0.01,-0.03 -0.01,-0.02 -0.01,-0.02 -0.02,-0.02 -0.01,-0.02 -0.01,-0.02 -0.02,-0.01 -0.02,-0.02 -0.02,-0.01 -0.02,-0.01 -0.03,-0.01 -0.03,-0.01 -0.03,-0.01 -0.03,-0.01 -0.02,0 -0.01,-0.01 -0.02,0 -0.02,0 -0.02,-0.01 -0.02,0 -0.02,0 -0.03,0 -0.02,-0.01 -0.03,0 -0.02,0 -0.03,0 -0.02,0 -0.03,0 -0.03,0 -0.03,0 -0.03,-0.01 -0.03,0 -0.04,0 -0.03,0 -0.04,0 -0.03,0 c -0.17,0 -0.27,0 -0.27,-0.2 0,-0.11 0.09,-0.11 0.27,-0.11 h 3.55 c 1.57,0 2.75,1.18 2.75,2.15 0,0.72 -0.58,1.29 -1.55,1.4 1.04,0.19 2.08,0.92 2.08,1.87 0,0.73 -0.65,1.37 -1.85,1.37 l -0.14,-0.31 c 0.88,0 1.09,-0.58 1.09,-1.02 0,-0.87 -0.86,-1.82 -2.07,-1.82 h -1.45 l -0.06,-0.22 h 1.88 c 0.95,0 1.14,-0.73 1.14,-1.16 0,-0.98 -0.88,-1.95 -2.06,-1.95 h -1.35 c -0.14,0 -0.16,0 -0.22,0.01 -0.1,0.01 -0.13,0.02 -0.13,0.1 0,0.03 0,0.05 0.05,0.23 l 0.69,2.77 0.06,0.22 0.61,2.46 c 0.09,0.35 0.11,0.38 0.54,0.38 h 1.28 l 0.14,0.31 h -3.34 c -0.19,0 -0.29,0 -0.29,-0.2 0,-0.11 0.09,-0.11 0.28,-0.11 0.02,0 0.21,0 0.38,-0.02 0.18,-0.02 0.27,-0.03 0.27,-0.16 0,-0.04 -0.01,-0.07 -0.04,-0.19 z"
   inkscape:connector-curvature="0"
   style="fill:#000000;stroke-width:0" />
</g>    <g
       style="font-style:normal;font-variant:normal;font-weight:normal;font-stretch:normal;letter-spacing:normal;word-spacing:normal;text-anchor:start;fill:none;stroke:#000000;stroke-linecap:butt;stroke-linejoin:miter;stroke-miterlimit:10.43299961;stroke-opacity:1;stroke-dasharray:none;stroke-dashoffset:0"
       id="g3925"
       transform="matrix(1.4713029,0,0,-1.4713029,-94.95895,1150.2968)"
       xml:space="preserve"
       stroke-miterlimit="10.433"
       font-style="normal"
       font-variant="normal"
       font-weight="normal"
       font-stretch="normal"
       font-size-adjust="none"
       letter-spacing="normal"
       word-spacing="normal"
       ns0:text="$A$"
       ns0:preamble="/home/kralovic/Research-Zurich/OnlineAlgorithms/HighProbability/fig/header.tex">
<path
   style="fill:#000000;stroke-width:0"
   inkscape:connector-curvature="0"
   d="m 225.21,478.38 -0.03,-0.06 -0.04,-0.06 -0.04,-0.06 -0.04,-0.05 -0.03,-0.05 -0.04,-0.04 -0.04,-0.05 -0.03,-0.04 -0.04,-0.04 -0.04,-0.04 -0.04,-0.03 -0.03,-0.03 -0.04,-0.03 -0.04,-0.03 -0.04,-0.02 -0.03,-0.03 -0.04,-0.02 -0.04,-0.02 -0.04,-0.02 -0.04,-0.02 -0.03,-0.01 -0.04,-0.01 -0.04,-0.02 -0.04,-0.01 -0.04,-0.01 -0.04,-0.01 -0.04,0 -0.04,-0.01 -0.08,-0.01 -0.08,-0.01 c -0.12,-0.01 -0.21,-0.01 -0.21,-0.2 0,-0.05 0.05,-0.11 0.13,-0.11 0.27,0 0.58,0.04 0.85,0.04 0.33,0 0.68,-0.04 1,-0.04 0.06,0 0.19,0 0.19,0.19 0,0.11 -0.09,0.12 -0.16,0.12 -0.23,0.02 -0.47,0.1 -0.47,0.35 0,0.12 0.06,0.23 0.14,0.37 l 0.76,1.27 h 2.49 l -0.03,0.31 h -2.27 l 1.96,3.28 0.31,-3.28 0.03,-0.31 c 0.03,-0.21 0.16,-1.56 0.16,-1.66 0,-0.3 -0.51,-0.33 -0.71,-0.33 -0.14,0 -0.24,0 -0.24,-0.2 0,-0.11 0.12,-0.11 0.14,-0.11 0.41,0 0.83,0.04 1.24,0.04 0.25,0 0.88,-0.04 1.13,-0.04 0.06,0 0.17,0 0.17,0.2 0,0.11 -0.09,0.11 -0.22,0.11 -0.62,0 -0.62,0.07 -0.65,0.36 l -0.61,6.21 c -0.02,0.2 -0.02,0.24 -0.19,0.24 -0.16,0 -0.19,-0.07 -0.25,-0.17 z"
   id="path3927" />
</g>    <g
       id="g3929"
       transform="matrix(1.4713029,0,0,-1.4713029,-42.729091,1150.054)"
       xml:space="preserve"
       stroke-miterlimit="10.433"
       font-style="normal"
       font-variant="normal"
       font-weight="normal"
       font-stretch="normal"
       font-size-adjust="none"
       letter-spacing="normal"
       word-spacing="normal"
       ns0:text="$B$"
       ns0:preamble="/home/kralovic/Research-Zurich/OnlineAlgorithms/HighProbability/fig/header.tex"
       style="font-style:normal;font-variant:normal;font-weight:normal;font-stretch:normal;letter-spacing:normal;word-spacing:normal;text-anchor:start;fill:none;stroke:#000000;stroke-linecap:butt;stroke-linejoin:miter;stroke-miterlimit:10.43299961;stroke-opacity:1;stroke-dasharray:none;stroke-dashoffset:0">
<path
   style="fill:#000000;stroke-width:0"
   inkscape:connector-curvature="0"
   d="m 225.02,478.01 -0.01,-0.04 0,-0.03 -0.01,-0.03 -0.01,-0.03 -0.01,-0.03 -0.01,-0.03 -0.01,-0.02 -0.01,-0.03 -0.01,-0.02 -0.01,-0.02 -0.02,-0.02 -0.01,-0.02 -0.01,-0.02 -0.02,-0.01 -0.02,-0.02 -0.02,-0.01 -0.02,-0.01 -0.03,-0.01 -0.03,-0.01 -0.03,-0.01 -0.03,-0.01 -0.02,0 -0.01,-0.01 -0.02,0 -0.02,0 -0.02,-0.01 -0.02,0 -0.02,0 -0.03,0 -0.02,-0.01 -0.03,0 -0.02,0 -0.03,0 -0.02,0 -0.03,0 -0.03,0 -0.03,0 -0.03,-0.01 -0.03,0 -0.04,0 -0.03,0 -0.04,0 -0.03,0 c -0.17,0 -0.27,0 -0.27,-0.2 0,-0.11 0.09,-0.11 0.27,-0.11 h 3.55 c 1.57,0 2.75,1.18 2.75,2.15 0,0.72 -0.58,1.29 -1.55,1.4 1.04,0.19 2.08,0.92 2.08,1.87 0,0.73 -0.65,1.37 -1.85,1.37 l -0.14,-0.31 c 0.88,0 1.09,-0.58 1.09,-1.02 0,-0.87 -0.86,-1.82 -2.07,-1.82 h -1.45 l -0.06,-0.22 h 1.88 c 0.95,0 1.14,-0.73 1.14,-1.16 0,-0.98 -0.88,-1.95 -2.06,-1.95 h -1.35 c -0.14,0 -0.16,0 -0.22,0.01 -0.1,0.01 -0.13,0.02 -0.13,0.1 0,0.03 0,0.05 0.05,0.23 l 0.69,2.77 0.06,0.22 0.61,2.46 c 0.09,0.35 0.11,0.38 0.54,0.38 h 1.28 l 0.14,0.31 h -3.34 c -0.19,0 -0.29,0 -0.29,-0.2 0,-0.11 0.09,-0.11 0.28,-0.11 0.02,0 0.21,0 0.38,-0.02 0.18,-0.02 0.27,-0.03 0.27,-0.16 0,-0.04 -0.01,-0.07 -0.04,-0.19 z"
   id="path3931" />
</g>    <rect
       y="471.25128"
       x="265.74802"
       height="14.181749"
       width="88.582695"
       id="rect3933"
       style="fill:#d1feb8;fill-opacity:1;stroke:#000000;stroke-width:0.30246252;stroke-linecap:butt;stroke-linejoin:round;stroke-miterlimit:4;stroke-opacity:1;stroke-dasharray:none;stroke-dashoffset:0" />
    <g
       style="font-style:normal;font-variant:normal;font-weight:normal;font-stretch:normal;letter-spacing:normal;word-spacing:normal;text-anchor:start;fill:none;stroke:#000000;stroke-linecap:butt;stroke-linejoin:miter;stroke-miterlimit:10.43299961;stroke-opacity:1;stroke-dasharray:none;stroke-dashoffset:0"
       id="g3935"
       transform="matrix(1.4713029,0,0,-1.4713029,-42.420117,1185.7299)"
       xml:space="preserve"
       stroke-miterlimit="10.433"
       font-style="normal"
       font-variant="normal"
       font-weight="normal"
       font-stretch="normal"
       font-size-adjust="none"
       letter-spacing="normal"
       word-spacing="normal"
       ns0:text="$A$"
       ns0:preamble="/home/kralovic/Research-Zurich/OnlineAlgorithms/HighProbability/fig/header.tex">
<path
   style="fill:#000000;stroke-width:0"
   inkscape:connector-curvature="0"
   d="m 225.21,478.38 -0.03,-0.06 -0.04,-0.06 -0.04,-0.06 -0.04,-0.05 -0.03,-0.05 -0.04,-0.04 -0.04,-0.05 -0.03,-0.04 -0.04,-0.04 -0.04,-0.04 -0.04,-0.03 -0.03,-0.03 -0.04,-0.03 -0.04,-0.03 -0.04,-0.02 -0.03,-0.03 -0.04,-0.02 -0.04,-0.02 -0.04,-0.02 -0.04,-0.02 -0.03,-0.01 -0.04,-0.01 -0.04,-0.02 -0.04,-0.01 -0.04,-0.01 -0.04,-0.01 -0.04,0 -0.04,-0.01 -0.08,-0.01 -0.08,-0.01 c -0.12,-0.01 -0.21,-0.01 -0.21,-0.2 0,-0.05 0.05,-0.11 0.13,-0.11 0.27,0 0.58,0.04 0.85,0.04 0.33,0 0.68,-0.04 1,-0.04 0.06,0 0.19,0 0.19,0.19 0,0.11 -0.09,0.12 -0.16,0.12 -0.23,0.02 -0.47,0.1 -0.47,0.35 0,0.12 0.06,0.23 0.14,0.37 l 0.76,1.27 h 2.49 l -0.03,0.31 h -2.27 l 1.96,3.28 0.31,-3.28 0.03,-0.31 c 0.03,-0.21 0.16,-1.56 0.16,-1.66 0,-0.3 -0.51,-0.33 -0.71,-0.33 -0.14,0 -0.24,0 -0.24,-0.2 0,-0.11 0.12,-0.11 0.14,-0.11 0.41,0 0.83,0.04 1.24,0.04 0.25,0 0.88,-0.04 1.13,-0.04 0.06,0 0.17,0 0.17,0.2 0,0.11 -0.09,0.11 -0.22,0.11 -0.62,0 -0.62,0.07 -0.65,0.36 l -0.61,6.21 c -0.02,0.2 -0.02,0.24 -0.19,0.24 -0.16,0 -0.19,-0.07 -0.25,-0.17 z"
   id="path3937" />
</g>    <rect
       style="fill:#fee1b8;fill-opacity:1;stroke:#000000;stroke-width:0.30246252;stroke-linecap:butt;stroke-linejoin:round;stroke-miterlimit:4;stroke-opacity:1;stroke-dasharray:none;stroke-dashoffset:0"
       id="rect3947"
       width="88.582695"
       height="14.181749"
       x="265.74802"
       y="453.53476" />
    <path
       id="path3963"
       d="m 341.59637,463.24922 -0.0441,0.0883 -0.0589,0.0883 -0.0589,0.0883 -0.0588,0.0736 -0.0441,0.0736 -0.0589,0.0589 -0.0589,0.0736 -0.0441,0.0588 -0.0589,0.0589 -0.0589,0.0589 -0.0588,0.0441 -0.0441,0.0441 -0.0589,0.0441 -0.0589,0.0441 -0.0589,0.0294 -0.0441,0.0441 -0.0589,0.0294 -0.0589,0.0294 -0.0589,0.0294 -0.0589,0.0294 -0.0441,0.0147 -0.0588,0.0147 -0.0589,0.0294 -0.0589,0.0147 -0.0589,0.0147 -0.0588,0.0147 -0.0589,0 -0.0589,0.0147 -0.1177,0.0147 -0.11771,0.0147 c -0.17655,0.0147 -0.30897,0.0147 -0.30897,0.29426 0,0.0736 0.0736,0.16185 0.19127,0.16185 0.39725,0 0.85336,-0.0589 1.25061,-0.0589 0.48553,0 1.00048,0.0589 1.4713,0.0589 0.0883,0 0.27955,0 0.27955,-0.27955 0,-0.16184 -0.13242,-0.17656 -0.23541,-0.17656 -0.3384,-0.0294 -0.69151,-0.14713 -0.69151,-0.51495 0,-0.17656 0.0883,-0.3384 0.20598,-0.54438 l 1.11819,-1.86856 h 3.66354 l -0.0441,-0.4561 h -3.33986 l 2.88375,-4.82588 0.45611,4.82588 0.0441,0.4561 c 0.0441,0.30897 0.23541,2.29523 0.23541,2.44236 0,0.44139 -0.75036,0.48553 -1.04462,0.48553 -0.20598,0 -0.35312,0 -0.35312,0.29426 0,0.16185 0.17656,0.16185 0.20599,0.16185 0.60323,0 1.22118,-0.0589 1.82441,-0.0589 0.36783,0 1.29475,0.0589 1.66258,0.0589 0.0883,0 0.25012,0 0.25012,-0.29426 0,-0.16185 -0.13242,-0.16185 -0.32369,-0.16185 -0.91221,0 -0.91221,-0.10299 -0.95635,-0.52967 l -0.89749,-9.13679 c -0.0294,-0.29426 -0.0294,-0.35311 -0.27955,-0.35311 -0.23541,0 -0.27955,0.10299 -0.36782,0.25012 z"
       inkscape:connector-curvature="0"
       style="font-style:normal;font-variant:normal;font-weight:normal;font-stretch:normal;letter-spacing:normal;word-spacing:normal;text-anchor:start;fill:#000000;stroke:#000000;stroke-width:0;stroke-linecap:butt;stroke-linejoin:miter;stroke-miterlimit:10.43299961;stroke-opacity:1;stroke-dasharray:none;stroke-dashoffset:0" />
    <path
       style="font-style:normal;font-variant:normal;font-weight:normal;font-stretch:normal;letter-spacing:normal;word-spacing:normal;text-anchor:start;fill:#000000;stroke:#000000;stroke-width:0;stroke-linecap:butt;stroke-linejoin:miter;stroke-miterlimit:10.43299961;stroke-opacity:1;stroke-dasharray:none;stroke-dashoffset:0"
       inkscape:connector-curvature="0"
       d="m 295.80345,462.25143 0.0441,0 0.0441,0 0.0441,0 0.0294,0 0.0147,0 0.0294,0 0.0147,-0.0147 0.0294,0 0.0147,0 0.0294,0 0.0147,-0.0147 0.0147,0 0.0294,0 0.0147,-0.0147 0.0147,-0.0147 0.0147,0 0.0147,-0.0147 0.0147,-0.0147 0.0147,0 0.0147,-0.0147 0.0147,-0.0147 0,-0.0147 0,0 0.0147,-0.0147 0,-0.0147 0,0 0,-0.0147 0.0147,-0.0147 0,0 0,-0.0147 0,-0.0147 0,-0.0147 0,0 0.0147,-0.0147 0,-0.0147 0,-0.0147 0,-0.0147 c 0,-0.29426 -0.26484,-0.29426 -0.51496,-0.29426 h -7.91561 c -0.25012,0 -0.51495,0 -0.51495,0.29426 0,0.29426 0.26483,0.29426 0.51495,0.29426 z"
       id="path3995" />
    <g
       ns0:preamble="/home/kralovic/Research-Zurich/OnlineAlgorithms/HighProbability/fig/header.tex"
       ns0:text="$A$"
       word-spacing="normal"
       letter-spacing="normal"
       font-size-adjust="none"
       font-stretch="normal"
       font-weight="normal"
       font-variant="normal"
       font-style="normal"
       stroke-miterlimit="10.433"
       xml:space="preserve"
       transform="matrix(1.4713029,0,0,-1.4713029,-167.27301,1203.656)"
       id="g4055"
       style="font-style:normal;font-variant:normal;font-weight:normal;font-stretch:normal;letter-spacing:normal;word-spacing:normal;text-anchor:start;fill:none;stroke:#000000;stroke-linecap:butt;stroke-linejoin:miter;stroke-miterlimit:10.43299961;stroke-opacity:1;stroke-dasharray:none;stroke-dashoffset:0">
<path
   id="path4057"
   d="m 225.21,478.38 -0.03,-0.06 -0.04,-0.06 -0.04,-0.06 -0.04,-0.05 -0.03,-0.05 -0.04,-0.04 -0.04,-0.05 -0.03,-0.04 -0.04,-0.04 -0.04,-0.04 -0.04,-0.03 -0.03,-0.03 -0.04,-0.03 -0.04,-0.03 -0.04,-0.02 -0.03,-0.03 -0.04,-0.02 -0.04,-0.02 -0.04,-0.02 -0.04,-0.02 -0.03,-0.01 -0.04,-0.01 -0.04,-0.02 -0.04,-0.01 -0.04,-0.01 -0.04,-0.01 -0.04,0 -0.04,-0.01 -0.08,-0.01 -0.08,-0.01 c -0.12,-0.01 -0.21,-0.01 -0.21,-0.2 0,-0.05 0.05,-0.11 0.13,-0.11 0.27,0 0.58,0.04 0.85,0.04 0.33,0 0.68,-0.04 1,-0.04 0.06,0 0.19,0 0.19,0.19 0,0.11 -0.09,0.12 -0.16,0.12 -0.23,0.02 -0.47,0.1 -0.47,0.35 0,0.12 0.06,0.23 0.14,0.37 l 0.76,1.27 h 2.49 l -0.03,0.31 h -2.27 l 1.96,3.28 0.31,-3.28 0.03,-0.31 c 0.03,-0.21 0.16,-1.56 0.16,-1.66 0,-0.3 -0.51,-0.33 -0.71,-0.33 -0.14,0 -0.24,0 -0.24,-0.2 0,-0.11 0.12,-0.11 0.14,-0.11 0.41,0 0.83,0.04 1.24,0.04 0.25,0 0.88,-0.04 1.13,-0.04 0.06,0 0.17,0 0.17,0.2 0,0.11 -0.09,0.11 -0.22,0.11 -0.62,0 -0.62,0.07 -0.65,0.36 l -0.61,6.21 c -0.02,0.2 -0.02,0.24 -0.19,0.24 -0.16,0 -0.19,-0.07 -0.25,-0.17 z"
   inkscape:connector-curvature="0"
   style="fill:#000000;stroke-width:0" />
</g>    <g
       style="font-style:normal;font-variant:normal;font-weight:normal;font-stretch:normal;letter-spacing:normal;word-spacing:normal;text-anchor:start;fill:none;stroke:#000000;stroke-linecap:butt;stroke-linejoin:miter;stroke-miterlimit:10.43299961;stroke-opacity:1;stroke-dasharray:none;stroke-dashoffset:0"
       ns0:preamble="/home/kralovic/Research-Zurich/OnlineAlgorithms/HighProbability/fig/header.tex"
       ns0:text="$B$"
       word-spacing="normal"
       letter-spacing="normal"
       font-size-adjust="none"
       font-stretch="normal"
       font-weight="normal"
       font-variant="normal"
       font-style="normal"
       stroke-miterlimit="10.433"
       xml:space="preserve"
       transform="matrix(1.4713029,0,0,-1.4713029,-113.60482,1220.987)"
       id="g4059">
<path
   id="path4061"
   d="m 225.02,478.01 -0.01,-0.04 0,-0.03 -0.01,-0.03 -0.01,-0.03 -0.01,-0.03 -0.01,-0.03 -0.01,-0.02 -0.01,-0.03 -0.01,-0.02 -0.01,-0.02 -0.02,-0.02 -0.01,-0.02 -0.01,-0.02 -0.02,-0.01 -0.02,-0.02 -0.02,-0.01 -0.02,-0.01 -0.03,-0.01 -0.03,-0.01 -0.03,-0.01 -0.03,-0.01 -0.02,0 -0.01,-0.01 -0.02,0 -0.02,0 -0.02,-0.01 -0.02,0 -0.02,0 -0.03,0 -0.02,-0.01 -0.03,0 -0.02,0 -0.03,0 -0.02,0 -0.03,0 -0.03,0 -0.03,0 -0.03,-0.01 -0.03,0 -0.04,0 -0.03,0 -0.04,0 -0.03,0 c -0.17,0 -0.27,0 -0.27,-0.2 0,-0.11 0.09,-0.11 0.27,-0.11 h 3.55 c 1.57,0 2.75,1.18 2.75,2.15 0,0.72 -0.58,1.29 -1.55,1.4 1.04,0.19 2.08,0.92 2.08,1.87 0,0.73 -0.65,1.37 -1.85,1.37 l -0.14,-0.31 c 0.88,0 1.09,-0.58 1.09,-1.02 0,-0.87 -0.86,-1.82 -2.07,-1.82 h -1.45 l -0.06,-0.22 h 1.88 c 0.95,0 1.14,-0.73 1.14,-1.16 0,-0.98 -0.88,-1.95 -2.06,-1.95 h -1.35 c -0.14,0 -0.16,0 -0.22,0.01 -0.1,0.01 -0.13,0.02 -0.13,0.1 0,0.03 0,0.05 0.05,0.23 l 0.69,2.77 0.06,0.22 0.61,2.46 c 0.09,0.35 0.11,0.38 0.54,0.38 h 1.28 l 0.14,0.31 h -3.34 c -0.19,0 -0.29,0 -0.29,-0.2 0,-0.11 0.09,-0.11 0.28,-0.11 0.02,0 0.21,0 0.38,-0.02 0.18,-0.02 0.27,-0.03 0.27,-0.16 0,-0.04 -0.01,-0.07 -0.04,-0.19 z"
   inkscape:connector-curvature="0"
   style="fill:#000000;stroke-width:0" />
</g>    <path
       inkscape:connector-curvature="0"
       id="path5899"
       d="m 231.07239,505.11204 c 0,1.01015 20.45559,19.95051 20.45559,19.95051"
       style="fill:none;stroke:#ef0000;stroke-width:2;stroke-linecap:butt;stroke-linejoin:round;stroke-miterlimit:4;stroke-opacity:1;stroke-dasharray:none;stroke-dashoffset:0" />
    <g
       id="g4063"
       transform="matrix(1.4713029,0,0,-1.4713029,-95.267923,1220.987)"
       xml:space="preserve"
       stroke-miterlimit="10.433"
       font-style="normal"
       font-variant="normal"
       font-weight="normal"
       font-stretch="normal"
       font-size-adjust="none"
       letter-spacing="normal"
       word-spacing="normal"
       ns0:text="$B$"
       ns0:preamble="/home/kralovic/Research-Zurich/OnlineAlgorithms/HighProbability/fig/header.tex"
       style="font-style:normal;font-variant:normal;font-weight:normal;font-stretch:normal;letter-spacing:normal;word-spacing:normal;text-anchor:start;fill:none;stroke:#000000;stroke-linecap:butt;stroke-linejoin:miter;stroke-miterlimit:10.43299961;stroke-opacity:1;stroke-dasharray:none;stroke-dashoffset:0">
<path
   style="fill:#000000;stroke-width:0"
   inkscape:connector-curvature="0"
   d="m 225.02,478.01 -0.01,-0.04 0,-0.03 -0.01,-0.03 -0.01,-0.03 -0.01,-0.03 -0.01,-0.03 -0.01,-0.02 -0.01,-0.03 -0.01,-0.02 -0.01,-0.02 -0.02,-0.02 -0.01,-0.02 -0.01,-0.02 -0.02,-0.01 -0.02,-0.02 -0.02,-0.01 -0.02,-0.01 -0.03,-0.01 -0.03,-0.01 -0.03,-0.01 -0.03,-0.01 -0.02,0 -0.01,-0.01 -0.02,0 -0.02,0 -0.02,-0.01 -0.02,0 -0.02,0 -0.03,0 -0.02,-0.01 -0.03,0 -0.02,0 -0.03,0 -0.02,0 -0.03,0 -0.03,0 -0.03,0 -0.03,-0.01 -0.03,0 -0.04,0 -0.03,0 -0.04,0 -0.03,0 c -0.17,0 -0.27,0 -0.27,-0.2 0,-0.11 0.09,-0.11 0.27,-0.11 h 3.55 c 1.57,0 2.75,1.18 2.75,2.15 0,0.72 -0.58,1.29 -1.55,1.4 1.04,0.19 2.08,0.92 2.08,1.87 0,0.73 -0.65,1.37 -1.85,1.37 l -0.14,-0.31 c 0.88,0 1.09,-0.58 1.09,-1.02 0,-0.87 -0.86,-1.82 -2.07,-1.82 h -1.45 l -0.06,-0.22 h 1.88 c 0.95,0 1.14,-0.73 1.14,-1.16 0,-0.98 -0.88,-1.95 -2.06,-1.95 h -1.35 c -0.14,0 -0.16,0 -0.22,0.01 -0.1,0.01 -0.13,0.02 -0.13,0.1 0,0.03 0,0.05 0.05,0.23 l 0.69,2.77 0.06,0.22 0.61,2.46 c 0.09,0.35 0.11,0.38 0.54,0.38 h 1.28 l 0.14,0.31 h -3.34 c -0.19,0 -0.29,0 -0.29,-0.2 0,-0.11 0.09,-0.11 0.28,-0.11 0.02,0 0.21,0 0.38,-0.02 0.18,-0.02 0.27,-0.03 0.27,-0.16 0,-0.04 -0.01,-0.07 -0.04,-0.19 z"
   id="path4065" />
</g>    <g
       style="font-style:normal;font-variant:normal;font-weight:normal;font-stretch:normal;letter-spacing:normal;word-spacing:normal;text-anchor:start;fill:none;stroke:#000000;stroke-linecap:butt;stroke-linejoin:miter;stroke-miterlimit:10.43299961;stroke-opacity:1;stroke-dasharray:none;stroke-dashoffset:0"
       ns0:preamble="/home/kralovic/Research-Zurich/OnlineAlgorithms/HighProbability/fig/header.tex"
       ns0:text="$B$"
       word-spacing="normal"
       letter-spacing="normal"
       font-size-adjust="none"
       font-stretch="normal"
       font-weight="normal"
       font-variant="normal"
       font-style="normal"
       stroke-miterlimit="10.433"
       xml:space="preserve"
       transform="matrix(1.4713029,0,0,-1.4713029,-95.267923,1203.4132)"
       id="g4067">
<path
   id="path4069"
   d="m 225.02,478.01 -0.01,-0.04 0,-0.03 -0.01,-0.03 -0.01,-0.03 -0.01,-0.03 -0.01,-0.03 -0.01,-0.02 -0.01,-0.03 -0.01,-0.02 -0.01,-0.02 -0.02,-0.02 -0.01,-0.02 -0.01,-0.02 -0.02,-0.01 -0.02,-0.02 -0.02,-0.01 -0.02,-0.01 -0.03,-0.01 -0.03,-0.01 -0.03,-0.01 -0.03,-0.01 -0.02,0 -0.01,-0.01 -0.02,0 -0.02,0 -0.02,-0.01 -0.02,0 -0.02,0 -0.03,0 -0.02,-0.01 -0.03,0 -0.02,0 -0.03,0 -0.02,0 -0.03,0 -0.03,0 -0.03,0 -0.03,-0.01 -0.03,0 -0.04,0 -0.03,0 -0.04,0 -0.03,0 c -0.17,0 -0.27,0 -0.27,-0.2 0,-0.11 0.09,-0.11 0.27,-0.11 h 3.55 c 1.57,0 2.75,1.18 2.75,2.15 0,0.72 -0.58,1.29 -1.55,1.4 1.04,0.19 2.08,0.92 2.08,1.87 0,0.73 -0.65,1.37 -1.85,1.37 l -0.14,-0.31 c 0.88,0 1.09,-0.58 1.09,-1.02 0,-0.87 -0.86,-1.82 -2.07,-1.82 h -1.45 l -0.06,-0.22 h 1.88 c 0.95,0 1.14,-0.73 1.14,-1.16 0,-0.98 -0.88,-1.95 -2.06,-1.95 h -1.35 c -0.14,0 -0.16,0 -0.22,0.01 -0.1,0.01 -0.13,0.02 -0.13,0.1 0,0.03 0,0.05 0.05,0.23 l 0.69,2.77 0.06,0.22 0.61,2.46 c 0.09,0.35 0.11,0.38 0.54,0.38 h 1.28 l 0.14,0.31 h -3.34 c -0.19,0 -0.29,0 -0.29,-0.2 0,-0.11 0.09,-0.11 0.28,-0.11 0.02,0 0.21,0 0.38,-0.02 0.18,-0.02 0.27,-0.03 0.27,-0.16 0,-0.04 -0.01,-0.07 -0.04,-0.19 z"
   inkscape:connector-curvature="0"
   style="fill:#000000;stroke-width:0" />
</g>    <g
       id="g4071"
       transform="matrix(1.4713029,0,0,-1.4713029,-167.58198,1220.987)"
       xml:space="preserve"
       stroke-miterlimit="10.433"
       font-style="normal"
       font-variant="normal"
       font-weight="normal"
       font-stretch="normal"
       font-size-adjust="none"
       letter-spacing="normal"
       word-spacing="normal"
       ns0:text="$B$"
       ns0:preamble="/home/kralovic/Research-Zurich/OnlineAlgorithms/HighProbability/fig/header.tex"
       style="font-style:normal;font-variant:normal;font-weight:normal;font-stretch:normal;letter-spacing:normal;word-spacing:normal;text-anchor:start;fill:none;stroke:#000000;stroke-linecap:butt;stroke-linejoin:miter;stroke-miterlimit:10.43299961;stroke-opacity:1;stroke-dasharray:none;stroke-dashoffset:0">
<path
   style="fill:#000000;stroke-width:0"
   inkscape:connector-curvature="0"
   d="m 225.02,478.01 -0.01,-0.04 0,-0.03 -0.01,-0.03 -0.01,-0.03 -0.01,-0.03 -0.01,-0.03 -0.01,-0.02 -0.01,-0.03 -0.01,-0.02 -0.01,-0.02 -0.02,-0.02 -0.01,-0.02 -0.01,-0.02 -0.02,-0.01 -0.02,-0.02 -0.02,-0.01 -0.02,-0.01 -0.03,-0.01 -0.03,-0.01 -0.03,-0.01 -0.03,-0.01 -0.02,0 -0.01,-0.01 -0.02,0 -0.02,0 -0.02,-0.01 -0.02,0 -0.02,0 -0.03,0 -0.02,-0.01 -0.03,0 -0.02,0 -0.03,0 -0.02,0 -0.03,0 -0.03,0 -0.03,0 -0.03,-0.01 -0.03,0 -0.04,0 -0.03,0 -0.04,0 -0.03,0 c -0.17,0 -0.27,0 -0.27,-0.2 0,-0.11 0.09,-0.11 0.27,-0.11 h 3.55 c 1.57,0 2.75,1.18 2.75,2.15 0,0.72 -0.58,1.29 -1.55,1.4 1.04,0.19 2.08,0.92 2.08,1.87 0,0.73 -0.65,1.37 -1.85,1.37 l -0.14,-0.31 c 0.88,0 1.09,-0.58 1.09,-1.02 0,-0.87 -0.86,-1.82 -2.07,-1.82 h -1.45 l -0.06,-0.22 h 1.88 c 0.95,0 1.14,-0.73 1.14,-1.16 0,-0.98 -0.88,-1.95 -2.06,-1.95 h -1.35 c -0.14,0 -0.16,0 -0.22,0.01 -0.1,0.01 -0.13,0.02 -0.13,0.1 0,0.03 0,0.05 0.05,0.23 l 0.69,2.77 0.06,0.22 0.61,2.46 c 0.09,0.35 0.11,0.38 0.54,0.38 h 1.28 l 0.14,0.31 h -3.34 c -0.19,0 -0.29,0 -0.29,-0.2 0,-0.11 0.09,-0.11 0.28,-0.11 0.02,0 0.21,0 0.38,-0.02 0.18,-0.02 0.27,-0.03 0.27,-0.16 0,-0.04 -0.01,-0.07 -0.04,-0.19 z"
   id="path4073" />
</g>    <g
       id="g4075"
       transform="matrix(1.4713029,0,0,-1.4713029,-42.729091,1220.987)"
       xml:space="preserve"
       stroke-miterlimit="10.433"
       font-style="normal"
       font-variant="normal"
       font-weight="normal"
       font-stretch="normal"
       font-size-adjust="none"
       letter-spacing="normal"
       word-spacing="normal"
       ns0:text="$B$"
       ns0:preamble="/home/kralovic/Research-Zurich/OnlineAlgorithms/HighProbability/fig/header.tex"
       style="font-style:normal;font-variant:normal;font-weight:normal;font-stretch:normal;letter-spacing:normal;word-spacing:normal;text-anchor:start;fill:none;stroke:#000000;stroke-linecap:butt;stroke-linejoin:miter;stroke-miterlimit:10.43299961;stroke-opacity:1;stroke-dasharray:none;stroke-dashoffset:0">
<path
   style="fill:#000000;stroke-width:0"
   inkscape:connector-curvature="0"
   d="m 225.02,478.01 -0.01,-0.04 0,-0.03 -0.01,-0.03 -0.01,-0.03 -0.01,-0.03 -0.01,-0.03 -0.01,-0.02 -0.01,-0.03 -0.01,-0.02 -0.01,-0.02 -0.02,-0.02 -0.01,-0.02 -0.01,-0.02 -0.02,-0.01 -0.02,-0.02 -0.02,-0.01 -0.02,-0.01 -0.03,-0.01 -0.03,-0.01 -0.03,-0.01 -0.03,-0.01 -0.02,0 -0.01,-0.01 -0.02,0 -0.02,0 -0.02,-0.01 -0.02,0 -0.02,0 -0.03,0 -0.02,-0.01 -0.03,0 -0.02,0 -0.03,0 -0.02,0 -0.03,0 -0.03,0 -0.03,0 -0.03,-0.01 -0.03,0 -0.04,0 -0.03,0 -0.04,0 -0.03,0 c -0.17,0 -0.27,0 -0.27,-0.2 0,-0.11 0.09,-0.11 0.27,-0.11 h 3.55 c 1.57,0 2.75,1.18 2.75,2.15 0,0.72 -0.58,1.29 -1.55,1.4 1.04,0.19 2.08,0.92 2.08,1.87 0,0.73 -0.65,1.37 -1.85,1.37 l -0.14,-0.31 c 0.88,0 1.09,-0.58 1.09,-1.02 0,-0.87 -0.86,-1.82 -2.07,-1.82 h -1.45 l -0.06,-0.22 h 1.88 c 0.95,0 1.14,-0.73 1.14,-1.16 0,-0.98 -0.88,-1.95 -2.06,-1.95 h -1.35 c -0.14,0 -0.16,0 -0.22,0.01 -0.1,0.01 -0.13,0.02 -0.13,0.1 0,0.03 0,0.05 0.05,0.23 l 0.69,2.77 0.06,0.22 0.61,2.46 c 0.09,0.35 0.11,0.38 0.54,0.38 h 1.28 l 0.14,0.31 h -3.34 c -0.19,0 -0.29,0 -0.29,-0.2 0,-0.11 0.09,-0.11 0.28,-0.11 0.02,0 0.21,0 0.38,-0.02 0.18,-0.02 0.27,-0.03 0.27,-0.16 0,-0.04 -0.01,-0.07 -0.04,-0.19 z"
   id="path4077" />
</g>    <path
       id="path4106"
       d="m 295.80345,496.56228 0.0441,0 0.0441,0 0.0441,0 0.0294,0 0.0147,0 0.0294,0 0.0147,-0.0147 0.0294,0 0.0147,0 0.0294,0 0.0147,-0.0147 0.0147,0 0.0294,0 0.0147,-0.0147 0.0147,-0.0147 0.0147,0 0.0147,-0.0147 0.0147,-0.0147 0.0147,0 0.0147,-0.0147 0.0147,-0.0147 0,-0.0147 0,0 0.0147,-0.0147 0,-0.0147 0,0 0,-0.0147 0.0147,-0.0147 0,0 0,-0.0147 0,-0.0147 0,-0.0147 0,0 0.0147,-0.0147 0,-0.0147 0,-0.0147 0,-0.0147 c 0,-0.29426 -0.26484,-0.29426 -0.51496,-0.29426 h -7.91561 c -0.25012,0 -0.51495,0 -0.51495,0.29426 0,0.29426 0.26483,0.29426 0.51495,0.29426 z"
       inkscape:connector-curvature="0"
       style="font-style:normal;font-variant:normal;font-weight:normal;font-stretch:normal;letter-spacing:normal;word-spacing:normal;text-anchor:start;fill:#000000;stroke:#000000;stroke-width:0;stroke-linecap:butt;stroke-linejoin:miter;stroke-miterlimit:10.43299961;stroke-opacity:1;stroke-dasharray:none;stroke-dashoffset:0" />
    <path
       style="fill:#fee1b8;fill-opacity:1;stroke:#000000;stroke-width:0.4;stroke-linecap:butt;stroke-linejoin:round;stroke-miterlimit:4;stroke-opacity:1;stroke-dasharray:1.2,0.4;stroke-dashoffset:0"
       d="m 159.44882,527.95273 0,-131.10236"
       id="path4132"
       inkscape:connector-curvature="0" />
    <g
       id="g4184"
       transform="matrix(1.4713029,0,0,-1.4713029,-166.72424,1105.4408)"
       xml:space="preserve"
       stroke-miterlimit="10.433"
       font-style="normal"
       font-variant="normal"
       font-weight="normal"
       font-stretch="normal"
       font-size-adjust="none"
       letter-spacing="normal"
       word-spacing="normal"
       ns0:text="$s_1$"
       ns0:preamble="/home/kralovic/Research-Zurich/OnlineAlgorithms/HighProbability/fig/header.tex"
       style="font-style:normal;font-variant:normal;font-weight:normal;font-stretch:normal;letter-spacing:normal;word-spacing:normal;text-anchor:start;fill:none;stroke:#000000;stroke-linecap:butt;stroke-linejoin:miter;stroke-miterlimit:10.43299961;stroke-opacity:1;stroke-dasharray:none;stroke-dashoffset:0">
<path
   style="fill:#000000;stroke-width:0"
   inkscape:connector-curvature="0"
   d="m 227.32,480.95 -0.02,0 -0.03,0 -0.02,-0.01 -0.03,0 -0.02,-0.01 -0.03,-0.01 -0.02,0 -0.02,-0.01 -0.02,-0.01 -0.02,-0.01 -0.02,-0.02 -0.02,-0.01 -0.02,-0.01 -0.02,-0.02 -0.01,-0.01 -0.02,-0.02 -0.02,-0.01 -0.01,-0.02 -0.01,-0.01 -0.02,-0.02 -0.01,-0.02 -0.01,-0.02 -0.01,-0.02 -0.01,-0.02 -0.01,-0.02 0,-0.02 -0.01,-0.02 -0.01,-0.02 0,-0.02 0,-0.02 0,-0.02 0,-0.02 c 0,-0.14 0.08,-0.29 0.3,-0.29 0.22,0 0.46,0.17 0.46,0.56 0,0.45 -0.43,0.86 -1.18,0.86 -1.32,0 -1.69,-1.02 -1.69,-1.46 0,-0.77 0.74,-0.92 1.03,-0.98 0.52,-0.1 1.03,-0.21 1.03,-0.75 0,-0.26 -0.22,-1.1 -1.42,-1.1 -0.14,0 -0.9,0 -1.13,0.53 0.38,-0.05 0.63,0.25 0.63,0.53 0,0.23 -0.17,0.34 -0.37,0.34 -0.26,0 -0.56,-0.2 -0.56,-0.65 0,-0.57 0.57,-0.96 1.42,-0.96 1.61,0 2,1.2 2,1.64 0,0.36 -0.19,0.61 -0.31,0.73 -0.27,0.28 -0.55,0.33 -0.99,0.42 -0.36,0.08 -0.76,0.15 -0.76,0.59 0,0.29 0.24,0.9 1.12,0.9 0.25,0 0.74,-0.07 0.89,-0.46 z"
   id="path4186" />
<path
   style="fill:#000000;stroke-width:0"
   inkscape:connector-curvature="0"
   d="m 230.43,480.16 0,0.01 0,0.01 0,0.01 0,0.01 0,0 0,0.01 0,0.01 0,0.01 0,0 0,0.01 0,0.01 0,0 0,0.01 0,0 0,0.01 0,0 0,0.01 0,0 0,0.01 -0.01,0.01 0,0.01 0,0 -0.01,0.01 0,0.01 -0.01,0 0,0.01 -0.01,0 0,0 -0.01,0.01 -0.01,0 -0.01,0 -0.01,0 0,0 -0.01,0 0,0 -0.01,0.01 -0.01,0 0,0 -0.01,0 -0.01,0 0,0 -0.01,0 -0.01,0 0,0 -0.01,0 -0.01,0 -0.01,0 -0.01,0 0,0 -0.01,0 c -0.45,-0.44 -1.08,-0.45 -1.37,-0.45 v -0.25 c 0.17,0 0.63,0 1.01,0.2 v -3.55 c 0,-0.23 0,-0.32 -0.69,-0.32 h -0.27 v -0.25 c 0.13,0.01 0.98,0.03 1.24,0.03 0.22,0 1.09,-0.02 1.25,-0.03 v 0.25 h -0.27 c -0.7,0 -0.7,0.09 -0.7,0.32 z"
   id="path4188" />
</g>    <path
       inkscape:connector-curvature="0"
       id="path4237"
       d="m 177.16535,527.95273 0,-131.10236"
       style="fill:#fee1b8;fill-opacity:1;stroke:#000000;stroke-width:0.40000001;stroke-linecap:butt;stroke-linejoin:round;stroke-miterlimit:4;stroke-opacity:1;stroke-dasharray:1.2, 0.4;stroke-dashoffset:0" />
    <path
       style="fill:#fee1b8;fill-opacity:1;stroke:#000000;stroke-width:0.40000001;stroke-linecap:butt;stroke-linejoin:round;stroke-miterlimit:4;stroke-opacity:1;stroke-dasharray:1.2, 0.4;stroke-dashoffset:0"
       d="m 212.59843,527.95273 0,-131.10236"
       id="path4239"
       inkscape:connector-curvature="0" />
    <path
       inkscape:connector-curvature="0"
       id="path4241"
       d="m 230.31496,527.95273 0,-131.10236"
       style="fill:#fee1b8;fill-opacity:1;stroke:#000000;stroke-width:0.40000001;stroke-linecap:butt;stroke-linejoin:round;stroke-miterlimit:4;stroke-opacity:1;stroke-dasharray:1.2, 0.4;stroke-dashoffset:0" />
    <path
       style="fill:#fee1b8;fill-opacity:1;stroke:#000000;stroke-width:0.40000001;stroke-linecap:butt;stroke-linejoin:round;stroke-miterlimit:4;stroke-opacity:1;stroke-dasharray:1.2, 0.4;stroke-dashoffset:0"
       d="m 248.0315,527.95273 0,-131.10236"
       id="path4243"
       inkscape:connector-curvature="0" />
    <path
       inkscape:connector-curvature="0"
       id="path4245"
       d="m 283.46457,527.95273 0,-131.10236"
       style="fill:#fee1b8;fill-opacity:1;stroke:#000000;stroke-width:0.40000001;stroke-linecap:butt;stroke-linejoin:round;stroke-miterlimit:4;stroke-opacity:1;stroke-dasharray:1.2, 0.4;stroke-dashoffset:0" />
    <path
       style="fill:#fee1b8;fill-opacity:1;stroke:#000000;stroke-width:0.40000001;stroke-linecap:butt;stroke-linejoin:round;stroke-miterlimit:4;stroke-opacity:1;stroke-dasharray:1.2, 0.4;stroke-dashoffset:0"
       d="m 301.1811,527.95273 0,-131.10236"
       id="path4247"
       inkscape:connector-curvature="0" />
    <path
       inkscape:connector-curvature="0"
       id="path4249"
       d="m 336.61417,527.95273 0,-131.10236"
       style="fill:#fee1b8;fill-opacity:1;stroke:#000000;stroke-width:0.40000001;stroke-linecap:butt;stroke-linejoin:round;stroke-miterlimit:4;stroke-opacity:1;stroke-dasharray:1.2, 0.4;stroke-dashoffset:0" />
    <path
       style="fill:#fee1b8;fill-opacity:1;stroke:#000000;stroke-width:0.40000001;stroke-linecap:butt;stroke-linejoin:round;stroke-miterlimit:4;stroke-opacity:1;stroke-dasharray:1.2, 0.4;stroke-dashoffset:0"
       d="m 354.33071,527.95273 0,-131.10236"
       id="path4251"
       inkscape:connector-curvature="0" />
    <g
       style="font-style:normal;font-variant:normal;font-weight:normal;font-stretch:normal;letter-spacing:normal;word-spacing:normal;text-anchor:start;fill:none;stroke:#000000;stroke-linecap:butt;stroke-linejoin:miter;stroke-miterlimit:10.43299961;stroke-opacity:1;stroke-dasharray:none;stroke-dashoffset:0"
       ns0:preamble="/home/kralovic/Research-Zurich/OnlineAlgorithms/HighProbability/fig/header.tex"
       ns0:text="$s_2$"
       word-spacing="normal"
       letter-spacing="normal"
       font-size-adjust="none"
       font-stretch="normal"
       font-weight="normal"
       font-variant="normal"
       font-style="normal"
       stroke-miterlimit="10.433"
       xml:space="preserve"
       transform="matrix(1.4713029,0,0,-1.4713029,-112.93362,1105.4407)"
       id="g4343">
<path
   style="fill:#000000;stroke-width:0"
   inkscape:connector-curvature="0"
   id="path4345"
   d="m 227.32,480.95 -0.02,0 -0.03,0 -0.02,-0.01 -0.03,0 -0.02,-0.01 -0.03,-0.01 -0.02,0 -0.02,-0.01 -0.02,-0.01 -0.02,-0.01 -0.02,-0.02 -0.02,-0.01 -0.02,-0.01 -0.02,-0.02 -0.01,-0.01 -0.02,-0.02 -0.02,-0.01 -0.01,-0.02 -0.01,-0.01 -0.02,-0.02 -0.01,-0.02 -0.01,-0.02 -0.01,-0.02 -0.01,-0.02 -0.01,-0.02 0,-0.02 -0.01,-0.02 -0.01,-0.02 0,-0.02 0,-0.02 0,-0.02 0,-0.02 c 0,-0.14 0.08,-0.29 0.3,-0.29 0.22,0 0.46,0.17 0.46,0.56 0,0.45 -0.43,0.86 -1.18,0.86 -1.32,0 -1.69,-1.02 -1.69,-1.46 0,-0.77 0.74,-0.92 1.03,-0.98 0.52,-0.1 1.03,-0.21 1.03,-0.75 0,-0.26 -0.22,-1.1 -1.42,-1.1 -0.14,0 -0.9,0 -1.13,0.53 0.38,-0.05 0.63,0.25 0.63,0.53 0,0.23 -0.17,0.34 -0.37,0.34 -0.26,0 -0.56,-0.2 -0.56,-0.65 0,-0.57 0.57,-0.96 1.42,-0.96 1.61,0 2,1.2 2,1.64 0,0.36 -0.19,0.61 -0.31,0.73 -0.27,0.28 -0.55,0.33 -0.99,0.42 -0.36,0.08 -0.76,0.15 -0.76,0.59 0,0.29 0.24,0.9 1.12,0.9 0.25,0 0.74,-0.07 0.89,-0.46 z" />
<path
   style="fill:#000000;stroke-width:0"
   inkscape:connector-curvature="0"
   id="path4347"
   d="m 231.62,477.01 h -0.24 c -0.02,-0.16 -0.09,-0.57 -0.18,-0.64 -0.05,-0.04 -0.59,-0.04 -0.69,-0.04 h -1.28 c 0.73,0.65 0.98,0.84 1.39,1.17 0.52,0.41 1,0.84 1,1.5 0,0.84 -0.74,1.36 -1.63,1.36 -0.86,0 -1.45,-0.61 -1.45,-1.25 0,-0.35 0.3,-0.39 0.37,-0.39 0.17,0 0.37,0.12 0.37,0.37 0,0.13 -0.05,0.37 -0.41,0.37 0.21,0.49 0.69,0.65 1.01,0.65 0.7,0 1.06,-0.54 1.06,-1.11 0,-0.6 -0.43,-1.08 -0.65,-1.33 l -1.68,-1.66 c -0.07,-0.06 -0.07,-0.07 -0.07,-0.27 h 2.87 z" />
</g>    <g
       id="g4482"
       transform="matrix(1.4713029,0,0,-1.4713029,-95.25595,1105.3378)"
       xml:space="preserve"
       stroke-miterlimit="10.433"
       font-style="normal"
       font-variant="normal"
       font-weight="normal"
       font-stretch="normal"
       font-size-adjust="none"
       letter-spacing="normal"
       word-spacing="normal"
       ns0:text="$s_3$"
       ns0:preamble="/home/kralovic/Research-Zurich/OnlineAlgorithms/HighProbability/fig/header.tex"
       style="font-style:normal;font-variant:normal;font-weight:normal;font-stretch:normal;letter-spacing:normal;word-spacing:normal;text-anchor:start;fill:none;stroke:#000000;stroke-linecap:butt;stroke-linejoin:miter;stroke-miterlimit:10.43299961;stroke-opacity:1;stroke-dasharray:none;stroke-dashoffset:0">
<path
   style="fill:#000000;stroke-width:0"
   inkscape:connector-curvature="0"
   d="m 227.32,480.95 -0.02,0 -0.03,0 -0.02,-0.01 -0.03,0 -0.02,-0.01 -0.03,-0.01 -0.02,0 -0.02,-0.01 -0.02,-0.01 -0.02,-0.01 -0.02,-0.02 -0.02,-0.01 -0.02,-0.01 -0.02,-0.02 -0.01,-0.01 -0.02,-0.02 -0.02,-0.01 -0.01,-0.02 -0.01,-0.01 -0.02,-0.02 -0.01,-0.02 -0.01,-0.02 -0.01,-0.02 -0.01,-0.02 -0.01,-0.02 0,-0.02 -0.01,-0.02 -0.01,-0.02 0,-0.02 0,-0.02 0,-0.02 0,-0.02 c 0,-0.14 0.08,-0.29 0.3,-0.29 0.22,0 0.46,0.17 0.46,0.56 0,0.45 -0.43,0.86 -1.18,0.86 -1.32,0 -1.69,-1.02 -1.69,-1.46 0,-0.77 0.74,-0.92 1.03,-0.98 0.52,-0.1 1.03,-0.21 1.03,-0.75 0,-0.26 -0.22,-1.1 -1.42,-1.1 -0.14,0 -0.9,0 -1.13,0.53 0.38,-0.05 0.63,0.25 0.63,0.53 0,0.23 -0.17,0.34 -0.37,0.34 -0.26,0 -0.56,-0.2 -0.56,-0.65 0,-0.57 0.57,-0.96 1.42,-0.96 1.61,0 2,1.2 2,1.64 0,0.36 -0.19,0.61 -0.31,0.73 -0.27,0.28 -0.55,0.33 -0.99,0.42 -0.36,0.08 -0.76,0.15 -0.76,0.59 0,0.29 0.24,0.9 1.12,0.9 0.25,0 0.74,-0.07 0.89,-0.46 z"
   id="path4484" />
<path
   style="fill:#000000;stroke-width:0"
   inkscape:connector-curvature="0"
   d="m 230,478.06 0.05,0 0.05,0 0.05,-0.01 0.05,0 0.05,-0.01 0.04,-0.02 0.05,-0.01 0.04,-0.02 0.04,-0.02 0.04,-0.02 0.04,-0.02 0.04,-0.02 0.03,-0.03 0.04,-0.03 0.03,-0.03 0.03,-0.04 0.03,-0.03 0.03,-0.04 0.03,-0.04 0.02,-0.04 0.03,-0.05 0.02,-0.05 0.02,-0.05 0.02,-0.05 0.01,-0.05 0.02,-0.06 0.01,-0.05 0.01,-0.06 0.01,-0.07 0,-0.06 0.01,-0.07 0,-0.07 c 0,-0.86 -0.51,-1.12 -0.91,-1.12 -0.28,0 -0.89,0.08 -1.18,0.49 0.33,0.02 0.4,0.24 0.4,0.39 0,0.22 -0.17,0.38 -0.38,0.38 -0.2,0 -0.39,-0.12 -0.39,-0.4 0,-0.65 0.72,-1.08 1.56,-1.08 0.97,0 1.64,0.65 1.64,1.34 0,0.55 -0.44,1.09 -1.21,1.25 0.73,0.26 1,0.78 1,1.21 0,0.55 -0.64,0.96 -1.41,0.96 -0.77,0 -1.37,-0.38 -1.37,-0.93 0,-0.24 0.16,-0.37 0.37,-0.37 0.21,0 0.35,0.16 0.35,0.35 0,0.2 -0.14,0.35 -0.35,0.36 0.24,0.31 0.72,0.39 0.98,0.39 0.31,0 0.75,-0.16 0.75,-0.76 0,-0.29 -0.1,-0.61 -0.28,-0.83 -0.23,-0.26 -0.42,-0.28 -0.77,-0.3 -0.17,-0.01 -0.19,-0.01 -0.22,-0.02 -0.02,0 -0.07,-0.01 -0.07,-0.09 0,-0.1 0.06,-0.1 0.18,-0.1 z"
   id="path4486" />
</g>    <g
       style="font-style:normal;font-variant:normal;font-weight:normal;font-stretch:normal;letter-spacing:normal;word-spacing:normal;text-anchor:start;fill:none;stroke:#000000;stroke-linecap:butt;stroke-linejoin:miter;stroke-miterlimit:10.43299961;stroke-opacity:1;stroke-dasharray:none;stroke-dashoffset:0"
       ns0:preamble="/home/kralovic/Research-Zurich/OnlineAlgorithms/HighProbability/fig/header.tex"
       ns0:text="$s_4$"
       word-spacing="normal"
       letter-spacing="normal"
       font-size-adjust="none"
       font-stretch="normal"
       font-weight="normal"
       font-variant="normal"
       font-style="normal"
       stroke-miterlimit="10.433"
       xml:space="preserve"
       transform="matrix(1.4713029,0,0,-1.4713029,-42.222941,1105.4407)"
       id="g4621">
<path
   style="fill:#000000;stroke-width:0"
   inkscape:connector-curvature="0"
   id="path4623"
   d="m 227.32,480.95 -0.02,0 -0.03,0 -0.02,-0.01 -0.03,0 -0.02,-0.01 -0.03,-0.01 -0.02,0 -0.02,-0.01 -0.02,-0.01 -0.02,-0.01 -0.02,-0.02 -0.02,-0.01 -0.02,-0.01 -0.02,-0.02 -0.01,-0.01 -0.02,-0.02 -0.02,-0.01 -0.01,-0.02 -0.01,-0.01 -0.02,-0.02 -0.01,-0.02 -0.01,-0.02 -0.01,-0.02 -0.01,-0.02 -0.01,-0.02 0,-0.02 -0.01,-0.02 -0.01,-0.02 0,-0.02 0,-0.02 0,-0.02 0,-0.02 c 0,-0.14 0.08,-0.29 0.3,-0.29 0.22,0 0.46,0.17 0.46,0.56 0,0.45 -0.43,0.86 -1.18,0.86 -1.32,0 -1.69,-1.02 -1.69,-1.46 0,-0.77 0.74,-0.92 1.03,-0.98 0.52,-0.1 1.03,-0.21 1.03,-0.75 0,-0.26 -0.22,-1.1 -1.42,-1.1 -0.14,0 -0.9,0 -1.13,0.53 0.38,-0.05 0.63,0.25 0.63,0.53 0,0.23 -0.17,0.34 -0.37,0.34 -0.26,0 -0.56,-0.2 -0.56,-0.65 0,-0.57 0.57,-0.96 1.42,-0.96 1.61,0 2,1.2 2,1.64 0,0.36 -0.19,0.61 -0.31,0.73 -0.27,0.28 -0.55,0.33 -0.99,0.42 -0.36,0.08 -0.76,0.15 -0.76,0.59 0,0.29 0.24,0.9 1.12,0.9 0.25,0 0.74,-0.07 0.89,-0.46 z" />
<path
   style="fill:#000000;stroke-width:0"
   inkscape:connector-curvature="0"
   id="path4625"
   d="m 231.79,476.88 v 0.25 h -0.78 v 3.1 c 0,0.15 0,0.2 -0.15,0.2 -0.08,0 -0.11,0 -0.18,-0.1 l -2.31,-3.2 v -0.25 h 2.05 l 0.05,0.25 h -1.84 l 1.84,2.55 v -2.55 l -0.05,-0.25 v -0.57 c 0,-0.23 0,-0.32 -0.56,-0.32 h -0.19 v -0.25 c 0.35,0.02 0.79,0.03 1.04,0.03 0.26,0 0.71,-0.01 1.05,-0.03 v 0.25 h -0.18 c -0.57,0 -0.57,0.09 -0.57,0.32 v 0.57 z" />
</g>    <g
       id="g4760"
       transform="matrix(1.4713029,0,0,-1.4713029,10.810067,1105.3378)"
       xml:space="preserve"
       stroke-miterlimit="10.433"
       font-style="normal"
       font-variant="normal"
       font-weight="normal"
       font-stretch="normal"
       font-size-adjust="none"
       letter-spacing="normal"
       word-spacing="normal"
       ns0:text="$s_5$"
       ns0:preamble="/home/kralovic/Research-Zurich/OnlineAlgorithms/HighProbability/fig/header.tex"
       style="font-style:normal;font-variant:normal;font-weight:normal;font-stretch:normal;letter-spacing:normal;word-spacing:normal;text-anchor:start;fill:none;stroke:#000000;stroke-linecap:butt;stroke-linejoin:miter;stroke-miterlimit:10.43299961;stroke-opacity:1;stroke-dasharray:none;stroke-dashoffset:0">
<path
   style="fill:#000000;stroke-width:0"
   inkscape:connector-curvature="0"
   d="m 227.32,480.95 -0.02,0 -0.03,0 -0.02,-0.01 -0.03,0 -0.02,-0.01 -0.03,-0.01 -0.02,0 -0.02,-0.01 -0.02,-0.01 -0.02,-0.01 -0.02,-0.02 -0.02,-0.01 -0.02,-0.01 -0.02,-0.02 -0.01,-0.01 -0.02,-0.02 -0.02,-0.01 -0.01,-0.02 -0.01,-0.01 -0.02,-0.02 -0.01,-0.02 -0.01,-0.02 -0.01,-0.02 -0.01,-0.02 -0.01,-0.02 0,-0.02 -0.01,-0.02 -0.01,-0.02 0,-0.02 0,-0.02 0,-0.02 0,-0.02 c 0,-0.14 0.08,-0.29 0.3,-0.29 0.22,0 0.46,0.17 0.46,0.56 0,0.45 -0.43,0.86 -1.18,0.86 -1.32,0 -1.69,-1.02 -1.69,-1.46 0,-0.77 0.74,-0.92 1.03,-0.98 0.52,-0.1 1.03,-0.21 1.03,-0.75 0,-0.26 -0.22,-1.1 -1.42,-1.1 -0.14,0 -0.9,0 -1.13,0.53 0.38,-0.05 0.63,0.25 0.63,0.53 0,0.23 -0.17,0.34 -0.37,0.34 -0.26,0 -0.56,-0.2 -0.56,-0.65 0,-0.57 0.57,-0.96 1.42,-0.96 1.61,0 2,1.2 2,1.64 0,0.36 -0.19,0.61 -0.31,0.73 -0.27,0.28 -0.55,0.33 -0.99,0.42 -0.36,0.08 -0.76,0.15 -0.76,0.59 0,0.29 0.24,0.9 1.12,0.9 0.25,0 0.74,-0.07 0.89,-0.46 z"
   id="path4762" />
<path
   style="fill:#000000;stroke-width:0"
   inkscape:connector-curvature="0"
   d="m 229.18,479.62 0.03,-0.01 0.04,0 0.03,-0.01 0.03,-0.01 0.03,0 0.03,-0.01 0.02,-0.01 0.03,0 0.03,-0.01 0.02,0 0.03,0 0.02,-0.01 0.03,0 0.02,0 0.02,-0.01 0.02,0 0.02,0 0.02,0 0.02,0 0.02,0 0.02,-0.01 0.01,0 0.02,0 0.01,0 0.02,0 0.01,0 0.02,0 0.01,0 0.01,0 0.02,0 0.01,0 0.01,0 c 0.92,0 1.46,0.63 1.46,0.73 0,0.08 -0.05,0.1 -0.08,0.1 -0.02,0 -0.03,0 -0.06,-0.02 -0.17,-0.07 -0.54,-0.2 -1.05,-0.2 -0.2,0 -0.56,0.01 -1.02,0.18 -0.07,0.04 -0.08,0.04 -0.09,0.04 -0.09,0 -0.09,-0.08 -0.09,-0.19 v -2.05 c 0,-0.12 0,-0.2 0.11,-0.2 0.06,0 0.07,0.01 0.14,0.1 0.3,0.38 0.73,0.43 0.97,0.43 0.42,0 0.61,-0.33 0.64,-0.39 0.13,-0.23 0.17,-0.49 0.17,-0.89 0,-0.21 0,-0.62 -0.21,-0.93 -0.18,-0.25 -0.48,-0.42 -0.82,-0.42 -0.45,0 -0.92,0.26 -1.09,0.71 0.26,-0.02 0.4,0.16 0.4,0.34 0,0.3 -0.26,0.36 -0.35,0.36 -0.01,0 -0.35,0 -0.35,-0.38 0,-0.62 0.57,-1.25 1.41,-1.25 0.89,0 1.67,0.66 1.67,1.54 0,0.78 -0.6,1.51 -1.46,1.51 -0.31,0 -0.67,-0.08 -0.98,-0.34 z"
   id="path4764" />
</g>    <g
       style="font-style:normal;font-variant:normal;font-weight:normal;font-stretch:normal;letter-spacing:normal;word-spacing:normal;text-anchor:start;fill:none;stroke:#000000;stroke-linecap:butt;stroke-linejoin:miter;stroke-miterlimit:10.43299961;stroke-opacity:1;stroke-dasharray:none;stroke-dashoffset:0"
       ns0:preamble="/home/kralovic/Research-Zurich/OnlineAlgorithms/HighProbability/fig/header.tex"
       ns0:text="$f_1$"
       word-spacing="normal"
       letter-spacing="normal"
       font-size-adjust="none"
       font-stretch="normal"
       font-weight="normal"
       font-variant="normal"
       font-style="normal"
       stroke-miterlimit="10.433"
       xml:space="preserve"
       transform="matrix(1.4713029,0,0,-1.4713029,-210.79215,1128.6743)"
       id="g4908">
<path
   style="fill:#000000;stroke-width:0"
   inkscape:connector-curvature="0"
   id="path4910"
   d="m 227.08,481.21 h 0.86 c 0.2,0 0.3,0 0.3,0.2 0,0.11 -0.1,0.11 -0.27,0.11 h -0.83 l 0.21,1.13 c 0.04,0.21 0.18,0.91 0.24,1.03 0.09,0.19 0.26,0.34 0.47,0.34 0.04,0 0.3,0 0.49,-0.18 -0.44,-0.04 -0.54,-0.39 -0.54,-0.54 0,-0.22 0.18,-0.34 0.37,-0.34 0.25,0 0.54,0.21 0.54,0.59 0,0.46 -0.45,0.69 -0.86,0.69 -0.34,0 -0.97,-0.18 -1.27,-1.16 -0.05,-0.21 -0.08,-0.31 -0.32,-1.56 h -0.69 c -0.19,0 -0.3,0 -0.3,-0.19 0,-0.12 0.09,-0.12 0.28,-0.12 h 0.66 l -0.75,-3.92 c -0.18,-0.97 -0.35,-1.87 -0.87,-1.87 -0.04,0 -0.28,0 -0.47,0.18 0.46,0.03 0.55,0.38 0.55,0.53 0,0.23 -0.18,0.35 -0.37,0.35 -0.26,0 -0.55,-0.22 -0.55,-0.6 0,-0.44 0.44,-0.68 0.84,-0.68 0.55,0 0.95,0.59 1.13,0.96 0.32,0.63 0.55,1.83 0.56,1.9 z" />
<path
   style="fill:#000000;stroke-width:0"
   inkscape:connector-curvature="0"
   id="path4912"
   d="m 230.64,480.16 0,0.01 0,0.01 0,0.01 0,0.01 0,0 0,0.01 0,0.01 0,0.01 0,0 0,0.01 0,0.01 0,0 0,0.01 0,0 0,0.01 0,0 0,0.01 0,0 -0.01,0.01 0,0.01 0,0.01 -0.01,0 0,0.01 0,0.01 -0.01,0 0,0.01 -0.01,0 -0.01,0 0,0.01 -0.01,0 -0.01,0 -0.01,0 -0.01,0 0,0 -0.01,0 0,0.01 -0.01,0 0,0 -0.01,0 -0.01,0 0,0 -0.01,0 -0.01,0 -0.01,0 0,0 -0.01,0 -0.01,0 -0.01,0 -0.01,0 -0.01,0 c -0.44,-0.44 -1.08,-0.45 -1.36,-0.45 v -0.25 c 0.17,0 0.63,0 1.01,0.2 v -3.55 c 0,-0.23 0,-0.32 -0.7,-0.32 h -0.26 v -0.25 c 0.12,0.01 0.98,0.03 1.24,0.03 0.21,0 1.09,-0.02 1.24,-0.03 v 0.25 h -0.26 c -0.7,0 -0.7,0.09 -0.7,0.32 z" />
</g>    <g
       id="g5098"
       transform="matrix(1.4713029,0,0,-1.4713029,-210.96135,1147.6147)"
       xml:space="preserve"
       stroke-miterlimit="10.433"
       font-style="normal"
       font-variant="normal"
       font-weight="normal"
       font-stretch="normal"
       font-size-adjust="none"
       letter-spacing="normal"
       word-spacing="normal"
       ns0:text="$f_2$"
       ns0:preamble="/home/kralovic/Research-Zurich/OnlineAlgorithms/HighProbability/fig/header.tex"
       style="font-style:normal;font-variant:normal;font-weight:normal;font-stretch:normal;letter-spacing:normal;word-spacing:normal;text-anchor:start;fill:none;stroke:#000000;stroke-linecap:butt;stroke-linejoin:miter;stroke-miterlimit:10.43299961;stroke-opacity:1;stroke-dasharray:none;stroke-dashoffset:0">
<path
   style="fill:#000000;stroke-width:0"
   inkscape:connector-curvature="0"
   d="m 227.08,481.21 h 0.86 c 0.2,0 0.3,0 0.3,0.2 0,0.11 -0.1,0.11 -0.27,0.11 h -0.83 l 0.21,1.13 c 0.04,0.21 0.18,0.91 0.24,1.03 0.09,0.19 0.26,0.34 0.47,0.34 0.04,0 0.3,0 0.49,-0.18 -0.44,-0.04 -0.54,-0.39 -0.54,-0.54 0,-0.22 0.18,-0.34 0.37,-0.34 0.25,0 0.54,0.21 0.54,0.59 0,0.46 -0.45,0.69 -0.86,0.69 -0.34,0 -0.97,-0.18 -1.27,-1.16 -0.05,-0.21 -0.08,-0.31 -0.32,-1.56 h -0.69 c -0.19,0 -0.3,0 -0.3,-0.19 0,-0.12 0.09,-0.12 0.28,-0.12 h 0.66 l -0.75,-3.92 c -0.18,-0.97 -0.35,-1.87 -0.87,-1.87 -0.04,0 -0.28,0 -0.47,0.18 0.46,0.03 0.55,0.38 0.55,0.53 0,0.23 -0.18,0.35 -0.37,0.35 -0.26,0 -0.55,-0.22 -0.55,-0.6 0,-0.44 0.44,-0.68 0.84,-0.68 0.55,0 0.95,0.59 1.13,0.96 0.32,0.63 0.55,1.83 0.56,1.9 z"
   id="path5100" />
<path
   style="fill:#000000;stroke-width:0"
   inkscape:connector-curvature="0"
   d="m 231.83,477.01 h -0.24 c -0.02,-0.16 -0.09,-0.57 -0.18,-0.64 -0.06,-0.04 -0.59,-0.04 -0.69,-0.04 h -1.28 c 0.73,0.65 0.97,0.84 1.39,1.17 0.52,0.41 1,0.84 1,1.5 0,0.84 -0.74,1.36 -1.63,1.36 -0.87,0 -1.45,-0.61 -1.45,-1.25 0,-0.35 0.3,-0.39 0.37,-0.39 0.17,0 0.37,0.12 0.37,0.37 0,0.13 -0.05,0.37 -0.41,0.37 0.21,0.49 0.69,0.65 1.01,0.65 0.7,0 1.06,-0.54 1.06,-1.11 0,-0.6 -0.43,-1.08 -0.65,-1.33 l -1.68,-1.66 c -0.07,-0.06 -0.07,-0.07 -0.07,-0.27 h 2.87 z"
   id="path5102" />
</g>    <g
       style="font-style:normal;font-variant:normal;font-weight:normal;font-stretch:normal;letter-spacing:normal;word-spacing:normal;text-anchor:start;fill:none;stroke:#000000;stroke-linecap:butt;stroke-linejoin:miter;stroke-miterlimit:10.43299961;stroke-opacity:1;stroke-dasharray:none;stroke-dashoffset:0"
       ns0:preamble="/home/kralovic/Research-Zurich/OnlineAlgorithms/HighProbability/fig/header.tex"
       ns0:text="$f_3$"
       word-spacing="normal"
       letter-spacing="normal"
       font-size-adjust="none"
       font-stretch="normal"
       font-weight="normal"
       font-variant="normal"
       font-style="normal"
       stroke-miterlimit="10.433"
       xml:space="preserve"
       transform="matrix(1.4713029,0,0,-1.4713029,-211.00549,1165.2924)"
       id="g5273">
<path
   style="fill:#000000;stroke-width:0"
   inkscape:connector-curvature="0"
   id="path5275"
   d="m 227.08,481.21 h 0.86 c 0.2,0 0.3,0 0.3,0.2 0,0.11 -0.1,0.11 -0.27,0.11 h -0.83 l 0.21,1.13 c 0.04,0.21 0.18,0.91 0.24,1.03 0.09,0.19 0.26,0.34 0.47,0.34 0.04,0 0.3,0 0.49,-0.18 -0.44,-0.04 -0.54,-0.39 -0.54,-0.54 0,-0.22 0.18,-0.34 0.37,-0.34 0.25,0 0.54,0.21 0.54,0.59 0,0.46 -0.45,0.69 -0.86,0.69 -0.34,0 -0.97,-0.18 -1.27,-1.16 -0.05,-0.21 -0.08,-0.31 -0.32,-1.56 h -0.69 c -0.19,0 -0.3,0 -0.3,-0.19 0,-0.12 0.09,-0.12 0.28,-0.12 h 0.66 l -0.75,-3.92 c -0.18,-0.97 -0.35,-1.87 -0.87,-1.87 -0.04,0 -0.28,0 -0.47,0.18 0.46,0.03 0.55,0.38 0.55,0.53 0,0.23 -0.18,0.35 -0.37,0.35 -0.26,0 -0.55,-0.22 -0.55,-0.6 0,-0.44 0.44,-0.68 0.84,-0.68 0.55,0 0.95,0.59 1.13,0.96 0.32,0.63 0.55,1.83 0.56,1.9 z" />
<path
   style="fill:#000000;stroke-width:0"
   inkscape:connector-curvature="0"
   id="path5277"
   d="m 230.21,478.06 0.05,0 0.05,0 0.05,-0.01 0.05,0 0.04,-0.01 0.05,-0.02 0.04,-0.01 0.05,-0.02 0.04,-0.02 0.04,-0.02 0.04,-0.02 0.04,-0.02 0.03,-0.03 0.04,-0.03 0.03,-0.03 0.03,-0.04 0.03,-0.03 0.03,-0.04 0.03,-0.04 0.02,-0.04 0.03,-0.05 0.02,-0.05 0.02,-0.05 0.02,-0.05 0.01,-0.05 0.02,-0.06 0.01,-0.05 0.01,-0.06 0,-0.07 0.01,-0.06 0,-0.07 0.01,-0.07 c 0,-0.86 -0.51,-1.12 -0.91,-1.12 -0.28,0 -0.89,0.08 -1.19,0.49 0.33,0.02 0.41,0.24 0.41,0.39 0,0.22 -0.17,0.38 -0.38,0.38 -0.2,0 -0.39,-0.12 -0.39,-0.4 0,-0.65 0.72,-1.08 1.56,-1.08 0.97,0 1.64,0.65 1.64,1.34 0,0.55 -0.45,1.09 -1.21,1.25 0.73,0.26 0.99,0.78 0.99,1.21 0,0.55 -0.63,0.96 -1.4,0.96 -0.78,0 -1.37,-0.38 -1.37,-0.93 0,-0.24 0.15,-0.37 0.36,-0.37 0.22,0 0.36,0.16 0.36,0.35 0,0.2 -0.14,0.35 -0.36,0.36 0.25,0.31 0.73,0.39 0.99,0.39 0.31,0 0.75,-0.16 0.75,-0.76 0,-0.29 -0.1,-0.61 -0.28,-0.83 -0.23,-0.26 -0.43,-0.28 -0.77,-0.3 -0.18,-0.01 -0.19,-0.01 -0.23,-0.02 -0.01,0 -0.07,-0.01 -0.07,-0.09 0,-0.1 0.07,-0.1 0.19,-0.1 z" />
</g>    <g
       id="g5448"
       transform="matrix(1.4713029,0,0,-1.4713029,-211.07905,1182.2125)"
       xml:space="preserve"
       stroke-miterlimit="10.433"
       font-style="normal"
       font-variant="normal"
       font-weight="normal"
       font-stretch="normal"
       font-size-adjust="none"
       letter-spacing="normal"
       word-spacing="normal"
       ns0:text="$f_4$"
       ns0:preamble="/home/kralovic/Research-Zurich/OnlineAlgorithms/HighProbability/fig/header.tex"
       style="font-style:normal;font-variant:normal;font-weight:normal;font-stretch:normal;letter-spacing:normal;word-spacing:normal;text-anchor:start;fill:none;stroke:#000000;stroke-linecap:butt;stroke-linejoin:miter;stroke-miterlimit:10.43299961;stroke-opacity:1;stroke-dasharray:none;stroke-dashoffset:0">
<path
   style="fill:#000000;stroke-width:0"
   inkscape:connector-curvature="0"
   d="m 227.08,481.21 h 0.86 c 0.2,0 0.3,0 0.3,0.2 0,0.11 -0.1,0.11 -0.27,0.11 h -0.83 l 0.21,1.13 c 0.04,0.21 0.18,0.91 0.24,1.03 0.09,0.19 0.26,0.34 0.47,0.34 0.04,0 0.3,0 0.49,-0.18 -0.44,-0.04 -0.54,-0.39 -0.54,-0.54 0,-0.22 0.18,-0.34 0.37,-0.34 0.25,0 0.54,0.21 0.54,0.59 0,0.46 -0.45,0.69 -0.86,0.69 -0.34,0 -0.97,-0.18 -1.27,-1.16 -0.05,-0.21 -0.08,-0.31 -0.32,-1.56 h -0.69 c -0.19,0 -0.3,0 -0.3,-0.19 0,-0.12 0.09,-0.12 0.28,-0.12 h 0.66 l -0.75,-3.92 c -0.18,-0.97 -0.35,-1.87 -0.87,-1.87 -0.04,0 -0.28,0 -0.47,0.18 0.46,0.03 0.55,0.38 0.55,0.53 0,0.23 -0.18,0.35 -0.37,0.35 -0.26,0 -0.55,-0.22 -0.55,-0.6 0,-0.44 0.44,-0.68 0.84,-0.68 0.55,0 0.95,0.59 1.13,0.96 0.32,0.63 0.55,1.83 0.56,1.9 z"
   id="path5450" />
<path
   style="fill:#000000;stroke-width:0"
   inkscape:connector-curvature="0"
   d="m 231.99,476.88 v 0.25 h -0.77 v 3.1 c 0,0.15 0,0.2 -0.15,0.2 -0.09,0 -0.11,0 -0.18,-0.1 l -2.31,-3.2 v -0.25 h 2.05 l 0.05,0.25 h -1.84 l 1.84,2.55 v -2.55 l -0.05,-0.25 v -0.57 c 0,-0.23 0,-0.32 -0.56,-0.32 h -0.19 v -0.25 c 0.35,0.02 0.79,0.03 1.04,0.03 0.26,0 0.7,-0.01 1.05,-0.03 v 0.25 h -0.18 c -0.57,0 -0.57,0.09 -0.57,0.32 v 0.57 z"
   id="path5452" />
</g>    <g
       style="font-style:normal;font-variant:normal;font-weight:normal;font-stretch:normal;letter-spacing:normal;word-spacing:normal;text-anchor:start;fill:none;stroke:#000000;stroke-linecap:butt;stroke-linejoin:miter;stroke-miterlimit:10.43299961;stroke-opacity:1;stroke-dasharray:none;stroke-dashoffset:0"
       ns0:preamble="/home/kralovic/Research-Zurich/OnlineAlgorithms/HighProbability/fig/header.tex"
       ns0:text="$f_5$"
       word-spacing="normal"
       letter-spacing="normal"
       font-size-adjust="none"
       font-stretch="normal"
       font-weight="normal"
       font-variant="normal"
       font-style="normal"
       stroke-miterlimit="10.433"
       xml:space="preserve"
       transform="matrix(1.4713029,0,0,-1.4713029,-210.96135,1199.3851)"
       id="g5623">
<path
   style="fill:#000000;stroke-width:0"
   inkscape:connector-curvature="0"
   id="path5625"
   d="m 227.08,481.21 h 0.86 c 0.2,0 0.3,0 0.3,0.2 0,0.11 -0.1,0.11 -0.27,0.11 h -0.83 l 0.21,1.13 c 0.04,0.21 0.18,0.91 0.24,1.03 0.09,0.19 0.26,0.34 0.47,0.34 0.04,0 0.3,0 0.49,-0.18 -0.44,-0.04 -0.54,-0.39 -0.54,-0.54 0,-0.22 0.18,-0.34 0.37,-0.34 0.25,0 0.54,0.21 0.54,0.59 0,0.46 -0.45,0.69 -0.86,0.69 -0.34,0 -0.97,-0.18 -1.27,-1.16 -0.05,-0.21 -0.08,-0.31 -0.32,-1.56 h -0.69 c -0.19,0 -0.3,0 -0.3,-0.19 0,-0.12 0.09,-0.12 0.28,-0.12 h 0.66 l -0.75,-3.92 c -0.18,-0.97 -0.35,-1.87 -0.87,-1.87 -0.04,0 -0.28,0 -0.47,0.18 0.46,0.03 0.55,0.38 0.55,0.53 0,0.23 -0.18,0.35 -0.37,0.35 -0.26,0 -0.55,-0.22 -0.55,-0.6 0,-0.44 0.44,-0.68 0.84,-0.68 0.55,0 0.95,0.59 1.13,0.96 0.32,0.63 0.55,1.83 0.56,1.9 z" />
<path
   style="fill:#000000;stroke-width:0"
   inkscape:connector-curvature="0"
   id="path5627"
   d="m 229.39,479.62 0.03,-0.01 0.03,0 0.04,-0.01 0.03,-0.01 0.03,0 0.02,-0.01 0.03,-0.01 0.03,0 0.03,-0.01 0.02,0 0.03,0 0.02,-0.01 0.02,0 0.03,0 0.02,-0.01 0.02,0 0.02,0 0.02,0 0.02,0 0.02,0 0.01,-0.01 0.02,0 0.02,0 0.01,0 0.02,0 0.01,0 0.02,0 0.01,0 0.01,0 0.01,0 0.01,0 0.02,0 c 0.91,0 1.46,0.63 1.46,0.73 0,0.08 -0.05,0.1 -0.09,0.1 -0.01,0 -0.02,0 -0.05,-0.02 -0.17,-0.07 -0.54,-0.2 -1.05,-0.2 -0.2,0 -0.57,0.01 -1.02,0.18 -0.07,0.04 -0.08,0.04 -0.09,0.04 -0.09,0 -0.09,-0.08 -0.09,-0.19 v -2.05 c 0,-0.12 0,-0.2 0.11,-0.2 0.06,0 0.07,0.01 0.14,0.1 0.3,0.38 0.72,0.43 0.97,0.43 0.41,0 0.6,-0.33 0.64,-0.39 0.12,-0.23 0.16,-0.49 0.16,-0.89 0,-0.21 0,-0.62 -0.2,-0.93 -0.18,-0.25 -0.48,-0.42 -0.82,-0.42 -0.45,0 -0.92,0.26 -1.09,0.71 0.26,-0.02 0.4,0.16 0.4,0.34 0,0.3 -0.26,0.36 -0.35,0.36 -0.02,0 -0.35,0 -0.35,-0.38 0,-0.62 0.57,-1.25 1.41,-1.25 0.89,0 1.67,0.66 1.67,1.54 0,0.78 -0.6,1.51 -1.46,1.51 -0.31,0 -0.67,-0.08 -0.98,-0.34 z" />
</g>    <g
       id="g5798"
       transform="matrix(1.4713029,0,0,-1.4713029,-211.00549,1216.8102)"
       xml:space="preserve"
       stroke-miterlimit="10.433"
       font-style="normal"
       font-variant="normal"
       font-weight="normal"
       font-stretch="normal"
       font-size-adjust="none"
       letter-spacing="normal"
       word-spacing="normal"
       ns0:text="$f_6$"
       ns0:preamble="/home/kralovic/Research-Zurich/OnlineAlgorithms/HighProbability/fig/header.tex"
       style="font-style:normal;font-variant:normal;font-weight:normal;font-stretch:normal;letter-spacing:normal;word-spacing:normal;text-anchor:start;fill:none;stroke:#000000;stroke-linecap:butt;stroke-linejoin:miter;stroke-miterlimit:10.43299961;stroke-opacity:1;stroke-dasharray:none;stroke-dashoffset:0">
<path
   style="fill:#000000;stroke-width:0"
   inkscape:connector-curvature="0"
   d="m 227.08,481.21 h 0.86 c 0.2,0 0.3,0 0.3,0.2 0,0.11 -0.1,0.11 -0.27,0.11 h -0.83 l 0.21,1.13 c 0.04,0.21 0.18,0.91 0.24,1.03 0.09,0.19 0.26,0.34 0.47,0.34 0.04,0 0.3,0 0.49,-0.18 -0.44,-0.04 -0.54,-0.39 -0.54,-0.54 0,-0.22 0.18,-0.34 0.37,-0.34 0.25,0 0.54,0.21 0.54,0.59 0,0.46 -0.45,0.69 -0.86,0.69 -0.34,0 -0.97,-0.18 -1.27,-1.16 -0.05,-0.21 -0.08,-0.31 -0.32,-1.56 h -0.69 c -0.19,0 -0.3,0 -0.3,-0.19 0,-0.12 0.09,-0.12 0.28,-0.12 h 0.66 l -0.75,-3.92 c -0.18,-0.97 -0.35,-1.87 -0.87,-1.87 -0.04,0 -0.28,0 -0.47,0.18 0.46,0.03 0.55,0.38 0.55,0.53 0,0.23 -0.18,0.35 -0.37,0.35 -0.26,0 -0.55,-0.22 -0.55,-0.6 0,-0.44 0.44,-0.68 0.84,-0.68 0.55,0 0.95,0.59 1.13,0.96 0.32,0.63 0.55,1.83 0.56,1.9 z"
   id="path5800" />
<path
   style="fill:#000000;stroke-width:0"
   inkscape:connector-curvature="0"
   d="m 229.35,478.02 0.01,0.1 0,0.11 0,0.1 0.01,0.1 0,0.1 0.01,0.1 0.02,0.1 0.01,0.09 0.02,0.1 0.02,0.09 0.03,0.09 0.03,0.09 0.01,0.04 0.02,0.05 0.02,0.04 0.02,0.04 0.02,0.04 0.02,0.04 0.02,0.04 0.03,0.04 c 0.23,0.38 0.61,0.64 1.06,0.64 0.21,0 0.48,-0.06 0.62,-0.25 -0.17,-0.01 -0.32,-0.13 -0.32,-0.33 0,-0.17 0.12,-0.33 0.33,-0.33 0.21,0 0.34,0.14 0.34,0.34 0,0.41 -0.3,0.77 -0.99,0.77 -1,0 -2.02,-0.92 -2.02,-2.41 0,-1.81 0.85,-2.35 1.61,-2.35 0.85,0 1.59,0.65 1.59,1.56 0,0.88 -0.7,1.54 -1.52,1.54 l -0.03,-0.2 c 0.32,0 0.53,-0.12 0.71,-0.38 0.16,-0.26 0.17,-0.56 0.17,-0.96 0,-0.4 0,-0.69 -0.19,-0.96 -0.16,-0.24 -0.39,-0.38 -0.73,-0.38 h 0 c -0.35,0 -0.62,0.21 -0.76,0.51 -0.11,0.21 -0.16,0.56 -0.16,0.98 0,0.67 0.4,1.19 0.96,1.19 l 0.03,0.2 c -0.56,0 -0.86,-0.37 -1.02,-0.68 z"
   id="path5802" />
</g>    <path
       transform="translate(-177.02924,72.478445)"
       d="m 407.48031,423.42517 a 8.8582678,8.8582678 0 1 1 -17.71654,0 8.8582678,8.8582678 0 1 1 17.71654,0 z"
       sodipodi:ry="8.8582678"
       sodipodi:rx="8.8582678"
       sodipodi:cy="423.42517"
       sodipodi:cx="398.62204"
       id="path5889"
       style="fill:none;stroke:#ef0000;stroke-width:2;stroke-linecap:butt;stroke-linejoin:round;stroke-miterlimit:4;stroke-opacity:1;stroke-dasharray:none;stroke-dashoffset:0"
       sodipodi:type="arc" />
    <path
       sodipodi:type="arc"
       style="fill:none;stroke:#ef0000;stroke-width:2;stroke-linecap:butt;stroke-linejoin:round;stroke-miterlimit:4;stroke-opacity:1;stroke-dasharray:none;stroke-dashoffset:0"
       id="path5891"
       sodipodi:cx="398.62204"
       sodipodi:cy="423.42517"
       sodipodi:rx="8.8582678"
       sodipodi:ry="8.8582678"
       d="m 407.48031,423.42517 a 8.8582678,8.8582678 0 1 1 -17.71654,0 8.8582678,8.8582678 0 1 1 17.71654,0 z"
       transform="translate(-159.35157,71.973369)" />
    <path
       transform="translate(-176.7767,91.166267)"
       d="m 407.48031,423.42517 a 8.8582678,8.8582678 0 1 1 -17.71654,0 8.8582678,8.8582678 0 1 1 17.71654,0 z"
       sodipodi:ry="8.8582678"
       sodipodi:rx="8.8582678"
       sodipodi:cy="423.42517"
       sodipodi:cx="398.62204"
       id="path5893"
       style="fill:none;stroke:#ef0000;stroke-width:2;stroke-linecap:butt;stroke-linejoin:round;stroke-miterlimit:4;stroke-opacity:1;stroke-dasharray:none;stroke-dashoffset:0"
       sodipodi:type="arc" />
    <path
       transform="translate(-158.08889,90.913729)"
       d="m 407.48031,423.42517 a 8.8582678,8.8582678 0 1 1 -17.71654,0 8.8582678,8.8582678 0 1 1 17.71654,0 z"
       sodipodi:ry="8.8582678"
       sodipodi:rx="8.8582678"
       sodipodi:cy="423.42517"
       sodipodi:cx="398.62204"
       id="path5895"
       style="fill:none;stroke:#ef0000;stroke-width:2;stroke-linecap:butt;stroke-linejoin:round;stroke-miterlimit:4;stroke-opacity:1;stroke-dasharray:none;stroke-dashoffset:0"
       sodipodi:type="arc" />
    <g
       style="font-style:normal;font-variant:normal;font-weight:normal;font-stretch:normal;letter-spacing:normal;word-spacing:normal;text-anchor:start;fill:none;stroke:#000000;stroke-linecap:butt;stroke-linejoin:miter;stroke-miterlimit:10.43299961;stroke-opacity:1;stroke-dasharray:none;stroke-dashoffset:0"
       ns0:preamble="/home/kralovic/Research-Zurich/OnlineAlgorithms/HighProbability/fig/header.tex"
       ns0:text="$B$"
       text-anchor="start"
       word-spacing="normal"
       letter-spacing="normal"
       font-size-adjust="none"
       font-stretch="normal"
       font-weight="normal"
       font-variant="normal"
       font-style="normal"
       fill-opacity="1"
       fill-rule="evenodd"
       fill="none"
       stroke-opacity="1"
       stroke-dashoffset="0"
       stroke-dasharray="none"
       stroke-miterlimit="10.433"
       stroke-linejoin="miter"
       stroke-linecap="butt"
       stroke="black"
       xml:space="preserve"
       transform="matrix(1.4713029,0,0,-1.4713029,10.243829,1185.7299)"
       id="g5992">
<path
   id="path5994"
   fill="black"
   stroke-width="0"
   d="M225.02,478.01 L225.01,477.97 L225.01,477.94 L225,477.91 L224.99,477.88 L224.98,477.85 L224.97,477.82 L224.96,477.8 L224.95,477.77 L224.94,477.75 L224.93,477.73 L224.91,477.71 L224.9,477.69 L224.89,477.67 L224.87,477.66 L224.85,477.64 L224.83,477.63 L224.81,477.62 L224.78,477.61 L224.75,477.6 L224.72,477.59 L224.69,477.58 L224.67,477.58 L224.66,477.57 L224.64,477.57 L224.62,477.57 L224.6,477.56 L224.58,477.56 L224.56,477.56 L224.53,477.56 L224.51,477.55 L224.48,477.55 L224.46,477.55 L224.43,477.55 L224.41,477.55 L224.38,477.55 L224.35,477.55 L224.32,477.55 L224.29,477.54 L224.26,477.54 L224.22,477.54 L224.19,477.54 L224.15,477.54 L224.12,477.54 C223.95,477.54,223.85,477.54,223.85,477.34 C223.85,477.23,223.94,477.23,224.12,477.23 H227.67 C229.24,477.23,230.42,478.41,230.42,479.38 C230.42,480.1,229.84,480.67,228.87,480.78 C229.91,480.97,230.95,481.7,230.95,482.65 C230.95,483.38,230.3,484.02,229.1,484.02 L228.96,483.71 C229.84,483.71,230.05,483.13,230.05,482.69 C230.05,481.82,229.19,480.87,227.98,480.87 H226.53 L226.47,480.65 H228.35 C229.3,480.65,229.49,479.92,229.49,479.49 C229.49,478.51,228.61,477.54,227.43,477.54 H226.08 C225.94,477.54,225.92,477.54,225.86,477.55 C225.76,477.56,225.73,477.57,225.73,477.65 C225.73,477.68,225.73,477.7,225.78,477.88 L226.47,480.65 L226.53,480.87 L227.14,483.33 C227.23,483.68,227.25,483.71,227.68,483.71 H228.96 L229.1,484.02 H225.76 C225.57,484.02,225.47,484.02,225.47,483.82 C225.47,483.71,225.56,483.71,225.75,483.71 C225.77,483.71,225.96,483.71,226.13,483.69 C226.31,483.67,226.4,483.66,226.4,483.53 C226.4,483.49,226.39,483.46,226.36,483.34 Z " />
</g>  </g>
</svg>
