<?xml version="1.0" encoding="UTF-8" standalone="no"?>
<!-- Created with Inkscape (http://www.inkscape.org/) -->

<svg
   xmlns:ns0="http://www.iki.fi/pav/software/textext/"
   xmlns:dc="http://purl.org/dc/elements/1.1/"
   xmlns:cc="http://creativecommons.org/ns#"
   xmlns:rdf="http://www.w3.org/1999/02/22-rdf-syntax-ns#"
   xmlns:svg="http://www.w3.org/2000/svg"
   xmlns="http://www.w3.org/2000/svg"
   xmlns:sodipodi="http://sodipodi.sourceforge.net/DTD/sodipodi-0.dtd"
   xmlns:inkscape="http://www.inkscape.org/namespaces/inkscape"
   width="744.09448819"
   height="1052.3622047"
   id="svg5219"
   version="1.1"
   inkscape:version="0.48.4 r9939"
   sodipodi:docname="steiner-badstar.svg">
  <sodipodi:namedview
     id="base"
     pagecolor="#ffffff"
     bordercolor="#666666"
     borderopacity="1.0"
     inkscape:pageopacity="0.0"
     inkscape:pageshadow="2"
     inkscape:zoom="1.979899"
     inkscape:cx="1174.3017"
     inkscape:cy="879.31367"
     inkscape:document-units="px"
     inkscape:current-layer="layer8"
     showgrid="true"
     inkscape:window-width="1918"
     inkscape:window-height="1062"
     inkscape:window-x="0"
     inkscape:window-y="0"
     inkscape:window-maximized="0"
     inkscape:snap-grids="true"
     inkscape:snap-to-guides="false"
     showborder="false"
     inkscape:showpageshadow="false"
     inkscape:snap-object-midpoints="true"
     inkscape:snap-global="false"
     inkscape:object-paths="true">
    <inkscape:grid
       type="xygrid"
       id="grid5227"
       empspacing="5"
       visible="true"
       enabled="true"
       snapvisiblegridlinesonly="true"
       units="mm"
       spacingx="1mm"
       spacingy="1mm" />
  </sodipodi:namedview>
  <defs
     id="defs5221" />
  <metadata
     id="metadata5224">
    <rdf:RDF>
      <cc:Work
         rdf:about="">
        <dc:format>image/svg+xml</dc:format>
        <dc:type
           rdf:resource="http://purl.org/dc/dcmitype/StillImage" />
        <dc:title />
      </cc:Work>
    </rdf:RDF>
  </metadata>
  <g
     inkscape:groupmode="layer"
     id="layer8"
     inkscape:label="[1-6] vrcholy - popis"
     style="display:inline">
    <path
       inkscape:connector-curvature="0"
       id="path9564"
       d="m 1133.8583,184.25195 194.8819,0"
       style="fill:#f12000;fill-opacity:1;stroke:#000000;stroke-width:1.77165353;stroke-linecap:round;stroke-linejoin:round;stroke-miterlimit:4;stroke-opacity:1;stroke-dasharray:none;stroke-dashoffset:0" />
    <path
       style="fill:#f12000;fill-opacity:1;stroke:#000000;stroke-width:1.77165353;stroke-linecap:round;stroke-linejoin:round;stroke-miterlimit:4;stroke-opacity:1;stroke-dasharray:none;stroke-dashoffset:0"
       d="m 974.40945,237.40155 159.44885,-53.1496"
       id="path9272"
       inkscape:connector-curvature="0" />
    <path
       style="fill:#f12000;fill-opacity:1;stroke:#000000;stroke-width:1.77165353;stroke-linecap:round;stroke-linejoin:round;stroke-miterlimit:4;stroke-opacity:1;stroke-dasharray:none;stroke-dashoffset:0"
       d="m 974.40945,113.3858 159.44885,70.86615"
       id="path9270"
       inkscape:connector-curvature="0" />
    <path
       inkscape:connector-curvature="0"
       id="path7697"
       d="M 1133.8583,184.25195 974.40945,60.236198"
       style="fill:#f12000;fill-opacity:1;stroke:#000000;stroke-width:1.77165353;stroke-linecap:round;stroke-linejoin:round;stroke-miterlimit:4;stroke-opacity:1;stroke-dasharray:none;stroke-dashoffset:0"
       sodipodi:nodetypes="cc" />
    <path
       sodipodi:type="arc"
       style="display:inline;fill:#ffffff;fill-opacity:1;stroke:#000000;stroke-width:1.77165353000000003;stroke-linecap:butt;stroke-linejoin:round;stroke-miterlimit:4;stroke-opacity:1;stroke-dasharray:none;stroke-dashoffset:0"
       id="path8810"
       sodipodi:cx="194.8819"
       sodipodi:cy="272.83463"
       sodipodi:rx="17.716536"
       sodipodi:ry="17.716536"
       d="m 212.59843,272.83463 a 17.716536,17.716536 0 1 1 -35.43307,0 17.716536,17.716536 0 1 1 35.43307,0 z"
       transform="translate(938.97637,-88.582679)" />
    <path
       transform="translate(779.52755,-212.59843)"
       d="m 212.59843,272.83463 a 17.716536,17.716536 0 1 1 -35.43307,0 17.716536,17.716536 0 1 1 35.43307,0 z"
       sodipodi:ry="17.716536"
       sodipodi:rx="17.716536"
       sodipodi:cy="272.83463"
       sodipodi:cx="194.8819"
       id="path8360"
       style="fill:#ffffff;fill-opacity:1;stroke:#000000;stroke-width:1.77165353;stroke-linecap:butt;stroke-linejoin:round;stroke-miterlimit:4;stroke-opacity:1;stroke-dasharray:none;stroke-dashoffset:0;display:inline"
       sodipodi:type="arc" />
    <text
       sodipodi:linespacing="125%"
       id="text9235"
       y="329.59805"
       x="1013.6881"
       style="font-size:24px;font-style:normal;font-variant:normal;font-weight:normal;font-stretch:normal;text-align:start;line-height:125%;letter-spacing:0px;word-spacing:0px;writing-mode:lr-tb;text-anchor:start;fill:#000000;fill-opacity:1;stroke:none;font-family:cmr10;-inkscape-font-specification:cmr10"
       xml:space="preserve"><tspan
         y="329.59805"
         x="1013.6881"
         id="tspan9237"
         sodipodi:role="line" /></text>
    <g
       style="font-style:normal;font-variant:normal;font-weight:normal;font-stretch:normal;letter-spacing:normal;word-spacing:normal;text-anchor:start;fill:none;stroke:#000000;stroke-linecap:butt;stroke-linejoin:miter;stroke-miterlimit:10.43299961;stroke-opacity:1;stroke-dasharray:none;stroke-dashoffset:0;display:inline"
       ns0:preamble=""
       ns0:text="$u$"
       word-spacing="normal"
       letter-spacing="normal"
       font-size-adjust="none"
       font-stretch="normal"
       font-weight="normal"
       font-variant="normal"
       font-style="normal"
       stroke-miterlimit="10.433"
       xml:space="preserve"
       transform="matrix(3.5994817,0,0,-3.5994817,319.70741,2738.0723)"
       id="content"><path
         id="path9251"
         d="m 226.91,707.68 0.02,-0.04 0.01,-0.03 0.01,-0.04 0.02,-0.03 0.01,-0.04 0.02,-0.03 0.02,-0.03 0.02,-0.03 0.02,-0.03 0.02,-0.03 0.03,-0.03 0.02,-0.03 0.03,-0.02 0.02,-0.03 0.03,-0.02 0.03,-0.02 0.03,-0.03 0.03,-0.01 0.03,-0.02 0.03,-0.02 0.03,-0.02 0.04,-0.01 0.03,-0.02 0.04,-0.01 0.03,-0.01 0.04,-0.01 0.04,-0.01 0.03,0 0.04,-0.01 0.04,0 0.04,0 0.04,0 c 0.35,0 0.58,0.22 0.74,0.54 0.17,0.36 0.29,0.97 0.29,0.99 0,0.1 -0.09,0.1 -0.12,0.1 -0.09,0 -0.1,-0.05 -0.13,-0.18 -0.14,-0.56 -0.33,-1.24 -0.75,-1.24 -0.21,0 -0.31,0.13 -0.31,0.46 0,0.22 0.12,0.69 0.2,1.03 l 0.28,1.08 c 0.03,0.15 0.13,0.52 0.17,0.67 0.05,0.23 0.15,0.61 0.15,0.67 0,0.18 -0.14,0.27 -0.29,0.27 -0.05,0 -0.31,-0.01 -0.39,-0.35 -0.19,-0.73 -0.63,-2.47 -0.75,-2.99 -0.01,-0.04 -0.4,-0.84 -1.13,-0.84 -0.52,0 -0.62,0.45 -0.62,0.82 0,0.55 0.28,1.34 0.54,2.03 0.12,0.29 0.17,0.43 0.17,0.62 0,0.45 -0.32,0.82 -0.82,0.82 -0.94,0 -1.31,-1.44 -1.31,-1.53 0,-0.1 0.1,-0.1 0.12,-0.1 0.1,0 0.11,0.02 0.16,0.18 0.25,0.86 0.63,1.23 1,1.23 0.09,0 0.25,-0.01 0.25,-0.33 0,-0.24 -0.11,-0.53 -0.17,-0.68 -0.37,-0.98 -0.57,-1.6 -0.57,-2.08 0,-0.95 0.68,-1.19 1.22,-1.19 0.66,0 1.01,0.44 1.18,0.66 z"
         inkscape:connector-curvature="0"
         style="fill:#000000;stroke-width:0" /></g>    <path
       sodipodi:type="arc"
       style="fill:#ffffff;fill-opacity:1;stroke:#000000;stroke-width:1.77165353;stroke-linecap:butt;stroke-linejoin:round;stroke-miterlimit:4;stroke-opacity:1;stroke-dasharray:none;stroke-dashoffset:0;display:inline"
       id="path9264"
       sodipodi:cx="194.8819"
       sodipodi:cy="272.83463"
       sodipodi:rx="17.716536"
       sodipodi:ry="17.716536"
       d="m 212.59843,272.83463 a 17.716536,17.716536 0 1 1 -35.43307,0 17.716536,17.716536 0 1 1 35.43307,0 z"
       transform="translate(779.52755,-159.44882)" />
    <path
       transform="translate(779.52755,-35.433073)"
       d="m 212.59843,272.83463 a 17.716536,17.716536 0 1 1 -35.43307,0 17.716536,17.716536 0 1 1 35.43307,0 z"
       sodipodi:ry="17.716536"
       sodipodi:rx="17.716536"
       sodipodi:cy="272.83463"
       sodipodi:cx="194.8819"
       id="path9266"
       style="fill:#ffffff;fill-opacity:1;stroke:#000000;stroke-width:1.77165353;stroke-linecap:butt;stroke-linejoin:round;stroke-miterlimit:4;stroke-opacity:1;stroke-dasharray:none;stroke-dashoffset:0;display:inline"
       sodipodi:type="arc" />
    <path
       style="fill:#f12000;fill-opacity:1;stroke:#000000;stroke-width:1.41732287;stroke-linecap:round;stroke-linejoin:round;stroke-miterlimit:4;stroke-opacity:1;stroke-dasharray:1.41732287,5.6692915;stroke-dashoffset:0"
       d="m 974.40945,148.81888 0,53.1496"
       id="path9268"
       inkscape:connector-curvature="0" />
    <g
       id="g9296"
       transform="matrix(2.9356745,0,0,-2.9356745,305.59382,2141.4337)"
       xml:space="preserve"
       stroke-miterlimit="10.433"
       font-style="normal"
       font-variant="normal"
       font-weight="normal"
       font-stretch="normal"
       font-size-adjust="none"
       letter-spacing="normal"
       word-spacing="normal"
       ns0:text="$z_1$"
       ns0:preamble=""
       style="font-style:normal;font-variant:normal;font-weight:normal;font-stretch:normal;letter-spacing:normal;word-spacing:normal;text-anchor:start;fill:none;stroke:#000000;stroke-linecap:butt;stroke-linejoin:miter;stroke-miterlimit:10.43299961;stroke-opacity:1;stroke-dasharray:none;stroke-dashoffset:0;display:inline"><path
         style="fill:#000000;stroke-width:0"
         inkscape:connector-curvature="0"
         d="m 224.76,707.95 0.04,0.05 0.05,0.05 0.05,0.05 0.05,0.05 0.04,0.05 0.04,0.04 0.05,0.04 0.04,0.05 0.04,0.04 0.04,0.04 0.03,0.03 0.04,0.04 0.04,0.04 0.03,0.03 0.07,0.07 0.07,0.06 0.07,0.06 0.06,0.06 0.07,0.06 0.13,0.11 0.06,0.05 0.07,0.06 c 0,0.01 0.62,0.54 0.97,0.9 0.95,0.92 1.17,1.4 1.17,1.44 0,0.1 -0.09,0.1 -0.11,0.1 -0.07,0 -0.1,-0.02 -0.15,-0.11 -0.3,-0.48 -0.51,-0.64 -0.75,-0.64 -0.23,0 -0.36,0.15 -0.5,0.32 -0.19,0.23 -0.36,0.43 -0.69,0.43 -0.75,0 -1.2,-0.93 -1.2,-1.14 0,-0.05 0.03,-0.11 0.11,-0.11 0.09,0 0.11,0.05 0.13,0.11 0.19,0.46 0.77,0.47 0.85,0.47 0.21,0 0.4,-0.07 0.63,-0.15 0.39,-0.15 0.5,-0.15 0.76,-0.15 -0.36,-0.43 -1.19,-1.14 -1.38,-1.3 l -0.9,-0.83 c -0.67,-0.67 -1.02,-1.24 -1.02,-1.31 0,-0.09 0.1,-0.09 0.12,-0.09 0.08,0 0.1,0.02 0.16,0.13 0.23,0.34 0.53,0.61 0.84,0.61 0.23,0 0.33,-0.09 0.58,-0.38 0.17,-0.21 0.35,-0.36 0.64,-0.36 0.98,0 1.56,1.26 1.56,1.53 0,0.04 -0.04,0.1 -0.12,0.1 -0.09,0 -0.11,-0.06 -0.14,-0.13 -0.23,-0.65 -0.86,-0.84 -1.19,-0.84 -0.2,0 -0.38,0.06 -0.59,0.13 -0.34,0.13 -0.49,0.17 -0.7,0.17 -0.02,0 -0.17,0 -0.26,-0.03 z"
         id="path9298" /><path
         style="fill:#000000;stroke-width:0"
         inkscape:connector-curvature="0"
         d="m 230.4,710.05 0,0.01 0,0.01 0,0.01 0,0.01 0,0 0,0.01 0,0.01 0,0.01 0,0 0,0.01 0,0.01 0,0 -0.01,0.01 0,0 0,0.01 0,0 0,0.01 0,0 0,0.01 0,0.01 -0.01,0.01 0,0 0,0.01 -0.01,0.01 0,0 -0.01,0.01 -0.01,0 0,0 -0.01,0.01 -0.01,0 -0.01,0 -0.01,0 0,0 -0.01,0 0,0 -0.01,0.01 0,0 -0.01,0 -0.01,0 0,0 -0.01,0 -0.01,0 0,0 -0.01,0 -0.01,0 -0.01,0 0,0 -0.01,0 -0.01,0 -0.01,0 c -0.45,-0.44 -1.08,-0.45 -1.37,-0.45 v -0.25 c 0.17,0 0.63,0 1.01,0.2 v -3.55 c 0,-0.23 0,-0.32 -0.69,-0.32 h -0.27 v -0.25 c 0.13,0.01 0.98,0.03 1.24,0.03 0.22,0 1.1,-0.02 1.25,-0.03 v 0.25 h -0.26 c -0.7,0 -0.7,0.09 -0.7,0.32 z"
         id="path9300" /></g>    <g
       style="font-style:normal;font-variant:normal;font-weight:normal;font-stretch:normal;letter-spacing:normal;word-spacing:normal;text-anchor:start;fill:none;stroke:#000000;stroke-linecap:butt;stroke-linejoin:miter;stroke-miterlimit:10.43299961;stroke-opacity:1;stroke-dasharray:none;stroke-dashoffset:0;display:inline"
       ns0:preamble=""
       ns0:text="$z_2$"
       text-anchor="start"
       word-spacing="normal"
       letter-spacing="normal"
       font-size-adjust="none"
       font-stretch="normal"
       font-weight="normal"
       font-variant="normal"
       font-style="normal"
       fill-opacity="1"
       fill-rule="evenodd"
       fill="none"
       stroke-opacity="1"
       stroke-dashoffset="0"
       stroke-dasharray="none"
       stroke-miterlimit="10.433"
       stroke-linejoin="miter"
       stroke-linecap="butt"
       stroke="black"
       xml:space="preserve"
       transform="matrix(2.9356745,0,0,-2.9356745,306.0989,2193.9616)"
       id="g9357"><path
         id="path9359"
         fill="black"
         stroke-width="0"
         d="M224.76,707.95 L224.8,708 L224.85,708.05 L224.9,708.1 L224.95,708.15 L224.99,708.2 L225.03,708.24 L225.08,708.28 L225.12,708.33 L225.16,708.37 L225.2,708.41 L225.23,708.44 L225.27,708.48 L225.31,708.52 L225.34,708.55 L225.41,708.62 L225.48,708.68 L225.55,708.74 L225.61,708.8 L225.68,708.86 L225.81,708.97 L225.87,709.02 L225.94,709.08 C225.94,709.09,226.56,709.62,226.91,709.98 C227.86,710.9,228.08,711.38,228.08,711.42 C228.08,711.52,227.99,711.52,227.97,711.52 C227.9,711.52,227.87,711.5,227.82,711.41 C227.52,710.93,227.31,710.77,227.07,710.77 C226.84,710.77,226.71,710.92,226.57,711.09 C226.38,711.32,226.21,711.52,225.88,711.52 C225.13,711.52,224.68,710.59,224.68,710.38 C224.68,710.33,224.71,710.27,224.79,710.27 C224.88,710.27,224.9,710.32,224.92,710.38 C225.11,710.84,225.69,710.85,225.77,710.85 C225.98,710.85,226.17,710.78,226.4,710.7 C226.79,710.55,226.9,710.55,227.16,710.55 C226.8,710.12,225.97,709.41,225.78,709.25 L224.88,708.42 C224.21,707.75,223.86,707.18,223.86,707.11 C223.86,707.02,223.96,707.02,223.98,707.02 C224.06,707.02,224.08,707.04,224.14,707.15 C224.37,707.49,224.67,707.76,224.98,707.76 C225.21,707.76,225.31,707.67,225.56,707.38 C225.73,707.17,225.91,707.02,226.2,707.02 C227.18,707.02,227.76,708.28,227.76,708.55 C227.76,708.59,227.72,708.65,227.64,708.65 C227.55,708.65,227.53,708.59,227.5,708.52 C227.27,707.87,226.64,707.68,226.31,707.68 C226.11,707.68,225.93,707.74,225.72,707.81 C225.38,707.94,225.23,707.98,225.02,707.98 C225,707.98,224.85,707.98,224.76,707.95 Z " /><path
         id="path9361"
         fill="black"
         stroke-width="0"
         d="M231.58,706.9 H231.35 C231.32,706.74,231.26,706.33,231.16,706.26 C231.11,706.22,230.57,706.22,230.48,706.22 H229.19 C229.93,706.87,230.17,707.06,230.59,707.39 C231.1,707.8,231.58,708.23,231.58,708.89 C231.58,709.73,230.84,710.25,229.95,710.25 C229.09,710.25,228.5,709.64,228.5,709 C228.5,708.65,228.8,708.61,228.87,708.61 C229.04,708.61,229.24,708.73,229.24,708.98 C229.24,709.11,229.19,709.35,228.83,709.35 C229.05,709.84,229.52,710,229.85,710 C230.54,710,230.91,709.46,230.91,708.89 C230.91,708.29,230.48,707.81,230.25,707.56 L228.57,705.9 C228.5,705.84,228.5,705.83,228.5,705.63 H231.37 Z " /></g>    <g
       style="font-style:normal;font-variant:normal;font-weight:normal;font-stretch:normal;letter-spacing:normal;word-spacing:normal;text-anchor:start;fill:none;stroke:#000000;stroke-linecap:butt;stroke-linejoin:miter;stroke-miterlimit:10.43299961;stroke-opacity:1;stroke-dasharray:none;stroke-dashoffset:0;display:inline"
       ns0:preamble=""
       ns0:text="$z_\\ell$"
       word-spacing="normal"
       letter-spacing="normal"
       font-size-adjust="none"
       font-stretch="normal"
       font-weight="normal"
       font-variant="normal"
       font-style="normal"
       stroke-miterlimit="10.433"
       xml:space="preserve"
       transform="matrix(2.9356745,0,0,-2.9356745,307.10906,2319.7256)"
       id="g9467"><path
         id="path9469"
         d="m 224.76,707.95 0.04,0.05 0.05,0.05 0.05,0.05 0.05,0.05 0.04,0.05 0.04,0.04 0.05,0.04 0.04,0.05 0.04,0.04 0.04,0.04 0.03,0.03 0.04,0.04 0.04,0.04 0.03,0.03 0.07,0.07 0.07,0.06 0.07,0.06 0.06,0.06 0.07,0.06 0.13,0.11 0.06,0.05 0.07,0.06 c 0,0.01 0.62,0.54 0.97,0.9 0.95,0.92 1.17,1.4 1.17,1.44 0,0.1 -0.09,0.1 -0.11,0.1 -0.07,0 -0.1,-0.02 -0.15,-0.11 -0.3,-0.48 -0.51,-0.64 -0.75,-0.64 -0.23,0 -0.36,0.15 -0.5,0.32 -0.19,0.23 -0.36,0.43 -0.69,0.43 -0.75,0 -1.2,-0.93 -1.2,-1.14 0,-0.05 0.03,-0.11 0.11,-0.11 0.09,0 0.11,0.05 0.13,0.11 0.19,0.46 0.77,0.47 0.85,0.47 0.21,0 0.4,-0.07 0.63,-0.15 0.39,-0.15 0.5,-0.15 0.76,-0.15 -0.36,-0.43 -1.19,-1.14 -1.38,-1.3 l -0.9,-0.83 c -0.67,-0.67 -1.02,-1.24 -1.02,-1.31 0,-0.09 0.1,-0.09 0.12,-0.09 0.08,0 0.1,0.02 0.16,0.13 0.23,0.34 0.53,0.61 0.84,0.61 0.23,0 0.33,-0.09 0.58,-0.38 0.17,-0.21 0.35,-0.36 0.64,-0.36 0.98,0 1.56,1.26 1.56,1.53 0,0.04 -0.04,0.1 -0.12,0.1 -0.09,0 -0.11,-0.06 -0.14,-0.13 -0.23,-0.65 -0.86,-0.84 -1.19,-0.84 -0.2,0 -0.38,0.06 -0.59,0.13 -0.34,0.13 -0.49,0.17 -0.7,0.17 -0.02,0 -0.17,0 -0.26,-0.03 z"
         inkscape:connector-curvature="0"
         style="fill:#000000;stroke-width:0" /><path
         id="path9471"
         d="m 228.89,706.58 0.01,-0.04 0.01,-0.04 0.01,-0.05 0.01,-0.04 0.01,-0.04 0.01,-0.05 0.01,-0.04 0.02,-0.05 0.01,-0.04 0.02,-0.05 0.02,-0.04 0.02,-0.04 0.02,-0.04 0.02,-0.05 0.03,-0.03 0.02,-0.04 0.03,-0.04 0.03,-0.04 0.03,-0.03 0.03,-0.03 0.03,-0.03 0.04,-0.03 0.04,-0.03 0.04,-0.02 0.04,-0.03 0.04,-0.02 0.04,-0.01 0.05,-0.02 0.05,-0.01 0.05,-0.01 0.05,0 0.06,0 c 0.22,0 0.47,0.09 0.72,0.25 0.12,0.07 0.48,0.32 0.48,0.41 0,0.04 -0.05,0.13 -0.11,0.13 -0.04,0 -0.05,0 -0.15,-0.1 -0.3,-0.27 -0.62,-0.5 -0.94,-0.5 -0.47,0 -0.47,0.82 -0.47,0.95 0,0.09 0,0.1 0.01,0.23 0.01,0.07 0.01,0.09 0.09,0.16 0.39,0.37 1.7,1.63 1.7,2.84 0,0.11 0,0.61 -0.46,0.61 l 0,-0.2 c 0.16,0 0.24,-0.11 0.24,-0.36 0,-0.08 0,-0.7 -0.6,-1.56 -0.35,-0.5 -0.74,-0.87 -0.9,-1.03 h 0 c 0.12,0.71 0.67,2.95 1.26,2.95 l 0,0.2 c -0.57,0 -1.04,-0.9 -1.15,-1.11 -0.31,-0.59 -0.47,-1.16 -0.55,-1.51 -0.1,-0.46 -0.1,-0.71 -0.1,-1.05 -0.05,-0.05 -0.45,-0.4 -0.52,-0.46 -0.11,-0.1 -0.11,-0.1 -0.11,-0.14 0,-0.05 0.06,-0.13 0.11,-0.13 0.05,0 0.24,0.17 0.29,0.22 z"
         inkscape:connector-curvature="0"
         style="fill:#000000;stroke-width:0" /></g>    <path
       transform="translate(1133.8583,-88.582679)"
       d="m 212.59843,272.83463 a 17.716536,17.716536 0 1 1 -35.43307,0 17.716536,17.716536 0 1 1 35.43307,0 z"
       sodipodi:ry="17.716536"
       sodipodi:rx="17.716536"
       sodipodi:cy="272.83463"
       sodipodi:cx="194.8819"
       id="path9498"
       style="fill:#ffffff;fill-opacity:1;stroke:#000000;stroke-width:1.77165353;stroke-linecap:butt;stroke-linejoin:round;stroke-miterlimit:4;stroke-opacity:1;stroke-dasharray:none;stroke-dashoffset:0;display:inline"
       sodipodi:type="arc" />
    <g
       id="g9532"
       transform="matrix(3.5994817,0,0,-3.5994817,514.26744,2737.2563)"
       xml:space="preserve"
       stroke="black"
       stroke-linecap="butt"
       stroke-linejoin="miter"
       stroke-miterlimit="10.433"
       stroke-dasharray="none"
       stroke-dashoffset="0"
       stroke-opacity="1"
       fill="none"
       fill-rule="evenodd"
       fill-opacity="1"
       font-style="normal"
       font-variant="normal"
       font-weight="normal"
       font-stretch="normal"
       font-size-adjust="none"
       letter-spacing="normal"
       word-spacing="normal"
       text-anchor="start"
       ns0:text="$v$"
       ns0:preamble=""
       style="font-style:normal;font-variant:normal;font-weight:normal;font-stretch:normal;letter-spacing:normal;word-spacing:normal;text-anchor:start;fill:none;stroke:#000000;stroke-linecap:butt;stroke-linejoin:miter;stroke-miterlimit:10.43299961;stroke-opacity:1;stroke-dasharray:none;stroke-dashoffset:0;display:inline"><path
         d="M228.09,710.82 L228.09,710.84 L228.09,710.87 L228.09,710.89 L228.09,710.92 L228.08,710.94 L228.08,710.96 L228.08,710.98 L228.08,711 L228.07,711.04 L228.06,711.08 L228.05,711.12 L228.04,711.16 L228.03,711.19 L228.02,711.22 L228.01,711.25 L228,711.28 L227.98,711.3 L227.97,711.33 L227.95,711.35 L227.94,711.37 L227.92,711.39 L227.9,711.41 L227.89,711.42 L227.87,711.44 L227.85,711.45 L227.83,711.46 L227.81,711.47 L227.79,711.48 L227.78,711.49 L227.76,711.5 L227.74,711.5 L227.72,711.51 L227.7,711.51 L227.69,711.51 L227.67,711.52 L227.65,711.52 C227.4,711.52,227.16,711.26,227.16,711.04 C227.16,710.91,227.21,710.85,227.32,710.74 C227.53,710.54,227.66,710.28,227.66,709.93 C227.66,709.51,227.05,707.23,225.89,707.23 C225.38,707.23,225.15,707.58,225.15,708.1 C225.15,708.66,225.42,709.38,225.73,710.2 C225.8,710.37,225.85,710.51,225.85,710.7 C225.85,711.15,225.53,711.52,225.03,711.52 C224.1,711.52,223.72,710.08,223.72,709.99 C223.72,709.89,223.82,709.89,223.84,709.89 C223.94,709.89,223.95,709.91,224,710.07 C224.29,711.07,224.71,711.3,225,711.3 C225.08,711.3,225.25,711.3,225.25,710.98 C225.25,710.73,225.15,710.46,225.08,710.28 C224.65,709.13,224.52,708.67,224.52,708.25 C224.52,707.17,225.39,707.02,225.85,707.02 C227.52,707.02,228.09,710.3,228.09,710.82 Z "
         stroke-width="0"
         fill="black"
         id="path9534" /></g>    <g
       id="g9673"
       transform="matrix(2.5201793,0,0,-2.5201793,477.82563,2020.4326)"
       xml:space="preserve"
       stroke-miterlimit="10.433"
       font-style="normal"
       font-variant="normal"
       font-weight="normal"
       font-stretch="normal"
       font-size-adjust="none"
       letter-spacing="normal"
       word-spacing="normal"
       ns0:text="$1$"
       ns0:preamble=""
       style="font-style:normal;font-variant:normal;font-weight:normal;font-stretch:normal;letter-spacing:normal;word-spacing:normal;text-anchor:start;fill:none;stroke:#000000;stroke-linecap:butt;stroke-linejoin:miter;stroke-miterlimit:10.43299961;stroke-opacity:1;stroke-dasharray:none;stroke-dashoffset:0;display:inline"><path
         style="fill:#000000;stroke-width:0"
         inkscape:connector-curvature="0"
         d="m 226.36,713.48 0,0.01 0,0.01 0,0.02 0,0.01 0,0 0,0.01 0,0.01 0,0.01 0,0.01 0,0.01 0,0.01 0,0.01 0,0 -0.01,0.01 0,0.01 0,0 0,0.01 0,0.01 0,0.01 0,0.01 -0.01,0.01 0,0.01 0,0.01 -0.01,0 0,0.01 -0.01,0.01 0,0 -0.01,0.01 -0.01,0 -0.01,0.01 0,0 -0.01,0 0,0 -0.01,0 0,0 -0.01,0 -0.01,0.01 0,0 -0.01,0 -0.01,0 0,0 -0.01,0 -0.01,0 -0.01,0 0,0 -0.01,0 -0.01,0 -0.01,0 -0.01,0 -0.01,0 -0.01,0 -0.01,0 c -0.62,-0.64 -1.49,-0.64 -1.81,-0.64 v -0.3 c 0.2,0 0.78,0 1.3,0.25 v -5.14 c 0,-0.36 -0.03,-0.48 -0.92,-0.48 h -0.32 v -0.31 c 0.35,0.04 1.21,0.04 1.61,0.04 0.4,0 1.26,0 1.61,-0.04 v 0.31 h -0.32 c -0.89,0 -0.92,0.11 -0.92,0.48 z"
         id="path9675" /></g>    <g
       style="font-style:normal;font-variant:normal;font-weight:normal;font-stretch:normal;letter-spacing:normal;word-spacing:normal;text-anchor:start;fill:none;stroke:#000000;stroke-linecap:butt;stroke-linejoin:miter;stroke-miterlimit:10.43299961;stroke-opacity:1;stroke-dasharray:none;stroke-dashoffset:0;display:inline"
       ns0:preamble=""
       ns0:text="$1$"
       word-spacing="normal"
       letter-spacing="normal"
       font-size-adjust="none"
       font-stretch="normal"
       font-weight="normal"
       font-variant="normal"
       font-style="normal"
       stroke-miterlimit="10.433"
       xml:space="preserve"
       transform="matrix(2.5201793,0,0,-2.5201793,477.82563,1953.7625)"
       id="g9710"><path
         id="path9712"
         d="m 226.36,713.48 0,0.01 0,0.01 0,0.02 0,0.01 0,0 0,0.01 0,0.01 0,0.01 0,0.01 0,0.01 0,0.01 0,0.01 0,0 -0.01,0.01 0,0.01 0,0 0,0.01 0,0.01 0,0.01 0,0.01 -0.01,0.01 0,0.01 0,0.01 -0.01,0 0,0.01 -0.01,0.01 0,0 -0.01,0.01 -0.01,0 -0.01,0.01 0,0 -0.01,0 0,0 -0.01,0 0,0 -0.01,0 -0.01,0.01 0,0 -0.01,0 -0.01,0 0,0 -0.01,0 -0.01,0 -0.01,0 0,0 -0.01,0 -0.01,0 -0.01,0 -0.01,0 -0.01,0 -0.01,0 -0.01,0 c -0.62,-0.64 -1.49,-0.64 -1.81,-0.64 v -0.3 c 0.2,0 0.78,0 1.3,0.25 v -5.14 c 0,-0.36 -0.03,-0.48 -0.92,-0.48 h -0.32 v -0.31 c 0.35,0.04 1.21,0.04 1.61,0.04 0.4,0 1.26,0 1.61,-0.04 v 0.31 h -0.32 c -0.89,0 -0.92,0.11 -0.92,0.48 z"
         inkscape:connector-curvature="0"
         style="fill:#000000;stroke-width:0" /></g>    <g
       id="g9714"
       transform="matrix(2.5201793,0,0,-2.5201793,477.82563,1892.1432)"
       xml:space="preserve"
       stroke-miterlimit="10.433"
       font-style="normal"
       font-variant="normal"
       font-weight="normal"
       font-stretch="normal"
       font-size-adjust="none"
       letter-spacing="normal"
       word-spacing="normal"
       ns0:text="$1$"
       ns0:preamble=""
       style="font-style:normal;font-variant:normal;font-weight:normal;font-stretch:normal;letter-spacing:normal;word-spacing:normal;text-anchor:start;fill:none;stroke:#000000;stroke-linecap:butt;stroke-linejoin:miter;stroke-miterlimit:10.43299961;stroke-opacity:1;stroke-dasharray:none;stroke-dashoffset:0;display:inline"><path
         style="fill:#000000;stroke-width:0"
         inkscape:connector-curvature="0"
         d="m 226.36,713.48 0,0.01 0,0.01 0,0.02 0,0.01 0,0 0,0.01 0,0.01 0,0.01 0,0.01 0,0.01 0,0.01 0,0.01 0,0 -0.01,0.01 0,0.01 0,0 0,0.01 0,0.01 0,0.01 0,0.01 -0.01,0.01 0,0.01 0,0.01 -0.01,0 0,0.01 -0.01,0.01 0,0 -0.01,0.01 -0.01,0 -0.01,0.01 0,0 -0.01,0 0,0 -0.01,0 0,0 -0.01,0 -0.01,0.01 0,0 -0.01,0 -0.01,0 0,0 -0.01,0 -0.01,0 -0.01,0 0,0 -0.01,0 -0.01,0 -0.01,0 -0.01,0 -0.01,0 -0.01,0 -0.01,0 c -0.62,-0.64 -1.49,-0.64 -1.81,-0.64 v -0.3 c 0.2,0 0.78,0 1.3,0.25 v -5.14 c 0,-0.36 -0.03,-0.48 -0.92,-0.48 h -0.32 v -0.31 c 0.35,0.04 1.21,0.04 1.61,0.04 0.4,0 1.26,0 1.61,-0.04 v 0.31 h -0.32 c -0.89,0 -0.92,0.11 -0.92,0.48 z"
         id="path9716" /></g>    <g
       style="font-style:normal;font-variant:normal;font-weight:normal;font-stretch:normal;letter-spacing:normal;word-spacing:normal;text-anchor:start;fill:none;stroke:#000000;stroke-linecap:butt;stroke-linejoin:miter;stroke-miterlimit:10.43299961;stroke-opacity:1;stroke-dasharray:none;stroke-dashoffset:0;display:inline"
       ns0:preamble=""
       ns0:text="$3$"
       text-anchor="start"
       word-spacing="normal"
       letter-spacing="normal"
       font-size-adjust="none"
       font-stretch="normal"
       font-weight="normal"
       font-variant="normal"
       font-style="normal"
       fill-opacity="1"
       fill-rule="evenodd"
       fill="none"
       stroke-opacity="1"
       stroke-dashoffset="0"
       stroke-dasharray="none"
       stroke-miterlimit="10.433"
       stroke-linejoin="miter"
       stroke-linecap="butt"
       stroke="black"
       xml:space="preserve"
       transform="matrix(2.4544725,0,0,-2.4544725,677.0359,1913.4164)"
       id="g3061"><path
         id="path3063"
         fill="black"
         stroke-width="0"
         d="M226.32,710.62 L226.39,710.65 L226.47,710.68 L226.54,710.71 L226.61,710.74 L226.68,710.78 L226.75,710.82 L226.81,710.86 L226.88,710.9 L226.94,710.94 L227,710.99 L227.06,711.04 L227.12,711.09 L227.17,711.14 L227.22,711.19 L227.27,711.25 L227.32,711.3 L227.36,711.36 L227.41,711.42 L227.45,711.48 L227.48,711.54 L227.52,711.61 L227.55,711.67 L227.58,711.74 L227.61,711.8 L227.63,711.87 L227.65,711.94 L227.67,712.01 L227.68,712.08 L227.7,712.15 L227.7,712.22 L227.71,712.3 L227.71,712.37 C227.71,713.18,226.84,713.74,225.88,713.74 C224.88,713.74,224.12,713.15,224.12,712.39 C224.12,712.06,224.34,711.87,224.63,711.87 C224.93,711.87,225.13,712.09,225.13,712.38 C225.13,712.88,224.67,712.88,224.52,712.88 C224.82,713.36,225.48,713.49,225.84,713.49 C226.25,713.49,226.79,713.27,226.79,712.38 C226.79,712.26,226.77,711.68,226.52,711.25 C226.22,710.77,225.88,710.74,225.63,710.73 C225.55,710.72,225.31,710.7,225.24,710.7 C225.16,710.69,225.09,710.68,225.09,710.58 C225.09,710.47,225.16,710.47,225.33,710.47 H225.77 C226.59,710.47,226.95,709.8,226.95,708.82 C226.95,707.47,226.27,707.18,225.83,707.18 C225.4,707.18,224.66,707.35,224.31,707.94 C224.66,707.89,224.96,708.11,224.96,708.49 C224.96,708.84,224.7,709.04,224.41,709.04 C224.17,709.04,223.85,708.9,223.85,708.47 C223.85,707.56,224.77,706.91,225.86,706.91 C227.07,706.91,227.98,707.81,227.98,708.82 C227.98,709.64,227.35,710.41,226.32,710.62 Z " /></g>  </g>
</svg>
